<svg fill="#666" height="50" viewBox="0 0 48 48" width="50" xmlns="http://www.w3.org/2000/svg"><circle cx="24" cy="24" fill="#fff" r="19.95"/><g fill="#01579b"><path d="m8.001 24c0 6.336 3.68 11.806 9.018 14.4l-7.634-20.912c-.887 1.991-1.384 4.188-1.384 6.512zm26.803-.806c0-1.977-1.063-3.35-1.67-4.412-.813-1.329-1.576-2.437-1.576-3.752 0-1.465 1.471-2.84 3.041-2.84.071 0 .135.006.206.008-2.844-2.614-6.637-4.198-10.804-4.198-5.389 0-10.153 2.666-13.052 6.749.228.074.307.039.611.039 1.669 0 4.264-.2 4.264-.2.86-.057.965 1.212.099 1.316 0 0-.864.105-1.828.152l5.931 17.778 3.5-10.501-2.603-7.248c-.861-.046-1.679-.152-1.679-.152-.862-.056-.762-1.375.098-1.316 0 0 2.648.2 4.217.2 1.675 0 4.264-.2 4.264-.2.861-.057.965 1.212.104 1.316 0 0-.87.105-1.832.152l5.891 17.61 1.599-5.326c.814-2.08 1.219-3.8 1.219-5.175zm-10.523 2.202-4.8 13.952c1.436.426 2.95.652 4.52.652 1.861 0 3.649-.324 5.316-.907-.04-.071-.085-.143-.118-.22zm13.762-9.078c.071.51.108 1.059.108 1.645 0 1.628-.306 3.451-1.219 5.737l-4.885 14.135c4.758-2.772 7.953-7.933 7.953-13.835 0-2.781-.711-5.396-1.957-7.682z"/><path d="m4 24c0 11.024 8.97 20 19.999 20 11.031 0 20.001-8.976 20.001-20s-8.97-20-20-20-20 8.976-20 20zm1.995 0c0-9.924 8.074-17.999 18.004-17.999s18.006 8.075 18.006 17.999-8.076 18.001-18.005 18.001c-9.928 0-18.005-8.077-18.005-18.001z"/></g></svg>