<svg fill="#666" height="50" viewBox="0 0 48 48" width="50" xmlns="http://www.w3.org/2000/svg"><path d="m5 26.9s-.3 3.8 3.6 4.9 3.3-7.7 3.3-7.7z" fill="#3f51b5"/><path d="m32.9 24.9-1.8-3.6 4.9-2.5v-7.8h4v9.1c0 .8-.4 1.4-1.1 1.8z" fill="#607d8b"/><path d="m31 8v1c0 1.1.9 2 2 2h10c1.1 0 2-.9 2-2v-1z" fill="#455a64"/><path d="m35.8 29.6-20.1 9.3-6.1-13.5 20.1-9.3z" fill="#c5cae9"/><path d="m37 20.9c1.7 3.7 1.1 7.6-1.3 8.7s-5.6-1.1-7.3-4.8-1.1-7.6 1.3-8.7 5.6 1.1 7.3 4.8z" fill="#c5cae9"/><path d="m17 30.3c1.7 3.7 1.3 7.5-.9 8.5s-5.3-1.3-6.9-5c-1.7-3.7-1.3-7.5.9-8.5 2.1-1 5.2 1.2 6.9 5z" fill="#42257a"/><path d="m15.1 31.2c-1.1-2.4-2.8-3.9-3.9-3.5-1.1.5-1.1 2.8 0 5.2s2.8 3.9 3.9 3.5c1-.5 1-2.8 0-5.2z" fill="#b388ff"/><path d="m13.8 32.7c-.4 0-.7-.2-.9-.6-.3-.7-.6-1.1-.8-1.3-.4 0-.7-.2-.9-.6-.2-.5 0-1.1.5-1.3 1-.4 2.1.4 3 2.4.2.5 0 1.1-.5 1.3-.1.1-.2.1-.4.1z" fill="#ceb8ff"/><path d="m29.7 16.1-24.7 10.7s5.2-1.4 12.2 3.7c6.2-2.7 20-9.2 20-9.2-.1-.1-.1-.3-.2-.4-1.7-3.7-4.9-5.9-7.3-4.8z" fill="#7986cb"/></svg>