<svg fill="#666" height="50" viewBox="0 0 48 48" width="50" xmlns="http://www.w3.org/2000/svg"><path d="m34 12-6-6h-8l-6 6h-3v28c0 2.199219 1.800781 4 4 4h18c2.199219 0 4-1.800781 4-4v-28z" fill="#9575cd"/><g fill="#7454b3"><path d="m24.5 39h-1c-.800781 0-1.5-.699219-1.5-1.5v-19c0-.800781.699219-1.5 1.5-1.5h1c.800781 0 1.5.699219 1.5 1.5v19c0 .800781-.699219 1.5-1.5 1.5z"/><path d="m31.5 39c-.800781 0-1.5-.699219-1.5-1.5v-19c0-.800781.699219-1.5 1.5-1.5s1.5.699219 1.5 1.5v19c0 .800781-.699219 1.5-1.5 1.5z"/><path d="m16.5 39c-.800781 0-1.5-.699219-1.5-1.5v-19c0-.800781.699219-1.5 1.5-1.5s1.5.699219 1.5 1.5v19c0 .800781-.699219 1.5-1.5 1.5z"/></g><path d="m11 8h26c1.101563 0 2 .898438 2 2v2h-30v-2c0-1.101562.898438-2 2-2z" fill="#b39ddb"/></svg>