<svg fill="#666" height="50" viewBox="0 0 48 48" width="50" xmlns="http://www.w3.org/2000/svg"><path d="m14 41c0 .554688.449219 1 1 1h27v-35c0-.554687-.445312-1-1-1h-26c-.550781 0-1 .445313-1 1z" fill="#bbdefb"/><path d="m20 6h-13c-.554687 0-1 .445313-1 1v35h14z" fill="#3f51b5"/><path d="m12 10c0 1.105469-.894531 2-2 2s-2-.894531-2-2 .894531-2 2-2 2 .894531 2 2z" fill="#ffeb3b"/><path d="m18 10c0 1.105469-.894531 2-2 2s-2-.894531-2-2 .894531-2 2-2 2 .894531 2 2z" fill="#8bc34a"/><path d="m18 15c0-.554687-.445312-1-1-1h-8c-.554687 0-1 .445313-1 1 0 .554688.445313 1 1 1h8c.554688 0 1-.445312 1-1z" fill="#fafafa"/></svg>