<svg fill="#666" height="50" viewBox="0 0 48 48" width="50" xmlns="http://www.w3.org/2000/svg"><path d="m14 24h20v2h-20z" fill="#90a4ae"/><circle cx="24" cy="10" fill="#ffb74d" r="3"/><circle cx="7" cy="13" fill="#ffb74d" r="3"/><path d="m10 37h-3c-3.859 0-7-3.14-7-7v-8h2v8c0 2.757 2.243 5 5 5h3z" fill="#90a4ae"/><path d="m29 24h-10v-4c0-2.761 2.239-5 5-5s5 2.239 5 5z" fill="#2196f3"/><path d="m14 28h-4s0-6.802 0-7c0-1.657-1.343-3-3-3s-3 1.343-3 3c0 .248.01 9.249.01 9.249.13 1.555 1.43 2.751 2.99 2.751h6l1 8h3v-10c0-1.654-1.346-3-3-3z" fill="#4fc3f7"/><circle cx="41" cy="13" fill="#ffb74d" r="3"/><path d="m38 37h3c3.859 0 7-3.14 7-7v-8h-2v8c0 2.757-2.243 5-5 5h-3z" fill="#90a4ae"/><path d="m34 28h4s0-6.802 0-7c0-1.657 1.343-3 3-3s3 1.343 3 3c0 .248-.01 9.249-.01 9.249-.13 1.555-1.43 2.751-2.99 2.751h-6l-1 8h-3v-10c0-1.654 1.346-3 3-3z" fill="#4fc3f7"/></svg>