<svg fill="#666" height="50" viewBox="0 0 48 48" width="50" xmlns="http://www.w3.org/2000/svg"><path d="m42 31v-8c0-9.390625-7.609375-16-17-16h-2c-9.390625 0-17 6.609375-17 16v8s7-4 18-4 18 4 18 4z" fill="#388e3c"/><path d="m12.820313 28.4375c2.941406-.78125 6.726562-1.4375 11.179687-1.4375 4.402344 0 8.152344.644531 11.082031 1.410156.085938-2.535156.035157-16.476562-11.082031-21.410156 0 0-11.027344 3.335938-11.179687 21.4375z" fill="#1b5e20"/><g fill="#ffc107"><path d="m24 27c-10.679687 0-17.570312 3.761719-17.960937 3.980469.625 2.214844 2.113281 7.671875 3.308593 9.667969.984375 1.648437 1.941407 2.351562 3.191407 2.351562.851562 0 1.730468-.332031 2.839843-.757812 1.886719-.71875 4.464844-1.703125 8.621094-1.703125 4.152344 0 6.695313.984375 8.546875 1.699218 1.101563.425782 1.96875.761719 2.824219.761719 1.246094 0 2.222656-.695312 3.269531-2.328125.949219-1.488281 2.621094-7.308594 3.3125-9.699219-.492187-.273437-7.355469-3.972656-17.953125-3.972656z"/><path d="m27 7c0-1.105469-1.34375-2-3-2s-3 .894531-3 2 1.34375 2 3 2 3-.894531 3-2z"/><path d="m22.632813 21.078125c.25.65625.773437 1.070313 1.679687 1.070313.707031 0 1.101563-.226563 1.515625-.710938.328125-.398437.65625-.542969 1.066406-.542969.613282 0 1.105469.382813 1.105469.941407 0 .226562-.082031.425781-.214844.625-.558593.871093-1.792968 1.539062-3.472656 1.539062-1.960937 0-3.40625-.796875-4-2.378906-.230469-.640625-.3125-1.140625-.3125-2.621094s.082031-1.980469.3125-2.621094c.59375-1.578125 2.042969-2.378906 4-2.378906 1.679688 0 2.914063.667969 3.472656 1.539063.132813.199218.214844.398437.214844.625 0 .554687-.492187.941406-1.105469.941406-.410156 0-.738281-.144531-1.066406-.542969-.414062-.484375-.808594-.710937-1.515625-.710937-.90625 0-1.433594.410156-1.679687 1.070312-.128907.351563-.179688.695313-.179688 2.078125 0 1.382813.050781 1.726563.179688 2.078125z"/></g><path d="m37.230469 41.878906c-.488281 0-1.238281-.289062-2.101563-.625-1.890625-.730468-6.597656-2.714843-11.128906-2.714843s-9.238281 1.980468-11.125 2.714843c-.867187.335938-1.617187.625-2.101562.625-.167969 0-.46875 0-.988282-.59375.894532 1.191407 1.769532 1.714844 2.84375 1.714844.855469 0 1.722657-.335937 2.824219-.761719 1.855469-.714843 4.394531-1.699218 8.546875-1.699218 4.148438 0 6.691406.984375 8.546875 1.699218 1.101563.425782 1.96875.761719 2.824219.761719 1.074219 0 1.949219-.523437 2.84375-1.714844-.519531.59375-.820313.59375-.984375.59375z" fill="#ffa000"/></svg>