<svg fill="#666" height="50" viewBox="0 0 48 48" width="50" xmlns="http://www.w3.org/2000/svg"><g fill="#ffb74d"><path d="m24 16c-3.3 0-6-2.7-6-6s2.7-6 6-6 6 2.7 6 6-2.7 6-6 6"/><path d="m35 28c-.5 0-1-.2-1.4-.6l-5.7-5.7c-.5-.2-2-.7-3.9-.7s-3.3.5-3.9.7l-5.7 5.7c-.8.8-2 .8-2.8 0s-.8-2 0-2.8l6-6c.2-.2.3-.3.5-.4s2.5-1.2 5.9-1.2 5.6 1.1 5.9 1.2c.2.1.4.2.5.4l6 6c.8.8.8 2 0 2.8-.4.4-.9.6-1.4.6z"/><path d="m18 20h12v12h-12z"/><path d="m19.5 43.1c-.7 0-1.5-.3-2-.9l-4-4.1c-.7-.9-.7-2.3 0-3.2 0 0 .4-1.9 3.4-3.9 1.9-1.2 4-3.3 5.1-2.4s1.8 3.4.9 4.4l-4.3 3.5 2.7 2.5c.9 1.1.7 2.6-.4 3.5-.3.4-.8.6-1.4.6z"/><path d="m28.5 43c.7 0 1.5-.3 2-.9l4-4c.7-.9.7-2.3 0-3.2 0 0-.4-1.9-3.4-3.9s-4-3.3-5.1-2.4-1.8 3.4-.9 4.4l4.3 3.5-2.7 2.4c-.9 1.1-.7 2.7.4 3.5.3.4.8.6 1.4.6z"/></g><path d="m30 27h-12s-1 2-1 4c2 0 4 3 4 3s0 1 3 1 3-1 3-1 2-3 4-3c0-2-1-4-1-4z" fill="#2196f3"/><g fill="#1565c0"><path d="m30.4 28h-2.4c-.6 0-1 .4-1 1s.4 1 1 1h2.9c-.1-.8-.3-1.5-.5-2z"/><path d="m17.6 28h2.4c.6 0 1 .4 1 1s-.4 1-1 1h-2.9c.1-.8.3-1.5.5-2z"/></g></svg>