<svg fill="#666" height="50" viewBox="0 0 48 48" width="50" xmlns="http://www.w3.org/2000/svg"><path d="m44 24c0 11.044-8.956 20-20 20s-20-8.956-20-20 8.956-20 20-20 20 8.956 20 20z" fill="#4caf50"/><path d="m26.898 29.195c0-.805-.215-1.441-.645-1.918s-1.16-.918-2.191-1.32-3.355-1.707-4.367-2.648c-.547-.508-.953-1.125-1.25-1.82-.297-.7-.445-1.528-.445-2.489 0-1.656.496-3.094 1.406-4.25 1.25-1.594 3.594-1.75 3.594-1.75v-3h2v3c1.164 0 3.465.387 4.82 2.461 1.196 1.832 1.18 4.539 1.18 4.539h-4c0-1.18-.234-2.02-.699-2.602-.473-.586-1.195-.879-1.98-.879-.777 0-1.258.336-1.68.793-.426.458-.641 1.086-.641 1.891 0 .746.207 1.348.625 1.797.414.449 1.066.809 2.199 1.277 1.129.473 2.059.914 2.785 1.332.73.418 1.344.891 1.844 1.414.504.523.887 1.125 1.152 1.793.262.676.395 1.457.395 2.352 0 1.668-.5 3.023-1.504 4.063s-2.738 1.652-4.496 1.839v2.93h-2v-2.914c-1.938-.219-3.34-.93-4.402-2.145-1.067-1.211-1.598-2.929-1.598-4.941h4c0 1.168.266 2.172.801 2.793.535.625 1.195.938 2.199.938.832 0 1.695-.23 2.18-.684.48-.461.718-1.074.718-1.852z" fill="#fff"/></svg>