<svg fill="#666" height="50" viewBox="0 0 48 48" width="50" xmlns="http://www.w3.org/2000/svg"><path d="m32.699219 8.300781-1.398438 1.398438 4.699219 4.699219v4.601562c0 .601563.398438 1 1 1h2c.601563 0 1-.398437 1-1v-2.601562c0-.5-.199219-1-.601562-1.398438z" fill="#42a5f5"/><path d="m33 43h-24v-34c0-2.199219 1.800781-4 4-4h16c2.199219 0 4 1.800781 4 4z" fill="#ffc107"/><path d="m41.101563 27c-1-1.800781-2.101563-3.601562-2.101563-7h-2c0 4 1.199219 6.101563 2.398438 8 .902343 1.5 1.601562 2.898438 1.601562 5 0 1.101563-.898437 2-2 2-1.101562 0-2-.898437-2-2v-5c0-1.101562-.898437-2-2-2h-2v2h2v5c0 2.199219 1.800781 4 4 4s4-1.800781 4-4c0-2.601562-1-4.300781-1.898437-6z" fill="#607d8b"/><path d="m5 39h38v4h-38z" fill="#607d8b"/><path d="m29 8h-16c-.601562 0-1 .398438-1 1v10c0 .601563.398438 1 1 1h16c.601563 0 1-.398437 1-1v-10c0-.601562-.398437-1-1-1z" fill="#b2ebf2"/><path d="m29 8h-16c-.601562 0-1 .398438-1 1v10c0 .601563.398438 1 1 1h16c.601563 0 1-.398437 1-1v-10c0-.601562-.398437-1-1-1z" fill="#b2ebf2"/><path d="m22 20 4.699219-5.699219-7 5.699219z" fill="#f44336"/><g fill="#455a64"><path d="m14 13.800781-1.398437-1.402343c.296875-.296875.5-.5.796875-.699219l1.300781 1.601562c-.300781.097657-.5.300782-.699219.5zm14 0c-.199219-.199218-.398437-.402343-.699219-.601562l1.199219-1.597656c.300781.199218.601563.5.800781.699218zm-11-2-.800781-1.800781c.300781-.101562.699219-.300781 1-.398437l.601562 1.898437c-.300781.101563-.5.199219-.800781.300781zm7.898438 0c-.296875-.101562-.597657-.199218-.898438-.300781l.601563-1.898437c.296875.097656.699218.199218 1 .398437zm-4.398438-.800781-.101562-2h1.101562l-.101562 2c-.296875 0-.597657 0-.898438 0z"/><path d="m23 20h-4c0-1.101562.898438-2 2-2 1.101563 0 2 .898438 2 2z"/></g></svg>