<svg fill="#666" height="50" viewBox="0 0 48 48" width="50" xmlns="http://www.w3.org/2000/svg"><g fill="#3f51b5"><path d="m10 10h4v4h-4z"/><path d="m10 32h4v4h-4z"/><path d="m32 10h4v4h-4z"/><path d="m20 20h4v4h-4z"/><path d="m24 20h4v4h-4z"/><path d="m24 28h4v4h-4z"/><path d="m38 24h4v4h-4z"/><path d="m8 24h4v4h-4z"/><path d="m16 24h4v4h-4z"/><path d="m12 20h4v4h-4z"/><path d="m20 24h4v4h-4z"/><path d="m24 32h4v6h-4z"/><path d="m30 30h4v4h-4z"/><path d="m20 31h4v4h-4z"/><path d="m20 38h4v4h-4z"/><path d="m30 24h4v4h-4z"/><path d="m26 24h4v4h-4z"/><path d="m30 38h4v4h-4z"/><path d="m26 24h4v4h-4z"/><path d="m38 30h4v4h-4z"/><path d="m38 38h4v4h-4z"/><path d="m34 34h4v4h-4z"/><path d="m22 24h4v4h-4z"/><path d="m34 20h4v4h-4z"/><path d="m26 4v16h16v-16zm12 12h-8v-8h8z"/><path d="m4 20h16v-16h-16zm4-12h8v8h-8z"/><path d="m4 42h16v-16h-16zm4-12h8v8h-8z"/></g></svg>