<svg fill="#666" height="50" viewBox="0 0 48 48" width="50" xmlns="http://www.w3.org/2000/svg"><g fill="#64b5f6"><path d="m16 14c0 1.105469-.894531 2-2 2h-6c-1.105469 0-2-.894531-2-2v-6c0-1.105469.894531-2 2-2h6c1.105469 0 2 .894531 2 2z"/><path d="m29 14c0 1.105469-.894531 2-2 2h-6c-1.105469 0-2-.894531-2-2v-6c0-1.105469.894531-2 2-2h6c1.105469 0 2 .894531 2 2z"/><path d="m42 14c0 1.105469-.894531 2-2 2h-6c-1.105469 0-2-.894531-2-2v-6c0-1.105469.894531-2 2-2h6c1.105469 0 2 .894531 2 2z"/><path d="m16 27c0 1.105469-.894531 2-2 2h-6c-1.105469 0-2-.894531-2-2v-6c0-1.105469.894531-2 2-2h6c1.105469 0 2 .894531 2 2z"/><path d="m29 27c0 1.105469-.894531 2-2 2h-6c-1.105469 0-2-.894531-2-2v-6c0-1.105469.894531-2 2-2h6c1.105469 0 2 .894531 2 2z"/><path d="m42 27c0 1.105469-.894531 2-2 2h-6c-1.105469 0-2-.894531-2-2v-6c0-1.105469.894531-2 2-2h6c1.105469 0 2 .894531 2 2z"/><path d="m16 40c0 1.105469-.894531 2-2 2h-6c-1.105469 0-2-.894531-2-2v-6c0-1.105469.894531-2 2-2h6c1.105469 0 2 .894531 2 2z"/><path d="m29 40c0 1.105469-.894531 2-2 2h-6c-1.105469 0-2-.894531-2-2v-6c0-1.105469.894531-2 2-2h6c1.105469 0 2 .894531 2 2z"/><path d="m42 40c0 1.105469-.894531 2-2 2h-6c-1.105469 0-2-.894531-2-2v-6c0-1.105469.894531-2 2-2h6c1.105469 0 2 .894531 2 2z"/></g></svg>