<svg fill="#666" height="50" viewBox="0 0 48 48" width="50" xmlns="http://www.w3.org/2000/svg"><path d="m44 24c0 11.044-8.956 20-20 20s-20-8.956-20-20 8.956-20 20-20 20 8.956 20 20z" fill="#2196f3"/><g fill="#e3f2fd"><path d="m23.758 31.145c-.727 0-1.328.234-1.797.711-.469.473-.703 1.074-.703 1.805 0 .719.23 1.313.688 1.781.461.469 1.063.703 1.816.703.75 0 1.352-.234 1.813-.703.457-.469.688-1.063.688-1.781 0-.73-.234-1.332-.703-1.805-.466-.469-1.08-.711-1.802-.711z"/><path d="m29.184 14.586c-1.215-1.059-2.918-1.586-5.114-1.586-2.176 0-3.895.559-5.152 1.672-1.191 1.055-1.824 2.504-1.902 4.328h-.016v1h4.5l.008-.703c.02-.824.262-1.473.723-1.941.457-.473 1.074-.707 1.84-.707 1.617 0 2.422.871 2.422 2.617 0 .578-.152 1.129-.465 1.648-.309.52-.934 1.195-1.871 2.027-.938.828-1.582 1.672-1.934 2.527-.355.855-.531 2.086-.531 3.531h3.98l.063-1.023c.113-1.012.563-1.891 1.352-2.645l1.262-1.191c.98-.949 1.672-1.813 2.063-2.59.395-.781.594-1.609.594-2.484-.006-1.929-.611-3.421-1.822-4.48z"/></g></svg>