<svg fill="#666" height="50" viewBox="0 0 48 48" width="50" xmlns="http://www.w3.org/2000/svg"><g fill="#2196f3"><path d="m32 44-6-2 .601563-8 5.398437 6z"/><path d="m42 34-15-7.398437-.199219-7-.199218-4.601563 15.398437 15.199219z"/><path d="m16 44 6-2-.601562-8-5.398438 6z"/><path d="m6 34 15-7.398437.199219-7 .199219-4.601563-15.398438 15.199219z"/></g><path d="m24 4c-2.199219 0-4 1.800781-4 4v33c0 1.101563.898438 2 2 2h4c1.101563 0 2-.898437 2-2v-33c0-2.199219-1.800781-4-4-4z" fill="#64b5f6"/><path d="m23 34h2v9h-2z" fill="#2196f3"/></svg>