<svg fill="#666" height="50" viewBox="0 0 48 48" width="50" xmlns="http://www.w3.org/2000/svg"><path d="m36.5 44h-25c-1.101562 0-1.800781-1.199219-1.300781-2.199219l2.800781-4.800781h22l2.699219 4.800781c.601562 1-.097656 2.199219-1.199219 2.199219z" fill="#455a64"/><path d="m42 23c0 9.941406-8.058594 18-18 18s-18-8.058594-18-18 8.058594-18 18-18 18 8.058594 18 18z" fill="#78909c"/><path d="m24 35c-6.601562 0-12-5.398437-12-12 0-6.601562 5.398438-12 12-12 6.601563 0 12 5.398438 12 12 0 6.601563-5.398437 12-12 12z" fill="#455a64"/><path d="m33 23c0 4.96875-4.03125 9-9 9s-9-4.03125-9-9 4.03125-9 9-9 9 4.03125 9 9z" fill="#42a5f5"/><path d="m28.800781 20c-1.199218-1.398437-3-2.199219-4.800781-2.199219s-3.601562.800782-4.800781 2.199219c-.5.5-.398438 1.300781.101562 1.800781s1.300782.398438 1.800782-.101562c1.5-1.699219 4.296875-1.699219 5.796875 0 .300781.300781.601562.402344 1 .402344.300781 0 .601562-.101563.902343-.300782.398438-.402343.5-1.300781 0-1.800781z" fill="#90caf9"/></svg>