<svg fill="#666" height="50" viewBox="0 0 48 48" width="50" xmlns="http://www.w3.org/2000/svg"><path d="m7.9375 25.921875c-4.015625 4.015625-4.105469 10.4375-.199219 14.34375 3.902344 3.902344 10.324219 3.8125 14.339844-.203125l8.992188-8.992187-14.140625-14.140625z" fill="#e91e63"/><path d="m40.265625 7.734375c-3.910156-3.90625-10.328125-3.8125-14.34375.203125l-8.992187 8.992188 14.140625 14.140625 8.988281-8.992188c4.019531-4.015625 4.109375-10.4375.207031-14.34375z" fill="#00bcd4"/><path d="m31.070313 31.070313-14.140625-14.140625 1.414062-1.414063 14.140625 14.140625z" fill="#00838f"/><path d="m18.855469 18.855469-9.191406 9.191406s-5.140625 5.144531 0 10.285156c.449218.445313.945312.8125 1.476562 1.101563-4.046875-3.667969 1.09375-8.8125 1.09375-8.8125l9.195313-9.191406z" fill="#fce4ec"/><path d="m31.265625 11.59375s4.5-4.5 8.355469-.644531c-.289063-.527344-.648438-1.027344-1.097656-1.472656-5.332032-4.957032-9.832032-.457032-9.832032-.457032l-9.835937 9.835938 2.574219 2.574219z" fill="#e0f7fa"/><path d="m21.425781 21.429688-2.570312-2.574219 1.414062-1.414063 2.570313 2.574219z" fill="#80deea"/></svg>