<svg fill="#666" height="50" viewBox="0 0 48 48" width="50" xmlns="http://www.w3.org/2000/svg"><path d="m28 7.128906v2.019532c7.328125.984375 13 7.257812 13 14.851562s-5.671875 13.867188-13 14.851563v2.019531c8.433594-.992188 15-8.175781 15-16.871094 0-8.695312-6.566406-15.878906-15-16.871094" fill="#81d4fa"/><path d="m14 32h-7c-1.105469 0-2-.894531-2-2v-12c0-1.105469.894531-2 2-2h7z" fill="#546e7a"/><path d="m26 42-12-10v-16l12-10z" fill="#78909c"/><path d="m28 17.296875v2.128906c1.761719.773438 3 2.527344 3 4.574219s-1.238281 3.804688-3 4.574219v2.128906c2.886719-.859375 5-3.539062 5-6.703125 0-3.164062-2.113281-5.84375-5-6.703125" fill="#03a9f4"/><path d="m28 12.179688v2.023437c4.558594.929688 8 4.96875 8 9.796875 0 4.832031-3.441406 8.871094-8 9.800781v2.019532c5.664063-.957032 10-5.886719 10-11.820313s-4.335937-10.863281-10-11.820312" fill="#4fc3f7"/></svg>