<svg fill="#666" height="50" viewBox="0 0 48 48" width="50" xmlns="http://www.w3.org/2000/svg"><path d="m40 45h-32v-42h22l10 10z" fill="#ffa000"/><path d="m38.5 14h-9.5v-9.5z" fill="#fff3e0"/><g fill="#fff"><path d="m18.8125 29.589844v3.5h-2.011719v-9.953125h3.390625c.984375 0 1.769532.304687 2.355469.917969.585938.609375.878906 1.402343.878906 2.378906 0 .972656-.289062 1.742187-.867187 2.308594-.578125.566406-1.382813.847656-2.40625.847656zm0-1.675781h1.378906c.382813 0 .679688-.125.890625-.375.207032-.25.3125-.613282.3125-1.09375 0-.496094-.105468-.894532-.320312-1.183594-.214844-.296875-.503906-.445313-.859375-.449219h-1.402344z"/><path d="m28.96875 30.480469c0-.40625-.101562-.714844-.308594-.921875-.207031-.207031-.585937-.421875-1.132812-.644531-.996094-.378907-1.714844-.820313-2.152344-1.328125-.4375-.511719-.65625-1.109375-.65625-1.804688 0-.835937.296875-1.511719.890625-2.019531.59375-.507813 1.351563-.761719 2.265625-.761719.609375 0 1.15625.128906 1.636719.386719.476562.257812.84375.621094 1.101562 1.089844.257813.46875.386719 1.003906.386719 1.601562h-2.003906c0-.464844-.097656-.820312-.296875-1.0625-.195313-.246094-.484375-.367187-.855469-.367187-.351562 0-.625.101562-.820312.3125-.195313.207031-.292969.484375-.292969.835937 0 .273438.109375.519531.328125.742188.21875.21875.601562.449218 1.160156.6875.972656.347656 1.675781.78125 2.117188 1.289062.4375.511719.65625 1.160156.65625 1.949219 0 .867187-.273438 1.542969-.824219 2.03125-.554688.488281-1.304688.730469-2.25.730469-.644531 0-1.230469-.132813-1.757813-.394532-.527343-.265625-.941406-.644531-1.238281-1.136718-.300781-.492188-.449219-1.074219-.449219-1.742188h2.015625c0 .574219.113282.992188.335938 1.25.222656.261719.589844.394531 1.09375.394531.699219-.003906 1.050781-.375 1.050781-1.117187z"/></g></svg>