<svg fill="#666" height="50" viewBox="0 0 48 48" width="50" xmlns="http://www.w3.org/2000/svg"><path d="m5 38v-24h38v24c0 2.199219-1.800781 4-4 4h-30c-2.199219 0-4-1.800781-4-4z" fill="#cfd8dc"/><path d="m43 10v6h-38v-6c0-2.199219 1.800781-4 4-4h30c2.199219 0 4 1.800781 4 4z" fill="#f44336"/><path d="m36 10c0 1.65625-1.34375 3-3 3s-3-1.34375-3-3 1.34375-3 3-3 3 1.34375 3 3z" fill="#b71c1c"/><path d="m18 10c0 1.65625-1.34375 3-3 3s-3-1.34375-3-3 1.34375-3 3-3 3 1.34375 3 3z" fill="#b71c1c"/><path d="m33 3c-1.101562 0-2 .898438-2 2v5c0 1.101563.898438 2 2 2 1.101563 0 2-.898437 2-2v-5c0-1.101562-.898437-2-2-2z" fill="#b0bec5"/><path d="m15 3c-1.101562 0-2 .898438-2 2v5c0 1.101563.898438 2 2 2 1.101563 0 2-.898437 2-2v-5c0-1.101562-.898437-2-2-2z" fill="#b0bec5"/><g fill="#90a4ae"><path d="m13 20h4v4h-4z"/><path d="m19 20h4v4h-4z"/><path d="m25 20h4v4h-4z"/><path d="m31 20h4v4h-4z"/><path d="m13 26h4v4h-4z"/><path d="m19 26h4v4h-4z"/><path d="m25 26h4v4h-4z"/><path d="m31 26h4v4h-4z"/><path d="m13 32h4v4h-4z"/><path d="m19 32h4v4h-4z"/><path d="m25 32h4v4h-4z"/><path d="m31 32h4v4h-4z"/></g></svg>