<svg fill="#666" height="50" viewBox="0 0 48 48" width="50" xmlns="http://www.w3.org/2000/svg"><path d="m25 22h13l6 6v-17c0-2.199-1.801-4-4-4h-15c-2.199 0-4 1.801-4 4v7c0 2.199 1.801 4 4 4z" fill="#1565c0"/><path d="m23 19h-13l-6 6v-17c0-2.199 1.801-4 4-4h15c2.199 0 4 1.801 4 4v7c0 2.199-1.801 4-4 4z" fill="#2196f3"/><path d="m44 42s-2.199-4-8-4-8 4-8 4v2h16z" fill="#64b5f6"/><g fill="#ff9800"><path d="m38.001 36h-4v3s.328 1 1.959 1 2.041-1 2.041-1z"/><circle cx="39.5" cy="33.5" r="1.5"/><circle cx="32.5" cy="33.5" r="1.5"/></g><path d="m40 30.216c0-2.206-1.794-2.216-4-2.216s-4 .01-4 2.216v3.784c0 2.206 1.794 4 4 4s4-1.794 4-4c0-.347 0-3.436 0-3.784z" fill="#ffb74d"/><path d="m35.781 26c-2.437.219-4.781 1.93-4.781 5.574v1.426l1 1v-3l6.31-2.201 1.69 2.201v3l1-1v-1.203c0-2.414-.135-4.205-3-4.797l-.485-1z" fill="#424242"/><path d="m8 30.95h8v8.1h-8z" fill="#bf360c"/><path d="m20 42s-2.199-4-8-4-8 4-8 4v2h16z" fill="#7cb342"/><path d="m14.001 36h-4v3s.328 1 1.959 1 2.041-1 2.041-1z" fill="#ff9800"/><path d="m16 30.216c0-2.206-1.794-2.216-4-2.216s-4 .01-4 2.216v3.784c0 2.206 1.794 4 4 4s4-1.794 4-4c0-.347 0-3.436 0-3.784z" fill="#ffb74d"/><path d="m12 26c-4 0-7 1.356-7 10.313l3 2.43v-5.743l5.469-3 2.531 3v5.742l3-2.43c0-1.8 0-9.313-5-9.313l-1-1h-1z" fill="#ff5722"/></svg>