<svg fill="#666" height="50" viewBox="0 0 48 48" width="50" xmlns="http://www.w3.org/2000/svg"><path d="m39.996 7-4.011 31.875-.008.062v.063 2c0 .551-.449 1-1 1h-21.977c-.551 0-1-.449-1-1v-2-.062l-.008-.061-3.96-31.872h31.958z" fill="#e3f2fd"/><path d="m38.862 8.005-3.869 30.745-.016.124v.126 2h-21.977v-2-.124l-.015-.123-3.825-30.748zm1.129-2h-31.959c-.618 0-1.09.53-.998 1.12l3.966 31.875v2c0 1.105.895 2 2 2h21.977c1.105 0 2-.895 2-2v-2l4.011-31.875c.093-.589-.38-1.12-.997-1.12z" fill="#bbdefb"/><path d="m41.837 7.15.152-1c.091-.605-.377-1.15-.989-1.15h-34c-.612 0-1.08.545-.989 1.15l.152 1c.074.489.494.85.989.85h33.697c.494 0 .914-.361.988-.85z" fill="#78909c"/><path d="m34.977 43h-21.977c-1.105 0-2-.895-2-2v-2h25.977v2c0 1.105-.895 2-2 2z" fill="#78909c"/><path d="m24.74 29 1.75 3v-6z" fill="#1e88e5"/><path d="m30.238 29.381 1.555-3.151c.312-.633.268-1.384-.117-1.975l-1.322-2.255-3.354 2.18z" fill="#1565c0"/><path d="m26.24 31 2.564-.018c.389.019.754-.189.936-.535l2.015-4.137s-.547.697-2.118.697l-3.522-.007z" fill="#1e88e5"/><path d="m20 22.5h-3.625l5.125 3.25z" fill="#1e88e5"/><path d="m16.75 27 1.788 3.002c.36.607 1.006.997 1.712.998h2.75v-4z" fill="#1565c0"/><path d="m17.45 22.745-1.26 2.158c-.229.316-.253.735-.063 1.076l2.365 3.947s-.285-.839.573-2.155l1.804-2.946z" fill="#1e88e5"/><path d="m28 21.736 1.25-3-5.25 3z" fill="#1e88e5"/><path d="m25.313 17h-3.513c-.706 0-1.359.388-1.719.995l-1.395 2.354 3.441 2.04z" fill="#1565c0"/><path d="m27.394 17.588c-.175-.348-.504-.579-.894-.588h-4.625s.929.078 1.625 1.486l1.484 2.931 3.53-1.885c.001 0-.868-1.443-1.12-1.944z" fill="#1e88e5"/></svg>