<svg fill="#666" height="50" viewBox="0 0 48 48" width="50" xmlns="http://www.w3.org/2000/svg"><path d="m14 27c0 2.207031-1.789062 4-4 4-2.210937 0-4-1.792969-4-4 0-2.210937 1.789063-4 4-4 2.210938 0 4 1.789063 4 4m28 0c0-2.210937-1.789062-4-4-4-2.210937 0-4 1.789063-4 4 0 2.207031 1.789063 4 4 4 2.210938 0 4-1.792969 4-4" fill="#ffa726"/><path d="m9 20c0-12.726562 30-8.285156 30 0v10c0 8.285156-6.714844 15-15 15s-15-6.714844-15-15z" fill="#ffb74d"/><path d="m40.890625 19.339844c-.472656-5.976563-2.761719-11.390625-10.089844-12.871094l-1.699218-3.46875h-5.101563c-9.230469 0-17 7.480469-17 18v3.398438l3 3.601562v-6l21-7 7 6v7l3-3.601562v-3.398438c0-.566406-.042969-1.117187-.109375-1.660156" fill="#424242"/><path d="m30 38.804688c0 3.222656-2.6875 1.945312-6 1.945312-3.316406 0-6 1.277344-6-1.945312v-.972657c0-3.222656 2.8125-4.832031 6-4.832031 3.183594 0 6 1.609375 6 4.832031z" fill="#c62828"/><path d="m18.753906 35h10.492188c-1.039063-1.792969-3.027344-2-5.246094-2s-4.207031.207031-5.246094 2" fill="#eceff1"/><path d="m33 25v2.335938c0 1.425781-1.15625 2.582031-2.582031 2.582031-1.117188 0-2.058594-.707031-2.417969-1.699219zm-18 0v2.335938c0 1.425781 1.15625 2.582031 2.582031 2.582031 1.117188 0 2.054688-.707031 2.417969-1.699219z" fill="#784719"/></svg>