<svg fill="#666" height="50" viewBox="0 0 48 48" width="50" xmlns="http://www.w3.org/2000/svg"><g fill="#4caf50"><path d="m19.5 13.398438 2.300781-4.097657c.398438-.800781 1.199219-1.300781 2.199219-1.300781s1.800781.5 2.300781 1.300781l7.300782 13 3.5-2-7.300782-13c-1.199218-2-3.402343-3.300781-5.800781-3.300781-2.398437 0-4.601562 1.300781-5.800781 3.398438l-2.300781 4z"/><path d="m41 27.300781-3.5 2 2.199219 3.898438c.5.800781.101562 1.601562 0 1.800781-.199219.300781-.597656.898438-1.597656.898438h-15.101563v4h15.101563c2.097656 0 4-1.097657 5-2.898438s1.097656-4 0-5.800781z"/><path d="m15 36h-5.101562c-.898438 0-1.398438-.601562-1.597657-.898437-.199218-.300782-.5-1 0-1.800782l7.300782-12.902343-3.5-2-7.300782 13c-1 1.800781-1 4 0 5.800781s2.898438 2.902344 5 2.902344h5.199219z"/><path d="m26 43v-10l-7 5z"/><path d="m7.800781 19.800781 8.597657 5-.796875-8.5z"/><path d="m37.398438 24.800781.800781-8.5-8.597656 5z"/></g></svg>