<svg fill="#666" height="50" viewBox="0 0 48 48" width="50" xmlns="http://www.w3.org/2000/svg"><g fill="#ffcdd2"><path d="m32 40c0 2.761719-2.238281 5-5 5s-5-2.238281-5-5 2.238281-5 5-5 5 2.238281 5 5z"/><path d="m36 39.5c0 1.933594-1.566406 3.5-3.5 3.5s-3.5-1.566406-3.5-3.5 1.566406-3.5 3.5-3.5 3.5 1.566406 3.5 3.5z"/><path d="m26 40c0 2.761719-2.238281 5-5 5s-5-2.238281-5-5 2.238281-5 5-5 5 2.238281 5 5z"/><path d="m19 39.5c0 1.933594-1.566406 3.5-3.5 3.5s-3.5-1.566406-3.5-3.5 1.566406-3.5 3.5-3.5 3.5 1.566406 3.5 3.5z"/></g><path d="m20 35c0-2.210937 1.789063-4 4-4 2.210938 0 4 1.789063 4 4 0 2.210938-4 7-4 7s-4-4.789062-4-7z" fill="#ff3d00"/><path d="m22 35c0-1.105469.894531-2 2-2s2 .894531 2 2-2 3-2 3-2-1.894531-2-3z" fill="#ffeb3b"/><path d="m18 13v19h12s0-15.996094 0-19c0-1.582031-1.664062-4.542969-3.238281-6.996094h-5.519531c-1.578125 2.453125-3.242188 5.417969-3.242188 6.996094z" fill="#d1c4e9"/><g fill="#7e57c2"><path d="m35 32-5-1.996094v-12l5 6.996094z"/><path d="m13 32 5-1.996094v-12l-5 6.996094z"/><path d="m21.242188 6h5.519531c-1.417969-2.203125-2.761719-4-2.761719-4s-1.34375 1.796875-2.757812 4z"/><path d="m30 32-2 2h-8l-2-2z"/></g><path d="m26 14.003906c0 1.101563-.894531 2-2 2s-2-.898437-2-2c0-1.105468.894531-2 2-2s2 .894532 2 2z" fill="#311b92"/><path d="m26 20c0 1.105469-.894531 2-2 2s-2-.894531-2-2 .894531-2 2-2 2 .894531 2 2z" fill="#311b92"/><path d="m26 26c0 1.105469-.894531 2-2 2s-2-.894531-2-2 .894531-2 2-2 2 .894531 2 2z" fill="#311b92"/></svg>