<svg fill="#666" height="50" viewBox="0 0 48 48" width="50" xmlns="http://www.w3.org/2000/svg"><path d="m24 4c-11 0-20 9-20 20s9 20 20 20 20-9 20-20-9-20-20-20z" fill="#e64a19"/><g fill="#fff"><path d="m16 34c-3.3 0-6-2.7-6-6v-6h4v6c0 1.1.9 2 2 2s2-.9 2-2v-6.1h4v6.1c0 3.3-2.7 6-6 6z"/><path d="m20 25.1c-1.1 0-2-.9-2-2v-5.1c0-3.3 2.7-6 6-6s6 2.7 6 6v3c0 1.1-.9 2-2 2s-2-.9-2-2v-3c0-1.1-.9-2-2-2s-2 .9-2 2v5.1c0 1.1-.9 2-2 2z"/><path d="m34 22v6c0 1.1-.9 2-2 2s-2-.9-2-2v-3.6c-.6.3-1.3.6-2 .6s-1.4-.2-2-.6v3.6c0 3.3 2.7 6 6 6s6-2.7 6-6v-6z"/></g></svg>