<svg fill="#666" height="50" viewBox="0 0 48 48" width="50" xmlns="http://www.w3.org/2000/svg"><path d="m41.101563 28h-34.203125c-1 0-1.898438-.800781-1.898438-1.898437v-19.203125c0-1.097657.800781-1.898438 1.898438-1.898438h34.300781c1 0 1.902344.800781 1.902344 1.898438v19.300781c-.101563 1-.902344 1.800781-2 1.800781z" fill="#4caf50"/><path d="m27 17v-12h-6v12h-5l8 8 8-8z" fill="#fff"/><path d="m27 39.300781h4v1.699219h-6v-10h2zm7 0h4v1.699219h-6v-10h2zm-18.898437-2.402343h-3.101563v4.101562h-2v-10h5.5v1.699219h-3.5v2.601562h3.101563zm5.898437-5.898438v7c0 .898438-.398437 1.398438-1 1.398438-.601562 0-1-.5-1-1.398438v-7h-2v7c0 .898438.300781 1.699219.800781 2.199219s1.300782.800781 2.199219.800781c.898438 0 1.699219-.300781 2.199219-.800781s.800781-1.300781.800781-2.199219v-7z" fill="#2e7d32"/></svg>