<svg fill="#666" height="50" viewBox="0 0 48 48" width="50" xmlns="http://www.w3.org/2000/svg"><path d="m37 10.996094h-22c-2.207031 0-4.816406 1.066406-4.984375 6h-.015625v24c0 3.714844 2.761719 4.003906 3.605469 4.003906l21.394531-.003906h1c2 0 2-2 2-2v-31c0-.550781-.445312-1-1-1z" fill="#3f51b5"/><path d="m37 38.996094h-2v6h1c2 0 2-2 2-2v-4.996094c0 .550781-.445312.996094-1 .996094z" fill="#1a237e"/><path d="m37 3h-22c-2.207031 0-4.816406 1.066406-4.984375 6h-.015625v24c0 3.714844 2.761719 4.003906 3.605469 4.003906l21.394531-.003906h1c2 0 2-2 2-2v-31c0-.554687-.445312-1-1-1z" fill="#ff3d00"/><path d="m35 38.996094h-21.394531c-1.332031 0-1.605469.898437-1.605469 2 0 1.109375.273438 2.003906 1.605469 2.003906l21.394531-.003906z" fill="#ffe0b2"/><path d="m35 31h-21.394531c-1.332031 0-1.605469.894531-1.605469 2s.273438 2.003906 1.605469 2.003906l21.394531-.003906z" fill="#ffe0b2"/><path d="m37 31h-2v6h1c2 0 2-2 2-2v-4.996094c0 .550782-.445312.996094-1 .996094z" fill="#bf360c"/><path d="m13.605469 31c-1.332031 0-1.605469.894531-1.605469 2h23v-2z" fill="#e0b990"/><path d="m13.605469 38.996094c-1.332031 0-1.605469.898437-1.605469 2h23v-2z" fill="#e0b990"/><path d="m15 8.996094h19v5h-19z" fill="#ffecb3"/></svg>