<svg fill="#666" height="50" viewBox="0 0 48 48" width="50" xmlns="http://www.w3.org/2000/svg"><path d="m12 3h24v6h-24z" fill="#29b6f6"/><path d="m40 45h-32v-37c0-1.105.895-2 2-2h28c1.105 0 2 .895 2 2z" fill="#81d4fa"/><path d="m8 43h32v2h-32z" fill="#29b6f6"/><g fill="#0288d1"><path d="m12 9h6v4h-6z"/><path d="m30 9h6v4h-6z"/><path d="m21 9h6v4h-6z"/><path d="m12 16h6v4h-6z"/><path d="m30 16h6v4h-6z"/><path d="m21 16h6v4h-6z"/><path d="m12 23h6v4h-6z"/><path d="m30 23h6v4h-6z"/><path d="m21 23h6v4h-6z"/><path d="m12 30h6v4h-6z"/><path d="m21 30h6v4h-6z"/><path d="m12 37h6v4h-6z"/><path d="m21 37h6v4h-6z"/></g><path d="m38 28 2.048 2.286 2.952-.953.667 3 3 .667-.953 2.952 2.286 2.048-2.286 2.048.953 2.952-3 .667-.667 3-2.952-.953-2.048 2.286-2.048-2.286-2.952.953-.667-3-3-.667.953-2.952-2.286-2.048 2.286-2.048-.953-2.952 3-.667.667-3 2.952.953z" fill="#a0f"/><path d="m35 40h-.857l-1.143-2.292v2.292h-1v-5h.857l1.143 2.417v-2.417h1zm7.52-2 .48-3h1l-1 5h-1l-.551-2.95-.449 2.95h-1l-1-5h1l.48 3 .52-3h1zm-4.52-2v-1h-2v2 1 2h2v-1h-1v-1h1v-1h-1v-1z" fill="#fff"/></svg>