<svg fill="#666" height="50" viewBox="0 0 48 48" width="50" xmlns="http://www.w3.org/2000/svg"><path d="m4 8h40v32h-40z" fill="#c8e6c9"/><g fill="#43a047"><path d="m4 8v6c3.3 0 6-2.7 6-6z"/><path d="m44 8h-6c0 3.3 2.7 6 6 6z"/><path d="m44 40v-6c-3.3 0-6 2.7-6 6z"/><path d="m4 40h6c0-3.3-2.7-6-6-6z"/><path d="m45 41h-42v-34h42zm-40-2h38v-30h-38z"/></g><path d="m12 30h24v2h-24z" fill="#8d6e63"/><path d="m17 34h14v2h-14z" fill="#8d6e63"/><path d="m11 17h6v5h-6z" fill="#66bb6a"/><path d="m32 17h6v5h-6z" fill="#66bb6a"/><path d="m27.6 21.6c0 2.6-2.5 2.9-3 2.9v1.5h-1.1v-1.5c-.4 0-3.2-.3-3.2-3.5h2.1c0 .3 0 1.8 1.6 1.8 1.4 0 1.4-1.1 1.4-1.3 0-2.3-4.8-1.4-4.8-5.1 0-2.2 2-2.9 3-2.9v-1.5h1.2v1.6c.7.1 2.8.6 2.8 3.4h-2.1c0-.6-.1-1.8-1.4-1.8-1.2.1-1.2 1.2-1.2 1.4-0 2.1 4.7 1.3 4.7 5" fill="#2e7d32"/></svg>