<svg fill="#666" height="50" viewBox="0 0 48 48" width="50" xmlns="http://www.w3.org/2000/svg"><path d="m40 45h-32v-42h22l10 10z" fill="#ffc107"/><path d="m38.5 14h-9.5v-9.5z" fill="#fff3e0"/><g fill="#c47205"><path d="m14.425781 23.046875 1.878907 7.199219 1.875-7.199219h2.625v9.953125h-2.019532v-2.691406l.1875-4.152344-1.992187 6.84375h-1.367188l-1.988281-6.84375.183594 4.148438v2.695312h-2.007813v-9.953125z"/><path d="m24.425781 29.5v3.5h-2.011718v-9.953125h3.394531c.980469 0 1.769531.304688 2.351562.917969.585938.609375.878907 1.402344.878907 2.378906 0 .972656-.289063 1.742188-.867188 2.308594s-1.382812.847656-2.40625.847656zm0-1.675781h1.382813c.382812 0 .679687-.125.886719-.375.210937-.25.316406-.613281.316406-1.09375 0-.496094-.109375-.890625-.324219-1.1875-.210937-.292969-.5-.441406-.859375-.445313h-1.402344z"/><path d="m31.953125 27.140625h.9375c.351563 0 .613281-.125.78125-.371094.167969-.25.25-.585937.25-1 0-.398437-.085937-.710937-.257812-.933593-.171875-.222657-.398438-.332032-.6875-.332032-.269532 0-.488282.105469-.660157.316407-.171875.210937-.253906.480468-.253906.804687h-1.9375c0-.519531.121094-.984375.359375-1.398437.238281-.414063.574219-.734375 1.003906-.96875.433594-.230469.910157-.347657 1.433594-.347657.917969 0 1.632813.253907 2.152344.757813.519531.507812.78125 1.199219.78125 2.078125 0 .453125-.117188.871094-.351563 1.253906-.238281.386719-.546875.683594-.929687.886719.472656.199219.820312.5 1.050781.902344.230469.402343.34375.875.34375 1.421875 0 .882812-.28125 1.59375-.84375 2.125-.5625.535156-1.300781.800781-2.21875.800781-.851562 0-1.542969-.261719-2.074219-.789063-.53125-.527343-.796875-1.21875-.796875-2.074218h1.9375c0 .359375.09375.660156.277344.90625.1875.242187.425781.363281.710938.363281.335937 0 .597656-.121094.792968-.371094.191407-.246094.289063-.574219.289063-.988281 0-.984375-.382813-1.480469-1.144531-1.484375h-.949219v-1.558594z"/></g></svg>