<svg fill="#666" height="50" viewBox="0 0 48 48" width="50" xmlns="http://www.w3.org/2000/svg"><path d="m39.988281 12s1 23-15.816406 32c-17.160156-9-16.160156-32-16.160156-32 7.996094 0 15.988281-8 15.988281-8s6.996094 8 15.988281 8z" fill="#ffc107"/><path d="m22 32.140625c0-.269531.046875-.511719.144531-.746094.09375-.226562.226563-.425781.402344-.589843.171875-.167969.382813-.300782.625-.394532.242188-.089843.515625-.140625.820313-.140625.308593 0 .582031.050782.828125.140625.25.09375.460937.226563.632812.394532.175781.164062.3125.363281.402344.589843.097656.234375.144531.476563.144531.746094s-.046875.515625-.144531.742188c-.09375.222656-.226563.417968-.402344.585937-.171875.167969-.382812.296875-.632812.394531-.246094.089844-.519532.136719-.828125.136719-.304688 0-.578125-.046875-.820313-.140625-.242187-.09375-.453125-.222656-.625-.390625-.175781-.167969-.3125-.363281-.402344-.585937-.097656-.226563-.144531-.472657-.144531-.742188m3.480469-4.140625h-2.972656l-.421875-12h3.8125z" fill="#5d4037"/></svg>