<svg fill="#666" height="50" viewBox="0 0 48 48" width="50" xmlns="http://www.w3.org/2000/svg"><path d="m40 45h-32v-42h22l10 10z" fill="#ff9100"/><g fill="#ffe0b2"><path d="m38.5 14h-9.5v-9.5z"/><path d="m16.007813 29.363281h-.996094v3.636719h-2.011719v-9.953125h3.207031c1.007813 0 1.785157.261719 2.332032.78125.550781.523438.824218 1.265625.824218 2.226563 0 1.320312-.480468 2.246093-1.441406 2.773437l1.742188 4.074219v.097656h-2.160157zm-.996094-1.675781h1.140625c.402344 0 .703125-.132812.902344-.398437.199218-.265625.300781-.625.300781-1.070313 0-.996094-.390625-1.496094-1.167969-1.496094h-1.175781z"/><path d="m25.496094 30.964844h-2.742188l-.53125 2.035156h-2.125l3.109375-9.953125h1.839844l3.128906 9.953125h-2.144531zm-2.304688-1.675781h1.859375l-.929687-3.550782z"/><path d="m32.007813 29.363281h-.996094v3.636719h-2.011719v-9.953125h3.207031c1.007813 0 1.785157.261719 2.332032.78125.550781.523438.824218 1.265625.824218 2.226563 0 1.320312-.480468 2.246093-1.441406 2.773437l1.742188 4.074219v.097656h-2.160157zm-.996094-1.675781h1.140625c.402344 0 .703125-.132812.902344-.398437.199218-.265625.300781-.625.300781-1.070313 0-.996094-.390625-1.496094-1.167969-1.496094h-1.175781z"/></g></svg>