<svg fill="#666" height="50" viewBox="0 0 48 48" width="50" xmlns="http://www.w3.org/2000/svg"><path d="m15 40h23l6 6v-21c0-2.199219-1.800781-4-4-4h-25c-2.199219 0-4 1.800781-4 4v11c0 2.199219 1.800781 4 4 4z" fill="#558b2f"/><path d="m28.800781 32.800781h-3.601562l-.699219 2.097657h-2.199219l3.699219-10h1.898438l3.703125 10h-2.203125zm-3.101562-1.601562h2.5l-1.199219-3.800781z" fill="#1b5e20"/><path d="m33 25h-23l-6 6v-23c0-2.199219 1.800781-4 4-4h25c2.199219 0 4 1.800781 4 4v13c0 2.199219-1.800781 4-4 4z" fill="#8bc34a"/><path d="m25.398438 14.199219c0 1-.199219 1.800781-.5 2.5-.296875.699219-.699219 1.300781-1.296875 1.699219l1.699218 1.300781-1.300781 1.199219-2.199219-1.699219c-.199218 0-.5.101562-.800781.101562-.601562 0-1.199219-.101562-1.800781-.300781-.5-.199219-1-.601562-1.398438-1-.402343-.398437-.699218-1-.902343-1.601562-.199219-.597657-.296875-1.296875-.296875-2.097657v-.402343c0-.796875.097656-1.5.296875-2.097657.203125-.601562.5-1.199218.902343-1.601562.398438-.398438.800782-.800781 1.398438-1 .5-.199219 1.101562-.300781 1.800781-.300781.601563 0 1.199219.101562 1.800781.300781.5.199219 1 .601562 1.398438 1 .402344.402344.699219 1 .902344 1.601562.199218.597657.296875 1.300782.296875 2.097657zm-2.199219-.5c0-1.097656-.199219-1.898438-.597656-2.398438-.402344-.601562-.902344-.800781-1.601563-.800781s-1.300781.300781-1.601562.800781c-.398438.597657-.597657 1.398438-.597657 2.398438v.5c0 .5.097657 1 .199219 1.402344.101563.398437.199219.796875.398438 1 .203125.296875.402343.5.703125.597656.296875.101562.597656.199219.898437.199219.699219 0 1.300781-.296875 1.601563-.796875.398437-.601563.597656-1.402344.597656-2.5z" fill="#fff"/></svg>