<svg fill="#666" height="50" viewBox="0 0 48 48" width="50" xmlns="http://www.w3.org/2000/svg"><path d="m12.300781 40.800781c.097657-.101562 1.300782-1.402343 3.199219-3.402343 2.800781-2.898438 15-15.898438 15.199219-16.097657.902344-.902343 5.199219 2.398438 8.800781-1.199218 2.300781-2.300782 3.101563-5.203125 2.101563-8.703125l-4.601563 4.601562s-1.699219 0-3.398437-1.601562c-1.601563-1.699219-1.601563-3.398438-1.601563-3.398438l4.601563-4.5c-3.300782-1-6.5-.199219-8.800782 2.101563-3.5 3.5-.402343 7.898437-1.300781 8.796875-.199219.101562-17.300781 16.402343-17.5 16.601562-1.699219 1.601563-1.800781 1.699219-1.898437 1.699219-1.402344 1.5-1.5 3.902344-.101563 5.300781 1.398438 1.398438 3.800781 1.300781 5.300781-.199219zm-2.300781-4.300781c.800781 0 1.5.699219 1.5 1.5s-.699219 1.5-1.5 1.5-1.5-.699219-1.5-1.5.601563-1.5 1.5-1.5z" fill="#607d8b"/><path d="m40 37-25.5-25.300781-2.5-3.699219-4.601562-2-1.398438 1.398438 2 4.601562 3.699219 2.5 25.5 25.300781z" fill="#b0bec5"/><path d="m26.5 20.800781c-2.101562-5-3.300781-2.300781-5.699219 0-2.300781 2.300782-5 3.5 0 5.699219 4.898438 2.101563 10.300782 11.699219 12.398438 13.898438 2.101562 2.101562 4.699219 2.300781 7.101562 0 2.300782-2.296875 2.097657-4.898438 0-7.097657-2.101562-2.101562-11.699218-7.5-13.800781-12.5z" fill="#ffc107"/><path d="m20.800781 20.800781c2.300782-2.300781 3.5-5 5.699219 0l-5.699219 5.699219c-4.902343-2.101562-2.300781-3.300781 0-5.699219z" fill="#ff9800"/></svg>