<svg fill="#666" height="50" viewBox="0 0 48 48" width="50" xmlns="http://www.w3.org/2000/svg"><path d="m40.300781 15.699219c.597657-1.699219 1.199219-5-.402343-8.699219-4.5 0-8.296875 3.199219-8.898438 3.800781-2.199219-.5-4.601562-.699218-7-.699218-2.5 0-4.898437.296875-7.199219.796875-3.101562-3.199219-7.199218-3.898438-8.800781-3.898438 0 0-.898437 1.800781-.898437 5 0 2 .5 3.199219.796875 3.800781-2.398438 2.5-3.898438 5.898438-3.898438 10.300782 0 11.199218 7.101563 15 20 15 12.898438 0 20-3.800782 20-15 0-4.601563-1.398437-8-3.699219-10.402344z" fill="#455a64"/><path d="m24 39c-8.199219 0-15-1.398437-15-9 0-2.898437 1.601563-4.5 2.699219-5.5 2.5-2.199219 6.699219-1.199219 12.300781-1.199219 4.101563 0 7.601563-.699218 10.398438.199219 2.800781.898438 4.601562 3.5 4.601562 6.300781 0 7.898438-4 9.199219-15 9.199219z" fill="#ffccbc"/><path d="m25 34c0 .601563-.398437 1-1 1-.601562 0-1-.398437-1-1 0-.601562.398438-1 1-1 .601563 0 1 .398438 1 1zm1.5 2.5c.199219-.199219.199219-.5 0-.699219-.199219-.199218-.5-.199218-.699219 0-.902343.898438-2.601562.898438-3.5 0-.199218-.199218-.5-.199218-.699218 0-.203125.199219-.203125.5 0 .699219.699218.699219 1.5 1 2.5 1s1.699218-.398437 2.398437-1z" fill="#d84315"/><path d="m19 29.5c0 2.5-1.300781 4.5-3 4.5s-3-2-3-4.5 1.300781-4.5 3-4.5 3 2 3 4.5zm13-4.5c-1.699219 0-3 2-3 4.5s1.300781 4.5 3 4.5 3-2 3-4.5-1.300781-4.5-3-4.5z" fill="#fff"/><path d="m34 30c0 1.699219-.898437 3-2 3-1.101562 0-2-1.300781-2-3 0-.199219 0-.5.101563-.699219.097656.398438.5.699219.898437.699219.601563 0 1-.398437 1-1 0-.601562-.398437-1-1-1-.199219 0-.398437.101563-.601562.199219.402343-.699219.902343-1.199219 1.601562-1.199219 1.101563 0 2 1.300781 2 3zm-18-3c-.699219 0-1.199219.5-1.601562 1.199219.203125-.097656.402343-.199219.601562-.199219.601563 0 1 .398438 1 1 0 .601563-.398437 1-1 1-.398437 0-.800781-.300781-.898437-.699219 0 .199219-.101563.5-.101563.699219 0 1.699219.898438 3 2 3 1.101563 0 2-1.300781 2-3s-.898437-3-2-3z" fill="#6d4c41"/></svg>