<svg fill="#666" height="50" viewBox="0 0 48 48" width="50" xmlns="http://www.w3.org/2000/svg"><path d="m8 3h32v42h-32z" fill="#90caf9"/><path d="m20 12.5c0 1.378906-1.117187 2.5-2.5 2.5-1.382812 0-2.5-1.121094-2.5-2.5 0-1.382812 1.117188-2.5 2.5-2.5 1.382813 0 2.5 1.117188 2.5 2.5m2 5.828125s-1.246094-2.328125-4.5-2.328125-4.5 2.328125-4.5 2.328125v1.671875h9zm13-6.328125h-9v2h9zm0 5h-9v2h9zm0 9h-5v2h5zm0 5h-5v2h5zm-8-5h-14v2h14zm8 10h-5v2h5zm-8 0h-14v2h14zm-3-5h-11v2h11z" fill="#1976d2"/></svg>