<svg fill="#666" height="50" viewBox="0 0 48 48" width="50" xmlns="http://www.w3.org/2000/svg"><path d="m33 34.25c0-4.972656-9-12.375-9-12.375s-9 7.402344-9 12.375 4.027344 7.875 9 7.875 9-2.902344 9-7.875z" fill="#bbdefb"/><path d="m33 13.75c0 4.972656-9 12.375-9 12.375s-9-7.402344-9-12.375 4.027344-7.875 9-7.875 9 2.902344 9 7.875z" fill="#bbdefb"/><g fill="#ff9800"><path d="m17.699219 16c1.234375 2.371094 3.90625 5.3125 6.300781 7.480469 2.394531-2.167969 5.066406-5.109375 6.300781-7.480469z"/><path d="m25 26c0 .554688-.449219 1-1 1s-1-.445312-1-1c0-.550781.449219-1 1-1s1 .449219 1 1z"/><path d="m25 29c0 .554688-.449219 1-1 1s-1-.445312-1-1c0-.550781.449219-1 1-1s1 .449219 1 1z"/><path d="m24 40.125c2.308594 0 4.886719-.792969 6.171875-2.824219-2.640625-3.394531-6.171875-6.300781-6.171875-6.300781s-3.53125 2.90625-6.171875 6.300781c1.285156 2.03125 3.863281 2.824219 6.171875 2.824219z"/></g><path d="m33 39c0-.554687-.445312-1-1-1h-16c-.550781 0-1 .445313-1 1v4c0 .554688.449219 1 1 1h16c.554688 0 1-.445312 1-1z" fill="#6d4c41"/><path d="m33 9c0 .554688-.445312 1-1 1h-16c-.550781 0-1-.445312-1-1v-4c0-.554687.449219-1 1-1h16c.554688 0 1 .445313 1 1z" fill="#6d4c41"/><g fill="#8d6e63"><path d="m36 42c0-.554687-.445312-1-1-1h-22c-.550781 0-1 .445313-1 1v1c0 .554688.449219 1 1 1h22c.554688 0 1-.445312 1-1z"/><path d="m36 6c0 .554688-.445312 1-1 1h-22c-.550781 0-1-.445312-1-1v-1c0-.554687.449219-1 1-1h22c.554688 0 1 .445313 1 1z"/></g></svg>