<svg fill="#666" height="50" viewBox="0 0 48 48" width="50" xmlns="http://www.w3.org/2000/svg"><g fill="#bcaaa4"><path d="m29.3 16.5c-.1-.2-1.2-1.9-1.2-3.5 0-1 .4-1.6.7-2 .2-.4.3-.6.3-1 0-.9-.6-2.1-.8-2.5l-.3-.4 1.7-1.1.3.5c.1.2 1.1 1.9 1.1 3.5 0 1-.4 1.6-.6 2s-.4.6-.4 1c0 .9.6 2.1.9 2.5z"/><path d="m24.3 16.5c-.1-.2-1.2-1.9-1.2-3.5 0-1 .4-1.6.7-2 .2-.4.3-.6.3-1 0-.9-.6-2.1-.8-2.5l-.3-.4 1.7-1.1.3.5c.1.2 1.1 1.9 1.1 3.5 0 1-.4 1.6-.6 2s-.4.6-.4 1c0 .9.6 2.1.9 2.5z"/><path d="m19.3 16.5c-.1-.2-1.2-1.9-1.2-3.5 0-1 .4-1.6.7-2 .2-.4.3-.6.3-1 0-.9-.6-2.1-.9-2.5l-.2-.4 1.7-1.1.3.5c.1.2 1.1 1.9 1.1 3.5 0 1-.4 1.6-.6 2s-.4.6-.4 1c0 .9.6 2.1.9 2.5z"/></g><path d="m30 34c-.3 0-.7-.2-.9-.5-.3-.5-.1-1.1.3-1.4.1 0 7.7-4.7 10.3-7.2 2.1-2 2.3-3.1 2.2-3.6-.1-.7-.9-1.1-1.3-1.3-1.3-.5-3.3 1.2-4.9 2.6-.4.4-.8.7-1.2 1s-1.1.3-1.4-.1-.3-1.1.1-1.4.7-.6 1.1-1c2-1.8 4.5-4 7-3 1.4.6 2.3 1.6 2.5 2.7.3 1.6-.6 3.4-2.8 5.4-2.8 2.6-10.3 7.2-10.7 7.4.1.4-.1.4-.3.4z" fill="#f50057"/><path d="m17.8 37h12.4c7-4.6 7.8-22 7.8-22h-28s1.6 17.4 7.8 22z" fill="#f50057"/><path d="m4.3 36c1.6 2.8 9.8 6 19.7 6s18.1-3.2 19.7-6z" fill="#ad1457"/></svg>