<svg fill="#666" height="50" viewBox="0 0 48 48" width="50" xmlns="http://www.w3.org/2000/svg"><path d="m11 44h-2c-.601562 0-1-.398437-1-1v-2h4v2c0 .601563-.398437 1-1 1z" fill="#263238"/><path d="m39 44h-2c-.601562 0-1-.398437-1-1v-2h4v2c0 .601563-.398437 1-1 1z" fill="#263238"/><path d="m27 7h-6c-1.699219 0-3 1.300781-3 3v3h2v-3c0-.601562.398438-1 1-1h6c.601563 0 1 .398438 1 1v3h2v-3c0-1.699219-1.300781-3-3-3z" fill="#37474f"/><path d="m40 43h-32c-2.199219 0-4-1.800781-4-4v-24c0-2.199219 1.800781-4 4-4h32c2.199219 0 4 1.800781 4 4v24c0 2.199219-1.800781 4-4 4z" fill="#78909c"/></svg>