<svg fill="#666" height="50" viewBox="0 0 48 48" width="50" xmlns="http://www.w3.org/2000/svg"><path d="m44 24c0 11.046875-8.953125 20-20 20s-20-8.953125-20-20 8.953125-20 20-20 20 8.953125 20 20" fill="#2196f3"/><path d="m40 24c0 8.835938-7.164062 16-16 16-8.835937 0-16-7.164062-16-16 0-8.835937 7.164063-16 16-16 8.835938 0 16 7.164063 16 16" fill="#eee"/><g fill="#90a4ae"><path d="m24 10-2 14 2 14 2-14z"/><path d="m14.101563 14.101563 8.484375 11.3125 11.3125 8.484375-8.484375-11.3125z"/><path d="m10 24 14 2 14-2-14-2z"/></g><path d="m14.101563 33.898438 12.019531-7.777344-4.242188-4.242188z" fill="#3f51b5"/><path d="m21.878906 21.878906 4.242188 4.242188 7.777344-12.019531z" fill="#ff3d00"/><path d="m25.5 24c0 .828125-.671875 1.5-1.5 1.5s-1.5-.671875-1.5-1.5.671875-1.5 1.5-1.5 1.5.671875 1.5 1.5" fill="#fff"/></svg>