<svg fill="#666" height="50" viewBox="0 0 48 48" width="50" xmlns="http://www.w3.org/2000/svg"><path d="m33 40.333s-2.491-5.333-9-5.333-9 5.333-9 5.333v2.667h18z" fill="#33691e"/><circle cx="24" cy="27" fill="#ffa726" r="6"/><g fill="#c5e1a5"><path d="m31.316 23.776 8.199-4.919-1.029-1.715-8.202 4.922c.411.523.76 1.097 1.032 1.712z"/><path d="m30.283 31.936 8.202 4.922 1.029-1.715-8.199-4.919c-.271.615-.62 1.189-1.032 1.712z"/><path d="m16.684 30.224-8.199 4.919 1.029 1.715 8.202-4.922c-.411-.523-.76-1.097-1.032-1.712z"/><path d="m24 19c.339 0 .672.028 1 .069v-10.069h-2v10.069c.328-.041.661-.069 1-.069z"/><path d="m17.717 22.064-8.202-4.922-1.029 1.715 8.199 4.919c.271-.615.62-1.189 1.032-1.712z"/></g><g fill="#7cb342"><circle cx="39" cy="18" r="4"/><circle cx="39" cy="36" r="4"/><circle cx="9" cy="18" r="4"/><circle cx="9" cy="36" r="4"/><circle cx="24" cy="9" r="4"/></g></svg>