<svg fill="#666" height="50" viewBox="0 0 48 48" width="50" xmlns="http://www.w3.org/2000/svg"><path d="m32.4 28.1-13.2 7.8 3.1 4 12.7-7.6c1.1-.7 1.5-2.2.8-3.3-.7-1.2-2.2-1.6-3.4-.9z" fill="#e39d36"/><path d="m34.5 26.5c-4.7 4.7-12.3 4.7-16.9 0s-4.7-12.3 0-16.9c4.7-4.7 12.3-4.7 16.9 0s4.7 12.2 0 16.9z" fill="#90caf9"/><g fill="#1e88e5"><path d="m26 31c-3.3 0-6.6-1.3-9.2-3.8-5.1-5.1-5.1-13.3 0-18.4 2.5-2.4 5.7-3.8 9.2-3.8s6.7 1.4 9.2 3.8c2.5 2.5 3.8 5.7 3.8 9.2s-1.3 6.7-3.8 9.2c-2.6 2.5-5.9 3.8-9.2 3.8zm0-24c-2.9 0-5.7 1.1-7.8 3.2-4.3 4.3-4.3 11.2 0 15.5s11.2 4.3 15.5 0c2.1-2.1 3.2-4.8 3.2-7.8 0-2.9-1.1-5.7-3.2-7.8s-4.8-3.1-7.7-3.1z"/><path d="m36 13h-20c-.6 0-1-.4-1-1s.4-1 1-1h20c.6 0 1 .4 1 1s-.5 1-1 1z"/><path d="m36 25h-20c-.6 0-1-.4-1-1s.4-1 1-1h20c.6 0 1 .4 1 1s-.5 1-1 1z"/><path d="m14 17h24v2h-24z"/><path d="m25 6h2v24h-2z"/><path d="m26 31c-3.9 0-7-5.7-7-13s3.1-13 7-13 7 5.7 7 13-3.1 13-7 13zm0-24c-2.4 0-5 4.5-5 11s2.6 11 5 11 5-4.5 5-11-2.6-11-5-11z"/></g><path d="m36 28.5-13.2 7.8 3.1 4 12.6-7.6c1.1-.7 1.5-2.2.8-3.3s-2.2-1.5-3.3-.9z" fill="#eda740"/><path d="m38.9 29.4-12.4 7.3-5.9-3.4 2.9 1.6c1.3.7 2.9.5 3.9-.6 1.3-1.5.9-3.8-.8-4.7l-12.4-6.8c-1.1-.6-2.5-.6-3.7 0l-5.5 3.3v.1 10.7l4-2.5 15.1 8.2c1.2.6 2.6.6 3.8-.1l13.8-8.3c1.3-.8 1.7-2.4.9-3.7-.7-1.4-2.4-1.8-3.7-1.1z" fill="#ffb74d"/><path d="m26.5 36.8-1.3-.9-10.7-6 8 6.6c1.2.9 2.7 1 4 .3z" fill="#eda740"/><path d="m24.4 34.2c-.9-.5-.6-1.3-.1-2.2s.9-1.6 1.8-1.1 1.3 1.6.8 2.5c-.4.9-1.5 1.2-2.5.8z" fill="#ffcc80"/></svg>