<svg fill="#666" height="50" viewBox="0 0 48 48" width="50" xmlns="http://www.w3.org/2000/svg"><path d="m29 13c-2 0-5 2-5 2s-3.007812-2-5-2c-5.023437 0-14.019531 5.472656-19 6.5 4.996094 2.019531 11.851563 14.5 24 14.5 12.148438 0 19.019531-12.484375 24-14.5-4.96875-.960937-14.003906-6.5-19-6.5z" fill="#ff3d00"/><path d="m48 19.5s-11.851562 4-24 4c-12.148437 0-24-4-24-4 4.996094 2.019531 11.851563 14.5 24 14.5 12.148438 0 19.019531-12.484375 24-14.5z" fill="#dd2c00"/><path d="m10 22c6.207031 1.996094 14 5 14 5s7.542969-2.976562 14-5c-2.855469.382813-10.914062 1.5-14 1.5-2.820312 0-11.355469-1.167969-14-1.5z" fill="#af1900"/><g fill="#ffccbc"><path d="m20 16c0 .550781-.449219 1-1 1s-1-.449219-1-1 .449219-1 1-1 1 .449219 1 1z"/><path d="m18.695313 16.953125c-.160157-.089844-.5625-.1875-.886719-.234375-.34375-.054687-.707031-.078125-1.074219-.089844-.730469-.019531-1.488281.046875-2.242187.15625-1.511719.234375-3.019532.664063-4.492188 1.214844 1.324219-.847656 2.726563-1.601562 4.234375-2.179687.757813-.285157 1.542969-.527344 2.367188-.683594.410156-.082031.832031-.140625 1.269531-.167969.453125-.015625.839844-.042969 1.433594.078125z"/></g></svg>