<svg fill="#666" height="50" viewBox="0 0 48 48" width="50" xmlns="http://www.w3.org/2000/svg"><path d="m8 3h32v42h-32z" fill="#90caf9"/><g fill="#1976d2"><path d="m22 21h4v2h-4z"/><path d="m22 15h4v2h-4z"/><path d="m22 18h4v2h-4z"/><path d="m22 24h4v2h-4z"/><path d="m22 9h4v2h-4z"/><path d="m22 3h4v2h-4z"/><path d="m22 6h4v2h-4z"/><path d="m22 12h4v2h-4z"/></g><path d="m26 27h-4c0 3-2 6-2 8 0 2.210938 1.789063 4 4 4 2.210938 0 4-1.789062 4-4 0-2-2-5-2-8zm-2 10c-1.105469 0-2-.894531-2-2s.894531-2 2-2 2 .894531 2 2-.894531 2-2 2z" fill="#3f51b5"/></svg>