<svg fill="#666" height="50" viewBox="0 0 48 48" width="50" xmlns="http://www.w3.org/2000/svg"><path d="m39 43h-6.79l-3.89 4.85-6.4-14.85h12.47z" fill="#1976d2"/><path d="m27.18 33-6.5 14.85-3.89-4.85h-6.79l4.61-10z" fill="#1e88e5"/><path d="m40.325 22.596c-.547-.993-.547-2.198 0-3.191l.262-.476c.855-1.555.333-3.509-1.187-4.428l-.465-.282c-.97-.588-1.572-1.63-1.596-2.763l-.012-.544c-.036-1.775-1.466-3.205-3.241-3.241l-.544-.012c-1.134-.023-2.177-.626-2.763-1.596l-.282-.465c-.919-1.519-2.873-2.042-4.428-1.187l-.476.262c-.993.547-2.198.547-3.191 0l-.475-.261c-1.555-.855-3.508-.332-4.427 1.187l-.282.465c-.588.97-1.63 1.572-2.763 1.596l-.544.012c-1.775.036-3.205 1.466-3.241 3.241l-.012.544c-.023 1.134-.626 2.177-1.596 2.763l-.465.282c-1.518.919-2.042 2.873-1.187 4.428l.262.476c.547.993.547 2.198 0 3.191l-.261.475c-.855 1.555-.333 3.509 1.187 4.428l.465.282c.97.588 1.572 1.63 1.596 2.763l.012.544c.036 1.775 1.466 3.205 3.241 3.241l.544.012c1.134.023 2.177.626 2.763 1.596l.282.465c.919 1.518 2.873 2.042 4.428 1.187l.476-.262c.993-.547 2.198-.547 3.191 0l.476.262c1.555.855 3.509.333 4.428-1.187l.282-.465c.588-.97 1.63-1.572 2.763-1.596l.544-.012c1.775-.036 3.205-1.466 3.241-3.241l.012-.544c.023-1.134.626-2.177 1.596-2.763l.465-.282c1.518-.919 2.042-2.873 1.187-4.428z" fill="#ffa000"/><circle cx="23.999" cy="21" fill="#ffb300" r="12"/><path d="m24 34.001c-7.168 0-13-5.832-13-13s5.831-13.001 13-13.001 13 5.832 13 13-5.832 13.001-13 13.001zm0-24.001c-6.066 0-11 4.935-11 11s4.935 11 11 11 11-4.935 11-11-4.935-11-11-11z" fill="#ffca28"/></svg>