<svg fill="#666" height="50" viewBox="0 0 48 48" width="50" xmlns="http://www.w3.org/2000/svg"><path d="m43.199219 33.898438c-.398438 2.101562-2.097656 3.703125-4.199219 4-3.300781.5-8.800781 1.101562-15 1.101562-6.101562 0-11.601562-.601562-15-1.101562-2.101562-.296875-3.800781-1.898438-4.199219-4-.402343-2.296875-.800781-5.699219-.800781-9.898438s.398438-7.601562.800781-9.898437c.398438-2.101563 2.097657-3.703125 4.199219-4 3.300781-.5 8.800781-1.101563 15-1.101563s11.601563.601563 15 1.101563c2.101563.296875 3.800781 1.898437 4.199219 4 .402344 2.296875.902344 5.699218.902344 9.898437-.101563 4.199219-.5 7.601563-.902344 9.898438z" fill="#ff3d00"/><path d="m20 31v-14l12 7z" fill="#fff"/></svg>