<svg fill="#666" height="50" viewBox="0 0 48 48" width="50" xmlns="http://www.w3.org/2000/svg"><g fill="#bbdefb"><path d="m38 20.5c0 4.695313-3.804687 8.5-8.5 8.5-4.695312 0-8.5-3.804687-8.5-8.5 0-4.695312 3.804688-8.5 8.5-8.5 4.695313 0 8.5 3.804688 8.5 8.5z"/><path d="m44 28.894531c0 3.863282-3.132812 7-7 7-3.867187 0-7-3.136718-7-7 0-3.867187 3.132813-7 7-7 3.867188 0 7 3.132813 7 7z"/><path d="m18 29c0 3.867188-3.132812 7-7 7-3.867187 0-7-3.132812-7-7 0-3.867187 3.132813-7 7-7 3.867188 0 7 3.132813 7 7z"/><path d="m24 21.5c0 3.589844-2.910156 6.5-6.5 6.5s-6.5-2.910156-6.5-6.5 2.910156-6.5 6.5-6.5 6.5 2.910156 6.5 6.5z"/><path d="m32 26.894531c0 3.863282-3.132812 7-7 7-3.867187 0-7-3.136718-7-7 0-3.867187 3.132813-7 7-7 3.867188 0 7 3.132813 7 7z"/><path d="m7 32c0 2.210938 1.789063 4 4 4h25c2.210938 0 4-1.789062 4-4v-1c0-2.210937-1.789062-4-4-4h-25c-2.210937 0-4 1.789063-4 4z"/></g></svg>