<svg fill="#666" height="50" viewBox="0 0 48 48" width="50" xmlns="http://www.w3.org/2000/svg"><path d="m24 2 4.506 5.029 6.494-2.029 1.465 6.535 6.535 1.465-2 6.494 5 4.506-5 4.506 2 6.494-6.535 1.465-1.465 6.535-6.494-2.029-4.506 5.029-4.506-5.029-6.494 2.029-1.465-6.535-6.535-1.465 2-6.494-5-4.506 5-4.506-2-6.494 6.535-1.465 1.465-6.535 6.494 2.029z" fill="#f44336"/><g fill="#fff"><path d="m20 32.301-1.699-1 9.699-15.602 1.699 1z"/><path d="m19 14c-1.801 0-4 1.102-4 4v1c0 1.801 1.102 4 4 4 2.102 0 4-1.398 4-4v-1c0-2.5-1.699-4-4-4zm1.801 5c0 1.301-.699 2-1.801 2-.898 0-1.801-.602-1.801-2v-1c0-1.398.902-2.102 1.801-2.102 1.398 0 1.801 1.301 1.801 2.102z"/><path d="m29 34c1.801 0 4-1.102 4-4v-1c0-1.801-1.102-4-4-4-2.102 0-4 1.398-4 4v1c0 2.5 1.699 4 4 4zm-1.801-5c0-1.301.699-2 1.801-2 .898 0 1.801.602 1.801 2v1c0 1.398-.902 2.102-1.801 2.102-1.398 0-1.801-1.301-1.801-2.102z"/></g></svg>