<svg fill="#666" height="50" viewBox="0 0 48 48" width="50" xmlns="http://www.w3.org/2000/svg"><path d="m4 24.128c0 2.921.368 5.022 1.194 6.812.127.274.398.436.682.436.105 0 .212-.022.314-.069.376-.174.54-.619.367-.996-.443-.96-.736-2.044-.898-3.347-.743-1.709-1.245-3.543-1.485-5.461-.113.867-.174 1.744-.174 2.625z" fill="#c62828"/><path d="m7.516 35.096c-.085.405.174.803.58.888.051.011.104.016.155.016.347 0 .659-.242.733-.596.221-1.051.331-1.967.375-2.811-.536-.577-1.037-1.185-1.503-1.822.077 1.25.026 2.588-.34 4.325z" fill="#c62828"/><path d="m36.666 34.475c-.057 1.238-.147 2.549-.287 3.951-.042.412.259.78.671.821.025.003.051.004.076.004.38 0 .707-.289.745-.675.2-2.001.306-3.836.346-5.516-.492.497-1.009.97-1.551 1.415z" fill="#c62828"/><path d="m9.911 37.645c-.127.395.09.817.484.944.077.024.154.036.23.036.317 0 .611-.202.714-.52.359-1.114.622-2.108.817-3.016-.454-.335-.894-.685-1.318-1.056-.188 1.046-.481 2.227-.927 3.612z" fill="#c62828"/><path d="m32.407 41.035c-.119.396.106.814.503.934.071.021.144.031.215.031.322 0 .621-.209.718-.535.546-1.821.891-3.777 1.093-5.732-.527.345-1.07.667-1.63.962-.198 1.492-.487 2.964-.899 4.34z" fill="#c62828"/><path d="m28.334 42.63c-.135.392.073.819.464.954.081.028.164.041.245.041.311 0 .602-.195.709-.505.599-1.737 1.058-3.562 1.391-5.456-.533.204-1.074.39-1.628.549-.303 1.526-.693 3.003-1.181 4.417z" fill="#c62828"/><path d="m15.255 41.181c-.176.375-.016.822.359.998.103.048.212.071.319.071.281 0 .551-.159.679-.431.608-1.291 1.067-2.534 1.418-3.727-.482-.151-.95-.333-1.416-.518-.332 1.156-.771 2.358-1.359 3.607z" fill="#c62828"/><path d="m18.183 42.314c-.171.377-.005.822.372.993.101.046.206.067.31.067.285 0 .558-.163.683-.439.656-1.441 1.158-2.834 1.543-4.171-.501-.073-.999-.156-1.488-.265-.359 1.226-.822 2.501-1.42 3.815z" fill="#c62828"/><path d="m24.907 42.969c-.155.384.03.821.414.977.093.036.188.054.281.054.297 0 .578-.177.696-.469.714-1.767 1.184-3.471 1.495-4.901-.526.101-1.058.185-1.598.244-.293 1.24-.704 2.651-1.288 4.095z" fill="#c62828"/><path d="m23.112 40.539c-.396-.132-.818.082-.949.474l-.667 2c-.131.393.082.818.474.949.08.026.16.038.238.038.314 0 .607-.199.711-.513l.667-2c.131-.393-.081-.818-.474-.948z" fill="#c62828"/><path d="m14.536 35.643c-.367-.083-.718.129-.848.47-.013.035-.036.064-.045.102l-.025.105c-.275 1.111-1.18 3.379-1.189 3.402-.154.384.033.821.418.975.091.037.186.054.278.054.297 0 .579-.178.696-.471.037-.093.869-2.181 1.204-3.424.015-.057.035-.122.049-.175l.034-.145c.088-.405-.168-.805-.572-.893z" fill="#c62828"/><path d="m41.571 30.597c-.016-.414-.349-.743-.778-.721-.009 0-.017.006-.026.006-.401.03-.71.367-.695.771.003.067.003.139.006.206.029.838.047 1.715.047 2.64 0 .414.336.75.75.75s.75-.336.75-.75c0-1.018-.02-1.987-.054-2.902z" fill="#c62828"/><g fill="#c2185b"><path d="m43.818 21.558c-.131-1.03-.332-2.039-.613-3.019-.259.898-.577 1.769-.953 2.611.156.973.247 1.966.247 2.978v.122c0 .358.257.644.593.718.053.012.102.032.158.032.414 0 .75-.336.75-.75v-.122c0-.871-.074-1.726-.182-2.57z"/><path d="m5.746 21.146c-.372-.833-.688-1.695-.945-2.584-.018.038-.045.069-.057.111-.259.927-.447 1.872-.571 2.829.24 1.917.742 3.752 1.485 5.461-.106-.843-.158-1.777-.158-2.835 0-1.003.089-1.999.246-2.982z"/><path d="m39.831 26.944c.036.389.363.681.746.681.023 0 .047-.001.07-.003.413-.038.716-.404.677-.816-.114-1.224-.249-2.281-.387-3.204-.392.626-.813 1.231-1.27 1.807.058.483.113.992.164 1.535z"/><path d="m9.085 28.211c-.094-.699-.186-1.418-.251-2.195-.57-.664-1.098-1.362-1.579-2.097-.001.069-.006.137-.006.205 0 1.689.177 3.009.349 4.286.108.802.208 1.564.257 2.36.466.638.967 1.245 1.503 1.822.089-1.641-.085-2.989-.273-4.381z"/><path d="m38.081 27.197c-.452.449-.925.876-1.419 1.28.09 1.718.109 3.717.003 5.997.542-.444 1.059-.918 1.551-1.415.056-2.246-.009-4.198-.135-5.862z"/><path d="m12.544 29.38c-.581-.407-1.134-.847-1.668-1.312.24 1.708.418 3.425-.039 5.965.424.371.864.721 1.318 1.056.516-2.4.53-4.164.389-5.709z"/><path d="m35.142 29.609c-.481.323-.979.623-1.489.905.027 1.971-.068 4.096-.346 6.182.56-.295 1.103-.617 1.63-.962.218-2.104.267-4.199.205-6.125z"/><path d="m14.25 32.752c0 .414.336.748.75.748h.002c.414-.001.749-.337.748-.752-.001-.572-.009-1.076-.019-1.553-.518-.236-1.027-.487-1.52-.764.022.665.036 1.425.039 2.321z"/><path d="m30.228 31.998c-.081 2.154-.318 4.23-.713 6.214.554-.159 1.095-.345 1.628-.549.35-1.995.551-4.072.603-6.221-.494.208-1.004.387-1.518.556z"/><path d="m17.503 31.9c-.053 1.714-.295 3.617-.888 5.675.466.185.934.368 1.416.518.612-2.083.879-4.007.958-5.751-.503-.131-.999-.275-1.486-.442z"/><path d="m20.648 32.697c-.125 1.758-.43 3.708-1.045 5.802.489.11.986.192 1.488.265.609-2.113.917-4.08 1.049-5.859-.505-.046-.999-.124-1.492-.208z"/><path d="m27.669 34.001c-.427-.029-.768.291-.793.704-.002.026-.116 1.773-.682 4.168.54-.059 1.072-.143 1.598-.244.475-2.188.575-3.732.581-3.836.025-.412-.29-.767-.704-.792z"/><path d="m23.771 32.988c-.099 1.491-.29 3.089-.631 4.735-.084.406.177.802.583.886.051.011.102.016.153.016.348 0 .66-.244.733-.598.368-1.78.573-3.5.675-5.092-.426.027-.85.065-1.284.065-.077 0-.152-.011-.229-.012z"/></g><g fill="#d81b60"><path d="m42.253 21.15c.376-.842.695-1.713.953-2.611-.299-1.043-.673-2.056-1.129-3.025-.276.585-.579 1.154-.908 1.706.497 1.253.865 2.567 1.084 3.93z"/><path d="m5.667 18.153c-.358-.101-.714.085-.867.409.257.889.573 1.751.945 2.584.112-.698.253-1.39.442-2.069.113-.399-.121-.813-.52-.924z"/><path d="m39.956 19.023c-.364.482-.748.945-1.153 1.392.179.721.557 2.424.864 4.994.457-.577.878-1.182 1.27-1.807-.317-2.124-.649-3.462-.774-3.922-.061-.224-.139-.438-.207-.657z"/><path d="m9.205 20.424c-.408-.45-.796-.917-1.162-1.403-.496 1.569-.766 3.219-.786 4.899.48.735 1.008 1.433 1.579 2.097-.051-.589-.086-1.207-.086-1.892 0-1.26.158-2.502.455-3.701z"/><path d="m36.04 22.943c.242 1.288.498 3.137.623 5.534.493-.404.966-.831 1.419-1.28-.18-2.387-.481-4.17-.732-5.335-.422.379-.858.739-1.31 1.081z"/><path d="m12 24.125c0-.375.023-.744.056-1.111-.47-.351-.923-.721-1.36-1.111-.119.725-.196 1.463-.196 2.221 0 1.313.161 2.434.316 3.517.02.142.041.284.06.426.533.465 1.087.905 1.668 1.312-.062-.679-.153-1.317-.243-1.95-.155-1.078-.301-2.098-.301-3.304z"/><path d="m33.206 24.744c.237 1.536.417 3.549.447 5.77.51-.281 1.008-.581 1.489-.905-.071-2.205-.282-4.178-.547-5.668-.452.284-.913.555-1.389.803z"/><path d="m15.277 24.976c-.522-.254-1.031-.529-1.526-.825.002.952.08 1.646.172 2.446.104.909.227 1.989.288 3.833.493.278 1.002.529 1.52.764-.05-2.407-.196-3.705-.318-4.769-.059-.512-.108-.961-.136-1.449z"/><path d="m31.75 28.979c-.038-1.361-.131-2.493-.242-3.449-.476.193-.957.374-1.45.531.089.84.162 1.813.194 2.96.028 1.009.015 1.999-.022 2.977.514-.168 1.023-.348 1.518-.556.018-.812.025-1.631.002-2.463z"/><path d="m18.688 26.393c-.005-.046-.01-.087-.015-.133-.53-.146-1.049-.316-1.561-.504.028.264.052.517.085.805.166 1.47.369 3.267.305 5.338.487.167.983.312 1.486.442.106-2.322-.116-4.327-.3-5.948z"/><path d="m22.018 26.9c-.518-.051-1.026-.138-1.532-.227.167 1.56.334 3.608.162 6.025.493.083.987.162 1.492.209.177-2.377.04-4.412-.122-6.007z"/><path d="m27.125 30.878c.002.413.337.747.75.747h.003c.415-.002.749-.339.747-.753-.007-1.406-.124-2.965-.293-4.355-.487.108-.983.186-1.482.258.152 1.259.268 2.711.275 4.103z"/><path d="m25.222 26.938c-.406.025-.809.062-1.222.062-.096 0-.189-.013-.285-.014.131 1.525.215 3.618.057 6.003.076 0 .151.011.228.011.434 0 .858-.038 1.284-.065.152-2.375.07-4.451-.062-5.997z"/></g><path d="m38.985 13.214c.885 1.233 1.618 2.577 2.184 4.005.329-.552.632-1.121.908-1.706-.584-1.241-1.302-2.406-2.118-3.495-.31.411-.633.811-.974 1.196z" fill="#ec407a"/><path d="m6.119 15.104-.031.061c-.185.37-.004.757.366.943.093.047.194.068.295.068.299 0 .603-.188.742-.464.445-.883.959-1.713 1.522-2.498-.34-.385-.662-.783-.972-1.194-.717.959-1.368 1.984-1.922 3.084z" fill="#ec407a"/><path d="m36.626 15.504c.926 1.374 1.641 2.915 2.092 4.583.018.064.048.182.084.328.405-.447.789-.91 1.153-1.392-.516-1.639-1.26-3.16-2.205-4.525-.364.346-.733.688-1.124 1.006z" fill="#ec407a"/><path d="m11.378 15.507c-.39-.318-.76-.66-1.125-1.006-.955 1.387-1.701 2.91-2.21 4.519.367.486.754.953 1.162 1.403.434-1.756 1.17-3.421 2.173-4.916z" fill="#ec407a"/><path d="m35.217 16.559c-.414.281-.848.534-1.283.784.761 1.14 1.345 2.412 1.701 3.797.1.363.249.971.405 1.803.452-.342.888-.702 1.31-1.08-.109-.503-.208-.903-.283-1.175-.384-1.491-1.02-2.877-1.85-4.129z" fill="#ec407a"/><path d="m12.782 16.557c-1.049 1.58-1.767 3.396-2.086 5.346.437.39.89.76 1.36 1.111.189-2.088.899-4.026 2.005-5.675-.434-.249-.867-.501-1.279-.782z" fill="#ec407a"/><path d="m33.922 21.258c-.133-.393-.561-.602-.952-.468-.392.134-.602.56-.468.952.203.595.375 1.237.513 1.909.067.326.13.699.191 1.093.476-.248.936-.519 1.389-.803-.036-.204-.073-.407-.111-.592-.15-.733-.339-1.437-.562-2.091z" fill="#ec407a"/><path d="m17.062 18.738c-.485-.18-.961-.374-1.427-.589-1.183 1.691-1.885 3.75-1.885 5.976 0 .009.001.017.001.026.496.297 1.004.571 1.526.825-.016-.266-.027-.541-.027-.851 0-2.027.681-3.891 1.812-5.387z" fill="#ec407a"/><path d="m29.235 19.284c-.592.16-1.193.295-1.805.401.925.704 1.643 1.675 1.984 2.806.086.273.418 1.446.642 3.57.493-.157.975-.338 1.45-.531-.228-1.953-.54-3.102-.664-3.496-.315-1.049-.88-1.977-1.607-2.75z" fill="#ec407a"/><path d="m24 20.25c-2.068 0-3.75 1.738-3.75 3.875 0 .448.067 1.036.151 1.781.027.239.056.498.085.766.506.09 1.013.176 1.532.227-.042-.416-.086-.809-.126-1.163-.079-.698-.142-1.249-.142-1.612 0-1.31 1.009-2.375 2.25-2.375 1.016 0 1.634.444 2.204 1.585.155.31.435 1.688.646 3.438.499-.071.995-.15 1.482-.258-.219-1.808-.524-3.329-.786-3.852-.518-1.034-1.449-2.412-3.546-2.412z" fill="#ec407a"/><path d="m23.98 23.514c-.406.08-.671.474-.591.88.005.024.189 1.001.326 2.591.096.002.189.015.285.015.413 0 .816-.037 1.222-.062-.143-1.674-.341-2.728-.362-2.833-.078-.405-.47-.671-.88-.591z" fill="#ec407a"/><path d="m19.599 19.537c-.047-.037-.101-.053-.153-.078-.082-.035-.176-.056-.267-.069-.236-.014-.475.07-.634.269-.996 1.26-1.545 2.846-1.545 4.466 0 .475.051 1.034.113 1.632.512.188 1.03.357 1.561.504-.094-.837-.174-1.567-.174-2.136 0-1.302.422-2.524 1.222-3.535.257-.324.201-.796-.123-1.053z" fill="#ec407a"/><path d="m38.985 13.214c.34-.386.664-.785.974-1.196-.971-1.297-2.092-2.474-3.348-3.503-.401.326-.817.634-1.243.929 1.379 1.083 2.597 2.35 3.617 3.77z" fill="#e040fb"/><path d="m12.626 9.441c-.424-.294-.839-.601-1.239-.927-1.241 1.018-2.362 2.194-3.344 3.506.31.41.632.809.972 1.194 1.03-1.438 2.248-2.703 3.611-3.773z" fill="#e040fb"/><path d="m36.626 15.504c.39-.318.759-.66 1.124-1.006-1.092-1.578-2.443-2.944-3.979-4.057-.493.277-1.001.527-1.519.762 1.72 1.117 3.213 2.578 4.374 4.301z" fill="#e040fb"/><path d="m31.15 12.566c-.35-.221-.813-.117-1.035.234-.221.35-.116.813.234 1.035 1.444.912 2.65 2.109 3.584 3.509.436-.25.869-.503 1.283-.784-1.05-1.588-2.42-2.955-4.066-3.994z" fill="#e040fb"/><path d="m12.782 16.557c.413.28.845.533 1.279.782 1.466-2.186 3.623-3.857 6.148-4.709-.811-.156-1.604-.36-2.377-.61-2.039 1.062-3.78 2.625-5.05 4.537z" fill="#e040fb"/><path d="m32.018 17.661c-1.958-2.486-4.881-3.911-8.018-3.911-3.453 0-6.506 1.742-8.365 4.399.466.215.942.41 1.427.589 1.601-2.116 4.111-3.488 6.938-3.488 2.675 0 5.167 1.217 6.839 3.339.043.054.099.09.153.129.266.194.63.208.901-.004.153-.121.241-.29.27-.468.033-.201-.009-.413-.145-.585z" fill="#e040fb"/><path d="m24 17c-.768 0-1.523.126-2.24.373l-.142.05c-.389.142-.59.572-.448.961.142.39.574.59.961.448l.112-.04c.565-.193 1.155-.292 1.757-.292 1.252 0 2.456.444 3.431 1.185.612-.106 1.213-.241 1.805-.401-1.327-1.411-3.209-2.284-5.236-2.284z" fill="#e040fb"/><path d="m15.312 10.561c-.241-.335-.709-.411-1.047-.17-.018.013-.035.027-.052.04-1.558 1.133-2.889 2.515-3.959 4.07.365.346.734.688 1.125 1.006 1.004-1.497 2.271-2.823 3.764-3.899.187-.135.284-.339.3-.552.011-.171-.024-.346-.131-.495z" fill="#e040fb"/><path d="m26.763 4.936c-.076.407.194.798.601.874 3.008.556 5.723 1.841 8.005 3.635.426-.295.842-.603 1.243-.929-2.531-2.073-5.582-3.553-8.975-4.181-.408-.081-.8.193-.874.601z" fill="#d500f9"/><path d="m23.76 5.504c.414-.005.746-.345.74-.76-.005-.411-.34-.74-.75-.74-.003 0-.006 0-.01 0-4.597.059-8.914 1.688-12.354 4.51.4.325.815.632 1.239.927 3.128-2.458 7.008-3.884 11.135-3.937z" fill="#d500f9"/><path d="m24 7.25c-2.126 0-4.199.396-6.161 1.178-.385.153-.572.59-.419.975.154.385.59.571.975.419 1.784-.712 3.669-1.072 5.605-1.072 3.002 0 5.849.891 8.253 2.453.518-.235 1.026-.485 1.519-.762-2.782-2.015-6.172-3.191-9.772-3.191z" fill="#d500f9"/><path d="m24 12c1.037 0 2.065.133 3.058.397.403.107.812-.132.917-.533s-.132-.811-.533-.917c-1.117-.297-2.275-.447-3.442-.447-2.223 0-4.317.555-6.169 1.52.773.251 1.566.455 2.377.61 1.194-.403 2.466-.63 3.792-.63z" fill="#d500f9"/></svg>