<svg fill="#666" height="50" viewBox="0 0 48 48" width="50" xmlns="http://www.w3.org/2000/svg"><g fill="#1565c0"><path d="m11 12h-5c-.6 0-1-.4-1-1s.4-1 1-1h4v-4c0-.6.4-1 1-1s1 .4 1 1v5c0 .6-.4 1-1 1z"/><path d="m14 15h-5c-.6 0-1-.4-1-1s.4-1 1-1h4v-4c0-.6.4-1 1-1s1 .4 1 1v5c0 .6-.4 1-1 1z"/><path d="m41 42h-5c-.6 0-1-.4-1-1s.4-1 1-1h4v-4c0-.6.4-1 1-1s1 .4 1 1v5c0 .6-.4 1-1 1z"/></g><path d="m27 40s-14-7-14-17c0-2 2-8 7-8s7 4 7 4 2-4 7-4 7 6 7 8c0 10-14 17-14 17z" fill="#ff80ab"/><g fill="#ff4081"><path d="m27 41.1-.7-.3c-.5-.3-.7-.9-.4-1.4.2-.4.7-.6 1.1-.5.4-.1.9.1 1.1.5.3.5.1 1.1-.4 1.4z"/><path d="m24.6 39.6c-.2 0-.4 0-.5-.2l-.4-.3c-.5-.3-.6-.9-.3-1.4s.9-.6 1.4-.3l.4.3c.5.3.6.9.3 1.4-.3.3-.6.5-.9.5zm-2.6-1.7c-.2 0-.4-.1-.6-.2l-.4-.4c-.4-.3-.5-1-.2-1.4s1-.5 1.4-.2l.4.3c.4.3.5 1 .2 1.4-.2.3-.5.5-.8.5zm-2.4-2c-.2 0-.5-.1-.7-.3l-.4-.4c-.4-.4-.4-1-.1-1.4.4-.4 1-.4 1.4-.1l.4.3c.4.4.5 1 .1 1.4-.1.4-.4.5-.7.5zm-2.2-2.1c-.3 0-.5-.1-.7-.3-.1-.1-.2-.3-.4-.4-.3-.5-.3-1.1.1-1.5s1.1-.3 1.4.1l.3.4c.4.4.3 1-.1 1.4-.1.2-.3.3-.6.3zm-1.9-2.4c-.3 0-.6-.2-.8-.4-.1-.1-.2-.3-.3-.5-.3-.5-.2-1.1.3-1.4s1.1-.2 1.4.3c.1.1.2.3.3.4.3.5.2 1.1-.3 1.4-.2.1-.4.2-.6.2zm-1.5-2.7c-.4 0-.8-.2-.9-.6-.1-.2-.1-.3-.2-.5-.2-.5.1-1.1.6-1.3s1.1.1 1.3.6c.1.1.1.3.2.4.2.5 0 1.1-.5 1.3-.2 0-.4.1-.5.1zm-.9-3c-.5 0-.9-.4-1-.8 0-.2-.1-.4-.1-.6-.1-.6.3-1 .9-1.1.5-.1 1 .3 1.1.9 0 .2 0 .3.1.5.1.5-.3 1.1-.8 1.1-.1 0-.1 0-.2 0zm.1-3c-.1 0-.2 0-.2 0-.5-.1-.9-.7-.8-1.2 0-.2.1-.4.1-.6.2-.5.7-.8 1.2-.7.5.2.8.7.7 1.2 0 .2-.1.3-.1.4 0 .6-.5.9-.9.9zm1.1-2.9c-.2 0-.3 0-.5-.1-.5-.3-.7-.9-.4-1.4.1-.2.2-.3.3-.5.3-.5.9-.6 1.4-.3s.6.9.3 1.4c-.1.1-.2.3-.2.4-.2.3-.6.5-.9.5zm10.9-2c-.2 0-.4-.1-.6-.2-.1-.1-.2-.2-.4-.3-.4-.3-.5-.9-.2-1.4.3-.4.9-.5 1.4-.2.2.1.3.2.5.4.4.4.5 1 .1 1.4-.2.2-.5.3-.8.3zm-9-.4c-.3 0-.6-.1-.8-.4-.4-.4-.3-1.1.1-1.4.2-.1.3-.2.5-.4.4-.3 1.1-.2 1.4.2s.2 1.1-.2 1.4c-.1.1-.2.2-.3.3-.2.2-.5.3-.7.3zm6.3-1c-.1 0-.2 0-.3 0s-.3-.1-.4-.1c-.5-.1-.9-.7-.7-1.2.1-.5.7-.9 1.2-.7.2 0 .4.1.6.2.5.2.8.7.7 1.3-.3.2-.7.5-1.1.5zm-3.6-.3c-.5 0-.9-.3-1-.8s.3-1.1.8-1.2c.2 0 .4-.1.6-.1.6 0 1 .4 1.1.9s-.4 1-.9 1.1c-.1 0-.3 0-.4.1 0 0-.1 0-.2 0z"/><path d="m27 21.2-.9-1.8s0-.1-.1-.1c-.3-.5-.1-1.1.3-1.4.2-.1.4-.2.6-.1.2 0 .4 0 .6.1.5.3.6.9.3 1.4 0 .1-.1.1-.1.1z"/><path d="m29.5 39.6c-.3 0-.7-.2-.8-.5-.3-.5-.2-1.1.3-1.4l.4-.3c.5-.3 1.1-.2 1.4.3s.2 1.1-.3 1.4l-.5.3c-.2.1-.4.2-.5.2zm2.5-1.8c-.3 0-.6-.1-.8-.4-.3-.4-.2-1 .2-1.4l.4-.3c.4-.3 1.1-.3 1.4.2s.3 1.1-.2 1.4l-.4.3c-.2.2-.4.2-.6.2zm2.4-1.9c-.3 0-.6-.1-.8-.3-.4-.4-.3-1 .1-1.4l.4-.3c.4-.4 1-.3 1.4.1s.3 1-.1 1.4l-.4.4c-.1 0-.4.1-.6.1zm2.2-2.2c-.2 0-.5-.1-.7-.3-.4-.4-.4-1-.1-1.4.1-.1.2-.2.3-.4.4-.4 1-.5 1.4-.1s.5 1 .1 1.4c-.1.1-.2.3-.4.4-.1.3-.3.4-.6.4zm1.9-2.4c-.2 0-.4-.1-.6-.2-.5-.3-.6-.9-.3-1.4.1-.1.2-.3.3-.4.3-.5.9-.6 1.4-.3s.6.9.3 1.4c-.1.1-.2.3-.3.4-.2.4-.5.5-.8.5zm1.5-2.7c-.1 0-.3 0-.4-.1-.5-.2-.7-.8-.5-1.3.1-.1.1-.3.2-.4.2-.5.8-.8 1.3-.6s.8.8.6 1.3c-.1.2-.1.3-.2.5-.2.4-.6.6-1 .6zm.9-2.9c-.1 0-.1 0-.2 0-.5-.1-.9-.6-.8-1.1 0-.2 0-.3.1-.5.1-.6.5-.9 1.1-.9.6.1.9.6.9 1.1 0 .2 0 .4-.1.6-.1.5-.5.8-1 .8zm-.1-3.1c-.5 0-.9-.3-1-.8 0-.1-.1-.3-.1-.4-.2-.5.1-1.1.7-1.2.5-.2 1.1.1 1.2.7.1.2.1.4.1.6.1.5-.2 1.1-.7 1.2 0-.1-.1-.1-.2-.1zm-1.1-2.8c-.3 0-.7-.2-.9-.5-.1-.1-.2-.3-.2-.4-.3-.5-.2-1.1.3-1.4s1.1-.2 1.4.3c.1.2.2.3.3.5.3.5.1 1.1-.4 1.4-.2 0-.3.1-.5.1zm-10.9-1.9c-.3 0-.6-.1-.8-.4-.4-.4-.3-1.1.1-1.4.1-.1.3-.2.5-.4.4-.3 1.1-.2 1.4.2s.2 1.1-.2 1.4c-.1.1-.2.2-.4.3-.1.2-.4.3-.6.3zm9-.5c-.2 0-.5-.1-.6-.2s-.2-.2-.3-.3c-.4-.3-.6-.9-.2-1.4.3-.4.9-.6 1.4-.2.2.1.3.2.5.4.4.4.5 1 .1 1.4-.4.2-.6.3-.9.3zm-6.3-1c-.4 0-.8-.3-1-.7-.2-.5.1-1.1.7-1.3.2-.1.4-.1.6-.2.5-.1 1.1.2 1.2.7s-.2 1.1-.7 1.2c-.1 0-.3.1-.4.1-.2.2-.3.2-.4.2zm3.5-.3c-.1 0-.1 0-.2 0s-.3 0-.4-.1c-.6 0-1-.5-.9-1.1 0-.5.5-1 1.1-.9.2 0 .4 0 .6.1.5.1.9.6.8 1.2-.1.4-.5.8-1 .8z"/></g><path d="m15.6 15.6c.2-.1.3-.2.5-.4.2-.1.3-.2.5-.2l-4.6-4.5c-.4-.4-1-.4-1.4 0s-.4 1 0 1.4l4.7 4.7c-.1-.3 0-.7.3-1z" fill="#1a237e"/><path d="m40 40v-1.4l-10.9-10.9c-.4-.4-1-.4-1.4 0s-.4 1 0 1.4l10.9 10.9z" fill="#1a237e"/></svg>