<svg fill="#666" height="50" viewBox="0 0 48 48" width="50" xmlns="http://www.w3.org/2000/svg"><path d="m40 45h-32v-42h22l10 10z" fill="#90caf9"/><path d="m38.5 14h-9.5v-9.5z" fill="#e1f5fe"/><path d="m47.679688 29.140625-2.820313-2.816406c-.429687-.429688-1.128906-.429688-1.554687 0l-1.328125 1.328125 4.375 4.375 1.328125-1.328125c.425781-.429688.425781-1.128906 0-1.558594" fill="#e57373"/><path d="m27.472656 42.152344 12.316407-12.3125 4.375 4.375-12.316407 12.316406z" fill="#ff9800"/><path d="m46.351563 32.023438-2.1875 2.191406-4.378907-4.378906 2.1875-2.1875z" fill="#b0bec5"/><path d="m27.472656 42.152344-1.472656 5.847656 5.847656-1.472656z" fill="#ffc107"/><path d="m26.742188 45.042969-.742188 2.957031 2.957031-.742187z" fill="#37474f"/></svg>