<svg fill="#666" height="50" viewBox="0 0 48 48" width="50" xmlns="http://www.w3.org/2000/svg"><path d="m44 24c0 11.045-8.955 20-20 20s-20-8.955-20-20 8.955-20 20-20 20 8.955 20 20z" fill="#9c27b0"/><path d="m33.5 28.102c-.602 6.398-5.602 8.098-9.301 8.098-3.098 0-9.598-1.598-9.598-11.199v-1.5c0-8.699 5.5-11.199 9.699-11.199 8.5 0 9.199 7 9.301 8.199h-4.801c-.301-3.602-2.199-4.301-4.5-4.301-1.602 0-4.801.5-4.801 7.199v1.601c-.102 7.5 3.801 7.199 4.699 7.199 4.301 0 4.301-2.898 4.602-4.098h4.7z" fill="#e1bee7"/></svg>