<svg fill="#666" height="50" viewBox="0 0 48 48" width="50" xmlns="http://www.w3.org/2000/svg"><path d="m40 45h-32v-42h22l10 10z" fill="#3f51b5"/><g fill="#e8eaf6"><path d="m38.5 14h-9.5v-9.5z"/><path d="m22.566406 31.871094c-.386718.417969-.863281.734375-1.425781.949219-.5625.210937-1.175781.316406-1.847656.316406-1.144531 0-2.03125-.355469-2.664063-1.0625-.636718-.710938-.960937-1.738281-.980468-3.09375v-1.792969c0-1.371094.300781-2.425781.898437-3.167969.601563-.738281 1.472656-1.109375 2.625-1.109375 1.078125 0 1.894531.265625 2.441406.800782.550782.53125.867188 1.367187.953125 2.507812h-1.953125c-.054687-.632812-.1875-1.066406-.394531-1.296875-.210937-.226562-.539062-.34375-.984375-.34375-.542969 0-.9375.199219-1.183594.59375-.246093.398438-.375 1.027344-.382812 1.894531v1.804688c0 .90625.136719 1.566406.40625 1.980469.269531.410156.714844.617187 1.335937.617187.394532 0 .71875-.078125.964844-.238281l.175781-.125v-1.824219h-1.40625v-1.515625h3.425782v4.105469z"/><path d="m26.089844 33h-2.011719v-9.953125h2.011719z"/><path d="m32.910156 28.9375h-3.125v4.0625h-2.011718v-9.953125h5.511718v1.675781h-3.5v2.550782h3.125z"/></g></svg>