<svg fill="#666" height="50" viewBox="0 0 48 48" width="50" xmlns="http://www.w3.org/2000/svg"><path d="m40 45h-32v-42h22l10 10z" fill="#ff9100"/><g fill="#ffe0b2"><path d="m38.5 14h-9.5v-9.5z"/><path d="m17.394531 31.332031h4.101563v1.667969h-6.453125v-1.210937l4.058594-7.066407h-4.101563v-1.675781h6.417969v1.183594z"/><path d="m24.828125 33h-2.007812v-9.953125h2.007812z"/><path d="m28.527344 29.5v3.5h-2.007813v-9.953125h3.390625c.984375 0 1.769532.304688 2.351563.917969.585937.609375.878906 1.402344.878906 2.378906 0 .972656-.289062 1.742188-.867187 2.308594s-1.378907.847656-2.40625.847656zm0-1.675781h1.382812c.382813 0 .679688-.125.886719-.375.210938-.25.316406-.613281.316406-1.09375 0-.496094-.105468-.890625-.320312-1.1875-.214844-.292969-.503906-.441406-.863281-.445313h-1.398438v3.101563z"/></g></svg>