<svg fill="#666" height="50" viewBox="0 0 48 48" width="50" xmlns="http://www.w3.org/2000/svg"><path d="m42 39h-25v-32c0-2.199219 1.800781-4 4-4h17c2.199219 0 4 1.800781 4 4z" fill="#90caf9"/><path d="m17 39h25v2h-25z" fill="#64b5f6"/><path d="m31 32h6v9h-6z" fill="#bf360c"/><path d="m37 29h-6v-5h6zm-9-5h-6v5h6zm0 8h-6v5h6zm9-16h-6v5h6zm-9 0h-6v5h6zm9-8h-6v5h6zm-9 0h-6v5h6z" fill="#1565c0"/><path d="m26 26.5c0 .800781-.699219 1.5-1.5 1.5s-1.5-.699219-1.5-1.5.699219-1.5 1.5-1.5 1.5.699219 1.5 1.5m-13 0c0-.800781-.699219-1.5-1.5-1.5s-1.5.699219-1.5 1.5.699219 1.5 1.5 1.5 1.5-.699219 1.5-1.5" fill="#ffa726"/><path d="m18 39c-4 0-4-4-4-4v-4h8v4s0 4-4 4z" fill="#ff9800"/><path d="m25 22.699219c0-5.898438-14-3.800781-14 0v4.402344c0 3.796875 3.101563 6.898437 7 6.898437 3.898438 0 7-3.101562 7-6.898437z" fill="#ffb74d"/><path d="m18 15c-4.898437 0-8 4.300781-8 8.199219v1.800781l2 2v-4l9.199219-3 2.800781 3v4l2-2v-.800781c0-3.199219-.800781-6.800781-4.800781-7.597656l-.800781-1.601563z" fill="#424242"/><path d="m20 26c0-.601562.398438-1 1-1 .601563 0 1 .398438 1 1 0 .601563-.398437 1-1 1-.601562 0-1-.398437-1-1m-6 0c0 .601563.398438 1 1 1 .601563 0 1-.398437 1-1 0-.601562-.398437-1-1-1-.601562 0-1 .398438-1 1" fill="#784719"/><path d="m22 35-4 2-4-2s-8 1.5-8 10h24c0-8.398437-8.300781-10-8.300781-10" fill="#455a64"/><path d="m18 44 4-9-4 1-4-1z" fill="#fff"/><path d="m17 39-.300781 2.101563 1.300781 2.898437 1.300781-2.898437-.300781-2.101563 1-1-2-2-2 2z" fill="#d32f2f"/></svg>