<svg fill="#666" height="50" viewBox="0 0 48 48" width="50" xmlns="http://www.w3.org/2000/svg"><path d="m6 21h14v-.013c0-3.306-2.681-5.987-5.987-5.987h-2.025c-3.307 0-5.988 2.681-5.988 5.987z" fill="#64b5f6"/><g fill="#ff9800"><path d="m15.001 13h-4v3s.328 1 1.959 1 2.041-1 2.041-1z"/><circle cx="16.5" cy="10.5" r="1.5"/><circle cx="9.5" cy="10.5" r="1.5"/></g><path d="m17 7.216c0-2.206-1.794-2.216-4-2.216s-4 .01-4 2.216v3.784c0 2.206 1.794 4 4 4s4-1.794 4-4c0-.347 0-3.436 0-3.784z" fill="#ffb74d"/><path d="m12.781 3c-2.437.219-4.781 1.93-4.781 5.574v1.426l1 1v-3l6.31-2.201 1.69 2.201v3l1-1v-1.203c0-2.414-.135-4.205-3-4.797l-.485-1z" fill="#424242"/><path d="m28 21h14v-.013c0-3.306-2.681-5.987-5.987-5.987h-2.025c-3.307 0-5.988 2.681-5.988 5.987z" fill="#7cb342"/><g fill="#ff9800"><path d="m37.001 13h-4v3s.328 1 1.959 1 2.041-1 2.041-1z"/><circle cx="38.5" cy="10.5" r="1.5"/><circle cx="31.5" cy="10.5" r="1.5"/></g><path d="m39 7.216c0-2.206-1.794-2.216-4-2.216s-4 .01-4 2.216v3.784c0 2.206 1.794 4 4 4s4-1.794 4-4c0-.347 0-3.436 0-3.784z" fill="#ffb74d"/><path d="m34.781 3c-2.437.219-4.781 1.93-4.781 5.574v1.426l1 1v-3l6.31-2.201 1.69 2.201v3l1-1v-1.203c0-2.414-.135-4.205-3-4.797l-.485-1z" fill="#424242"/><path d="m1 31h46v4h-46z" fill="#ffc107"/><path d="m26 30c0 .555.445 1 1 1h16c.555 0 1-.445 1-1v-10c0-.555-.445-1-1-1h-16c-.555 0-1 .445-1 1z" fill="#455a64"/><path d="m4 30c0 .555.445 1 1 1h16c.555 0 1-.445 1-1v-10c0-.555-.445-1-1-1h-16c-.555 0-1 .445-1 1z" fill="#455a64"/><path d="m4 35h4v10h-4z" fill="#ff9800"/><path d="m40 35h4v10h-4z" fill="#ff9800"/><path d="m8 35h32v6h-32z" fill="#f57c00"/></svg>