<svg fill="#666" height="50" viewBox="0 0 48 48" width="50" xmlns="http://www.w3.org/2000/svg"><path d="m44.699219 11-8.699219 8.601563s-2.601562 0-5.199219-2.601563c-2.601562-2.601562-2.601562-5.199219-2.601562-5.199219l8.699219-8.699218c-4.898438-1.203125-10.796875.398437-14.398438 4-5.398437 5.398437-.601562 12.296875-2 13.699218-7.601562 7.898438-15.398437 13.898438-15.601562 14.199219-2.296875 2.300781-2.398438 6-.199219 8.199219s5.902344 2.101562 8.199219-.199219c.300781-.300781 6.703125-8.398437 14.203125-15.898437 1.398437-1.402344 8 3.699218 13.597656-1.800782 3.5-3.601562 5.199219-9.402343 4-14.300781zm-35.300781 30.101563c-1.398438 0-2.5-1.101563-2.5-2.5 0-1.5 1.101562-2.601563 2.5-2.601563 1.402343 0 2.5 1.101563 2.5 2.5 0 1.398438-1.097657 2.601563-2.5 2.601563z" fill="#607d8b"/></svg>