<svg fill="#666" height="50" viewBox="0 0 48 48" width="50" xmlns="http://www.w3.org/2000/svg"><path d="m24 9c-10.2 0-20 5.7-20 15s9.8 15 20 15 20-5.7 20-15-9.8-15-20-15zm0 18.5c-2.9 0-5.7-1.6-5.7-4.3s2.8-4.2 5.7-4.2 5.7 1.6 5.7 4.3-2.8 4.2-5.7 4.2z" fill="#ffb300"/><path d="m4 23.5c.1.9.4 1.7 1.1 2.1.7.3 1.3 0 1.9-.2.7-.2 1.4.3 1.9.7.7.7.8 1.6 1.2 2.6.4.9.8 1.6 1.6 2.3 1.3 1.1 3.3 1.7 4.7.5.6-.6 1.5-.6 2.4-.6 1.3.1 2.2 1 3.2 1.8 1.3 1 2.3 1.9 4.1 2 2.1 0 3.8-1.4 4.9-3 .6-.9 1.1-2.8 2.2-3.1.9-.2 1.8.9 2 1.7.2 1.1.2 2.6 1.5 2.8.9.2 1.4-.8 1.7-1.5.4-1 .8-1.9.9-3 0-.8.2-1.8.7-2.5.2-.3.5-.6.9-.5.3 0 .5.4.8.5.8.2 3.1-1.8 1.7-7-2.4-7-10.8-11.1-19.4-11.1-10.2 0-20 5.7-20 15zm20-10.5c3.6 0 7 1.9 7 4.5s-3.4 4.5-7 4.5-7-1.9-7-4.5 3.4-4.5 7-4.5z" fill="#4c2114"/><path d="m7.9 19.6c-.5 0-.9-.3-1-.8s.3-1.1.8-1.2l3.3-.6c.5-.1 1.1.3 1.2.8s-.3 1.1-.8 1.2l-3.3.6c-.1 0-.1 0-.2 0z" fill="#8bc34a"/><path d="m39.9 20.7c-.3 0-.6-.1-.8-.4l-1.8-2.4c-.3-.4-.2-1.1.2-1.4s1.1-.2 1.4.2l1.8 2.4c.3.4.2 1.1-.2 1.4-.2.1-.4.2-.6.2z" fill="#8bc34a"/><path d="m29.6 27.8c-.2 0-.4-.1-.6-.2-.4-.3-.5-1-.2-1.4l1.8-2.4c.3-.4 1-.5 1.4-.2s.5 1 .2 1.4l-1.8 2.4c-.2.2-.5.4-.8.4z" fill="#4dd0e1"/><path d="m15.2 16.1c-.5 0-1-.4-1-.9l-.2-2.6c0-.6.4-1 .9-1.1.6 0 1 .4 1.1.9l.2 2.6c.1.6-.3 1-1 1.1.1 0 .1 0 0 0z" fill="#80deea"/><g fill="#ffeb3b"><path d="m23.5 12.4c-.3 0-.6-.1-.8-.4-.3-.4-.2-1.1.2-1.4l2.3-1.8c.4-.3 1.1-.2 1.4.2s.2 1.1-.2 1.4l-2.3 1.8c-.2.1-.4.2-.6.2z"/><path d="m9.8 25c-.2 0-.3 0-.5-.1-.5-.3-.6-.9-.3-1.4l1.7-2.8c.3-.5.9-.6 1.4-.4.5.3.6.9.4 1.4l-1.7 2.8c-.3.3-.6.5-1 .5z"/><path d="m23.3 30.8c-.2 0-.4 0-.5-.1-.5-.3-.6-.9-.3-1.4l1.6-2.6c.3-.5.9-.6 1.4-.3s.6.9.3 1.4l-1.6 2.6c-.2.3-.5.4-.9.4z"/></g><path d="m17.6 28.3c-.3 0-.5-.1-.7-.3l-2.1-2.3c-.4-.4-.3-1 .1-1.4s1-.3 1.4.1l2.1 2.3c.4.4.3 1-.1 1.4-.2.1-.5.2-.7.2z" fill="#ff4081"/><path d="m32.9 16.4c-.1 0-.2 0-.3-.1-.5-.2-.8-.8-.6-1.3l.9-2.6c.2-.5.8-.8 1.3-.6s.8.8.6 1.3l-.9 2.6c-.2.5-.6.7-1 .7z" fill="#ff4081"/><path d="m36.1 28.2c-.6 0-1-.5-1-1l.2-3.4c0-.6.5-1 1-.9.6 0 1 .5 1 1l-.2 3.4c0 .5-.5.9-1 .9z" fill="#fff"/></svg>