<svg fill="#666" height="50" viewBox="0 0 48 48" width="50" xmlns="http://www.w3.org/2000/svg"><g fill="#ffa000"><path d="m38 13c-3.300781 0-6-.898437-6-2v2c0 1.101563 2.699219 2 6 2s6-.898437 6-2c0-.398437 0-1.601562 0-2 0 1.101563-2.699219 2-6 2z"/><path d="m38 10c-3.300781 0-6-.898437-6-2v2c0 1.101563 2.699219 2 6 2s6-.898437 6-2c0-.398437 0-1.601562 0-2 0 1.101563-2.699219 2-6 2z"/><path d="m38 16c-3.300781 0-6-.898437-6-2v2c0 1.101563 2.699219 2 6 2s6-.898437 6-2c0-.398437 0-1.601562 0-2 0 1.101563-2.699219 2-6 2z"/><path d="m38 19c-3.300781 0-6-.898437-6-2v2c0 1.101563 2.699219 2 6 2s6-.898437 6-2c0-.398437 0-1.601562 0-2 0 1.101563-2.699219 2-6 2z"/><path d="m38 22c-3.300781 0-6-.898437-6-2v2c0 1.101563 2.699219 2 6 2s6-.898437 6-2c0-.398437 0-1.601562 0-2 0 1.101563-2.699219 2-6 2z"/><path d="m38 25c-3.300781 0-6-.898437-6-2v2c0 1.101563 2.699219 2 6 2s6-.898437 6-2c0-.398437 0-1.601562 0-2 0 1.101563-2.699219 2-6 2z"/><path d="m38 28c-3.300781 0-6-.898437-6-2v2c0 1.101563 2.699219 2 6 2s6-.898437 6-2c0-.398437 0-1.601562 0-2 0 1.101563-2.699219 2-6 2z"/><path d="m38 31c-3.300781 0-6-.898437-6-2v2c0 1.101563 2.699219 2 6 2s6-.898437 6-2c0-.398437 0-1.601562 0-2 0 1.101563-2.699219 2-6 2z"/><path d="m38 34c-3.300781 0-6-.898437-6-2v2c0 1.101563 2.699219 2 6 2s6-.898437 6-2c0-.398437 0-1.601562 0-2 0 1.101563-2.699219 2-6 2z"/><path d="m38 37c-3.300781 0-6-.898437-6-2v2c0 1.101563 2.699219 2 6 2s6-.898437 6-2c0-.398437 0-1.601562 0-2 0 1.101563-2.699219 2-6 2z"/><path d="m38 40c-3.300781 0-6-.898437-6-2v2c0 1.101563 2.699219 2 6 2s6-.898437 6-2c0-.398437 0-1.601562 0-2 0 1.101563-2.699219 2-6 2z"/></g><g fill="#ffc107"><path d="m44 8c0-1.105469-2.6875-2-6-2s-6 .894531-6 2 2.6875 2 6 2 6-.894531 6-2z"/><path d="m38 12c-2.800781 0-5.101562-.601562-5.800781-1.5-.097656.199219-.199219.300781-.199219.5 0 1.101563 2.699219 2 6 2s6-.898437 6-2c0-.199219-.101562-.300781-.199219-.5-.699218.898438-3 1.5-5.800781 1.5z"/><path d="m38 15c-2.800781 0-5.101562-.601562-5.800781-1.5-.097656.199219-.199219.300781-.199219.5 0 1.101563 2.699219 2 6 2s6-.898437 6-2c0-.199219-.101562-.300781-.199219-.5-.699218.898438-3 1.5-5.800781 1.5z"/><path d="m38 18c-2.800781 0-5.101562-.601562-5.800781-1.5-.097656.199219-.199219.300781-.199219.5 0 1.101563 2.699219 2 6 2s6-.898437 6-2c0-.199219-.101562-.300781-.199219-.5-.699218.898438-3 1.5-5.800781 1.5z"/><path d="m38 21c-2.800781 0-5.101562-.601562-5.800781-1.5-.097656.199219-.199219.300781-.199219.5 0 1.101563 2.699219 2 6 2s6-.898437 6-2c0-.199219-.101562-.300781-.199219-.5-.699218.898438-3 1.5-5.800781 1.5z"/><path d="m38 24c-2.800781 0-5.101562-.601562-5.800781-1.5-.097656.199219-.199219.300781-.199219.5 0 1.101563 2.699219 2 6 2s6-.898437 6-2c0-.199219-.101562-.300781-.199219-.5-.699218.898438-3 1.5-5.800781 1.5z"/><path d="m38 27c-2.800781 0-5.101562-.601562-5.800781-1.5-.097656.199219-.199219.300781-.199219.5 0 1.101563 2.699219 2 6 2s6-.898437 6-2c0-.199219-.101562-.300781-.199219-.5-.699218.898438-3 1.5-5.800781 1.5z"/><path d="m38 30c-2.800781 0-5.101562-.601562-5.800781-1.5-.097656.199219-.199219.300781-.199219.5 0 1.101563 2.699219 2 6 2s6-.898437 6-2c0-.199219-.101562-.300781-.199219-.5-.699218.898438-3 1.5-5.800781 1.5z"/><path d="m38 33c-2.800781 0-5.101562-.601562-5.800781-1.5-.097656.199219-.199219.300781-.199219.5 0 1.101563 2.699219 2 6 2s6-.898437 6-2c0-.199219-.101562-.300781-.199219-.5-.699218.898438-3 1.5-5.800781 1.5z"/><path d="m38 36c-2.800781 0-5.101562-.601562-5.800781-1.5-.097656.199219-.199219.300781-.199219.5 0 1.101563 2.699219 2 6 2s6-.898437 6-2c0-.199219-.101562-.300781-.199219-.5-.699218.898438-3 1.5-5.800781 1.5z"/><path d="m38 39c-2.800781 0-5.101562-.601562-5.800781-1.5-.097656.199219-.199219.300781-.199219.5 0 1.101563 2.699219 2 6 2s6-.898437 6-2c0-.199219-.101562-.300781-.199219-.5-.699218.898438-3 1.5-5.800781 1.5z"/></g><path d="m10 19c-3.300781 0-6-.898437-6-2v2c0 1.101563 2.699219 2 6 2s6-.898437 6-2c0-.398437 0-1.601562 0-2 0 1.101563-2.699219 2-6 2z" fill="#ffa000"/><path d="m10 16c-3.300781 0-6-.898437-6-2v2c0 1.101563 2.699219 2 6 2s6-.898437 6-2c0-.398437 0-1.601562 0-2 0 1.101563-2.699219 2-6 2z" fill="#ffa000"/><path d="m10 22c-3.300781 0-6-.898437-6-2v2c0 1.101563 2.699219 2 6 2s6-.898437 6-2c0-.398437 0-1.601562 0-2 0 1.101563-2.699219 2-6 2z" fill="#ffa000"/><path d="m10 25c-3.300781 0-6-.898437-6-2v2c0 1.101563 2.699219 2 6 2s6-.898437 6-2c0-.398437 0-1.601562 0-2 0 1.101563-2.699219 2-6 2z" fill="#ffa000"/><path d="m10 28c-3.300781 0-6-.898437-6-2v2c0 1.101563 2.699219 2 6 2s6-.898437 6-2c0-.398437 0-1.601562 0-2 0 1.101563-2.699219 2-6 2z" fill="#ffa000"/><path d="m10 31c-3.300781 0-6-.898437-6-2v2c0 1.101563 2.699219 2 6 2s6-.898437 6-2c0-.398437 0-1.601562 0-2 0 1.101563-2.699219 2-6 2z" fill="#ffa000"/><path d="m10 34c-3.300781 0-6-.898437-6-2v2c0 1.101563 2.699219 2 6 2s6-.898437 6-2c0-.398437 0-1.601562 0-2 0 1.101563-2.699219 2-6 2z" fill="#ffa000"/><path d="m10 37c-3.300781 0-6-.898437-6-2v2c0 1.101563 2.699219 2 6 2s6-.898437 6-2c0-.398437 0-1.601562 0-2 0 1.101563-2.699219 2-6 2z" fill="#ffa000"/><path d="m10 40c-3.300781 0-6-.898437-6-2v2c0 1.101563 2.699219 2 6 2s6-.898437 6-2c0-.398437 0-1.601562 0-2 0 1.101563-2.699219 2-6 2z" fill="#ffa000"/><path d="m16 14c0-1.105469-2.6875-2-6-2s-6 .894531-6 2 2.6875 2 6 2 6-.894531 6-2z" fill="#ffc107"/><path d="m10 18c-2.800781 0-5.101562-.601562-5.800781-1.5-.097656.199219-.199219.300781-.199219.5 0 1.101563 2.699219 2 6 2s6-.898437 6-2c0-.199219-.101562-.300781-.199219-.5-.699218.898438-3 1.5-5.800781 1.5z" fill="#ffc107"/><path d="m10 21c-2.800781 0-5.101562-.601562-5.800781-1.5-.097656.199219-.199219.300781-.199219.5 0 1.101563 2.699219 2 6 2s6-.898437 6-2c0-.199219-.101562-.300781-.199219-.5-.699218.898438-3 1.5-5.800781 1.5z" fill="#ffc107"/><path d="m10 24c-2.800781 0-5.101562-.601562-5.800781-1.5-.097656.199219-.199219.300781-.199219.5 0 1.101563 2.699219 2 6 2s6-.898437 6-2c0-.199219-.101562-.300781-.199219-.5-.699218.898438-3 1.5-5.800781 1.5z" fill="#ffc107"/><path d="m10 27c-2.800781 0-5.101562-.601562-5.800781-1.5-.097656.199219-.199219.300781-.199219.5 0 1.101563 2.699219 2 6 2s6-.898437 6-2c0-.199219-.101562-.300781-.199219-.5-.699218.898438-3 1.5-5.800781 1.5z" fill="#ffc107"/><path d="m10 30c-2.800781 0-5.101562-.601562-5.800781-1.5-.097656.199219-.199219.300781-.199219.5 0 1.101563 2.699219 2 6 2s6-.898437 6-2c0-.199219-.101562-.300781-.199219-.5-.699218.898438-3 1.5-5.800781 1.5z" fill="#ffc107"/><path d="m10 33c-2.800781 0-5.101562-.601562-5.800781-1.5-.097656.199219-.199219.300781-.199219.5 0 1.101563 2.699219 2 6 2s6-.898437 6-2c0-.199219-.101562-.300781-.199219-.5-.699218.898438-3 1.5-5.800781 1.5z" fill="#ffc107"/><path d="m10 36c-2.800781 0-5.101562-.601562-5.800781-1.5-.097656.199219-.199219.300781-.199219.5 0 1.101563 2.699219 2 6 2s6-.898437 6-2c0-.199219-.101562-.300781-.199219-.5-.699218.898438-3 1.5-5.800781 1.5z" fill="#ffc107"/><path d="m10 39c-2.800781 0-5.101562-.601562-5.800781-1.5-.097656.199219-.199219.300781-.199219.5 0 1.101563 2.699219 2 6 2s6-.898437 6-2c0-.199219-.101562-.300781-.199219-.5-.699218.898438-3 1.5-5.800781 1.5z" fill="#ffc107"/><path d="m24 28c-3.300781 0-6-.898437-6-2v2c0 1.101563 2.699219 2 6 2s6-.898437 6-2c0-.398437 0-1.601562 0-2 0 1.101563-2.699219 2-6 2z" fill="#ffa000"/><path d="m24 25c-3.300781 0-6-.898437-6-2v2c0 1.101563 2.699219 2 6 2s6-.898437 6-2c0-.398437 0-1.601562 0-2 0 1.101563-2.699219 2-6 2z" fill="#ffa000"/><path d="m24 31c-3.300781 0-6-.898437-6-2v2c0 1.101563 2.699219 2 6 2s6-.898437 6-2c0-.398437 0-1.601562 0-2 0 1.101563-2.699219 2-6 2z" fill="#ffa000"/><path d="m24 34c-3.300781 0-6-.898437-6-2v2c0 1.101563 2.699219 2 6 2s6-.898437 6-2c0-.398437 0-1.601562 0-2 0 1.101563-2.699219 2-6 2z" fill="#ffa000"/><path d="m24 37c-3.300781 0-6-.898437-6-2v2c0 1.101563 2.699219 2 6 2s6-.898437 6-2c0-.398437 0-1.601562 0-2 0 1.101563-2.699219 2-6 2z" fill="#ffa000"/><path d="m24 40c-3.300781 0-6-.898437-6-2v2c0 1.101563 2.699219 2 6 2s6-.898437 6-2c0-.398437 0-1.601562 0-2 0 1.101563-2.699219 2-6 2z" fill="#ffa000"/><path d="m30 23c0-1.105469-2.6875-2-6-2s-6 .894531-6 2 2.6875 2 6 2 6-.894531 6-2z" fill="#ffc107"/><path d="m24 27c-2.800781 0-5.101562-.601562-5.800781-1.5-.097656.199219-.199219.300781-.199219.5 0 1.101563 2.699219 2 6 2s6-.898437 6-2c0-.199219-.101562-.300781-.199219-.5-.699218.898438-3 1.5-5.800781 1.5z" fill="#ffc107"/><path d="m24 30c-2.800781 0-5.101562-.601562-5.800781-1.5-.097656.199219-.199219.300781-.199219.5 0 1.101563 2.699219 2 6 2s6-.898437 6-2c0-.199219-.101562-.300781-.199219-.5-.699218.898438-3 1.5-5.800781 1.5z" fill="#ffc107"/><path d="m24 33c-2.800781 0-5.101562-.601562-5.800781-1.5-.097656.199219-.199219.300781-.199219.5 0 1.101563 2.699219 2 6 2s6-.898437 6-2c0-.199219-.101562-.300781-.199219-.5-.699218.898438-3 1.5-5.800781 1.5z" fill="#ffc107"/><path d="m24 36c-2.800781 0-5.101562-.601562-5.800781-1.5-.097656.199219-.199219.300781-.199219.5 0 1.101563 2.699219 2 6 2s6-.898437 6-2c0-.199219-.101562-.300781-.199219-.5-.699218.898438-3 1.5-5.800781 1.5z" fill="#ffc107"/><path d="m24 39c-2.800781 0-5.101562-.601562-5.800781-1.5-.097656.199219-.199219.300781-.199219.5 0 1.101563 2.699219 2 6 2s6-.898437 6-2c0-.199219-.101562-.300781-.199219-.5-.699218.898438-3 1.5-5.800781 1.5z" fill="#ffc107"/></svg>