<svg fill="#666" height="50" viewBox="0 0 48 48" width="50" xmlns="http://www.w3.org/2000/svg"><path d="m44 24c0 11.044-8.956 20-20 20s-20-8.956-20-20 8.956-20 20-20 20 8.956 20 20z" fill="#cfd8dc"/><path d="m41 24c0 9.391-7.609 17-17 17s-17-7.609-17-17 7.609-17 17-17 17 7.609 17 17z" fill="#448aff"/><path d="m21.898 21.898 4.203 4.203 9.199-13.402z" fill="#ff3d00"/><path d="m24 24 11.301-11.301-9.199 13.402z" fill="#bf360c"/><path d="m21.898 21.898-9.199 13.402 13.402-9.199z" fill="#fff"/><path d="m24 24-11.301 11.301 13.402-9.199z" fill="#bdbdbd"/><path d="m17.102 10.699c.598-.301 1.199-.598 1.797-.801l1.203 2.703-1.801.797zm18.898 14.301h2.898c0-.301.102-.699.102-1s0-.699-.102-1h-2.898zm-23.301-10.898 2.102 2.098 1.398-1.398-2.098-2.102c-.499.499-.902.902-1.402 1.402zm12.301-5c-.301-.102-.699-.102-1-.102s-.699 0-1 .102v2.898h2zm5.398 1.398c-.598-.301-1.199-.5-1.898-.699l-1.102 2.801 1.902.699zm-17.898 10 .699-1.898-2.699-1.102c-.301.602-.5 1.199-.699 1.898zm-.5 2.5h-2.898c-.102.301-.102.699-.102 1s0 .699.102 1h2.898zm23.5 4.5-.699 1.898 2.699 1.102c.301-.602.5-1.199.699-1.898zm2.602-8.602c-.203-.598-.5-1.199-.801-1.797l-2.699 1.199.797 1.801zm-2.801 15-2.102-2.098-1.398 1.398 2.098 2.102zm-21.903-4.199-.797-1.801-2.703 1.203c.203.598.5 1.199.801 1.797zm16.301 4.903-1.801.797 1.203 2.703c.598-.203 1.199-.5 1.797-.801zm-9.199.898-1.898-.699-1.102 2.699c.602.301 1.199.5 1.898.699zm4.5 3.398v-2.898h-2v2.898c.301 0 .699.102 1 .102s.699 0 1-.102z" fill="#bbdefb"/></svg>