<svg fill="#666" height="50" viewBox="0 0 48 48" width="50" xmlns="http://www.w3.org/2000/svg"><path d="m38 17c0-7.800781-6.199219-14-14-14s-14 6.199219-14 14c0 8.199219 8 10.800781 8 16.601563v1.398437h12v-1.398437c0-5.800782 8-8.402344 8-16.601563z" fill="#cddc39"/><path d="m19.300781 8.898438s-3.402343 7.703125-1.902343 12.800781c1.101562 3.601562 4.902343 4.5 6.601562 3.199219.199219 1.5-.398437 2.800781-.898437 4.101562l3 1.101563c1.898437-5.601563-1.300782-12-3.203125-15 4.5 3.199218 5.800781 8.597656 5.800781 8.597656.402344-.199219.601562-.597656 1.101562-1.097656 2.800782-3.402344 1.300782-11.300782-10.5-13.703125z" fill="#388e3c"/><path d="m18 34v5c0 1.898438 1.398438 3.5 3.199219 3.898438.402344 1.203125 1.5 2.101562 2.800781 2.101562s2.5-.898437 2.800781-2.101562c1.800782-.398438 3.199219-2 3.199219-3.898438v-5z" fill="#388e3c"/><g fill="#4caf50"><path d="m30 39-11.601562 1.601563c.300781.699218.902343 1.398437 1.601562 1.796875l9.398438-1.296875c.402343-.601563.601562-1.300782.601562-2.101563z"/><path d="m18 36.699219v2l12-1.699219v-2z"/></g></svg>