<svg fill="#666" height="50" viewBox="0 0 48 48" width="50" xmlns="http://www.w3.org/2000/svg"><path d="m23 23.5c0 .828-.672 1.5-1.5 1.5-.829 0-1.5-.672-1.5-1.5s.671-1.5 1.5-1.5c.828 0 1.5.672 1.5 1.5" fill="#ffa726"/><path d="m10 24.5c0 .828-.672 1.5-1.5 1.5s-1.5-.672-1.5-1.5.672-1.5 1.5-1.5 1.5.672 1.5 1.5" fill="#ffa726"/><path d="m19 33s0 4-4 4-4-4-4-4" fill="#ff9800"/><path d="m18.75 33-3.75.77-3.75-.77s-8.25 1.527-8.25 10h24c0-8.441-8.25-10-8.25-10" fill="#4fc3f7"/><path d="m15 37c-4 0-4-4-4-4v-4h8v4s0 4-4 4z" fill="#ff9800"/><path d="m22 20.68c0-5.879-14-3.828-14 0v4.391c0 3.824 3.133 6.929 7 6.929 3.866 0 7-3.105 7-6.93z" fill="#ffb74d"/><path d="m15 39c3.059 0 5.578-2.292 5.948-5.25-.884-.398-1.603-.607-1.954-.693-.031 2.181-1.804 3.943-3.994 3.943s-3.964-1.762-3.994-3.945c-.353.086-1.071.293-1.955.688.366 2.962 2.888 5.257 5.949 5.257z" fill="#01579b"/><path d="m15 13c-4.86 0-8 4.313-8 8.172v1.828l2 2v-4l9.2-3 2.8 3v4l2-2v-.809c0-3.218-.831-6.803-4.8-7.592l-.801-1.599z" fill="#424242"/><path d="m17 24c0-.551.448-1 1-1s1 .449 1 1-.448 1-1 1-1-.449-1-1m-6 0c0 .551.448 1 1 1s1-.449 1-1-.448-1-1-1-1 .449-1 1" fill="#784719"/><path d="m35.5 5c-5.247 0-9.5 3.582-9.5 8 0 2.253 1.11 4.285 2.89 5.739-.008.025-.018.045-.026.07-.585 1.497-1.292 3.234-1.864 4.191 1.993 0 4.594-.977 6.536-2.069.035-.027.065-.059.099-.087.603.101 1.226.156 1.865.156 5.247 0 9.5-3.582 9.5-8s-4.253-8-9.5-8z" fill="#2196f3"/><g fill="#90caf9"><path d="m30 10h11v2h-11z"/><path d="m30 14h7v2h-7z"/><path d="m39 14h2v2h-2z"/></g></svg>