<svg fill="#666" height="50" viewBox="0 0 48 48" width="50" xmlns="http://www.w3.org/2000/svg"><path d="m40 20c.390625-1.734375-.09375-3.78125-2.5-6-3.914062 3.542969-2.796875 7.226563-1.5 9 0 0-.164062 1-4 1-3.835937 0-30 0-30 0s-1.832031 16 16 16c15.59375 0 19.972656-12.003906 20.828125-15.074219.355469.046875.75.078125 1.171875.074219 2.148438-.015625 4.929688-1.171875 6-5.484375-2.839844-.984375-4.660156-.539062-6 .484375z" fill="#03a9f4"/><path d="m2.164063 28c.734375 4.738281 3.820312 12 15.835937 12 12.183594 0 17.523438-7.328125 19.683594-12z" fill="#0288d1"/><path d="m19.8125 39.9375c-.921875-.320312-5.074219-1.089844-5.8125-6.9375-4.210937 1.863281-7.9375 1.375-9.578125 1.007813 2.160156 3.230468 6.167969 5.992187 13.578125 5.992187.621094 0 1.222656-.023437 1.8125-.0625z" fill="#81d4fa"/><path d="m20 32c0 1.105469-.894531 2-2 2s-2-.894531-2-2 .894531-2 2-2 2 .894531 2 2z" fill="#fff"/><path d="m14.914063 33.597656c.222656.503907.019531 1.160157-.511719 1.316407-3.300781.972656-6.144531 1.101562-8.296875 1.101562-.640625-.617187-1.191406-1.277344-1.65625-1.960937 2.585937 0 6.710937-.121094 9.144531-.964844.523438-.183594 1.097656 0 1.320313.507812zm-12.914063-6.597656s1.875.125 3-1c1.875 1.6875 5.941406 1.089844 7 0 1.0625 1.6875 6.9375 1.375 8 0 1.25 1.4375 6.625 1.75 8 0 .480469 1.460938 6.820313 1.875 8 0 1.0625 1.089844 5.0625 1.9375 7.3125 0 .5625 1.1875 2.6875 1 2.6875 1v1h-44m15 4c0 .550781.449219 1 1 1s1-.449219 1-1-.449219-1-1-1-1 .449219-1 1z" fill="#37474f"/><path d="m11 24h-5v-5h5zm10-5h-5v5h5zm10 0h-5v5h5zm-15-5h-5v5h5zm10 0h-5v5h5z" fill="#01579b"/><path d="m16 24h-5v-5h5zm10-5h-5v5h5zm0-10h-5v5h5zm-5 5h-5v5h5z" fill="#0288d1"/></svg>