<svg fill="#666" height="50" viewBox="0 0 48 48" width="50" xmlns="http://www.w3.org/2000/svg"><path d="m29.398438 8.398438c1.101562-.699219 5.300781-3.296875 8.800781-3.296875 6.601562 0 3.5 7.699218 3.5 7.699218l.199219.199219c3.800781-9.699219-3.5-9-3.5-9-4.097657 0-9.296875 3.398438-10.398438 4.199219-1-.097656-2-.199219-3.101562-.199219-15.199219 0-17.5 11.601563-17.796875 15-.101563.5-.101563.800781-.101563.800781v.199219c0-.101562 0-.199219 0-.300781 6.101563-8.699219 14.5-12.199219 14.5-12.199219v.601563c-12.5 8.5-15.5 21.097656-16.199219 23.597656-.800781 2.601562-.300781 8.300781 5 8.300781 5.300782 0 10.398438-4.199219 10.398438-4.199219s1.199219.199219 4.300781.199219c13.199219 0 16.699219-12 16.699219-12h-11.699219s-1.199219 4-5.398437 4c-5.800782 0-5.601563-6-5.601563-6h23c.398438-5.5-1.101562-9.300781-3.300781-11.898437-1.800781-2.601563-4.699219-4.800782-9.300781-5.703125zm-9.398438 31.203125s-7.800781 4.898437-11.398437 1.5c-1.902344-3.402344 1.199218-8.203125 1.199218-8.203125s2.398438 4.902343 10.199219 6.703125zm-1-18.601563s-.101562-5 5.5-5c5.398438 0 5.5 5 5.5 5z" fill="#29b6f6"/></svg>