<svg fill="#666" height="50" viewBox="0 0 48 48" width="50" xmlns="http://www.w3.org/2000/svg" xmlns:xlink="http://www.w3.org/1999/xlink"><linearGradient id="a" gradientTransform="matrix(1 0 0 -1 0 662)" gradientUnits="userSpaceOnUse" x1="24" x2="24" y1="658" y2="618.146"><stop offset="0" stop-color="#42bce8"/><stop offset="1" stop-color="#23a7dc"/></linearGradient><circle cx="24" cy="24" fill="url(#a)" r="20"/><path d="m34.176 14.811-3.817 19.492s-.534 1.352-2.002.703l-8.809-6.84-3.203-1.568-5.392-1.838s-.828-.297-.908-.946.934-1 .934-1l21.436-8.516c-.001-.001 1.761-.785 1.761.513z" fill="#fff"/><path d="m18.87 34.083s-.257-.024-.578-1.052c-.32-1.027-1.949-6.434-1.949-6.434l12.947-8.327s.747-.46.721 0c0 0 .133.081-.267.46s-10.171 9.273-10.171 9.273" fill="#d2e5f1"/><path d="m22.925 30.788-3.484 3.217s-.272.209-.57.078l.667-5.976" fill="#b5cfe4"/></svg>