<svg fill="#666" height="50" viewBox="0 0 48 48" width="50" xmlns="http://www.w3.org/2000/svg"><path d="m24 24c-.1 0-.2 0-.3-.1-3.8-1.2-2.7-6.9-2.7-7.1.1-.5.6-.9 1.2-.8.5.1.9.6.8 1.2 0 0-.8 4.2 1.3 4.9.5.2.8.7.6 1.3-.1.3-.5.6-.9.6z" fill="#37474f"/><g fill="#455a64"><path d="m42 10-1-1h-2v1z"/><path d="m12 10-1-1h-2v1z"/><path d="m20 10h7v3h-7z"/><path d="m41 19h-29.9v-5h30.9v4c0 .6-.4 1-1 1"/><path d="m28 24.6c.2-1.4 1.1-4.1 1.7-5.6h3.3v-5h-27v4c1.3 0 3 2 3 4s-5 8-5 15c0 0 0 2 3 2h5c2 0 2.8-.7 3.2-2.1l2.2-8.7c.2-.7.8-1.3 1.6-1.3h9c.4 0 .8-.2.9-.6.2-.4.1-.8-.2-1.1zm-7 .4s-2 0-2-2v-1s0-3 3-3h3c1.5 0 1.9 1.1 2 1.7-.5 1.5-1 3.2-1 4.3z"/></g><path d="m27 10v2s0 1-1 1c0 0-4 0-5 0s-1-1-1-1v-2s-12 0-13 0-1 1-1 1v5h36v2h1c.6 0 1-.4 1-1v-7z" fill="#90a4ae"/><path d="m18 25c0 .6-.4 1-1 1s-1-.4-1-1 .4-1 1-1 1 .4 1 1z" fill="#90a4ae"/><path d="m6 14h36v2h-36z" fill="#78909c"/><path d="m15 25c0-1.1.9-2 2-2v-1c0-1.3.5-2.9 1.9-4h-9.3c.9 1.1 1.4 2.5 1.4 4 0 1.2-.7 2.4-1.7 4.1-1.4 2.5-3.3 6.9-3.3 9.9 0 0 0 1 1 1h5c.9 0 .9-.7 1-1l2.5-8.3c.1-.4.3-.7.5-1-.6-.4-1-1-1-1.7z" fill="#263238"/></svg>