<svg fill="#666" height="50" viewBox="0 0 48 48" width="50" xmlns="http://www.w3.org/2000/svg"><path d="m31 38h-25v-33h25v8z" fill="#42a5f5"/><g fill="#1565c0"><path d="m11 18h16v2h-16z"/><path d="m11 22h12v2h-12z"/><path d="m11 26h16v2h-16z"/><path d="m11 30h12v2h-12z"/><path d="m11 14h12v2h-12z"/></g><path d="m42 43h-25v-33h25z" fill="#90caf9"/><g fill="#1976d2"><path d="m22 23h15v2h-15z"/><path d="m22 27h11v2h-11z"/><path d="m22 31h15v2h-15z"/><path d="m22 35h11v2h-11z"/><path d="m22 19h13v2h-13z"/></g></svg>