<svg fill="#666" height="50" viewBox="0 0 48 48" width="50" xmlns="http://www.w3.org/2000/svg"><path d="m40 45h-32v-42h22l10 10z" fill="#ffc107"/><path d="m38.5 14h-9.5v-9.5z" fill="#fff3e0"/><g fill="#c47205"><path d="m16.515625 29.300781.945313-6.253906h1.988281l-1.769531 9.953125h-2.019532l-1.160156-5.863281-1.148437 5.863281h-2.023438l-1.777344-9.953125h2.003907l.9375 6.25 1.167968-6.25h1.6875z"/><path d="m23.160156 23.046875 1.878907 7.199219 1.875-7.199219h2.625v9.953125h-2.015625v-2.691406l.183593-4.152344-1.988281 6.84375h-1.367187l-1.988282-6.84375.183594 4.148438v2.695312h-2.011719v-9.953125z"/><path d="m36.027344 30.964844h-2.742188l-.53125 2.035156h-2.128906l3.109375-9.953125h1.839844l3.132812 9.953125h-2.148437zm-2.304688-1.675781h1.859375l-.929687-3.550782z"/></g></svg>