<svg fill="#666" height="50" viewBox="0 0 48 48" width="50" xmlns="http://www.w3.org/2000/svg"><path d="m40 12h-18l-4-4h-10c-2.199219 0-4 1.800781-4 4v8h40v-4c0-2.199219-1.800781-4-4-4z" fill="#ffa000"/><path d="m40 12h-32c-2.199219 0-4 1.800781-4 4v20c0 2.199219 1.800781 4 4 4h32c2.199219 0 4-1.800781 4-4v-20c0-2.199219-1.800781-4-4-4z" fill="#ffca28"/><g fill="#e91e63"><path d="m27 30.5c0 2.484375-2.015625 4.5-4.5 4.5s-4.5-2.015625-4.5-4.5 2.015625-4.5 4.5-4.5 4.5 2.015625 4.5 4.5z"/><path d="m32 18.898438-7-1.898438v13.5h2v-9.5l5 1.398438z"/></g></svg>