<svg fill="#666" height="50" viewBox="0 0 48 48" width="50" xmlns="http://www.w3.org/2000/svg"><path d="m40 45h-32v-42h22l10 10z" fill="#90caf9"/><path d="m38.5 14h-9.5v-9.5z" fill="#e1f5fe"/><g fill="#1976d2"><path d="m14 20h20v2h-20z"/><path d="m14 16h20v2h-20z"/><path d="m14 10h13v4h-13z"/><path d="m14 24h20v2h-20z"/></g><path d="m17.6 40.6-.9-.8s.5-.5 1.1-1.3c-.8-.9-1.3-2.2-1.3-3.2 0-3.6 2.2-5.8 3.7-5.8 1.2 0 1.8.9 1.8 2.6 0 2.1-1.3 4.4-2.5 6.1h.1c1 0 1.9-.6 2.7-1.3-.1-.4-.1-.8-.1-1.2 0-1.9.8-3.3 2.1-3.3.7 0 1.2.5 1.2 1.3 0 .9-.7 2.4-1.8 3.6.1.2.2.2.3.2.4 0 .9-.8 1.3-1.4.5-.8 1-1.5 1.7-1.5.3 0 .5.1.7.3.4.4.4.9.4 1.4v.3c.1-.1.2-.3.3-.4.5-.6 1.2-1.6 2.6-1.6v1.2c-.7 0-1.1.4-1.6 1.1-.4.5-.8 1.1-1.5 1.1-.3 0-.5-.1-.7-.3-.3-.3-.3-.9-.3-1.4 0-.1 0-.2 0-.4-.1.2-.4.5-.5.8-.6.9-1.3 1.9-2.3 1.9-.5 0-.9-.2-1.1-.6-.9.8-2 1.3-3.1 1.3-.3 0-.6-.1-.9-.2-.8.9-1.4 1.4-1.4 1.5zm2.7-10c-.7 0-2.5 1.4-2.5 4.6 0 .7.3 1.7.8 2.3 1.1-1.5 2.3-3.6 2.3-5.5-0-1.4-.4-1.4-.6-1.4zm4.1 2.8c-.4.1-.8.9-.8 2.1 0 0 .1-.1.1-.1.7-1.1.7-1.8.7-2z" fill="#1565c0"/></svg>