<svg fill="#666" height="50" viewBox="0 0 48 48" width="50" xmlns="http://www.w3.org/2000/svg"><g fill="#ff3d00"><path d="m42 9c0 2-6 20-6 20l-3-2s0-14 2-18c1.7-3.4 5-3 5-3s2 0 2 3z"/><path d="m36 29s0 2-2 2-16 0-16 0c-4 0-4-5-4-5 0-1.1 1-2 2-2 9 0 19 2 19 2 1 .2 1 2 1 2z"/><path d="m15 39h-7.5c-.8 0-1.5-.7-1.5-1.5s.7-1.5 1.5-1.5h6.5c.8 0 1 .2 1 1z"/></g><path d="m25 31h4v9h-4z" fill="#9fa8da"/><path d="m17 42h20s-2-3-10-3-10 3-10 3z" fill="#c5cae9"/><path d="m27 38c-.3 0-.6-.1-.8-.4-.3-.4-.2-1.1.2-1.4.7-.5 4.4-3.2 6.6-3.2h1c.6 0 1 .4 1 1s-.4 1-1 1h-1c-1.1 0-3.8 1.6-5.4 2.8-.2.1-.4.2-.6.2z" fill="#5c6bc0"/><path d="m38 19c0 1.1-.9 2-2 2s-2-.9-2-2 .9-2 2-2 2 .9 2 2z" fill="#37474f"/><path d="m19 22v9c0 .2-.1 5.2-4 5.9v2c4.7-.6 6-5.3 6-7.9v-9z" fill="#37474f"/><g fill="#dd2c00"><path d="m37 19c0 .6-.4 1-1 1s-1-.4-1-1 .4-1 1-1 1 .4 1 1z"/><path d="m21 22h-2c0-2.9 2.4-4 4-4h13v2h-13c-.5 0-2 .2-2 2z"/></g></svg>