<svg fill="#666" height="50" viewBox="0 0 48 48" width="50" xmlns="http://www.w3.org/2000/svg"><path d="m24 2 4.506 5.029 6.494-2.029 1.465 6.535 6.535 1.465-2 6.494 5 4.506-5 4.506 2 6.494-6.535 1.465-1.465 6.535-6.494-2.029-4.506 5.029-4.506-5.029-6.494 2.029-1.465-6.535-6.535-1.465 2-6.494-5-4.506 5-4.506-2-6.494 6.535-1.465 1.465-6.535 6.494 2.029z" fill="#f44336"/><g fill="#fff"><path d="m22.199 26.398h-2.199l-.398 1.602h-1.703l2.5-8h1.5l2.5 8h-1.699zm-1.898-1.398h1.5l-.699-2.801z"/><path d="m27.199 26.602h2.801v1.398h-4.398v-8h1.598v6.602z"/><path d="m35.602 24.5h-2.5v2.102h3v1.398h-4.602v-8h4.602v1.301h-3v1.898h2.5z"/><path d="m15.102 25.898c0-1.699-3.402-1.098-3.402-3.797 0-.801.5-2.203 2.5-2.203 2.199 0 2.5 1.902 2.5 2.5h-1.598c0-.598-.301-1.098-.902-1.098-.898 0-.898.801-.898.898 0 1.5 3.398.902 3.398 3.699 0 1.203-.801 2.203-2.5 2.203-1.398 0-2.801-.902-2.801-2.602h1.601c0 .5.102 1.301 1.102 1.301.5.002 1-.1 1-.901z"/></g></svg>