<svg fill="#666" height="50" viewBox="0 0 48 48" width="50" xmlns="http://www.w3.org/2000/svg"><path d="m40 45h-32v-42h22l10 10z" fill="#4db6ac"/><path d="m38.5 14h-9.5v-9.5z" fill="#e0f2f1"/><path d="m13.007813 23h1.992187v6.828125c0 .957031-.265625 1.726563-.800781 2.304688-.53125.578125-1.21875.867187-2.058594.867187-.902344 0-1.605469-.269531-2.105469-.804687-.503906-.539063-.753906-1.285157-.753906-2.246094h2c0 .933594.285156 1.398437.859375 1.398437.578125 0 .867188-.539062.867188-1.613281zm7.390625 7.3125c0-.394531-.101563-.695312-.304688-.898437s-.570312-.414063-1.105469-.628907c-.976562-.371093-1.679687-.804687-2.105468-1.300781-.429688-.5-.644532-1.085937-.644532-1.765625 0-.816406.289063-1.476562.871094-1.972656.585938-.5 1.324219-.746094 2.21875-.746094.597656 0 1.132813.125 1.597656.378906.46875.25.828125.605469 1.082032 1.066407.25.457031.375.980468.375 1.5625h-1.957032c0-.453125-.097656-.800782-.292968-1.039063-.191407-.238281-.472657-.355469-.835938-.355469-.34375 0-.613281.097657-.804687.300782-.191407.203125-.285157.476562-.285157.820312 0 .269531.105469.507813.320313.726563.214844.214843.59375.4375 1.136719.667968.949218.34375 1.640625.765625 2.066406 1.265625.433594.5.648437 1.132813.648437 1.90625 0 .847657-.269531 1.507813-.808593 1.984375-.542969.476563-1.273438.714844-2.203125.714844-.625 0-1.199219-.128906-1.714844-.386719-.519531-.257812-.921875-.628906-1.214844-1.109375-.292969-.484375-.4375-1.050781-.4375-1.703125h1.972656c0 .558594.109375.964844.328125 1.21875.214844.253907.574219.382813 1.066407.382813.6875 0 1.03125-.363281 1.03125-1.089844zm17.601562 2.6875h-2.011719l-2.9375-6.527344v6.527344h-2.011718v-9.953125h2.011718l2.945313 6.535156v-6.535156h2.003906zm-8-4.125c0 1.304688-.308594 2.320313-.925781 3.042969-.613281.722656-1.46875 1.082031-2.5625 1.082031-1.089844 0-1.945313-.359375-2.566406-1.074219-.621094-.710937-.9375-1.714843-.945313-3.003906v-1.664062c0-1.335938.308594-2.378907.925781-3.128907.617188-.753906 1.476563-1.128906 2.574219-1.128906 1.078125 0 1.929688.367188 2.554688 1.109375.621093.734375.933593 1.769531.945312 3.101563zm-1.96875-1.632812c0-.875-.125-1.527344-.371094-1.957032-.25-.425781-.636718-.640625-1.160156-.640625-.519531 0-.90625.207032-1.152344.617188-.25.410156-.378906 1.039062-.386718 1.882812v1.730469c0 .851563.125 1.476563.378906 1.882813.253906.402343.644531.601562 1.171875.601562.511719 0 .890625-.195312 1.140625-.589844.25-.394531.375-1.003906.378906-1.832031z" fill="#00695c"/></svg>