<svg fill="#666" height="50" viewBox="0 0 48 48" width="50" xmlns="http://www.w3.org/2000/svg"><path d="m1.996094 10h44v27h-44z" fill="#eceff1"/><g fill="#f44336"><path d="m2 10h44v3h-44z"/><path d="m2 16h44v3h-44z"/><path d="m2 22h44v3h-44z"/><path d="m2 28h44v3h-44z"/><path d="m2 34h44v3h-44z"/></g><path d="m2 10h21v15h-21z" fill="#3f51b5"/><g fill="#fff"><path d="m4.25 12 .464844.988281 1.035156.15625-.75.769532.179688 1.085937-.929688-.511719-.929687.511719.179687-1.085937-.75-.769532 1.035156-.15625z"/><path d="m8.25 12 .464844.988281 1.035156.15625-.75.769532.179688 1.085937-.929688-.511719-.929687.511719.179687-1.085937-.75-.769532 1.035156-.15625z"/><path d="m12.25 12 .464844.988281 1.035156.15625-.75.769532.179688 1.085937-.929688-.511719-.929687.511719.179687-1.085937-.75-.769532 1.035156-.15625z"/><path d="m16.25 12 .464844.988281 1.035156.15625-.75.769532.179688 1.085937-.929688-.511719-.929687.511719.179687-1.085937-.75-.769532 1.035156-.15625z"/><path d="m20 12 .464844.988281 1.035156.15625-.75.769532.179688 1.085937-.929688-.511719-.929687.511719.179687-1.085937-.75-.769532 1.035156-.15625z"/><path d="m4.25 20 .464844.988281 1.035156.15625-.75.769532.179688 1.085937-.929688-.511719-.929687.511719.179687-1.085937-.75-.769532 1.035156-.15625z"/><path d="m8.25 20 .464844.988281 1.035156.15625-.75.769532.179688 1.085937-.929688-.511719-.929687.511719.179687-1.085937-.75-.769532 1.035156-.15625z"/><path d="m12.25 20 .464844.988281 1.035156.15625-.75.769532.179688 1.085937-.929688-.511719-.929687.511719.179687-1.085937-.75-.769532 1.035156-.15625z"/><path d="m16.25 20 .464844.988281 1.035156.15625-.75.769532.179688 1.085937-.929688-.511719-.929687.511719.179687-1.085937-.75-.769532 1.035156-.15625z"/><path d="m20 20 .464844.988281 1.035156.15625-.75.769532.179688 1.085937-.929688-.511719-.929687.511719.179687-1.085937-.75-.769532 1.035156-.15625z"/><path d="m5.25 16 .464844.988281 1.035156.15625-.75.769532.179688 1.085937-.929688-.511719-.929687.511719.179687-1.085937-.75-.769532 1.035156-.15625z"/><path d="m9.25 16 .464844.988281 1.035156.15625-.75.769532.179688 1.085937-.929688-.511719-.929687.511719.179687-1.085937-.75-.769532 1.035156-.15625z"/><path d="m13.25 16 .464844.988281 1.035156.15625-.75.769532.179688 1.085937-.929688-.511719-.929687.511719.179687-1.085937-.75-.769532 1.035156-.15625z"/><path d="m17.25 16 .464844.988281 1.035156.15625-.75.769532.179688 1.085937-.929688-.511719-.929687.511719.179687-1.085937-.75-.769532 1.035156-.15625z"/><path d="m21 16 .464844.988281 1.035156.15625-.75.769532.179688 1.085937-.929688-.511719-.929687.511719.179687-1.085937-.75-.769532 1.035156-.15625z"/></g></svg>