<svg fill="#666" height="50" viewBox="0 0 48 48" width="50" xmlns="http://www.w3.org/2000/svg"><path d="m29 15c8.284 0 15 6.044 15 13.5 0 3.538-1.525 6.748-3.999 9.156.004.321-.001 3.344 3.999 5.344 0 0-1 1-3.5 1-5.5 0-7.5-2.5-7.5-2.5h.001c-1.276.317-2.613.5-4.001.5-8.284 0-15-6.044-15-13.5s6.716-13.5 15-13.5z" fill="#2196f3"/><g fill="#bbdefb"><path d="m21 23h16v1.999h-16z"/><path d="m21 28h16v1.999h-16z"/><path d="m23 33h10v2h-10z"/></g><path d="m34.874 23c.716-1.712 1.126-3.561 1.126-5.5 0-.324-.032-.64-.053-.959-2.078-.979-4.438-1.541-6.947-1.541-8.284 0-15 6.044-15 13.5 0 1.633.338 3.19.928 4.639.241-.152.465-.307.663-.463 1.139.215 2.282.324 3.409.324 3.748 0 7.209-1.119 10.021-3h-.021v-2h2.476c.919-.908 1.728-1.912 2.391-3h-.867v-2z" fill="#1e88e5"/><path d="m21 24.999h12.867c.389-.639.718-1.309 1.007-1.999h-13.874z" fill="#64b5f6"/><path d="m21 29.999h8.011c.889-.594 1.711-1.263 2.458-1.999h-10.469z" fill="#64b5f6"/><path d="m19 4c-8.284 0-15 6.044-15 13.5 0 3.538 1.525 6.748 3.999 9.156-.004.321.001 3.344-3.999 5.344 0 0 1 1 3.5 1 5.5 0 7.5-2.5 7.5-2.5h-.001c1.276.317 2.613.5 4.001.5 8.284 0 15-6.044 15-13.5s-6.716-13.5-15-13.5z" fill="#ffb300"/><g fill="#ffecb3"><path d="m11 12.001h16v1.999h-16z"/><path d="m11 17h16v2h-16z"/><path d="m11 22h12v2h-12z"/></g></svg>