<svg fill="#666" height="50" viewBox="0 0 48 48" width="50" xmlns="http://www.w3.org/2000/svg"><path d="m17 4h-7l10 18h7z" fill="#41a571"/><path d="m27 22-.066406-.132812-.070313.132812z" fill="#398e5f"/><path d="m22.828125 14.4375-3.445312 6.421875 1.117187 2.183594 3.484375-6.433594z" fill="#398e5f"/><path d="m31 4-10 18h7l10-18z" fill="#5ec08f"/><path d="m36 33c0 6.628906-5.371094 12-12 12s-12-5.371094-12-12 5.371094-12 12-12 12 5.371094 12 12z" fill="#ffba57"/><path d="m24 23c-5.519531 0-10 4.476563-10 10 0 5.519531 4.480469 10 10 10s10-4.480469 10-10c0-5.523437-4.480469-10-10-10zm-7.984375 10.308594c-.027344.003906-.054687-.011719-.058594-.039063-.003906-.007812-.003906-.011718 0-.019531l.042969-.25.050781.25c.007813.027344-.011718.050781-.035156.058594zm1.214844 3.925781c-.269531.164063-.617188.082031-.785156-.183594-.019532-.035156-.035157-.070312-.050782-.105468l-.171875-.484375c-.097656-.269532.039063-.566407.308594-.660157.234375-.085937.488281.011719.613281.214844l.269532.4375c.164062.265625.082031.617188-.183594.78125zm2.722656 2.703125c-.273437.386719-.808594.476563-1.195312.203125-.027344-.019531-.054688-.039062-.078125-.0625l-.382813-.339844c-.339844-.308593-.367187-.832031-.0625-1.171875.285156-.316406.757813-.363281 1.097656-.125l.417969.296875c.386719.277344.476563.8125.203125 1.199219zm3.488281 1.121094c-.113281.53125-.628906.867187-1.160156.753906-.007812 0-.019531-.003906-.027344-.003906l-.496093-.121094c-.523438-.128906-.84375-.652344-.714844-1.171875.125-.511719.632812-.828125 1.144531-.71875l.5.105469c.53125.109375.867188.628906.753906 1.15625zm-.441406-4.058594v-7.390625l-2 .664063v-1.757813l3.8125-1.515625h.1875v10zm3.246094 4.683594-.496094.121094c-.523437.128906-1.050781-.191407-1.179687-.71875-.128907-.523438.195312-1.050782.71875-1.179688.007812 0 .019531-.003906.027343-.003906l.5-.109375c.523438-.109375 1.039063.222656 1.148438.746094.109375.515625-.210938 1.019531-.71875 1.144531zm3.457031-1.953125-.382812.34375c-.347657.320312-.890625.289062-1.207032-.058594-.316406-.351562-.289062-.894531.0625-1.210937.023438-.023438.050782-.046875.078125-.066407l.417969-.292968c.375-.265625.890625-.175782 1.152344.195312.246094.347656.1875.816406-.121094 1.089844zm2.074219-3.273438-.171875.480469c-.109375.296875-.429688.449219-.726563.339844-.292968-.105469-.445312-.429688-.339843-.722656.015625-.035157.03125-.074219.050781-.105469l.269531-.4375c.148438-.238281.464844-.316406.707031-.167969.207032.132813.292969.390625.210938.613281zm.171875-3.1875c-.003906-.007812-.003906-.015625 0-.019531l.050781-.25.042969.25c.007812.027344-.011719.054688-.039063.058594-.027343.003906-.050781-.015625-.054687-.039063z" fill="#ffe082"/></svg>