<svg fill="#666" height="50" viewBox="0 0 48 48" width="50" xmlns="http://www.w3.org/2000/svg"><path d="m41 10h-16v28h16c.554688 0 1-.445312 1-1v-26c0-.554687-.445312-1-1-1z" fill="#2196f3"/><g fill="#fff"><path d="m25 15h14v2h-14z"/><path d="m25 19h14v2h-14z"/><path d="m25 23h14v2h-14z"/><path d="m25 27h14v2h-14z"/><path d="m25 31h14v2h-14z"/></g><path d="m27 42-21-4v-28l21-4z" fill="#0d47a1"/><path d="m21.167969 31.011719h-2.71875l-1.800781-8.988281c-.097657-.476563-.15625-.996094-.175782-1.574219h-.03125c-.042968.636719-.109375 1.160156-.195312 1.574219l-1.851563 8.988281h-2.828125l-2.859375-14.015625h2.675782l1.535156 9.328125c.0625.40625.113281.941406.144531 1.609375h.042969c.015625-.5.097656-1.050781.222656-1.644531l1.96875-9.292969h2.621094l1.785156 9.40625c.0625.347656.121094.84375.171875 1.507812h.03125c.019531-.511718.070313-1.03125.160156-1.5625l1.5-9.351562h2.46875z" fill="#fff"/></svg>