<svg fill="#666" height="50" viewBox="0 0 48 48" width="50" xmlns="http://www.w3.org/2000/svg"><path d="m40 17-32 .003906v25.996094c0 1.65625 1.34375 3 3 3h26c1.65625 0 3-1.34375 3-3z" fill="#cfd8dc"/><path d="m11.8125 17v.011719c1.371094.054687 2.566406.695312 3.285156 2.023437.878907 1.617188.972657 3.730469 2.6875 4.71875 2.394532 1.378907 3.574219-.441406 5.59375-1.128906 2.351563-.800781 3.804688 1.332031 4.488282 3.136719.660156 1.746094.957031 3.847656 1.132812 5.863281.171875 1.964844.527344 4.839844 1.628906 6.472656 1.195313 1.769532 3.707032 2.304688 4.871094.285157 1.078125-1.871094.25-16.964844 4.5-21.382813-3.582031 0-28.1875 0-28.1875 0z" fill="#e91e63"/><path d="m42 18.832031c0-9.28125-8.074219-16.832031-18-16.832031s-18 7.550781-18 16.832031v7.167969h2s0-7.140625 0-7.167969c0-8.179687 7.179688-14.832031 16-14.832031 8.820313 0 16 6.652344 16 14.832031v7.167969h2s0-7.140625 0-7.167969z" fill="#546e7a"/></svg>