<svg fill="#666" height="50" viewBox="0 0 48 48" width="50" xmlns="http://www.w3.org/2000/svg"><path d="m10 18c0-7.730469 6.269531-14 14-14s14 6.269531 14 14-14 26-14 26-14-18.269531-14-26z" fill="#f50057"/><g fill="#fce4ec"><path d="m21.898438 23h-2.011719v-9.953125h2.011719z"/><path d="m25.597656 19.5v3.5h-2.011718v-9.953125h3.390625c.984375 0 1.769531.304688 2.355468.917969.585938.609375.878907 1.402344.878907 2.378906 0 .972656-.289063 1.742188-.867188 2.308594s-1.382812.847656-2.40625.847656zm0-1.675781h1.378907c.382812 0 .679687-.125.890625-.375.210937-.25.3125-.613281.3125-1.09375 0-.496094-.105469-.894531-.320313-1.1875s-.5-.441406-.859375-.445313h-1.402344z"/></g></svg>