<svg fill="#666" height="50" viewBox="0 0 48 48" width="50" xmlns="http://www.w3.org/2000/svg"><path d="m40 24c0 8.8-7.2 16-16 16s-16-7.2-16-16 7.2-16 16-16 16 7.2 16 16z" fill="#fff"/><g fill="#e64a19"><path d="m30 24c0 3.3-2.7 6-6 6s-6-2.7-6-6 2.7-6 6-6 6 2.7 6 6z"/><path d="m12 21.5c1.4 0 2.5 1.1 2.5 2.5s-1.1 2.5-2.5 2.5-2.5-1.1-2.5-2.5 1.1-2.5 2.5-2.5m0-1c-1.9 0-3.5 1.6-3.5 3.5s1.6 3.5 3.5 3.5 3.5-1.6 3.5-3.5-1.6-3.5-3.5-3.5z"/><path d="m30 31.5c1.4 0 2.5 1.1 2.5 2.5s-1.1 2.5-2.5 2.5-2.5-1.1-2.5-2.5 1.1-2.5 2.5-2.5m0-1c-1.9 0-3.5 1.6-3.5 3.5s1.6 3.5 3.5 3.5 3.5-1.6 3.5-3.5-1.6-3.5-3.5-3.5z"/><path d="m24 4c-11 0-20 9-20 20s9 20 20 20 20-9 20-20-9-20-20-20zm8.5 30c0 1.4-1.1 2.5-2.5 2.5s-2.5-1.1-2.5-2.5c0-.2 0-.5.1-.7-1.1.5-2.3.7-3.6.7-5.1 0-9.2-3.8-9.9-8.7-.4.7-1.2 1.2-2.1 1.2-1.4 0-2.5-1.1-2.5-2.5s1.1-2.5 2.5-2.5c.9 0 1.7.5 2.1 1.2.7-4.9 4.8-8.7 9.9-8.7 1.3 0 2.5.2 3.6.7-.1-.2-.1-.4-.1-.7 0-1.4 1.1-2.5 2.5-2.5s2.5 1.1 2.5 2.5c0 1.2-.8 2.2-2 2.4 2.2 1.9 3.5 4.6 3.5 7.6s-1.3 5.7-3.5 7.6c1.2.2 2 1.2 2 2.4z"/><path d="m30 11.5c1.4 0 2.5 1.1 2.5 2.5s-1.1 2.5-2.5 2.5-2.5-1.1-2.5-2.5 1.1-2.5 2.5-2.5m0-1c-1.9 0-3.5 1.6-3.5 3.5s1.6 3.5 3.5 3.5 3.5-1.6 3.5-3.5-1.6-3.5-3.5-3.5z"/><path d="m24 24c-2.6-4.1-5.2-8.1-7.8-12.2"/><path d="m19.1 10.7h2v14.4h-2z" transform="matrix(.84370077 -.53681376 .53681376 .84370077 -6.469037 13.603926)"/><path d="m24 23h14.4v2h-14.4z"/><path d="m24 24c-2.7 4-5.3 8-8 12"/><path d="m12.8 29h14.4v2h-14.4z" transform="matrix(.55467017 -.83207031 .83207031 .55467017 -16.061396 30.002309)"/></g></svg>