<svg fill="#666" height="50" viewBox="0 0 48 48" width="50" xmlns="http://www.w3.org/2000/svg"><path d="m42 40c0 1.105469-.894531 2-2 2h-32c-1.105469 0-2-.894531-2-2v-32c0-1.105469.894531-2 2-2h32c1.105469 0 2 .894531 2 2z" fill="#bbdefb"/><path d="m35 24c0 6.074219-4.925781 11-11 11s-11-4.925781-11-11 4.925781-11 11-11 11 4.925781 11 11z" fill="#0d47a1"/><path d="m32.5 24c0 4.695313-3.804687 8.5-8.5 8.5-4.695312 0-8.5-3.804687-8.5-8.5 0-4.695312 3.804688-8.5 8.5-8.5 4.695313 0 8.5 3.804688 8.5 8.5z" fill="#64b5f6"/><path d="m22 37h4v5h-4z" fill="#42a5f5"/><path d="m26 38c2 0 2-2 2-2v-15c0-1.105469-.894531-2-2-2h-4c-1.105469 0-2 .894531-2 2v15s0 2 2 2z" fill="#1e88e5"/></svg>