<svg fill="#666" height="50" viewBox="0 0 48 48" width="50" xmlns="http://www.w3.org/2000/svg"><path d="m20 6-14 36 36-14z" fill="#ffd54f"/><path d="m15 32c-2.761719 0-5 2.238281-5 5 0 1.144531.402344 2.191406 1.054688 3.035156l8.902343-3.464843c-.21875-2.554688-2.34375-4.570313-4.957031-4.570313z" fill="#ff3d00"/><path d="m25 18.5c0 2.484375-2.015625 4.5-4.5 4.5s-4.5-2.015625-4.5-4.5 2.015625-4.5 4.5-4.5 4.5 2.015625 4.5 4.5z" fill="#ff3d00"/><path d="m28 20c-1.65625 0-3 1.34375-3 3.003906 0 1.652344 1.34375 2.996094 3 2.996094s3-1.34375 3-2.996094c0-1.660156-1.34375-3.003906-3-3.003906zm0 4.5c-.828125 0-1.5-.671875-1.5-1.5s.671875-1.5 1.5-1.5 1.5.671875 1.5 1.5-.671875 1.5-1.5 1.5z" fill="#3e2723"/><path d="m16 25c-1.65625 0-3 1.34375-3 3.003906 0 1.652344 1.34375 2.996094 3 2.996094s3-1.34375 3-2.996094c0-1.660156-1.34375-3.003906-3-3.003906zm0 4.5c-.828125 0-1.5-.671875-1.5-1.5s.671875-1.5 1.5-1.5 1.5.671875 1.5 1.5-.671875 1.5-1.5 1.5z" fill="#3e2723"/><path d="m29.871094 32.523438c-.386719-1.035157-1.539063-1.558594-2.574219-1.171875-1.035156.386718-6.238281 3.296875-5.851562 4.332031.03125.089844.125.160156.238281.21875l8.234375-3.203125c-.015625-.058594-.023438-.121094-.046875-.175781z" fill="#8d6e63"/><path d="m25.1875 34.277344c-.484375-1.519531-.304687-2.890625-.304687-2.890625.03125-.042969.03125-.097656.027343-.148438.050782-.1875.0625-.390625-.015625-.589843-.191406-.519532-.769531-.78125-1.285156-.585938-.132812.050781-.246094.125-.34375.21875-1.769531 1.113281-2.585937 3.363281-1.820312 5.402344.035156.089844.085937.171875.125.257812l3.703125-1.4375c-.027344-.074218-.058594-.148437-.085938-.226562z" fill="#8d6e63"/><path d="m26 28.59375s-.535156-5.371094-6-3.441406c.589844 5.589844 6 3.441406 6 3.441406z" fill="#689f38"/><path d="m33.59375 25s-5.371094.535156-3.441406 6c5.589844-.589844 3.441406-6 3.441406-6z" fill="#689f38"/><path d="m41.859375 27.1875c-.929687-2.179687-3.078125-8.539062-7.789062-13.25-4.578125-4.582031-10.640625-7.101562-13.328125-7.832031-.839844-.226563-1.027344-.273438-1.355469.5625-.269531.675781-1.03125 2.988281-1.40625 4.070312-.0625.183594-.097656.332032-.121094.46875 8.695313 3.351563 15.609375 10.273438 18.953125 18.976563.023438-.007813.046875-.003906.074219-.011719.691406-.222656 3.46875-1.191406 4.207031-1.4375.734375-.25 1.136719-.671875.765625-1.546875z" fill="#ff9800"/></svg>