<svg fill="#666" height="50" viewBox="0 0 48 48" width="50" xmlns="http://www.w3.org/2000/svg"><g fill="#c5cae9"><path d="m11 34h26v9h-26z"/><path d="m15 24h18v9h-18z"/><path d="m33 22h-18c0-4 4.03125-8 9-8s9 4 9 8z"/><path d="m22 9h4v5h-4z"/></g><g fill="#5c6bc0"><path d="m13 35h2v7h-2z"/><path d="m17 35h2v7h-2z"/><path d="m21 35h2v7h-2z"/><path d="m25 35h2v7h-2z"/><path d="m29 35h2v7h-2z"/><path d="m17 25h2v7h-2z"/><path d="m21 25h2v7h-2z"/><path d="m25 25h2v7h-2z"/><path d="m29 25h2v7h-2z"/><path d="m33 35h2v7h-2z"/></g><path d="m38 33.5c0 .828125-.671875 1.5-1.5 1.5h-25c-.828125 0-1.5-.671875-1.5-1.5s.671875-1.5 1.5-1.5h25c.828125 0 1.5.671875 1.5 1.5z" fill="#9fa8da"/><path d="m38 43.5c0 .828125-.671875 1.5-1.5 1.5h-25c-.828125 0-1.5-.671875-1.5-1.5s.671875-1.5 1.5-1.5h25c.828125 0 1.5.671875 1.5 1.5z" fill="#9fa8da"/><path d="m35 23.5c0 .828125-.671875 1.5-1.5 1.5h-19c-.828125 0-1.5-.671875-1.5-1.5s.671875-1.5 1.5-1.5h19c.828125 0 1.5.671875 1.5 1.5z" fill="#9fa8da"/><path d="m27 14c0 .550781-.445312 1-1 1h-4c-.554687 0-1-.449219-1-1s.445313-1 1-1h4c.554688 0 1 .449219 1 1z" fill="#9fa8da"/><path d="m26 9h-4c0-1.101562.894531-2 2-2s2 .894531 2 2z" fill="#455a64"/><path d="m25 8c0 .550781-.445312 1-1 1-.554687 0-1-.449219-1-1v-4c0-.550781.445313-1 1-1 .554688 0 1 .449219 1 1z" fill="#455a64"/></svg>