<svg fill="#666" height="50" viewBox="0 0 48 48" width="50" xmlns="http://www.w3.org/2000/svg"><path d="m23.648438 24.898438c-.996094-1.609375-1.71875-2.945313-2.722657-5.457032-1.695312-4.242187 10.3125-8.074218 5.445313-15.441406 2.109375 5.089844-7.578125 8.234375-8.476563 12.472656-.824218 3.898438 5.75 8.425782 5.753907 8.425782z" fill="#f44336"/><path d="m23.878906 17.269531c-.191406 2.515625 2.226563 3.859375 2.296875 5.695313.058594 1.496094-1.445312 2.742187-1.445312 2.742187s2.726562-.535156 3.578125-2.816406c.945312-2.535156-1.832031-4.269531-1.546875-6.296875.265625-1.941406 6.03125-5.542969 6.03125-5.542969s-8.480469.558594-8.914063 6.21875z" fill="#f44336"/><g fill="#1565c0"><path d="m32.085938 25.054688c1.753906-.394532 3.230468.722656 3.230468 2.011718 0 2.898438-4.019531 5.640625-4.019531 5.640625s6.222656-.742187 6.222656-5.503906c0-3.148437-3.054687-3.9375-5.433593-2.148437z"/><path d="m29.128906 27.394531s1.941407-1.382812 2.457032-1.902343c-4.761719 1.011718-15.636719 1.148437-15.636719.269531 0-.808594 3.507812-1.636719 3.507812-1.636719s-7.773437-.113281-7.773437 2.179688c0 2.390625 10.175781 2.5625 17.445312 1.089843z"/><path d="m27.933594 29.570313c-4.507813 1.5-12.8125 1.019531-10.351563-.992188-1.199218 0-2.976562.960938-2.976562 1.890625 0 1.855469 8.984375 3.289063 15.632812.570313z"/><path d="m18.6875 32.738281c-1.636719 0-2.695312 1.054688-2.695312 1.824219 0 2.390625 9.757812 2.628906 13.625.203125l-2.457032-1.632812c-2.890625 1.269531-10.144531 1.445312-8.472656-.394532z"/><path d="m36.28125 36.632813c0-.9375-1.054687-1.378907-1.433594-1.589844 2.226563 5.375-22.316406 4.957031-22.316406 1.785156 0-.722656 1.808594-1.425781 3.476563-1.09375l-1.417969-.839844c-3.328125-.519531-5.589844.941407-5.589844 2.121094 0 5.503906 27.28125 5.238281 27.28125-.382812z"/><path d="m39 38.605469c-4.144531 4.09375-14.660156 5.585937-25.230469 3.054687 10.570313 4.503907 25.179688 1.96875 25.230469-3.054687z"/></g></svg>