<svg fill="#666" height="50" viewBox="0 0 48 48" width="50" xmlns="http://www.w3.org/2000/svg"><g fill="#00bcd4"><path d="m24 45c0-2-6.132812-5.386719-7.996094-6.09375-6.425781-2.429687-9.003906-7.90625-8.003906-14.90625h2c-1 7 4.832031 12 12 12h4c7.167969 0 13-5 12-12h2c1 7-1.578125 12.476563-8 14.90625-1.867187.707031-8 4.234375-8 6.09375z"/><path d="m31.6875 34.960938c2.519531-.839844-2.5 3.027343-7.628906 3.054687-5.125.027344-10.113281-3.710937-7.4375-2.941406 5.191406 1.488281 5.179687-6.078125 5.378906-11.074219.226563-5.574219 1-15 1-15h2s.808594 11.234375 1 15c.257813 4.992188.6875 12.625 5.6875 10.960938z"/><path d="m25 9c0 .550781-.449219 1-1 1s-1-.449219-1-1 .449219-1 1-1 1 .449219 1 1z"/><path d="m18 17h12v2h-12z"/></g><g fill="#0097a7"><path d="m22.703125 12.808594c.058594-.769531.109375-1.460938.15625-2.035156-1.089844-.449219-1.859375-1.519532-1.859375-2.773438 0-1.65625 1.34375-3 3-3s3 1.34375 3 3c0 1.257813-.777344 2.332031-1.871094 2.777344.039063.578125.089844 1.273437.140625 2.039062 2.140625-.5625 3.730469-2.496093 3.730469-4.816406 0-2.761719-2.238281-5-5-5s-5 2.238281-5 5c0 2.308594 1.574219 4.234375 3.703125 4.808594z"/><path d="m33 18c0 1.105469-.894531 2-2 2s-2-.894531-2-2 .894531-2 2-2 2 .894531 2 2z"/><path d="m19 18c0 1.105469-.894531 2-2 2s-2-.894531-2-2 .894531-2 2-2 2 .894531 2 2z"/><path d="m6 26s1-3 4-6c1 1 2 7 2 7s-2-2-6-1z"/><path d="m42 26s-1-3-4-6c-1 1-2 7-2 7s2-2 6-1z"/></g></svg>