<svg fill="#666" height="50" viewBox="0 0 48 48" width="50" xmlns="http://www.w3.org/2000/svg"><path d="m23.1 44.4-5.3-14.2 1.8-.7 3.4 9v-11.5h2v10.4l3-9.7 2 .6-5 16-1-.3z" fill="#b0bec5"/><path d="m26 30h-1l-1 1-1-1h-1l1-3.8h2z" fill="#ffa000"/><path d="m21.6 31.8-.9.4-.6 1.3-1.3-.6-.9.4-.5-3.9 1.9-.8z" fill="#558b2f"/><path d="m22 15.4c2 4.6 1.3 13.2-3.2 15.2s-11.1-3.4-13.1-8 .1-9.9 4.6-11.9c4.5-1.9 9.7.1 11.7 4.7z" fill="#7cb342"/><path d="m28.6 26.4 1.9.8-.5 3.8-.9-.4-1.3.6-.6-1.3-.9-.4z" fill="#dd2c00"/><path d="m25.1 11.7c-2.1 4.8-1.4 13.8 3.3 15.9s11.7-3.6 13.8-8.3-.1-10.4-4.8-12.5-10.2.1-12.3 4.9z" fill="#ff3d00"/><path d="m20.6 29.2c.4-.5.8-1.1 1.1-1.7-4.4-1.9-7.7-8.8-7.7-13.5 0-1.4.3-2.7.8-3.9-.2 0-.3 0-.5 0-.6 0-1.1 0-1.7.1-.4 1.1-.6 2.4-.6 3.8 0 5.3 3.5 12.8 8.6 15.2z" fill="#558b2f"/><path d="m8.9 23.6c-1.9-4.2.1-9.2 4.4-11.1.5-.2 1-.4 1.5-.5-1.2-.1-2.5 0-3.7.6-3.7 1.6-5.3 5.8-3.7 9.5.5 1.2 1.3 2.2 2.3 2.9-.3-.4-.6-.9-.8-1.4z" fill="#f1f8e9"/><path d="m34 14c0 5.5-4.5 14-10 14s-10-8.5-10-14 4.5-10 10-10 10 4.5 10 10z" fill="#ffc107"/><path d="m36 14c0-3.1-1.2-5.8-3.1-8-.8.1-1.6.2-2.3.5 2.1 1.9 3.4 4.5 3.4 7.5 0 4.3-2.8 10.5-6.6 12.9.3.3.7.5 1 .6s.7.3 1.1.3c4-3.1 6.5-9.2 6.5-13.8z" fill="#dd2c00"/><path d="m17 16.3c0-5.2 4.2-9.4 9.4-9.4.6.1 1.1.1 1.7.2-1.2-.7-2.5-1.1-4-1.1-4.4 0-8 3.6-8 8 0 1.4.4 2.8 1.1 4-.1-.5-.2-1.1-.2-1.7z" fill="#fffde7"/></svg>