<svg fill="#666" height="50" viewBox="0 0 48 48" width="50" xmlns="http://www.w3.org/2000/svg"><path d="m41 6h-34c-.601562 0-1 .398438-1 1v35h36v-35c0-.601562-.398437-1-1-1z" fill="#cfd8dc"/><path d="m8 13h32v27h-32z" fill="#263238"/><path d="m15 9.5c0 .828125-.671875 1.5-1.5 1.5s-1.5-.671875-1.5-1.5.671875-1.5 1.5-1.5 1.5.671875 1.5 1.5z" fill="#90a4ae"/><path d="m11 9.5c0 .828125-.671875 1.5-1.5 1.5s-1.5-.671875-1.5-1.5.671875-1.5 1.5-1.5 1.5.671875 1.5 1.5z" fill="#90a4ae"/><g fill="#18ffff"><path d="m18.5 26.5-3.5-2v-2.5l6 3.398438v2.101562l-6 3.5v-2.5z"/><path d="m23 29h10v2h-10z"/></g></svg>