<svg fill="#666" height="50" viewBox="0 0 48 48" width="50" xmlns="http://www.w3.org/2000/svg"><path d="m32.398438 28.101563-13.199219 7.796875 3.101562 4 12.699219-7.597657c1.101563-.699218 1.5-2.199218.800781-3.300781-.699218-1.199219-2.199218-1.601562-3.402343-.898437z" fill="#e39d36"/><path d="m36 28.5-13.199219 7.800781 3.097657 4 12.601562-7.601562c1.101563-.699219 1.5-2.199219.800781-3.300781-.699218-1.097657-2.199218-1.5-3.300781-.898438z" fill="#eda740"/><path d="m38.898438 29.398438-12.398438 7.300781-5.898437-3.398438 2.898437 1.597657c1.300781.703125 2.898438.5 3.898438-.597657 1.300781-1.5.902343-3.800781-.796875-4.699218l-12.402344-6.800782c-1.097656-.601562-2.5-.601562-3.699219 0l-5.5 3.300782v.097656 10.699219l4-2.5 15.101563 8.203125c1.199218.597656 2.597656.597656 3.796875-.101563l13.800781-8.300781c1.300781-.800781 1.699219-2.398438.902344-3.699219-.703125-1.398437-2.402344-1.800781-3.703125-1.101562z" fill="#ffb74d"/><path d="m26.5 36.800781-1.300781-.902343-10.699219-6 8 6.601562c1.199219.898438 2.699219 1 4 .300781z" fill="#eda740"/><path d="m24.398438 34.199219c-.898438-.5-.597657-1.300781-.097657-2.199219.5-.898437.898438-1.601562 1.800782-1.101562.898437.5 1.296875 1.601562.796875 2.5-.398438.902343-1.5 1.203125-2.5.800781z" fill="#ffcc80"/><path d="m36.5 15.101563c.898438-1.101563 1.5-2.5 1.5-4 0-3.300782-2.800781-6.101563-6.300781-6.101563-2.5 0-4.699219 1.398438-5.699219 3.601563-1-2.203125-3.199219-3.601563-5.699219-3.601563-3.5 0-6.300781 2.800781-6.300781 6.199219 0 1.601562.601563 3 1.601563 4.101562 5.296875 6.097657 10.398437 9.699219 10.398437 9.699219s5.300781-3.5 10.5-9.898437z" fill="#ff3d00"/></svg>