<svg fill="#666" height="50" viewBox="0 0 48 48" width="50" xmlns="http://www.w3.org/2000/svg"><path d="m23 9h2v30h-2z" fill="#cfd8dc"/><path d="m9 23h30v2h-30z" fill="#cfd8dc"/><path d="m33.898438 12.6875 1.414062 1.414063-21.210937 21.210937-1.414063-1.414062z" fill="#cfd8dc"/><path d="m35.3125 33.898438-1.414062 1.414062-21.210938-21.210937 1.414063-1.414063z" fill="#cfd8dc"/><path d="m25 23h-2l-6 20h2l5-16 5 16h2.300781z" fill="#607d8b"/><path d="m26 24c0 1.105469-.894531 2-2 2s-2-.894531-2-2 .894531-2 2-2 2 .894531 2 2z" fill="#607d8b"/><path d="m33 43h-4v-2h2c1.101563 0 2 .898438 2 2z" fill="#607d8b"/><path d="m19 43h-4c0-1.101562.898438-2 2-2h2z" fill="#607d8b"/><path d="m24 8c-8.800781 0-16 7.199219-16 16s7.199219 16 16 16 16-7.199219 16-16-7.199219-16-16-16zm0 30c-7.699219 0-14-6.300781-14-14s6.300781-14 14-14 14 6.300781 14 14-6.300781 14-14 14z" fill="#2196f3"/><g fill="#ff5722"><path d="m27 9c0 1.65625-1.34375 3-3 3s-3-1.34375-3-3 1.34375-3 3-3 3 1.34375 3 3z"/><path d="m27 39c0 1.65625-1.34375 3-3 3s-3-1.34375-3-3 1.34375-3 3-3 3 1.34375 3 3z"/><path d="m42 24c0 1.65625-1.34375 3-3 3s-3-1.34375-3-3 1.34375-3 3-3 3 1.34375 3 3z"/><path d="m12 24c0 1.65625-1.34375 3-3 3s-3-1.34375-3-3 1.34375-3 3-3 3 1.34375 3 3z"/><path d="m38 14c0 1.65625-1.34375 3-3 3s-3-1.34375-3-3 1.34375-3 3-3 3 1.34375 3 3z"/><path d="m16 14c0 1.65625-1.34375 3-3 3s-3-1.34375-3-3 1.34375-3 3-3 3 1.34375 3 3z"/><path d="m38 34c0 1.65625-1.34375 3-3 3s-3-1.34375-3-3 1.34375-3 3-3 3 1.34375 3 3z"/><path d="m16 34c0 1.65625-1.34375 3-3 3s-3-1.34375-3-3 1.34375-3 3-3 3 1.34375 3 3z"/></g><g fill="#3f51b5"><path d="m24 7.5c-.800781 0-1.5.699219-1.5 1.5h3c0-.800781-.699219-1.5-1.5-1.5z"/><path d="m24 37.5c-.800781 0-1.5.699219-1.5 1.5h3c0-.800781-.699219-1.5-1.5-1.5z"/><path d="m39 22.5c-.800781 0-1.5.699219-1.5 1.5h3c0-.800781-.699219-1.5-1.5-1.5z"/><path d="m9 22.699219c-.800781 0-1.5.699219-1.5 1.5h3c0-.898438-.699219-1.5-1.5-1.5z"/><path d="m35 12.5c-.800781 0-1.5.699219-1.5 1.5h3c0-.800781-.699219-1.5-1.5-1.5z"/><path d="m13 12.699219c-.800781 0-1.5.699219-1.5 1.5h3c0-.898438-.699219-1.5-1.5-1.5z"/><path d="m35 32.5c-.800781 0-1.5.699219-1.5 1.5h3c0-.800781-.699219-1.5-1.5-1.5z"/><path d="m13 32.5c-.800781 0-1.5.699219-1.5 1.5h3c0-.800781-.699219-1.5-1.5-1.5z"/></g></svg>