<svg fill="#666" height="50" viewBox="0 0 48 48" width="50" xmlns="http://www.w3.org/2000/svg"><path d="m32 14.5c0 .828125-.671875 1.5-1.5 1.5s-1.5-.671875-1.5-1.5.671875-1.5 1.5-1.5 1.5.671875 1.5 1.5" fill="#ffa726"/><path d="m19 14.5c0 .828125-.671875 1.5-1.5 1.5s-1.5-.671875-1.5-1.5.671875-1.5 1.5-1.5 1.5.671875 1.5 1.5" fill="#ffa726"/><path d="m36 29s-3.320312-7-12-7c-8.679687 0-12 7-12 7-2 3-4 10.34375-4 12s1.34375 3 3 3h25c1.65625 0 3-1.34375 3-3s-1-7-3-12z" fill="#558b2f"/><path d="m27.949219 22.53125-.828125 2.074219-17.007813 19.246094c.28125.085937.574219.148437.886719.148437h17l2.265625-20.566406c-1.03125-.574219-2.316406-.902344-2.316406-.902344z" fill="#bbdefb"/><path d="m8 41c0 1.65625 1.34375 3 3 3h17l-7.976562-21.648437c-9.910157 1.992187-12.023438 16.929687-12.023438 18.648437z" fill="#bbdefb"/><path d="m27.921875 38-3.71875-10.089844-1.503906 1.699219 5.300781 14.390625-2.210937-6z" fill="#64b5f6"/><path d="m24 26c-4 0-4-4-4-4v-4h8v4s0 4-4 4z" fill="#ff9800"/><path d="m29 38h-3.210937l2.210937 6h1c1.65625 0 3-1.34375 3-3s-1.34375-3-3-3z" fill="#ffb74d"/><path d="m31 10.679688c0-5.878907-14-3.828125-14 0v4.390625c0 3.824218 3.132813 6.929687 7 6.929687 3.867188 0 7-3.105469 7-6.929687z" fill="#ffb74d"/><path d="m24 3c-4.859375 0-8 4.3125-8 8.171875v1.828125l2 2v-4l9.199219-3 2.800781 3v4l2-2v-.808594c0-3.21875-.828125-6.804687-4.800781-7.59375l-.800781-1.597656z" fill="#424242"/><g fill="#784719"><path d="m26 14c0 .550781.449219 1 1 1s1-.449219 1-1-.449219-1-1-1-1 .449219-1 1"/><path d="m20 14c0 .550781.449219 1 1 1s1-.449219 1-1-.449219-1-1-1-1 .449219-1 1"/></g></svg>