<svg fill="#666" height="50" viewBox="0 0 48 48" width="50" xmlns="http://www.w3.org/2000/svg"><path d="m42.199219 22.101563-16.300781-16.300782c-.5-.5-1.199219-.800781-1.898438-.800781s-1.398437.300781-1.898437.800781l-3.5 3.5 4.097656 4.097657c.402344-.199219.800781-.296875 1.300781-.296875 1.699219 0 3 1.296875 3 3 0 .5-.101562.898437-.300781 1.296875l4 4c.402344-.199219.800781-.296875 1.300781-.296875 1.699219 0 3 1.296875 3 3 0 1.699218-1.300781 3-3 3s-3-1.300782-3-3c0-.5.101563-.902344.300781-1.300782l-4-4c-.101562 0-.199218.097657-.300781.097657v10.402343c1.199219.398438 2 1.5 2 2.800782 0 1.699218-1.300781 3-3 3s-3-1.300782-3-3c0-1.300782.800781-2.402344 2-2.800782v-10.5c-1.199219-.402343-2-1.5-2-2.800781 0-.5.101563-.898437.300781-1.300781l-4.101562-4.097656-11.398438 11.5c-.5.5-.800781 1.199218-.800781 1.898437s.300781 1.398438.800781 1.898438l16.300782 16.300781c.5.5 1.199218.800781 1.898437.800781s1.398438-.300781 1.898438-.800781l16.300781-16.300781c.5-.5.800781-1.199219.800781-1.898438s-.300781-1.398437-.800781-1.898437z" fill="#f4511e"/></svg>