<svg fill="#666" height="50" viewBox="0 0 48 48" width="50" xmlns="http://www.w3.org/2000/svg"><path d="m7.898438 42s-6.5-6.300781 0-14c4.703125 5.800781 0 14 0 14z" fill="#263238"/><path d="m3 39s-.800781-9.398437 5-13c2.398438 10.101563-5 13-5 13z" fill="#37474f"/><path d="m24 3c-8.800781 0-16 7.199219-16 16v8c0 8.800781 7.199219 18 16 18s16-9.199219 16-18v-8c0-8.800781-7.199219-16-16-16z" fill="#455a64"/><path d="m39.898438 28.601563c-.199219 2.398437-1 4.699218-2.097657 6.898437-.402343.199219-.699218.5-1.101562.699219-.300781.199219-.597656.402344-.898438.5l-1 .402344c-.601562.296875-1.300781.5-2 .796875-.601562.203125-1.300781.402343-1.902343.5-.597657.203125-1.296875.203125-1.796875.300781-.601563.101562-1.101563.101562-1.703125.199219-.5 0-1 .101562-1.398438 0-.398437 0-.800781 0-1.101562 0-.597657 0-.898438 0-.898438 0s.300781 0 .898438-.097657c.300781 0 .601562-.101562 1-.199218.402343 0 .800781-.203125 1.300781-.300782.5-.101562 1-.199218 1.5-.402343.5-.199219 1.101562-.398438 1.699219-.597657.601562-.300781 1.101562-.5 1.703125-.800781.5-.300781 1.097656-.601562 1.597656-1l.800781-.601562c.300781-.199219.5-.398438.699219-.597657.5-.402343.902344-.800781 1.300781-1.199218.800781-.902344 1.5-1.703125 2.101563-2.5.699218-.800782 1.097656-1.5 1.296875-2zm-31.796875-8.300782c.199218-.5.597656-1.101562 1.199218-1.902343.5-.796875 1.199219-1.597657 2.097657-2.5.402343-.398438.902343-.898438 1.300781-1.199219.199219-.199219.5-.398438.699219-.597656l.800781-.601563c.5-.398437 1.101562-.699219 1.601562-1s1.097657-.601562 1.699219-.800781c.601563-.300781 1.101563-.398438 1.699219-.597656.5-.203125 1.101562-.300782 1.5-.402344.5-.097656.902344-.300781 1.300781-.300781.398438-.097657.800781-.097657 1-.199219.699219-.199219 1-.199219 1-.199219s-.300781 0-.898437 0c-.300782 0-.703125 0-1.101563 0-.398437 0-.898437 0-1.398437 0s-1.101563 0-1.703125.199219c-.597657.101562-1.199219.199219-1.796875.300781-.601563.199219-1.300782.300781-1.902344.5-.597656.199219-1.300781.398438-2 .800781l-1 .398438c-.300781.199219-.597656.300781-.898438.5-.601562.300781-1.199218.699219-1.800781 1.101562-.300781.199219-.5.398438-.800781.699219-.5 1.398438-.699219 2.898438-.699219 4.5v1.398438s0-.097657.101563-.097657z" fill="#263238"/><path d="m32 28c1.898438 0 5-.101562 5-4 0-7.199219-9.5-7-13-7s-13-.199219-13 7c0 3.898438 3.101563 4 5 4 1.300781 0 5.199219-2 8-2s6.699219 2 8 2z" fill="#ffb74d"/><path d="m33 20.101563v2.296875c0 1.402343-1.199219 2.601562-2.601562 2.601562-1.097657 0-2.097657-.699219-2.398438-1.699219zm-18 0v2.296875c0 1.402343 1.199219 2.601562 2.601563 2.601562 1.097656 0 2.097656-.699219 2.398437-1.699219z" fill="#784719"/></svg>