<svg fill="#666" height="50" viewBox="0 0 48 48" width="50" xmlns="http://www.w3.org/2000/svg"><path d="m6 6h11v36h-11z" fill="#2e7d32"/><path d="m31 6h11v36h-11z" fill="#1565c0"/><path d="m19 11h10v31h-10z" fill="#ffc107"/><g fill="#7cb342"><path d="m6 12h11v2h-11z"/><path d="m6 34h11v2h-11z"/><path d="m10 17h3v14h-3z"/></g><g fill="#64b5f6"><path d="m31 12h11v2h-11z"/><path d="m31 34h11v2h-11z"/><path d="m35 17h3v14h-3z"/></g><path d="m19 15h10v2h-10z" fill="#ff8f00"/><path d="m19 36h10v2h-10z" fill="#ff8f00"/><path d="m23 20h2v13h-2z" fill="#ff8f00"/></svg>