<svg fill="#666" height="50" viewBox="0 0 48 48" width="50" xmlns="http://www.w3.org/2000/svg"><path d="m40 7h-32c-2.199219 0-4 1.800781-4 4v26c0 2.199219 1.800781 4 4 4h5v-1.300781c-.601562-.300781-1-1-1-1.699219 0-1.101562.898438-2 2-2 1.101563 0 2 .898438 2 2 0 .699219-.398437 1.398438-1 1.699219v1.300781h18v-1.300781c-.601562-.300781-1-1-1-1.699219 0-1.101562.898438-2 2-2 1.101563 0 2 .898438 2 2 0 .699219-.398437 1.398438-1 1.699219v1.300781h5c2.199219 0 4-1.800781 4-4v-26c0-2.199219-1.800781-4-4-4z" fill="#673ab7"/><g fill="#d1c4e9"><path d="m28 18c0 2.210938-1.789062 4-4 4-2.210937 0-4-1.789062-4-4 0-2.210937 1.789063-4 4-4 2.210938 0 4 1.789063 4 4z"/><path d="m31 28s-1.898437-4-7-4c-5.101562 0-7 4-7 4v2h14z"/></g></svg>