<svg fill="#666" height="50" viewBox="0 0 48 48" width="50" xmlns="http://www.w3.org/2000/svg"><path d="m18.2 41c-2.1 0-4.4-.7-6.8-2.6-2.6-2-4-4.4-4.4-7.1-.6-4.5 2.3-8.3 2.4-8.4l12-15.2c.7-.9 1.9-1 2.8-.3s1 1.9.3 2.8l-11.8 15.2c-.4.6-4.2 5.7 1.2 9.9s9.5-.7 10-1.3l14.3-18.3c.6-.8 2.2-3.4-.7-5.7-3.1-2.4-5.5.4-5.8.7l-14.2 18.3c-.6.8-.1 1.3.2 1.5.2.2.8.6 1.5-.2l12.7-16.4c.7-.9 1.9-1 2.8-.4.9.7 1 1.9.4 2.8l-12.8 16.5c-1.2 1.6-4.2 3.1-7.1.9-1.6-1.2-2.3-2.9-1.9-4.8.2-1.2.9-2.1 1-2.3l14.2-18.4c2-2.6 6.7-5 11.4-1.4 2.6 2 3.6 4.7 3.1 7.6-.4 2.1-1.5 3.5-1.6 3.7l-14.4 18.4c-1.5 2-4.8 4.5-8.8 4.5z" fill="#3f51b5"/></svg>