<svg fill="#666" height="50" viewBox="0 0 48 48" width="50" xmlns="http://www.w3.org/2000/svg"><path d="m4 26h40v-7c0-2.210937-1.789062-4-4-4h-32c-2.210937 0-4 1.789063-4 4z" fill="#616161"/><path d="m9 12h30v3h-30z" fill="#424242"/><path d="m8 37h32c2.210938 0 4-1.789062 4-4v-8h-40v8c0 2.210938 1.789063 4 4 4" fill="#424242"/><path d="m39 19c0 .550781.449219 1 1 1s1-.449219 1-1-.449219-1-1-1-1 .449219-1 1" fill="#00e676"/><path d="m37.5 32h-27c-.828125 0-1.5-.671875-1.5-1.5s.671875-1.5 1.5-1.5h27c.828125 0 1.5.671875 1.5 1.5s-.671875 1.5-1.5 1.5" fill="#242424"/><path d="m11 5h26v10h-26z" fill="#90caf9"/><path d="m11 32h26v11h-26z" fill="#90caf9"/><path d="m11 30h26v2h-26z" fill="#42a5f5"/><g fill="#1976d2"><path d="m16 34h17v2h-17z"/><path d="m16 38h13v2h-13z"/></g></svg>