<svg fill="#666" height="50" viewBox="0 0 48 48" width="50" xmlns="http://www.w3.org/2000/svg"><path d="m25 14c-2.2 0-4-1.8-4-4s1.8-4 4-4 4 1.8 4 4-1.8 4-4 4" fill="#ffb74d"/><g fill="#2196f3"><path d="m20 42c-1 0-1.9-.7-2-1.8l-.9-7.4-4.1-3.8c-.7-.9-.1-2.9.8-3.6s2.1-.6 2.8.3l4.4 5.4 1.1 8.6c.1 1.1-.6 2.1-1.7 2.2-.2.1-.3.1-.4.1z"/><path d="m26 30c-.8 0-1.6-.5-1.9-1.4l-3.4-10.5c-.3-1 .2-2.2 1.3-2.5s2.2.2 2.5 1.3l3.4 10.5c.3 1-.2 2.2-1.3 2.5-.2.1-.4.1-.6.1z"/><path d="m23.3 15.3-2.4-1.8c-1.1-.8-2.7-.6-3.5.5l-6.9 9c-.4.4-.5.8-.6 1l-3.8 15.4c-.3 1.1.3 2.2 1.4 2.5.1.1.3.1.5.1.9 0 1.7-.6 1.9-1.4l3.8-12.3h-.2c1.1.8 2.7.6 3.5-.5l6.9-9c.8-1.2.5-2.7-.6-3.5z"/><path d="m8 22c-.4 0-.9-.1-1.2-.4-.9-.7-1-1.9-.3-2.8l4.5-5.8h8c1.1 0 2 .9 2 2s-.9 2-2 2h-6l-3.4 4.2c-.4.5-1 .8-1.6.8z"/></g><path d="m33.4 32.3-23.2-11.9-.7.8c-.1.2-.3.3-.5.4l23.5 12.1c.1.1.2.1.4.1.3 0 .6-.2.7-.4.3-.4.2-.9-.2-1.1z" fill="#795548"/><path d="m24 42h18s-5-10.6-5.5-11.8c-.6-1.3-1.3-2.1-1.9-2.1-.7 0-1.1.4-3.2 3.8-.9 1.5-1.7 2.5-2.6 2.5-.8 0-1.4.2-1.7.8-.3 1-3.1 6.8-3.1 6.8z" fill="#455a64"/></svg>