<svg fill="#666" height="50" viewBox="0 0 48 48" width="50" xmlns="http://www.w3.org/2000/svg"><path d="m30.800781 18.199219c-2.402343.699219-3.601562 3.402344-2.101562 5.402344-.898438.5-2.097656 1.597656-3.199219 3.296875-.101562-4.398438.300781-8.699219 1.300781-11.796875 1.398438 1.398437 3.097657 1.199218 4.597657-.101563 2.703125-2.398437.300781-8.101562 1.5-9.898437-1.398438 0-6.898438.5-9.199219 3.296875-1.5 1.902343-.898438 4.601562 1.601562 5.101562-1.402343 3.398438-1.902343 8.300781-1.902343 13.101563-.796875-1.203125-1.898438-2.402344-3.296875-3.300782 2.796875-2.199218 2-5.699218-.902344-7.199218-4.300781-2.402344-11.398438.199218-13.199219.898437 2.601563 1.601563 2.398438 10 7.199219 11.601563 3.101562 1 5.5 0 6.101562-3.703125 4 2.902343 4.699219 8.101562 4.800782 8.203125.097656.5.5.898437 1 .898437h.097656c.5-.101562.902344-.5.902344-1 0-3.898437 1.796875-6.101562 3.097656-7.101562.101562 2.5 1.800781 3.5 4.199219 3.300781 3.902343-.5 5.402343-7.097656 7.703125-8-1.300782-1-6.5-4-10.300782-3z" fill="#8bc34a"/><path d="m13.199219 28.601563c-4.800781-1.601563-4.597656-10-7.199219-11.601563 2.300781.199219 5.800781 2.101563 13.398438 6.800781-.296875 4.597657-2.796875 5.898438-6.199219 4.800782zm20.101562.398437c3.898438-.5 5.398438-7.101562 7.699219-8-1.800781-.199219-5.199219.699219-11.800781 3.101563-.597656 3.699218 1.300781 5.199218 4.101562 4.898437zm-1.800781-14.101562c3.101563-3 .300781-8.097657 1.5-9.898438-1.5.800781-3.601562 3.199219-7.199219 8.5 1.5 3 3.699219 3.101563 5.699219 1.398438z" fill="#689f38"/><path d="m9 42h31.601563c.796875-.699219 1.398437-1.800781 1.398437-3 0-2.199219-1.800781-4-4-4-.398437 0-.800781.101563-1.199219.199219-.601562-1.898438-2.300781-3.199219-4.300781-3.199219-1.300781 0-2.5.601563-3.300781 1.398438-1.097656-.898438-2.597656-1.398438-4.199219-1.398438-2.101562 0-4 .898438-5.300781 2.398438-.5-.199219-1.097656-.398438-1.699219-.398438-1.101562 0-2 .398438-2.699219 1.101563-.601562-.703125-1.402343-1.101563-2.300781-1.101563-1.398437 0-2.5.898438-2.898437 2.199219-.300782-.097656-.703125-.199219-1.101563-.199219-1.699219 0-3 1.300781-3 3s1.300781 3 3 3z" fill="#795548"/><path d="m38 40c0-1.699219-1.300781-3-3-3-1.5 0-2.699219 1.101563-2.898437 2.398438-.800782-.796875-1.902344-1.398438-3.101563-1.398438-1.300781 0-2.5.699219-3.199219 1.699219-.5-1.597656-2-2.699219-3.800781-2.699219-1.101562 0-2 .398438-2.699219 1.101563-.601562-.703125-1.402343-1.101563-2.300781-1.101563-1.398437 0-2.5.898438-2.898437 2.199219-.300782-.097656-.703125-.199219-1.101563-.199219-1.898437 0-3.398437 1.300781-3.898437 3h30.898437c-.199219-1-1-1.800781-2-2z" fill="#8d6e63"/></svg>