<svg fill="#666" height="50" viewBox="0 0 48 48" width="50" xmlns="http://www.w3.org/2000/svg"><path d="m32 42h-16c-5.5 0-10-4.5-10-10v-16c0-5.5 4.5-10 10-10h16c5.5 0 10 4.5 10 10v16c0 5.5-4.5 10-10 10z" fill="#304ffe"/><path d="m6 16v16c0 5.5 4.5 10 10 10h16c5.5 0 10-4.5 10-10v-16c0-1-.1-1.9-.4-2.8-5.6-4.5-12.8-7.2-20.6-7.2-3.7 0-7.3.6-10.7 1.8-2.6 1.8-4.3 4.8-4.3 8.2z" fill="#304ffe" fill-opacity=".29"/><path d="m21 8c-5 0-9.6 1.2-13.8 3.2-.8 1.5-1.2 3.1-1.2 4.8v16c0 5.5 4.5 10 10 10h16c5.5 0 10-4.5 10-10v-15.8c-5.5-5.1-12.9-8.2-21-8.2z" fill="#6200ea"/><path d="m42 19c-5.3-5.5-12.7-9-21-9-5.4 0-10.5 1.5-14.8 4.1-.1.6-.2 1.2-.2 1.9v16c0 5.5 4.5 10 10 10h16c5.5 0 10-4.5 10-10z" fill="#673ab7"/><path d="m42 22c-4.9-6.1-12.5-10-21-10-5.6 0-10.7 1.7-15 4.6v15.4c0 5.5 4.5 10 10 10h16c5.5 0 10-4.5 10-10z" fill="#8e24aa"/><path d="m42 32v-6.6c-4.5-6.8-12.2-11.4-21-11.4-5.6 0-10.8 1.9-15 5v13c0 5.5 4.5 10 10 10h16c5.5 0 10-4.5 10-10z" fill="#c2185b"/><path d="m42 32v-2.4c-3.6-8-11.6-13.6-21-13.6-5.7 0-11 2.1-15 5.6v10.4c0 5.5 4.5 10 10 10h16c5.5 0 10-4.5 10-10z" fill="#d81b60"/><path d="m41.6 34.8c-1.9-9.6-10.4-16.8-20.6-16.8-5.9 0-11.2 2.4-15 6.3v7.7c0 5.5 4.5 10 10 10h16c4.5 0 8.4-3 9.6-7.2z" fill="#f50057"/><path d="m39.9 38c-.5-10-8.7-18-18.9-18-6.1 0-11.5 2.9-15 7.4v4.6c0 5.5 4.5 10 10 10h16c3.2 0 6.1-1.6 7.9-4z" fill="#ff1744"/><path d="m21 22c-6.5 0-12.1 3.6-15 9v1c0 5.5 4.5 10 10 10h16c2.2 0 4.3-.7 5.9-2 0-.3.1-.7.1-1 0-9.4-7.6-17-17-17z" fill="#ff5722"/><path d="m21 24c-7 0-12.8 4.7-14.5 11.2 1.3 4 5.1 6.8 9.5 6.8h16c1.4 0 2.6-.3 3.8-.8.1-.7.2-1.5.2-2.2 0-8.3-6.7-15-15-15z" fill="#ff6f00"/><path d="m21 26c-6.9 0-12.5 5.3-12.9 12 1.8 2.4 4.7 4 7.9 4h16c.6 0 1.1-.1 1.7-.2.2-.9.3-1.8.3-2.8 0-7.2-5.8-13-13-13z" fill="#ff9800"/><path d="m31.6 42c.3-1 .4-2 .4-3 0-6.1-4.9-11-11-11s-11 4.9-11 11c0 .3 0 .7.1 1 1.7 1.2 3.7 2 5.9 2z" fill="#ffc107"/><path d="m21 30c-5 0-9 4-9 9 0 .8.1 1.6.3 2.3 1.1.5 2.4.7 3.7.7h13.5c.3-.9.5-1.9.5-3 0-5-4-9-9-9z" fill="#ffd54f"/><path d="m21 32.1c-3.9 0-7 3.1-7 7 0 1 .2 1.9.6 2.8.5.1.9.1 1.4.1h11.4c.4-.9.6-1.9.6-2.9 0-3.9-3.1-7-7-7z" fill="#ffe082"/><path d="m21 34.1c-2.8 0-5 2.2-5 5 0 1.1.4 2.1 1 2.9h8c.6-.8 1-1.8 1-2.9 0-2.8-2.2-5-5-5z" fill="#ffecb3"/><g fill="#fff"><path d="m30 38h-12c-4.4 0-8-3.6-8-8v-12c0-4.4 3.6-8 8-8h12c4.4 0 8 3.6 8 8v12c0 4.4-3.6 8-8 8zm-12-26c-3.3 0-6 2.7-6 6v12c0 3.3 2.7 6 6 6h12c3.3 0 6-2.7 6-6v-12c0-3.3-2.7-6-6-6z"/><path d="m24 31c-3.9 0-7-3.1-7-7s3.1-7 7-7 7 3.1 7 7-3.1 7-7 7zm0-12c-2.8 0-5 2.2-5 5s2.2 5 5 5 5-2.2 5-5-2.2-5-5-5z"/><path d="m32 16c0 .6-.4 1-1 1s-1-.4-1-1 .4-1 1-1 1 .4 1 1z"/></g></svg>