<svg fill="#666" height="50" viewBox="0 0 48 48" width="50" xmlns="http://www.w3.org/2000/svg"><g fill="#03a9f4"><circle cx="24" cy="24" r="20"/><circle cx="33.5" cy="33.5" r="11.5"/><circle cx="14.5" cy="14.5" r="11.5"/></g><path d="m24.602 36c-6.602 0-9.602-3.301-9.602-5.801 0-1.301.898-2.199 2.199-2.199 2.801 0 2.102 4.102 7.402 4.102 2.699 0 4.199-1.5 4.199-3 0-.902-.402-1.902-2.199-2.402l-5.902-1.5c-4.699-1.2-5.597-3.802-5.597-6.302 0-5.098 4.699-6.898 9.098-6.898 4.101 0 8.8 2.199 8.8 5.199 0 1.301-1 2.102-2.301 2.102-2.398 0-2-3.402-6.801-3.402-2.398 0-3.797 1.102-3.797 2.703 0 1.598 1.898 2.098 3.598 2.5l4.402 1c4.797 1.097 5.899 3.898 5.899 6.597-.102 4.199-3.102 7.301-9.398 7.301z" fill="#fff"/></svg>