<svg fill="#666" height="50" viewBox="0 0 48 48" width="50" xmlns="http://www.w3.org/2000/svg"><path d="m40 45h-32v-42h22l10 10z" fill="#90caf9"/><path d="m38.5 14h-9.5v-9.5z" fill="#e1f5fe"/><g fill="#1976d2"><path d="m18 23h16v2h-16z"/><path d="m18 19h16v2h-16z"/><path d="m14 19h2v2h-2z"/><path d="m14 23h2v2h-2z"/><path d="m14 35h2v2h-2z"/><path d="m14 27h2v2h-2z"/><path d="m14 31h2v2h-2z"/><path d="m34 27v1.26c-.65-.17-1.32-.26-2-.26-1.4 0-2.71.36-3.86 1h-10.14v-2z"/><path d="m24.08 37h-6.08v-2h6.06c-.04.33-.06.66-.06 1s.02.67.08 1z"/><path d="m25.77 31c-.49.6-.89 1.27-1.18 2h-6.59v-2z"/></g><path d="m42 30c-2.1 0-3.9 1.1-5 2.7-1.1-1.6-2.9-2.7-5-2.7-3.3 0-6 2.7-6 6 0 6 11 12 11 12s11-6 11-12c0-3.3-2.7-6-6-6" fill="#ff3d00"/></svg>