<svg fill="#666" height="50" viewBox="0 0 48 48" width="50" xmlns="http://www.w3.org/2000/svg"><path d="m21 31c0 3.3-2.8 6-7.5 6h-.9c-4.7 0-6.6-2.7-6.6-6s.4-6 7-6h1c6.6 0 7 2.7 7 6z" fill="#bbdefb"/><path d="m42 31c0 3.3-2.8 6-7.5 6h-.9c-4.7 0-6.6-2.7-6.6-6s.4-6 7-6h1c6.6 0 7 2.7 7 6z" fill="#bbdefb"/><path d="m43.8 27.7-10.6-14.8s-.8-1-1.7-.9c-.8.1-1.8 1.1-2.6 2.7l-.4.9-1.8-.9.4-.9c1.2-2.4 2.6-3.7 4.2-3.8 2.1-.2 3.4 1.6 3.5 1.7l10.6 14.8z" fill="#00838f"/><path d="m4.2 27.7-1.6-1.2 10.6-14.8c.1-.1 1.4-1.9 3.5-1.7 1.6.1 3 1.4 4.2 3.8l.4.9-1.8.9-.4-.9c-.8-1.7-1.8-2.7-2.6-2.7-.9-.1-1.7.9-1.7.9z" fill="#00838f"/><g fill="#0097a7"><path d="m13.5 38h-.9c-4.8 0-7.6-2.6-7.6-7 0-3.5.6-7 8-7h1c7.4 0 8 3.5 8 7 0 4.1-3.5 7-8.5 7zm-.5-12c-6 0-6 2.2-6 5 0 2.3 1 5 5.6 5h.9c3.8 0 6.5-2.1 6.5-5 0-2.8 0-5-6-5z"/><path d="m34.5 38h-.9c-4.7 0-7.6-2.6-7.6-7 0-3.5.6-7 8-7h1c7.4 0 8 3.5 8 7 0 4.1-3.5 7-8.5 7zm-.5-12c-6 0-6 2.2-6 5 0 2.3 1 5 5.6 5h.9c3.8 0 6.5-2.1 6.5-5 0-2.8 0-5-6-5z"/><path d="m4 28.4-1.4-1.4.4-1c.2-.2 2.8-2 10-2 6 0 7.3.6 9.3 1.6l.2.1c1.4.7 3.2 0 3.2 0l.9-.4.8 1.9-.9.4c-.1 0-2.7 1-4.8 0l-.2-.1c-1.9-1-2.9-1.5-8.5-1.5-6.3 0-8.3 1.7-8.3 1.7z"/><path d="m44 28.4-.7-.7c-.1-.1-2.1-1.7-8.3-1.7-4.7 0-6.6.5-8.6 1.5-2.2 1.1-4.7.1-4.8 0l-.9-.4.8-1.9.9.4s1.8.7 3.2 0c2.2-1.1 4.4-1.7 9.4-1.7 7.2 0 9.8 1.8 10 2l.4 1z"/><path d="m21.6 29.7-.9-1.8.9-.4c2.2-1.1 4.7-.1 4.8 0l.9.4-.8 1.9-.9-.4s-1.8-.7-3.2 0z"/><path d="m26.4 29.7-.9-.4c-1.3-.7-3.2 0-3.2 0l-.9.4-.8-1.9.9-.4c.1 0 2.7-1.1 4.8 0l.9.4z"/><path d="m42 27c0-.6.4-1 1-1h2c.6 0 1 .4 1 1v1c0 .6-.4 1-1 1 0 0-2 0-2 1s-1-1.4-1-2z"/><path d="m6 27c0-.6-.4-1-1-1h-2c-.6 0-1 .4-1 1v1c0 .6.4 1 1 1 0 0 2 0 2 1s1-1.4 1-2z"/></g><g fill="#fff"><path d="m10 32c-.6 0-1-.4-1-1 0-1 .8-3 4-3 .6 0 1 .4 1 1s-.4 1-1 1c-1.8 0-2 .9-2 1 0 .6-.5 1-1 1z"/><path d="m31 32c-.6 0-1-.4-1-1 0-1 .8-3 4-3 .6 0 1 .4 1 1s-.4 1-1 1c-1.8 0-2 .9-2 1 0 .6-.5 1-1 1z"/></g></svg>