<svg fill="#666" height="50" viewBox="0 0 48 48" width="50" xmlns="http://www.w3.org/2000/svg"><path d="m40 12h-18l-4-4h-10c-2.199219 0-4 1.800781-4 4v8h40v-4c0-2.199219-1.800781-4-4-4z" fill="#ffa000"/><path d="m40 12h-32c-2.199219 0-4 1.800781-4 4v20c0 2.199219 1.800781 4 4 4h32c2.199219 0 4-1.800781 4-4v-20c0-2.199219-1.800781-4-4-4z" fill="#ffca28"/><path d="m28.5 19c-1.898437 0-3.601562 1-4.5 2.398438-1-1.398438-2.601562-2.398438-4.5-2.398438-3 0-5.5 2.398438-5.5 5.5 0 5.398438 10 10.898438 10 10.898438s10-5.398438 10-10.898438c0-3.101562-2.398437-5.5-5.5-5.5z" fill="#f44336"/></svg>