<svg fill="#666" height="50" viewBox="0 0 48 48" width="50" xmlns="http://www.w3.org/2000/svg"><path d="m4.867188 43.304688 2.695312-9.835938c-1.664062-2.878906-2.535156-6.144531-2.535156-9.488281.003906-10.464844 8.519531-18.980469 18.988281-18.980469 5.078125.003906 9.84375 1.980469 13.429688 5.566406 3.582031 3.585938 5.558593 8.355469 5.554687 13.425782-.003906 10.46875-8.523437 18.980468-18.984375 18.980468-.003906 0 0 0 0 0h-.007812c-3.179688 0-6.300782-.796875-9.074219-2.308593z" fill="#fff"/><path d="m4.867188 43.804688c-.132813 0-.257813-.054688-.355469-.148438-.125-.128906-.171875-.3125-.125-.484375l2.636719-9.636719c-1.632813-2.90625-2.496094-6.207031-2.496094-9.554687.003906-10.742188 8.746094-19.480469 19.488281-19.480469 5.207031.003906 10.101563 2.03125 13.78125 5.714844 3.679688 3.679687 5.707031 8.574219 5.703125 13.777344-.003906 10.742187-8.746094 19.480468-19.484375 19.480468-3.191406 0-6.34375-.785156-9.144531-2.277343l-9.875 2.589843c-.042969.011719-.085938.019532-.128906.019532z" fill="#fff"/><path d="m24.015625 5c5.078125.003906 9.84375 1.980469 13.429688 5.566406 3.582031 3.585938 5.558593 8.355469 5.554687 13.425782-.003906 10.46875-8.523437 18.980468-18.984375 18.980468h-.007812c-3.179688 0-6.300782-.796875-9.074219-2.308593l-10.066406 2.640625 2.695312-9.835938c-1.664062-2.878906-2.535156-6.144531-2.535156-9.488281.003906-10.464844 8.519531-18.980469 18.988281-18.980469m0-1c-11.019531 0-19.984375 8.960938-19.988281 19.980469 0 3.367187.847656 6.683594 2.460937 9.621094l-2.585937 9.4375c-.09375.347656.003906.714843.253906.96875.191406.191406.449219.296875.710938.296875.085937 0 .171875-.011719.253906-.035157l9.6875-2.539062c2.828125 1.46875 6 2.242187 9.199219 2.246094 11.023437 0 19.988281-8.964844 19.992187-19.980469.003906-5.339844-2.074219-10.359375-5.847656-14.136719-3.773438-3.777344-8.796875-5.855469-14.136719-5.859375z" fill="#cfd8dc"/><path d="m35.175781 12.832031c-2.980468-2.980468-6.941406-4.625-11.15625-4.625-8.703125 0-15.785156 7.074219-15.789062 15.773438 0 2.980469.835937 5.882812 2.414062 8.394531l.375.597656-1.59375 5.820313 5.972657-1.566406.578125.34375c2.421875 1.4375 5.199218 2.199218 8.03125 2.199218h.007812c8.695313 0 15.773438-7.078125 15.777344-15.777343.003906-4.214844-1.636719-8.179688-4.617188-11.160157z" fill="#40c351"/><path d="m19.269531 16.046875c-.355468-.792969-.730468-.808594-1.070312-.820312-.277344-.011719-.59375-.011719-.910156-.011719-.3125 0-.828125.117187-1.261719.59375-.4375.472656-1.664063 1.621094-1.664063 3.957031 0 2.332031 1.703125 4.589844 1.9375 4.90625.238282.3125 3.285157 5.257813 8.105469 7.160156 4.007813 1.578125 4.824219 1.265625 5.691406 1.1875.871094-.082031 2.808594-1.148437 3.203125-2.257812.394532-1.105469.394532-2.054688.277344-2.253906-.117187-.199219-.433594-.316407-.910156-.554688-.472656-.238281-2.804688-1.382812-3.242188-1.542969-.433593-.15625-.75-.234375-1.066406.238282-.316406.472656-1.226562 1.542968-1.503906 1.859375-.277344.316406-.550781.355468-1.027344.121093-.472656-.238281-2-.738281-3.8125-2.355468-1.410156-1.257813-2.363281-2.808594-2.640625-3.285157-.277344-.472656-.03125-.730468.207031-.96875.214844-.210937.476563-.554687.714844-.832031.234375-.277344.3125-.472656.472656-.789062.15625-.316407.078125-.59375-.039062-.832032-.117188-.238281-1.039063-2.582031-1.460938-3.519531z" fill="#fff" fill-rule="evenodd"/></svg>