<svg fill="#666" height="50" viewBox="0 0 48 48" width="50" xmlns="http://www.w3.org/2000/svg"><path d="m36 4h-10c0 1.101563-.898437 2-2 2-1.101562 0-2-.898437-2-2h-10c-2.199219 0-4 1.800781-4 4v32c0 2.199219 1.800781 4 4 4h24c2.199219 0 4-1.800781 4-4v-32c0-2.199219-1.800781-4-4-4z" fill="#455a64"/><path d="m36 41h-24c-.601562 0-1-.398437-1-1v-32c0-.601562.398438-1 1-1h24c.601563 0 1 .398438 1 1v32c0 .601563-.398437 1-1 1z" fill="#fff"/><path d="m26 4c0 1.101563-.898437 2-2 2-1.101562 0-2-.898437-2-2h-7v4c0 1.101563.898438 2 2 2h14c1.101563 0 2-.898437 2-2v-4z" fill="#90a4ae"/><path d="m24 0c-2.199219 0-4 1.800781-4 4s1.800781 4 4 4 4-1.800781 4-4-1.800781-4-4-4zm0 6c-1.101562 0-2-.898437-2-2 0-1.101562.898438-2 2-2 1.101563 0 2 .898438 2 2 0 1.101563-.898437 2-2 2z" fill="#90a4ae"/><path d="m30.601563 18.601563-9 9-4.203125-4.300782-2.5 2.5 6.800781 6.699219 11.402344-11.398437z" fill="#4caf50"/></svg>