<svg fill="#666" height="50" viewBox="0 0 48 48" width="50" xmlns="http://www.w3.org/2000/svg"><path d="m40 45h-32v-42h22l10 10z" fill="#4db6ac"/><path d="m38.5 14h-9.5v-9.5z" fill="#e0f2f1"/><g fill="#00695c"><path d="m19.933594 29.683594c-.050781 1.136719-.371094 1.996094-.957031 2.578125-.589844.582031-1.417969.875-2.488282.875-1.125 0-1.988281-.371094-2.589843-1.109375-.597657-.742188-.898438-1.796875-.898438-3.171875v-1.671875c0-1.367188.308594-2.421875.929688-3.164063.621093-.738281 1.480468-1.109375 2.585937-1.109375 1.082031 0 1.90625.304688 2.46875.910157.5625.605468.882813 1.476562.960938 2.609375h-2.015625c-.019532-.703125-.128907-1.1875-.328125-1.453125-.195313-.265625-.5625-.398438-1.089844-.398438-.535156 0-.917969.1875-1.140625.5625-.222656.378906-.34375.996094-.355469 1.855469v1.882812c0 .988282.109375 1.667969.332031 2.035157.222657.367187.601563.554687 1.136719.554687.53125 0 .894531-.128906 1.09375-.386719.203125-.257812.316406-.722656.34375-1.398437z"/><path d="m25.371094 30.390625c0-.40625-.101563-.714844-.308594-.921875s-.585937-.421875-1.132812-.644531c-.996094-.378906-1.714844-.820313-2.152344-1.332031-.4375-.507813-.65625-1.105469-.65625-1.800782 0-.835937.296875-1.511718.890625-2.019531.597656-.507812 1.351562-.761719 2.265625-.761719.613281 0 1.15625.128907 1.636719.386719.476562.257813.847656.621094 1.101562 1.089844.257813.46875.386719 1.003906.386719 1.601562h-2.003906c0-.464843-.097657-.820312-.296875-1.0625-.199219-.246093-.484375-.367187-.855469-.367187-.351563 0-.625.105469-.820313.3125-.195312.207031-.292968.484375-.292968.835937 0 .273438.105468.523438.328125.742188.21875.222656.605468.449219 1.160156.6875.972656.351562 1.675781.78125 2.113281 1.292969.441406.511718.660156 1.160156.660156 1.949218 0 .863282-.273437 1.542969-.824218 2.027344-.554688.488281-1.304688.730469-2.25.730469-.644532 0-1.226563-.128906-1.757813-.394531-.527344-.265625-.941406-.644532-1.242187-1.136719-.296875-.492188-.445313-1.070313-.445313-1.742188h2.015625c0 .574219.113281.992188.335938 1.25.222656.261719.585937.390625 1.09375.390625.699218 0 1.050781-.371093 1.050781-1.113281z"/><path d="m32.933594 30.390625c0-.40625-.105469-.714844-.3125-.921875s-.582031-.421875-1.128906-.644531c-1-.378906-1.71875-.820313-2.152344-1.332031-.441406-.507813-.65625-1.105469-.65625-1.800782 0-.835937.296875-1.511718.890625-2.019531.59375-.507812 1.351562-.761719 2.265625-.761719.613281 0 1.15625.128907 1.636719.386719.476562.257813.84375.621094 1.101562 1.089844.257813.46875.386719 1.003906.386719 1.601562h-2.003906c0-.464843-.097657-.820312-.296875-1.0625-.199219-.246093-.484375-.367187-.855469-.367187-.351563 0-.625.105469-.820313.3125-.199218.207031-.296875.484375-.296875.835937 0 .273438.109375.523438.328125.742188.21875.222656.605469.449219 1.164063.6875.96875.351562 1.675781.78125 2.113281 1.292969.441406.511718.660156 1.160156.660156 1.949218 0 .863282-.273437 1.542969-.824218 2.027344-.554688.488281-1.304688.730469-2.25.730469-.644532 0-1.230469-.128906-1.757813-.394531s-.941406-.644532-1.242187-1.136719c-.296875-.492188-.445313-1.070313-.445313-1.742188h2.015625c0 .574219.113281.992188.335938 1.25.222656.261719.589843.390625 1.09375.390625.699218 0 1.050781-.371093 1.050781-1.113281z"/></g></svg>