<svg fill="#666" height="50" viewBox="0 0 48 48" width="50" xmlns="http://www.w3.org/2000/svg"><path d="m24 4c-11.053 0-20 8.947-20 20s8.947 20 20 20 20-8.947 20-20-8.947-20-20-20z" fill="#ff3d00"/><path d="m24 8c-8.854 0-16 7.146-16 16s7.146 16 16 16 16-7.146 16-16-7.146-16-16-16zm0 28c-6.656 0-12-5.344-12-12s5.344-12 12-12 12 5.344 12 12-5.344 12-12 12zm0-20c-4.455 0-8 3.545-8 8s3.545 8 8 8 8-3.545 8-8-3.545-8-8-8zm0 12c-2.266 0-4-1.734-4-4s1.734-4 4-4 4 1.734 4 4-1.734 4-4 4z" fill="#fff"/><path d="m43 9s-.602 2.301-2.199 3.801c-1.602 1.598-8 2.398-8 2.398s.801-6.5 2.398-8c1.5-1.597 3.801-2.199 3.801-2.199v4z" fill="#1976d2"/><path d="m42.699 5.301c-.398-.402-1-.402-1.398 0l-18 18c-.402.398-.402 1 0 1.398.199.199.5.301.699.301s.5-.102.699-.301l18-18c.403-.398.403-1 0-1.398z" fill="#37474f"/><path d="m38.977 7.727 1.414 1.414-5.867 5.871-1.414-1.414z" fill="#42a5f5"/></svg>