<svg fill="#666" height="50" viewBox="0 0 48 48" width="50" xmlns="http://www.w3.org/2000/svg"><path d="m42 37c0 2.761719-2.238281 5-5 5h-26c-2.761719 0-5-2.238281-5-5v-26c0-2.761719 2.238281-5 5-5h26c2.761719 0 5 2.238281 5 5z" fill="#0288d1"/><g fill="#fff"><path d="m12 19h5v17h-5z"/><path d="m14.484375 17h-.027344c-1.492187 0-2.457031-1.113281-2.457031-2.5 0-1.421875.996094-2.5 2.515625-2.5s2.457031 1.078125 2.484375 2.5c0 1.386719-.964844 2.5-2.515625 2.5z"/><path d="m36 36h-5v-9.097656c0-2.199219-1.226562-3.699219-3.191406-3.699219-1.5 0-2.3125 1.011719-2.707031 1.988281-.144532.351563-.101563 1.320313-.101563 1.808594v9h-5v-17h5v2.617188c.722656-1.117188 1.851563-2.617188 4.738281-2.617188 3.578125 0 6.261719 2.25 6.261719 7.273438z"/></g></svg>