<svg fill="#666" height="50" viewBox="0 0 48 48" width="50" xmlns="http://www.w3.org/2000/svg"><path d="m45 34c0 2.208-1.791 4-4 4h-34c-2.209 0-4-1.792-4-4v-22c0-2.21 1.791-4 4-4h34c2.209 0 4 1.79 4 4z" fill="#3f51b5"/><path d="m47.99 30.02c-5.09 0-8.99-4-8.99-4v1.3 1.34 17.02 1.12 1.2c9.49-5 8.99-17.98 8.99-17.98z" fill="#43a047"/><path d="m30.005 30.02s-.5 12.98 8.995 17.98v-1.2-1.12-17.02-1.34-1.3s-3.902 4-8.995 4z" fill="#66bb6a"/><path d="m41.15 23.93-2.15-2.21-2.14 2.2c-.1.09-3.17 3.1-6.86 3.1h-2.88l-.11 2.88c-.01.3-.12 3.86 1.05 8.1h3.14c-1.34-4.24-1.2-7.98-1.2-7.98 5.1 0 9-4 9-4s2.45 2.51 6 3.55v-3.17c-2.25-.89-3.83-2.45-3.85-2.47z" fill="#303f9f"/><g fill="#9fa8da"><path d="m20 15h19v4h-19z"/><path d="m9 30h14v2h-14z"/><path d="m25 25h6v2h-6z"/><path d="m17 25h6v2h-6z"/><path d="m9 25h6v2h-6z"/><path d="m16 20c0 .553-.447 1-1 1h-5c-.553 0-1-.447-1-1v-4c0-.553.447-1 1-1h5c.553 0 1 .447 1 1z"/></g></svg>