<svg fill="#666" height="50" viewBox="0 0 48 48" width="50" xmlns="http://www.w3.org/2000/svg"><path d="m43 40c0 .554688-.445312 1-1 1h-36c-.554687 0-1-.445312-1-1v-32c0-.554687.445313-1 1-1h36c.554688 0 1 .445313 1 1z" fill="#bbdefb"/><path d="m16 29h-7v7h7z" fill="#64b5f6"/><g fill="#1976d2"><path d="m9 15h8v2h-8z"/><path d="m9 22h8v2h-8z"/><path d="m19 31h20v2h-20z"/></g><path d="m39 17c0 .550781-.445312 1-1 1h-16c-.550781 0-1-.449219-1-1v-2c0-.550781.449219-1 1-1h16c.554688 0 1 .449219 1 1z" fill="#fff"/><path d="m39 24c0 .550781-.445312 1-1 1h-16c-.550781 0-1-.449219-1-1v-2c0-.550781.449219-1 1-1h16c.554688 0 1 .449219 1 1z" fill="#fff"/><path d="m11 31h3v3h-3z" fill="#fafafa"/></svg>