<svg fill="#666" height="50" viewBox="0 0 48 48" width="50" xmlns="http://www.w3.org/2000/svg"><path d="m42 16c0 .554688-.445312 2-1 2h-34c-.550781 0-1-1.445312-1-2v-9c0-.554687.449219-1 1-1h34c.554688 0 1 .445313 1 1z" fill="#3f51b5"/><path d="m6 14h36v28h-36z" fill="#bbdefb"/><path d="m12 10c0 1.105469-.894531 2-2 2s-2-.894531-2-2 .894531-2 2-2 2 .894531 2 2z" fill="#ffeb3b"/><path d="m18 10c0 1.105469-.894531 2-2 2s-2-.894531-2-2 .894531-2 2-2 2 .894531 2 2z" fill="#8bc34a"/><path d="m40 10c0-.554687-.445312-1-1-1h-17c-.554687 0-1 .445313-1 1 0 .554688.445313 1 1 1h17c.554688 0 1-.445312 1-1z" fill="#fafafa"/></svg>