<svg fill="#666" height="50" viewBox="0 0 48 48" width="50" xmlns="http://www.w3.org/2000/svg"><path d="m43 24c0 10.492188-8.507812 19-19 19-10.492187 0-19-8.507812-19-19 0-10.492187 8.507813-19 19-19 10.492188 0 19 8.507813 19 19z" fill="#01579b"/><path d="m34 20.800781c0-.601562 0-2.902343-1.5-4.699218-.101562-.101563-.199219-.300782-.199219-.402344-.101562-.097656-.101562-.199219-.199218-.398438l-.203125-.300781-.199219-.300781c-.199219-.300781-.300781-.5-.300781-.5-.398438-.597656-.5-1.398438-.097657-2.097656.097657-.203125.300782-.402344.398438-.601563-.097656-.101562-.199219-.199219-.300781-.199219 0 0 0 0-.097657 0-.300781-.199218-.601562-.402343-.800781-.601562l-.699219-.5c-.5-.300781-.800781-.398438-.800781-.5-.699219-.398438-1.101562-1.097656-1-1.898438.101563-.800781.601563-1.5 1.398438-1.699218.101562 0 .300781-.101563.5-.101563 0 0 0 0-.097657-.101562-1.800781-.597657-3.800781-.898438-5.800781-.898438-7.398437 0-13.898437 4.300781-17 10.5v.5c0 7.199219 6.300781 13 14 13 5.898438 0 10.898438-3.398437 13-8.199219z" fill="#0277bd"/><path d="m30 8s.300781-.101562.898438-.101562h1c.402343 0 .800781.101562 1.300781.203125.5.097656 1 .296875 1.5.5.5.199218 1.101562.5 1.601562.898437.5.300781 1 .800781 1.5 1.199219.5.402344.898438 1 1.300782 1.5.296875.601562.699218 1.101562 1 1.699219.296875.601562.5 1.203125.699218 1.800781.199219.601562.300782 1.199219.398438 1.699219.101562.601562.101562 1.101562.101562 1.5v.703125c0 .199218 0 .398437-.101562.597656 0 .402344-.097656.699219-.097656 1 0 .5-.101563.800781-.101563.800781s-.199219-.300781-.398437-.800781c-.101563-.199219-.300782-.5-.402344-.898438-.097656-.300781-.300781-.699218-.5-1.101562-.199219-.398438-.398438-.800781-.597656-1.300781-.203125-.398438-.5-.898438-.703125-1.398438-.199219-.5-.5-.898437-.796875-1.398437-.300782-.5-.601563-.902344-.902344-1.300782-.300781-.402343-.597656-.902343-1-1.199218-.398438-.402344-.699219-.800782-1.097656-1.101563-.300782-.398437-.703125-.699219-1.101563-1-.398437-.300781-.699219-.601562-1.101562-.800781-.296875-.300781-.699219-.5-1-.699219-.296875-.199219-.597657-.398437-.796875-.5-.300782-.300781-.601563-.5-.601563-.5z" fill="#fff176"/><path d="m43.101563 17.601563c-.300782-2.203125-1.203125-4.203125-2.203125-5.601563-.5-.699219-1-1.199219-1.296875-1.5-.402344-.300781-.601563-.5-.601563-.5s0 .300781.101563.800781c.097656.5.097656 1.097657.199218 1.898438.097657.402344.097657.800781.199219 1.199219-.398437-.597657-.898437-1.199219-1.398437-1.597657-.5-.5-1.101563-.800781-1.402344-1-.5-.199218-.699219-.300781-.699219-.300781s.101563.199219.199219.601563c.101562.398437.300781.898437.5 1.597656s.5 1.601562.800781 2.5c-.601562-.699219-1.199219-1.300781-1.800781-1.699219-.699219-.398437-1.300781-.699219-1.800781-.800781-.597657-.199219-.898438-.199219-.898438-.199219s.199219.199219.398438.601563c.101562.199218.300781.398437.402343.699218.199219.300782.300782.597657.5.898438.300782.601562.699219 1.300781 1 2.101562.199219.398438.300782.800782.5 1.199219.097657.398438.398438.800781.5 1.300781.199219.398438.300782.800782.5 1.300782.097657.398437.300782.796875.398438 1.296875.101562.402343.300781.800781.402344 1.203125.097656.398437.199218.796875.398437 1.097656.300781.699219.5 1.300781.699219 1.699219.199219.402343.300781.601562.300781.601562s.101563-.199219.300781-.699219c.097657-.199218.199219-.5.199219-.800781.101563-.300781.199219-.699219.199219-1.101562 0-.296875.101562-.597657.101562-.898438.097657.300781.199219.5.199219.5s.101563-.199219.300781-.601562c.097657-.199219.199219-.398438.300782-.699219v-.097656c0 .199218 0 .5.097656.699218 0 .398438.101562.699219.101562 1v.898438c0 .5.097657.800781.097657.800781s.203125-.199219.5-.601562c.101562-.199219.300781-.398438.5-.699219.203125-.300781.300781-.597656.5-1 .203125-.398438.300781-.800781.402343-1.300781.097657-.5.199219-1 .300782-1.5.097656-.5.097656-1.097657.097656-1.597657.101562-.601562 0-1.199218-.097656-1.699218z" fill="#fdd835"/><path d="m44.101563 19.800781c0-.5-.101563-.800781-.101563-.800781s-.199219.300781-.5.699219c-.300781.5-.601562 1.101562-1 1.902344-.300781.699218-.699219 1.5-1.101562 2.296875 0-.796875 0-1.5-.097657-2.199219-.101562-.597656-.199218-1.097656-.300781-1.597656-.199219-.5-.300781-1-.5-1.402344-.300781-.898438-.699219-1.5-1-2s-.5-.699219-.5-.699219-.101562 1.199219-.101562 3c0 .898438-.097657 1.800781-.199219 2.898438 0 .5-.097656 1-.097656 1.601562 0 .5-.101563 1.101563-.203125 1.601563v.398437c-.097657-.898437-.398438-1.800781-.796875-2.398437-.300782-.703125-.703125-1.203125-1-1.5-.402344-.5-.601563-.601563-.601563-.601563v.699219c0 .402344 0 1-.101562 1.699219-.097657 1.300781-.296875 3-.5 4.601562-.097657.398438-.199219.800781-.199219 1.199219-.097656.402344-.199219.800781-.199219 1.199219-.101562.402343-.199219.800781-.300781 1.101562-.097656.398438-.199219.699219-.199219 1-.101562.300781-.101562.699219-.199219.898438-.101562.300781-.101562.5-.199218.800781-.101563.5-.101563.800781-.101563.800781s.199219-.101562.601563-.398437c.398437-.300782.898437-.601563 1.398437-1.203125.199219-.296875.5-.597657.800781-1 .199219-.398438.5-.699219.699219-1.097657 0 .300782-.101562.597657-.101562.898438-.097657.300781-.097657.699219-.199219.902344-.199219.597656-.199219.898437-.199219.898437.101563-.101562.398438 0 .699219.101563 0 .097656-.097656.199218-.097656.199218-.101563.300782-.203125.597657-.300782.898438-.199218.5-.300781.800781-.300781.800781s.300781-.101562.699219-.398437c.199219-.203125.5-.300782.800781-.601563.300781-.199219.601563-.5.898438-.898437.300781-.300782.601562-.703125 1-1.101563.300781-.398437.601562-.898437.902343-1.398437.597657-1 1.097657-2.101563 1.5-3.203125.398438-1.097657.800782-2.296875 1-3.398438.199219-1.101562.300782-2.101562.398438-3 0-.898437 0-1.601562-.097656-2.199219z" fill="#ffb300"/><path d="m41.398438 30.398438c-.398438.203125-.796875.601562-1.398438 1-.800781.601562-1.699219 1.402343-2.601562 2.300781.101562-.300781.300781-.597656.402343-.898438.300782-.902343.398438-1.699218.5-2.402343 0-.699219 0-1.296875-.101562-1.699219-.097656-.5-.199219-.699219-.199219-.699219s-.199219.199219-.398437.5c-.203125.300781-.601563.800781-1 1.300781-.402344.5-.800782 1.199219-1.203125 1.800782-.097657.097656-.097657.199218-.199219.296875.199219-.597657.199219-1.296875.199219-1.898438 0-.800781-.199219-1.601562-.398438-2.199219-.199219-.601562-.5-1.101562-.699219-1.402343-.101562-.199219-.300781-.398438-.300781-.398438s-.101562.199219-.199219.601563c-.101562.296875-.300781.796875-.5 1.398437-.199218.5-.300781 1.101563-.5 1.800781-.101562.300782-.199218.597657-.300781 1-.101562.300782-.199219.597657-.300781.800782-1.898438 1.898437-4.199219 2.398437-6.398438 2.5-1.199218 0-2.300781-.203125-3.300781-.5-1.5-.5-2.898437-1.402344-4.199219-2.601563 1.898438.199219 3.699219-.199219 5.199219-.898437l2.5-1.601563c.300781-.101562.601563-.101562.898438 0 .601562-.101562.800781-.398437.601562-1-.300781-.398437-.800781-.800781-1.300781-1.101562-1.300781-.699219-2.597656-.597657-4 .300781-1.300781.699219-2.5.601562-3.800781-.097656-3.097657-1.601563-1.898438-5.703125 1.402343-3.601563.199219-1-.101562-2.101562-.699218-3.199219-2.902344-5.300781.398437-9.601562 1.5-10.300781-2 .199219-3.800782 1.101563-5.402344 2.601563-10.300781-1.203125-11.199219 8.796875-11.199219 8.898437l1.199219-1.101562c-.398438 1.101562-.699219 2.203125-.800781 3.402343-.398438 3.898438.703125 7.699219 3.300781 11.5 4 5.097657 10.300781 8.199219 16.300781 8.199219 6.800781 0 11.199219-2.5 14.101563-5.699219.199218-.199218.398437-.402343.597656-.601562.601562-.699219 1.199219-1.398438 1.699219-2.199219.5-.699219.800781-1.5 1.101562-2.199219.199219-.699218.398438-1.300781.5-1.699218 0-.300782 0-.601563 0-.601563s-.199219.101563-.601562.398438z" fill="#ff9800"/><path d="m12 28c-.199219-7 4.300781-6.398437 6.601563-5.601562-1.601563-.296875-2.300782 1.203125-1.601563 2.601562-.300781 0-3.398437-.300781-5 3zm6.300781 2.898438c1.898438.203125 3.699219-.199219 5.199219-.898438l2.5-1.601562c.199219-.097657.5-.097657.699219 0-2.898438-1.699219-6 1.902343-12.800781.800781 1.703125 1.300781 4.402343 1.699219 4.402343 1.699219zm-.199218-16.398438c-.203125 1.5.097656 3.300781 1.097656 5.199219 1.402344-.800781 2.800781-1.699219 2.800781-1.699219s2-2 0-2c-1.898437 0-3.199219-.800781-3.898437-1.5zm-7.800782-2.101562c-.902343-.796875-2.300781-2.398438-2.300781-4.398438 0 0-2.398437 3.898438-1.5 7 .898438-1.101562 2.199219-2 3.800781-2.601562z" fill="#ef6c00"/><path d="m19.199219 19.699219c1.402344-.800781 2.800781-1.699219 2.800781-1.699219s.199219-.199219.398438-.398437l-.398438-.601563h-3.800781c.199219.898438.5 1.800781 1 2.699219z" fill="#ffcc80"/><path d="m22 16c-.300781 0-.601562 0-.898437-.101562l-.101563.101562s.800781 1.300781 1 2c0 0 2-2 0-2z" fill="#5d4037"/></svg>