<svg fill="#666" height="50" viewBox="0 0 48 48" width="50" xmlns="http://www.w3.org/2000/svg"><path d="m27 11v-3.121094c0-1.65625-1.34375-3-3-3v6.121094z" fill="#c62828"/><path d="m43 25-11-13s-1-1-3-1h-21.878906c-1.722656 0-3.121094 1.398438-3.121094 3.121094v20.761719c0 1.722656 1.398438 3.117187 3.121094 3.117187h33.878906c1.65625 0 3-1.34375 3-3v-7c0-2-1-3-1-3z" fill="#c5cae9"/><path d="m40 38c0 2.761719-2.238281 5-5 5s-5-2.238281-5-5 2.238281-5 5-5 5 2.238281 5 5z" fill="#455a64"/><path d="m19 38c0 2.761719-2.238281 5-5 5s-5-2.238281-5-5 2.238281-5 5-5 5 2.238281 5 5z" fill="#455a64"/><path d="m37 38c0 1.105469-.894531 2-2 2s-2-.894531-2-2 .894531-2 2-2 2 .894531 2 2z" fill="#263238"/><path d="m16 38c0 1.105469-.894531 2-2 2s-2-.894531-2-2 .894531-2 2-2 2 .894531 2 2z" fill="#263238"/><g fill="#f44336"><path d="m24 11v-6.121094c-1.65625 0-3 1.34375-3 3v3.121094z"/><path d="m22 19c0 3.3125-2.6875 6-6 6s-6-2.6875-6-6 2.6875-6 6-6 6 2.6875 6 6z"/><path d="m4 27v4h40v-3c0-.371094-.042969-.695312-.097656-1z"/></g><path d="m12 18h8v2h-8z" fill="#fff"/><path d="m15 15h2v8h-2z" fill="#fff"/><path d="m40.390625 25-9.324219-11.121094h-2.066406v11.121094z" fill="#455a64"/></svg>