<svg fill="#666" height="50" viewBox="0 0 48 48" width="50" xmlns="http://www.w3.org/2000/svg"><path d="m13 17h22v18h-22z" fill="#4caf50"/><g fill="#d7ccc8"><path d="m2 39h44v2h-44z"/><path d="m34 19h5v16h-5z"/><path d="m9 19h5v16h-5z"/><path d="m43 17h-38v-3l19-9 19 9z"/><path d="m6 35h36v2h-36z"/></g><g fill="#bcaaa4"><path d="m32 17h9v2h-9z"/><path d="m7 17h9v2h-9z"/><path d="m4 37h40v2h-40z"/><circle cx="24" cy="12" r="2"/></g><path d="m16 17h16v2h-16z" fill="#43a047"/><path d="m27.116 27.565c-.286-.29-.638-.549-1.054-.778-.416-.231-.947-.476-1.593-.735-.646-.26-1.087-.513-1.325-.762s-.357-.578-.357-.989c0-.443.122-.789.365-1.041s.586-.378 1.029-.378c.448 0 .806.162 1.073.483.268.322.402.987.402 1.636h2.344c0-1.054-.27-2.091-.811-2.752-.529-.649-1.261-1.042-2.189-1.184v-2.065h-2v2.138c-.671.162-1.232.463-1.679.91-.584.584-.875 1.331-.875 2.246 0 .53.085.986.255 1.369.17.384.408.717.713 1.001s.672.533 1.099.753c.427.219.935.44 1.524.661.589.222 1.006.463 1.252.726s.369.614.369 1.057c0 .426-.138.766-.413 1.018-.276.252-.651.376-1.127.376-.573 0-1.012-.171-1.318-.513-.305-.344-.458-1.099-.458-1.742h-2.342c0 1.108.304 2.257.911 2.924.514.565 1.218.921 2.089 1.093v1.983h2v-1.944c.894-.128 1.613-.447 2.141-.974.573-.573.859-1.318.859-2.237 0-.492-.076-.922-.227-1.293-.151-.369-.37-.699-.657-.987z" fill="#e8f5e9"/></svg>