<svg fill="#666" height="50" viewBox="0 0 48 48" width="50" xmlns="http://www.w3.org/2000/svg"><path d="m44 23.211c0 11.044-8.956 20-20 20s-20-8.956-20-20 8.956-20 20-20 20 8.956 20 20z" fill="#7cb342"/><g fill="#dcedc8"><path d="m27.531 25.602c.109.527-.23 1.055-.762 1.164l-3.852.801c-.527.113-1.051-.227-1.164-.762l-1.805-8.668c-.109-.527.234-1.051.762-1.16l3.852-.805c.531-.109 1.055.23 1.164.762z"/><path d="m25.043 12.348c0 1.734-1.402 3.141-3.137 3.141s-3.137-1.406-3.137-3.141c0-1.73 1.402-3.137 3.137-3.137s3.137 1.406 3.137 3.137z"/><path d="m32.668 25.211c-.422 0-.832-.199-1.094-.57l-2.867-4.09-4.18-1.605c-.688-.262-1.035-1.031-.77-1.723.262-.688.805-1.195 1.492-.934l4.789 1.914c.25.094.465.266.617.48l3.102 4.43c.422.602.277 1.434-.328 1.855-.23.165-.495.243-.761.243z"/><path d="m15.375 27.84c-.379 0-.754-.16-1.02-.473-.477-.563-.406-1.402.156-1.879l3.32-2.813 1.574-4.566c.438-1.086 1.43-1.262 2.125-1.023.695.242.633 1.195.395 1.895l-1.691 4.91c-.078.227-.215.43-.398.582l-3.602 3.055c-.25.206-.554.312-.859.312z"/><path d="m31.285 37.211c-.406 0-.805-.184-1.066-.531l-2.961-3.938c-.082-.105-.145-.227-.191-.355l-2.012-5.73c-.242-.695.121-1.457.816-1.699.691-.246 1.453.121 1.699.816l1.941 5.535 2.836 3.77c.441.59.324 1.422-.262 1.863-.237.183-.523.269-.8.269z"/><path d="m19.961 37.211c-.035 0-.066 0-.102-.004-.734-.055-1.285-.695-1.23-1.43l.43-5.754c.02-.258.113-.5.266-.707l2.762-3.641c.445-.586 1.281-.699 1.867-.258.586.445.703 1.281.258 1.871l-2.523 3.324-.398 5.363c-.057.705-.643 1.236-1.33 1.236z"/></g></svg>