<svg fill="#666" height="50" viewBox="0 0 48 48" width="50" xmlns="http://www.w3.org/2000/svg"><path d="m41 35c0 .554688-.445312 1-1 1h-34c-.554687 0-1-.445312-1-1v-28c0-.554687.445313-1 1-1h34c.554688 0 1 .445313 1 1z" fill="#455a64"/><path d="m26 35c0 .554688-.445312 1-1 1h-11c-.554687 0-1-.445312-1-1v-4c0-.554687.445313-1 1-1h11c.554688 0 1 .445313 1 1zm15-4c0-.554687-.445312-1-1-1h-11c-.554687 0-1 .445313-1 1v4c0 .554688.445313 1 1 1h11c.554688 0 1-.445312 1-1zm-8-8c0-.554687-.445312-1-1-1h-11c-.554687 0-1 .445313-1 1v4c0 .554688.445313 1 1 1h11c.554688 0 1-.445312 1-1zm-28 4c0 .554688.445313 1 1 1h11c.554688 0 1-.445312 1-1v-4c0-.554687-.445312-1-1-1h-11c-.554687 0-1 .445313-1 1zm36-5h-5c-.554687 0-1 .445313-1 1v4c0 .554688.445313 1 1 1h5zm-31 8h-5v5c0 .550781.449219 1 1 1h4c.550781 0 1-.449219 1-1v-4c0-.550781-.449219-1-1-1zm16-15c0-.554687-.445312-1-1-1h-11c-.554687 0-1 .445313-1 1v4c0 .554688.445313 1 1 1h11c.554688 0 1-.445312 1-1zm15 0c0-.554687-.445312-1-1-1h-11c-.554687 0-1 .445313-1 1v4c0 .554688.445313 1 1 1h11c.554688 0 1-.445312 1-1zm-8-8c0-.554687-.445312-1-1-1h-11c-.554687 0-1 .445313-1 1v4c0 .554688.445313 1 1 1h11c.554688 0 1-.445312 1-1zm-28 4c0 .554688.445313 1 1 1h11c.554688 0 1-.445312 1-1v-4c0-.554687-.445312-1-1-1h-11c-.554687 0-1 .445313-1 1zm35-5h-4c-.550781 0-1 .449219-1 1v4c0 .550781.449219 1 1 1h5v-5c0-.550781-.449219-1-1-1zm-30 8h-5v6h5c.554688 0 1-.445312 1-1v-4c0-.554687-.445312-1-1-1z" fill="#90a4ae"/><path d="m43 33c0 5.5-4.5 10-10 10s-10-4.5-10-10 4.5-10 10-10 10 4.5 10 10" fill="#ff9800"/><path d="m39 29c0 5.5-4.5 10-10 10s-10-4.5-10-10 4.5-10 10-10 10 4.5 10 10z" fill="#ffc107"/><path d="m41 29c0-.773437-.078125-1.523437-.21875-2.257812-.828125-1.023438-1.84375-1.882813-3.003906-2.519532.777344 1.421875 1.222656 3.050782 1.222656 4.777344 0 5.5-4.5 10-10 10-1.726562 0-3.355469-.445312-4.777344-1.222656.636719 1.160156 1.5 2.175781 2.519532 3.003906.734375.140625 1.484375.21875 2.257812.21875 6.617188 0 12-5.382812 12-12z" fill="#f57f17"/><path d="m25.273438 29.015625.675781-6.015625h6.625v1.96875h-4.445313l-.242187 2.535156c.511719-.296875 1.042969-.445312 1.589844-.445312 1.125 0 1.996093.34375 2.609375 1.039062.609375.695313.914062 1.675782.914062 2.941407 0 1.1875-.363281 2.144531-1.089844 2.871093-.726562.726563-1.699218 1.089844-2.914062 1.089844-.722656 0-1.390625-.148437-2.003906-.441406-.613282-.296875-1.097657-.707031-1.453125-1.234375-.351563-.523438-.53125-1.121094-.539063-1.789063h2.632813c.042968.5.183593.886719.421875 1.160157.238281.273437.546875.410156.921875.410156.4375 0 .777343-.183594 1.015625-.550781.238281-.367188.355468-.914063.355468-1.644532 0-.683593-.144531-1.199218-.425781-1.550781-.285156-.347656-.6875-.519531-1.199219-.519531-.503906 0-.890625.148437-1.167968.445312l-.167969.203125z" fill="#fff8e1"/></svg>