<svg fill="#666" height="50" viewBox="0 0 48 48" width="50" xmlns="http://www.w3.org/2000/svg"><path d="m36.800781 28.199219-11.300781-11.300781 2.5-1.898438-2-2h-13.5l-8.5-2v16l5.898438 1 12 12.199219c.800781.800781 2 .800781 2.800781 0s.800781-2 0-2.800781l-.097656-.097657c-.203125-.199218-.203125-.5 0-.699218.199218-.203125.5-.203125.699218 0l.800782.796875c.796875.800781 2 .800781 2.796875 0 .800781-.796875.800781-2 0-2.796875l-.296875-.300782c-.203125-.199218-.203125-.5 0-.699218.199218-.203125.5-.203125.699218 0l1 1c.800782.796875 2 .796875 2.800782 0 .796875-.800782.796875-2 0-2.800782 0 0-.300782-.300781-.300782-.300781-.199218-.199219-.199218-.5 0-.699219.199219-.199218.5-.199218.699219 0l.300781.300782c.800782.796875 2 .796875 2.800782 0 1-.800782 1-2.101563.199218-2.902344z" fill="#ffb74d"/><g fill="#c77600"><path d="m27.398438 18.898438-4.699219 1.800781c-2.800781 1.101562-5.898438.402344-7.898438-1.800781-.402343-.398438-.300781-1.097657.300782-1.398438l13.296875-6.5c1.601562-.800781 3.5-.601562 4.902343.398438l.398438.300781c1.101562.800781 2.601562 1 3.902344.699219l6.398437-1.398438v16l-5.898437 1-.800782.800781z"/><path d="m18 39c.800781.800781 2 .800781 2.800781 0l.699219-.699219c.800781-.800781.800781-2 0-2.800781s-2-.800781-2.800781 0l-.699219.699219c-.800781.800781-.800781 2 0 2.800781z"/><path d="m15.101563 36.199219c.796875.800781 2 .800781 2.796875 0l.703125-.699219c.796875-.800781.796875-2 0-2.800781-.800782-.800781-2-.800781-2.800782 0l-.699218.699219c-.703125.703125-.703125 2 0 2.800781z"/><path d="m12.300781 33.398438c.800782.800781 2 .800781 2.800782 0l.699218-.699219c.800782-.800781.800782-2 0-2.800781-.800781-.796875-2-.796875-2.800781 0l-.699219.703125c-.800781.699218-.800781 2 0 2.796875z"/><path d="m9.5 30.5c.800781.800781 2 .800781 2.800781 0l.699219-.699219c.800781-.800781.800781-2 0-2.800781s-2-.800781-2.800781 0l-.699219.699219c-.800781.800781-.800781 2 0 2.800781z"/></g><g fill="#ebae55"><path d="m20.5 37.898438-1.5-1.398438.398438-.398437c.402343-.402344.902343-.402344 1.300781 0l.101562.097656c.398438.402344.398438.902344 0 1.300781z"/><path d="m17.601563 35.101563-1.402344-1.402344.402344-.398438c.398437-.402343.898437-.402343 1.296875 0l.101562.097657c.398438.402343.398438.902343 0 1.300781z"/><path d="m14.800781 32.300781-1.402343-1.402343.402343-.398438c.398438-.398437.898438-.398437 1.300782 0l.097656.101563c.402344.398437.402344.898437 0 1.296875z"/><path d="m12 29.5-1.398437-1.5.398437-.398437c.398438-.402344.898438-.402344 1.300781 0l.097657.097656c.402343.402344.402343.902344 0 1.300781z"/></g></svg>