<svg fill="#666" height="50" viewBox="0 0 48 48" width="50" xmlns="http://www.w3.org/2000/svg"><g fill="#2196f3"><path d="m27 40c0 1.65625-1.34375 3-3 3s-3-1.34375-3-3 1.34375-3 3-3 3 1.34375 3 3z"/><path d="m2 18.898438 3.550781 3.550781c10.277344-9.910156 26.621094-9.910156 36.898438 0l3.550781-3.550781c-12.238281-11.867188-31.761719-11.867188-44 0z"/><path d="m8.390625 25.289063 3.558594 3.5625c6.753906-6.382813 17.351562-6.382813 24.105469 0l3.558593-3.5625c-8.71875-8.339844-22.507812-8.339844-31.222656 0z"/><path d="m14.789063 31.691406 3.550781 3.550782c3.21875-2.867188 8.101562-2.863282 11.324219 0l3.546875-3.550782c-5.1875-4.820312-13.238282-4.816406-18.421875 0z"/></g></svg>