<svg fill="#666" height="50" viewBox="0 0 48 48" width="50" xmlns="http://www.w3.org/2000/svg"><path d="m6 28v10c0 2.210938 1.789063 4 4 4h28c2.210938 0 4-1.789062 4-4v-10z" fill="#78909c"/><path d="m42 28c0 2.210938-1.789062 4-4 4h-28c-2.210937 0-4-1.789062-4-4l3-18c.21875-2.09375 1.789063-4 4-4h22c2.210938 0 3.6875 1.75 4 4z" fill="#455a64"/><path d="m37 37c0 1.105469-.894531 2-2 2s-2-.894531-2-2 .894531-2 2-2 2 .894531 2 2z" fill="#64dd17"/><path d="m24 11c-6.628906 0-12 3.132813-12 7 0 3.863281 5.371094 7 12 7s12-3.136719 12-7c0-3.867187-5.371094-7-12-7zm0 8.554688c-1.472656 0-2.667969-.695313-2.667969-1.554688s1.195313-1.554687 2.667969-1.554687 2.664063.695312 2.664063 1.554687-1.191407 1.554688-2.664063 1.554688z" fill="#bbdefb"/></svg>