<svg fill="#666" height="50" viewBox="0 0 48 48" width="50" xmlns="http://www.w3.org/2000/svg"><g fill="#ffecb3"><path d="m21 10c0 3.3125-2.6875 6-6 6s-6-2.6875-6-6 2.6875-6 6-6 6 2.6875 6 6z"/><path d="m28 8.5c0 3.039063-2.460937 5.5-5.5 5.5-3.039062 0-5.5-2.460937-5.5-5.5 0-3.039062 2.460938-5.5 5.5-5.5 3.039063 0 5.5 2.460938 5.5 5.5z"/><path d="m33 9.5c0 1.933594-1.566406 3.5-3.5 3.5s-3.5-1.566406-3.5-3.5 1.566406-3.5 3.5-3.5 3.5 1.566406 3.5 3.5z"/><path d="m30 13.5c0 1.933594-1.566406 3.5-3.5 3.5s-3.5-1.566406-3.5-3.5 1.566406-3.5 3.5-3.5 3.5 1.566406 3.5 3.5z"/><path d="m11 10.5c0 1.378906-1.121094 2.5-2.5 2.5s-2.5-1.121094-2.5-2.5 1.121094-2.5 2.5-2.5 2.5 1.121094 2.5 2.5z"/><path d="m35 10.5c0 1.378906-1.121094 2.5-2.5 2.5s-2.5-1.121094-2.5-2.5 1.121094-2.5 2.5-2.5 2.5 1.121094 2.5 2.5z"/></g><path d="m32.511719 39c-3.035156 0-5.5-2.46875-5.5-5.5v-11c0-.289062-.003906-.519531-.007813-.695312-.011718-.632813-.019531-1.179688.464844-1.671875l.441406-.449219.660157-.011719c.414062 0 .710937.15625.867187.242188.007813.007812.015625.007812.023438.011718 1.402343-.832031 5.214843-2.925781 8.050781-2.925781 4.5 0 4.5 3.441406 4.5 5.5-.058594 1-.523438 9.109375-1.039063 11.335938-.75 3.234375-2.789062 5.164062-5.460937 5.164062zm-2.5-16v10.5c0 1.378906 1.121094 2.5 2.5 2.5h2.996094c1.640625 0 2.296875-1.777344 2.542968-2.839844.386719-1.675781.824219-8.324218.960938-10.746093 0-2.414063-.117188-2.414063-1.5-2.414063-2.097656 0-5.8125 2.050781-6.949219 2.769531l-.371094.230469z" fill="#bbdefb"/><path d="m8 40v2c0 1.105469.894531 2 2 2h21c1.105469 0 2-.894531 2-2v-2z" fill="#bbdefb"/><path d="m8 12h25v28h-25z" fill="#ffb300"/><path d="m8 12h25v8h-25z" fill="#ffd54f"/><path d="m26 27.5c0 .828125-.671875 1.5-1.5 1.5s-1.5-.671875-1.5-1.5.671875-1.5 1.5-1.5 1.5.671875 1.5 1.5z" fill="#ffecb3"/><path d="m28 33.5c0 .828125-.671875 1.5-1.5 1.5s-1.5-.671875-1.5-1.5.671875-1.5 1.5-1.5 1.5.671875 1.5 1.5z" fill="#ffe082"/><path d="m30 25c0 .550781-.449219 1-1 1s-1-.449219-1-1 .449219-1 1-1 1 .449219 1 1z" fill="#fff8e1"/><g fill="#fffdf0"><path d="m14.394531 19.542969c.558594-2.894531.558594-6.046875-2.0625-7.542969 1.667969-2 6.667969-2 8.355469 0-2.90625 1.660156-2.589844 5.363281-1.863281 8.488281.585937 1.628907.949219 3.09375 1.09375 4.027344.003906.011719.003906.023438.007812.035156.039063.269532.066407.511719.066407.675782 0 1.921875-1.558594 3.480468-3.480469 3.480468s-3.480469-1.558593-3.480469-3.480468c0-.148438.023438-.359375.058594-.597657.136719-1.128906.632812-2.828125 1.304687-5.085937z"/><path d="m21.898438 12c-.460938-2.28125-2.480469-4-4.898438-4s-4.4375 1.71875-4.898437 4z"/><path d="m25.949219 12c.03125-.160156.050781-.328125.050781-.5 0-1.382812-1.117187-2.5-2.5-2.5-1.382812 0-2.5 1.117188-2.5 2.5 0 .171875.019531.339844.050781.5z"/></g></svg>