<svg fill="#666" height="50" viewBox="0 0 48 48" width="50" xmlns="http://www.w3.org/2000/svg"><path d="m36 4h-10c0 1.1-.9 2-2 2s-2-.9-2-2h-10c-2.2 0-4 1.8-4 4v32c0 2.2 1.8 4 4 4h24c2.2 0 4-1.8 4-4v-32c0-2.2-1.8-4-4-4z" fill="#455a64"/><path d="m36 41h-24c-.6 0-1-.4-1-1v-32c0-.6.4-1 1-1h24c.6 0 1 .4 1 1v32c0 .6-.4 1-1 1z" fill="#fff"/><path d="m26 4c0 1.1-.9 2-2 2s-2-.9-2-2h-7v4c0 1.1.9 2 2 2h14c1.1 0 2-.9 2-2v-4z" fill="#90a4ae"/><path d="m24 0c-2.2 0-4 1.8-4 4s1.8 4 4 4 4-1.8 4-4-1.8-4-4-4zm0 6c-1.1 0-2-.9-2-2s.9-2 2-2 2 .9 2 2-.9 2-2 2z" fill="#90a4ae"/><path d="m16.944 23.059h11.743v6.2h-11.743z" fill="#ff9800" transform="matrix(.70709444 -.70711912 .70711912 .70709444 -11.815596 23.795332)"/><path d="m16.472 28.119-.731 2.922 2.206 2.206 2.909-.744z" fill="#ffc107"/><path d="m15.741 31.041-.741 2.959 2.947-.753z" fill="#37474f"/><path d="m32.7 19.1-2.8-2.8c-.4-.4-1.1-.4-1.6 0l-1.3 1.3 4.4 4.4 1.3-1.3c.4-.4.4-1.1 0-1.6" fill="#e57373"/><path d="m24.776 19.816 2.224-2.216 4.4 4.4-2.24 2.2z" fill="#b0bec5"/></svg>