<svg fill="#666" height="50" viewBox="0 0 48 48" width="50" xmlns="http://www.w3.org/2000/svg"><path d="m19 18.300781-2.800781 2.800782 18.402344 18.398437c.796875.800781 2 .800781 2.796875 0 .800781-.800781.800781-2 0-2.800781z" fill="#0288d1"/><path d="m15.898438 26.5 5.703125-5.699219-13.902344-13.800781-.597656.5c-2.800782 2.800781-2.800782 7.398438 0 10.199219z" fill="#0288d1"/><g fill="#03a9f4"><path d="m31.101563 21.699219-2.800782-2.800781-17.902343 17.800781c-.796875.800781-.796875 2 0 2.800781.800781.800781 2 .800781 2.800781 0z"/><path d="m39.539063 21.710938c3.90625-3.902344 4.539062-9.601563 1.414062-12.726563s-8.824219-2.492187-12.726562 1.414063c-3.90625 3.90625-4.539063 9.605468-1.414063 12.726562 3.121094 3.125 8.820313 2.492188 12.726563-1.414062z"/></g></svg>