<svg fill="#666" height="50" viewBox="0 0 48 48" width="50" xmlns="http://www.w3.org/2000/svg"><path d="m42 22.5c0 .828125-.671875 1.5-1.5 1.5h-6.488281c-.601563 0-1.144531-.355469-1.378906-.910156l-2.535157-4.945313-4.09375 7.261719 5.21875 6.007813c.78125.605468 1.007813 1.691406.523438 2.558593l-5 9c-.363281.65625-1.046875 1.027344-1.75 1.027344-.324219 0-.660156-.082031-.96875-.253906-.964844-.535156-1.3125-1.75-.773438-2.71875l4.160157-7.492188-5.667969-5.078125-4.039063 4.582032c-.359375.597656-1.007812.960937-1.707031.960937h-9c-1.105469 0-2-.894531-2-2s.894531-2 2-2h7.875l5.167969-8.164062-.042969-.027344 4.292969-7.613281-4.007813-1.195313-4.953125 3.746094c-.691406.460937-1.621093.277344-2.078125-.414063-.460937-.6875-.273437-1.621093.414063-2.078125l5.332031-4c.246094-.164062.535156-.253906.832031-.253906l6.386719.785156h.011719c.269531 0 .539062.074219.769531.214844l4.769531 2.714844c.117188.066406.214844.152344.300782.25.125.132812.238281.277344.308593.445312l2.621094 6.589844h5.5c.828125 0 1.5.671875 1.5 1.5zm-9-18.5c-2.210937 0-4 1.789063-4 4 0 2.207031 1.789063 4 4 4 2.210938 0 4-1.792969 4-4 0-2.210937-1.789062-4-4-4" fill="#ffba57"/><path d="m20.042969 21.835938-5.167969 8.164062 2.832031 3.039063 7.265625-8.242188z" fill="#2d4c5c"/><path d="m31.769531 13.714844-4.769531-2.714844c-.230469-.140625-.5-.214844-.769531-.214844h-.011719l-6.21875 11.023438 6 3.601562 6.285156-11.144531c-.125-.222656-.292968-.417969-.515625-.550781z" fill="#00acc1"/><path d="m26 25.414063-6-3.605469 1.011719-1.792969-1.515625 2.683594c-.972656 1.621094-.472656 3.699219 1.09375 4.722656l6.824219 6.113281 3.804687-2.121093-5.214844-6.007813z" fill="#546e7a"/></svg>