<svg fill="#666" height="50" viewBox="0 0 48 48" width="50" xmlns="http://www.w3.org/2000/svg"><circle cx="24" cy="24" fill="#ffee58" r="20"/><path d="m24.164 37c-.067 0-.133-.002-.199-.005-.042.003-.085.005-.13.005-1.54 0-2.529-.716-3.485-1.408-.66-.478-1.283-.929-2.017-1.054-.358-.061-.714-.091-1.059-.091-.62 0-1.11.098-1.468.169-.217.044-.405.081-.547.081-.149 0-.31-.033-.38-.278-.061-.212-.105-.418-.147-.617-.109-.512-.187-.828-.396-.86-2.443-.387-3.142-.913-3.298-1.288-.022-.053-.035-.107-.038-.16-.008-.143.092-.271.23-.294 3.755-.634 5.439-4.566 5.51-4.733.002-.005.004-.009.006-.014.23-.477.275-.892.134-1.231-.258-.622-1.002-.886-1.558-1.066-.136-.044-.265-.086-.367-.127-1.11-.45-1.202-.911-1.159-1.147.074-.401.597-.68 1.02-.68.116 0 .218.021.304.062.499.24.853.351 1.241.351.537 0 .771-.231.799-.262-.014-.26-.031-.532-.048-.813-.112-1.819-.251-4.079.311-5.369 1.683-3.867 5.254-4.167 6.308-4.167.027 0 .462-.005.462-.005h.063c1.057 0 4.634.301 6.319 4.17.562 1.291.423 3.553.311 5.37l-.005.079c-.015.253-.031.499-.043.734.027.028.242.24.729.26h.001c.37-.015.711-.109 1.177-.333.136-.065.288-.079.392-.079.158 0 .318.031.451.088l.008.004c.377.137.624.408.629.691.005.266-.194.667-1.168 1.061-.101.041-.23.083-.367.127-.557.181-1.313.428-1.571 1.05-.141.34-.096.753.134 1.231.002.005.004.009.006.014.07.167 1.753 4.098 5.51 4.732.139.024.238.15.23.294-.003.054-.016.108-.038.161-.155.371-.854.898-3.297 1.285-.2.031-.277.298-.396.857-.043.203-.087.403-.148.613-.052.182-.163.268-.35.268h-.03c-.129 0-.314-.024-.547-.071-.414-.083-.877-.159-1.468-.159-.344 0-.701.031-1.059.091-.733.125-1.356.576-2.014 1.053-.959.694-1.948 1.41-3.488 1.41z" fill="#fff"/></svg>