<svg fill="#666" height="50" viewBox="0 0 48 48" width="50" xmlns="http://www.w3.org/2000/svg"><path d="m24 4c-5.515625 0-10 4.484375-10 10v4h4v-4c0-3.308594 2.691406-6 6-6s6 2.691406 6 6v4h4v-4c0-5.515625-4.484375-10-10-10" fill="#424242"/><path d="m37 44h-26c-2.210937 0-4-1.789062-4-4v-18c0-2.210937 1.789063-4 4-4h26c2.210938 0 4 1.789063 4 4v18c0 2.210938-1.789062 4-4 4" fill="#8bc34a"/><g fill="#f1f8e9"><path d="m17 31c0 1.65625-1.34375 3-3 3s-3-1.34375-3-3 1.34375-3 3-3 3 1.34375 3 3"/><path d="m37 31c0 1.65625-1.34375 3-3 3s-3-1.34375-3-3 1.34375-3 3-3 3 1.34375 3 3"/><path d="m27 31c0 1.65625-1.34375 3-3 3s-3-1.34375-3-3 1.34375-3 3-3 3 1.34375 3 3"/></g></svg>