<svg fill="#666" height="50" viewBox="0 0 48 48" width="50" xmlns="http://www.w3.org/2000/svg"><path d="m40.085938 32.613281c-.851563 1.835938-1.257813 2.65625-2.34375 4.273438-1.519532 2.265625-3.671875 5.089844-6.328125 5.109375-2.359375.019531-2.96875-1.507813-6.175782-1.480469-3.203125.015625-3.871093 1.507813-6.234375 1.480469-2.65625-.019531-4.6875-2.566406-6.210937-4.824219-4.257813-6.339844-4.707031-13.769531-2.074219-17.722656 1.859375-2.800781 4.804688-4.445313 7.570313-4.445313 2.816406 0 4.589843 1.511719 6.914062 1.511719 2.265625 0 3.640625-1.515625 6.898438-1.515625 2.464843 0 5.070312 1.3125 6.929687 3.574219-6.089844 3.261719-5.101562 11.761719 1.054688 14.039062z" fill="#42a5f5"/><path d="m30.046875 12.070313c1.269531-1.574219 2.230469-3.800782 1.882813-6.070313-2.070313.136719-4.492188 1.417969-5.90625 3.074219-1.28125 1.511719-2.34375 3.753906-1.929688 5.921875 2.257813.070312 4.59375-1.230469 5.953125-2.925781z" fill="#42a5f5"/><path d="m36.734375 20.421875c-8.734375 9.578125-16.734375.578125-27.507812 7.421875.375 3.023438 1.53125 6.300781 3.566406 9.328125 1.519531 2.257813 3.554687 4.804688 6.210937 4.828125 2.363282.023438 3.03125-1.46875 6.234375-1.484375 3.207032-.023437 3.816407 1.5 6.175782 1.480469 2.65625-.019531 4.808593-2.84375 6.328125-5.109375 1.085937-1.617188 1.492187-2.4375 2.34375-4.273438-5.207032-1.925781-6.695313-8.300781-3.351563-12.191406z" fill="#1e88e5"/></svg>