<svg fill="#666" height="50" viewBox="0 0 48 48" width="50" xmlns="http://www.w3.org/2000/svg"><path d="m38 43h-28c-2.199219 0-4-1.800781-4-4v-28c0-2.199219 1.800781-4 4-4h28c2.199219 0 4 1.800781 4 4v28c0 2.199219-1.800781 4-4 4z" fill="#880e4f"/><g fill="#ffd54f"><path d="m15.898438 28 2.101562-9.101562h2.800781l-3.601562 12.601562h-2.597656l-3.601563-12.601562h2.800781z"/><path d="m25.601563 31.5h-2.5v-12.601562h2.5z"/><path d="m31.199219 27.101563v4.398437h-2.5v-12.601562h4.300781c3.699219 0 4.101563 3.402343 4.101563 4.203125 0 1.199218-.5 4-4.101563 4zm0-2.203125h1.699219c1.300781 0 1.5-1.097657 1.5-1.898438 0-1.601562-.898438-2.101562-1.5-2.101562h-1.699219z"/></g></svg>