<svg fill="#666" height="50" viewBox="0 0 48 48" width="50" xmlns="http://www.w3.org/2000/svg"><path d="m17.203125 19.121094-4.90625 2.714844c-.183594.101562-.296875.289062-.296875.492187v5.433594c0 .203125.113281.390625.296875.492187l4.90625 2.71875c.183594.097657.410156.097657.59375 0l4.90625-2.71875c.183594-.101562.296875-.289062.296875-.492187v-5.433594c0-.203125-.113281-.390625-.296875-.492187l-4.90625-2.714844c-.09375-.050781-.195312-.074219-.296875-.074219-.101562 0-.203125.023438-.296875.074219" fill="#388e3c"/><path d="m42.449219 24.011719-.816406.453125c-.03125.015625-.046875.046875-.046875.082031v.90625c0 .035156.015625.066406.046875.082031l.816406.453125c.03125.015625.070312.015625.101562 0l.816407-.453125c.03125-.015625.050781-.046875.050781-.082031v-.90625c0-.035156-.019531-.066406-.050781-.082031l-.816407-.453125c-.015625-.007813-.035156-.011719-.050781-.011719s-.035156.003906-.050781.011719" fill="#388e3c"/><path d="m35.75 13.363281-2.386719-1.332031c-.078125-.042969-.167968-.042969-.242187.003906-.074219.042969-.121094.121094-.121094.207032v8.054687l-2.203125-1.222656c-.09375-.050781-.195312-.074219-.296875-.074219-.101562 0-.203125.023438-.296875.074219l-4.90625 2.714844c-.183594.101562-.296875.289062-.296875.492187v5.433594c0 .203125.113281.390625.296875.492187l4.90625 2.71875c.183594.097657.410156.097657.59375 0l4.90625-2.71875c.183594-.101562.296875-.289062.296875-.492187v-13.925781c0-.175782-.097656-.339844-.25-.425782zm-2.882812 13.09375-2.230469 1.234375c-.082031.046875-.1875.046875-.269531 0l-2.230469-1.234375c-.085938-.046875-.136719-.132812-.136719-.222656v-2.46875c0-.09375.050781-.179687.136719-.226562l2.230469-1.234375h-.003907c.042969-.023438.089844-.03125.136719-.03125s.09375.011718.136719.03125l2.226562 1.234375c.085938.046875.136719.132812.136719.226562v2.46875c0 .089844-.050781.175781-.132812.222656z" fill="#37474f"/><path d="m17.203125 19.121094-5.203125 8.640625c0 .203125.113281.390625.296875.492187l4.90625 2.71875c.183594.097657.410156.097657.59375 0l5.203125-8.644531c0-.203125-.113281-.390625-.296875-.492187l-4.90625-2.714844c-.09375-.050781-.195312-.074219-.296875-.074219-.101562 0-.203125.023438-.296875.074219" fill="#2e7d32"/><path d="m17.203125 19.121094-4.90625 2.714844c-.183594.101562-.296875.289062-.296875.492187l5.203125 8.644531c.183594.097657.410156.097657.59375 0l4.90625-2.71875c.183594-.101562.296875-.289062.296875-.492187l-5.203125-8.640625c-.09375-.050781-.195312-.074219-.296875-.074219-.101562 0-.203125.023438-.296875.074219" fill="#4caf50"/><g fill="#37474f"><path d="m47.703125 21.789063-4.90625-2.714844c-.09375-.050781-.195312-.074219-.296875-.074219-.101562 0-.203125.023438-.296875.074219l-4.90625 2.714844c-.183594.101562-.296875.296875-.296875.503906v5.410156c0 .210938.113281.402344.296875.503906l4.90625 2.71875c.1875.101563.410156.101563.59375 0l2.265625-1.253906c.207031-.113281.203125-.410156-.003906-.527344l-4.921875-2.683593c-.085938-.050782-.136719-.136719-.136719-.230469v-2.464844c0-.09375.050781-.175781.128906-.222656l2.234375-1.234375c.042969-.023438.089844-.035156.136719-.035156s.09375.011718.132813.035156l2.234375 1.238281c.082031.042969.132812.128906.132812.21875v2.011719c0 .085937.046875.167969.121094.210937.074219.039063.164062.039063.242187-.003906l2.398438-1.390625c.144531-.085937.238281-.246094.238281-.417969v-1.878906c0-.210937-.113281-.40625-.296875-.507812z"/><path d="m10.703125 21.789063-4.90625-2.714844c-.09375-.050781-.195312-.074219-.296875-.074219-.101562 0-.203125.023438-.296875.074219l-4.90625 2.714844c-.183594.101562-.296875.296875-.296875.503906v7.464844c0 .085937.046875.167968.121094.210937s.167969.042969.242187 0l2.398438-1.394531c.148437-.085938.238281-.246094.238281-.417969v-4.390625c0-.09375.050781-.179687.128906-.222656l2.234375-1.234375c.042969-.023438.089844-.035156.136719-.035156s.09375.011718.136719.035156l2.234375 1.234375c.078125.046875.128906.128906.128906.222656v4.390625c0 .171875.089844.332031.238281.417969l2.398438 1.394531c.078125.042969.167969.042969.242187 0 .074219-.042969.121094-.125.121094-.210937v-7.460938c0-.210937-.113281-.40625-.296875-.507812z"/></g></svg>