<svg fill="#666" height="50" viewBox="0 0 48 48" width="50" xmlns="http://www.w3.org/2000/svg"><path d="m40 45h-32v-42h22l10 10z" fill="#3f51b5"/><g fill="#e8eaf6"><path d="m37.5 14h-9.5v-9.5z"/><path d="m14.808594 29.5v3.5h-2.007813v-9.953125h3.390625c.984375 0 1.769532.304688 2.355469.917969.585938.609375.878906 1.402344.878906 2.378906 0 .972656-.292968 1.742188-.871093 2.308594s-1.378907.847656-2.40625.847656zm0-1.675781h1.382812c.382813 0 .679688-.125.886719-.375.210938-.25.316406-.613281.316406-1.09375 0-.496094-.109375-.890625-.320312-1.1875-.214844-.292969-.503906-.441406-.863281-.445313h-1.402344z"/><path d="m27.722656 33h-2.007812l-2.941406-6.527344v6.527344h-2.007813v-9.953125h2.007813l2.945312 6.535156v-6.535156h2.003906z"/><path d="m36.105469 31.871094c-.386719.417969-.863281.734375-1.425781.949219-.566407.210937-1.179688.316406-1.851563.316406-1.144531 0-2.03125-.355469-2.664062-1.0625-.636719-.710938-.960938-1.738281-.980469-3.09375v-1.792969c0-1.371094.300781-2.425781.898437-3.167969.601563-.738281 1.476563-1.109375 2.621094-1.109375 1.082031 0 1.898438.265625 2.445313.800782.550781.53125.867187 1.367187.953125 2.507812h-1.953125c-.054688-.632812-.1875-1.066406-.398438-1.296875-.207031-.226562-.535156-.34375-.984375-.34375-.542969 0-.9375.199219-1.179687.59375-.246094.398438-.375 1.027344-.386719 1.894531v1.804688c0 .90625.136719 1.566406.410156 1.980469.269531.410156.714844.617187 1.335938.617187.394531 0 .714843-.078125.960937-.238281l.179688-.125v-1.824219h-1.40625v-1.515625h3.421875v4.105469z"/></g></svg>