<svg fill="#666" height="50" viewBox="0 0 48 48" width="50" xmlns="http://www.w3.org/2000/svg"><path d="m38 44h-26v-40h26c2.199219 0 4 1.800781 4 4v32c0 2.199219-1.800781 4-4 4z" fill="#673ab7"/><path d="m10 4h2v40h-2c-2.199219 0-4-1.800781-4-4v-32c0-2.199219 1.800781-4 4-4z" fill="#311b92"/><path d="m36 24.199219c-.101562 4.800781-3.101562 6.902344-5.300781 6.699219-.597656-.097657-2.097656-.097657-2.898438-1.597657-.800781 1-1.800781 1.597657-3.101562 1.597657-2.597656 0-3.300781-2.5-3.398438-3.097657-.101562-.699218-.199218-1.402343-.101562-2.199218.101562-1 1.101562-6.5 5.699219-6.5 2.203125 0 3.5 1.097656 3.703125 1.296875l-.601563 6.800781c0 .300781-.199219 1.601562 1.101563 1.601562 2.097656 0 2.398437-3.902343 2.398437-4.601562.101563-1.199219.300781-8.199219-7-8.199219-6.898437 0-7.898437 7.398438-8 9.199219-.5 8.5 6 8.5 7.199219 8.5 1.699219 0 3.699219-.699219 3.902344-.800781l.398437 2c-.300781.203125-2 1.101562-4.398437 1.101562-2.203125 0-10.101563-.398437-9.800782-10.800781.300782-2.097656 1.597657-11.199219 10.800782-11.199219 9.199218 0 9.398437 8.101563 9.398437 10.199219zm-11.898437 1.300781c-.101563 1 0 1.800781.199218 2.300781.199219.5.597657.800782 1.199219.800782.101563 0 .300781 0 .398438-.101563.203125-.101562.300781-.101562.5-.300781.203125-.097656.300781-.300781.5-.597656.203125-.203125.300781-.601563.402343-1l.5-5.402344c-.199218-.097656-.5-.097656-.699218-.097656-.5 0-.902344.097656-1.203125.296875-.296875.203125-.597657.5-.898438.800781-.199219.402344-.398437.800781-.601562 1.300781-.199219.5-.199219 1.300781-.296875 2z" fill="#fff"/></svg>