<svg fill="#666" height="50" viewBox="0 0 48 48" width="50" xmlns="http://www.w3.org/2000/svg"><path d="m44 24c0 11.044-8.956 20-20 20s-20-8.956-20-20 8.956-20 20-20 20 8.956 20 20z" fill="#3f51b5"/><path d="m22 25v2.691c0 1.336-.219 2.465-.863 3.309h10.863l-.016 3h-15.984v-3h1.246c.395-.09.762-.449.977-1 .219-.551.266-1.23.266-2.133l-.044-2.867h-2.445v-3h2.352l-.121-3.496c0-2.012.633-3.598 1.898-4.762 1.266-1.16 2.926-1.742 4.98-1.742 2.051 0 3.668.539 4.84 1.625 1.176 1.086 1.762 2.539 1.762 4.371h-3.719c0-.938-.266-1.66-.797-2.18-.531-.516-1.273-.773-2.223-.773-.902 0-1.613.32-2.133.965-.523.644-.839 1.48-.839 2.512v3.48h5v3z" fill="#e8eaf6"/></svg>