<svg fill="#666" height="50" viewBox="0 0 48 48" width="50" xmlns="http://www.w3.org/2000/svg"><path d="m39.398438 23-.796875-4-12.601563 2.601563v-13.601563h-4v12.300781l-13.898437-9-2.203125 3.398438 15.203125 9.800781-11.703125 15.300781 3.203125 2.398438 11.296875-14.800781 8.402343 12.703125 3.398438-2.203125-8.398438-12.5z" fill="#cfd8dc"/><path d="m31 24c0 3.867188-3.132812 7-7 7-3.867187 0-7-3.132812-7-7 0-3.867187 3.132813-7 7-7 3.867188 0 7 3.132813 7 7z" fill="#3f51b5"/><g fill="#00bcd4"><path d="m29 8c0 2.761719-2.238281 5-5 5s-5-2.238281-5-5 2.238281-5 5-5 5 2.238281 5 5z"/><path d="m44 21c0 2.761719-2.238281 5-5 5s-5-2.238281-5-5 2.238281-5 5-5 5 2.238281 5 5z"/><path d="m12 13c0 2.761719-2.238281 5-5 5s-5-2.238281-5-5 2.238281-5 5-5 5 2.238281 5 5z"/><path d="m16 41c0 2.761719-2.238281 5-5 5s-5-2.238281-5-5 2.238281-5 5-5 5 2.238281 5 5z"/><path d="m39 39c0 2.761719-2.238281 5-5 5s-5-2.238281-5-5 2.238281-5 5-5 5 2.238281 5 5z"/></g></svg>