<svg fill="#666" height="50" viewBox="0 0 48 48" width="50" xmlns="http://www.w3.org/2000/svg"><path d="m37 9c-.402344-1.503906-1.34375-3-3-3h-20c-1.65625 0-2.574219 1.46875-3 3l-5 21v9h36v-9z" fill="#db8509"/><path d="m37 9c-.402344-1.503906-1.34375-3-3-3h-20c-1.65625 0-2.574219 1.46875-3 3l-5 21v9c0 1.65625 1.34375 3 3 3h30c1.65625 0 3-1.34375 3-3v-9zm-24.0625.503906c.089844-.316406.46875-1.503906 1.0625-1.503906h20c.515625 0 .90625.925781 1.0625 1.492188l4.882813 20.507812h-9.945313c0 3.3125-2.6875 6-6 6s-6-2.6875-6-6h-9.945312z" fill="#ffc107"/></svg>