<svg fill="#666" height="50" viewBox="0 0 48 48" width="50" xmlns="http://www.w3.org/2000/svg"><path d="m42 37c0 1.105469-.894531 2-2 2h-32c-1.105469 0-2-.894531-2-2v-22c0-1.105469.894531-2 2-2h32c1.105469 0 2 .894531 2 2z" fill="#03a9f4"/><path d="m33 16c0 1.105469-.894531 2-2 2h-14c-1.105469 0-2-.894531-2-2v-5c0-1.105469.894531-2 2-2h14c1.105469 0 2 .894531 2 2z" fill="#03a9f4"/><path d="m39 18c0 1.105469-.894531 2-2 2s-2-.894531-2-2 .894531-2 2-2 2 .894531 2 2z" fill="#fff"/><path d="m34 26c0 5.523438-4.476562 10-10 10-5.523437 0-10-4.476562-10-10 0-5.523437 4.476563-10 10-10 5.523438 0 10 4.476563 10 10z" fill="#b3e5fc"/><path d="m32 26c0 4.417969-3.582031 8-8 8s-8-3.582031-8-8 3.582031-8 8-8 8 3.582031 8 8z" fill="#01579b"/><path d="m20 30c0 1.171875.257813 2.285156.710938 3.285156 1.003906.457032 2.117187.714844 3.289062.714844 4.417969 0 8-3.582031 8-8 0-1.171875-.257812-2.285156-.714844-3.285156-1.003906-.457031-2.109375-.714844-3.285156-.714844-4.417969 0-8 3.582031-8 8z" fill="#0277bd"/></svg>