<svg fill="#666" height="50" viewBox="0 0 48 48" width="50" xmlns="http://www.w3.org/2000/svg"><path d="m35 44s-6-2-11-2-11 2-11 2v-12h22z" fill="#bf360c"/><path d="m14 28c0 2.210938-1.789062 4-4 4-2.210937 0-4-1.789062-4-4 0-2.210937 1.789063-4 4-4 2.210938 0 4 1.789063 4 4" fill="#ffa726"/><path d="m42 28c0 2.210938-1.789062 4-4 4-2.210937 0-4-1.789062-4-4 0-2.210937 1.789063-4 4-4 2.210938 0 4 1.789063 4 4" fill="#ffa726"/><path d="m38 18c0-12.726562-28-8.285156-28 0v9c0 8.285156 6.269531 15 14 15s14-6.714844 14-15z" fill="#ffb74d"/><path d="m32 26c0 1.105469-.894531 2-2 2s-2-.894531-2-2 .894531-2 2-2 2 .894531 2 2" fill="#784719"/><path d="m20 26c0 1.105469-.894531 2-2 2s-2-.894531-2-2 .894531-2 2-2 2 .894531 2 2" fill="#784719"/><path d="m24 4c-8.503906 0-21 5-21.125 32l10.125 8v-20l16.75-9 5.125 7 .125 22 10-8c0-12-.542969-29-15-29l-2-3z" fill="#ff5722"/><path d="m19 35h10s-2 3-5 3-5-3-5-3z" fill="#fb8c00"/></svg>