<svg fill="#666" height="50" viewBox="0 0 48 48" width="50" xmlns="http://www.w3.org/2000/svg"><path d="m43 36h-14v-22h10.558594c.859375 0 1.625.550781 1.898437 1.367188l3.542969 10.632812v8c0 1.105469-.894531 2-2 2" fill="#ffc107"/><path d="m29 36h-24c-1.105469 0-2-.894531-2-2v-25c0-1.105469.894531-2 2-2h22c1.105469 0 2 .894531 2 2z" fill="#009688"/><path d="m42 36c0 2.761719-2.238281 5-5 5s-5-2.238281-5-5 2.238281-5 5-5 5 2.238281 5 5" fill="#5d4037"/><path d="m18 36c0 2.761719-2.238281 5-5 5s-5-2.238281-5-5 2.238281-5 5-5 5 2.238281 5 5" fill="#5d4037"/><path d="m39 36c0 1.105469-.894531 2-2 2s-2-.894531-2-2 .894531-2 2-2 2 .894531 2 2" fill="#bcaaa4"/><path d="m15 36c0 1.105469-.894531 2-2 2s-2-.894531-2-2 .894531-2 2-2 2 .894531 2 2" fill="#bcaaa4"/><path d="m41 25h-7c-.550781 0-1-.449219-1-1v-7c0-.550781.449219-1 1-1h5c.433594 0 .8125.273438.949219.683594l2 6c.03125.101562.050781.210937.050781.316406v1c0 .550781-.449219 1-1 1" fill="#795548"/><path d="m3 17h26v8h-26z" fill="#4db6ac"/></svg>