<svg fill="#666" height="50" viewBox="0 0 48 48" width="50" xmlns="http://www.w3.org/2000/svg"><path d="m5 19h38v19h-38z" fill="#cfd8dc"/><path d="m5 38h38v4h-38z" fill="#b0bec5"/><path d="m12 24h24v18h-24z" fill="#e3f2fd"/><path d="m13 25h22v17h-22z" fill="#2196f3"/><path d="m35 42h-22v-7l22-10z" fill="#64b5f6"/><path d="m27 19c0 1.65625-1.34375 3-3 3s-3-1.34375-3-3 1.34375-3 3-3 3 1.34375 3 3" fill="#d84315"/><path d="m39 19c0 1.65625-1.34375 3-3 3s-3-1.34375-3-3 1.34375-3 3-3 3 1.34375 3 3" fill="#d84315"/><path d="m9 19c0 1.65625 1.34375 3 3 3s3-1.34375 3-3-1.34375-3-3-3-3 1.34375-3 3" fill="#d84315"/><g fill="#ff5722"><path d="m40 6h-32c-1.105469 0-2 .894531-2 2v3h36v-3c0-1.105469-.894531-2-2-2"/><path d="m21 11h6v8h-6z"/><path d="m37 11h-5l1 8h6z"/><path d="m11 11h5l-1 8h-6z"/></g><g fill="#ffa000"><path d="m33 19c0 1.65625-1.34375 3-3 3s-3-1.34375-3-3 1.34375-3 3-3 3 1.34375 3 3"/><path d="m45 19c0 1.65625-1.34375 3-3 3s-3-1.34375-3-3 1.34375-3 3-3z"/><path d="m15 19c0 1.65625 1.34375 3 3 3s3-1.34375 3-3-1.34375-3-3-3-3 1.34375-3 3"/><path d="m3 19c0 1.65625 1.34375 3 3 3s3-1.34375 3-3-1.34375-3-3-3z"/></g><path d="m32 11h-5v8h6z" fill="#ffc107"/><path d="m42 11h-5l2 8h6z" fill="#ffc107"/><path d="m16 11h5v8h-6z" fill="#ffc107"/><path d="m6 11h5l-2 8h-6z" fill="#ffc107"/><path d="m23 25h2v17h-2z" fill="#1976d2"/><path d="m23 30.453125v11.546875h2v-12.453125z" fill="#1e88e5"/><path d="m29 34c0 .550781-.449219 1-1 1s-1-.449219-1-1 .449219-1 1-1 1 .449219 1 1z" fill="#1e88e5"/><path d="m21 34c0 .550781-.449219 1-1 1s-1-.449219-1-1 .449219-1 1-1 1 .449219 1 1z" fill="#1e88e5"/></svg>