<svg fill="#666" height="50" viewBox="0 0 48 48" width="50" xmlns="http://www.w3.org/2000/svg"><path d="m11.699219 21.601563 5.101562 9.898437 9.5-3.898437 4.398438-12.703125-14.800781.800781z" fill="#e69329"/><path d="m22.800781 36c0 4.308594-3.492187 7.800781-7.800781 7.800781s-7.800781-3.492187-7.800781-7.800781 3.492187-7.800781 7.800781-7.800781 7.800781 3.492187 7.800781 7.800781z" fill="#546e7a"/><path d="m15 27c-5 0-9 4-9 9s4 9 9 9 9-4 9-9-4-9-9-9zm0 16c-3.898437 0-7-3.101562-7-7 0-3.898437 3.101563-7 7-7 3.898438 0 7 3.101563 7 7 0 3.898438-3.101562 7-7 7z" fill="#90a4ae"/><path d="m14 33h2v8h-2z" fill="#90a4ae"/><path d="m12.898438 36c1 1.898438 3.203125 2.699219 5.101562 1.699219l16.5-8.5c1-.5 1.699219-1.199219 2.199219-1.898438 1.699219-3.199218 5.601562-10.699218 8.199219-17.199218l-18.199219 8.699218-4.800781 7.199219-6.796875 3.601563c-2.601563 1.296875-3.402344 4.199218-2.203125 6.398437z" fill="#ffb74d"/><path d="m30.199219 3-16.5 6.300781c-.699219.199219-1.5 1-2.199219 1.699219l-5.601562 7.5c-1 1.5-1.199219 3.398438-.5 5.101563.402343 1 1.703125 3.398437 3.101562 6.097656 1.601563-1.699219 3.898438-2.699219 6.5-2.699219.398438 0 .898438 0 1.300781.101563l-2.101562-4.203125 4.601562-4.097657h8s15.5-2.199218 18.199219-8.699218z" fill="#ffb74d"/><path d="m18.199219 36c-1.300781.601563-2.800781 0-3.300781-1.300781-.597657-1.300781 0-2.800781 1.300781-3.300781 1.199219-.597657 3.199219 4 2 4.601562z" fill="#ffcdd2"/></svg>