<svg fill="#666" height="50" viewBox="0 0 48 48" width="50" xmlns="http://www.w3.org/2000/svg"><path d="m44 24c0 11.044-8.956 20-20 20s-20-8.956-20-20 8.956-20 20-20 20 8.956 20 20z" fill="#ffc107"/><g fill="#fff8e1"><path d="m17 34v-20h8.199c2.41 0 4.234.465 5.48 1.395s1.867 2.293 1.867 4.086c0 .98-.25 1.844-.746 2.59-.5.746-1.195 1.293-2.086 1.641 1.016.258 1.816.773 2.402 1.555.587.776.884 1.725.884 2.854 0 1.922-.609 3.379-1.828 4.367s-2.953 1.492-5.207 1.512zm4-12h4.363c2.063-.035 3.098-.824 3.098-2.445 0-.906-.262-1.559-.785-1.957s-1.348-.598-2.477-.598h-4.199zm0 3v6h4.844c.961 0 3.156-.469 3.156-2.609s-1.117-3.364-3-3.391z"/><path d="m20 11h3v5h-3z"/><path d="m25 11h3v5h-3z"/><path d="m20 32h3v5h-3z"/><path d="m25 32h3v5h-3z"/></g></svg>