<svg fill="#666" height="50" viewBox="0 0 48 48" width="50" xmlns="http://www.w3.org/2000/svg"><path d="m40 45h-32v-42h22l10 10z" fill="#ff80ab"/><path d="m38.5 14h-9.5v-9.5z" fill="#fce4ec"/><g fill="#e91e63"><path d="m11.707031 33v-9.953125h2.632813c1.160156 0 2.085937.367188 2.777344 1.105469.691406.738281 1.042968 1.75 1.058593 3.035156v1.613281c0 1.308594-.347656 2.335938-1.039062 3.082032-.6875.746093-1.640625 1.117187-2.851563 1.117187zm2.011719-8.277344v6.609375h.601563c.667968 0 1.140625-.175781 1.414062-.53125.273438-.351562.417969-.960937.429688-1.828125v-1.726562c0-.929688-.128907-1.578125-.390625-1.945313-.257813-.367187-.699219-.558593-1.324219-.578125z"/><path d="m22.242188 23.046875 1.878906 7.199219 1.871094-7.199219h2.625v9.953125h-2.015625v-2.691406l.183593-4.152344-1.988281 6.84375h-1.367187l-1.988282-6.84375.1875 4.148438v2.695312h-2.011718v-9.953125z"/><path d="m37 31.871094c-.386719.417969-.863281.734375-1.425781.949219-.5625.210937-1.179688.316406-1.847656.316406-1.144532 0-2.035157-.355469-2.667969-1.0625-.632813-.710938-.960938-1.738281-.976563-3.09375v-1.792969c0-1.371094.300782-2.425781.898438-3.167969.597656-.738281 1.472656-1.109375 2.621094-1.109375 1.078125 0 1.894531.265625 2.445312.800782.546875.53125.863281 1.367187.949219 2.507812h-1.953125c-.054688-.632812-.1875-1.066406-.394531-1.296875-.210938-.226562-.539063-.34375-.984375-.34375-.542969 0-.9375.199219-1.183594.59375-.246094.398438-.375 1.027344-.382813 1.894531v1.804688c0 .90625.136719 1.566406.40625 1.980469.269532.410156.71875.617187 1.335938.617187.394531 0 .71875-.078125.964844-.238281l.175781-.125v-1.824219h-1.40625v-1.515625h3.425781z"/></g></svg>