<svg fill="#666" height="50" viewBox="0 0 48 48" width="50" xmlns="http://www.w3.org/2000/svg"><path d="m42 12c0 4.417969-3.582031 8-8 8s-8-3.582031-8-8 3.582031-8 8-8 8 3.582031 8 8z" fill="#ffeb3b"/><g fill="#fffde7"><path d="m33 5h2v14h-2z"/><path d="m27 11h14v2h-14z"/><path d="m28.34375 7.757813 1.414063-1.414063 9.898437 9.898438-1.414062 1.414062z"/><path d="m29.757813 17.65625-1.414063-1.414062 9.898438-9.898438 1.414062 1.414063z"/></g><path d="m34 5.5c3.585938 0 6.5 2.914063 6.5 6.5 0 3.585938-2.914062 6.5-6.5 6.5-3.585937 0-6.5-2.914062-6.5-6.5 0-3.585937 2.914063-6.5 6.5-6.5m0-1.5c-4.417969 0-8 3.582031-8 8s3.582031 8 8 8 8-3.582031 8-8-3.582031-8-8-8z" fill="#ffc107"/><path d="m29.851563 17h1.464843l3.683594-5h-7.5c0 2.007813.914063 3.808594 2.351563 5z" fill="#ffb300"/><g fill="#90caf9"><path d="m20 28.53125h2v13.46875h-2z"/><path d="m29 43s-7-1-7-4-2-3-2 0-7 4-7 4c-.554687 0-1 .445313-1 1h18c0-.554687-.445312-1-1-1z"/><path d="m7 12 3.683594 5h17.078125c-1.101563-1.371094-1.761719-3.105469-1.761719-5z"/></g><path d="m27.5 12h-1.5c0 1.894531.660156 3.628906 1.761719 5h2.089844c-1.4375-1.191406-2.351563-2.992187-2.351563-5z" fill="#fb8c00"/><path d="m9.945313 16 9.621093 13.054688s1.324219 2.074218 2.894532-.035157c1.570312-2.113281 9.59375-13.019531 9.59375-13.019531z" fill="#f50057"/></svg>