<svg fill="#666" height="50" viewBox="0 0 48 48" width="50" xmlns="http://www.w3.org/2000/svg"><path d="m39.988281 12s1 23-15.816406 32c-17.160156-9-16.160156-32-16.160156-32 7.996094 0 15.988281-8 15.988281-8s6.996094 8 15.988281 8z" fill="#ab47bc"/><path d="m22.6875 27.460938c0-1.132813.136719-2.03125.414063-2.699219.277343-.671875.785156-1.332031 1.519531-1.980469.738281-.648437 1.230469-1.179687 1.472656-1.585937.246094-.410157.367188-.839844.367188-1.292969 0-1.363281-.636719-2.046875-1.90625-2.046875-.601563 0-1.082032.183594-1.445313.550781-.363281.367188-.550781.875-.566406 1.523438h-3.542969c.015625-1.542969.519531-2.75 1.507813-3.621094.988281-.871094 2.339843-1.308594 4.046875-1.308594 1.726562 0 3.0625.414063 4.019531 1.242188.949219.828125 1.425781 1.992187 1.425781 3.503906 0 .6875-.152344 1.332031-.464844 1.941406-.308593.613281-.851562 1.289063-1.625 2.03125l-.984375.929688c-.621093.589843-.976562 1.28125-1.066406 2.074218l-.046875.738282zm-.355469 3.707031c0-.539063.1875-.980469.558594-1.332031.367188-.351563.84375-.527344 1.421875-.527344s1.050781.175781 1.421875.527344c.371094.351562.554688.792968.554688 1.332031 0 .527344-.179688.96875-.542969 1.3125s-.84375.519531-1.433594.519531c-.59375 0-1.074219-.175781-1.4375-.519531-.359375-.34375-.542969-.785156-.542969-1.3125z" fill="#f3e5f5"/></svg>