<svg fill="#666" height="50" viewBox="0 0 48 48" width="50" xmlns="http://www.w3.org/2000/svg"><path d="m40 45h-32v-42h22l10 10z" fill="#ba68c8"/><path d="m38.5 14h-9.5v-9.5z" fill="#f3e5f5"/><path d="m28 28.898438c0 1.300781-.300781 2.402343-.898437 3.101562-.601563.699219-1.5 1.101563-2.601563 1.101563-1.101562 0-2-.402344-2.601562-1.101563-.597657-.699219-1-1.800781-1-3.101562v-1.699219c0-1.398438.300781-2.398438 1-3.199219.601562-.800781 1.5-1.199219 2.601562-1.199219 1.101563 0 2 .398438 2.601563 1.097657.597656.800781 1 1.800781 1 3.203125v1.796875zm-2-1.597657c0-.902343-.101562-1.601562-.398437-2-.300782-.402343-.703125-.699218-1.203125-.699218s-.898438.199218-1.199219.597656c-.300781.402344-.398438 1.101562-.398438 1.902344v1.796875c0 .902343.097657 1.5.398438 1.902343.300781.398438.699219.597657 1.199219.597657s.902343-.199219 1.203125-.597657c.296875-.402343.398437-1 .398437-1.902343zm-13 5.699219v-10h2.601563c1.199218 0 2.097656.398438 2.796875 1.101563.703125.699218 1 1.796875 1.101562 3v1.597656c0 1.300781-.300781 2.300781-1 3.101562-.699219.699219-1.601562 1.097657-2.898437 1.097657h-2.601563zm2-8.300781v6.601562h.601563c.699218 0 1.097656-.199218 1.398437-.5.300781-.402343.398438-1 .398438-1.800781v-1.699219c0-.902343-.097657-1.601562-.398438-1.902343-.300781-.398438-.699219-.597657-1.300781-.597657h-.699219zm20.898438 5.101562c-.097657 1.097657-.398438 2-1 2.597657-.597657.601562-1.398438.902343-2.5.902343-1.097657 0-2-.402343-2.597657-1.101562-.601562-.699219-.902343-1.800781-.902343-3.199219v-1.699219c0-1.402343.300781-2.402343.902343-3.199218.597657-.703125 1.5-1.101563 2.597657-1.101563 1.101562 0 1.902343.300781 2.5.898438.601562.601562.902343 1.5 1 2.601562h-2c0-.699219-.097657-1.199219-.296875-1.5-.203125-.300781-.601563-.398437-1.101563-.398437s-.898437.199218-1.101562.597656c-.199219.402344-.296875 1-.398438 1.902344v1.898437c0 1 .101563 1.699219.300781 2 .199219.398438.597657.601563 1.097657.601563s.902343-.101563 1.101562-.402344.300781-.699219.300781-1.398438z" fill="#4a148c"/></svg>