<svg fill="#666" height="50" viewBox="0 0 48 48" width="50" xmlns="http://www.w3.org/2000/svg"><path d="m12 15h-3c0 6 5 17 5 17 1 0 3-5 3-5-2-3-5-10-5-10 0-1.226562 0-2 0-2z" fill="#00838f"/><path d="m12 16c0 .554688-.445312 1-1 1h-3c-.554687 0-1-.445312-1-1v-1c0-.554687.445313-1 1-1h3c.554688 0 1 .445313 1 1z" fill="#00838f"/><path d="m29 25.003906s0 3.996094 1 5.996094h-12s1-1.996094 1-5.996094z" fill="#00838f"/><path d="m19 29 3 1h7s5 0 7.125 9.5c0 0 .875 3.5.875 5.5h-20l-1-3.058594z" fill="#00acc1"/><path d="m6.023438 9.480469c.105468 1.285156 1.066406 2.304687 2.316406 2.519531h2.253906c.535156-.371094 3.285156-2.597656-.59375-7 1.125 3.371094-.65625 3.453125-.625 2.4375 0-2.25-.25-3.3125-1.375-4.4375 0 2.898438-1.863281 3.007813-1.988281 6.132813-.003906.039062-.011719.082031-.011719.121093 0 .015625.003906.035157.003906.054688 0 .050781-.003906.09375-.003906.148437z" fill="#ffc107"/><g fill="#0097a7"><path d="m14.058594 37.988281c.132812 1.21875.5625 3.28125 1.941406 3.953125 2 .976563 3-10.730468 3-12.683593 0-.070313-.007812-.125-.019531-.164063-.214844.921875-2.128906 8.78125-4.921875 8.894531z"/><path d="m30 45h6c0-.011719.050781-2.808594.074219-5.699219-.371094-1.589843-.816406-2.910156-1.3125-4.003906l-2.761719 5.132813s-.125-2.25-1.3125-4.222657c.699219 2.941407-.503906 6.722657-.667969 7.222657z"/><path d="m39 45 3-6-1-1-3.539062 7z"/><path d="m24 18c.386719 0 .75.03125 1.09375.085938l-1.09375-5.085938-1.09375 5.074219c.34375-.046875.707031-.074219 1.09375-.074219z"/><path d="m20.039063 19.535156c.453125-.550781 1.03125-.96875 1.777343-1.21875l-3.539062-3.316406z"/><path d="m34 24.003906-5-.992187c0-.003906 0-.007813 0-.011719 0 .597656-.363281 1.542969-1.074219 2.214844z"/><path d="m28.335938 20.199219c.332031.585937.527343 1.277344.609375 2.046875l4.035156-3.640625z"/><path d="m27.933594 19.625c-.003906-.003906-.003906-.003906-.007813-.007812l1.796875-4.617188-3.574218 3.351563c.746093.273437 1.328125.714843 1.785156 1.273437z"/><path d="m19.609375 20.179688-4.589844-1.574219 4.03125 3.636719c.070313-.800782.257813-1.488282.558594-2.0625z"/><path d="m19.003906 23.019531-3.835937.753907c.089844.171875.179687.347656.269531.519531l4.664063.9375c-.609375-.496094-1.09375-1.234375-1.097657-2.210938z"/><path d="m22 26c-1 0-3-.996094-3-3 0-3.3125 1.6875-5 5-5s5 2 5 5c0 1-1 3-3 3z"/></g><path d="m21 26.003906c-2-2-1-7.003906 3-7.003906s5 5.003906 3 7z" fill="#006064"/><path d="m26 27.40625h-4v2.667969s.113281 1.925781 1.996094 1.925781c1.886719 0 2.003906-1.925781 2.003906-1.925781z" fill="#006064"/><g fill="#00bcd4"><path d="m13 13.003906c0 .550782-.445312 1-1 1h-5c-.554687 0-1-.449218-1-1v-1.003906h7z"/><path d="m17 26c-.246094-.121094-.492187-.183594-.734375-.199219.253906.441407.5.847657.734375 1.199219 0 0-2 5-3 5 0 0-.570312-1.257812-1.324219-3.148437-.570312 1.511718-1.675781 4.660156-1.675781 6.148437 0 0 1 3 3 3 3 0 5-9 5-9s0-2-2-3z"/><path d="m8.429688 17 .570312 4h1l.570313-4z"/><path d="m27 24c0-2.207031-1.34375-3-3-3s-3 .792969-3 3v1c0 2.203125 1.34375 4 3 4s3-1.796875 3-4c0-.171875 0-.828125 0-1z"/><path d="m24 18c-3.3125 0-5 1.6875-5 5 0 1.28125.816406 2.144531 1.671875 2.605469-1.539062-2.191406-.429687-6.605469 3.328125-6.605469 3.8125 0 4.894531 4.539063 3.253906 6.695313 1.160157-.59375 1.746094-1.933594 1.746094-2.695313 0-3-1.6875-5-5-5z"/></g><path d="m41 38-5-2-4 7.289063v1.710937h5.460938z" fill="#4dd0e1"/></svg>