<svg fill="#666" height="50" viewBox="0 0 48 48" width="50" xmlns="http://www.w3.org/2000/svg"><path d="m44 24c0 11.046875-8.953125 20-20 20s-20-8.953125-20-20 8.953125-20 20-20 20 8.953125 20 20z" fill="#455a64"/><path d="m32.398438 22h-16.796875c-.902344 0-1.601563.699219-1.601563 1.601563v8.796875c0 .902343.699219 1.601562 1.601563 1.601562h16.796875c.902343 0 1.601562-.699219 1.601562-1.601562v-8.796875c0-.902344-.699219-1.601563-1.601562-1.601563zm-15.398438 10c0 .5-.5 1-1 1s-1-.5-1-1v-8c0-.5.5-1 1-1s1 .5 1 1zm8-4.300781v4.300781h-2v-4.300781c-.601562-.300781-1-1-1-1.699219 0-1.101562.898438-2 2-2 1.101563 0 2 .898438 2 2 0 .699219-.398437 1.398438-1 1.699219zm5-7.699219h-2v-3c0-2.199219-1.800781-4-4-4s-4 1.800781-4 4v3h-2v-3c0-3.300781 2.699219-6 6-6s6 2.699219 6 6z" fill="#fff"/></svg>