<svg fill="#666" height="50" viewBox="0 0 48 48" width="50" xmlns="http://www.w3.org/2000/svg"><g fill="#455a64"><path d="m34.4 44.8-3-2c-.2-.2-.4-.4-.4-.7l-.9-6.6-3.7-2.8 1.2-1.6 4 3c.2.2.4.4.4.7l.9 6.6 2.6 1.8z"/><path d="m35.3 33.7-2-2c-.1-.1-.2-.3-.3-.5l-.8-3.4-4.4-.8.4-2 5 1c.4.1.7.4.8.7l.9 3.7 1.8 1.8z"/><path d="m29.4 22.9-.7-1.9 3.9-1.6-2.4-4c-.2-.3-.2-.7 0-1.1l2-3 1.7 1.1-1.7 2.6 2.7 4.5c.2.3.2.6.1.8-.1.3-.3.5-.6.6z"/><path d="m13.6 44.8-1.1-1.7 2.6-1.8.9-6.6c0-.3.2-.5.4-.7l4-3 1.2 1.6-3.7 2.8-.9 6.7c0 .3-.2.5-.4.7z"/><path d="m12.7 33.7-1.4-1.4 1.8-1.8.9-3.7c.1-.4.4-.7.8-.7l5-1 .4 2-4.4.9-.8 3.2c0 .2-.1.3-.3.5z"/><path d="m18.6 22.9-5-2c-.3-.1-.5-.3-.6-.6-0-.3-0-.6.1-.8l2.7-4.5-1.6-2.5 1.7-1.1 2 3c.2.3.2.7 0 1.1l-2.4 4 3.9 1.6z"/></g><path d="m26 14h-2c0-9.8 14.3-11 14.9-11l.1 2c-.1 0-13 1-13 9z" fill="#4db6ac"/><path d="m24 14h-2c0-8-12.9-9-13.1-9l.1-2c.7 0 15 1.2 15 11z" fill="#4db6ac"/><path d="m27 20.8c0 1.7-1.4 3-3 3s-3-1.4-3-3v-5.8c0-1.7 1.4-3 3-3s3 1.4 3 3z" fill="#00695c"/><path d="m24 42c-6 0-7-22-7-22 0-1.1 4-2 7-2s7 .9 7 2c0 0-1 22-7 22z" fill="#26a69a"/><path d="m23 41.8c.3.1.6.2 1 .2s.7-.1 1-.2v-23.8c-.3 0-.7 0-1 0s-.7 0-1 0z" fill="#00897b"/></svg>