<svg fill="#666" height="50" viewBox="0 0 48 48" width="50" xmlns="http://www.w3.org/2000/svg"><path d="m6 42c4-2 6.609375-7.152344 7.871094-11.335937 1.445312-4.796875 2.9375-9.753907 10.386719-10.15625.179687-.007813.359375.042968.507812.148437l6.433594 4.539063c.214844.148437.339844.394531.339844.65625 0 13.730468-8.78125 16.148437-25.539063 16.148437z" fill="#ffc107"/><path d="m23.097656 20.507813c-.03125.066406-.074218.132812-.085937.207031-.207031 1.101562.199219 2.304687 1.164062 3.472656 1.582032 1.902344 4.28125 3.097656 6.304688 3.097656.230469 0 .449219-.019531.65625-.058593.210937-.039063.386719-.167969.507812-.347657l10.355469-20.878906h-9.988281z" fill="#e91e63"/></svg>