<svg fill="#666" height="50" viewBox="0 0 48 48" width="50" xmlns="http://www.w3.org/2000/svg"><path d="m9 20h30v13h-30z" fill="#37474f"/><path d="m39 33c0-3.3125-6.714844-6-15-6s-15 2.6875-15 6 6.714844 6 15 6 15-2.6875 15-6z" fill="#37474f"/><path d="m23.101563 8.199219-22.5 9.902344c-.800782.398437-.800782 1.5 0 1.898437l22.5 9.898438c.597656.203125 1.199218.203125 1.796875 0l22.5-9.898438c.800781-.398437.800781-1.5 0-1.898437l-22.5-9.902344c-.597657-.300781-1.199219-.300781-1.796875 0z" fill="#78909c"/><g fill="#37474f"><path d="m43.199219 20.398438-20-3.398438c-.5-.101562-1.097656.300781-1.199219.800781-.101562.5.300781 1.097657.800781 1.199219l19.199219 3.199219v14.800781c0 .601563.398438 1 1 1 .601563 0 1-.398437 1-1v-15.601562c0-.5-.398437-.898438-.800781-1z"/><path d="m45 37c0 1.105469-.894531 2-2 2s-2-.894531-2-2 .894531-2 2-2 2 .894531 2 2z"/><path d="m46 40c0 1.699219-3 6-3 6s-3-4.300781-3-6 1.300781-3 3-3 3 1.300781 3 3z"/></g></svg>