<svg fill="#666" height="50" viewBox="0 0 48 48" width="50" xmlns="http://www.w3.org/2000/svg"><path d="m42 36h-14v-20c0-1.101562.898438-2 2-2h8c.601563 0 1.199219.300781 1.601563.800781l6 7.699219c.296875.398438.398437.800781.398437 1.199219v8.300781c0 2.199219-1.800781 4-4 4z" fill="#ffc107"/><path d="m6 36h22v-24c0-2.199219-1.800781-4-4-4h-17c-2.800781 0-5 2.199219-5 5v19c0 2.199219 1.800781 4 4 4z" fill="#9575cd"/><path d="m42 36c0 2.761719-2.238281 5-5 5s-5-2.238281-5-5 2.238281-5 5-5 5 2.238281 5 5z" fill="#37474f"/><path d="m19 36c0 2.761719-2.238281 5-5 5s-5-2.238281-5-5 2.238281-5 5-5 5 2.238281 5 5z" fill="#37474f"/><path d="m39.5 36c0 1.378906-1.121094 2.5-2.5 2.5s-2.5-1.121094-2.5-2.5 1.121094-2.5 2.5-2.5 2.5 1.121094 2.5 2.5z" fill="#78909c"/><path d="m16.5 36c0 1.378906-1.121094 2.5-2.5 2.5s-2.5-1.121094-2.5-2.5 1.121094-2.5 2.5-2.5 2.5 1.121094 2.5 2.5z" fill="#78909c"/><path d="m42 26h-3.601562c-.296875 0-.5-.101562-.699219-.300781l-1.398438-1.398438c-.199218-.199218-.402343-.300781-.699218-.300781h-3.601563c-.601562 0-1-.398437-1-1v-6c0-.601562.398438-1 1-1h5.5c.300781 0 .601563.101563.800781.398438l4.5 5.402343c.097657.199219.199219.398438.199219.597657v2.601562c0 .601563-.398437 1-1 1z" fill="#455a64"/><path d="m15 11c-5 0-9 4-9 9s4 9 9 9 9-4 9-9-4-9-9-9zm0 10c-.601562 0-1-.398437-1-1 0-.601562.398438-1 1-1 .601563 0 1 .398438 1 1 0 .601563-.398437 1-1 1z" fill="#fff"/><path d="m16.898438 20.5c0-.199219.101562-.300781.101562-.5 0-.699219-.398437-1.398437-1-1.699219v-5.300781h-2v5.300781c-.601562.300782-1 1-1 1.699219 0 1.101563.898438 2 2 2 .199219 0 .300781 0 .5-.101562l2.300781 2.300781 1.398438-1.398438zm-1.898438.5c-.601562 0-1-.398437-1-1 0-.601562.398438-1 1-1 .601563 0 1 .398438 1 1 0 .601563-.398437 1-1 1z" fill="#37474f"/></svg>