<svg fill="#666" height="50" viewBox="0 0 48 48" width="50" xmlns="http://www.w3.org/2000/svg"><path d="m39.54 32.5c-.412-.953-1.348-1.511-2.322-1.499-.325.004-.653.072-.968.209l-1.14.5c-.02-.07-.04-.13-.06-.2-.412-.953-1.342-1.517-2.318-1.512-.324.002-.654.067-.972.202l-3.34 1.44-7.93 3.42-5.55-1.79c-.18.076-3.243 1.24-5.246 2.03l16.792 7.064 12.514-5.364-.75-1.21c1.27-.55 1.84-2.03 1.29-3.29z" fill="#e89531"/><path d="m43.79 33.5c-.41-.95-1.35-1.51-2.32-1.5-.33 0-.66.07-.97.21l-8.51 3.72c.04.63-.07 1.26-.31 1.86-.17.43-.4.82-.68 1.17-.84 1.04-2.11 1.67-3.5 1.67-.09 0-.19 0-.28-.01-.47-.03-.94-.13-1.38-.31l-.2-.08c-.291-.116-5.427-2.143-9.022-3.562-.492-.214-.734-.776-.536-1.278.203-.514.784-.767 1.297-.564l1.784.702c.016.005.029.003.045.009 2.746 1.076 6.089 2.403 7.074 2.794l.094.037s.001.001.001.001c.122.048.191.076.198.079.303.121.616.178.923.178.994 0 1.934-.597 2.324-1.577.511-1.283-.116-2.736-1.399-3.247-.322-.128-7.912-3.147-10.541-4.141-.806-.305-2.177-.661-3.382-.661-3.523 0-8.342 1.836-10.5 2.75l3.375 8.25 3.77-1.55 13.425 5.37c.3.12.62.18.93.18.34 0 .68-.07 1-.21l16-7c1.27-.55 1.84-2.03 1.29-3.29z" fill="#ffb74d"/><circle cx="26" cy="14" fill="#fff59d" r="10"/><path d="m32 14c0-3.553-3.088-6.384-6.726-5.957-2.621.308-4.793 2.388-5.199 4.996-.375 2.412.691 4.603 2.466 5.858.278.196.459.5.459.84v1.263h6v-1.267c0-.338.181-.64.457-.836 1.537-1.085 2.543-2.872 2.543-4.897z" fill="#fbc02d"/><path d="m23.002 20v3c0 1 .7 1.8 1.599 2 .2.6.8 1 1.399 1 .7 0 1.2-.4 1.399-1 .901-.2 1.601-1 1.601-2v-3z" fill="#283593"/><path d="m29 23v-1.9l-5.998.8v1.1c0 .3.1.6.2.9l5.798-.7c0-.1 0-.2 0-.2z" fill="#5c6bc0"/><path d="m28.957 14.457-1.414-1.414-1.543 1.543-1.543-1.543-1.414 1.414 1.957 1.957v3.586h2v-3.586z" fill="#fff"/></svg>