<svg fill="#666" height="50" viewBox="0 0 48 48" width="50" xmlns="http://www.w3.org/2000/svg"><path d="m31 17c.480469-.480469 2.109375-.035156 3.675781.550781 2.898438 1.671875 5.324219 3.449219 5.324219 3.449219s-5-14-15-14c-19 0-19 30-19 30l.316406-.335937c-.207031.839843-.316406 1.335937-.316406 1.335937l29-2c0-9-7.160156-15.839844-4-19z" fill="#ff3d00"/><path d="m31 17c.480469-.480469 2.113281-.035156 3.683594.554688-4.210938-2.425782-9.410156-4.617188-9.664063-.835938.210938 8.378906 3.980469 10.535156 3.980469 19.28125.261719 1.832031 1.214844 3.046875 2.46875 3.839844 2.152344-.679688 3.53125-1.878906 3.53125-3.839844 0-9-7.160156-15.839844-4-19z" fill="#dd2c00"/><g fill="#cfd8dc"><path d="m5 33h31v7h-31z"/><path d="m10 33.5c0 .828125-.671875 1.5-1.5 1.5s-1.5-.671875-1.5-1.5.671875-1.5 1.5-1.5 1.5.671875 1.5 1.5z"/><path d="m7 33.5c0 .828125-.671875 1.5-1.5 1.5s-1.5-.671875-1.5-1.5.671875-1.5 1.5-1.5 1.5.671875 1.5 1.5z"/><path d="m13 33.5c0 .828125-.671875 1.5-1.5 1.5s-1.5-.671875-1.5-1.5.671875-1.5 1.5-1.5 1.5.671875 1.5 1.5z"/><path d="m16 33.5c0 .828125-.671875 1.5-1.5 1.5s-1.5-.671875-1.5-1.5.671875-1.5 1.5-1.5 1.5.671875 1.5 1.5z"/><path d="m19 33.5c0 .828125-.671875 1.5-1.5 1.5s-1.5-.671875-1.5-1.5.671875-1.5 1.5-1.5 1.5.671875 1.5 1.5z"/><path d="m10 39.5c0 .828125-.671875 1.5-1.5 1.5s-1.5-.671875-1.5-1.5.671875-1.5 1.5-1.5 1.5.671875 1.5 1.5z"/><path d="m13 39.5c0 .828125-.671875 1.5-1.5 1.5s-1.5-.671875-1.5-1.5.671875-1.5 1.5-1.5 1.5.671875 1.5 1.5z"/><path d="m16 39.5c0 .828125-.671875 1.5-1.5 1.5s-1.5-.671875-1.5-1.5.671875-1.5 1.5-1.5 1.5.671875 1.5 1.5z"/><path d="m19 39.5c0 .828125-.671875 1.5-1.5 1.5s-1.5-.671875-1.5-1.5.671875-1.5 1.5-1.5 1.5.671875 1.5 1.5z"/><path d="m22 33.5c0 .828125-.671875 1.5-1.5 1.5s-1.5-.671875-1.5-1.5.671875-1.5 1.5-1.5 1.5.671875 1.5 1.5z"/><path d="m22 39.5c0 .828125-.671875 1.5-1.5 1.5s-1.5-.671875-1.5-1.5.671875-1.5 1.5-1.5 1.5.671875 1.5 1.5z"/><path d="m25 39.5c0 .828125-.671875 1.5-1.5 1.5s-1.5-.671875-1.5-1.5.671875-1.5 1.5-1.5 1.5.671875 1.5 1.5z"/><path d="m37 36.5c0 .828125-.671875 1.5-1.5 1.5s-1.5-.671875-1.5-1.5.671875-1.5 1.5-1.5 1.5.671875 1.5 1.5z"/><path d="m25 33.5c0 .828125-.671875 1.5-1.5 1.5s-1.5-.671875-1.5-1.5.671875-1.5 1.5-1.5 1.5.671875 1.5 1.5z"/><path d="m28 39.5c0 .828125-.671875 1.5-1.5 1.5s-1.5-.671875-1.5-1.5.671875-1.5 1.5-1.5 1.5.671875 1.5 1.5z"/><path d="m28 33.5c0 .828125-.671875 1.5-1.5 1.5s-1.5-.671875-1.5-1.5.671875-1.5 1.5-1.5 1.5.671875 1.5 1.5z"/><path d="m31 39.5c0 .828125-.671875 1.5-1.5 1.5s-1.5-.671875-1.5-1.5.671875-1.5 1.5-1.5 1.5.671875 1.5 1.5z"/><path d="m31 33.5c0 .828125-.671875 1.5-1.5 1.5s-1.5-.671875-1.5-1.5.671875-1.5 1.5-1.5 1.5.671875 1.5 1.5z"/><path d="m34 39.5c0 .828125-.671875 1.5-1.5 1.5s-1.5-.671875-1.5-1.5.671875-1.5 1.5-1.5 1.5.671875 1.5 1.5z"/><path d="m34 33.5c0 .828125-.671875 1.5-1.5 1.5s-1.5-.671875-1.5-1.5.671875-1.5 1.5-1.5 1.5.671875 1.5 1.5z"/><path d="m37 39.5c0 .828125-.671875 1.5-1.5 1.5s-1.5-.671875-1.5-1.5.671875-1.5 1.5-1.5 1.5.671875 1.5 1.5z"/><path d="m37 33.5c0 .828125-.671875 1.5-1.5 1.5s-1.5-.671875-1.5-1.5.671875-1.5 1.5-1.5 1.5.671875 1.5 1.5z"/><path d="m7 36.5c0 .828125-.671875 1.5-1.5 1.5s-1.5-.671875-1.5-1.5.671875-1.5 1.5-1.5 1.5.671875 1.5 1.5z"/><path d="m7 39.5c0 .828125-.671875 1.5-1.5 1.5s-1.5-.671875-1.5-1.5.671875-1.5 1.5-1.5 1.5.671875 1.5 1.5z"/><path d="m41.6875 20.015625c0-1.96875-1.605469-3.5625-3.585937-3.5625-1.984375 0-3.589844 1.59375-3.589844 3.5625 0 1.964844 1.605469 3.5625 3.589844 3.5625 1.980468 0 3.585937-1.597656 3.585937-3.5625z"/><path d="m37.101563 24.980469c-.695313-.140625-1.179688-.710938-1.21875-1.371094-.605469.261719-1.34375.089844-1.773438-.449219-.414062-.511718-.433594-1.210937-.101562-1.730468-.585938-.207032-1.007813-.757813-1.007813-1.417969 0-.6875.472656-1.269531 1.117188-1.4375-.382813-.550781-.363282-1.300781.09375-1.832031.441406-.519532 1.1875-.667969 1.78125-.386719.070312-.660156.574218-1.222656 1.257812-1.332031.6875-.121094 1.34375.25 1.625.851562.472656-.460937 1.21875-.570312 1.820313-.210937.59375.351562.867187 1.050781.6875 1.679687.664062-.039062 1.308593.351563 1.53125 1.007813 0 0 0 0 0-.007813.230468.660156-.019532 1.359375-.574219 1.738281.542969.390625.773437 1.101563.523437 1.738282-.253906.652343-.894531 1.03125-1.5625.960937.152344.640625-.132812 1.332031-.746093 1.671875-.605469.328125-1.351563.195313-1.8125-.273437-.25.5-.773438.820312-1.351563.820312-.097656 0-.191406 0-.289062-.019531zm.582031-2.949219v.007813c.324219.0625.585937.210937.796875.421875.132812-.261719.34375-.488282.625-.640625.273437-.148438.585937-.210938.875-.179688-.070313-.277344-.058594-.589844.0625-.890625.109375-.300781.3125-.527344.554687-.699219-.242187-.167968-.433593-.417968-.535156-.71875-.097656-.300781-.109375-.609375-.027344-.890625-.292968.019532-.605468-.039062-.878906-.199218-.269531-.171875-.472656-.398438-.601562-.671875-.210938.210937-.484375.359375-.796875.410156-.324219.050781-.625 0-.898438-.121094-.027344.292969-.140625.582031-.339844.820313-.210937.242187-.476562.398437-.765625.480468.167969.238282.269532.539063.269532.851563 0 .296875-.082032.566406-.230469.796875.261719.089844.492187.25.683594.480469.191406.25.304687.539062.324218.839843.179688-.078125.382813-.128906.59375-.128906.097657.003906.199219.011719.289063.03125z"/></g></svg>