<svg fill="#666" height="50" viewBox="0 0 48 48" width="50" xmlns="http://www.w3.org/2000/svg"><path d="m2 9h44v30h-44z" fill="#3f51b5"/><path d="m24 12 .546875 1.117188 1.222656.175781-.882812.867187.207031 1.230469-1.09375-.582031-1.09375.582031.210938-1.230469-.886719-.867187 1.222656-.175781zm-5.253906 1.582031.546875 1.117188 1.222656.179687-.882812.867188.207031 1.226562-1.09375-.578125-1.09375.578125.210937-1.226562-.886718-.867188 1.222656-.179687zm-3.734375 3.46875.546875 1.113282 1.222656.179687-.882812.867188.207031 1.226562-1.089844-.578125-1.09375.578125.207031-1.226562-.882812-.867188 1.222656-.179687zm14.242187-3.46875-.546875 1.117188-1.222656.179687.882813.867188-.207032 1.226562 1.09375-.578125 1.09375.578125-.210937-1.226562.886719-.867188-1.222657-.179687zm-10.507812 16.863282.546875 1.117187 1.222656.175781-.882812.871094.207031 1.226563-1.09375-.578125-1.09375.578125.210937-1.226563-.886718-.871094 1.222656-.175781zm10.507812 0-.546875 1.117187-1.222656.175781.882813.871094-.207032 1.226563 1.09375-.578125 1.09375.578125-.210937-1.226563.886719-.871094-1.222657-.175781zm3.734375-13.394532-.546875 1.113282-1.222656.179687.882813.867188-.207032 1.226562 1.089844-.578125 1.09375.578125-.207031-1.226562.882812-.867188-1.222656-.179687zm-17.976562 9.878907.546875 1.113281 1.222656.179687-.882812.867188.207031 1.226562-1.089844-.578125-1.09375.578125.207031-1.226562-.882812-.867188 1.222656-.179687zm17.976562 0-.546875 1.113281-1.222656.179687.882813.867188-.207032 1.226562 1.089844-.578125 1.09375.578125-.207031-1.226562.882812-.867188-1.222656-.179687zm1.242188-4.625.546875 1.117187 1.222656.179688-.882812.867187.207031 1.226563-1.09375-.578125-1.089844.578125.207031-1.226563-.886718-.867187 1.222656-.179688zm-20.460938 0 .546875 1.117187 1.222657.179688-.886719.867187.210937 1.226563-1.09375-.578125-1.09375.578125.210938-1.226563-.886719-.867187 1.222656-.179688zm10.230469 10.304687.546875 1.117188 1.222656.179687-.882812.867188.207031 1.226562-1.09375-.578125-1.09375.578125.210938-1.226562-.886719-.867188 1.222656-.179687z" fill="#ffeb3b"/></svg>