<svg fill="#666" height="50" viewBox="0 0 48 48" width="50" xmlns="http://www.w3.org/2000/svg"><path d="m44 24c0 11.045-8.955 20-20 20s-20-8.955-20-20 8.955-20 20-20 20 8.955 20 20z" fill="#9c27b0"/><path d="m25 26.801h-4.5v9h-4v-23.301h8.199c1.301 0 2.5.199 3.602.5 1 .301 1.898.801 2.598 1.301.703.598 1.301 1.301 1.602 2.199s.602 1.898.602 3c0 1.602-.402 2.898-1.102 3.898-.801 1-1.801 1.902-3.102 2.402l5.203 9.699v.199h-4.301zm-4.5-3.199h4.199c.699 0 1.402-.102 1.902-.301s1-.5 1.398-.801.602-.699.801-1.199.301-1 .301-1.602c0-.598-.102-1.098-.301-1.598s-.402-.902-.8-1.203c-.398-.297-.801-.598-1.398-.797-.5-.203-1.203-.301-2-.301h-4.102z" fill="#e1bee7"/></svg>