<svg fill="#666" height="50" viewBox="0 0 48 48" width="50" xmlns="http://www.w3.org/2000/svg"><path d="m36 44h-28v-36h20l8 8z" fill="#42a5f5"/><path d="m40 40h-28v-36h20l8 8z" fill="#90caf9"/><path d="m38.5 13h-7.5v-7.5z" fill="#e1f5fe"/><path d="m23.398438 29.898438c0-.199219 0-.398438.101562-.597657.101563-.199218.199219-.300781.300781-.5.097657-.199218.300782-.199218.5-.300781.199219-.101562.398438-.101562.597657-.101562.203125 0 .5 0 .703125.101562.199218.101563.398437.199219.5.300781.097656.097657.199218.300782.296875.5.101562.199219.101562.398438.101562.597657 0 .203125 0 .402343-.101562.601562-.097657.199219-.199219.300781-.296875.5-.101563.199219-.300782.199219-.5.300781-.203125.097657-.402344.097657-.703125.097657-.296875 0-.5 0-.597657-.097657-.101562-.101562-.402343-.199218-.5-.300781-.101562-.101562-.199218-.300781-.300781-.5-.101562-.199219-.101562-.398437-.101562-.601562zm2.703125-3.097657h-2.300782l-.402343-9.800781h3z" fill="#1976d2"/></svg>