<svg fill="#666" height="50" viewBox="0 0 48 48" width="50" xmlns="http://www.w3.org/2000/svg"><path d="m44 24c0 11-9 20-20 20s-20-9-20-20 9-20 20-20 20 9 20 20z" fill="#1e88e5"/><g fill="#fff"><path d="m18 26h2v6.7h-2z"/><path d="m26.1 28.3c-.2 0-.5-.1-.7-.3l-2.9-2.7c-.4-.4-.4-1 0-1.4s1-.4 1.4 0l2.9 2.7c.4.4.4 1 0 1.4-.1.2-.4.3-.7.3z"/><path d="m23.3 28.3c-.3 0-.5-.1-.7-.3-.4-.4-.4-1 0-1.4l2.9-2.7c.4-.4 1-.4 1.4 0s.4 1 0 1.4l-2.9 2.8c-.2.1-.5.2-.7.2z"/><path d="m24.7 32.3c-.8 0-1.6-.1-2.4-.4-.5-.2-.8-.8-.6-1.3s.8-.8 1.3-.6c.6.2 1.2.3 1.7.3 2.6 0 4.7-1.9 4.7-4.3s-2.1-4.3-4.7-4.3-4.7 1.9-4.7 4.3c0 .6-.4 1-1 1s-1-.4-1-1c0-3.5 3-6.3 6.7-6.3s6.7 2.8 6.7 6.3-3 6.3-6.7 6.3z"/><path d="m24.7 35.7c-4.2 0-7.9-2.3-9.5-5.9-.2-.5 0-1.1.5-1.3s1.1 0 1.3.5c1.3 2.9 4.3 4.7 7.7 4.7 4.6 0 8.3-3.4 8.3-7.7 0-4.2-3.7-7.7-8.3-7.7-3.4 0-6.4 1.9-7.7 4.7-.2.4-.7.7-1.1.6-.5-.1-.8-.5-.8-1v-12.7c0-.3.1-.5.3-.7.2-.1.4-.2.7-.2h15c.6 0 1 .4 1 1s-.4 1-1 1h-14v8.4c1.9-2 4.6-3.1 7.6-3.1 5.7 0 10.3 4.3 10.3 9.7s-4.6 9.7-10.3 9.7z"/><path d="m24.7 39c-6.8 0-12.6-4.6-13.7-10.8-.1-.5.3-1.1.8-1.2s1.1.3 1.2.8c1 5.3 5.9 9.2 11.7 9.2 3.2 0 6.3-1.2 8.5-3.3.4-.4 1-.4 1.4 0s.4 1 0 1.4c-2.6 2.5-6.1 3.9-9.9 3.9z"/><path d="m32.6 17.5c-.2 0-.4-.1-.6-.2-2.1-1.5-4.6-2.3-7.3-2.3-1.4 0-2.7.2-4 .6-.5.2-1.1-.1-1.3-.6s.1-1.1.6-1.3c1.5-.5 3-.7 4.6-.7 3.1 0 6 .9 8.5 2.7.4.3.5.9.2 1.4-.1.3-.4.4-.7.4z"/></g></svg>