<svg fill="#666" height="50" viewBox="0 0 48 48" width="50" xmlns="http://www.w3.org/2000/svg"><path d="m7 8h34c2.210938 0 4 1.789063 4 4v24c0 2.210938-1.789062 4-4 4h-34c-2.210937 0-4-1.789062-4-4v-24c0-2.210937 1.789063-4 4-4" fill="#2196f3"/><path d="m17.039063 28.726563h-4.292969l-.835938 3.273437h-3.328125l4.867188-16h2.882812l4.902344 16h-3.363281zm-3.609375-2.695313h2.914062l-1.457031-5.703125zm12.570312.34375v5.625h-3v-16h5c1.542969 0 2.769531.492188 3.6875 1.472656.917969.980469 1.3125 2.257813 1.3125 3.824219s-.390625 2.804688-1.296875 3.714844c-.90625.90625-2.160156 1.363281-3.765625 1.363281zm0-2.695312h2.117188c.597656 0 1.0625-.199219 1.390625-.601563s.492187-.988281.492187-1.757812c0-.800782-.167969-1.433594-.503906-1.910157-.335938-.46875-.785156-.710937-1.347656-.71875h-2.148438zm12 8.320312h-3v-16h3z" fill="#fff"/></svg>