<svg fill="#666" height="50" viewBox="0 0 48 48" width="50" xmlns="http://www.w3.org/2000/svg"><path d="m37 17c0-.199219 0-.300781 0-.5 0-3.601562-2.898437-6.5-6.5-6.5-1.699219 0-3.199219.699219-4.398437 1.699219-1.402344-2.800781-4.300782-4.699219-7.601563-4.699219-4.699219 0-8.5 3.800781-8.5 8.5 0 .5.101563 1 .101563 1.5-3.402344.398438-6.101563 3.300781-6.101563 6.898438 0 3.902343 3.101563 7 7 7h.101563c.296875.101562.597656.101562.898437.101562h25c3.898438 0 7-3.101562 7-7 0-3.898437-3.101562-7-7-7z" fill="#bbdefb"/><path d="m27 33v-14h-6v14h-5l8 9 8-9z" fill="#3f51b5"/></svg>