<svg fill="#666" height="50" viewBox="0 0 48 48" width="50" xmlns="http://www.w3.org/2000/svg"><path d="m42 14c0 .553-.447 1-1 1l-34 .001c-.552 0-1-.447-1-1v-7c0-.553.448-1 1-1l34-.001c.553 0 1 .447 1 1z" fill="#3f51b5"/><path d="m6 12.001h36v29.999h-36z" fill="#bbdefb"/><g fill="#eee"><circle cx="9" cy="9" r="1"/><circle cx="13" cy="9" r="1"/></g><path d="m37 33c0 .552-.448 1-1 1h-24c-.552 0-1-.448-1-1v-4c0-.552.448-1 1-1h24c.552 0 1 .448 1 1z" fill="#455a64"/><path d="m34 24c0 2.73-1.09 5.2-2.86 7h-14.28c-1.77-1.8-2.86-4.27-2.86-7 0-5.52 4.48-10 10-10s10 4.48 10 10z" fill="#ffc107"/><path d="m20.3 24 .7-6h6.6v2h-4.7l-.3 2.5c.6-.3 1.2-.4 1.8-.4 1.1 0 2 .4 2.7 1 .6.7 1 1.7 1 2.9 0 .8-.2 1.4-.5 2.1-.3.6-.8 1.1-1.4 1.4-.7.3-1.4.5-2.2.5-.7 0-1.4-.1-2-.4s-1.1-.7-1.5-1.2-.5-1.1-.6-1.8h2.3c0 .5.2.9.5 1.2s.7.4 1.2.4.9-.2 1.2-.6.4-.9.4-1.6-.2-1.2-.5-1.5c-.3-.4-.8-.5-1.4-.5s-1 .1-1.4.4l-.2.2z" fill="#fff8e1"/></svg>