<svg fill="#666" height="50" viewBox="0 0 48 48" width="50" xmlns="http://www.w3.org/2000/svg"><path d="m14 27c0 2.210938-1.789062 4-4 4-2.210937 0-4-1.789062-4-4 0-2.210937 1.789063-4 4-4 2.210938 0 4 1.789063 4 4" fill="#ffa726"/><path d="m42 27c0 2.210938-1.789062 4-4 4-2.210937 0-4-1.789062-4-4 0-2.210937 1.789063-4 4-4 2.210938 0 4 1.789063 4 4" fill="#ffa726"/><path d="m9 20c0-12.726562 30-8.285156 30 0v10c0 8.285156-6.714844 15-15 15s-15-6.714844-15-15z" fill="#ffb74d"/><path d="m40.890625 19.339844c-.472656-5.976563-2.5625-11.859375-9.890625-13.339844l-2-3h-5c-9.226562 0-17 7.480469-17 18v3.398438l3 3.601562v-6l21-7 7 6v7l3-3.601562v-3.398438c0-.5625-.042969-1.117187-.109375-1.660156" fill="#424242"/><path d="m33 28c0 1.105469-.894531 2-2 2s-2-.894531-2-2 .894531-2 2-2 2 .894531 2 2" fill="#784719"/><path d="m19 28c0 1.105469-.894531 2-2 2s-2-.894531-2-2 .894531-2 2-2 2 .894531 2 2" fill="#784719"/><path d="m19 37h10s-2 3-5 3-5-3-5-3z" fill="#fb8c00"/></svg>