<svg fill="#666" height="50" viewBox="0 0 48 48" width="50" xmlns="http://www.w3.org/2000/svg"><path d="m24 37-5-6v-6h10v6z" fill="#ff9800"/><path d="m35 19c0 1.105469-.894531 2-2 2s-2-.894531-2-2 .894531-2 2-2 2 .894531 2 2z" fill="#ffa726"/><path d="m17 19c0 1.105469-.894531 2-2 2s-2-.894531-2-2 .894531-2 2-2 2 .894531 2 2z" fill="#ffa726"/><path d="m33 13c0-7.601562-18-5-18 0v7c0 5 4 9 9 9s9-4 9-9c0-1.101562 0-5.898437 0-7z" fill="#ffb74d"/><path d="m24 4c-6.101562 0-10 4.898438-10 11v2.300781l2 1.699219v-5l12-4 4 4v5l2-1.699219s0-1.5 0-2.300781c0-4-1-8-6-9l-1-2z" fill="#ff5722"/><path d="m29 19c0 .550781-.449219 1-1 1s-1-.449219-1-1 .449219-1 1-1 1 .449219 1 1z" fill="#784719"/><path d="m21 19c0 .550781-.449219 1-1 1s-1-.449219-1-1 .449219-1 1-1 1 .449219 1 1z" fill="#784719"/><path d="m29 31-5 1-5-1s-11 2-11 13h32c0-11-11-13-11-13z" fill="#cfd8dc"/><path d="m23 35-1 9h4l-1-9 1-1-2-2-2 2z" fill="#3f51b5"/></svg>