<svg fill="#666" height="50" viewBox="0 0 48 48" width="50" xmlns="http://www.w3.org/2000/svg"><path d="m33.898438 12.101563h-19.699219l3.402344-5.101563c.398437-.601562 1-.898437 1.699218-.898437h9.597657c.703125 0 1.300781.296875 1.703125.898437z" fill="#512da8"/><path d="m14 11h-6v-1.800781c0-.699219.5-1.199219 1.199219-1.199219h3.601562c.699219 0 1.199219.5 1.199219 1.199219z" fill="#8667c4"/><path d="m40 42h-32c-2.199219 0-4-1.800781-4-4v-24c0-2.199219 1.800781-4 4-4h32c2.199219 0 4 1.800781 4 4v24c0 2.199219-1.800781 4-4 4z" fill="#5e35b1"/><path d="m36 26c0 6.628906-5.371094 12-12 12s-12-5.371094-12-12 5.371094-12 12-12 12 5.371094 12 12z" fill="#512da8"/><path d="m33 26c0 4.96875-4.03125 9-9 9s-9-4.03125-9-9 4.03125-9 9-9 9 4.03125 9 9z" fill="#b388ff"/><path d="m29 23c-1.199219-1.398437-3-2.199219-4.800781-2.199219s-3.597656.800782-4.800781 2.199219c-.5.5-.398438 1.300781.101562 1.800781s1.300781.398438 1.800781-.101562c1.5-1.699219 4.300782-1.699219 5.800782 0 .296875.300781.597656.402344 1 .402344.296875 0 .597656-.101563.898437-.300782.398438-.402343.5-1.300781 0-1.800781z" fill="#c7a7ff"/><path d="m13 13.5c0-.828125-.894531-1.5-2-1.5s-2 .671875-2 1.5.894531 1.5 2 1.5 2-.671875 2-1.5z" fill="#8667c4"/></svg>