<svg fill="#666" height="50" viewBox="0 0 48 48" width="50" xmlns="http://www.w3.org/2000/svg"><path d="m20 5h4 4v5h-8z" fill="#0d47a1"/><path d="m41.980469 37.019531c-.195313-18.789062-2.769531-25.476562-4.53125-27.238281l-.460938-.460937-7.988281-3.320313-5 3-5-3-8.007812 3.320313-.457032.457031c-1.757812 1.761719-4.339843 8.453125-4.535156 27.242187-.007812.652344 0 1.980469 0 1.980469h6s-.007812-1.328125 0-1.976562c.117188-10.679688 1.15625-17.089844 2-20.007813v25.984375h20v-25.96875c.851563 2.933594 1.863281 9.339844 1.980469 19.988281.007812.648438.019531 1.980469.019531 1.980469h6s-.011719-1.328125-.019531-1.980469z" fill="#90caf9"/><g fill="#2196f3"><path d="m24 9-4 4-3.109375-6.125 3.109375-1.875zm0 0 4 4 3.0625-6.125-3.0625-1.875z"/><path d="m24 9-2 2v32h4v-32z"/><path d="m6 39h6v4h-6z"/><path d="m36 39h6v4h-6z"/></g><path d="m22 13.828125 2-2 2 2v-2.828125l-2-2-2 2z" fill="#1976d2"/><path d="m25 12c0 .550781-.449219 1-1 1s-1-.449219-1-1 .449219-1 1-1 1 .449219 1 1z" fill="#bbdefb"/><g fill="#e3f2fd"><path d="m25 18c0 .550781-.449219 1-1 1s-1-.449219-1-1 .449219-1 1-1 1 .449219 1 1z"/><path d="m25 30c0 .550781-.449219 1-1 1s-1-.449219-1-1 .449219-1 1-1 1 .449219 1 1z"/><path d="m25 18c0 .550781-.449219 1-1 1s-1-.449219-1-1 .449219-1 1-1 1 .449219 1 1z"/><path d="m9 41c0 .550781-.449219 1-1 1s-1-.449219-1-1 .449219-1 1-1 1 .449219 1 1z"/><path d="m41 41c0 .550781-.449219 1-1 1s-1-.449219-1-1 .449219-1 1-1 1 .449219 1 1z"/><path d="m25 24c0 .550781-.449219 1-1 1s-1-.449219-1-1 .449219-1 1-1 1 .449219 1 1z"/><path d="m25 36c0 .550781-.449219 1-1 1s-1-.449219-1-1 .449219-1 1-1 1 .449219 1 1z"/></g></svg>