<svg fill="#666" height="50" viewBox="0 0 48 48" width="50" xmlns="http://www.w3.org/2000/svg"><path d="m6 10c0-2.210937 1.789063-4 4-4h28c2.210938 0 4 1.789063 4 4v28c0 2.210938-1.789062 4-4 4h-28c-2.210937 0-4-1.789062-4-4z" fill="#2196f3"/><g fill="#fff"><path d="m27 17h7v2h-7z"/><path d="m21.511719 23.429688c.585937-.285157 1.902344-.9375 1.902344-2.859375 0-3.617188-3.949219-3.570313-4.683594-3.570313h-6.730469v14h7.023438c.585937 0 4.976562-.164062 4.976562-4 0-2.476562-1.609375-3.285156-2.488281-3.570312zm-6.511719-4h2.929688c.289062 0 2.191406.101562 2.191406 1.570312s-1.460938 1.714844-1.898438 1.714844h-3.222656zm3.335938 9.140625h-3.367188v-3.855469h3.367188c.730468 0 2.339843.238281 2.339843 2s-2.046875 1.855469-2.339843 1.855469z"/><path d="m32.4375 28.394531c-.464844.289063-.929687.4375-1.546875.4375-2.328125 0-2.789062-1.960937-2.789062-2.832031h7.898437c0-.867187 0-1.511719-.15625-2.234375-.15625-.726562-1.214844-3.765625-5.109375-3.765625-5.445312 0-5.734375 4.777344-5.734375 5.5s.15625 1.59375.46875 2.171875c.308594.722656.617188 1.304688 1.082031 1.734375.464844.4375 1.082032.867188 1.703125 1.15625.773438.292969 1.550782.4375 2.324219.4375 1.238281 0 2.324219-.289062 3.253906-.867187.929688-.578125 1.550782-1.449219 2.011719-2.605469h-2.632812c-.152344.289062-.308594.578125-.773438.867187zm-1.703125-6.367187c1.519531 0 2.167969 1.589844 2.320313 2.3125h-4.953125c0-.140625.371093-2.3125 2.632812-2.3125z"/></g></svg>