<svg fill="#666" height="50" viewBox="0 0 48 48" width="50" xmlns="http://www.w3.org/2000/svg"><path d="m27 5s-3 3.1-3 9" fill="#fff"/><path d="m25 14h-2c0-6.3 3.2-9.6 3.3-9.7l1.4 1.4-.7-.7.7.7s-2.7 2.9-2.7 8.3z" fill="#795548"/><path d="m24 14s-1.3-12.5-14-8c1.4 13 14 8 14 8z" fill="#4caf50"/><path d="m6.3 25.9c-1.9-10 5.6-20.1 17.7-11.9 12.1-8.2 19.6 1.8 17.7 11.9-1.8 10.1-12.1 19.6-17.7 12.8-5.6 6.8-15.9-2.7-17.7-12.8z" fill="#d32f2f"/><path d="m32.4 13c-2.2 0-4.6.9-7.3 2.7l-1.1.8v19.2l1.5 1.8c.9 1 1.8 1.5 3 1.5 4 0 9.9-6 11.2-13.4.7-3.8-.1-7.7-2.1-10.1-1.3-1.6-3.1-2.5-5.2-2.5z" fill="#fff3e0"/><path d="m31.5 26.2c0 1.1-.9 2-2 2s-2-.9-2-2 2-3.4 2-3.4 2 2.3 2 3.4z" fill="#5d4037"/><path d="m24 14c-12.1-8.2-19.6 1.9-17.7 11.9 1.8 10.1 12.1 19.6 17.7 12.8z" fill="#f44336"/></svg>