<svg fill="#666" height="50" viewBox="0 0 48 48" width="50" xmlns="http://www.w3.org/2000/svg"><path d="m24 4v20l-10-17.319z" fill="#e91e63"/><path d="m34 6.681 7.319 7.319-17.319 10z" fill="#ff5722"/><path d="m24 4 10 2.681-10 17.319z" fill="#f44336"/><path d="m24 44v-20l10 17.319z" fill="#8bc34a"/><path d="m14 41.319-7.319-7.319 17.319-10z" fill="#03a9f4"/><path d="m24 44-10-2.681 10-17.319z" fill="#4caf50"/><path d="m44 24h-20l17.319-10z" fill="#ff9800"/><path d="m41.319 34-7.319 7.319-10-17.319z" fill="#ffeb3b"/><path d="m44 24-2.681 10-17.319-10z" fill="#ffc107"/><path d="m4 24h20l-17.319 10z" fill="#3f51b5"/><path d="m6.681 14 7.319-7.319 10 17.319z" fill="#9c27b0"/><path d="m4 24 2.681-10 17.319 10z" fill="#673ab7"/></svg>