<svg fill="#666" height="50" viewBox="0 0 48 48" width="50" xmlns="http://www.w3.org/2000/svg"><path d="m25 22h13l6 6v-17c0-2.199219-1.800781-4-4-4h-15c-2.199219 0-4 1.800781-4 4v7c0 2.199219 1.800781 4 4 4z" fill="#1565c0"/><path d="m23 19h-13l-6 6v-17c0-2.199219 1.800781-4 4-4h15c2.199219 0 4 1.800781 4 4v7c0 2.199219-1.800781 4-4 4z" fill="#2196f3"/><path d="m17 31c0 2.761719-2.238281 5-5 5s-5-2.238281-5-5 2.238281-5 5-5 5 2.238281 5 5z" fill="#ffa726"/><path d="m41 31c0 2.761719-2.238281 5-5 5s-5-2.238281-5-5 2.238281-5 5-5 5 2.238281 5 5z" fill="#ffa726"/><g fill="#607d8b"><path d="m20 42s-2.199219-4-8-4-8 4-8 4v2h16z"/><path d="m44 42s-2.199219-4-8-4-8 4-8 4v2h16z"/></g></svg>