<svg fill="#666" height="50" viewBox="0 0 48 48" width="50" xmlns="http://www.w3.org/2000/svg"><path d="m40.4375 42h-34v-29h34z" fill="#e8eaf6"/><path d="m6.4375 37h34v5h-34z" fill="#c5cae9"/><path d="m27.4375 42v-10.082031c0-2.164063-1.816406-3.917969-4.011719-3.917969-2.195312 0-3.976562 1.753906-3.976562 3.917969v10.082031z" fill="#d84315"/><path d="m31.4375 27h5v8h-5z" fill="#01579b"/><path d="m10.4375 27h5v8h-5z" fill="#01579b"/><path d="m42.4375 25h-12.792969l-6.207031-9.519531-6.207031 9.519531h-12.792969v-19h38z" fill="#d32f2f"/><path d="m24.9375 34c-.273437 0-.5.226563-.5.5v2c0 .273438.226563.5.5.5.277344 0 .5-.226562.5-.5v-2c0-.273437-.222656-.5-.5-.5" fill="#ff8a65"/><path d="m13.808594 25h3.421875l6.207031-9.519531 6.207031 9.519531h3.792969l-9.816406-15z" fill="#b71c1c"/></svg>