<svg fill="#666" height="50" viewBox="0 0 48 48" width="50" xmlns="http://www.w3.org/2000/svg"><path d="m34 34c-9.2 9.2-22.1 11.2-26.7 6.7s-2.5-17.5 6.7-26.7 22.2-11.2 26.7-6.7 2.5 17.5-6.7 26.7z" fill="#d84315"/><path d="m34 34c-9.2 9.2-22.1 11.2-26.7 6.7 7 0 16.2-9.8 19.9-13.5s13.5-13.5 13.5-19.9c4.5 4.5 2.5 17.5-6.7 26.7z" fill="#bf360c"/><path d="m17.5 32c-.4 0-.8-.1-1.1-.4-.6-.6-.6-1.5 0-2.1l13-13c.6-.6 1.5-.6 2.1 0s.6 1.5 0 2.1l-13 13c-.2.3-.6.4-1 .4z" fill="#ff8a65"/><path d="m29 27c0 1.1-.9 2-2 2s-2-.9-2-2 .9-2 2-2 2 .9 2 2z" fill="#872f14"/><path d="m23 21c0 1.1-.9 2-2 2s-2-.9-2-2 .9-2 2-2 2 .9 2 2z" fill="#872f14"/><path d="m27 28c-.3 0-.5-.1-.7-.3l-6-6c-.4-.4-.4-1 0-1.4s1-.4 1.4 0l6 6c.4.4.4 1 0 1.4-.2.2-.4.3-.7.3z" fill="#ffab91"/><path d="m33 23c0 1.1-.9 2-2 2s-2-.9-2-2 .9-2 2-2 2 .9 2 2z" fill="#872f14"/><path d="m27 17c0 1.1-.9 2-2 2s-2-.9-2-2 .9-2 2-2 2 .9 2 2z" fill="#872f14"/><path d="m31 24c-.3 0-.5-.1-.7-.3l-6-6c-.4-.4-.4-1 0-1.4s1-.4 1.4 0l6 6c.4.4.4 1 0 1.4-.2.2-.4.3-.7.3z" fill="#ffab91"/><path d="m25 31c0 1.1-.9 2-2 2s-2-.9-2-2 .9-2 2-2 2 .9 2 2z" fill="#872f14"/><path d="m19 25c0 1.1-.9 2-2 2s-2-.9-2-2 .9-2 2-2 2 .9 2 2z" fill="#872f14"/><path d="m23 32c-.3 0-.5-.1-.7-.3l-6-6c-.4-.4-.4-1 0-1.4s1-.4 1.4 0l6 6c.4.4.4 1 0 1.4-.2.2-.4.3-.7.3z" fill="#ffab91"/></svg>