<svg fill="#666" height="50" viewBox="0 0 48 48" width="50" xmlns="http://www.w3.org/2000/svg"><g fill="#ad1457"><path d="m36 4c0 9.300781-6 13.199219-12.800781 17.800781-7.097656 4.699219-15.199219 10-15.199219 22.199219h4c0-10.101562 6.5-14.398437 13.398438-18.898437 6.800781-4.5 14.601562-9.703125 14.601562-21.101563z"/><path d="m38 41h-27c-.601562 0-1-.398437-1-1 0-.601562.398438-1 1-1h27c.601563 0 1 .398438 1 1 0 .601563-.398437 1-1 1z"/><path d="m36 37h-24c-.601562 0-1-.398437-1-1 0-.601562.398438-1 1-1h24c.601563 0 1 .398438 1 1 0 .601563-.398437 1-1 1z"/><path d="m34 33h-20c-.601562 0-1-.398437-1-1 0-.601562.398438-1 1-1h20c.601563 0 1 .398438 1 1 0 .601563-.398437 1-1 1z"/><path d="m29 29h-10c-.601562 0-1-.398437-1-1 0-.601562.398438-1 1-1h10c.601563 0 1 .398438 1 1 0 .601563-.398437 1-1 1z"/></g><g fill="#e91e63"><path d="m37 9h-27c-.601562 0-1-.398437-1-1 0-.601562.398438-1 1-1h27c.601563 0 1 .398438 1 1 0 .601563-.398437 1-1 1z"/><path d="m36 13h-24c-.601562 0-1-.398437-1-1 0-.601562.398438-1 1-1h24c.601563 0 1 .398438 1 1 0 .601563-.398437 1-1 1z"/><path d="m34 17h-20c-.601562 0-1-.398437-1-1 0-.601562.398438-1 1-1h20c.601563 0 1 .398438 1 1 0 .601563-.398437 1-1 1z"/><path d="m29 21h-10c-.601562 0-1-.398437-1-1 0-.601562.398438-1 1-1h10c.601563 0 1 .398438 1 1 0 .601563-.398437 1-1 1z"/><path d="m40 44h-4c0-10.101562-6.5-14.398437-13.398437-18.898437-6.800782-4.5-14.601563-9.703125-14.601563-21.101563h4c0 9.300781 6 13.199219 12.800781 17.800781 7.097657 4.699219 15.199219 10 15.199219 22.199219z"/></g></svg>