<svg fill="#666" height="50" viewBox="0 0 48 48" width="50" xmlns="http://www.w3.org/2000/svg"><path d="m40 45h-32v-42h22l10 10z" fill="#4db6ac"/><path d="m38.5 14h-9.5v-9.5z" fill="#e0f2f1"/><g fill="#00695c"><path d="m14 33v-9.953125h2.632813c1.160156 0 2.085937.367188 2.777343 1.105469.691407.738281 1.042969 1.75 1.058594 3.035156v1.613281c0 1.308594-.347656 2.335938-1.039062 3.082032-.6875.746093-1.640625 1.117187-2.851563 1.117187zm2.011719-8.277344v6.609375h.601562c.667969 0 1.140625-.175781 1.414063-.53125.273437-.351562.417969-.960937.429687-1.828125v-1.726562c0-.929688-.128906-1.578125-.390625-1.945313-.257812-.367187-.699218-.558593-1.324218-.578125z"/><path d="m23.917969 31.332031h3.527344v1.667969h-5.535157v-9.953125h2.007813z"/><path d="m30.617188 31.332031h3.527343v1.667969h-5.535156v-9.953125h2.007813z"/></g></svg>