<svg fill="#666" height="50" viewBox="0 0 48 48" width="50" xmlns="http://www.w3.org/2000/svg"><path d="m13 4h23v40h-23z" fill="#2196f3"/><g fill="#37474f"><path d="m15 6h19v4h-19z"/><path d="m15 12h19v4h-19z"/><path d="m15 18h19v4h-19z"/><path d="m15 24h19v4h-19z"/></g><path d="m27 38c0 1.105469-.894531 2-2 2s-2-.894531-2-2 .894531-2 2-2 2 .894531 2 2z" fill="#bbdefb"/><g fill="#76ff03"><path d="m32 8c0 .550781-.449219 1-1 1s-1-.449219-1-1 .449219-1 1-1 1 .449219 1 1z"/><path d="m32 14c0 .550781-.449219 1-1 1s-1-.449219-1-1 .449219-1 1-1 1 .449219 1 1z"/><path d="m32 20c0 .550781-.449219 1-1 1s-1-.449219-1-1 .449219-1 1-1 1 .449219 1 1z"/><path d="m32 26c0 .550781-.449219 1-1 1s-1-.449219-1-1 .449219-1 1-1 1 .449219 1 1z"/></g></svg>