<svg fill="#666" height="50" viewBox="0 0 48 48" width="50" xmlns="http://www.w3.org/2000/svg"><path d="m20.101563 16.199219.097656 2.300781-1.597656 3-2.5 4.898438-.5 4.101562 1.796875 5.800781 4.101562 2.300782h6.199219l5.800781-4.402344 2.601563-6.898438-6-7.300781-1.703125-4.101562z" fill="#eceff1"/><path d="m34.300781 21.898438c-1.601562-2.296875-2.902343-3.699219-3.601562-6.597657-.699219-2.902343.199219-2.101562-.398438-4.601562-.300781-1.300781-.800781-2.199219-1.300781-2.898438-.601562-.699218-1.300781-1.101562-1.699219-1.199218-.902343-.5-3-1.300782-5.601562.097656-2.699219 1.402344-2.398438 4.402344-1.898438 10.5 0 .402344-.101562.902344-.300781 1.300781-.398437.898438-1.101562 1.699219-1.699219 2.398438-.699218 1-1.402343 2-1.902343 3.101562-1.199219 2.300781-2.296875 5.199219-2 6.300781.5-.101562 6.800781 9.5 6.800781 9.699219.402344-.101562 2.101562-.101562 3.601562-.101562 2.097657-.097657 3.300782-.199219 5 .203125 0-.300782-.101562-.601563-.101562-.902344 0-.597656.101562-1.097656.199219-1.800781.101562-.5.203125-1 .300781-1.597657-1 .898438-2.800781 1.898438-4.5 2.199219-1.5.300781-4-.199219-5.199219-1.699219.101563 0 .300781 0 .398438-.101562.300781-.097656.601562-.199219.703125-.398438.296875-.5.097656-1-.101563-1.300781s-1.699219-1.398437-2.398437-2c-.703125-.601562-1.101563-.898437-1.5-1.300781 0 0-.601563-.597656-.800782-.800781-.199218-.199219-.300781-.398438-.402343-.5-.199219-.5-.296875-1.097657-.199219-1.898438.101562-1.101562.5-2 1-3 .199219-.398437.699219-1.199219.699219-1.199219s-1.699219 4.199219-.796875 5.5c0 0 .097656-1.300781.5-2.601562.296875-.898438.796875-2.199219 1.398437-2.898438.601563-.699218 2.101563-3.300781 2.199219-4.902343 0-.699219.101562-1.398438.101562-1.898438-.402343-.398437 6.597657-1.398437 7-.300781.097657.402344 1.5 4 2.300782 5.902344.398437.898437.898437 1.699218 1.199218 2.699218.300782 1.097657.5 2.597657.5 4.097657 0 .300781 0 .800781-.101562 1.300781.199219 0 4.101562-4.199219-.5-7.699219 0 0 2.800781 1.300781 2.902344 3.898438.097656 2.101562-.800782 3.800781-1 4.101562.097656 0 2.097656.898438 2.199218.898438.398438 0 1.199219-.296875 1.199219-.296875.101563-.300782.398438-1.101563.398438-1.402344.703125-2.300781-1-6-2.597657-8.300781z" fill="#263238"/><path d="m22.898438 13.300781c0-1.105468-.582032-2-1.296875-2-.71875 0-1.300782.894532-1.300782 2 0 1.105469.582032 2 1.300782 2 .714843 0 1.296875-.894531 1.296875-2z" fill="#eceff1"/><path d="m27.800781 13.199219c0-1.269531-.761718-2.300781-1.699218-2.300781-.941407 0-1.703125 1.03125-1.703125 2.300781s.761718 2.300781 1.703125 2.300781c.9375 0 1.699218-1.03125 1.699218-2.300781z" fill="#eceff1"/><path d="m21.480469 12.335938c-.382813.046875-.625.617187-.542969 1.277343.082031.65625.460938 1.148438.84375 1.101563.382813-.046875.628906-.621094.546875-1.277344-.085937-.65625-.464844-1.152344-.847656-1.101562z" fill="#212121"/><path d="m27 13.601563c0-.71875-.449219-1.300782-1-1.300782s-1 .582032-1 1.300782c0 .714843.449219 1.296875 1 1.296875s1-.582032 1-1.296875z" fill="#212121"/><g fill="#ffc107"><path d="m39.300781 35.601563c-.402343-.203125-1.101562-.5-1.699218-1.402344-.300782-.5-.203125-1.898438-.703125-2.5-.296875-.398438-.699219-.199219-.796875-.199219-.902344.199219-3 1.601563-4.402344 0-.199219-.199219-.5-.5-1-.5s-.699219.199219-.898438.601563c-.199218.398437-.199218.699218-.199218 1.699218 0 .800782 0 1.699219-.101563 2.398438-.199219 1.699219-.5 2.699219-.5 3.699219 0 1.101562.300781 1.800781.699219 2.101562.300781.300781.800781.5 1.902344.5 1.097656 0 1.796875-.398437 2.5-1.101562.5-.5.898437-.699219 2.296875-1.699219 1.101562-.699219 2.800781-1.597656 3.101562-1.898438.199219-.199218.5-.300781.5-.902343 0-.5-.398437-.699219-.699219-.796875z"/><path d="m19.199219 35.898438c-1-1.597657-1.097656-1.898438-1.800781-2.898438-.597657-1-1.898438-2.898437-2.699219-2.898437-.597656 0-.898438.296875-1.300781.699218-.398438.398438-.796875 1.300782-1.5 1.800782-.597657.5-2.296875.398437-2.699219 1-.398438.597656.402344 1.5.402344 3 0 .597656-.5 1-.601563 1.398437-.101562.5-.199219.800781 0 1.199219.398438.601562.898438.800781 4.300781 1.5 1.800782.402344 3.5 1.402344 4.597657 1.5 1.101562.101562 3 0 3-2.699219.101562-1.601562-.796875-2-1.699219-3.601562z"/><path d="m21.101563 17.800781c-.601563-.402343-1.101563-.800781-1.101563-1.402343 0-.597657.398438-.796875 1-1.296875.101563-.101563 1.199219-1.101563 2.300781-1.101563 1.097657 0 2.398438.699219 2.898438.898438.902344.203125 1.800781.402343 1.699219 1.101562-.097657 1-.199219 1.199219-1.199219 1.699219-.699219.199219-2 1.300781-2.898438 1.300781-.402343 0-1 0-1.402343-.101562-.296875-.097657-.796875-.597657-1.296875-1.097657z"/></g><g fill="#634703"><path d="m20.898438 17c.203125.199219.5.398438.800781.5.199219.101563.5.199219.5.199219h.902344c.5 0 1.199218-.199219 1.898437-.597656.699219-.300782.800781-.5 1.300781-.703125.5-.296875 1-.597657.800782-.699219-.203125-.097656-.402344 0-1.101563.402344-.601562.398437-1.101562.597656-1.699219.898437-.300781.101563-.699218.300781-1 .300781-.300781 0-.601562 0-.902343 0-.296875 0-.5-.101562-.796875-.199218-.203125-.101563-.300782-.203125-.402344-.203125-.199219-.097657-.597656-.5-.800781-.597657 0 0-.199219 0-.097657.097657.300782.300781.398438.402343.597657.601562z"/><path d="m23.898438 14.800781c.101562.199219.300781.199219.402343.300782.097657.097656.199219.097656.199219.097656.101563-.097656 0-.300781-.101562-.300781 0-.199219-.5-.199219-.5-.097657z"/><path d="m22.300781 15c0 .101563.199219.199219.199219.101563.101563-.101563.199219-.203125.300781-.203125.199219-.097657.097657-.199219-.199218-.199219-.203125.101562-.203125.199219-.300782.300781z"/></g><path d="m32 32.699219v.300781c.199219.398438.699219.5 1.101563.5.597656 0 1.199218-.398437 1.5-.800781 0-.097656.097656-.199219.199218-.300781.199219-.296875.300782-.5.398438-.597657 0 0-.097656-.101562-.097656-.199218-.101563-.203125-.402344-.402344-.800782-.5-.300781-.101563-.800781-.203125-1-.203125-.902343-.097657-1.402343.203125-1.699218.5 0 0 .097656 0 .097656.101562.199219.199219.300781.398438.300781.699219.101563.199219 0 .300781 0 .5z" fill="#455a64"/></svg>