<svg fill="#666" height="50" viewBox="0 0 48 48" width="50" xmlns="http://www.w3.org/2000/svg"><path d="m44 42h-40l3-15h34z" fill="#cfd8dc"/><path d="m36 36h-24c-1.101562 0-2-.898437-2-2 0-1.101562.898438-2 2-2h24c1.101563 0 2 .898438 2 2 0 1.101563-.898437 2-2 2z" fill="#455a64"/><path d="m23 6 7.757813 9.050781c.242187.484375.242187 1.21875.242187 1.949219l-3.683594 8.195313c-.242187 1.21875-1.09375 2.316406-2.316406 2.804687-.707031.265625.140625-.65625-1.945312 0 .027343-1.671875-.59375-3.355469-1.871094-4.628906-.222656-.226563-.460938-.421875-.707031-.601563l3.207031-1.050781-.246094-4.71875-5.4375-4s-8 9-9-7z" fill="#ffa726"/><path d="m15 17h18v18h-18z" fill="#64b5f6"/><path d="m22.21875 27.78125c-1.355469 1.097656-3.105469.582031-4.144531-.558594l-8.074219-9.222656c-.519531-.570312-1-3.292969-1-3.914062 0-3 0-8.085938 0-8.085938l10 7v5l3.382813 5.039063c1.417968 1.839843 1.199218 3.605468-.164063 4.742187" fill="#ffa726"/><path d="m19.125 26.699219c.714844.699219 1.855469.691406 2.558594-.019531.699219-.714844.6875-1.859375-.023438-2.5625-.714843-.699219-3.25 1.882812-2.535156 2.582031" fill="#ffcdd2"/><path d="m15 34h18v2h-18z" fill="#1e88e5"/><path d="m23.4375 17-4.4375-3.265625v3.265625z" fill="#d68022"/></svg>