<svg fill="#666" height="50" viewBox="0 0 48 48" width="50" xmlns="http://www.w3.org/2000/svg"><path d="m36 44h-28v-36h20l8 8z" fill="#42a5f5"/><path d="m40 40h-28v-36h20l8 8z" fill="#90caf9"/><path d="m38.5 13h-7.5v-7.5z" fill="#e1f5fe"/><path d="m24.5 28.300781c0-4.699218 3.601563-4.402343 3.601563-7.199218 0-.703125-.203125-2.101563-2-2.101563-2 0-2.101563 1.601563-2.101563 2h-2.699219c0-.699219.300782-4.199219 4.800782-4.199219 4.597656 0 4.699218 3.597657 4.699218 4.300782 0 3.5-3.800781 4-3.800781 7.296875h-2.5zm-.199219 3.5c0-.199218 0-1.5 1.5-1.5 1.398438 0 1.5 1.300782 1.5 1.5 0 .398438-.199218 1.398438-1.5 1.398438-1.300781 0-1.5-1-1.5-1.398438z" fill="#1976d2"/></svg>