<svg fill="#666" height="50" viewBox="0 0 48 48" width="50" xmlns="http://www.w3.org/2000/svg"><path d="m40 45h-32v-42h22l10 10z" fill="#3f51b5"/><g fill="#e8eaf6"><path d="m38.5 14h-9.5v-9.5z"/><path d="m15.476563 29.5v3.5h-2.011719v-9.953125h3.390625c.984375 0 1.773437.304688 2.355469.917969.585937.609375.878906 1.402344.878906 2.378906 0 .972656-.289063 1.742188-.867188 2.308594s-1.382812.847656-2.40625.847656zm0-1.675781h1.378906c.382812 0 .679687-.125.890625-.375.210937-.25.3125-.613281.3125-1.09375 0-.496094-.105469-.890625-.320313-1.1875-.214843-.292969-.5-.441406-.859375-.445313h-1.402343z"/><path d="m25.636719 30.390625c0-.40625-.105469-.714844-.3125-.921875-.210938-.207031-.585938-.421875-1.132813-.644531-.996093-.378906-1.714843-.820313-2.152343-1.332031-.4375-.507813-.65625-1.105469-.65625-1.800782 0-.835937.296875-1.511718.890625-2.019531.597656-.507812 1.351562-.761719 2.265625-.761719.613281 0 1.15625.128907 1.636718.386719.476563.257813.847657.621094 1.101563 1.089844.257812.46875.386719 1.003906.386719 1.601562h-2.003907c0-.464843-.097656-.820312-.296875-1.0625-.199218-.246093-.484375-.367187-.855468-.367187-.351563 0-.625.105469-.820313.3125-.199219.207031-.296875.484375-.296875.835937 0 .273438.109375.523438.328125.742188.21875.222656.605469.449219 1.164063.6875.96875.351562 1.675781.78125 2.113281 1.292969.441406.511718.660156 1.160156.660156 1.949218 0 .863282-.273437 1.542969-.828125 2.027344-.550781.488281-1.300781.730469-2.246094.730469-.644531 0-1.230468-.128906-1.757812-.394531s-.941406-.644532-1.242188-1.136719c-.296875-.492188-.445312-1.070313-.445312-1.742188h2.015625c0 .574219.113281.992188.335937 1.25.222657.261719.585938.390625 1.09375.390625.699219 0 1.054688-.371093 1.054688-1.113281z"/><path d="m28.988281 33v-9.953125h2.632813c1.164062 0 2.089844.367188 2.78125 1.105469.6875.738281 1.039062 1.75 1.054687 3.035156v1.613281c0 1.308594-.34375 2.335938-1.035156 3.082032-.691406.746093-1.640625 1.117187-2.855469 1.117187zm2.011719-8.277344v6.609375h.601563c.671875 0 1.144531-.175781 1.417968-.53125.269532-.351562.414063-.960937.429688-1.828125v-1.726562c0-.929688-.128906-1.578125-.390625-1.945313-.257813-.367187-.703125-.558593-1.324219-.578125z"/></g></svg>