<svg fill="#666" height="50" viewBox="0 0 48 48" width="50" xmlns="http://www.w3.org/2000/svg"><path d="m42 41c0 .554688-.445312 1-1 1h-34c-.554687 0-1-.445312-1-1v-12c0-.554687.445313-1 1-1h34c.554688 0 1 .445313 1 1z" fill="#455a64"/><g fill="#b0bec5"><path d="m27 41c0 .554688-.445312 1-1 1h-11c-.554687 0-1-.445312-1-1v-4c0-.554687.445313-1 1-1h11c.554688 0 1 .445313 1 1z"/><path d="m42 41c0 .554688-.445312 1-1 1h-11c-.554687 0-1-.445312-1-1v-4c0-.554687.445313-1 1-1h11c.554688 0 1 .445313 1 1z"/><path d="m34 33c0 .554688-.445312 1-1 1h-11c-.554687 0-1-.445312-1-1v-4c0-.554687.445313-1 1-1h11c.554688 0 1 .445313 1 1z"/><path d="m6 33c0 .554688.445313 1 1 1h11c.554688 0 1-.445312 1-1v-4c0-.554687-.445312-1-1-1h-11c-.554687 0-1 .445313-1 1z"/><path d="m42 28h-5c-.554687 0-1 .445313-1 1v4c0 .554688.445313 1 1 1h5z"/><path d="m11 36h-5v6h5c.554688 0 1-.445312 1-1v-4c0-.554687-.445312-1-1-1z"/></g><path d="m14 25c-.054687 1.019531.21875 2.0625.5625 3h5.4375c-.011719-.117187-.019531-.234375-.019531-.355469 0-4.710937 4.96875-5.078125 4.019531-9.644531 1.609375 2.035156 2.074219 2.640625-.035156 6.769531-.472656.933594-.027344 2.230469 2.035156 2.230469 1.472656 0 1.554688-1.28125 1-3 2.394531 1.480469 2.128906 2.757813 2 4h6c-.195312-3.707031-2.523437-5.75-2.46875-8.09375.070313-2.785156 1.085938-6.316406-2.53125-8.90625.355469 2.363281 0 5-2 5s-.085937-3.355469-2-6.40625c-1-1.59375-3-3.59375-6.035156-3.542969 4.066406 2.386719 2.320312 9.980469 1.035156 10.949219-2.023437 1.523438-2-3-5-3 1.203125.5625.617188 4.546875-.085937 6.03125-.570313 1.21875-1.789063 2.53125-1.914063 4.96875z" fill="#ff3d00"/><path d="m20 28c-.011719-.117187-.019531-.234375-.019531-.355469 0-4.710937 4.96875-5.078125 4.019531-9.644531 1.609375 2.035156 2.074219 2.640625-.035156 6.769531-.472656.933594-.027344 2.230469 2.035156 2.230469 1.472656 0 1.554688-1.28125 1-3 2.394531 1.480469 2.128906 2.757813 2 4z" fill="#fdd835"/></svg>