<svg fill="#666" height="50" viewBox="0 0 48 48" width="50" xmlns="http://www.w3.org/2000/svg"><path d="m2 9h44v30h-44z" fill="#3f51b5"/><path d="m22 11.199219-4.398437 2.800781h4.398437v4h-3.800781l3.800781 2.398438v2.601562h-1l-7-4.300781v4.300781h-4v-4.101562l-6.5 4.101562h-1.5v-2.300781l4.300781-2.699219h-4.300781v-4h4.898438l-4.898438-3v-2h2.101563l5.898437 3.699219v-3.699219h4v4l6.398438-4h1.601562zm9.339844 13.097656 2.167969-1.914062-2.878907-.277344-1.152343-2.652344-1.152344 2.652344-2.878906.277344 2.164062 1.914062-.625 2.824219 2.492188-1.46875 2.492187 1.46875zm5.289062 5.808594-1.152343-2.65625-1.152344 2.65625-2.878906.273437 2.164062 1.917969-.625 2.820313 2.492188-1.464844 2.492187 1.464844-.628906-2.820313 2.167969-1.917969zm-3.644531-9.984375 2.492188-1.46875 2.492187 1.46875-.628906-2.824219 2.167969-1.914062-2.878907-.277344-1.15625-2.652344-1.148437 2.652344-2.878906.277344 2.164062 1.914062zm11.523438 1.261719-2.878907-.277344-1.152343-2.652344-1.152344 2.652344-2.878906.277344 2.167968 1.914062-.628906 2.824219 2.492188-1.46875 2.492187 1.46875-.628906-2.820313z" fill="#fff"/><path d="m17.300781 18 4.699219 2.898438v1.101562l-6.398437-4zm-7.800781-4-7.5-4.699219v1.097657l5.699219 3.601562zm-7.5 8.300781v.699219h.601563l7.398437-4.601562v-.398438h-1.101562zm19.199219-13.300781-7.199219 4.5v.5h1l7-4.398437v-.601563zm-8.199219 0h-2v6h-9v2h9v6h2v-6h9v-2h-9zm16.476563 12.960938.46875 1.085937 1.175781.109375-.882813.785156.253907 1.152344-1.015625-.601562-1.015625.601562.253906-1.152344-.882813-.785156 1.175782-.109375zm6 8 .46875 1.085937 1.175781.109375-.882813.785156.253907 1.152344-1.015625-.601562-1.015625.601562.253906-1.152344-.882813-.785156 1.175782-.109375zm0-15 .46875 1.085937 1.175781.109375-.882813.785156.253907 1.152344-1.015625-.601562-1.015625.601562.253906-1.152344-.882813-.785156 1.175782-.109375zm5 6 .46875 1.085937 1.175781.109375-.882813.785156.253907 1.152344-1.015625-.601562-1.015625.601562.253906-1.152344-.882813-.785156 1.175782-.109375z" fill="#e53935"/></svg>