<svg fill="#666" height="50" viewBox="0 0 48 48" width="50" xmlns="http://www.w3.org/2000/svg"><path d="m42.5 12-3.601562-3.5c-1.597657-.898437-3.398438-1.5-5.398438-1.5-4.199219 0-7.800781 2.5-9.5 6-1.699219-3.601562-5.300781-6-9.5-6-5.800781 0-10.5 4.699219-10.5 10.5 0 3 1.199219 5.601563 3.199219 7.5l16.800781 17 17.101563-17.300781c1.796875-1.800781 2.898437-4.398438 2.898437-7.199219 0-2-.601562-3.898437-1.5-5.5z" fill="#ff3d00"/><path d="m38.898438 8.5-14.898438 15-7.199219-7.199219c-1-1-2.601562-1-3.5 0-1 1-1 2.597657 0 3.5l10.699219 10.699219 18.5-18.5c-.898437-1.398437-2.101562-2.601562-3.601562-3.5z" fill="#fff"/></svg>