<svg fill="#666" height="50" viewBox="0 0 48 48" width="50" xmlns="http://www.w3.org/2000/svg"><g fill="#ffcc80"><path d="m24.300781 22.699219c-1.101562-1.097656-3-1.097656-4.199218.101562-1.203125 1.199219-1.203125 3-.101563 4.199219l6.398438 6.398438c1.101562 1.101562 3 1.101562 4.203125-.097657 1.199218-1.199218 1.199218-3 .097656-4.199218z"/><path d="m20.199219 35.601563 8.5-8.5 1.101562 1.097656c.800782.800781 2.898438 1.300781 4.300782-.097656 1.398437-1.402344.597656-3.402344-.101563-4.203125-.699219-.699219-3.199219-3.199219-3.199219-3.199219s1.398438-4.199219 1.097657-6.398438c-.097657-1.902343-1.199219-3.199218-3.5-3.5l-5-.800781c-4.199219 0-7.796875.5-10.796875 3.5l-4.902344 4.898438c-3.5 3.601562-3.699219 9.5-.097656 13.101562 0 0 3.398437 3.398438 7.699218 7.699219z"/><path d="m20 26.898438c-1.101562-1.097657-3-1.097657-4.199219.101562-1.199218 1.199219-1.199218 3-.101562 4.199219l5.101562 5.101562c1.097657 1.097657 3 1.097657 4.199219-.101562s1.199219-3 .101563-4.199219z"/><path d="m14.5 29.898438c-1.101562-1.097657-3-1.097657-4.199219.101562-1.199218 1.199219-1.199218 3-.101562 4.199219l5.101562 5.101562c1.097657 1.097657 3 1.097657 4.199219-.101562s1.199219-3 .101563-4.199219z"/></g><path d="m9.699219 33.5c-2 1.898438-3.5 3.101563-3.5 3.101563-1.5 1.597656-1.597656 4-.199219 5.398437 1.398438 1.398438 3.800781 1.398438 5.300781-.101562.097657-.097657 1.398438-1.296875 3.300782-3.296875zm-.699219 7c-.800781 0-1.5-.699219-1.5-1.5s.699219-1.5 1.5-1.5 1.5.699219 1.5 1.5-.699219 1.5-1.5 1.5z" fill="#607d8b"/><path d="m42.5 10.5-4.5 4.5s-1.699219 0-3.398437-1.601562c-1.601563-1.699219-1.601563-3.398438-1.601563-3.398438l4.601563-4.601562c-3.300782-1-6.5-.199219-8.800782 2.101562-3.5 3.5-.402343 7.898438-1.300781 8.800781-.199219.199219-.300781.300782-.5.5l4.199219 4.199219c.199219-.199219.402344-.398437.601562-.601562.898438-.898438 5.199219 2.402343 8.800782-1.199219 2.097656-2.300781 3-5.097656 1.898437-8.699219z" fill="#607d8b"/><g fill="#f2a25a"><path d="m30 28.300781-3-3c-.398437-.402343-1-.402343-1.398437 0-.402344.398438-.402344 1 0 1.398438z"/><path d="m25.699219 32.5-3.199219-3.101562c-.398437-.398438-1-.398438-1.398437 0-.402344.402343-.402344 1 0 1.402343z"/><path d="m20.199219 35.5-2.398438-2.5c-.402343-.398437-1-.398437-1.402343 0-.398438.398438-.398438 1 0 1.398438z"/><path d="m27.398438 16.398438c.203125-.199219.203125-.398438.203125-.699219l-3.101563-1.199219 2.5 2.5c.101563-.300781.300781-.5.398438-.601562z"/></g></svg>