<svg fill="#666" height="50" viewBox="0 0 48 48" width="50" xmlns="http://www.w3.org/2000/svg"><path d="m35 18c0 1.106-.896 2-2 2-1.105 0-2-.894-2-2 0-1.105.895-2 2-2 1.104 0 2 .895 2 2m-18 0c0-1.105-.896-2-2-2-1.106 0-2 .895-2 2 0 1.106.894 2 2 2 1.104 0 2-.894 2-2" fill="#ffa726"/><path d="m33 12c0-3.248-3-5-7-5-7 0-11 2.144-11 5v7c0 4.971 4.028 9 9 9 4.971 0 9-4.029 9-9z" fill="#ffb74d"/><path d="m24 3c-6.075 0-10 4.926-10 11v2.286l2 1.714v-5l12-4 4 4v5l2-1.742v-2.258c0-4.025-1.038-8.016-6-9l-1-2z" fill="#424242"/><path d="m27 18c0-.551.448-1 1-1s1 .449 1 1-.448 1-1 1-1-.449-1-1m-8 0c0 .551.448 1 1 1s1-.449 1-1-.448-1-1-1-1 .449-1 1" fill="#784719"/><path d="m41 45h-34c-.552 0-1-.448-1-1v-22c0-.552.448-1 1-1h34c.552 0 1 .448 1 1v22c0 .552-.448 1-1 1z" fill="#546e7a"/><circle cx="24" cy="33" fill="#b0bec5" r="3"/></svg>