<svg fill="#666" height="50" viewBox="0 0 48 48" width="50" xmlns="http://www.w3.org/2000/svg"><path d="m41.765625 38h-35.53125c-1.796875 0-3.234375-1.371094-3.234375-3.152344v-22.621093c0-1.78125 1.4375-3.226563 3.234375-3.226563h35.53125c1.792969 0 3.234375 1.445313 3.234375 3.226563v22.621093c0 1.78125-1.441406 3.152344-3.234375 3.152344z" fill="#03a9f4"/><path d="m36.847656 23.277344c.066407-1.101563.351563-1.613281.925782-1.613281.546875 0 .847656.527343.886718 1.613281zm4.105469.65625c0-1.230469-.269531-2.203125-.78125-2.882813-.539062-.699218-1.347656-1.050781-2.359375-1.050781-2.085937 0-3.394531 1.546875-3.394531 4.023438 0 1.382812.34375 2.425781 1.035156 3.082031.617188.597656 1.503906.894531 2.632813.894531 1.046875 0 2.015625-.25 2.632812-.65625l-.269531-1.6875c-.605469.332031-1.308594.511719-2.09375.511719-.472656 0-.808594-.101563-1.046875-.308594-.261719-.21875-.40625-.570312-.457031-1.074219h4.066406c.027344-.117187.035156-.679687.035156-.851562zm-9.894531 1.597656c-.222656.378906-.53125.582031-.890625.582031-.242188 0-.472656-.054687-.671875-.148437v-3.71875c.429687-.4375.816406-.488281.945312-.488281.628907 0 .941407.679687.941407 2.015625 0 .761718-.113282 1.351562-.324219 1.757812zm2.054687-4.820312c-.4375-.574219-1.058593-.855469-1.84375-.855469-.714843 0-1.34375.300781-1.933593.9375l-.144532-.785156h-2.191406v10.992187l2.480469-.414062.015625-2.800782c.390625.121094.78125.183594 1.132812.183594.628907 0 1.53125-.15625 2.234375-.925781.667969-.730469.996094-1.859375.996094-3.359375 0-1.324219-.246094-2.332031-.746094-2.972656zm-9.585937-.703125h2.472656v7.992187h-2.472656zm1.257812-.773438c.71875 0 1.300782-.59375 1.300782-1.3125 0-.734375-.585938-1.320312-1.300782-1.320312-.738281 0-1.324218.585937-1.324218 1.320312 0 .71875.585937 1.3125 1.324218 1.3125zm-2.320312.664063c-.707031 0-1.28125.375-1.492188 1.03125l-.152343-.917969h-2.167969v7.988281h2.480469v-5.25c.3125-.382812.75-.519531 1.363281-.519531.125 0 .257812 0 .4375.027344v-2.296875c-.183594-.039063-.332031-.0625-.46875-.0625zm-4.785156 1.957031.308593-1.847656h-1.601562v-2.246094l-2.128906.355469-.308594 1.890625-.75.121093-.277344 1.726563h1.023438v3.621094c0 .941406.238281 1.601562.722656 2 .421875.335937 1.011719.492187 1.84375.492187.652344 0 1.042969-.113281 1.296875-.183594v-1.960937c-.132813.042969-.480469.117187-.71875.117187-.480469 0-.703125-.25-.703125-.824218v-3.265625h1.292969zm-7.148438 1.195312c-.707031-.265625-1.117187-.472656-1.117187-.804687 0-.273438.226562-.433594.644531-.433594.738281 0 1.507812.28125 2.023437.542969l.300782-1.828125c-.417969-.203125-1.269532-.527344-2.441407-.527344-.839843 0-1.535156.21875-2.015625.621094-.53125.429687-.800781 1.042969-.800781 1.785156 0 1.347656.824219 1.917969 2.164063 2.402344.859375.308594 1.15625.527344 1.15625.867187 0 .324219-.273438.515625-.796875.515625-.625 0-1.640625-.308593-2.328125-.703125l-.28125 1.851563c.578125.324219 1.636718.660156 2.75.660156.886718 0 1.621093-.210937 2.101562-.605469.566406-.433593.84375-1.078125.84375-1.90625 0-1.382812-.84375-1.957031-2.203125-2.4375z" fill="#fff"/></svg>