<svg fill="#666" height="50" viewBox="0 0 48 48" width="50" xmlns="http://www.w3.org/2000/svg"><path d="m37.7 16.4c-1.7 0-3.5-1.1-5.4-3.2-.8-.9-1.5-1.8-2.2-2.7-2.7-3.2-4.6-5.5-8.1-5.5-4 0-4 3.8-4 4h-2c0-2.1 1.3-6 6-6 4.5 0 6.8 2.9 9.6 6.2.7.8 1.4 1.7 2.2 2.6 1.3 1.4 3.1 3 4.7 2.4 1.5-.5 2.5-3.2 2.5-4.2h2c0 1.4-1.1 5.1-3.9 6.1-.4.2-.9.3-1.4.3z" fill="#546e7a"/><path d="m5 30v-10c0-12 11-12 11-12h2s10.8 0 11 12v10z" fill="#cfd8dc"/><path d="m5 24v10c0 12 11 12 11 12h2s10.8 0 11-12v-10z" fill="#00838f"/><path d="m19 19c0 1.1-.9 2-2 2s-2-.9-2-2v-5c0-1.1.9-2 2-2s2 .9 2 2z" fill="#37474f"/></svg>