<svg fill="#666" height="50" viewBox="0 0 48 48" width="50" xmlns="http://www.w3.org/2000/svg"><path d="m7 13h34v6h-34z" fill="#29b6f6"/><path d="m29 8v4h-2.199219c-2.402343 0-1.199218-1-4.800781-1v-4c3.601563 0 2.398438 1 4.800781 1z" fill="#a0f"/><path d="m4 19h40v20h-40z" fill="#81d4fa"/><g fill="#0288d1"><path d="m29 37h-10v-3c0-2.800781 2.199219-5 5-5s5 2.199219 5 5z"/><path d="m31 29h4v8h-4z"/><path d="m37 29h4v8h-4z"/><path d="m13 29h4v8h-4z"/><path d="m7 29h4v8h-4z"/><path d="m23 27h-4v-4c0-1.101562.898438-2 2-2 1.101563 0 2 .898438 2 2z"/><path d="m29 27h-4v-4c0-1.101562.898438-2 2-2 1.101563 0 2 .898438 2 2z"/><path d="m35 27h-4v-4c0-1.101562.898438-2 2-2 1.101563 0 2 .898438 2 2z"/><path d="m41 27h-4v-4c0-1.101562.898438-2 2-2 1.101563 0 2 .898438 2 2z"/><path d="m17 27h-4v-4c0-1.101562.898438-2 2-2 1.101563 0 2 .898438 2 2z"/><path d="m11 27h-4v-4c0-1.101562.898438-2 2-2 1.101563 0 2 .898438 2 2z"/></g><g fill="#0277bd"><path d="m25 15h2v2h-2z"/><path d="m29 15h2v2h-2z"/><path d="m33 15h2v2h-2z"/><path d="m9 15h2v2h-2z"/><path d="m13 15h2v2h-2z"/><path d="m17 15h2v2h-2z"/><path d="m37 15h2v2h-2z"/><path d="m21 15h2v2h-2z"/></g></svg>