<svg fill="#666" height="50" viewBox="0 0 48 48" width="50" xmlns="http://www.w3.org/2000/svg"><path d="m40 45h-32v-42h22l10 10z" fill="#90caf9"/><path d="m38.5 14h-9.5v-9.5z" fill="#e1f5fe"/><path d="m37.523438 39.519531 1.996093-1.996093 8.480469 8.476562-2 2z" fill="#616161"/><path d="m42 31c0 6.074219-4.925781 11-11 11s-11-4.925781-11-11 4.925781-11 11-11 11 4.925781 11 11" fill="#616161"/><path d="m40 31c0 4.972656-4.027344 9-9 9s-9-4.027344-9-9 4.027344-9 9-9 9 4.027344 9 9" fill="#90caf9"/><path d="m39.863281 41.859375 1.996094-2 6.144531 6.140625-1.996093 2z" fill="#37474f"/></svg>