<svg fill="#666" height="50" viewBox="0 0 48 48" width="50" xmlns="http://www.w3.org/2000/svg"><path d="m24.046875 5c-1.554687.003906-2.632812.140625-3.9375.367188-3.847656.667968-4.546875 2.078125-4.546875 4.667968v3.964844h9v2h-13.691406c-2.636719 0-4.945313 1.242188-5.675781 4.21875-.824219 3.417969-.863282 5.558594 0 9.125.65625 2.660156 2.097656 4.65625 4.734375 4.65625h3.632812v-5.105469c0-2.964843 2.6875-5.894531 5.765625-5.894531h7.234375c2.523438 0 5-1.863281 5-4.378906v-8.585938c0-2.4375-1.757812-4.261718-4.21875-4.671875.0625-.003906-1.753906-.371093-3.296875-.363281zm-4.984375 4c.820313 0 1.5.675781 1.5 1.503906 0 .832032-.679687 1.496094-1.5 1.496094-.835937 0-1.5-.664062-1.5-1.496094 0-.824218.664063-1.503906 1.5-1.503906z" fill="#0277bd"/><path d="m23.078125 43c1.554688-.003906 2.632813-.140625 3.9375-.367187 3.847656-.667969 4.546875-2.078125 4.546875-4.667969v-3.964844h-9v-2h13.695313c2.632812 0 4.941406-1.242187 5.671875-4.21875.828125-3.417969.863281-5.558594 0-9.125-.65625-2.660156-2.097657-4.65625-4.734375-4.65625h-3.632813v5.105469c0 2.964844-2.6875 5.894531-5.765625 5.894531h-7.234375c-2.523437 0-5 1.863281-5 4.378906v8.585938c0 2.4375 1.757813 4.261719 4.21875 4.671875-.0625.003906 1.753906.371094 3.296875.363281zm4.984375-4c-.820312 0-1.5-.675781-1.5-1.503906 0-.832031.679688-1.496094 1.5-1.496094.835938 0 1.5.664063 1.5 1.496094 0 .824219-.664062 1.503906-1.5 1.503906z" fill="#ffc107"/></svg>