<svg fill="#666" height="50" viewBox="0 0 48 48" width="50" xmlns="http://www.w3.org/2000/svg"><path d="m6 37h26v-30c0-1.1-.9-2-2-2h-22c-1.1 0-2 .9-2 2z" fill="#90caf9"/><path d="m32 37h-26v2h26z" fill="#64b5f6"/><g fill="#1565c0"><path d="m21 31h-4v4h4z"/><path d="m14 31h-4v4h4z"/><path d="m21 17h-4v4h4z"/><path d="m14 17h-4v4h4z"/><path d="m21 24h-4v4h4z"/><path d="m14 24h-4v4h4z"/><path d="m21 10h-4v4h4z"/><path d="m28 10h-4v4h4z"/><path d="m14 10h-4v4h4z"/></g><path d="m40 17h-15c-1.1 0-2 .9-2 2v22h19v-22c0-1.1-.9-2-2-2z" fill="#1e88e5"/><path d="m23 41h19v2h-19z" fill="#1976d2"/><g fill="#0d47a1"><path d="m31 21h-4v4h4z"/><path d="m31 28h-4v4h4z"/><path d="m31 35h-4v4h4z"/><path d="m34 28h4v4h-4z"/><path d="m34 35h4v4h-4z"/><path d="m38 21h-4v4h4z"/></g></svg>