<svg fill="#666" height="50" viewBox="0 0 48 48" width="50" xmlns="http://www.w3.org/2000/svg"><path d="m25 6 9 4-9 4z" fill="#ff3d00"/><path d="m23 4h2v15h-2z" fill="#5d4037"/><path d="m48 44h-24l7.61-13.318 2.39 1.318h6l1.35.365z" fill="#90a4ae"/><path d="m41.35 32.365-.35 3.427-4-3.078-3 3.078-2.39-5.11 3.527-6.175c.386-.676 1.339-.676 1.726 0z" fill="#b3e5fc"/><path d="m0 44h24l-7.61-13.318-2.39 1.318h-6l-1.35.365z" fill="#90a4ae"/><path d="m6.65 32.365.35 3.427 4-3.078 3 3.078 2.39-5.11-3.527-6.175c-.386-.676-1.339-.676-1.726 0z" fill="#b3e5fc"/><path d="m40 44h-32l6.84-11.85 3.16-2.15h12l3.16 2.15z" fill="#546e7a"/><path d="m23 6h2v8h-2z" fill="#dd2c00"/><path d="m33.16 32.15-2.16 1.85-3.5-3-3.5 3-3.5-3-3.5 3-2.16-1.85.11-.2 7.32-12.71c.95-1.65 2.51-1.65 3.46 0l7.32 12.71z" fill="#81d4fa"/></svg>