<svg fill="#666" height="50" viewBox="0 0 48 48" width="50" xmlns="http://www.w3.org/2000/svg"><path d="m6 10c0-2.210937 1.789063-4 4-4h28c2.210938 0 4 1.789063 4 4v28c0 2.210938-1.789062 4-4 4h-28c-2.210937 0-4-1.789062-4-4z" fill="#03a9f4"/><g fill="#020f16"><path d="m20.015625 19.175781h-2v4.433594h1.972656c.546875 0 .96875-.179687 1.269532-.539062.300781-.355469.449218-.878907.449218-1.5625 0-.710938-.152343-1.273438-.460937-1.695313-.304688-.417969-.714844-.632812-1.230469-.636719z"/><path d="m9 9v30h30v-30zm14.363281 15.789063c-.824218.808593-1.96875 1.210937-3.433593 1.210937h-1.914063v5h-2.871094v-14.21875h4.84375c1.40625 0 2.527344.4375 3.363282 1.308594.835937.871094 1.253906 2.003906 1.253906 3.398437 0 1.394532-.414063 2.492188-1.242188 3.300782zm9.320313 5.546875c-.710938.574218-1.644531.859375-2.792969.859375-.777344 0-1.460937-.152344-2.050781-.453125-.59375-.304688-1.058594-.726563-1.394531-1.265625-.335938-.539063-.503907-1.125-.503907-1.75h2.628907c.015625.484375.125.84375.335937 1.085937.210938.242188.558594.359375 1.039063.359375.742187 0 1.113281-.332031 1.113281-1.003906 0-.234375-.109375-.453125-.335938-.648438-.226562-.199218-.722656-.46875-1.496093-.804687-1.140625-.464844-1.921875-.941406-2.351563-1.4375-.425781-.496094-.640625-1.109375-.640625-1.847656 0-.921875.335938-1.6875 1.003906-2.289063.664063-.601562 1.550782-.902344 2.648438-.902344 1.160156 0 2.085937.300782 2.785156.898438.695313.597656 1.042969 1.402344 1.042969 2.410156h-2.761719c0-.859375-.359375-1.289062-1.074219-1.289062-.292968 0-.535156.09375-.722656.273437-.191406.183594-.285156.4375-.285156.761719 0 .234375.105469.441406.3125.621094.210937.179687.699219.433593 1.476562.765625 1.125.417968 1.921875.882812 2.386719 1.394531.46875.511719.699219 1.171875.699219 1.984375 0 .945312-.355469 1.703125-1.0625 2.277344z"/></g></svg>