<svg fill="#666" height="50" viewBox="0 0 48 48" width="50" xmlns="http://www.w3.org/2000/svg"><path d="m6 30v10c0 1.105469.894531 2 2 2h32c1.105469 0 2-.894531 2-2v-10z" fill="#78909c"/><path d="m39 8c0-1.105469-.894531-2-2-2h-26c-1.105469 0-2 .894531-2 2l-3 22c0 1.105469.894531 2 2 2h32c1.105469 0 2-.894531 2-2z" fill="#455a64"/><path d="m9 32h22v7h-22z" fill="#263238"/><g fill="#fdd835"><path d="m11 35h2v4h-2z"/><path d="m15 35h2v4h-2z"/><path d="m19 35h2v4h-2z"/><path d="m23 35h2v4h-2z"/><path d="m27 35h2v4h-2z"/></g><path d="m39 37c0 1.105469-.894531 2-2 2s-2-.894531-2-2 .894531-2 2-2 2 .894531 2 2z" fill="#64dd17"/><path d="m28 15c0 2.210938-1.789062 4-4 4-2.210937 0-4-1.789062-4-4 0-2.210937 1.789063-4 4-4 2.210938 0 4 1.789063 4 4" fill="#ffb74d"/><path d="m31 25s-1.9375-4-7-4-7 4-7 4v2h14z" fill="#90caf9"/></svg>