<svg fill="#666" height="50" viewBox="0 0 48 48" width="50" xmlns="http://www.w3.org/2000/svg"><path d="m20.398438 39c-1.796875 0-3.398438-1.398437-3.5-3.300781-.699219-10.699219-9-15-9-15.097656-1.699219-.902344-2.398438-3-1.5-4.703125.902343-1.699219 3-2.398438 4.703125-1.5.5.300781 11.898437 6.300781 12.796875 20.902343.101562 1.898438-1.398438 3.597657-3.296875 3.699219 0 0-.101563 0-.203125 0z" fill="#1976d2"/><path d="m20.398438 39c-.597657 0-1.296875-.199219-1.898438-.601562-1.601562-1-2.101562-3.199219-1-4.796875 5.898438-9.101563.199219-18.902344-.101562-19.300782-1-1.699218-.5-3.800781 1.203125-4.800781 1.699218-1 3.796875-.5 4.796875 1.199219.300781.601562 8.203125 13.800781 0 26.699219-.699219 1-1.796875 1.601562-3 1.601562z" fill="#ff1744"/><path d="m34.398438 43c-2 0-3.5-1.601562-3.5-3.601562.300781-15.699219-11.898438-23.699219-12.398438-24-1.601562-1-2.101562-3.199219-1.101562-4.796875 1-1.601563 3.203125-2.101563 4.800781-1.101563.699219.398438 16 10.300781 15.601562 30 .097657 2-1.402343 3.5-3.402343 3.5z" fill="#ffc107"/><path d="m34.398438 43c-.597657 0-1.199219-.199219-1.796875-.5-1.703125-1-2.203125-3.101562-1.203125-4.800781 7.800781-13.300781 0-27.398438 0-27.5-.898438-1.699219-.398438-3.800781 1.300781-4.800781s3.800781-.398438 4.800781 1.300781c.398438.699219 9.800781 17.800781 0 34.5-.699219 1.199219-1.898437 1.800781-3.101562 1.800781z" fill="#4caf50"/></svg>