<svg fill="#666" height="50" viewBox="0 0 48 48" width="50" xmlns="http://www.w3.org/2000/svg"><path d="m16 42h16c5.523438 0 10-4.476562 10-10v-16c0-5.523437-4.476562-10-10-10h-16c-5.523437 0-10 4.476563-10 10v16c0 5.523438 4.476563 10 10 10z" fill="#eceff1"/><path d="m13.546875 18.734375c0 .421875-.34375.761719-.765625.761719-.417969 0-.761719-.339844-.761719-.761719 0-.417969.34375-.761719.761719-.761719.421875 0 .765625.34375.765625.761719z" fill="#ffc107"/><path d="m15.980469 21.808594 1.445312-.609375c.679688-1.21875 1.835938-1.925781 3.332032-1.925781.339843 0 .660156.042968.960937.113281l1.375-.578125c-.679687-.335938-1.453125-.527344-2.335937-.527344-2.390625 0-4.09375 1.3125-4.777344 3.527344z" fill="#ff5722"/><path d="m13.296875 22.945313v-1.570313h-1.023437v2.003906z" fill="#ff5722"/><g fill="#f44336"><path d="m13.296875 25.734375v-2.789062l-1.023437.433593v2.785157z"/><path d="m16.742188 24.148438c0-1.167969.246093-2.164063.683593-2.949219l-1.445312.609375c-.210938.699219-.332031 1.476562-.332031 2.339844 0 .199218.027343.382812.039062.574218l1.0625-.449218c0-.042969-.007812-.082032-.007812-.125z"/><path d="m30.421875 18.5c-.28125.085938-.539062.195313-.773437.328125z"/><path d="m23.09375 18.808594-1.375.578125c1.027344.234375 1.828125.863281 2.351563 1.796875l1.023437-.433594c-.46875-.871094-1.152344-1.523437-2-1.941406z"/></g><path d="m13.296875 28.519531v-2.785156l-1.023437.429688v2.789062z" fill="#e91e63"/><path d="m30.421875 18.5-.773437.328125c-.984375.546875-1.578125 1.460938-1.578125 2.578125 0 .304688.046875.570313.117187.824219l1.03125-.433594c-.035156-.132812-.054687-.269531-.054687-.421875 0-1.226562 1.117187-2.117187 2.734375-2.117187.792968 0 1.464843.214843 1.957031.582031l1.046875-.445313c-.691406-.683593-1.734375-1.113281-2.972656-1.113281-.546875 0-1.054688.078125-1.507813.21875z" fill="#e91e63"/><path d="m16.75 24.273438-1.0625.449218c.058594.960938.261719 1.8125.597656 2.535157l1.003907-.421875c-.335938-.714844-.523438-1.574219-.539063-2.5625z" fill="#e91e63"/><path d="m25.09375 20.75-1.023437.433594c.378906.679687.601562 1.53125.65625 2.507812l1.0625-.445312c-.09375-.949219-.320313-1.792969-.695313-2.496094z" fill="#e91e63"/><g fill="#9c27b0"><path d="m25.609375 26.109375c.144531-.601562.242188-1.25.242188-1.960937 0-.316407-.035157-.609375-.0625-.90625l-1.0625.449218c.007812.152344.03125.296875.03125.457032 0 .96875-.179688 1.808593-.480469 2.523437z"/><path d="m17.289063 26.835938-1.003907.421875c.410157.878906 1.007813 1.566406 1.777344 2.039062l1.257813-.53125c-.898438-.339844-1.59375-1-2.03125-1.929687z"/><path d="m13.296875 28.519531-1.023437.433594v.835938h1.023437z"/><path d="m29.21875 21.796875-1.03125.433594c.246094.867187.914063 1.472656 2.128906 1.890625l1.601563-.675781-.339844-.085938c-1.457031-.363281-2.171875-.832031-2.359375-1.5625z"/><path d="m34.71875 21.273438h1.078125c-.050781-.730469-.378906-1.375-.894531-1.878907l-1.046875.441407c.472656.351562.78125.847656.863281 1.4375z"/></g><path d="m25.609375 26.109375-1.332031.5625c-.628906 1.476563-1.851563 2.359375-3.519531 2.359375-.527344 0-1-.101562-1.4375-.265625l-1.257813.53125c.75.457031 1.648438.726563 2.695313.726563 2.542968 0 4.261718-1.484375 4.851562-3.914063z" fill="#3f51b5"/><path d="m28.828125 26.859375h-1.078125c.027344.367188.128906.703125.265625 1.019531l.988281-.417968c-.085937-.1875-.152343-.386719-.175781-.601563z" fill="#3f51b5"/><path d="m32.695313 23.640625-.78125-.195312-1.597657.675781c.234375.082031.488282.15625.761719.222656l1.289063.328125c.714843.175781 1.257812.398438 1.660156.671875l1.203125-.511719c-.527344-.515625-1.351563-.898437-2.535156-1.191406z" fill="#3f51b5"/><path d="m29.003906 27.464844-.988281.417969c.375.867187 1.136719 1.527343 2.164063 1.871093l1.691406-.714843c-1.378906-.03125-2.457031-.644532-2.867188-1.574219z" fill="#03a9f4"/><path d="m35.914063 27.332031c.035156-.191406.0625-.390625.0625-.597656 0-.785156-.234375-1.402344-.746094-1.902344l-1.203125.511719c.578125.386719.855469.882813.855469 1.507813 0 .394531-.128907.75-.347657 1.0625z" fill="#03a9f4"/><path d="m35.914063 27.332031-1.378907.582032c-.472656.683593-1.394531 1.132812-2.550781 1.132812-.039062 0-.074219-.003906-.113281-.007812l-1.691406.714843c.515625.171875 1.085937.269532 1.710937.269532 2.207031 0 3.722656-1.058594 4.023438-2.691407z" fill="#009688"/></svg>