<svg fill="#666" height="50" viewBox="0 0 48 48" width="50" xmlns="http://www.w3.org/2000/svg"><path d="m30 10h-12c-.550781 0-1-.449219-1-1v-1c0-.550781.449219-1 1-1h12c.550781 0 1 .449219 1 1v1c0 .550781-.449219 1-1 1z" fill="#546e7a"/><path d="m37 28v-6c0-.550781.449219-1 1-1h2c.550781 0 1 .449219 1 1v6c0 .550781-.449219 1-1 1h-2c-.550781 0-1-.449219-1-1zm-4.765625-15.714844-1.421875 1.40625c-.390625.386719-.398437 1.023438-.011719 1.414063l5.371094 4.875c.386719.390625 1.023438.398437 1.414063.007812l1.421875-1.402343c.390625-.386719.398437-1.023438.011718-1.414063l-5.371093-4.875c-.386719-.390625-1.023438-.394531-1.414063-.011719zm-.234375 20.714844v-7c0-.550781-.449219-1-1-1h-4c-.550781 0-1 .449219-1 1v7c0 .550781.449219 1 1 1h4c.550781 0 1-.449219 1-1zm0 9v-5c0-.550781-.449219-1-1-1h-4c-.550781 0-1 .449219-1 1v5c0 .550781.449219 1 1 1h4c.550781 0 1-.449219 1-1zm-10-9v-7c0-.550781-.449219-1-1-1h-4c-.550781 0-1 .449219-1 1v7c0 .550781.449219 1 1 1h4c.550781 0 1-.449219 1-1zm-11-5v-6c0-.550781-.449219-1-1-1h-2c-.550781 0-1 .449219-1 1v6c0 .550781.449219 1 1 1h2c.550781 0 1-.449219 1-1zm3.351563-15.703125-5.371094 4.875c-.386719.390625-.382813 1.027344.007812 1.414063l1.425782 1.402343c.390625.386719 1.027343.382813 1.414062-.007812l5.367188-4.875c.386718-.390625.382812-1.027344-.007813-1.414063l-1.421875-1.40625c-.390625-.382812-1.027344-.378906-1.414062.011719zm7.648437 29.703125v-5c0-.550781-.449219-1-1-1h-4c-.550781 0-1 .449219-1 1v5c0 .550781.449219 1 1 1h4c.550781 0 1-.449219 1-1zm8-29v-7.96875c0-.570312-.460937-1.03125-1.03125-1.03125h-9.9375c-.570312 0-1.03125.460938-1.03125 1.03125v7.96875c0 .570313.460938 1.03125 1.03125 1.03125h9.9375c.570313 0 1.03125-.460937 1.03125-1.03125z" fill="#78909c"/><path d="m33 27h-18c-.550781 0-1-.449219-1-1v-13c0-.550781.449219-1 1-1h18c.550781 0 1 .449219 1 1v13c0 .550781-.449219 1-1 1z" fill="#90a4ae"/><path d="m19 16h10v6h-10z" fill="#263238"/><path d="m26 10h-4c-1.101562 0-2-.898437-2-2 0-1.101562.898438-2 2-2h4c1.101563 0 2 .898438 2 2 0 1.101563-.898437 2-2 2zm-7 27c1.105469 0 2-.894531 2-2s-.894531-2-2-2-2 .894531-2 2 .894531 2 2 2zm-10-15c1.105469 0 2-.894531 2-2s-.894531-2-2-2-2 .894531-2 2 .894531 2 2 2zm32-2c0-1.105469-.894531-2-2-2s-2 .894531-2 2 .894531 2 2 2 2-.894531 2-2zm-12 17c1.105469 0 2-.894531 2-2s-.894531-2-2-2-2 .894531-2 2 .894531 2 2 2z" fill="#455a64"/><path d="m21 8c0-.550781.449219-1 1-1s1 .449219 1 1-.449219 1-1 1-1-.449219-1-1zm5 1c.550781 0 1-.449219 1-1s-.449219-1-1-1-1 .449219-1 1 .449219 1 1 1z" fill="#18ffff"/><path d="m27 21h-2v-4h2zm-4-3h-2v3h2z" fill="#1de9b6"/><path d="m22 29h-6v-2h6zm10-2h-6v2h6zm-20-7.175781 2-1.8125v-5.398438l-2 1.816407zm22-1.8125 2 1.8125v-5.394531l-2-1.816407z" fill="#607d8b"/><path d="m12 31c0 .554688-.449219 1-1 1s-1-.445312-1-1c0-.550781-.449219-1-1-1s-1 .449219-1 1c0 .554688-.449219 1-1 1s-1-.445312-1-1c0-.984375.484375-1.855469 1.222656-2.402344.179688.238282.457032.402344.777344.402344h2c.320313 0 .597656-.164062.777344-.402344.738281.546875 1.222656 1.417969 1.222656 2.402344zm28.777344-2.402344c-.179688.238282-.457031.402344-.777344.402344h-2c-.320312 0-.597656-.164062-.777344-.402344-.738281.546875-1.222656 1.417969-1.222656 2.402344 0 .554688.445313 1 1 1 .554688 0 1-.445312 1-1 0-.550781.449219-1 1-1s1 .449219 1 1c0 .554688.445313 1 1 1 .554688 0 1-.445312 1-1 0-.984375-.484375-1.855469-1.222656-2.402344zm-17.777344 15.402344c0-1.101562-.898437-2-2-2h-4c-1.101562 0-2 .898438-2 2zm10 0c0-1.101562-.898437-2-2-2h-4c-1.101562 0-2 .898438-2 2z" fill="#90a4ae"/></svg>