<svg fill="#666" height="50" viewBox="0 0 48 48" width="50" xmlns="http://www.w3.org/2000/svg"><path d="m42 37c0 2.762-2.238 5-5 5h-26c-2.761 0-5-2.238-5-5v-26c0-2.762 2.239-5 5-5h26c2.762 0 5 2.238 5 5z" fill="#673ab7"/><path d="m33.03 25.6c-.65-.9-1.59-1.52-2.8-1.85 0 0 1.02-.37 1.94-1.75.55-.88.83-1.94.83-3.18 0-2.15-.78-3.8-2.34-4.93s-3.32-1.89-6.31-1.89h-9.35v24h10.43c2.83-.02 4.96-.63 6.41-1.8 1.44-1.19 2.16-2.95 2.16-5.3 0-1.3-.32-2.4-.97-3.3zm-12.03-9.6h4.25c1.52 0 2.75 1.23 2.75 2.75s-1.23 2.75-2.75 2.75c-.08 0-4.25 0-4.25 0zm5 16h-5v-6h5c1.66 0 3 1.34 3 3s-1.34 3-3 3z" fill="#fff"/></svg>