<svg fill="#666" height="50" viewBox="0 0 48 48" width="50" xmlns="http://www.w3.org/2000/svg"><path d="m40 12h-18l-4-4h-10c-2.199219 0-4 1.800781-4 4v8h40v-4c0-2.199219-1.800781-4-4-4z" fill="#ffa000"/><path d="m40 12h-32c-2.199219 0-4 1.800781-4 4v20c0 2.199219 1.800781 4 4 4h32c2.199219 0 4-1.800781 4-4v-20c0-2.199219-1.800781-4-4-4z" fill="#ffca28"/><g fill="#1565c0"><path d="m24 32.601563-5.5-6.601563h11z"/><path d="m22 16h4v2h-4z"/><path d="m22 19h4v2h-4z"/><path d="m22 22h4v5.5h-4z"/><path d="m15 34h18v2h-18z"/></g></svg>