<svg fill="#666" height="50" viewBox="0 0 48 48" width="50" xmlns="http://www.w3.org/2000/svg"><path d="m20 32h8v8h-8z" fill="#607d8b"/><path d="m4 9h40v27h-40z" fill="#90a4ae"/><path d="m6 11h36v23h-36z" fill="#bbdefb"/><path d="m15 39h18v2h-18z" fill="#90a4ae"/><path d="m17 31h14v-.011719c0-3.308593-2.679687-5.988281-5.988281-5.988281h-2.023438c-3.308593 0-5.988281 2.679688-5.988281 5.988281z" fill="#64b5f6"/><g fill="#ff9800"><path d="m26 23h-4v3s.328125 1 1.960938 1c1.628906 0 2.039062-1 2.039062-1z"/><path d="m29 20.5c0 .828125-.671875 1.5-1.5 1.5s-1.5-.671875-1.5-1.5.671875-1.5 1.5-1.5 1.5.671875 1.5 1.5z"/><path d="m22 20.5c0 .828125-.671875 1.5-1.5 1.5s-1.5-.671875-1.5-1.5.671875-1.5 1.5-1.5 1.5.671875 1.5 1.5z"/></g><path d="m28 17.214844c0-2.203125-1.792969-2.214844-4-2.214844s-4 .011719-4 2.214844v3.785156c0 2.207031 1.792969 4 4 4s4-1.792969 4-4c0-.347656 0-3.4375 0-3.785156z" fill="#ffb74d"/><path d="m23.78125 13c-2.4375.21875-4.78125 1.929688-4.78125 5.574219v1.425781l1 1v-3l6.308594-2.199219 1.691406 2.199219v3l1-1v-1.203125c0-2.414062-.136719-4.203125-3-4.796875l-.484375-1z" fill="#424242"/><g fill="#3f51b5"><path d="m17 29h6v4h-6z"/><path d="m25 29h6v4h-6z"/><path d="m9 29h6v4h-6z"/><path d="m33 29h6v4h-6z"/></g></svg>