<svg fill="#666" height="50" viewBox="0 0 48 48" width="50" xmlns="http://www.w3.org/2000/svg"><path d="m36.664063 36.503906-5.664063-3.503906v-3.445312l3.257813 1.304687c.238281.09375.492187.140625.742187.140625.53125 0 1.054688-.214844 1.441406-.613281.5625-.585938.714844-1.453125.386719-2.199219l-4-9c-.152344-.34375-.402344-.640625-.71875-.851562-.140625-.097657-3.554687-2.335938-8.109375-2.335938-4.554687 0-7.96875 2.238281-8.109375 2.335938-.316406.210937-.5625.507812-.71875.851562l-4 9c-.328125.746094-.175781 1.613281.386719 2.199219.566406.585937 1.429687.769531 2.183594.472656l3.257812-1.304687v3.445312l-5.664062 3.503906c-1.101563.734375-1.589844 2.101563-1.207032 3.363282.382813 1.269531 1.550782 2.132812 2.871094 2.132812h22c1.320313 0 2.488281-.863281 2.871094-2.132812.382812-1.261719-.105469-2.628907-1.207031-3.363282z" fill="#ff754c"/><g fill="#e64a19"><path d="m21.5 37h9.5s-6.855469-2-9.5-2-4.5 2.019531-4.5 4.5c0 .925781.28125 1.785156.761719 2.5h3.738281c-1.375 0-2.5-1.125-2.5-2.5s1.125-2.5 2.5-2.5z"/><path d="m31 33v-3.445312l-6.742187-2.695313c-.089844-.039062-.175782-.078125-.257813-.125-.082031.046875-.167969.085938-.257812.125l-6.742188 2.695313v3.445312l7-4.09375z"/><path d="m25.742188 23.144531 5.257812 1.855469-1.164062-2.621094-3.355469-1.097656c-.476563-.1875-.972656-.28125-1.480469-.28125-.339844 0-.675781.042969-1 .125-.324219-.082031-.660156-.125-1-.125-.507812 0-1.007812.097656-1.484375.285156l-3.351562 1.09375-1.164063 2.621094 5.257813-1.855469c.136718-.054687.277343-.089843.417968-.113281.042969-.007812.085938-.007812.128907-.011719.0625-.007812.128906-.019531.195312-.019531.023438 0 .046875.007813.070313.007813.113281.003906.21875.023437.328125.046875.050781.007812.105468.011718.152343.027343.15625.046875.308594.105469.449219.1875.300781-.175781.648438-.269531 1-.269531.246094 0 .5.046875.742188.144531z"/></g><path d="m24 7c2.210938 0 4 1.789063 4 4 0 2.210938-1.789062 4-4 4-2.210937 0-4-1.789062-4-4 0-2.210937 1.789063-4 4-4m5 30h-7.5c-1.375 0-2.5 1.125-2.5 2.5s1.125 2.5 2.5 2.5h7.5zm-3.257812-13.855469c-.242188-.097656-.496094-.144531-.742188-.144531-.351562 0-.699219.09375-1 .269531-.140625-.082031-.292969-.140625-.449219-.1875-.046875-.015625-.101562-.019531-.148437-.027343-.109375-.023438-.21875-.042969-.332031-.046875-.023438 0-.046875-.007813-.070313-.007813-.066406 0-.132812.011719-.195312.019531-.042969.003907-.085938.003907-.128907.011719-.140625.023438-.28125.058594-.417968.113281l-5.257813 1.855469v4.554688l6.742188-2.695313c.089843-.039062.175781-.078125.257812-.125.082031.046875.167969.085938.257813.125l6.742187 2.695313v-4.554688z" fill="#ffb74d"/></svg>