<svg fill="#666" height="50" viewBox="0 0 48 48" width="50" xmlns="http://www.w3.org/2000/svg"><path d="m24 44h-18l5-34h8z" fill="#cfd8dc"/><g fill="#ff3d00"><path d="m10.410156 14-1.175781 8h11.53125l-1.175781-8z"/><path d="m22.972656 37-1.179687-8h-13.585938l-1.179687 8z"/><path d="m12 6h6v6h-6z"/></g><path d="m42 14-24-4v-2l24-3z" fill="#ffc107"/><path d="m12 6h6l-3-2z" fill="#d32f2f"/><path d="m10.167969 16h9.664062l-.277343-2h-9.109375z" fill="#d32f2f"/><g fill="#455a64"><path d="m9 10h12v4h-12z"/><path d="m17 28v-3c0-1.105469-.894531-2-2-2s-2 .894531-2 2v3z"/></g></svg>