<svg fill="#666" height="50" viewBox="0 0 48 48" width="50" xmlns="http://www.w3.org/2000/svg"><g fill="#37474f"><path d="m23 5h2v36h-2z"/><path d="m25.816406 32.777344 1.414063 1.414062-10.042969 10.039063-1.414062-1.414063z"/><path d="m32.253906 42.824219-1.414062 1.414062-10.042969-10.042968 1.414063-1.414063z"/></g><path d="m4 8h40v28h-40z" fill="#cfd8dc"/><g fill="#607d8b"><path d="m3 7h42v4h-42z"/><path d="m3 35h42v2h-42z"/><path d="m33 43.5c0 .828125-.671875 1.5-1.5 1.5s-1.5-.671875-1.5-1.5.671875-1.5 1.5-1.5 1.5.671875 1.5 1.5z"/><path d="m18 43.5c0 .828125-.671875 1.5-1.5 1.5s-1.5-.671875-1.5-1.5.671875-1.5 1.5-1.5 1.5.671875 1.5 1.5z"/></g><path d="m31.898438 18.898438-5.898438 6-6-6-8.101562 8 2.203125 2.203125 5.898437-6 6 6 8.101563-8z" fill="#c51162"/><path d="m36 24-7-7h7z" fill="#c51162"/></svg>