<svg fill="#666" height="50" viewBox="0 0 48 48" width="50" xmlns="http://www.w3.org/2000/svg"><path d="m44 24c0 11.045-8.955 20-20 20s-20-8.955-20-20 8.955-20 20-20 20 8.955 20 20" fill="#ffe57f"/><path d="m28.941 26.801s-2.582 0-5.164-2.582-2.582-5.164-2.582-5.164l8.66-8.656c-4.875-1.223-10.762.434-14.363 4.035-5.363 5.367-.563 12.266-2.039 13.742-2.24 2.24-4.472 4.326-6.535 6.186 1.668 2.744 3.972 5.049 6.716 6.718 1.932-2.151 4.09-4.472 6.374-6.756 1.398-1.398 8.02 3.719 13.559-1.816 3.602-3.602 5.258-9.488 4.035-14.363z" fill="#546e7a"/></svg>