<svg fill="#666" height="50" viewBox="0 0 48 48" width="50" xmlns="http://www.w3.org/2000/svg"><path d="m17 29h14v-.013c0-3.306-2.681-5.987-5.987-5.987h-2.025c-3.307 0-5.988 2.681-5.988 5.987z" fill="#64b5f6"/><g fill="#ff9800"><path d="m26.001 21h-4v3s.328 1 1.959 1 2.041-1 2.041-1z"/><circle cx="27.5" cy="18.5" r="1.5"/><circle cx="20.5" cy="18.5" r="1.5"/></g><path d="m28 15.216c0-2.206-1.794-2.216-4-2.216s-4 .01-4 2.216v3.784c0 2.206 1.794 4 4 4s4-1.794 4-4c0-.347 0-3.436 0-3.784z" fill="#ffb74d"/><path d="m23.781 11c-2.437.219-4.781 1.93-4.781 5.574v1.426l1 1v-3l6.31-2.201 1.69 2.201v3l1-1v-1.203c0-2.414-.135-4.205-3-4.797l-.485-1z" fill="#424242"/><path d="m4 39h40v4h-40z" fill="#ffc107"/><path d="m15 38c0 .555.445 1 1 1h16c.555 0 1-.445 1-1v-10c0-.555-.445-1-1-1h-16c-.555 0-1 .445-1 1z" fill="#455a64"/><g fill="#90caf9"><path d="m34 16-4-5c4 0 6-6 6-6l4.969 4.962s-2.969 6.038-6.969 6.038z"/><path d="m3 31 5 4s2-6 5-7l-5-4c-3 1-5 7-5 7z"/><path d="m33 24 5 5s3-5 6-6l-5-5c-3 1-6 6-6 6z"/></g><path d="m16 11v7c-6.222 0-9-2-9-2v-7s3.667 2 9 2z" fill="#bbdefb"/><path d="m45 31-2-6c-6.222 0-8 3-8 3l2 6s2.667-3 8-3z" fill="#bbdefb"/></svg>