<svg fill="#666" height="50" viewBox="0 0 48 48" width="50" xmlns="http://www.w3.org/2000/svg"><path d="m24 27 10-10 10 10-10 10z" fill="#ff9800"/><path d="m27 20h14v14h-14z" fill="#ff9800"/><path d="m29 27c0 2.762 2.238 5 5 5s5-2.238 5-5c0-2.766-2.238-5-5-5s-5 2.234-5 5" fill="#ffeb3b"/><path d="m16 24h3v7h-3z" fill="#795548"/><g fill="#689f38"><path d="m21 13.5c0 1.38-1.12 2.5-2.5 2.5s-2.5-1.12-2.5-2.5 1.12-2.5 2.5-2.5 2.5 1.12 2.5 2.5z"/><path d="m24 22c0 1.657-1.343 3-3 3s-3-1.343-3-3 1.343-3 3-3 3 1.343 3 3z"/><path d="m25 19c0 1.105-.895 2-2 2s-2-.895-2-2 .895-2 2-2 2 .895 2 2z"/><path d="m24 15.5c0 1.382-1.118 2.5-2.5 2.5s-2.5-1.118-2.5-2.5 1.118-2.5 2.5-2.5 2.5 1.118 2.5 2.5z"/><path d="m20 23.5c0 1.38-1.12 2.5-2.5 2.5s-2.5-1.12-2.5-2.5 1.12-2.5 2.5-2.5 2.5 1.12 2.5 2.5z"/><path d="m22 18.286c0-2.366-2.016-4.286-4.5-4.286s-4.5 1.92-4.5 4.286 2.016 4.286 4.5 4.286 4.5-1.92 4.5-4.286z"/><path d="m18 22c0 1.656-1.344 3-3 3s-3-1.344-3-3 1.344-3 3-3 3 1.344 3 3z"/></g><path d="m10 22h3v8h-3z" fill="#795548"/><g fill="#8bc34a"><path d="m14 9c0 1.656-1.344 3-3 3s-3-1.344-3-3 1.344-3 3-3 3 1.344 3 3z"/><path d="m10 11c0 1.656-1.344 3-3 3s-3-1.344-3-3 1.344-3 3-3 3 1.344 3 3z"/><path d="m18 11c0 1.656-1.344 3-3 3s-3-1.344-3-3 1.344-3 3-3 3 1.344 3 3z"/><path d="m9 16c0 1.656-1.344 3-3 3s-3-1.344-3-3 1.344-3 3-3 3 1.344 3 3z"/><path d="m20 15c0 1.656-1.344 3-3 3s-3-1.344-3-3 1.344-3 3-3 3 1.344 3 3z"/><path d="m10 20c0 1.656-1.344 3-3 3s-3-1.344-3-3 1.344-3 3-3 3 1.344 3 3z"/><path d="m19 19.5c0 1.935-1.565 3.5-3.5 3.5s-3.5-1.565-3.5-3.5 1.565-3.5 3.5-3.5 3.5 1.565 3.5 3.5z"/><path d="m14 22c0 1.658-1.342 3-3 3s-3-1.342-3-3 1.342-3 3-3 3 1.342 3 3z"/><path d="m17 15.5c0 3.593-2.236 6.5-5 6.5s-5-2.907-5-6.5 2.236-6.5 5-6.5 5 2.907 5 6.5z"/></g><path d="m45 39v-7.7c-2.854-2.097-7.333-3.3-12.385-3.3-8.624 0-15.615 3.94-15.615 8.8 0 .761.19 1.496.512 2.2z" fill="#689f38"/><path d="m3 33h42v6h-42z" fill="#80d8ff"/><path d="m45 37s-3 0-10 0c-8 0-12-8-21-8-6 0-8.906 2.125-11 4v9h42z" fill="#7cb342"/><path d="m45 42v-10.476c-7.792 3.421-13.332 8.382-19.861 10.476z" fill="#9ccc65"/></svg>