<svg fill="#666" height="50" viewBox="0 0 48 48" width="50" xmlns="http://www.w3.org/2000/svg"><path d="m40 45h-32v-42h22l10 10z" fill="#3f51b5"/><g fill="#e8eaf6"><path d="m38.5 14h-9.5v-9.5z"/><path d="m17.074219 23.046875h2.011719v6.890625c0 .964844-.269532 1.742188-.808594 2.324219-.539063.582031-1.230469.875-2.078125.875-.914063 0-1.621094-.269531-2.125-.8125-.507813-.542969-.761719-1.296875-.761719-2.261719h2.019531c0 .9375.289063 1.40625.867188 1.40625.582031 0 .875-.542969.875-1.625z"/><path d="m22.671875 29.5v3.5h-2.007812v-9.953125h3.390625c.984375 0 1.769531.304688 2.351562.917969.585938.609375.878906 1.402344.878906 2.378906 0 .972656-.289062 1.742188-.867187 2.308594s-1.378906.847656-2.40625.847656zm0-1.675781h1.382813c.382812 0 .679687-.125.886718-.375.210938-.25.316407-.613281.316407-1.09375 0-.496094-.105469-.890625-.320313-1.1875-.214844-.292969-.503906-.441406-.863281-.445313h-1.398438v3.101563z"/><path d="m35.394531 31.871094c-.386718.417969-.863281.734375-1.425781.949219-.5625.210937-1.179687.316406-1.847656.316406-1.144531 0-2.03125-.355469-2.667969-1.0625-.632812-.710938-.960937-1.738281-.976562-3.09375v-1.792969c0-1.371094.300781-2.425781.898437-3.167969.597656-.738281 1.472656-1.109375 2.621094-1.109375 1.078125 0 1.894531.265625 2.445312.800782.546875.53125.867188 1.367187.953125 2.507812h-1.957031c-.054687-.632812-.1875-1.066406-.394531-1.296875-.210938-.226562-.539063-.34375-.984375-.34375-.542969 0-.9375.199219-1.183594.59375-.246094.398438-.375 1.027344-.382812 1.894531v1.804688c0 .90625.136718 1.566406.40625 1.980469.273437.410156.71875.617187 1.335937.617187.398438 0 .71875-.078125.964844-.238281l.179687-.125v-1.824219h-1.410156v-1.515625h3.425781z"/></g></svg>