<svg fill="#666" height="50" viewBox="0 0 48 48" width="50" xmlns="http://www.w3.org/2000/svg"><g fill="#512da8"><path d="m23 4h2v11h-2z"/><path d="m42 21c0-1.1.9-2 2-2s2 .9 2 2v14c0 1.1-.9 2-2 2s-2-.9-2-2z"/><path d="m2 21c0-1.1.9-2 2-2s2 .9 2 2v14c0 1.1-.9 2-2 2s-2-.9-2-2z"/></g><g fill="#7e57c2"><path d="m28 6c0 2.2-1.8 4-4 4-.5 0-1-.1-1.4-.2-1.5-.6-1.5-3.8-1.5-3.8l2.9-3.5s1.9-.1 2.6.5c.9.7 1.4 1.8 1.4 3z"/><path d="m43 30.1v9.3c0 3.4-14.7 4.6-18.4 4.6h-1.2c-3.7-0-18.4-1.2-18.4-4.6v-9.3c0-9.4 8.4-17.1 18.4-17.1h1.2c10 0 18.4 7.7 18.4 17.1z"/></g><g fill="#5e35b1"><circle cx="32.5" cy="30.5" r="6.5"/><circle cx="15.5" cy="30.5" r="6.5"/></g><g fill="#fff9c4"><circle cx="15.5" cy="30.5" r="4.5"/><circle cx="32.5" cy="30.5" r="4.5"/></g><g fill="#5c6bc0"><circle cx="15.5" cy="30.5" r="2.5"/><circle cx="32.5" cy="30.5" r="2.5"/></g><g fill="#6e49b9"><path d="m22 7c0 1.2.5 2.2 1.3 2.9-1.9-.3-3.3-1.9-3.3-3.9 0-2.2 1.8-4 4-4 1 0 2 .4 2.7 1.1-.2-.1-.4-.1-.7-.1-2.2 0-4 1.8-4 4z"/><path d="m5 30.1v9.3c0 1 1.2 1.8 3 2.4v-10.1c0-10 7.9-18.2 17.5-18.7-.3 0-.6 0-.9 0h-1.2c-10 0-18.4 7.7-18.4 17.1z"/></g></svg>