<svg fill="#666" height="50" viewBox="0 0 48 48" width="50" xmlns="http://www.w3.org/2000/svg"><path d="m44 21.777344-8.820312-2.410156 4.535156-7.9375-3.144531-3.144532-7.59375 4.335938-2.753907-8.621094h-4.445312l-2.640625 8.265625-7.707031-3.980469-3.144532 3.144532 3.980469 7.710937-8.265625 2.636719v4.445312l8.261719 2.636719-3.976563 7.710938 3.144532 3.144531 7.707031-3.980469 2.640625 8.265625h4.445312l2.636719-8.265625 7.710938 3.980469 3.140625-3.144531-4.148438-8.042969 8.4375-2.304688zm-20 11.113281c-4.910156 0-8.890625-3.980469-8.890625-8.890625s3.980469-8.890625 8.890625-8.890625 8.890625 3.980469 8.890625 8.890625-3.980469 8.890625-8.890625 8.890625z" fill="#455a64"/><path d="m24 9c-8.285156 0-15 6.714844-15 15s6.714844 15 15 15 15-6.714844 15-15-6.714844-15-15-15z" fill="#78909c"/><path d="m19.320313 26.953125h-2.742188l-.53125 2.046875h-2.125l3.109375-10h1.835938l3.132812 10h-2.144531zm-2.304688-1.679687h1.859375l-.929687-3.566407zm15.984375 3.726562h-2v-10h2zm-7.988281-3.515625v3.515625h-2.011719v-10h3.390625c.984375 0 1.769531.304688 2.355469.921875.585937.613281.878906 1.410156.878906 2.386719 0 .980469-.289062 1.753906-.867187 2.324219-.582032.566406-1.382813.851562-2.40625.851562zm0-1.683594h1.378906c.382813 0 .679688-.125.890625-.378906.207031-.25.3125-.617187.3125-1.097656 0-.5-.109375-.894531-.320312-1.191406-.214844-.296875-.503907-.445313-.863282-.449219h-1.398437z" fill="#fff"/></svg>