<svg fill="#666" height="50" viewBox="0 0 48 48" width="50" xmlns="http://www.w3.org/2000/svg"><path d="m12 9h2v30h-2z" fill="#cfd8dc"/><path d="m14 37h-2v-7.398437c0-2.5 2-4.601563 4.601563-4.601563h14.898437c1.398438 0 2.601563-1.101562 2.601563-2.601562v-6.398438h2v6.398438c0 2.5-2 4.601562-4.601563 4.601562h-14.898437c-1.402344 0-2.601563 1.101563-2.601563 2.601563z" fill="#cfd8dc"/><path d="m9 8c0-2.199219 1.800781-4 4-4s4 1.800781 4 4-1.800781 4-4 4-4-1.800781-4-4zm26 10c2.199219 0 4-1.800781 4-4s-1.800781-4-4-4-4 1.800781-4 4 1.800781 4 4 4z" fill="#00bcd4"/><path d="m17 40c0 2.210938-1.789062 4-4 4-2.210937 0-4-1.789062-4-4 0-2.210937 1.789063-4 4-4 2.210938 0 4 1.789063 4 4z" fill="#0097a7"/></svg>