<svg fill="#666" height="50" viewBox="0 0 48 48" width="50" xmlns="http://www.w3.org/2000/svg"><path d="m24 4c-5.5 0-10 4.5-10 10v4h4v-4c0-3.300781 2.699219-6 6-6s6 2.699219 6 6v4h4v-4c0-5.5-4.5-10-10-10z" fill="#424242"/><path d="m36 44h-24c-2.199219 0-4-1.800781-4-4v-18c0-2.199219 1.800781-4 4-4h24c2.199219 0 4 1.800781 4 4v18c0 2.199219-1.800781 4-4 4z" fill="#fb8c00"/><path d="m30 31c0 3.3125-2.6875 6-6 6s-6-2.6875-6-6 2.6875-6 6-6 6 2.6875 6 6z" fill="#efebe9"/><path d="m27 31c0 1.65625-1.34375 3-3 3s-3-1.34375-3-3 1.34375-3 3-3 3 1.34375 3 3z" fill="#1e88e5"/><path d="m27 29c0 .550781-.449219 1-1 1s-1-.449219-1-1 .449219-1 1-1 1 .449219 1 1z" fill="#fff"/></svg>