<svg fill="#666" height="50" viewBox="0 0 48 48" width="50" xmlns="http://www.w3.org/2000/svg"><path d="m38 42h-28c-2.199219 0-4-1.800781-4-4v-28c0-2.199219 1.800781-4 4-4h28c2.199219 0 4 1.800781 4 4v28c0 2.199219-1.800781 4-4 4z" fill="#4caf50"/><path d="m29.601563 28c0 4-3.800782 4.5-4.5 4.5v2.199219h-1.800782v-2.199219c-.601562-.101562-4.800781-.5-4.800781-5.300781h3.300781c0 .5 0 2.800781 2.5 2.800781 2.097657 0 2.097657-1.699219 2.097657-1.898437 0-3.601563-7.199219-2.101563-7.199219-7.703125 0-3.398438 3.101562-4.5 4.5-4.5v-2.398438h1.800781v2.398438c1.101563.101562 4.199219 1 4.199219 5.203125h-3.300781c0-.902344-.199219-2.703125-2.097657-2.703125-1.902343 0-1.902343 1.703125-1.902343 2-.097657 3.300781 7.203125 1.902343 7.203125 7.601562z" fill="#fff"/></svg>