<svg fill="#666" height="50" viewBox="0 0 48 48" width="50" xmlns="http://www.w3.org/2000/svg"><path d="m2 10h44v28h-44z" fill="#3f51b5"/><g fill="#fff"><path d="m2 14.214844 20.808594 12.71875 3.128906-5.117188-19.328125-11.816406h-4.609375z"/><path d="m46 10h-3.609375l-19.328125 11.8125 3.125 5.121094 19.8125-12.109375z"/><path d="m26.1875 20.269531-3.125 5.121094 20.628906 12.609375h2.308594v-5.621094z"/><path d="m2 32.992188v5.007812h3.308594l20.628906-12.609375-3.125-5.121094z"/><path d="m2 20h44v8h-44z"/><path d="m20 10h8v28h-8z"/></g><g fill="#e53935"><path d="m17.21875 20-15.21875-9.300781v2.34375l11.382813 6.957031z"/><path d="m44.308594 10-16.363281 10h3.835937l14.21875-8.6875v-1.3125z"/><path d="m33.082031 28 12.917969 7.894531v-2.34375l-9.082031-5.550781z"/><path d="m15.917969 28-13.917969 8.507813v1.492187h1.390625l16.363281-10z"/><path d="m2 22h44v4h-44z"/><path d="m22 10h4v28h-4z"/></g></svg>