<svg fill="#666" height="50" viewBox="0 0 48 48" width="50" xmlns="http://www.w3.org/2000/svg"><path d="m10.699219 32.699219c-.5 0-.898438-.300781-1.199219-.800781-.199219-.398438-.300781-1-.398437-1.699219-.203125-2.199219 0-5.5.699218-6.5.300782-.5.800782-.699219 1.199219-.699219.300781 0 .601563.101563 7.101563 2.800781 0 0 1.898437.800782 1.898437.800782.699219.296875 1.101563 1 1.101563 1.796875 0 .800781-.5 1.402343-1.203125 1.601562 0 0-2.699219.898438-2.699219.898438-6 1.800781-6.199219 1.800781-6.5 1.800781zm13.300781 3.601562c0 6.300782 0 6.5-.101562 6.800782-.199219.5-.597657.796875-1.097657.898437-1.601562.300781-6.601562-1.601562-7.699218-2.800781-.203125-.300781-.300782-.5-.402344-.800781 0-.199219 0-.398438.101562-.597657.097657-.300781.300782-.601562 4.800782-5.902343 0 0 1.296875-1.597657 1.296875-1.597657.402343-.601562 1.300781-.699218 2-.5.703125.300782 1.203125.898438 1.101562 1.597657zm-1.199219-13.402343c-.300781.101562-1.300781.402343-2.5-1.597657 0 0-8.101562-12.902343-8.300781-13.300781-.101562-.398437 0-1 .398438-1.398437 1.203125-1.300782 7.703125-3.101563 9.402343-2.703125.597657.101562.898438.5 1.097657 1 .101562.601562.902343 12.5 1 15.203125.203125 2.398437-.796875 2.699218-1.097657 2.796875zm4.398438 3c-.398438-.597657-.398438-1.398438 0-1.898438 0 0 1.699219-2.300781 1.699219-2.300781 3.601562-5 3.800781-5.300781 4.101562-5.398438.398438-.300781.898438-.300781 1.398438-.101562 1.402343.699219 4.402343 5.101562 4.601562 6.699219v.101562c0 .601563-.199219 1-.601562 1.300781-.296875.199219-.5.300782-7.398438 1.898438-1.101562.300781-1.699219.402344-2 .5v-.097656c-.601562.296875-1.398437-.101563-1.800781-.703125zm11.699219 8.5c-.199219 1.601562-3.5 5.800781-5.097657 6.402343-.5.199219-1 .199219-1.402343-.199218-.296875-.203125-.5-.601563-4.097657-6.402344l-1.101562-1.699219c-.398438-.601562-.300781-1.398437.199219-2.101562.5-.597657 1.203125-.796875 1.902343-.597657 0 0 2.699219.898438 2.699219.898438 6 2 6.199219 2 6.398438 2.199219.402343.5.601562 1 .5 1.5z" fill="#dd2c00"/></svg>