<svg fill="#666" height="50" viewBox="0 0 48 48" width="50" xmlns="http://www.w3.org/2000/svg"><path d="m37.25 45h-2.625v-1.875h3.375z" fill="#ff9800"/><path d="m22 37-5-6v-6h10v6z" fill="#ff9800"/><path d="m33 19c0 1.105469-.894531 2-2 2s-2-.894531-2-2 .894531-2 2-2 2 .894531 2 2m-18 0c0-1.105469-.894531-2-2-2s-2 .894531-2 2 .894531 2 2 2 2-.894531 2-2" fill="#f9a825"/><path d="m31 13c0-7.636719-18-4.972656-18 0v7c0 4.972656 4.027344 9 9 9s9-4.027344 9-9z" fill="#ffb74d"/><path d="m22 4c-6.074219 0-10 4.925781-10 11v2.285156l2 1.714844v-5l12-4 4 4v5l2-1.742187v-2.257813c0-4.023437-1.039062-8.015625-6-9l-1-2z" fill="#424242"/><path d="m25 19c0-.550781.449219-1 1-1s1 .449219 1 1-.449219 1-1 1-1-.449219-1-1m-8 0c0 .550781.449219 1 1 1s1-.449219 1-1-.449219-1-1-1-1 .449219-1 1" fill="#784719"/><path d="m22 43-5-12 5 1 5-1z" fill="#fff"/><path d="m21 35-.667969 4.464844 1.667969 4 1.667969-4-.667969-4.464844 1-1-2-2-2 2z" fill="#212121"/><path d="m35 35.578125c-3.257812-3.707031-8-4.578125-8-4.578125l-5 12-5-12s-11 1.984375-11 13h29z" fill="#90a4ae"/><path d="m22 26c-2 0-2-2-2-2h4s0 2-2 2z" fill="#fff"/><path d="m40 27-11.765625 10.925781 6.488281 6.0625 11.277344-10.925781z" fill="#1b5e20"/><path d="m35.9375 23-9.9375 17.691406 9.0625 5.308594 9.9375-17.691406z" fill="#388e3c"/><path d="m36.683594 25.753906 5.613281 3.289063-7.980469 14.203125-5.609375-3.289063z" fill="#a5d6a7"/><g fill="#388e3c"><path d="m40.253906 26.207031c-.714843-.417968-1.632812-.179687-2.050781.535157-.417969.714843-.175781 1.636718.539063 2.054687.714843.417969 1.632812.175781 2.050781-.539062.417969-.714844.179687-1.632813-.539063-2.050782z"/><path d="m32.253906 40.207031c-.714843-.421875-1.632812-.179687-2.050781.535157-.417969.714843-.175781 1.632812.539063 2.050781.714843.421875 1.632812.179687 2.050781-.535156.417969-.714844.175781-1.632813-.539063-2.050782z"/><path d="m37.265625 31.480469c-1.667969-.976563-3.8125-.414063-4.789062 1.253906-.972657 1.667969-.414063 3.8125 1.253906 4.785156 1.667969.976563 3.8125.414063 4.789062-1.253906.976563-1.667969.414063-3.808594-1.253906-4.785156z"/></g><path d="m40.332031 38.28125-1.992187-1.121094c-.730469-.429687-1.78125.035157-2.347656 1.039063l-1.640625 2.90625c-.566407 1.003906-.433594 2.167969.296875 2.601562l2.035156 1.144532c.730469.410156 1.765625-.058594 2.324219-1.050782l1.640625-2.90625c.574218-1.015625.429687-2.195312-.316407-2.613281z" fill="#ffb74d"/></svg>