<svg fill="#666" height="50" viewBox="0 0 48 48" width="50" xmlns="http://www.w3.org/2000/svg"><path d="m31.398438 40h-2.699219l-.5 2h-2.199219l3.101563-10h1.796875l3.101562 10h-2.101562zm-2.296875-1.699219h1.898437l-1-3.601562zm7.898437 2h4v1.699219h-6v-10h2zm-23-6.601562h-2.5v8.300781h-2v-8.300781h-2.5v-1.699219h7zm11 8.300781h-2v-10h2zm-7-3.601562h-1v3.601562h-2v-10h3.199219c1 0 1.800781.300781 2.300781.800781s.800781 1.300782.800781 2.199219c0 1.300781-.5 2.199219-1.402343 2.800781l1.703125 4.097657v.101562h-2.203125zm-1-1.699219h1.101563c.398437 0 .699218-.097656.898437-.398438.199219-.300781.300781-.601562.300781-1.101562 0-1-.402343-1.5-1.199218-1.5h-1.101563z" fill="#ff6d00"/><path d="m41.101563 29h-34.203125c-1 0-1.898438-.800781-1.898438-1.898437v-19.203125c0-1.097657.800781-1.898438 1.898438-1.898438h34.300781c1 0 1.902344.800781 1.902344 1.898438v19.300781c-.101563 1-.902344 1.800781-2 1.800781z" fill="#ffc107"/><path d="m27 18v-12h-6v12h-5l8 8 8-8z" fill="#fff"/></svg>