<svg fill="#666" height="50" viewBox="0 0 48 48" width="50" xmlns="http://www.w3.org/2000/svg"><path d="m3 12v24c0 2.210938 1.789063 4 4 4h33c1 0 1-.996094 1-.996094v-27.003906z" fill="#f57c00"/><path d="m40 8h-33c-2.210937 0-4 1.789063-4 4 0 2.207031 1.789063 4 4 4h33c1 0 1 1 1 1v-8c0-.550781-.445312-1-1-1z" fill="#942a09"/><path d="m7 12v4h33c1 0 1 1.003906 1 1.003906v20.996094h2v-26z" fill="#4caf50"/><path d="m7 14v2h28.683594c-.296875-.621094-.496094-1.296875-.601563-2z" fill="#c8e6c9"/><path d="m45 23h-9c-2.210937 0-4 1.789063-4 4 0 2.210938 1.789063 4 4 4h9z" fill="#bf360c"/><path d="m38 27c0 1.105469-.894531 2-2 2s-2-.894531-2-2 .894531-2 2-2 2 .894531 2 2z" fill="#ffecb3"/></svg>