<svg fill="#666" height="50" viewBox="0 0 48 48" width="50" xmlns="http://www.w3.org/2000/svg"><path d="m22 42v-36h4v36zm18 0v-36h-4v36zm-28 0v-36h-4v36z" fill="#cfd8dc"/><path d="m36 42v-24h4v24zm-24 0v-28h-4v28zm14 0v-11h-4v11z" fill="#ff6d00"/><path d="m34 20v-3c0-.5.5-1 1-1h6c.5 0 1 .5 1 1v3c0 .5-.5 1-1 1h-6c-.5 0-1-.5-1-1zm-27-3h6c.601563 0 1-.5 1-1v-3c0-.601562-.398437-1-1-1h-6c-.601562 0-1 .398438-1 1v3c0 .5.398438 1 1 1zm14 17h6c.5 0 1-.5 1-1v-3c0-.5-.5-1-1-1h-6c-.5 0-1 .5-1 1v3c0 .5.5 1 1 1z" fill="#bf360c"/></svg>