<svg fill="#666" height="50" viewBox="0 0 48 48" width="50" xmlns="http://www.w3.org/2000/svg"><path d="m21.199219 44.800781-18-18c-1.597656-1.601562-1.597656-4.101562 0-5.699218l18-18c1.601562-1.601563 4.101562-1.601563 5.699219 0l18 18c1.601562 1.597656 1.601562 4.097656 0 5.699218l-18 18c-1.597657 1.597657-4.199219 1.597657-5.699219 0z" fill="#f44336"/><path d="m21.601563 32.699219c0-.300781.097656-.597656.199218-.898438.097657-.300781.300782-.5.5-.699218.199219-.203125.5-.402344.800782-.5.296875-.101563.597656-.203125 1-.203125.398437 0 .699218.101562 1 .203125.296875.097656.597656.296875.796875.5.203125.199218.402343.398437.5.699218.101562.300782.203125.597657.203125.898438s-.101563.601562-.203125.902344c-.097657.296875-.296875.5-.5.699218-.199219.199219-.5.398438-.796875.5-.300782.097657-.601563.199219-1 .199219-.402344 0-.703125-.101562-1-.199219-.300782-.101562-.5-.300781-.800782-.5-.199218-.199218-.402343-.402343-.5-.699218-.101562-.300782-.199218-.5-.199218-.902344zm4.199218-4.597656h-3.601562l-.5-15.101563h4.601562z" fill="#fff"/></svg>