<svg fill="#666" height="50" viewBox="0 0 48 48" width="50" xmlns="http://www.w3.org/2000/svg"><path d="m11 17c2.2 0 4 1.8 4 4s-1.8 4-4 4-4-1.8-4-4 1.8-4 4-4" fill="#ffb74d"/><path d="m24.5 44c-.3 0-.5 0-.8-.1-1.3-.4-2-1.8-1.6-3.1l5.5-18.5c.4-1.3 1.8-2 3.1-1.6s2 1.8 1.6 3.1l-5.5 18.5c-.2 1-1.2 1.7-2.3 1.7z" fill="#f8a72a"/><path d="m15 39c-.2 0-.3 0-.5-.1-1.1-.3-1.7-1.4-1.4-2.4l4.9-18.8v-11.7c0-1.1.9-2 2-2s2 .9 2 2v12c0 .2 0 .3-.1.5l-5 19c-.2.9-1 1.5-1.9 1.5z" fill="#ffb74d"/><path d="m37.5 44c-1.1 0-2.1-.8-2.4-1.9l-5.5-19.5c-.3-1.3 0-4.6 1.4-4.6 1.8 0 3.7 2.7 4 4l5 18.9c.3 1.3-.5 2.7-1.8 3-.3.1-.5.1-.7.1z" fill="#ffb74d"/><path d="m31 18h-13l-1.6 6.1 3.6 1.9h10.6c0-3.8 1.6-4 4.4-4 0-2.2-1.8-4-4-4z" fill="#ff66a1"/><path d="m30.8 24h-10.3l-.5 2h10.5l.1-.1c0-.8.1-1.4.2-1.9z" fill="#ec407a"/></svg>