<svg fill="#666" height="50" viewBox="0 0 48 48" width="50" xmlns="http://www.w3.org/2000/svg"><g fill="#90caf9"><path d="m4 9h21v4h-21z"/><path d="m4 22h21v4h-21z"/><path d="m4 35h21v4h-21z"/></g><path d="m30.054688 33.308594 2.234375-2.242188 9.683593 9.710938-2.234375 2.242187z" fill="#f44336"/><path d="m32.289063 43.019531-2.234375-2.242187 9.683593-9.710938 2.234375 2.242188z" fill="#f44336"/><g fill="#4caf50"><path d="m31.269531 7.121094 6.367188 6.363281-2.121094 2.121094-6.367187-6.363281z"/><path d="m35.515625 15.605469-2.121094-2.121094 8.484375-8.484375 2.121094 2.121094z"/><path d="m31.273438 19.121094 6.363281 6.363281-2.121094 2.121094-6.367187-6.363281z"/><path d="m35.515625 27.605469-2.121094-2.121094 8.484375-8.484375 2.121094 2.121094z"/></g></svg>