<svg fill="#666" height="50" viewBox="0 0 48 48" width="50" xmlns="http://www.w3.org/2000/svg"><path d="m42 34c0 8-8.1 8-18 8s-18 0-18-8 8.1-18 18-18 18 10 18 18z" fill="#3f51b5"/><path d="m30 7.6c-1.9 2.1-1-4.4-5 0-1.9 2.1-1-4.4-5 0-1.7 1.9-1.2-3.1-3.9-1.1l2.9 10.5h10l3-11c-.5.2-1.1.6-2 1.6z" fill="#3f51b5"/><path d="m14 39c-.5 0-.9-.3-1-.8-.5-2.3-.5-4.7-.2-7.1.6-4.8 2.2-9.4 4.6-12.9.1-.1.1-.2.2-.3.3-.5.6-1 1.1-1.3.6-.4 1.1-.3 1.5-.2h.1c.8.2 1.5.3 2.2.4 2.2.3 4.4 0 6.2-.7.5-.2 1.1 0 1.3.6.2.5 0 1.1-.6 1.3-2.2.9-4.6 1.1-7.2.8-.7-.1-1.5-.2-2.4-.5h-.1c-.1.2-.3.4-.4.6s-.2.3-.3.4c-2.2 3.2-3.7 7.5-4.3 12-.3 2.2-.2 4.3.2 6.4.1.5-.2 1.1-.8 1.2 0 .1 0 .1-.1.1z" fill="#fdd835"/><path d="m11 29c-.6 0-1-.4-1-1 0-3.4 4.1-11 8.8-12 .5-.1 1.1.2 1.2.8.1.5-.2 1.1-.8 1.2-3.6.7-7.2 7.3-7.2 10 0 .6-.4 1-1 1z" fill="#fdd835"/><path d="m23 31v2c0 .9-.1 1.5-.6 2h6.6v2h-10v-2h1.2c.3-.1.5-.2.6-.5s.2-.8.2-1.4v-2.1h-2v-2h2v-1.9c0-1.3.3-2.3 1.1-3s1.5-1.1 2.8-1.1 2.2.3 2.9 1c.8.7 1.1 1.8 1.1 3h-2c0-.6-.2-1.2-.5-1.6-.3-.3-1-.5-1.6-.5s-1 .2-1.4.6c-.2.5-.4 1-.4 1.6v1.9h3v2z" fill="#e8eaf6"/></svg>