<svg fill="#666" height="50" viewBox="0 0 48 48" width="50" xmlns="http://www.w3.org/2000/svg"><path d="m44 24c0 11.047-8.953 20-20 20s-20-8.953-20-20 8.953-20 20-20 20 8.953 20 20" fill="#7cb342"/><path d="m9.924 9.793c3.616-3.579 8.588-5.793 14.076-5.793v20z" fill="#dcedc8"/><path d="m40 24c0 8.836-7.164 16-16 16s-16-7.164-16-16 7.164-16 16-16 16 7.164 16 16" fill="#fff"/><path d="m22.08 24.562c.312 1.057 1.424 1.666 2.481 1.354s1.666-1.42 1.354-2.478c-.312-1.061-1.42-1.666-2.478-1.358-1.06.313-1.665 1.421-1.357 2.482"/><path d="m9.924 9.793 15.236 12.582-2.749 2.838z"/><path d="m23 23.996c0 .555.449 1 1 1s1-.445 1-1c0-.551-.449-1-1-1s-1 .449-1 1" fill="#8bc34a"/><path d="m19.214 4.6c-.135.444-.214.911-.214 1.4 0 2.76 2.24 5 5 5s5-2.24 5-5c0-.489-.079-.956-.214-1.4-1.536-.378-3.133-.6-4.786-.6s-3.25.222-4.786.6z" fill="#dcedc8"/><path d="m27 6c0 1.656-1.344 3-3 3s-3-1.344-3-3 1.344-3 3-3 3 1.344 3 3z" fill="#33691e"/></svg>