<svg fill="#666" height="50" viewBox="0 0 48 48" width="50" xmlns="http://www.w3.org/2000/svg"><path d="m41 10h-16v28h16c.554688 0 1-.445312 1-1v-26c0-.554687-.445312-1-1-1z" fill="#4caf50"/><g fill="#fff"><path d="m32 15h7v3h-7z"/><path d="m32 25h7v3h-7z"/><path d="m32 30h7v3h-7z"/><path d="m32 20h7v3h-7z"/><path d="m25 15h5v3h-5z"/><path d="m25 25h5v3h-5z"/><path d="m25 30h5v3h-5z"/><path d="m25 20h5v3h-5z"/></g><path d="m27 42-21-4v-28l21-4z" fill="#2e7d32"/><path d="m19.128906 31-2.410156-4.5625c-.09375-.167969-.1875-.480469-.285156-.9375h-.035156c-.046875.214844-.15625.542969-.324219.980469l-2.421875 4.519531h-3.757813l4.460938-7-4.082031-7h3.835937l2.003906 4.195313c.15625.332031.292969.726562.417969 1.179687h.039063c.078125-.269531.226562-.679687.441406-1.21875l2.226562-4.15625h3.515625l-4.199218 6.9375 4.3125 7.058594h-3.738282z" fill="#fff"/></svg>