<svg fill="#666" height="50" viewBox="0 0 48 48" width="50" xmlns="http://www.w3.org/2000/svg"><path d="m20 5h2v6h-2z" fill="#ffa000"/><path d="m24 5h2v7h-2z" fill="#ffa000"/><path d="m28 15h15v28h-15z" fill="#c5cae9"/><path d="m28 15h3v28h-3z" fill="#7986cb"/><path d="m7.149 43h20.851v-31l-23-7v22z" fill="#ffca28"/><g fill="#5c6bc0"><path d="m31 18h3v3h-3z"/><path d="m31 23h3v3h-3z"/><path d="m31 28h3v3h-3z"/><path d="m31 33h3v3h-3z"/><path d="m31 38h3v3h-3z"/><path d="m37 18h3v3h-3z"/><path d="m37 23h3v3h-3z"/><path d="m37 28h3v3h-3z"/><path d="m37 33h3v3h-3z"/><path d="m37 38h3v3h-3z"/></g><path d="m5 35h3v6h-3z" fill="#795548"/><path d="m9 43h-5s1-1 1-2 3-1 3 0 1 2 1 2z" fill="#795548"/><g fill="#fb8c00"><path d="m8 18h17v3h-17z"/><path d="m8 23h10v2.933h-10z"/><path d="m20 23h5v2.933h-5z"/><path d="m8 13h8v3h-8z"/><path d="m8 28h17v3h-17z"/><path d="m8 33h17v3h-17z"/></g><path d="m13 32.129c0-.797-.48-1.462-1.122-1.632-.13-.663-.598-1.171-1.183-1.277.086-.198.138-.418.138-.655 0-.811-.566-1.468-1.264-1.468-.221 0-.426.072-.606.187-.162-.593-.635-1.026-1.199-1.026-.093 0-.183.013-.271.036-.215-.75-.817-1.294-1.535-1.294-.574 0-1.076.347-1.365.869-.085-.018-.171-.03-.26-.03-.721 0-1.314.616-1.422 1.419-.17-.1-.36-.161-.564-.161-.698 0-1.264.657-1.264 1.468 0 .078.01.154.02.228-.621.093-1.103.702-1.103 1.449 0 .811.566 1.468 1.264 1.468.078 0 .154-.011.229-.027-.25.268-.409.649-.409 1.075 0 .078.01.154.02.228-.622.093-1.104.703-1.104 1.449 0 .811.566 1.468 1.264 1.468.067 0 .132-.011.197-.023.08.721.605 1.281 1.248 1.281.454 0 .848-.28 1.071-.697.207.173.46.277.734.277.093 0 .183-.013.271-.036.215.751.817 1.295 1.534 1.295.729 0 1.338-.561 1.544-1.329.142.042.288.071.442.071.539 0 1.017-.28 1.348-.714.261.431.691.714 1.18.714.798 0 1.444-.751 1.444-1.677 0-.517-.206-.974-.523-1.281.704-.115 1.246-.808 1.246-1.655z" fill="#2e7d32"/></svg>