<svg fill="#666" height="50" viewBox="0 0 48 48" width="50" xmlns="http://www.w3.org/2000/svg"><path d="m2 8h44v32h-44z" fill="#eceff1"/><path d="m44 10v28h-40v-28zm2-2h-44v32h44z" fill="#cfd8dc"/><path d="m24.71 26.71-.71-.71-.7.71.29.29-.29.3.7.7.71-.7.29-.3z" fill="#3949ab"/><path d="m24.71 26.71-.71-.71-.7.71-.3.29 1 1 .71-.7-.3-.3z" fill="#3949ab"/><g fill="#3f51b5"><path d="m24 27-8 8v-4h-4l9-9 3 3-.7.71-.3.29z"/><path d="m36 31h-4v4l-8-8 .71-.7.29-.3-.29-.29-.71-.71 3-3z"/></g><path d="m32.45 23.8c-.236.349-.54.653-.889.889-.259.169-.382.461-.315.754.349 1.755-.788 3.454-2.554 3.803-.203.045-.405.056-.619.067-.214 0-.439-.023-.653-.067h-.146c-.247 0-.484.112-.619.315-.596.888-1.586 1.428-2.655 1.439h-.011c-1.08 0-2.093-.529-2.689-1.418-.135-.202-.371-.326-.619-.326h-.101c-.214.034-.439.056-.653.056-1.8-.011-3.24-1.462-3.229-3.24 0-.214.023-.416.056-.619.068-.293-.056-.585-.315-.754-1.485-.99-1.89-2.992-.889-4.477.236-.349.54-.653.889-.889.259-.169.382-.461.315-.754-.349-1.755.788-3.454 2.554-3.803.203-.034.405-.056.619-.056s.439.023.653.056h.146c.236-.011.45-.135.574-.337.619-.933 1.654-1.439 2.7-1.439.619 0 1.238.169 1.789.54.36.236.675.54.911.9.135.202.371.337.619.337h.101c.214-.045.439-.067.653-.067 1.8.011 3.24 1.463 3.229 3.24 0 .214-.023.416-.056.619-.056.292.068.585.315.754 1.485.989 1.89 2.992.889 4.477z" fill="#ffb300"/><circle cx="24" cy="22" fill="#ffd54f" r="6"/></svg>