<svg fill="#666" height="50" viewBox="0 0 48 48" width="50" xmlns="http://www.w3.org/2000/svg"><path d="m17.398438 33h-2.398438v-4h4l.398438 1.5c.300781 1.300781-.699219 2.5-2 2.5z" fill="#90caf9"/><path d="m37 36s-11.800781-7-18-7v-14c5.800781 0 18-7 18-7z" fill="#90caf9"/><g fill="#283593"><path d="m14 22c0 2.761719-2.238281 5-5 5s-5-2.238281-5-5 2.238281-5 5-5 5 2.238281 5 5z"/><path d="m40 19h-3v6h3c1.699219 0 3-1.300781 3-3s-1.300781-3-3-3z"/><path d="m18.601563 41.199219c-.902344.601562-2.5 1.199219-4.601563 1.402344-.601562.097656-1.199219-.300782-1.398437-1l-4.402344-13.703125s8.800781-6.199219 8.800781 1.101562c0 5.5 1.5 8.398438 2.199219 9.5.5.699219.5 1.601563 0 2.300781-.199219.199219-.398438.300782-.597656.398438z"/></g><path d="m9 29h10v-14h-10c-1.101562 0-2 .898438-2 2v10c0 1.101563.898438 2 2 2z" fill="#3f51b5"/><path d="m38 38c-1.101562 0-2-.898437-2-2v-28c0-1.101562.898438-2 2-2 1.101563 0 2 .898438 2 2v28c0 1.101563-.898437 2-2 2z" fill="#42a5f5"/></svg>