<svg fill="#666" height="50" viewBox="0 0 48 48" width="50" xmlns="http://www.w3.org/2000/svg"><path d="m41 24c-1.101562 0-2.101562 0-3 0-4.898437 0-8.898437-3.101562-8.898437-8.898437 0-2.902344 1.296875-4.101563 2.898437-4.101563 1.5 0 2.699219 1 2.699219 3.699219 0 1.5-.398438 3.199219-.699219 4.199219 0 0 1.398438 3 5.601563 1.800781.898437-1.898438 1.398437-4.398438 1.398437-6.5 0-5.800781-3-9.199219-8.601562-9.199219-5.699219 0-9.398438 4.300781-9.398438 10 0 5.601563 3 10.398438 7.5 12.601563-1.898437 3.597656-4 7-6.5 9.398437-4.398437-5.300781-8.898437-12.5-10-26h-7c3.101563 22.699219 12.601563 30 15 31.398438 1.398438.800781 2.5.800781 3.800781.101562 2-1.101562 7.300782-6.800781 10.597657-13.5 1.402343 0 3-.199219 4.601562-.5z" fill="#00bfa5"/></svg>