<svg fill="#666" height="50" viewBox="0 0 48 48" width="50" xmlns="http://www.w3.org/2000/svg"><path d="m42 37c0 2.761719-2.238281 5-5 5h-26c-2.761719 0-5-2.238281-5-5v-26c0-2.761719 2.238281-5 5-5h26c2.761719 0 5 2.238281 5 5z" fill="#00bcd4"/><g fill="#fff"><path d="m14 25.484375v3.515625h-1.992187v-10h3.757812c.984375 0 1.769531.308594 2.355469.921875.585937.609375.878906 1.40625.878906 2.390625 0 .980469-.289062 1.75-.867187 2.320313-.578125.566406-1.382813.851562-2.40625.851562zm.015625-1.683594h1.75c.382813 0 .679688-.125.890625-.378906.210938-.25.3125-.617187.3125-1.097656 0-.5-.105469-.894531-.320312-1.191406-.214844-.292969-.5-.445313-.859375-.449219h-1.773438z"/><path d="m31 25.484375v3.515625h-1.992187v-10h3.757812c.984375 0 1.769531.308594 2.355469.921875.585937.609375.878906 1.40625.878906 2.390625 0 .980469-.289062 1.75-.867187 2.320313-.578125.566406-1.382813.851562-2.40625.851562zm.015625-1.683594h1.75c.382813 0 .679688-.125.890625-.378906.210938-.25.3125-.617187.3125-1.097656 0-.5-.105469-.894531-.320312-1.191406-.214844-.292969-.5-.445313-.859375-.449219h-1.773438z"/><path d="m27 29h-2v-4.277344h-3.019531v4.277344h-1.980469v-10h1.980469v4h3.019531v-4h2z"/></g></svg>