<svg fill="#666" height="50" viewBox="0 0 48 48" width="50" xmlns="http://www.w3.org/2000/svg"><path d="m42 37c0 2.761719-2.238281 5-5 5h-26c-2.761719 0-5-2.238281-5-5v-26c0-2.761719 2.238281-5 5-5h26c2.761719 0 5 2.238281 5 5z" fill="#ff4081"/><path d="m33.0625 26.273438c-.703125-.222657-1.464844.175781-1.6875.894531-.824219 2.65625-2.316406 5.417969-2.992187 5.570312-.507813 0-1.238282-.429687-1.957032-1.441406 1.671875-3.59375 2.550782-8.105469 2.550782-11.117187 0-8.414063-2.125-10.179688-3.910157-10.179688-3.757812 0-3.800781 9.910156-3.800781 10.011719 0 1.167969.042969 2.25.121094 3.257812-.515625-.191406-1.113281-.320312-1.769531-.320312-3.859375 0-5.617188 3.808594-5.617188 7.347656 0 3.332031 1.871094 6.703125 6.046875 6.703125 1.972656 0 3.632813-1.289062 4.972656-3.222656 1.191407 1.238281 2.433594 1.699219 3.363282 1.699219 2.921875 0 4.855468-5.234375 5.554687-7.488282.222656-.71875-.171875-1.484375-.875-1.714843zm-13.015625 7.992187c-3.03125 0-3.359375-2.777344-3.359375-3.96875 0-.191406.035156-4.613281 2.933594-4.613281 1.144531 0 2.019531.886719 2.019531.886719.066406.070312.136719.128906.214844.183593.375 1.902344.902344 3.425782 1.515625 4.632813-1.003906 1.734375-2.167969 2.878906-3.324219 2.878906zm4.855469-6.339844c-.558594-1.929687-.949219-4.519531-.949219-7.914062 0-3.125.667969-6.066406 1.222656-7.074219.421875.644531 1.113282 2.652344 1.113282 7.242188 0 2.4375-.539063 5.265625-1.386719 7.746093z" fill="#fff"/></svg>