<svg fill="#666" height="50" viewBox="0 0 48 48" width="50" xmlns="http://www.w3.org/2000/svg"><path d="m14.285156 45.003906 4.175782-7.519531-1.746094-.96875-4.714844 8.488281z" fill="#607d8b"/><path d="m33.714844 45.003906-4.175781-7.519531 1.746093-.96875 4.714844 8.488281z" fill="#607d8b"/><path d="m38 38v-26.5c0-3.589844-2.910156-4.5-6.5-4.5h-15c-3.589844 0-6.5.910156-6.5 4.5v26.5z" fill="#4caf50"/><path d="m24 3c-2.207031 0-4 1.792969-4 4s1.792969 4 4 4 4-1.792969 4-4-1.792969-4-4-4z" fill="#388e3c"/><path d="m26 7c0 1.105469-.894531 2-2 2s-2-.894531-2-2 .894531-2 2-2 2 .894531 2 2z" fill="#ffeb3b"/><g fill="#37474f"><path d="m38 38s0 2-2 2-22 0-24 0-2-2-2-2v-7h28z"/><path d="m14 30c1.105469 0 2 .894531 2 2s-.894531 2-2 2-2-.894531-2-2 .894531-2 2-2m0-2c-2.207031 0-4 1.792969-4 4s1.792969 4 4 4 4-1.792969 4-4-1.792969-4-4-4z"/><path d="m34 30c1.105469 0 2 .894531 2 2s-.894531 2-2 2-2-.894531-2-2 .894531-2 2-2m0-2c-2.207031 0-4 1.792969-4 4s1.792969 4 4 4 4-1.792969 4-4-1.792969-4-4-4z"/></g><path d="m34.5 12h-9.5v9h9.5c.828125 0 1.5-.671875 1.5-1.5v-6c0-.828125-.671875-1.5-1.5-1.5z" fill="#0b420d"/><path d="m23 12h-9.5c-.828125 0-1.5.671875-1.5 1.5v6c0 .828125.671875 1.5 1.5 1.5h9.5z" fill="#0b420d"/><g fill="#c5cae9"><path d="m16 32c0 1.105469-.894531 2-2 2s-2-.894531-2-2 .894531-2 2-2 2 .894531 2 2z"/><path d="m36 32c0 1.105469-.894531 2-2 2s-2-.894531-2-2 .894531-2 2-2 2 .894531 2 2z"/></g></svg>