<svg fill="#666" height="50" viewBox="0 0 48 48" width="50" xmlns="http://www.w3.org/2000/svg"><path d="m40 37c0 1.105469-.894531 2-2 2h-20c-1.105469 0-2-.894531-2-2v-25c0-1.105469.894531-2 2-2h20c1.105469 0 2 .894531 2 2z" fill="#5c6bc0"/><path d="m23 14h13v5h-13z" fill="#cddc39"/><g fill="#bbdefb"><path d="m23 22h3v3h-3z"/><path d="m28 22h3v3h-3z"/><path d="m33 22h3v3h-3z"/><path d="m23 27h3v3h-3z"/><path d="m28 27h3v3h-3z"/><path d="m33 27h3v3h-3z"/><path d="m23 32h3v3h-3z"/><path d="m28 32h3v3h-3z"/><path d="m33 32h3v3h-3z"/></g><path d="m13.5 6c-5.5 0-5.5 2-5.5 3v30c0 1-.0625 3 5.5 3s5.5-2 5.5-3 0-29 0-30 0-3-5.5-3z" fill="#283593"/></svg>