<svg fill="#666" height="50" viewBox="0 0 48 48" width="50" xmlns="http://www.w3.org/2000/svg"><path d="m42 37c0 2.761719-2.238281 5-5 5h-26c-2.761719 0-5-2.238281-5-5v-26c0-2.761719 2.238281-5 5-5h26c2.761719 0 5 2.238281 5 5z" fill="#01579b"/><path d="m32 34.890625c0 .09375-.035156.183594-.109375.246094-.085937.078125-2.167969 1.863281-6.945312 1.863281-5.722657 0-5.890625-6.410156-5.890625-7.140625l-.054688-7.859375h-2.671875c-.183594 0-.328125-.148437-.328125-.328125v-3.101562c0-.136719.082031-.257813.207031-.308594.054688-.019531 5.171875-2.082031 5.171875-6.933594 0-.183594.144532-.328125.328125-.328125h2.964844c.183594 0 .328125.144531.328125.328125v6.671875h5.671875c.179688 0 .328125.144531.328125.328125v3.34375c0 .183594-.148437.328125-.328125.328125h-5.671875v7.710938c0 .101562.316406 2.519531 2.761719 2.519531 2.019531 0 3.71875-1.042969 3.738281-1.054688.101563-.066406.226563-.066406.332031-.011718.105469.058593.167969.171875.167969.289062z" fill="#fff"/></svg>