<svg fill="#666" height="50" viewBox="0 0 48 48" width="50" xmlns="http://www.w3.org/2000/svg"><path d="m42 37c0 2.762-2.239 5-5 5h-26c-2.762 0-5-2.238-5-5v-26c0-2.762 2.238-5 5-5h26c2.761 0 5 2.238 5 5z" fill="#03a9f4"/><path d="m36 17.12c-.882.391-1.999.758-3 .88 1.018-.604 2.633-1.862 3-3-.951.559-2.671 1.156-3.793 1.372-.896-.95-2.174-1.372-3.59-1.372-2.72 0-4.617 2.305-4.617 5v2c-4 0-7.9-3.047-10.327-6-.427.721-.667 1.565-.667 2.457 0 1.819 1.671 3.665 2.994 4.543-.807-.025-2.335-.641-3-1v.057c0 2.367 1.661 3.974 3.912 4.422-.411.113-.912.521-2.84.521.626 1.935 3.773 2.958 5.928 3-1.686 1.307-4.692 2-7 2-.399 0-.615.022-1-.023 2.178 1.38 5.22 2.023 8 2.023 9.057 0 14-6.918 14-13.37 0-.212-.007-.922-.018-1.13.968-.682 1.36-1.396 2.018-2.38" fill="#fff"/></svg>