<svg fill="#666" height="50" viewBox="0 0 48 48" width="50" xmlns="http://www.w3.org/2000/svg"><path d="m32.2 18.3c-.1-1.7-1.8-7.5-7.3-10.8-1.1-.7-2.4-1-3.6-1.3 1.5 2 2.2 3.8 2.1 5.6 0 .9-.6 1.9-1 2.5-.4.7-2.8 1.7-2.8 5.1 0 2.7 2.4 4.7 5.1 4.6.7 0 1.3-.2 1.8-.5.1 0 .4.5.5.5 3-.1 5.4-2.8 5.2-5.7z" fill="#5d4037"/><path d="m29.4 33c-11.2 0-15.8-5.5-16.3-6.1l7.9-6.2s0-.1-.1-.2c.1.1 2.9 3 10.8 2.4 2.7-.2 5.2 1.8 5.4 4.6s-1.8 5.2-4.6 5.4c-1.1.1-2.2.1-3.1.1z" fill="#795548"/><path d="m25.1 41.7c-10.6 0-17-5.6-17.4-6-2.1-1.8-2.2-5-.4-7.1 1.8-2 5-2.2 7-.4.4.3 8.1 6.7 20.7 1.2 2.5-1.1 5.5 0 6.6 2.6 1.1 2.5 0 5.5-2.6 6.6-5.2 2.3-9.9 3.1-13.9 3.1z" fill="#8d6e63"/></svg>