<svg fill="#666" height="50" viewBox="0 0 48 48" width="50" xmlns="http://www.w3.org/2000/svg"><g fill="#2e7d32"><path d="m42.535156 23.789063c1.609375 3.585937-1.367187 7.132812-2.765625 7.160156h-3.484375l-5.234375-9.289063 7.71875-4.464843 3.703125 6.410156z"/><path d="m24.097656 8.277344-1.945312-2.261719h-2.09375c-1.6875-.027344-3.746094.570313-4.960938 2.304688l-.09375.152343-3.703125 6.410157 7.71875 4.46875 5.597657-9.152344z"/><path d="m15.402344 39.902344c-3.917969-.394531-5.632813-4.40625-4.964844-5.652344l1.578125-3.25h11.5625l-.578125 8.933594h-7.414062z"/></g><g fill="#4caf50"><path d="m39.46875 30.894531c1.0625-.03125 1.785156-.664062 2.6875-1.96875l-5.882812 9.898438c-.421875.941406-1 1.097656-1.609375 1.035156h-5.195313l-.03125 3.160156-4.375-7.597656 4.40625-7.683594v3.15625z"/><path d="m22.664063 7.195313c-.816407-1.308594-1.992188-1.179688-2.363282-1.179688h10.8125c1.03125-.097656 1.457032.300781 1.730469.878906l2.582031 4.496094 2.730469-1.578125-4.375 7.625-8.835937.03125 2.703125-1.578125z"/><path d="m10.660156 33.78125c-.511718.914063-.363281 1.785156.265625 3.046875l-5.550781-9.789062c-.578125-.855469-.425781-1.398438-.09375-1.917969l2.613281-4.492188-2.730468-1.613281h8.78125l4.464843 7.65625-2.734375-1.574219z"/></g></svg>