<svg fill="#666" height="50" viewBox="0 0 48 48" width="50" xmlns="http://www.w3.org/2000/svg"><path d="m40 12h-18l-4-4h-10c-2.199219 0-4 1.800781-4 4v8h40v-4c0-2.199219-1.800781-4-4-4z" fill="#ffa000"/><path d="m40 12h-32c-2.199219 0-4 1.800781-4 4v20c0 2.199219 1.800781 4 4 4h32c2.199219 0 4-1.800781 4-4v-20c0-2.199219-1.800781-4-4-4z" fill="#ffca28"/><path d="m15 15h18v22h-18z" fill="#ffe082"/><path d="m24 33c-2.398437 0-2.5-3.5-2.5-3.5v-3h5v3s-.101562 3.5-2.5 3.5z" fill="#ff9800"/><path d="m29.5 23.5c0 .550781-.449219 1-1 1s-1-.449219-1-1 .449219-1 1-1 1 .449219 1 1z" fill="#ffa726"/><path d="m20.5 23.5c0 .550781-.449219 1-1 1s-1-.449219-1-1 .449219-1 1-1 1 .449219 1 1z" fill="#ffa726"/><path d="m28.5 20.5c0-3.800781-9-2.5-9 0v3.5c0 2.5 2 4.5 4.5 4.5s4.5-2 4.5-4.5c0-.5 0-3 0-3.5z" fill="#ffb74d"/><path d="m24 16c-3 0-5 2.5-5 5.5v1.101563l1 .898437v-2.5l6-2 2 2v2.5l1-.898437s0-.703125 0-1.101563c0-2-.5-4-3-4.5l-.5-1z" fill="#424242"/><path d="m26.5 23.5c0 .277344-.222656.5-.5.5s-.5-.222656-.5-.5.222656-.5.5-.5.5.222656.5.5z" fill="#784719"/><path d="m22.5 23.5c0 .277344-.222656.5-.5.5s-.5-.222656-.5-.5.222656-.5.5-.5.5.222656.5.5z" fill="#784719"/><path d="m26.5 29.5s-.898437 1-2.5 1c-1.601562 0-2.5-1-2.5-1s-5.5 1-5.5 6.5h16c0-5.5-5.5-6.5-5.5-6.5z" fill="#009688"/></svg>