<svg fill="#666" height="50" viewBox="0 0 48 48" width="50" xmlns="http://www.w3.org/2000/svg"><path d="m28 38c0 2.210938-1.789062 4-4 4-2.210937 0-4-1.789062-4-4 0-2.207031 1.789063-4 4-4 2.210938 0 4 1.792969 4 4z" fill="#db8509"/><path d="m26 11c0 1.105469-.894531 2-2 2s-2-.894531-2-2v-4c0-1.105469.894531-2 2-2s2 .894531 2 2z" fill="#db8509"/><path d="m27.886719 38.910156c.066406-.292968.113281-.597656.113281-.910156 0-.382812-.070312-.746094-.171875-1.097656-1.21875.0625-2.496094.097656-3.828125.097656s-2.609375-.035156-3.828125-.097656c-.101562.351562-.171875.714844-.171875 1.097656 0 .3125.046875.617188.113281.910156 1.472657.070313 2.8125.089844 3.886719.089844s2.414063-.019531 3.886719-.089844z" fill="#bc6f0a"/><g fill="#ffc107"><path d="m33 33v-16.199219c0-4.96875-4.027344-9-9-9s-9 4.03125-9 9v16.199219z"/><path d="m41 33c0 2.210938-7.058594 4-17 4s-17-1.789062-17-4c0-2.210937 7.058594-4 17-4s17 1.789063 17 4z"/><path d="m7 33c0-2 8-9 8-12s18-3 18 0 8 10 8 12-34 2-34 0z"/></g><path d="m9.273438 29.425781c-.488282.589844-.925782 1.144532-1.292969 1.648438 1.621094.65625 8.148437 3.0625 16.5625 3.0625 4.746094 0 10.089844-.78125 15.476562-3.066406-.363281-.496094-.796875-1.042969-1.28125-1.628907-13.039062 5.28125-26.039062 1.238282-29.464843-.015625z" fill="#ffe082"/></svg>