<svg fill="#666" height="50" viewBox="0 0 48 48" width="50" xmlns="http://www.w3.org/2000/svg"><path d="m24.2 41.8c-.1 0-.2 0-.3 0s-.1 0-.2 0c-2.3 0-3.7-1-5.1-2-1-.7-1.9-1.3-2.9-1.5-.5-.1-1-.1-1.6-.1-.9 0-1.6.1-2.1.2-.3.1-.6.1-.8.1s-.5 0-.6-.4c-.1-.3-.2-.6-.2-.9-.2-.7-.3-1.2-.6-1.2-3.6-.6-4.6-1.3-4.8-1.8-0-.1-0-.1-0-.2 0-.2.1-.4.3-.4 5.5-.9 7.9-6.5 8.1-6.8.3-.7.4-1.3.2-1.8-.4-.9-1.6-1.3-2.4-1.5-.2-.1-.4-.1-.5-.2-1.7-.6-1.8-1.3-1.8-1.6.1-.6.9-1 1.5-1 .2 0 .3 0 .4.1.7.3 1.4.5 2 .5.8 0 1.1-.3 1.2-.4 0-.4 0-.8-.1-1.2-.2-2.6-.4-5.8.5-7.7 2.5-5.5 7.7-5.9 9.2-5.9h.7.1c1.5 0 6.8.4 9.2 5.9.8 1.8.6 5.1.5 7.7v.1c0 .4 0 .7-.1 1 0 0 .4.3 1.1.4.5 0 1.2-.2 1.8-.5.2-.1.4-.1.6-.1s.5 0 .7.1c.6.2.9.6.9 1s-.3 1-1.7 1.5c-.1.1-.3.1-.5.2-.8.3-2 .6-2.4 1.5-.2.5-.1 1.1.2 1.8.1.2 2.6 5.8 8.1 6.8.2 0 .4.2.3.4 0 .1 0 .2-.1.2-.2.5-1.2 1.3-4.8 1.8-.3 0-.4.4-.6 1.2-.1.3-.1.6-.2.9s-.2.4-.5.4c-.2 0-.5 0-.8-.1-.6-.1-1.3-.2-2.1-.2-.5 0-1 0-1.5.1-1.1.2-2 .8-2.9 1.5-1.7 1.1-3.1 2.1-5.4 2.1z" fill="#fff"/><path d="m24.2 42.8c-.1 0-.2 0-.3 0s-.1 0-.2 0c-2.6 0-4.2-1.2-5.7-2.2-.9-.6-1.7-1.2-2.5-1.3-1.4-.2-2.5-.1-3.3.1-.4.1-.7.1-1 .1-1.1 0-1.4-.8-1.5-1.1s-.2-.6-.2-1c0-.1-.1-.3-.1-.5-3.1-.5-4.7-1.3-5.2-2.4-.1-.1-.2-.3-.2-.5 0-.7.5-1.3 1.2-1.5 4.8-.8 7-5.5 7.3-6.2v-.1c.1-.2.3-.6.2-.9-.2-.5-1.2-.8-1.8-1-.3-.1-.5-.1-.6-.2-2.3-.8-2.5-2-2.3-2.6.3-1.5 2.2-2.1 3.3-1.6.7.3 1.3.4 1.7.4 0-.2 0-.3 0-.5-.2-2.7-.4-6.1.5-8.1 2.7-6.1 8.4-6.5 10.1-6.5h.7.1c1.7 0 7.4.5 10.1 6.5.9 2.1.7 5.4.5 8.1v.5h.1c.3 0 .8-.2 1.4-.4.4-.2.7-.2 1-.2.4 0 .7.1 1 .2.9.3 1.5 1.1 1.5 1.9 0 1-.8 1.8-2.3 2.5-.2.1-.4.1-.6.2-.6.2-1.6.5-1.8 1-.1.2 0 .5.2.9v.1c.3.7 2.6 5.4 7.3 6.1.7.1 1.2.8 1.2 1.5 0 .3-.1.4-.2.6-.5 1.1-2.1 1.8-5.2 2.3 0 .2-.1.4-.1.5-.1.3-.1.6-.2.9-.2.7-.7 1.1-1.5 1.1-.3 0-.6 0-1-.1-.8-.2-1.9-.3-3.3-.1-.8.1-1.6.7-2.5 1.3-1.5 1.1-3.2 2.2-5.8 2.2zm-.3-2c.1 0 .1 0 0 0h.3c1.9 0 3.2-.9 4.5-1.8 1-.7 2.1-1.5 3.4-1.7.6-.1 1.2-.1 1.7-.1.9 0 1.7.1 2.3.2.1 0 .2 0 .3.1 0-.1.1-.3.1-.4.2-.9.4-1.9 1.4-2 1.7-.3 2.7-.6 3.3-.8-5.2-1.5-7.5-6.8-7.6-7.1-.6-1.2-.4-2-.2-2.6.6-1.3 2.1-1.8 3-2.1.2-.1.3-.1.5-.2.6-.2.9-.4 1-.5 0 0-.1-.1-.2-.1-.2-.1-.5-.1-.5-.1-.8.4-1.5.6-2.2.6-1.1 0-1.6-.5-1.8-.7s-.3-.5-.3-.8l.1-1.1c.1-2.4.4-5.6-.4-7.2-2.2-5-6.9-5.4-8.3-5.4h-.8c-1.4 0-6.1.4-8.3 5.4-.7 1.6-.5 4.7-.4 7.2 0 .4.1.8.1 1.2 0 .3-.1.5-.3.7-.1.2-.7.7-1.9.7-.7 0-1.5-.2-2.4-.6-.2 0-.3.1-.4.1.1.1.4.3 1 .5.1.1.3.1.5.2 1 .3 2.5.8 3.1 2.1.3.8.3 1.6-.2 2.6-.3.6-2.6 5.6-7.6 7 .6.2 1.6.5 3.3.8 1 .2 1.2 1.2 1.4 2 0 .2.1.3.1.5.1 0 .2 0 .3-.1.6-.1 1.4-.3 2.4-.3.5 0 1.1 0 1.7.1 1.3.2 2.4 1 3.4 1.7 1.3.9 2.6 1.8 4.5 1.8 0 .2.1.2.1.2z" fill="#607d8b"/></svg>