<svg fill="#666" height="50" viewBox="0 0 48 48" width="50" xmlns="http://www.w3.org/2000/svg"><path d="m20 9v28s1 3 11 3 11-3 11-3v-28z" fill="#ffc107"/><path d="m42 7c0-1.65625-4.925781-3-11-3s-11 1.34375-11 3 4.925781 3 11 3 11-1.34375 11-3z" fill="#ffc107"/><path d="m20 13s1 3 11 3 11-3 11-3v3s-1 3-11 3-11-3-11-3zm0 9s1 3 11 3 11-3 11-3v-3s-1 3-11 3-11-3-11-3zm0 6s1 3 11 3 11-3 11-3v-3s-1 3-11 3-11-3-11-3zm0 6s1 3 11 3 11-3 11-3v-3s-1 3-11 3-11-3-11-3zm0-24s1 3 11 3 11-3 11-3v-3s-1 3-11 3-11-3-11-3z" fill="#ff9800"/><path d="m28 31.898438v7.992187c.902344.066406 1.886719.109375 3 .109375.351563 0 .671875-.011719 1-.019531v-8.082031c0-5.152344-6.605469-6.148438-11.941406-6.78125l-.058594 3.898437c4.613281.355469 8 1.511719 8 2.882813z" fill="#f57c00"/><path d="m31 31c.324219 0 .621094-.011719.925781-.019531-.21875-1.269531-.898437-2.238281-1.867187-3-7.992188-.164063-9.707031-2.335938-10-2.863281l-.027344 1.898437c4.597656.359375 7.96875 1.511719 7.96875 2.882813v.992187c.902344.066406 1.886719.109375 3 .109375z" fill="#d66805"/><path d="m28 33.890625v3c.902344.066406 1.886719.109375 3 .109375.351563 0 .671875-.011719 1-.019531v-3c-.328125.007812-.648437.019531-1 .019531-1.113281 0-2.097656-.042969-3-.109375z" fill="#d66805"/><g fill="#cfd8dc"><path d="m6 29h22v9h-22z"/><path d="m6 36s1 3 11 3 11-3 11-3v4s-1 3-11 3-11-3-11-3z"/><path d="m28 28c0-1.65625-4.925781-3-11-3s-11 1.34375-11 3 4.925781 3 11 3 11-1.34375 11-3z"/></g><g fill="#90a4ae"><path d="m6 28s1 3 11 3 11-3 11-3v3s-1 3-11 3-11-3-11-3z"/><path d="m6 34s1 3 11 3 11-3 11-3v3s-1 3-11 3-11-3-11-3z"/></g></svg>