<svg fill="#666" height="50" viewBox="0 0 48 48" width="50" xmlns="http://www.w3.org/2000/svg"><path d="m40 12h-18l-4-4h-10c-2.199219 0-4 1.800781-4 4v8h40v-4c0-2.199219-1.800781-4-4-4z" fill="#ffa000"/><path d="m40 12h-32c-2.199219 0-4 1.800781-4 4v20c0 2.199219 1.800781 4 4 4h32c2.199219 0 4-1.800781 4-4v-20c0-2.199219-1.800781-4-4-4z" fill="#ffca28"/><path d="m24 17.5c-5.199219 0-9.5 4.300781-9.5 9.5s4.300781 9.5 9.5 9.5 9.5-4.300781 9.5-9.5-4.300781-9.5-9.5-9.5z" fill="#7cb342"/><path d="m34 27c0 5.601563-4.5 10-10 10s-10-4.398437-10-10c0-5.601562 4.398438-10 10-10 5.601563 0 10 4.398438 10 10zm-10.101562 4.601563c0-.203125-.097657-.300782-.296875-.402344-.601563-.199219-1.203125-.199219-1.703125-.699219-.097657-.199219-.097657-.398437-.199219-.601562-.199219-.199219-.699219-.296875-1-.398438-.398438 0-.800781 0-1.300781 0-.199219 0-.5 0-.699219 0-.300781-.101562-.5-.5-.699219-.800781 0-.097656 0-.300781-.199219-.300781-.199218-.097657-.402343.101562-.601562 0-.097656-.097657-.097656-.199219-.097656-.296875 0-.300782.199218-.601563.398437-.800782.300781-.199218.601563.097657.898438.097657.101562 0 .101562 0 .203125.101562.296875.101563.398437.5.398437.800781v.199219c0 .101563.101563.101563.199219.101563.101562-.5.101562-1 .199219-1.5 0-.601563.601562-1.203125 1.101562-1.402344.199219-.097656.300781.101562.5 0 .601563-.199219 2.101563-.800781 1.800781-1.597656-.199218-.703125-.800781-1.402344-1.601562-1.300782-.199219.097657-.300781.199219-.5.300782-.300781.199218-.898438.796875-1.199219.796875-.5-.097657-.5-.796875-.398437-1.097657.097656-.402343 1-1.699218 1.597656-1.5.101562.097657.300781.300782.402344.398438.199218.101562.5.101562.796875.101562.101562 0 .203125 0 .300781-.101562.101562-.097656.101562-.097656.101562-.199219 0-.300781-.300781-.601562-.5-.800781-.199218-.199219-.5-.398438-.800781-.5-1-.300781-2.601562.101562-3.398437.800781-.800782.699219-1.402344 1.898438-1.800782 2.898438-.199218.601562-.402343 1.402343-.5 2.101562-.101562.5-.199218.898438.097657 1.398438.300781.601562.902343 1.203125 1.5 1.601562.402343.300781 1.203125.300781 1.601562.800781.300781.398438.199219.898438.199219 1.398438 0 .601562.402344 1.101562.601562 1.601562.097657.300782.199219.699219.300782 1 0 .097657.097656.699219.097656.800782.601562.296875 1.101562.597656 1.800781.796875.101563 0 .5-.597657.5-.699219.300781-.300781.5-.699219.800781-.898438.199219-.101562.398438-.199218.597657-.402343.203125-.199219.300781-.597657.402343-.898438.097657-.199219.199219-.601562.097657-.898437zm.203125-9.203125c.097656 0 .199218-.097657.398437-.199219.300781-.199219.601563-.5.898438-.699219.300781-.199219.601562-.5.800781-.699219.300781-.199218.5-.601562.601562-.902343.097657-.199219.398438-.597657.300782-.898438-.101563-.199219-.601563-.300781-.800782-.398437-.800781-.203125-1.5-.300782-2.300781-.300782-.300781 0-.699219.097657-.800781.398438-.097656.5.300781.402344.699219.5 0 0 .101562.800781.101562.902344.101563.5-.199219.796875-.199219 1.296875 0 .300781 0 .800781.199219 1zm8.398437 7c.101563-.199219.101563-.5.199219-.699219.101562-.5.101562-1 .101562-1.5 0-1-.101562-2-.402343-2.898438-.199219-.300781-.296875-.601562-.398438-.902343-.199219-.5-.5-1-.898437-1.398438-.402344-.5-.902344-1.898437-1.800782-1.5-.300781.101563-.5.5-.699218.699219-.203125.300781-.402344.601562-.601563.902344-.101562.097656-.199219.296875-.101562.398437 0 .101563.101562.101563.203125.101563.199218.097656.296875.097656.5.199218.097656 0 .199218.097657.097656.199219 0 0 0 .101563-.097656.101563-.5.5-1 .898437-1.5 1.398437-.101563.101563-.203125.300781-.203125.398438 0 .101562.101562.101562.101562.203125 0 .097656-.101562.097656-.199219.199218-.199218.097657-.402343.199219-.5.300782-.101562.199218 0 .5-.101562.699218-.097656.5-.398438.898438-.597656 1.398438-.203125.300781-.300782.601562-.5.902344 0 .398437-.101563.699218.097656 1 .5.699218 1.402344.296875 2.101562.597656.199219.101562.398438.101562.5.300781.300782.300781.300782.800781.398438 1.101563.101562.398437.199219.796875.402344 1.199218.097656.5.296875 1 .398437 1.398438.898438-.699219 1.699219-1.5 2.300781-2.5.597657-.699219.898438-1.5 1.199219-2.300781z" fill="#0277bd"/></svg>