<svg fill="#666" height="50" viewBox="0 0 48 48" width="50" xmlns="http://www.w3.org/2000/svg"><path d="m41 10h-16v28h16c.553 0 1-.447 1-1v-26c0-.553-.447-1-1-1z" fill="#ff8a65"/><g fill="#fbe9e7"><path d="m24 29h14v2h-14z"/><path d="m24 33h14v2h-14z"/><path d="m30 15c-3.313 0-6 2.687-6 6s2.687 6 6 6 6-2.687 6-6h-6z"/><path d="m32 13v6h6c0-3.313-2.687-6-6-6z"/></g><path d="m27 42-21-4v-28l21-4z" fill="#e64a19"/><path d="m16.828 17h-4.828v14h3v-4.823h1.552c1.655 0 2.976-.436 3.965-1.304.988-.869 1.484-2.007 1.482-3.412.001-2.974-1.724-4.461-5.171-4.461zm-.534 6.785h-1.294v-4.364h1.294c1.641 0 2.461.72 2.461 2.158 0 1.472-.82 2.206-2.461 2.206z" fill="#fff"/></svg>