<svg fill="#666" height="50" viewBox="0 0 48 48" width="50" xmlns="http://www.w3.org/2000/svg"><path d="m6 43v-10h37c.552 0 1 .448 1 1v8c0 .552-.448 1-1 1z" fill="#d7dfe2"/><path d="m33.162 33h-3.934l-16.939 10h3.934z" fill="#b0bec5"/><path d="m36 43v-10h7c.552 0 1 .448 1 1v8c0 .552-.448 1-1 1z" fill="#8c9eff"/><path d="m25 34h10v8h-10z" fill="#5c6bc0" transform="matrix(0 1 -1 0 68 8)"/><path d="m26 37.228 7.162-4.228h-3.934l-3.228 1.906z" fill="#3f51b5"/><path d="m15 34h10v8h-10z" fill="#303f9f" transform="matrix(0 1 -1 0 58 18)"/><path d="m24 36.086-8 4.723v2.191h.223l7.777-4.591z" fill="#283593"/><path d="m41.861 24.381-4.067-6.889c-.281-.476-.894-.633-1.37-.353l-30.424 17.961v3.284l2.725 4.616h3.564l29.219-17.25c.476-.28.634-.894.353-1.369z" fill="#d7dfe2"/><path d="m28.875 21.596-3.55 2.095-10.433 17.773 3.549-2.096z" fill="#b0bec5"/><path d="m35.48 29.309-5.084-8.611 6.028-3.559c.476-.281 1.089-.123 1.37.353l4.067 6.889c.281.476.123 1.089-.353 1.37z" fill="#81c784"/><path d="m22.772 24.054h10v8h-10z" fill="#43a047" transform="matrix(.50839529 .86112382 -.86112382 .50839529 37.812166 -10.124022)"/><path d="m14.16 29.137h10v8h-10z" fill="#2e7d32" transform="matrix(.50839529 .86112382 -.86112382 .50839529 37.95642 -.208705)"/><path d="m14.16 29.137h10v8h-10z" fill="#2e7d32" transform="matrix(.50839529 .86112382 -.86112382 .50839529 37.95642 -.208705)"/><path d="m31.506 11.188-6.899-4.05c-.476-.28-1.089-.12-1.369.356l-17.238 29.364v3.421l4.636 2.721h3.354l17.872-30.443c.28-.477.12-1.089-.356-1.369z" fill="#d7dfe2"/><path d="m21.787 29.719-4.632 7.89 1.103 1.868.183-.109 4.509-7.68z" fill="#1b5e20"/><path d="m28.74 21.826-.066-.112-3.349 1.977-2.38 4.055 1.163 1.97z" fill="#388e3c"/><path d="m28.318 18.593-8.624-5.063 3.544-6.037c.28-.476.892-.636 1.369-.356l6.899 4.05c.476.28.636.892.356 1.369z" fill="#ffd740"/><path d="m15.969 17.236h10v8h-10z" fill="#ffc400" transform="matrix(.86237232 .5062746 -.5062746 .86237232 13.636518 -7.693042)"/><path d="m10.906 25.86h10v8h-10z" fill="#ff9800" transform="matrix(.86237232 .5062746 -.5062746 .86237232 17.305315 -3.94301)"/><path d="m16 43h-10v-37c0-.552.448-1 1-1h8c.552 0 1 .448 1 1z" fill="#d7dfe2"/><path d="m16 13h-10v-7c0-.552.448-1 1-1h8c.552 0 1 .448 1 1z" fill="#ff8a80"/><path d="m6 15h10v8h-10z" fill="#ff5252"/><path d="m6 25h10v8h-10z" fill="#d50000"/><circle cx="11" cy="38" fill="#455a64" r="1"/><path d="m16 35.652v5.157l2.258-1.332z" fill="#90a4ae"/><path d="m16 34.553v5.023l2.193-3.735z" fill="#b0bec5"/><path d="m16 22.957v2.32l2 1.174v-2.319z" fill="#b0bec5"/><path d="m16 22.957 2 1.175v-7.715l-2 3.407z" fill="#ffab00"/><path d="m16 34.553 2 1.174v-9.276l-2-1.174z" fill="#f57c00"/></svg>