<svg fill="#666" height="50" viewBox="0 0 48 48" width="50" xmlns="http://www.w3.org/2000/svg"><path d="m26 12h-8l-3.101562 3.101563c-1.898438 1.898437-2.898438 4.398437-2.898438 7.097656v19.800781c0 1.101563.898438 2 2 2h16c1.101563 0 2-.898437 2-2v-19.898437c0-2.703125-1.101562-5.203125-2.898437-7.101563z" fill="#f44336"/><path d="m18 6c-6.699219 0-12 5.300781-12 12h4c0-4.5 3.5-8 8-8h8v-4z" fill="#607d8b"/><path d="m26 10 8 2v-8l-8 2z" fill="#607d8b"/><path d="m25 36h-6c-.601562 0-1-.398437-1-1v-10c0-.601562.398438-1 1-1h6c.601563 0 1 .398438 1 1v10c0 .601563-.398437 1-1 1z" fill="#fff"/><path d="m18 4h8v8h-8z" fill="#d32f2f"/></svg>