<svg fill="#666" height="50" viewBox="0 0 48 48" width="50" xmlns="http://www.w3.org/2000/svg"><path d="m38 5-24-.003906c-2.207031 0-4.816406 1.070312-4.984375 6.003906h-.015625v28l.019531-.054687c.179688 3.640625 2.546875 4.054687 3.585938 4.054687h23.394531 1c2 0 2-2 2-2v-35c0-.554687-.445312-1-1-1z" fill="#7e57c2"/><path d="m36 36h-23.394531c-1.332031 0-1.605469 1.117188-1.605469 2.5 0 1.382813.273438 2.503906 1.605469 2.503906l23.394531-.003906z" fill="#ffe0b2"/><path d="m12.605469 36c-1.164063 0-1.519531.859375-1.589844 2h24.984375v-2z" fill="#e0b990"/><path d="m14 10.996094h21v5h-21z" fill="#ffecb3"/><path d="m38 36h-2v7h1c2 0 2-2 2-2v-5.996094c0 .550782-.445312.996094-1 .996094z" fill="#311b92"/></svg>