<svg fill="#666" height="50" viewBox="0 0 48 48" width="50" xmlns="http://www.w3.org/2000/svg"><path d="m36 30h-24l-6 12h36z" fill="#8bc34a"/><path d="m22 36 9-6h5l-10.699219 6.699219z" fill="#689f38"/><path d="m22 36v-28c0-1.101562.898438-2 2-2 1.101563 0 2 .898438 2 2v28s-.199219 1-2 1-2-1-2-1z" fill="#795548"/><path d="m8 10h32v14h-32z" fill="#ff3d00"/><path d="m15.199219 18.800781c0-.300781-.097656-.5-.300781-.601562-.199219-.199219-.5-.300781-1-.5s-.898438-.300781-1.199219-.5c-1-.5-1.5-1.199219-1.5-2 0-.398438.101562-.800781.402344-1.097656.199218-.300782.597656-.601563 1-.800782.398437-.199218 1-.300781 1.5-.300781s1 .101563 1.5.300781c.398437.199219.796875.5 1 .898438.199218.402344.398437.800781.398437 1.300781h-1.800781c0-.300781-.097656-.601562-.300781-.699219-.199219-.199218-.398438-.300781-.796875-.300781-.300782 0-.601563.101563-.800782.199219-.199218.101562-.300781.300781-.300781.601562 0 .199219.101563.398438.300781.5.199219.199219.597657.300782 1.097657.5.5.199219 1 .398438 1.300781.597657.800781.5 1.199219 1.203125 1.199219 2 0 .703125-.296875 1.203125-.796875 1.601562-.5.398438-1.203125.601563-2.101563.601563-.601562 0-1.199219-.101563-1.699219-.300782-.5-.199218-.902343-.5-1.101562-.902343-.300781-.398438-.398438-.796875-.398438-1.398438h1.800782c0 .398438.097656.699219.296875.898438.203125.203125.601562.300781 1 .300781.300781 0 .5-.097656.703125-.199219.5-.199219.597656-.398437.597656-.699219zm7.5.699219h-2.398438l-.402343 1.5h-1.898438l2.699219-8h1.601562l2.699219 8h-1.898437zm-2-1.5h1.601562l-.800781-2.800781zm7.199219 1.5h3.300781v1.5h-5.199219v-8h1.898438zm8.902343-1.898437h-3v1.898437h3.199219v1.5h-5v-8h5v1.5h-3.101562v1.699219h3v1.402344z" fill="#fff"/></svg>