<svg fill="#666" height="50" viewBox="0 0 48 48" width="50" xmlns="http://www.w3.org/2000/svg"><path d="m14.925781 31.996094 3.035157-12.492188s-1.039063-.507812-3.035157-.507812c-1.992187 0-2.976562.507812-2.976562.507812z" fill="#e3f2fd"/><path d="m16.9375 16.246094h-4.019531v3l2.007812.253906 2.011719-.253906z" fill="#ff9800"/><path d="m34 12c-3.867187 0-7 3.132813-7 7h14c0-3.867187-3.132812-7-7-7z" fill="#9fa8da"/><path d="m26 18v1c0 .554688.445313 1 1 1h14c.554688 0 1-.445312 1-1v-1z" fill="#5c6bc0"/><path d="m35 11c0 .550781-.449219 1-1 1s-1-.449219-1-1 .449219-1 1-1 1 .449219 1 1z" fill="#5c6bc0"/><g fill="#ffb74d"><path d="m36 20-2 2h-3l-3 5v-5c0-2 2-2 2-2z"/><path d="m10 42-3-2v-4h3z"/><path d="m14.925781 18c-2.769531 0-5.019531-2.242187-5.019531-5 0-2.757812 2.25-5 5.019531-5 2.769532 0 5.023438 2.242188 5.023438 5 0 2.757813-2.253906 5-5.023438 5"/></g><path d="m14.707031 6c-2.449218.21875-4.804687 1.929688-4.804687 5.574219v1.425781l1.007812 1v-3l6.335938-2.199219 1.699219 2.199219v3l1.003906-1v-1.199219c0-2.417968-.136719-4.207031-3.015625-4.800781l-.488281-1z" fill="#424242"/><g fill="#455a64"><path d="m28 21-3 5s-3.359375-4.375-4.003906-4.855469c-.699219-.527343-1.75-1.179687-3.039063-1.625l-3.03125 12.476563-2.972656-12.476563c-3.144531 1.140625-4.953125 4.054688-4.953125 7.480469v10l3 2v3h11v-14.90625l3 2.90625h3l4-7z"/><path d="m12.976563 17.996094 1.949218 1.503906-1.949218 1.503906s-.5625-.3125-.5625-1.460937c0-1.148438.5625-1.546875.5625-1.546875z"/><path d="m16.9375 21.003906-2.011719-1.503906 2.011719-1.503906s.5625.3125.5625 1.460937c0 1.148438-.5625 1.546875-.5625 1.546875z"/></g></svg>