<svg fill="#666" height="50" viewBox="0 0 48 48" width="50" xmlns="http://www.w3.org/2000/svg"><path d="m45 34v-16c0-4.417969-3.582031-8-8-8h-21c-4.417969 0-8 3.582031-8 8v16z" fill="#2196f3"/><g fill="#ff3d00"><path d="m28 4h6v4h-6z"/><path d="m28 6h2v11h-2z"/><path d="m31 18c0 1.105469-.894531 2-2 2s-2-.894531-2-2 .894531-2 2-2 2 .894531 2 2z"/></g><path d="m30 18c0 .550781-.449219 1-1 1s-1-.449219-1-1 .449219-1 1-1 1 .449219 1 1z" fill="#dd2c00"/><path d="m25 34h5v10h-5z" fill="#ffcc80"/><path d="m25 34h5v2h-5z" fill="#ffa726"/><path d="m16 10c-4.410156 0-8 3.589844-8 8v16h16v-16c0-4.410156-3.589844-8-8-8z" fill="#1976d2"/><path d="m16 12c-3.308594 0-6 2.691406-6 6v14h12v-14c0-3.308594-2.691406-6-6-6z" fill="#64b5f6"/><path d="m20 20c0 .550781-.449219 1-1 1h-6c-.550781 0-1-.449219-1-1s.449219-1 1-1h6c.550781 0 1 .449219 1 1z" fill="#0d47a1"/></svg>