<svg fill="#666" height="50" viewBox="0 0 48 48" width="50" xmlns="http://www.w3.org/2000/svg"><path d="m37.8125 15.8125c-2.8125 2.8125-7.734375 2.109375-7.734375 2.109375s-.703125-4.925781 2.109375-7.734375c2.8125-2.8125 7.734375-2.109375 7.734375-2.109375s.703125 4.917969-2.109375 7.734375z" fill="#689f38"/><path d="m30.527344 19.222656c6.367187.707032 13.4375 7.777344 13.4375 7.777344s.707031-4.949219-4.242188-8.484375c-4.949218-3.535156-9.195312.707031-9.195312.707031z" fill="#8bc34a"/><path d="m28.886719 17.472656c-.707031-6.367187-7.777344-13.4375-7.777344-13.4375s4.949219-.707031 8.484375 4.242188-.707031 9.195312-.707031 9.195312z" fill="#8bc34a"/><path d="m35.203125 35.398438c-5.367187 5.371093-20.679687 11.007812-26.644531 5.042968-5.96875-5.964843-.332031-21.277343 5.039062-26.644531 5.371094-5.371094 12.039063-2.367187 18.003907 3.601563 5.964843 5.964843 8.972656 12.632812 3.601562 18z" fill="#ff1744"/><g fill="#d50000"><path d="m16.230469 15.230469c.980469-.976563 2.558594-.976563 3.535156 0 .976563.980469.976563 2.558594 0 3.535156-.976562.976563-2.789062 1.210938-3.765625.234375-.976562-.976562-.742187-2.789062.230469-3.769531z"/><path d="m24.460938 21.046875c.976562-.980469 2.558593-.980469 3.535156 0 .976562.976563.976562 2.558594 0 3.53125-.976563.976563-2.789063 1.210938-3.765625.234375-.976563-.976562-.746094-2.792969.230469-3.765625z"/><path d="m11.445313 34.019531c.976562-.976562 2.558593-.976562 3.535156 0 .976562.976563.976562 2.558594 0 3.535157-.976563.976562-2.789063 1.207031-3.765625.230468-.980469-.976562-.746094-2.789062.230469-3.765625z"/><path d="m30.296875 29.167969c.976563-.976563 2.558594-.976563 3.535156 0 .976563.976562.976563 2.558594 0 3.535156-.976562.976563-2.792968 1.210938-3.769531.234375-.976562-.976562-.742187-2.792969.234375-3.769531z"/><path d="m13.449219 24.015625c.976562-.976562 2.558594-.976562 3.535156 0 .976563.976563.976563 2.558594 0 3.535156-.976562.976563-2.792969 1.210938-3.769531.230469-.976563-.976562-.742188-2.789062.234375-3.765625z"/><path d="m20.296875 32.167969c.976563-.976563 2.558594-.976563 3.535156 0 .976563.976562.976563 2.558594 0 3.535156-.976562.976563-2.792968 1.210938-3.769531.234375-.976562-.976562-.742187-2.792969.234375-3.769531z"/></g><g fill="#ffc107"><path d="m18.707031 17.707031c-.390625.390625-2.316406 1.683594-2.707031 1.292969s.902344-2.316406 1.292969-2.707031 1.023437-.390625 1.414062 0 .390625 1.023437 0 1.414062z"/><path d="m26.9375 23.519531c-.390625.390625-2.316406 1.683594-2.707031 1.292969s.902344-2.316406 1.292969-2.707031 1.023437-.390625 1.414062 0 .390625 1.023437 0 1.414062z"/><path d="m13.921875 36.492188c-.390625.390625-2.316406 1.683593-2.707031 1.292968s.902344-2.316406 1.292969-2.707031 1.023437-.390625 1.414062 0 .390625 1.023438 0 1.414063z"/><path d="m32.769531 31.644531c-.390625.390625-2.316406 1.683594-2.707031 1.292969s.902344-2.316406 1.292969-2.707031 1.023437-.390625 1.414062 0 .390625 1.023437 0 1.414062z"/><path d="m15.925781 26.488281c-.394531.394532-2.316406 1.6875-2.707031 1.292969-.394531-.390625.898438-2.3125 1.292969-2.707031.390625-.390625 1.019531-.390625 1.414062 0 .390625.394531.386719 1.027344 0 1.414062z"/><path d="m22.769531 34.644531c-.390625.390625-2.316406 1.683594-2.707031 1.292969s.902344-2.316406 1.292969-2.707031 1.023437-.390625 1.414062 0 .390625 1.023437 0 1.414062z"/></g></svg>