<svg fill="#666" height="50" viewBox="0 0 48 48" width="50" xmlns="http://www.w3.org/2000/svg"><path d="m40 45h-32v-42h22l10 10z" fill="#4db6ac"/><path d="m38.5 14h-9.5v-9.5z" fill="#e0f2f1"/><g fill="#00695c"><path d="m20.046875 29.683594c-.050781 1.136719-.371094 1.996094-.957031 2.578125-.589844.582031-1.417969.875-2.488281.875-1.125 0-1.988282-.371094-2.589844-1.109375-.597656-.742188-.898438-1.796875-.898438-3.167969v-1.675781c0-1.367188.3125-2.421875.929688-3.164063.621094-.738281 1.480469-1.109375 2.585937-1.109375 1.082032 0 1.90625.304688 2.46875.910157.5625.605468.882813 1.476562.960938 2.609375h-2.015625c-.019531-.699219-.128906-1.183594-.324219-1.453125-.199219-.265625-.5625-.398438-1.089844-.398438-.539062 0-.917968.1875-1.144531.5625-.222656.378906-.339844.996094-.355469 1.855469v1.882812c0 .988282.109375 1.667969.332032 2.035157.222656.371093.601562.554687 1.140625.554687.527343 0 .890625-.128906 1.09375-.386719.199218-.257812.3125-.722656.339843-1.398437z"/><path d="m25.484375 30.390625c0-.40625-.101562-.714844-.308594-.921875-.207031-.207031-.585937-.421875-1.132812-.644531-.996094-.378906-1.714844-.820313-2.152344-1.332031-.4375-.507813-.65625-1.105469-.65625-1.800782 0-.835937.296875-1.511718.890625-2.019531.597656-.507812 1.351563-.761719 2.265625-.761719.613281 0 1.15625.128907 1.636719.386719.476562.257813.84375.621094 1.101562 1.089844.257813.46875.386719 1.003906.386719 1.601562h-2.003906c0-.464843-.097656-.820312-.296875-1.0625-.199219-.246093-.484375-.367187-.855469-.367187-.351562 0-.625.105469-.820312.3125-.195313.207031-.296875.484375-.296875.835937 0 .273438.109375.523438.328125.742188.21875.222656.609375.449219 1.164062.6875.96875.351562 1.675781.78125 2.113281 1.292969.441407.511718.660157 1.160156.660157 1.949218 0 .863282-.273438 1.542969-.824219 2.027344-.554688.488281-1.304688.730469-2.25.730469-.644531 0-1.230469-.128906-1.757813-.394531-.527343-.265625-.941406-.644532-1.242187-1.136719-.296875-.492188-.445313-1.070313-.445313-1.742188h2.015625c0 .574219.113282.992188.335938 1.25.222656.261719.585937.390625 1.09375.390625.703125 0 1.050781-.371093 1.050781-1.113281z"/><path d="m32.082031 30.265625 1.675782-7.21875h2.242187l-2.871094 9.953125h-2.09375l-2.847656-9.953125h2.226563z"/></g></svg>