<svg fill="#666" height="50" viewBox="0 0 48 48" width="50" xmlns="http://www.w3.org/2000/svg"><path d="m44 24c0 11.044-8.956 20-20 20s-20-8.956-20-20 8.956-20 20-20 20 8.956 20 20z" fill="#4caf50"/><path d="m24 4v20l8 4-8.843 16h.843c11.053 0 20-8.947 20-20s-8.947-20-20-20z" fill="#ffc107"/><path d="m44 24c0 11.044-8.956 20-20 20s-20-8.956-20-20 8.956-20 20-20 20 8.956 20 20z" fill="#4caf50"/><path d="m24 4v20l8 4-8.843 16h.843c11.053 0 20-8.947 20-20s-8.947-20-20-20z" fill="#ffc107"/><path d="m41.84 15h-17.84v13l-3-1-13.84-13.74h-.02c3.54-5.57 9.77-9.26 16.86-9.26 7.8 0 14.55 4.48 17.84 11z" fill="#f44336"/><path d="m7.158 13.264 8.843 14.862 4.999-1.126z" fill="#dd2c00"/><path d="m23.157 44 8.934-16.059-4.091-2.941z" fill="#558b2f"/><path d="m41.865 15h-17.865l-1.579 4.58z" fill="#f9a825"/><path d="m33 24c0 4.969-4.031 9-9 9s-9-4.031-9-9 4.031-9 9-9 9 4.031 9 9z" fill="#fff"/><path d="m31 24c0 3.867-3.133 7-7 7s-7-3.133-7-7 3.133-7 7-7 7 3.133 7 7z" fill="#2196f3"/></svg>