<svg fill="#666" height="50" viewBox="0 0 48 48" width="50" xmlns="http://www.w3.org/2000/svg"><path d="m5 7h38v26h-38z" fill="#546e7a"/><path d="m7 9h34v21h-34z" fill="#bbdefb"/><path d="m19 22.5c0 .800781-.699219 1.5-1.5 1.5s-1.5-.699219-1.5-1.5.699219-1.5 1.5-1.5 1.5.699219 1.5 1.5m13 0c0-.800781-.699219-1.5-1.5-1.5s-1.5.699219-1.5 1.5.699219 1.5 1.5 1.5 1.5-.699219 1.5-1.5" fill="#ffa726"/><path d="m27.800781 31-3.800781.800781-3.699219-.800781s-8.300781 1.5-8.300781 10h24c0-8.398437-8.199219-10-8.199219-10" fill="#8bc34a"/><path d="m24 33c-3.101562 0-4-2-4-2v-4h8v4s-.898437 2-4 2z" fill="#ff9800"/><path d="m24 35c3.101563 0 5-1 5.898438-3.300781-.898438-.398438-1.597657-.597656-2-.699219-.699219 1-1.796875 1.898438-4 1.898438-2.199219 0-3.097657-.796875-4-1.898438-.398438.101563-1.097657.300781-2 .699219 1 2.199219 3 3.300781 6.101562 3.300781z" fill="#33691e"/><path d="m27.199219 12.601563-.800781-1.601563h-2.398438c-4.898437 0-8 4.300781-8 8.199219v1.800781l1 1c0 3.800781 3 7 3 7h8s3-3.199219 3-7l1-1v-.800781c0-3.199219-.800781-6.800781-4.800781-7.597656z" fill="#424242"/></svg>