<svg fill="#666" height="50" viewBox="0 0 48 48" width="50" xmlns="http://www.w3.org/2000/svg"><path d="m40 45h-32v-42h22l10 10z" fill="#f44336"/><g fill="#ffebee"><path d="m38.5 14h-9.5v-9.5z"/><path d="m14.425781 23.046875 1.878907 7.199219 1.875-7.199219h2.625v9.953125h-2.019532v-2.691406l.1875-4.152344-1.992187 6.84375h-1.367188l-1.988281-6.84375.183594 4.148438v2.695312h-2.007813v-9.953125z"/><path d="m29.421875 28.917969c0 1.335937-.3125 2.371094-.945312 3.109375-.632813.738281-1.507813 1.109375-2.628907 1.109375-1.117187 0-1.992187-.367188-2.632812-1.097656-.636719-.730469-.960938-1.757813-.96875-3.074219v-1.699219c0-1.367187.316406-2.4375.949219-3.203125.632812-.769531 1.511718-1.152344 2.640625-1.152344 1.105468 0 1.976562.375 2.617187 1.132813.636719.753906.960938 1.8125.96875 3.175781zm-2.015625-1.667969c0-.894531-.128906-1.5625-.382812-2.003906-.257813-.4375-.652344-.652344-1.1875-.652344-.535157 0-.929688.210938-1.183594.628906-.257813.421875-.386719 1.0625-.398438 1.925782v1.773437c0 .867188.132813 1.511719.390625 1.921875.261719.414063.660157.621094 1.203125.621094.523438 0 .914063-.203125 1.167969-.605469.257813-.402344.386719-1.03125.390625-1.878906z"/><path d="m33.953125 30.265625 1.675781-7.21875h2.242188l-2.871094 9.953125h-2.089844l-2.851562-9.953125h2.226562z"/></g></svg>