<svg fill="#666" height="50" viewBox="0 0 48 48" width="50" xmlns="http://www.w3.org/2000/svg"><path d="m10 13 6-3v19.199219h-6z" fill="#4527a0"/><path d="m8 16 10-5v32h-10z" fill="#673ab7"/><path d="m13 43h5v-32l-5 2.5z" fill="#4527a0"/><path d="m15 16h-1v-1h1z" fill="#ba68c8"/><path d="m12 16h1v-1l-1 .5z" fill="#ce93d8"/><path d="m16 14h1v-1l-1 .5z" fill="#ba68c8"/><path d="m15 18h-1v-1h1z" fill="#ba68c8"/><path d="m13 18h-1v-1h1z" fill="#ce93d8"/><path d="m11 18h-1v-1h1z" fill="#ce93d8"/><path d="m15 20h-1v-1h1z" fill="#ba68c8"/><path d="m13 20h-1v-1h1z" fill="#ce93d8"/><path d="m11 20h-1v-1h1z" fill="#ce93d8"/><path d="m15 22h-1v-1h1z" fill="#ba68c8"/><path d="m13 22h-1v-1h1z" fill="#ce93d8"/><path d="m11 22h-1v-1h1z" fill="#ce93d8"/><path d="m15 24h-1v-1h1z" fill="#ba68c8"/><path d="m13 24h-1v-1h1z" fill="#ce93d8"/><path d="m11 24h-1v-1h1z" fill="#ce93d8"/><path d="m15 26h-1v-1h1z" fill="#ba68c8"/><path d="m13 26h-1v-1h1z" fill="#ce93d8"/><path d="m11 26h-1v-1h1z" fill="#ce93d8"/><path d="m15 28h-1v-1h1z" fill="#ba68c8"/><path d="m13 28h-1v-1h1z" fill="#ce93d8"/><path d="m11 28h-1v-1h1z" fill="#ce93d8"/><path d="m15 30h-1v-1h1z" fill="#ba68c8"/><path d="m13 30h-1v-1h1z" fill="#ce93d8"/><path d="m11 30h-1v-1h1z" fill="#ce93d8"/><path d="m15 32h-1v-1h1z" fill="#ba68c8"/><path d="m13 32h-1v-1h1z" fill="#ce93d8"/><path d="m11 32h-1v-1h1z" fill="#ce93d8"/><path d="m15 34h-1v-1h1z" fill="#ba68c8"/><path d="m13 34h-1v-1h1z" fill="#ce93d8"/><path d="m11 34h-1v-1h1z" fill="#ce93d8"/><path d="m15 36h-1v-1h1z" fill="#ba68c8"/><path d="m13 36h-1v-1h1z" fill="#ce93d8"/><path d="m11 36h-1v-1h1z" fill="#ce93d8"/><path d="m15 38h-1v-1h1z" fill="#ba68c8"/><path d="m13 38h-1v-1h1z" fill="#ce93d8"/><path d="m11 38h-1v-1h1z" fill="#ce93d8"/><path d="m15 40h-1v-1h1z" fill="#ba68c8"/><path d="m13 40h-1v-1h1z" fill="#ce93d8"/><path d="m11 40h-1v-1h1z" fill="#ce93d8"/><path d="m15 42h-1v-1h1z" fill="#ba68c8"/><path d="m17 16h-1v-1h1z" fill="#ba68c8"/><path d="m17 18h-1v-1h1z" fill="#ba68c8"/><path d="m17 20h-1v-1h1z" fill="#ba68c8"/><path d="m17 22h-1v-1h1z" fill="#ba68c8"/><path d="m17 24h-1v-1h1z" fill="#ba68c8"/><path d="m17 26h-1v-1h1z" fill="#ba68c8"/><path d="m17 28h-1v-1h1z" fill="#ba68c8"/><path d="m17 30h-1v-1h1z" fill="#ba68c8"/><path d="m17 32h-1v-1h1z" fill="#ba68c8"/><path d="m17 34h-1v-1h1z" fill="#ba68c8"/><path d="m17 36h-1v-1h1z" fill="#ba68c8"/><path d="m17 38h-1v-1h1z" fill="#ba68c8"/><path d="m17 40h-1v-1h1z" fill="#ba68c8"/><path d="m17 42h-1v-1h1z" fill="#ba68c8"/><path d="m13 42h-1v-1h1z" fill="#ce93d8"/><path d="m11 42h-1v-1h1z" fill="#ce93d8"/><path d="m29 15h11v28h-11z" fill="#3f51b5"/><path d="m29 15h4v28h-4z" fill="#1a237e"/><path d="m17 9h13v34h-13z" fill="#90caf9"/><path d="m19 5h9v4h-9z" fill="#bbdefb"/><path d="m21 10h1v1h-1z" fill="#1e88e5"/><path d="m23 10h1v1h-1z" fill="#1e88e5"/><path d="m25 10h1v1h-1z" fill="#1e88e5"/><path d="m23 6h1v2h-1z" fill="#1e88e5"/><path d="m21 6h1v2h-1z" fill="#1e88e5"/><path d="m25 6h1v2h-1z" fill="#1e88e5"/><path d="m27 10h1v1h-1z" fill="#1e88e5"/><g fill="#9fa8da"><path d="m33 17h1v1h-1z"/><path d="m35 17h1v1h-1z"/><path d="m37 17h1v1h-1z"/><path d="m33 19h1v1h-1z"/><path d="m35 19h1v1h-1z"/><path d="m37 19h1v1h-1z"/><path d="m33 21h1v1h-1z"/><path d="m35 21h1v1h-1z"/><path d="m37 21h1v1h-1z"/><path d="m33 23h1v1h-1z"/><path d="m35 23h1v1h-1z"/><path d="m37 23h1v1h-1z"/><path d="m33 25h1v1h-1z"/><path d="m35 25h1v1h-1z"/><path d="m37 25h1v1h-1z"/><path d="m33 27h1v1h-1z"/><path d="m35 27h1v1h-1z"/><path d="m37 27h1v1h-1z"/><path d="m33 29h1v1h-1z"/><path d="m35 29h1v1h-1z"/><path d="m37 29h1v1h-1z"/><path d="m33 31h1v1h-1z"/><path d="m35 31h1v1h-1z"/><path d="m37 31h1v1h-1z"/><path d="m33 33h1v1h-1z"/><path d="m35 33h1v1h-1z"/><path d="m37 33h1v1h-1z"/><path d="m33 35h1v1h-1z"/><path d="m35 35h1v1h-1z"/><path d="m37 35h1v1h-1z"/><path d="m33 37h1v1h-1z"/><path d="m35 37h1v1h-1z"/><path d="m37 37h1v1h-1z"/><path d="m33 39h1v1h-1z"/><path d="m35 39h1v1h-1z"/><path d="m37 39h1v1h-1z"/><path d="m33 41h1v1h-1z"/></g><path d="m31 17h1v1h-1z" fill="#7986cb"/><path d="m31 19h1v1h-1z" fill="#7986cb"/><path d="m31 21h1v1h-1z" fill="#7986cb"/><path d="m31 23h1v1h-1z" fill="#7986cb"/><path d="m31 25h1v1h-1z" fill="#7986cb"/><path d="m31 27h1v1h-1z" fill="#7986cb"/><path d="m31 29h1v1h-1z" fill="#7986cb"/><path d="m31 31h1v1h-1z" fill="#7986cb"/><path d="m31 33h1v1h-1z" fill="#7986cb"/><path d="m31 35h1v1h-1z" fill="#7986cb"/><path d="m31 37h1v1h-1z" fill="#7986cb"/><path d="m31 39h1v1h-1z" fill="#7986cb"/><path d="m31 41h1v1h-1z" fill="#7986cb"/><path d="m35 41h1v1h-1z" fill="#9fa8da"/><path d="m37 41h1v1h-1z" fill="#9fa8da"/><g fill="#1e88e5"><path d="m21 12h1v1h-1z"/><path d="m23 12h1v1h-1z"/><path d="m25 12h1v1h-1z"/><path d="m27 12h1v1h-1z"/><path d="m21 14h1v1h-1z"/><path d="m23 14h1v1h-1z"/><path d="m25 14h1v1h-1z"/><path d="m27 14h1v1h-1z"/><path d="m21 16h1v1h-1z"/><path d="m23 16h1v1h-1z"/><path d="m25 16h1v1h-1z"/><path d="m27 16h1v1h-1z"/><path d="m21 18h1v1h-1z"/><path d="m23 18h1v1h-1z"/><path d="m25 18h1v1h-1z"/><path d="m27 18h1v1h-1z"/><path d="m21 20h1v1h-1z"/><path d="m23 20h1v1h-1z"/><path d="m25 20h1v1h-1z"/><path d="m27 20h1v1h-1z"/><path d="m21 22h1v1h-1z"/><path d="m23 22h1v1h-1z"/><path d="m25 22h1v1h-1z"/><path d="m27 22h1v1h-1z"/><path d="m21 24h1v1h-1z"/><path d="m23 24h1v1h-1z"/><path d="m25 24h1v1h-1z"/><path d="m27 24h1v1h-1z"/><path d="m21 26h1v1h-1z"/><path d="m23 26h1v1h-1z"/><path d="m25 26h1v1h-1z"/><path d="m27 26h1v1h-1z"/><path d="m21 28h1v1h-1z"/><path d="m23 28h1v1h-1z"/><path d="m25 28h1v1h-1z"/><path d="m27 28h1v1h-1z"/><path d="m21 30h1v1h-1z"/><path d="m23 30h1v1h-1z"/><path d="m25 30h1v1h-1z"/><path d="m27 30h1v1h-1z"/><path d="m21 32h1v1h-1z"/><path d="m23 32h1v1h-1z"/><path d="m25 32h1v1h-1z"/><path d="m27 32h1v1h-1z"/><path d="m21 34h1v1h-1z"/><path d="m23 34h1v1h-1z"/><path d="m25 34h1v1h-1z"/><path d="m27 34h1v1h-1z"/><path d="m21 36h1v1h-1z"/><path d="m23 36h1v1h-1z"/><path d="m25 36h1v1h-1z"/><path d="m27 36h1v1h-1z"/><path d="m21 38h1v1h-1z"/><path d="m23 38h1v1h-1z"/><path d="m25 38h1v1h-1z"/><path d="m27 38h1v1h-1z"/><path d="m21 40h1v1h-1z"/><path d="m23 40h1v1h-1z"/><path d="m25 40h1v1h-1z"/><path d="m27 40h1v1h-1z"/><path d="m21 42h1v1h-1z"/><path d="m19 10h1v1h-1z"/><path d="m19 12h1v1h-1z"/><path d="m19 14h1v1h-1z"/><path d="m19 16h1v1h-1z"/><path d="m19 18h1v1h-1z"/><path d="m19 20h1v1h-1z"/><path d="m19 22h1v1h-1z"/><path d="m19 24h1v1h-1z"/><path d="m19 26h1v1h-1z"/><path d="m19 28h1v1h-1z"/><path d="m19 30h1v1h-1z"/><path d="m19 32h1v1h-1z"/><path d="m19 34h1v1h-1z"/><path d="m19 36h1v1h-1z"/><path d="m19 38h1v1h-1z"/><path d="m19 40h1v1h-1z"/><path d="m19 42h1v1h-1z"/><path d="m23 42h1v1h-1z"/><path d="m25 42h1v1h-1z"/><path d="m27 42h1v1h-1z"/></g><path d="m32 13h6v2h-6z" fill="#303f9f"/><path d="m31 13h2v2h-2z" fill="#1a237e"/></svg>