<svg fill="#666" height="50" viewBox="0 0 48 48" width="50" xmlns="http://www.w3.org/2000/svg"><path d="m45 14.300781c-.199219 4.097657-3 9.597657-8.601562 16.597657-5.699219 7.402343-10.5 11-14.5 11-2.398438 0-4.5-2.199219-6.199219-6.699219-1.097656-4.097656-2.300781-8.199219-3.398438-12.300781-1.300781-4.5-2.601562-6.699219-4-6.699219-.300781 0-1.402343.5-3.300781 1.800781l-2-2.300781c2.101563-1.800781 4-3.097656 6-4.898438 2.800781-2.402343 4.800781-3.601562 6.199219-3.699218 3.300781-.300782 5.300781 1.898437 6 6.597656.800781 5.101562 1.5 7.800781 1.800781 9 .898438 4.199219 2 6.402344 3.101563 6.402344.898437 0 2.199218-1.402344 4-4.101563 1.796875-2.800781 2.699218-4.800781 2.796875-6.300781.300781-2.398438-.699219-3.597656-2.796875-3.597656-1 0-2.101563.5-3.203125.898437 2.101562-6.699219 6.101562-10.199219 11.902343-10 4.398438.101563 6.398438 2.898438 6.199219 8.300781z" fill="#29b6f6"/></svg>