<svg fill="#666" height="50" viewBox="0 0 48 48" width="50" xmlns="http://www.w3.org/2000/svg"><path d="m40 12h-18l-4-4h-10c-2.199219 0-4 1.800781-4 4v8h40v-4c0-2.199219-1.800781-4-4-4z" fill="#ffa000"/><path d="m40 12h-32c-2.199219 0-4 1.800781-4 4v20c0 2.199219 1.800781 4 4 4h32c2.199219 0 4-1.800781 4-4v-20c0-2.199219-1.800781-4-4-4z" fill="#ffca28"/><path d="m36 20c0 1.65625-1.34375 3-3 3s-3-1.34375-3-3 1.34375-3 3-3 3 1.34375 3 3z" fill="#f57c00"/><path d="m20 21.898438-9 13.101562h18z" fill="#ef6c00"/><path d="m31 27.5-6 7.5h12z" fill="#f57c00"/></svg>