<svg fill="#666" height="50" viewBox="0 0 48 48" width="50" xmlns="http://www.w3.org/2000/svg"><g fill="#b0bec5"><path d="m20.7 39c-.4 0-.8-.1-1.2-.2l-5.7-1.8c-1-.3-1.9-1-2.4-2s-.6-2-.3-3l2.1-6.7c.3-1 1-1.9 2-2.4.9-.5 2-.6 3-.3l5.7 1.8c1 .3 1.9 1 2.4 2s.6 2 .3 3l-2.1 6.7c-.5 1.8-2.1 2.9-3.8 2.9zm-3.6-14.5c-.3 0-.6.1-.9.2-.5.2-.8.7-1 1.2l-2.1 6.7c-.2.5-.1 1 .1 1.5s.7.8 1.2 1l5.7 1.8c1.1.3 2.2-.3 2.5-1.3l2.1-6.7c.2-.5.1-1-.1-1.5s-.7-.8-1.2-1l-5.7-1.8c-.2 0-.4-.1-.6-.1z"/><path d="m3 19h3v10h-3z"/><path d="m42 8h3v32h-3z"/></g><path d="m6 19.7v8.6l36 10.4v-29.4z" fill="#f44336"/><path d="m8 21.3v2.2l32-5.1v-6.4z" fill="#ff8a80"/></svg>