<svg fill="#666" height="50" viewBox="0 0 48 48" width="50" xmlns="http://www.w3.org/2000/svg"><g fill="#455a64"><path d="m42 35c0 2.210938-1.789062 3-4 3h-28c-2.210937 0-4-.789062-4-3l3-12c.21875-2.09375 1.789063-4 4-4h22c2.210938 0 3.6875 1.75 4 4z"/><path d="m42 27c0 2.210938-1.789062 3-4 3h-28c-2.210937 0-4-.789062-4-3l3-12c.21875-2.09375 1.789063-4 4-4h22c2.210938 0 3.6875 1.75 4 4z"/><path d="m42 19c0 2.210938-1.789062 3-4 3h-28c-2.210937 0-4-.789062-4-3l3-12c.609375-1.660156 1.789063-3 4-3h22c2.210938 0 3.199219 1.085938 4 3z"/></g><g fill="#78909c"><path d="m38 22h-28c-2.210937 0-4-.789062-4-3v6c0 2.210938 1.789063 3 4 3h28c2.210938 0 4-.789062 4-3v-6c0 2.210938-1.789062 3-4 3z"/><path d="m38 30h-28c-2.210937 0-4-.789062-4-3v6c0 2.210938 1.789063 3 4 3h28c2.210938 0 4-.789062 4-3v-6c0 2.210938-1.789062 3-4 3z"/><path d="m38 38h-28c-2.210937 0-4-.789062-4-3v6c0 2.210938 1.789063 3 4 3h28c2.210938 0 4-.789062 4-3v-6c0 2.210938-1.789062 3-4 3z"/></g><path d="m37 41c0 1.105469-.894531 2-2 2s-2-.894531-2-2 .894531-2 2-2 2 .894531 2 2z" fill="#64dd17"/><path d="m37 33c0 1.105469-.894531 2-2 2s-2-.894531-2-2 .894531-2 2-2 2 .894531 2 2z" fill="#64dd17"/><path d="m37 25c0 1.105469-.894531 2-2 2s-2-.894531-2-2 .894531-2 2-2 2 .894531 2 2z" fill="#64dd17"/></svg>