<svg fill="#666" height="50" viewBox="0 0 48 48" width="50" xmlns="http://www.w3.org/2000/svg"><path d="m17 21c0 2.761719-2.238281 5-5 5s-5-2.238281-5-5 2.238281-5 5-5 5 2.238281 5 5z" fill="#ffa726"/><path d="m2 34.699219s2.800781-6.300781 10-6.300781 10 6.300781 10 6.300781v3.300781h-20z" fill="#455a64"/><path d="m46 34.699219s-2.800781-6.300781-10-6.300781-10 6.300781-10 6.300781v3.300781h20z" fill="#455a64"/><path d="m30 17c0 3.3125-2.6875 6-6 6s-6-2.6875-6-6 2.6875-6 6-6 6 2.6875 6 6z" fill="#ffb74d"/><path d="m36 34.101563s-3.300781-7.5-12-7.5-12 7.5-12 7.5v3.898437h24z" fill="#607d8b"/><g fill="#ffa726"><path d="m41 21c0 2.761719-2.238281 5-5 5s-5-2.238281-5-5 2.238281-5 5-5 5 2.238281 5 5z"/><path d="m17 21c0 2.761719-2.238281 5-5 5s-5-2.238281-5-5 2.238281-5 5-5 5 2.238281 5 5z"/><path d="m41 21c0 2.761719-2.238281 5-5 5s-5-2.238281-5-5 2.238281-5 5-5 5 2.238281 5 5z"/></g></svg>