<svg fill="#666" height="50" viewBox="0 0 48 48" width="50" xmlns="http://www.w3.org/2000/svg"><path d="m0 25v12.007c0 .548.448.993 1 .993h46c.552 0 1-.445 1-.993v-12.007z" fill="#78909c"/><g fill="#64dd17"><circle cx="5" cy="30" r="1"/><circle cx="9" cy="30" r="1"/><circle cx="5" cy="34" r="1"/><circle cx="9" cy="34" r="1"/></g><g fill="#37474f"><path d="m19 31v-1h-1v-1h-2v1h-1v1h-1v4h6v-4z"/><path d="m27 31v-1h-1v-1h-2v1h-1v1h-1v4h6v-4z"/><path d="m35 31v-1h-1v-1h-2v1h-1v1h-1v4h6v-4z"/><path d="m43 31v-1h-1v-1h-2v1h-1v1h-1v4h6v-4z"/></g><path d="m.083 24.599 6.007-14c.156-.364.509-.599.899-.599h34.023c.39 0 .742.235.898.599l6.007 14c.283.661-.192 1.401-.899 1.401h-46.036c-.707 0-1.182-.74-.899-1.401z" fill="#b0bec5"/></svg>