<svg fill="#666" height="50" viewBox="0 0 48 48" width="50" xmlns="http://www.w3.org/2000/svg"><path d="m19 12v-4h10v4h2v-4c0-1.105469-.894531-2-2-2h-10c-1.105469 0-2 .894531-2 2v4z" fill="#455a64"/><path d="m44 37c0 2.761719-2.238281 5-5 5h-30c-2.761719 0-5-2.238281-5-5v-20c0-2.761719 2.238281-5 5-5h30c2.761719 0 5 2.238281 5 5z" fill="#f44336"/><path d="m34 27c0 5.523438-4.476562 10-10 10-5.523437 0-10-4.476562-10-10 0-5.523437 4.476563-10 10-10 5.523438 0 10 4.476563 10 10z" fill="#fff"/><g fill="#f44336"><path d="m22 21h4v12h-4z"/><path d="m18 25h12v4h-12z"/></g></svg>