<svg fill="#666" height="50" viewBox="0 0 48 48" width="50" xmlns="http://www.w3.org/2000/svg"><path d="m42 39v-30c0-1.65625-1.34375-3-3-3h-30c-1.65625 0-3 1.34375-3 3v30c0 1.65625 1.34375 3 3 3h30c1.65625 0 3-1.34375 3-3z" fill="#1c9957"/><path d="m9 42h30c1.65625 0-15-16-15-16s-16.65625 16-15 16z" fill="#3e7bf1"/><path d="m42 39v-30c0-1.65625-16 15-16 15s16 16.65625 16 15z" fill="#cbccc9"/><path d="m39 42c1.65625 0 3-1.34375 3-3v-.246094l-15.753906-15.753906-3.246094 3.246094 15.753906 15.753906z" fill="#efefef"/><path d="m42 9c0-1.65625-1.34375-3-3-3h-.246094l-32.753906 32.753906v.246094c0 1.65625 1.34375 3 3 3h.246094l32.753906-32.753906z" fill="#ffd73d"/><path d="m36 2c-5.523437 0-10 4.476563-10 10 0 6.8125 7.664063 9.296875 9.332031 19.851563.109375.679687.117188 1.148437.667969 1.148437s.558594-.46875.667969-1.148437c1.667969-10.554688 9.332031-13.039063 9.332031-19.851563 0-5.523437-4.476562-10-10-10z" fill="#d73f35"/><path d="m39.5 12c0 1.933594-1.566406 3.5-3.5 3.5s-3.5-1.566406-3.5-3.5 1.566406-3.5 3.5-3.5 3.5 1.566406 3.5 3.5z" fill="#752622"/><path d="m14.492188 12.53125v2.101563h2.996093c-.394531 1.273437-1.457031 2.183593-2.996093 2.183593-1.832032 0-3.316407-1.484375-3.316407-3.316406 0-1.835937 1.484375-3.320312 3.316407-3.320312.824218 0 1.578125.304687 2.15625.800781l1.546875-1.546875c-.976563-.890625-2.273438-1.433594-3.703125-1.433594-3.039063 0-5.5 2.464844-5.5 5.5s2.460937 5.5 5.5 5.5c4.8125 0 5.636718-4.316406 5.183593-6.460937z" fill="#fff"/></svg>