<svg fill="#666" height="50" viewBox="0 0 48 48" width="50" xmlns="http://www.w3.org/2000/svg"><path d="m3 40h42v2h-42z" fill="#90a4ae"/><path d="m44 20c-3.800781 0-6 3.101563-7.5 5.199219-.300781.402344-.601562.902344-.898437 1.300781 0-.5-.101563-1.101562-.101563-1.5-.101562-2.601562-.199219-4.898437-1.898437-4.898437-1.203125 0-2.203125 1.296875-3.800782 3.5-1.800781 2.296875-4.199218 5.5-6.199218 5.5-.203125 0-.402344-.101563-.601563-.101563 3.699219-3.800781 5.898438-8.800781 5.898438-12 0-1.101562-.296875-2-.796875-2.699219-.300782-.699218-1.101563-1.300781-2.402344-1.300781-3.597656 0-6.699219 4.699219-6.699219 10.398438 0 2 .398438 3.902343 1.300781 5.402343-2 1.699219-4.699218 3.300782-7.902343 3.300782-1.199219 0-2.199219-.402344-3.199219-1.101563 3.800781-5.398437 8.800781-13.601562 8.800781-20.699219 0-4.402343-2.5-5.300781-4.601562-5.300781-3.097657 0-10.398438 4.699219-10.398438 16.398438 0 3.101562 1.300781 7 3.5 9.601562-1.800781 2.398438-3.199219 4-3.300781 4-.398438.398438-.300781 1 .101562 1.398438.199219.203125.398438.300781.699219.300781s.5-.097656.699219-.300781c.199219-.199219 1.5-1.699219 3.300781-4 1.300781 1 2.699219 1.601562 4.398438 1.601562 3.402343 0 6.601562-1.5 9.203125-3.699219.597656.5 1.296875.699219 2.097656.699219 3 0 5.601562-3.5 7.800781-6.300781.601563-.800781 1.398438-1.800781 1.898438-2.300781.101562.703125.203125 1.902343.203125 2.703125.097656 2.398437.097656 4 1.5 4 1.199218 0 2-1.203125 3.097656-2.601563 1.402344-2 3.101562-4.398437 5.902344-4.398437.597656 0 1-.402344 1-1 0-.601563-.5-1.101563-1.101563-1.101563zm-36.300781 9.398438c-1.699219-2.199219-2.699219-5.398438-2.699219-8 0-10 6.101563-14.398438 8.398438-14.398438 2.203125 0 2.601562 1.300781 2.601562 3.300781 0 6.398438-4.601562 14-8.300781 19.097657zm14.101562-2.097657c-.5-1.101562-.800781-2.5-.800781-3.902343 0-4.699219 2.5-8.398438 4.699219-8.398438.601562 0 .800781.199219.902344.398438.199218.300781.296875.800781.296875 1.402343 0 2.5-1.796875 6.398438-4.296875 9.398438-.203125.402344-.5.699219-.800782 1.101562z" fill="#1565c0"/></svg>