<svg fill="#666" height="50" viewBox="0 0 48 48" width="50" xmlns="http://www.w3.org/2000/svg"><g fill="#fff"><path d="m12.191406 19.554688c-1.9375-1.742188-4.789062-1.726563-6.363281.03125-1.574219 1.753906-1.300781 5.019531.925781 6.628906z"/><path d="m35.808594 19.554688c1.9375-1.742188 4.789062-1.726563 6.363281.03125 1.574219 1.753906 1.300781 5.019531-.925781 6.628906z"/><path d="m41.820313 10.476563c0 1.929687-1.566407 3.5-3.5 3.5-1.933594 0-3.5-1.570313-3.5-3.5 0-1.933594 1.566406-3.5 3.5-3.5 1.933593 0 3.5 1.566406 3.5 3.5z"/><path d="m42.171875 28.609375c0-7.148437-8.097656-12.945312-18.085937-12.945312-9.988282 0-18.085938 5.796875-18.085938 12.945312 0 7.152344 8.097656 12.949219 18.085938 12.949219 9.988281 0 18.085937-5.796875 18.085937-12.949219z"/></g><path d="m33.25 26.390625c0 1.59375-1.292969 2.882813-2.886719 2.882813-1.589843 0-2.882812-1.289063-2.882812-2.882813s1.292969-2.882812 2.882812-2.882812c1.59375 0 2.886719 1.289062 2.886719 2.882812z" fill="#d84315"/><path d="m20.519531 26.390625c0 1.59375-1.292968 2.882813-2.882812 2.882813-1.59375 0-2.886719-1.289063-2.886719-2.882813s1.292969-2.882812 2.886719-2.882812c1.589844 0 2.882812 1.289062 2.882812 2.882812z" fill="#d84315"/><g fill="#37474f"><path d="m24.003906 34.902344c-3.253906 0-6.140625-.746094-8.003906-1.902344 1.023438 2.042969 4.195313 4 8.003906 4 3.800782 0 6.972657-1.957031 7.996094-4-1.855469 1.15625-4.746094 1.902344-7.996094 1.902344z"/><path d="m41.828125 27.027344-1.167969-1.621094c.832032-.601562 1.371094-1.558594 1.488282-2.625.105468-.980469-.15625-1.902344-.722657-2.53125-.570312-.636719-1.390625-.988281-2.304687-.992187-.929688.011718-1.894531.363281-2.648438 1.039062l-1.335937-1.488281c1.125-1.007813 2.546875-1.523438 3.992187-1.550781 1.488282.007812 2.832032.59375 3.785157 1.65625.941406 1.050781 1.386718 2.539062 1.222656 4.082031-.175781 1.628906-1.015625 3.101562-2.308594 4.03125z"/><path d="m6.167969 27.027344c-1.289063-.933594-2.128906-2.402344-2.304688-4.03125-.167968-1.542969.277344-3.03125 1.222657-4.082031.949218-1.058594 2.296875-1.648438 3.78125-1.65625h.027343c1.441407 0 2.851563.550781 3.964844 1.554687l-1.335937 1.488281c-.75-.679687-1.6875-1.007812-2.644532-1.042968-.914062.003906-1.734375.355468-2.304687.996093-.5625.625-.828125 1.546875-.722656 2.527344.117187 1.066406.65625 2.023438 1.488281 2.625z"/><path d="m25 16.839844h-2c0-2.886719 0-10.546875 4.980469-10.546875 2.152344 0 3.191406 1.210937 3.949219 2.09375.628906.734375.960937 1.085937 1.617187 1.085937h1.371094v2h-1.371094c-1.605469 0-2.453125-.988281-3.136719-1.785156-.667968-.78125-1.195312-1.398437-2.433593-1.398437-2 .003906-2.976563 2.800781-2.976563 8.550781z"/><path d="m24.085938 16.949219c9.421875 0 17.085937 5.230469 17.085937 11.660156 0 6.433594-7.664062 11.664063-17.085937 11.664063s-17.085938-5.230469-17.085938-11.664063c0-6.429687 7.664063-11.660156 17.085938-11.660156m0-2c-10.542969 0-19.085938 6.117187-19.085938 13.660156 0 7.546875 8.546875 13.664063 19.085938 13.664063 10.539062 0 19.085937-6.117188 19.085937-13.664063 0-7.542969-8.546875-13.660156-19.085937-13.660156z"/><path d="m38.320313 7.976563c1.378906 0 2.5 1.121093 2.5 2.5 0 1.375-1.121094 2.5-2.5 2.5-1.378907 0-2.5-1.125-2.5-2.5 0-1.378907 1.121093-2.5 2.5-2.5m0-2c-2.484375 0-4.5 2.011718-4.5 4.5 0 2.484375 2.015625 4.5 4.5 4.5s4.5-2.015625 4.5-4.5c0-2.488282-2.011719-4.5-4.5-4.5z"/></g></svg>