<svg fill="#666" height="50" viewBox="0 0 48 48" width="50" xmlns="http://www.w3.org/2000/svg"><path d="m44 18.101563v-4h-10v-10h-4v10h-4v-10h-4v10h-4v-10h-4v10h-10v4h10v4h-10v4h10v4h-10v4h10v10h4v-10h4v10h4v-10h4v10h4v-10h10v-4h-10v-4h10v-4h-10v-4z" fill="#ff9800"/><path d="m8 12.101563v24c0 2.199218 1.800781 4 4 4h24c2.199219 0 4-1.800782 4-4v-24c0-2.203125-1.800781-4-4-4h-24c-2.199219 0-4 1.796875-4 4z" fill="#607d8b"/><g fill="#455a64"><path d="m17 15.101563c0 1.101562-.894531 2-2 2s-2-.898438-2-2c0-1.105469.894531-2 2-2s2 .894531 2 2z"/><path d="m35 33.101563c0 1.101562-.894531 2-2 2s-2-.898438-2-2c0-1.105469.894531-2 2-2s2 .894531 2 2z"/></g></svg>