<svg fill="#666" height="50" viewBox="0 0 48 48" width="50" xmlns="http://www.w3.org/2000/svg"><path d="m24.171875 42.828125c-.753906-.753906-1.171875-1.757812-1.171875-2.824219v-36.003906h2v36.003906c0 1.101563.898438 1.996094 2 2 1.101563 0 2-.902343 2-2h2c0 2.203125-1.792969 3.996094-4 3.996094-1.066406 0-2.070312-.414062-2.828125-1.171875z" fill="#b0bec5"/><path d="m43 27c0-10.492187-8.507812-19-19-19-10.492187 0-19 8.507813-19 19 0 0 2.835938-2.714844 6.335938-2.714844 3.496093 0 5.664062 2.714844 5.664062 2.714844s3.503906-2.714844 7-2.714844 7 2.714844 7 2.714844 2.167969-2.714844 5.664063-2.714844c3.5 0 6.335937 2.714844 6.335937 2.714844z" fill="#2196f3"/><path d="m24 8v16.285156c3.496094 0 7 2.714844 7 2.714844s2.167969-2.714844 5.664063-2.714844c3.5 0 6.335937 2.714844 6.335937 2.714844 0-10.492187-8.507812-19-19-19z" fill="#0d47a1"/><path d="m24 8s-7 4.523438-7 19c0 0 3.503906-2.714844 7-2.714844s7 2.714844 7 2.714844c0-13.570312-7-19-7-19z" fill="#1565c0"/></svg>