<svg fill="#666" height="50" viewBox="0 0 48 48" width="50" xmlns="http://www.w3.org/2000/svg"><path d="m18 36s-2.214844-4-8-4-8 4-8 4v3h16z" fill="#455a64"/><path d="m46 36s-2.214844-4-8-4-8 4-8 4v3h16z" fill="#455a64"/><path d="m28 28s0 4-4 4-4-4-4-4" fill="#ff9800"/><path d="m36 34.9375s-3.320312-7.9375-12-7.9375c-8.679687 0-12 7.9375-12 7.9375v4.0625h24z" fill="#607d8b"/><path d="m32 19.5c0 .828125-.671875 1.5-1.5 1.5s-1.5-.671875-1.5-1.5.671875-1.5 1.5-1.5 1.5.671875 1.5 1.5" fill="#ffa726"/><path d="m19 19.5c0 .828125-.671875 1.5-1.5 1.5s-1.5-.671875-1.5-1.5.671875-1.5 1.5-1.5 1.5.671875 1.5 1.5" fill="#ffa726"/><g fill="#ff9800"><path d="m12 29h-4v3s-.121094 2 1.960938 2c2.082031 0 2.039062-2 2.039062-2z"/><path d="m40 29h-4v3s-.121094 2 1.960938 2c2.082031 0 2.039062-2 2.039062-2z"/><path d="m24 32c-4 0-4-4-4-4v-4h8v4s0 4-4 4z"/></g><g fill="#ffb74d"><path d="m10 31c-2.757812 0-5-2.242187-5-5 0-2.757812 2.242188-5 5-5 2.757813 0 5 2.242188 5 5 0 2.757813-2.242187 5-5 5"/><path d="m38 31c-2.757812 0-5-2.242187-5-5 0-2.757812 2.242188-5 5-5 2.757813 0 5 2.242188 5 5 0 2.757813-2.242187 5-5 5"/><path d="m31 15.679688c0-5.878907-14-3.828125-14 0v4.390625c0 3.824218 3.132813 6.929687 7 6.929687 3.867188 0 7-3.105469 7-6.929687z"/></g><path d="m9.78125 19c-2.4375.21875-4.78125 1.929688-4.78125 5.574219v1.425781l1 1v-3l6.308594-2.199219 1.691406 2.199219v3l1-1v-1.203125c0-2.414062-.136719-4.203125-3-4.796875l-.484375-1z" fill="#424242"/><path d="m37.78125 19c-2.4375.21875-4.78125 1.929688-4.78125 5.574219v1.425781l1 1v-3l6.308594-2.199219 1.691406 2.199219v3l1-1v-1.203125c0-2.414062-.136719-4.203125-3-4.796875l-.484375-1z" fill="#424242"/><path d="m24 8c-4.859375 0-8 4.3125-8 8.171875v1.828125l2 2v-4l9.199219-3 2.800781 3v4l2-2v-.808594c0-3.21875-.828125-6.804687-4.800781-7.59375l-.800781-1.597656z" fill="#424242"/><path d="m26 19c0 .550781.449219 1 1 1s1-.449219 1-1-.449219-1-1-1-1 .449219-1 1" fill="#784719"/><path d="m20 19c0 .550781.449219 1 1 1s1-.449219 1-1-.449219-1-1-1-1 .449219-1 1" fill="#784719"/></svg>