<svg fill="#666" height="50" viewBox="0 0 48 48" width="50" xmlns="http://www.w3.org/2000/svg"><path d="m0 34s7.011719-25 24-25c17 0 24 22 24 22l-17 8z" fill="#ffc107"/><path d="m0 34 1.949219.3125.011719-.03125c.066406-.234375 6.964843-23.28125 22.039062-23.28125 15.085938 0 21.984375 20.113281 22.050781 20.316406l.175782.519532 1.773437-.835938s-7.082031-21.996094-23.90625-21.996094c-17.011719 0-24.09375 24.996094-24.09375 24.996094z" fill="#ffa000"/><path d="m23.707031 9.292969-1.414062 1.414062c5.449219 5.449219 8.707031 18.664063 8.707031 28.292969l1.980469-.933594c-.191406-9.8125-3.421875-22.921875-9.273438-28.773437z" fill="#ffa000"/><path d="m46.113281 26.425781-15.242187 7.285157-29.152344-4.507813c-1.167969 2.828125-1.71875 4.796875-1.71875 4.796875l31 5 17-8s-.5625-1.980469-1.886719-4.574219z" fill="#607d8b"/><path d="m22.996094 37.710938c-.027344-5.394532-.101563-16.710938-6.042969-16.710938-5.257812 0-7.6875 9.574219-8.578125 14.351563z" fill="#37474f"/><g fill="#455a64"><path d="m1.960938 34.28125c.019531-.066406.605468-2.019531 1.78125-4.765625l-2.019532-.3125c-.011718.023438-.019531.046875-.03125.070313-.722656 1.570312-1.691406 4.726562-1.691406 4.726562l1.949219.3125z"/><path d="m44.324219 27.277344c1.144531 2.332031 1.707031 3.980469 1.726562 4.039062l.175782.519532 1.773437-.835938s-.605469-1.894531-1.886719-4.574219z"/><path d="m32.632813 32.882813-1.761719.828125-.171875-.027344c.195312 1.839844.300781 3.632812.300781 5.316406l1.980469-.933594c-.03125-1.65625-.144531-3.394531-.347656-5.183593z"/></g></svg>