<svg fill="#666" height="50" viewBox="0 0 48 48" width="50" xmlns="http://www.w3.org/2000/svg"><path d="m5 10c0-2.210937 1.789063-4 4-4h28c2.210938 0 4 1.789063 4 4v28c0 2.210938-1.789062 4-4 4h-28c-2.210937 0-4-1.789062-4-4z" fill="#e91e63"/><g fill="#16020b"><path d="m26.28125 22.554688c-.507812 0-.878906.203125-1.109375.613281-.234375.410156-.355469 1.140625-.355469 2.1875v.734375c0 1.039062.113282 1.769531.332032 2.179687.222656.414063.597656.621094 1.125.621094.546875 0 .960937-.242187 1.238281-.730469v-4.824218c-.273438-.523438-.683594-.78125-1.230469-.78125z"/><path d="m8 9v30h30v-30zm12.140625 22h-2.871094v-14.21875h2.871094zm10.15625 0h-2.511719l-.125-1.074219c-.566406.847657-1.296875 1.269532-2.1875 1.269532-1.109375 0-1.953125-.421875-2.535156-1.269532-.582031-.847656-.878906-2.089843-.894531-3.730468v-.800782c0-1.730468.292969-3.023437.878906-3.875.585938-.855468 1.441406-1.28125 2.558594-1.28125.816406 0 1.492187.351563 2.03125 1.054688v-5.292969h2.785156z"/></g></svg>