<svg fill="#666" height="50" viewBox="0 0 48 48" width="50" xmlns="http://www.w3.org/2000/svg"><path d="m38.568 7.703c-2.395-2.423-5.813-3.703-9.883-3.703-1.741 0-3.302.22-4.646.656-1.346-.436-2.907-.656-4.647-.656-8.01 0-13.392 5.174-13.392 12.875 0 1.134.175 2.162.452 3.125h11.548v-4h12v4h11.548c.276-.96.451-1.985.451-3.114.04-3.698-1.145-6.873-3.431-9.183z" fill="#ffca28"/><path d="m27.144 4.069c-1.129.093-2.172.285-3.106.587-.006-.002-.013-.003-.02-.005 2.165.87 4.106 2.538 5.616 4.892.191.298.513.46.843.46.185 0 .372-.051.539-.158.465-.298.601-.917.302-1.381-1.177-1.835-2.595-3.31-4.174-4.395z" fill="#efb430"/><path d="m41.789 18.999-10.789-.011v-2.988c0-.552-.447-1-1-1h-12c-.552 0-1 .448-1 1v2.988l-10.789.011c.137.701.334 1.364.573 1.999l11.217-.011c.552 0 .999-.448.999-1v-2.987h10v2.987c0 .552.447 1 .999 1l11.216.011c.24-.635.437-1.298.574-1.999z" fill="#64b5f6"/><path d="m29.999 20.987c-.552 0-.999-.448-.999-1v-2.987h-10v2.987c0 .552-.447 1-.999 1l-11.217.01c.505 1.341 1.187 2.562 1.862 3.76.918 1.629 1.868 3.313 2.42 5.355.323 1.223.61 2.531.888 3.796 1.138 5.19 2.213 10.092 5.888 10.092 2.566 0 4.098-1.82 4.098-4.869 0-3.69.787-8.588 1.375-11.926.122-.597.603-.619.728-.633.162.003.548.067.637.611.915 5.093 1.379 9.113 1.379 11.948 0 3.049 1.532 4.869 4.098 4.869 3.66 0 4.734-4.882 5.873-10.051.282-1.282.574-2.607.901-3.831.555-2.049 1.504-3.733 2.422-5.361.675-1.198 1.358-2.419 1.863-3.76z" fill="#bbdefb"/></svg>