<svg fill="#666" height="50" viewBox="0 0 48 48" width="50" xmlns="http://www.w3.org/2000/svg"><g fill="#455a64"><path d="m14.539063 6h2.125l1.371093 5.496094h.132813l1.308594-5.492188h2.144531l-2.457031 8.035157v5.960937h-2.113282v-5.703125z"/><path d="m21.523438 11.921875c0-.78125.253906-1.410156.761718-1.871094.503907-.46875 1.179688-.703125 2.035157-.703125.777343 0 1.410156.246094 1.90625.738282.496093.488281.742187 1.121093.742187 1.894531v5.234375c0 .867187-.242187 1.546875-.726562 2.042969-.484375.496093-1.152344.742187-2.007813.742187-.824219 0-1.476562-.257812-1.972656-.765625-.492188-.507812-.738281-1.195312-.738281-2.054687zm1.929687 5.445313c0 .277343.066406.496093.207031.648437.132813.148438.320313.222656.570313.222656.253906 0 .453125-.074218.605469-.230468.148437-.152344.226562-.367188.226562-.640625v-5.519532c0-.222656-.082031-.402343-.234375-.539062-.148437-.132813-.351562-.203125-.597656-.203125-.226563 0-.417969.070312-.558594.203125-.144531.136719-.21875.316406-.21875.539062z"/><path d="m33.917969 9.605469v10.394531h-1.875v-1.265625c-.347656.414063-.703125.726563-1.082031.941406-.371094.214844-.734375.324219-1.085938.324219-.433594 0-.757812-.148437-.980469-.453125-.21875-.300781-.328125-.75-.328125-1.355469v-8.585937h1.875v7.886719c0 .234375.039063.410156.117188.519531.078125.101562.207031.160156.382812.160156.140625 0 .3125-.070312.519532-.214844.214843-.140625.40625-.324218.582031-.542968v-7.808594z"/></g><path d="m38.800781 26.4375c0-2.339844-1.941406-4.238281-4.332031-4.238281-3.410156-.144531-6.902344-.203125-10.46875-.199219-3.5625-.003906-7.054687.058594-10.46875.199219-2.386719 0-4.328125 1.898437-4.328125 4.238281-.140625 1.851563-.207031 3.707031-.203125 5.5625-.003906 1.855469.058594 3.707031.203125 5.5625 0 2.34375 1.9375 4.242188 4.328125 4.242188 3.414063.140625 6.90625.199218 10.46875.195312 3.5625.007813 7.058594-.054687 10.46875-.195312 2.390625 0 4.332031-1.898438 4.332031-4.242188.140625-1.855469.207032-3.707031.199219-5.5625.007813-1.855469-.058594-3.710937-.199219-5.5625z" fill="#fff"/><g fill="#f44336"><path d="m33.851563 30.347656c-.21875 0-.367188.054688-.457032.179688-.066406.089844-.148437.296875-.148437.75v.773437h1.195312v-.773437c0-.445313-.082031-.65625-.152343-.757813-.085938-.117187-.226563-.171875-.4375-.171875z"/><path d="m26.863281 30.386719c-.085937.042969-.167968.105469-.257812.191406v5.875c.113281.113281.21875.191406.316406.242188.113281.058593.226563.082031.347656.082031.230469 0 .300782-.089844.324219-.125.058594-.070313.121094-.21875.121094-.539063v-5.003906c0-.277344-.054688-.492187-.152344-.625-.132812-.179687-.398437-.25-.699219-.097656z"/><path d="m38.800781 26.4375c0-2.339844-1.941406-4.238281-4.332031-4.238281-3.410156-.144531-6.902344-.203125-10.46875-.199219-3.5625-.003906-7.054687.058594-10.46875.199219-2.386719 0-4.328125 1.898437-4.328125 4.238281-.140625 1.851563-.207031 3.707031-.203125 5.5625-.003906 1.855469.058594 3.707031.203125 5.5625 0 2.34375 1.9375 4.242188 4.328125 4.242188 3.414063.140625 6.90625.199218 10.46875.195312 3.5625.007813 7.058594-.054687 10.46875-.195312 2.390625 0 4.332031-1.898438 4.332031-4.242188.140625-1.855469.207032-3.707031.199219-5.5625.007813-1.855469-.058594-3.710937-.199219-5.5625zm-23.101562 11.945313c0 .109375-.089844.203125-.203125.203125h-2.050781c-.113282 0-.207032-.09375-.207032-.203125v-11.03125h-1.914062c-.109375 0-.203125-.089844-.203125-.203125v-1.902344c0-.113281.09375-.207031.203125-.207031h6.292969c.113281 0 .207031.09375.207031.207031v1.902344c0 .113281-.09375.203125-.207031.203125h-1.917969zm7.296875 0c0 .109375-.09375.203125-.207031.203125h-1.820313c-.117187 0-.207031-.09375-.207031-.203125v-.550782c-.242188.230469-.488281.417969-.738281.558594-.398438.226563-.777344.335938-1.160157.335938-.488281 0-.863281-.175782-1.117187-.515625-.238281-.324219-.359375-.804688-.359375-1.421875v-8.101563c0-.109375.089844-.203125.207031-.203125h1.820313c.113281 0 .203125.09375.203125.203125v7.429688c0 .242187.046875.34375.074218.382812.011719.015625.050782.066406.203125.066406.054688 0 .171875-.023437.390625-.167968.175782-.117188.332032-.261719.472657-.425782v-7.285156c0-.109375.09375-.203125.207031-.203125h1.820312c.113282 0 .207032.09375.207032.203125v9.695313zm7.003906-2.011719c0 .738281-.160156 1.3125-.472656 1.710937-.328125.417969-.796875.625-1.398438.625-.382812 0-.734375-.078125-1.046875-.234375-.164062-.082031-.324218-.191406-.476562-.324218v.234375c0 .113281-.09375.203125-.207031.203125h-1.835938c-.117187 0-.207031-.089844-.207031-.203125v-13.140625c0-.113282.089844-.203125.207031-.203125h1.835938c.113281 0 .207031.089843.207031.203125v3.71875c.148437-.136719.308594-.25.472656-.34375.308594-.171875.625-.257813.941406-.257813.640625 0 1.140625.238281 1.484375.707031.328125.449219.492188 1.101563.492188 1.933594zm6.730469-2.605469c0 .113281-.09375.203125-.207031.203125h-3.273438v1.621094c0 .59375.082031.847656.148438.953125.050781.085937.152343.199219.4375.199219.230468 0 .386718-.054688.46875-.164063.035156-.058594.136718-.28125.136718-.988281v-.675781c0-.113282.09375-.203125.207032-.203125h1.875c.113281 0 .203125.089843.203125.203125v.730468c0 1.042969-.25 1.84375-.738282 2.382813-.488281.542969-1.226562.820312-2.195312.820312-.871094 0-1.574219-.296875-2.078125-.871093-.5-.570313-.757813-1.355469-.757813-2.332032v-4.355468c0-.890625.277344-1.628907.832032-2.195313.550781-.566406 1.273437-.855469 2.144531-.855469.886719 0 1.585937.269532 2.070312.800782.480469.527343.722657 1.285156.722657 2.253906v2.472656z"/></g></svg>