<svg fill="#666" height="50" viewBox="0 0 48 48" width="50" xmlns="http://www.w3.org/2000/svg"><path d="m40 12h-18l-4-4h-10c-2.199219 0-4 1.800781-4 4v8h40v-4c0-2.199219-1.800781-4-4-4z" fill="#ffa000"/><path d="m40 12h-32c-2.199219 0-4 1.800781-4 4v20c0 2.199219 1.800781 4 4 4h32c2.199219 0 4-1.800781 4-4v-20c0-2.199219-1.800781-4-4-4z" fill="#ffca28"/><path d="m34 18h-20v16h20zm-11 15v-2h2v2zm4 0v-2h2v2zm4 0v-2h2v2zm-12 0v-2h2v2zm-4 0v-2h2v2zm8-12v-2h2v2zm4 0v-2h2v2zm4 0v-2h2v2zm-12 0v-2h2v2zm-4 0v-2h2v2z" fill="#3f51b5"/></svg>