<svg fill="#666" height="50" viewBox="0 0 48 48" width="50" xmlns="http://www.w3.org/2000/svg"><path d="m44 22c0 11.046875-8.953125 20-20 20s-20-8.953125-20-20 8.953125-20 20-20 20 8.953125 20 20z" fill="#fff59d"/><path d="m37 22c0-7.699219-6.601562-13.800781-14.5-12.898437-6 .699218-10.800781 5.5-11.398437 11.5-.5 4.597656 1.398437 8.699218 4.597656 11.296875 1.402344 1.203125 2.300781 2.902343 2.300781 4.800781v.300781h12v-.101562c0-1.796875.800781-3.597657 2.199219-4.796875 2.902344-2.402344 4.800781-6 4.800781-10.101563z" fill="#fbc02d"/><path d="m30.601563 20.199219-3-2c-.300782-.199219-.800782-.199219-1.101563 0l-2.5 1.601562-2.398437-1.601562c-.300782-.199219-.800782-.199219-1.101563 0l-3 2c-.199219.199219-.398437.402344-.398437.699219 0 .300781 0 .601562.199218.800781l3.800782 4.699219v10.601562h2v-11c0-.199219-.101563-.398437-.203125-.601562l-3.296875-4.097657 1.5-1 2.398437 1.597657c.300781.203125.800781.203125 1.101563 0l2.398437-1.597657 1.5 1-3.300781 4.097657c-.097656.203125-.199219.402343-.199219.601562v11h2v-10.601562l3.800781-4.699219c.199219-.199219.300782-.5.199219-.800781-.101562-.296875-.199219-.597657-.398437-.699219z" fill="#fff59d"/><path d="m27 44c0 1.65625-1.34375 3-3 3s-3-1.34375-3-3 1.34375-3 3-3 3 1.34375 3 3z" fill="#5c6bc0"/><path d="m26 45h-4c-2.199219 0-4-1.800781-4-4v-5h12v5c0 2.199219-1.800781 4-4 4z" fill="#9fa8da"/><g fill="#5c6bc0"><path d="m30 41-11.601562 1.601563c.300781.699218.902343 1.398437 1.601562 1.796875l9.398438-1.296875c.402343-.601563.601562-1.300782.601562-2.101563z"/><path d="m18 38.699219v2l12-1.699219v-2z"/></g></svg>