<svg fill="#666" height="50" viewBox="0 0 48 48" width="50" xmlns="http://www.w3.org/2000/svg"><g fill="#90caf9"><path d="m14.3 3s-1.3 6.5-1.3 11 6.5 11 11 11 11-5.5 11-11-1.3-11-1.3-11z"/><path d="m32 45h-16v-1s7-2 7-4 2-2 2 0 7 4 7 4z"/><path d="m23 20h2v20h-2z"/></g><path d="m13.1 11c-.1 1-.1 2.1-.1 3 0 4.5 4 11 11 11s11-5.5 11-11c0-1 0-2-.1-3z" fill="#e53935"/><path d="m18 11c.2-2.2.5-4.5.8-6h-2.4c-.3 1.5-.6 3.8-.8 6z" fill="#fafafa"/><path d="m18 11h-2.4c-.1 1-.2 2.1-.2 3 0 2.5 2 6.2 4.6 8-1.6-2.2-2.1-5.8-2.1-8 0-.9.1-2 .1-3z" fill="#ff8a80"/></svg>