<svg fill="#666" height="50" viewBox="0 0 48 48" width="50" xmlns="http://www.w3.org/2000/svg"><path d="m6 6h36v36h-36z" fill="#37474f"/><path d="m34.146 16.229 1.854-1.854v-.375h-6.636l-4.92 11.791-5.184-11.791h-7.26v.375l1.884 2.261c.075.09.116.203.116.32v12.286c0 .183-.063.36-.177.502l-2.323 2.88v.376h7v-.375l-2.325-2.906c-.113-.142-.175-.318-.175-.5v-10.494l6.365 14.275h1.26l5.375-12.917v10.085c0 .133-.053.26-.146.353l-2.104 2.104v.375h9.25v-.375l-1.854-1.854c-.093-.093-.146-.22-.146-.353v-13.836c0-.133.053-.26.146-.353z" fill="#fff"/></svg>