<svg fill="#666" height="50" viewBox="0 0 48 48" width="50" xmlns="http://www.w3.org/2000/svg"><path d="m32.4 29.1-13.2 7.8s3.1 4 3.1 4l12.6-7.6c1.2-.7 1.5-2.2.8-3.3-.6-1.2-2.1-1.6-3.3-.9" fill="#e39d36"/><path d="m32.7 13.2c-1.6-4.7-8.9-7.5-10.7-8.2.8 2.9-4.8 8.8-2.5 13.2 1.6 3.1 4.6 4 8 .8 3.8.9 6.4-2.5 5.2-5.8z" fill="#689f38"/><path d="m27 26c-.6 0-1-.5-1-1.1 0-.1.5-7.9-2.9-11.7-.4-.4-.3-1 .1-1.4s1-.3 1.4.1c3.9 4.5 3.4 12.8 3.4 13.2 0 .5-.5.9-1 .9z" fill="#8bc34a"/><path d="m19.6 18.2c-2.3-4.4 3.2-10.3 2.4-13.2 1.5 1.7 3.5 5.5 5.5 14-3.4 3.2-6.3 2.3-7.9-.8z" fill="#8bc34a"/><g fill="#795548"><path d="m27 27c0 1.7-1.3 3-3 3s-3-1.3-3-3 1.3-3 3-3 3 1.3 3 3z"/><path d="m33 32c0 1.7-1.3 3-3 3s-3-1.3-3-3 1.3-3 3-3 3 1.3 3 3z"/><path d="m30 29c0-1.7-1.6-3-3.5-3s-3.5 1.3-3.5 3 1.6 3 3.5 3 3.5-1.3 3.5-3z"/><path d="m23 28c0 1.7-1.3 3-3 3s-3-1.3-3-3 1.3-3 3-3 3 1.3 3 3z"/><path d="m31 26.5c0 1.4-1.1 2.5-2.5 2.5s-2.5-1.1-2.5-2.5 1.1-2.5 2.5-2.5 2.5 1.1 2.5 2.5z"/><path d="m36 30c0 1.1-.9 2-2 2s-2-.9-2-2 .9-2 2-2 2 .9 2 2z"/><path d="m34 27.5c0 1.4-1.1 2.5-2.5 2.5s-2.5-1.1-2.5-2.5 1.1-2.5 2.5-2.5 2.5 1.1 2.5 2.5z"/></g><path d="m38.9 30.4-12.4 7.3-5.9-3.4 2.9 1.6c1.3.7 2.9.5 3.9-.6 1.3-1.5.9-3.8-.8-4.7l-12.4-6.8c-1.1-.6-2.5-.6-3.7 0l-5.5 3.3v.1 10.7l4-2.6 15.1 8.2c1.2.6 2.6.6 3.8-.1l13.8-8.3c1.3-.8 1.7-2.4.9-3.7-.7-1.3-2.4-1.7-3.7-1" fill="#ffb74d"/><path d="m27.5 35.4c-.7.9-1.9 1.2-3 1l-.2.1 2.2 1.3 12.4-7.3c.1-.1.2-.1.3-.1-.7-1.1-2.1-1.4-3.2-.7l-7.8 4.6c-.2.3-.4.7-.7 1.1z" fill="#eda740"/><path d="m26.5 37.8-1.3-.9-10.7-6 8 6.6c1.2.9 2.7 1 4 .3" fill="#eda740"/><path d="m24.4 35.2c-.9-.5-.6-1.3-.1-2.2s.9-1.6 1.8-1.1 1.3 1.6.8 2.5c-.4.9-1.5 1.2-2.5.8" fill="#ffcc80"/></svg>