<svg fill="#666" height="50" viewBox="0 0 48 48" width="50" xmlns="http://www.w3.org/2000/svg"><path d="m5 39v-24h38v24c0 2.210938-1.789062 4-4 4h-30c-2.210937 0-4-1.789062-4-4" fill="#dcedc8"/><path d="m43 11v6h-38v-6c0-2.210937 1.789063-4 4-4h30c2.210938 0 4 1.789063 4 4" fill="#4caf50"/><path d="m36 11c0 1.65625-1.34375 3-3 3s-3-1.34375-3-3 1.34375-3 3-3 3 1.34375 3 3" fill="#2e7d32"/><path d="m18 11c0 1.65625-1.34375 3-3 3s-3-1.34375-3-3 1.34375-3 3-3 3 1.34375 3 3" fill="#2e7d32"/><path d="m33 4c-1.105469 0-2 .894531-2 2v5c0 1.105469.894531 2 2 2s2-.894531 2-2v-5c0-1.105469-.894531-2-2-2" fill="#b0bec5"/><path d="m15 4c-1.105469 0-2 .894531-2 2v5c0 1.105469.894531 2 2 2s2-.894531 2-2v-5c0-1.105469-.894531-2-2-2" fill="#b0bec5"/><path d="m31.738281 22.058594-8.980468 8.996094-4.285157-4.277344-2.472656 2.480469 6.761719 6.742187 11.453125-11.46875z" fill="#4caf50"/></svg>