<svg fill="#666" height="50" viewBox="0 0 48 48" width="50" xmlns="http://www.w3.org/2000/svg"><path d="m40 45h-32v-42h22l10 10z" fill="#ff6d00"/><path d="m38.5 14h-9.5v-9.5z" fill="#fff3e0"/><path d="m23.398438 29.5v3.5h-2v-10h3.402343c1 0 1.800782.300781 2.398438.898438.601562.601562.902344 1.402343.902344 2.402343s-.300782 1.699219-.902344 2.300782c-.597656.597656-1.398438.796875-2.398438.796875h-1.402343zm0-1.699219h1.402343c.398438 0 .699219-.101562.898438-.402343.199219-.296875.300781-.597657.300781-1.097657s-.101562-.902343-.300781-1.199218c-.199219-.300782-.5-.402344-.898438-.402344h-1.402343zm-8.398438 1.699219v3.5h-2v-10h3.398438c1 0 1.800781.300781 2.402343.898438.597657.601562.898438 1.402343.898438 2.402343s-.300781 1.699219-.898438 2.300782c-.601562.597656-1.402343.796875-2.402343.796875h-1.398438zm0-1.699219h1.398438c.402343 0 .703125-.101562.902343-.402343.199219-.296875.300782-.597657.300782-1.097657s-.101563-.902343-.300782-1.199218c-.199218-.300782-.5-.402344-.902343-.402344h-1.398438zm21-3.101562h-2.5v8.300781h-2v-8.300781h-2.398437v-1.699219h6.898437z" fill="#fff"/></svg>