<svg fill="#666" height="50" viewBox="0 0 48 48" width="50" xmlns="http://www.w3.org/2000/svg"><path d="m44 20v-7c0-2.199219-1.800781-4-4-4h-5.5c0 .800781-.699219 1.5-1.5 1.5s-1.5-.699219-1.5-1.5h-23.5c-2.199219 0-4 1.800781-4 4v7c2.199219 0 4 1.800781 4 4s-1.800781 4-4 4v7c0 2.199219 1.800781 4 4 4h23.5c0-.800781.699219-1.5 1.5-1.5s1.5.699219 1.5 1.5h5.5c2.199219 0 4-1.800781 4-4v-7c-2.199219 0-4-1.800781-4-4s1.800781-4 4-4zm-11 15.5c-.800781 0-1.5-.699219-1.5-1.5s.699219-1.5 1.5-1.5 1.5.699219 1.5 1.5-.699219 1.5-1.5 1.5zm0-5c-.800781 0-1.5-.699219-1.5-1.5s.699219-1.5 1.5-1.5 1.5.699219 1.5 1.5-.699219 1.5-1.5 1.5zm0-5c-.800781 0-1.5-.699219-1.5-1.5s.699219-1.5 1.5-1.5 1.5.699219 1.5 1.5-.699219 1.5-1.5 1.5zm0-5c-.800781 0-1.5-.699219-1.5-1.5s.699219-1.5 1.5-1.5 1.5.699219 1.5 1.5-.699219 1.5-1.5 1.5zm0-5c-.800781 0-1.5-.699219-1.5-1.5s.699219-1.5 1.5-1.5 1.5.699219 1.5 1.5-.699219 1.5-1.5 1.5z" fill="#ffa726"/></svg>