<svg fill="#666" height="50" viewBox="0 0 48 48" width="50" xmlns="http://www.w3.org/2000/svg"><path d="m6 10c0-2.199219 1.800781-4 4-4h28c2.199219 0 4 1.800781 4 4v28c0 2.199219-1.800781 4-4 4h-28c-2.199219 0-4-1.800781-4-4z" fill="#e1e7ea"/><path d="m23 24c0 3.867188-3.132812 7-7 7-3.867187 0-7-3.132812-7-7 0-3.867187 3.132813-7 7-7 3.867188 0 7 3.132813 7 7z" fill="#1565c0"/><path d="m39 24c0 3.867188-3.132812 7-7 7-3.867187 0-7-3.132812-7-7 0-3.867187 3.132813-7 7-7 3.867188 0 7 3.132813 7 7z" fill="#ff4081"/></svg>