<svg fill="#666" height="50" viewBox="0 0 48 48" width="50" xmlns="http://www.w3.org/2000/svg"><path d="m40.398438 19c-5.296875 0-8.199219 5-8.398438 5s-3.601562-5-9-5c-5.398437 0-6.601562 5.101563-6.800781 5.101563s-1.699219-4.101563-6.300781-4.101563c-3.796875 0-4.597657 1.601563-4.597657 1.601563s.398438-1.300782 1-4.601563h8.699219v-4h-12l-2.5 12h4.300781s.898438-1.699219 3.398438-1.699219 3.800781 1.898438 3.800781 4c0 2.097657-1.5 4.5-3.800781 4.5s-3.699219-2.402343-3.699219-3.800781c-1.898437 0-4.5 0-4.5 0 0 1.199219 1 7 8.199219 7 5.902344 0 8-4.101562 8-4.601562 0 .402343 2 4.601562 6.800781 4.601562 5.601563 0 8.699219-4.601562 9-4.601562s3.300781 4.601562 8.398438 4.601562c5.101562 0 7.601562-4.300781 7.601562-8s-2.300781-8-7.601562-8zm3.601562 8c0 .898438-.398437 3.699219-3.601562 3.699219-2.898438 0-5.898438-3.597656-5.898438-3.699219 0 0 3-3.601562 5.898438-3.601562 3.101562 0 3.601562 2.703125 3.601562 3.601562zm-24 0c0-.898437.300781-3.601562 3.601563-3.601562 2.898437 0 5.898437 3.601562 6 3.601562 0 0-3.101563 3.699219-6 3.699219-3.203125 0-3.601563-2.800781-3.601563-3.699219z" fill="#455a64"/></svg>