<svg fill="#666" height="50" viewBox="0 0 48 48" width="50" xmlns="http://www.w3.org/2000/svg"><path d="m45 35c0 2.210938-1.789062 4-4 4h-34c-2.210937 0-4-1.789062-4-4v-22c0-2.210937 1.789063-4 4-4h34c2.210938 0 4 1.789063 4 4z" fill="#cfd8dc"/><path d="m10.667969 13c-2.089844 0-3.667969 1.324219-3.667969 3.617188v18.382812h6.484375c1.628906 0 3.515625-1.53125 3.515625-3.515625v-18.484375z" fill="#3f51b5"/><path d="m22.667969 13c-2.089844 0-3.667969 1.324219-3.667969 3.617188v18.382812h6.484375c1.628906 0 3.515625-1.53125 3.515625-3.515625v-18.484375z" fill="#e53935"/><path d="m34.667969 13c-2.089844 0-3.667969 1.324219-3.667969 3.617188v18.382812h6.484375c1.628906 0 3.515625-1.53125 3.515625-3.515625v-18.484375z" fill="#388e3c"/><g fill="#fafafa"><path d="m15.804688 24.453125c0 1.835938-2.367188 2.804688-4.101563 2.804688-1.882812 0-3.566406-1.121094-3.925781-2.546875h1.277344c.148437.867187 1.019531 1.476562 1.984375 1.476562 1.070312 0 1.835937-.765625 1.835937-1.734375v-3.308594h2.929688z"/><path d="m38.605469 24.039063c.761719 0 1.296875-.761719 1.296875-1.519532 0-.761718-.664063-1.421875-1.425781-1.421875h-6.261719v5.851563h6.390625c.863281 0 1.523437-.757813 1.523437-1.519531 0-.757813-.660156-1.390625-1.523437-1.390625zm-3.953125-2.332032h1.976562c.503907 0 .960938.453125.960938.957032 0 .511718-.457031.96875-.960938.96875h-1.976562zm2.027344 4.636719h-2.027344v-1.929687h2.027344c.507812 0 .964843.457031.964843.964843 0 .507813-.457031.964844-.964843.964844z"/><path d="m27.8125 22.175781c-1.167969-.269531-2.289062-.425781-2.847656-.425781-1.21875 0-2.179688 1.015625-2.179688 2.300781 0 1.292969.960938 2.3125 2.179688 2.3125.558594 0 1.679687-.105468 2.847656-.378906v1.019531h-4.875c-1.523437 0-2.792969-1.34375-2.792969-2.953125 0-1.605468 1.269532-2.945312 2.792969-2.945312h4.875z"/></g></svg>