<svg fill="#666" height="50" viewBox="0 0 48 48" width="50" xmlns="http://www.w3.org/2000/svg"><g fill="#455a64"><path d="m10 10h19v6h-19z"/><path d="m9 43h30v-2c0-1.101562-.898437-2-2-2h-26c-1.101562 0-2 .898438-2 2z"/><path d="m34.800781 16.398438-5-3.398438 5-3.398437 4.199219 2.597656 2-3.199219-6.300781-4-11.597656 8 11.597656 8 6.300781-4-2-3.199219z"/><path d="m16 11h-7l9 28h7z"/></g><g fill="#ffc107"><path d="m22.601563 30.898438c-.402344-.597657-1-.898438-1.703125-.898438h-1.898438c-.699219 0-1.300781.300781-1.699219.898438l-5.300781 8.101562h16zm-2.601563 5.101562c-1.101562 0-2-.898437-2-2 0-1.101562.898438-2 2-2 1.101563 0 2 .898438 2 2 0 1.101563-.898437 2-2 2z"/><path d="m13 7c-3.300781 0-6 2.699219-6 6s2.699219 6 6 6 6-2.699219 6-6-2.699219-6-6-6zm0 8c-1.101562 0-2-.898437-2-2 0-1.101562.898438-2 2-2 1.101563 0 2 .898438 2 2 0 1.101563-.898437 2-2 2z"/><path d="m30 18h-3c-1.101562 0-2-.898437-2-2v-6c0-1.101562.898438-2 2-2h3z"/></g></svg>