<svg fill="#666" height="50" viewBox="0 0 48 48" width="50" xmlns="http://www.w3.org/2000/svg"><path d="m11.144531 15 1.855469 13h22l1.855469-13z" fill="#ffc107"/><path d="m39 15v-2.5c0-.828125-.671875-1.5-1.5-1.5h-27c-.828125 0-1.5.671875-1.5 1.5v2.5z" fill="#795548"/><path d="m13.144531 29 1.855469 13h18l1.855469-13z" fill="#77574f"/><path d="m29 28c0 2.761719-2.238281 5-5 5s-5-2.238281-5-5 2.238281-5 5-5 5 2.238281 5 5z" fill="#77574f"/><g fill="#4e342e"><path d="m20 28c0-.730469.210938-1.410156.554688-2h-7.839844l.714844 5h7.949218c-.839843-.734375-1.378906-1.800781-1.378906-3z"/><path d="m27.445313 26c.34375.589844.554687 1.269531.554687 2 0 1.199219-.539062 2.265625-1.378906 3h7.949219l.714843-5z"/><path d="m36 6h-24l-1 5h26z"/></g><path d="m24 21c3.867188 0 7 3.132813 7 7 0 3.867188-3.132812 7-7 7-3.867187 0-7-3.132812-7-7 0-3.867187 3.132813-7 7-7m0-1c-4.410156 0-8 3.589844-8 8s3.589844 8 8 8 8-3.589844 8-8-3.589844-8-8-8z" fill="#5d4037"/><path d="m24 21c-3.867187 0-7 3.132813-7 7 0 3.867188 3.132813 7 7 7 3.867188 0 7-3.132812 7-7 0-3.867187-3.132812-7-7-7zm0 11c-2.210937 0-4-1.789062-4-4 0-2.210937 1.789063-4 4-4 2.210938 0 4 1.789063 4 4 0 2.210938-1.789062 4-4 4z" fill="#fff3e0"/></svg>