<svg fill="#666" height="50" viewBox="0 0 48 48" width="50" xmlns="http://www.w3.org/2000/svg"><path d="m8 25c0 11.933594 16 18 16 18s16-5.972656 16-18c0-4.945312 0-17 0-17-3.945312 0-16-3-16-3s-12.058594 3-16 3z" fill="#c5cae9"/><path d="m40 25c0 11.933594-16 18-16 18v-38s12.058594 3 16 3z" fill="#9fa8da"/><path d="m36 25c0 7.222656-8.554687 12.003906-12.003906 13.636719-3.433594-1.628906-11.996094-6.410156-11.996094-13.636719v-13.394531c4.191406-.636719 9.550781-1.890625 12-2.488281 2.449219.597656 7.8125 1.851562 12 2.488281z" fill="#f44336"/><path d="m36 25.03125c0 7.222656-8.554687 12-12.003906 13.636719l.003906-29.519531c2.449219.59375 7.8125 1.851562 12 2.488281z" fill="#e53935"/><g fill="#9fa8da"><path d="m11 11c0 .550781-.449219 1-1 1s-1-.449219-1-1 .449219-1 1-1 1 .449219 1 1z"/><path d="m18 9c0 .550781-.449219 1-1 1s-1-.449219-1-1 .449219-1 1-1 1 .449219 1 1z"/><path d="m25 7c0 .550781-.449219 1-1 1s-1-.449219-1-1 .449219-1 1-1 1 .449219 1 1z"/><path d="m11 17c0 .550781-.449219 1-1 1s-1-.449219-1-1 .449219-1 1-1 1 .449219 1 1z"/><path d="m11 23c0 .550781-.449219 1-1 1s-1-.449219-1-1 .449219-1 1-1 1 .449219 1 1z"/><path d="m12 29c0 .550781-.449219 1-1 1s-1-.449219-1-1 .449219-1 1-1 1 .449219 1 1z"/><path d="m15 34c0 .550781-.449219 1-1 1s-1-.449219-1-1 .449219-1 1-1 1 .449219 1 1z"/><path d="m20 38c0 .550781-.449219 1-1 1s-1-.449219-1-1 .449219-1 1-1 1 .449219 1 1z"/></g><g fill="#7986cb"><path d="m39 11c0 .550781-.449219 1-1 1s-1-.449219-1-1 .449219-1 1-1 1 .449219 1 1z"/><path d="m32 9c0 .550781-.449219 1-1 1s-1-.449219-1-1 .449219-1 1-1 1 .449219 1 1z"/><path d="m39 17c0 .550781-.449219 1-1 1s-1-.449219-1-1 .449219-1 1-1 1 .449219 1 1z"/><path d="m39 23c0 .550781-.449219 1-1 1s-1-.449219-1-1 .449219-1 1-1 1 .449219 1 1z"/><path d="m38 29c0 .550781-.449219 1-1 1s-1-.449219-1-1 .449219-1 1-1 1 .449219 1 1z"/><path d="m35 34c0 .550781-.449219 1-1 1s-1-.449219-1-1 .449219-1 1-1 1 .449219 1 1z"/><path d="m30 38c0 .550781-.449219 1-1 1s-1-.449219-1-1 .449219-1 1-1 1 .449219 1 1z"/></g><path d="m24 25.839844 12-8.160156v-4l-12 8.160156z" fill="#ffcdd2"/><path d="m24 21.839844-10.957031 7.449219c.484375.988281 1.097656 1.914062 1.816406 2.765625l9.136719-6.214844z" fill="#fff"/><path d="m20 17-2 2.5-2-2.5 2-2.5z" fill="#fff"/><path d="m32 29-2 2.5-2-2.5 2-2.5z" fill="#ffcdd2"/></svg>