<svg fill="#666" height="50" viewBox="0 0 48 48" width="50" xmlns="http://www.w3.org/2000/svg"><path d="m44 24c0 11.135-9.07 20-20 20-10.926 0-20-8.865-20-20s8.865-20 20-20 20 8.865 20 20" fill="#2196f3"/><g fill="#cddc39"><path d="m23.182 32.598c-1.229-.411-2.454-.411-3.477-1.434-.206-.407-.206-.818-.407-1.225-.411-.411-1.434-.613-2.047-.818h-4.09c-.616-.205-1.023-1.023-1.434-1.636 0-.205 0-.616-.407-.616-.411-.202-.818.205-1.229 0-.202-.202-.202-.407-.202-.613 0-.613.407-1.229.818-1.636.613-.411 1.225.205 1.838.205.205 0 .495-.323.7-.122.613.205.818 1.023.818 1.64v.407c0 .205.42.208.625.208.202-1.023.304-2.032.407-3.067.122-1.223.725-2.137 1.745-2.544.411-.205.616.205 1.023 0 1.229-.411 4.687-1.993 4.074-3.629-.411-1.434-1.676-2.837-3.312-2.635-.411.205-3.216 2.585-3.829 2.585-1.023-.205-1.023-1.636-.818-2.252.205-.818 2.043-3.477 3.272-3.067.206.206 2.137.651 2.75.651.205 0 .411 0 .613-.205.205-.206.205-.206.205-.411 0-.613-2.205-1.932-2.818-2.134-2.043-.616-5.456.052-7.092 1.487-.136.119-.287.241-.446.364-2.758 3.142-4.437 7.259-4.458 11.813.085.29.212.588.407.911.613 1.229 1.838 2.454 3.067 3.272.818.613 2.454.613 3.272 1.636.613.822.411 1.841.411 2.865 0 1.225.818 2.249 1.225 3.272.205.613.411 1.431.616 2.047 0 .202.202 1.431.202 1.636.019.059.039.11.059.167 1.048.584 2.156 1.07 3.315 1.438.101-.05.203-.102.309-.158.205 0 1.023-1.04 1.023-1.242.613-.616 1.023-1.434 1.636-1.841.407-.205.818-.411 1.225-.822.411-.407.616-1.225.818-1.838.205-.411.411-1.229.205-1.841.001-.411-.205-.613-.612-.818z"/><path d="m23.87 6.006c-.238.002-.469.024-.705.035-.491.083-.981.301-1.133.739-.204.976.609.78 1.421.976 0 0 .204 1.561.204 1.757.204.976-.408 1.561-.408 2.534 0 .588 0 1.564.408 1.953h.204c.204 0 .404-.196.813-.388.609-.392 1.221-.976 1.83-1.368.609-.388 1.217-.976 1.625-1.365.609-.392 1.017-1.172 1.221-1.757.2-.392.813-1.172.609-1.757-.204-.392-1.221-.584-1.625-.78-1.177-.283-2.247-.458-3.362-.536-.142-.007-.284-.017-.427-.021-.222-.011-.447-.019-.675-.022z"/><path d="m42 24c0-5.692-2.579-10.721-6.64-14.007-.138.034-.274.077-.407.136-.613.205-2.212 3.159-2.622 3.771-.205.205-.407.613-.205.818 0 .205.205.205.411.205.407.205.462.29.873.492.205 0 .407.205.205.411 0 0 0 .205-.205.205-1.023 1.023-2.047 1.841-3.067 2.861-.206.207-.343.618-.343.819 0 .205.137.205.137.411s-.205.205-.411.407c-.407.205-.818.411-1.023.616-.202.407 0 1.023-.202 1.431-.206 1.023-.822 1.841-1.229 2.865-.411.613-.778 1.225-1.189 1.841 0 .818-.205 1.431.205 2.043 1.023 1.434 3.072.062 4.503.674.407.205.757.243 1.023.613.508.705.57 2.191.776 2.807.202.818.407 1.636.818 2.454.205 1.023.613 2.047.818 2.861.01.013.021.021.032.034 4.656-3.238 7.742-8.613 7.742-14.768z"/></g></svg>