<svg fill="#666" height="50" viewBox="0 0 48 48" width="50" xmlns="http://www.w3.org/2000/svg"><path d="m40 45h-32v-42h22l10 10z" fill="#f44336"/><g fill="#ffebee"><path d="m38.5 14h-9.5v-9.5z"/><path d="m14.425781 23.046875 1.878907 7.199219 1.875-7.199219h2.625v9.953125h-2.019532v-2.691406l.1875-4.152344-1.992187 6.84375h-1.367188l-1.988281-6.84375.183594 4.148438v2.695312h-2.007813v-9.953125z"/><path d="m24.425781 29.5v3.5h-2.011718v-9.953125h3.394531c.980469 0 1.769531.304688 2.351562.917969.585938.609375.878907 1.402344.878907 2.378906 0 .972656-.289063 1.742188-.867188 2.308594s-1.382812.847656-2.40625.847656zm0-1.675781h1.382813c.382812 0 .679687-.125.886719-.375.210937-.25.316406-.613281.316406-1.09375 0-.496094-.109375-.890625-.324219-1.1875-.210937-.292969-.5-.441406-.859375-.445313h-1.402344z"/><path d="m37.148438 31.871094c-.390625.417969-.863282.734375-1.425782.949219-.5625.210937-1.179687.316406-1.851562.316406-1.144531 0-2.03125-.355469-2.664063-1.0625-.632812-.710938-.960937-1.738281-.980468-3.09375v-1.792969c0-1.371094.300781-2.425781.902343-3.167969.597657-.738281 1.472657-1.109375 2.617188-1.109375 1.082031 0 1.898437.265625 2.445312.800782.550782.53125.867188 1.367187.953125 2.507812h-1.953125c-.054687-.632812-.1875-1.066406-.398437-1.296875-.207031-.226562-.535156-.34375-.984375-.34375-.539063 0-.9375.199219-1.179688.59375-.246093.398438-.375 1.027344-.386718 1.894531v1.804688c0 .90625.136718 1.566406.40625 1.980469.273437.410156.71875.617187 1.339843.617187.394532 0 .714844-.078125.960938-.238281l.179687-.125v-1.824219h-1.40625v-1.515625h3.421875v4.105469z"/></g></svg>