<svg fill="#666" height="50" viewBox="0 0 48 48" width="50" xmlns="http://www.w3.org/2000/svg"><path d="m6 40v-32c0-1.101562.898438-2 2-2h12c1.101563 0 2 .898438 2 2v32c0 1.101563-.898437 2-2 2h-12c-1.101562 0-2-.898437-2-2z" fill="#3f51b5"/><path d="m18 34c0 2.210938-1.789062 4-4 4-2.210937 0-4-1.789062-4-4 0-2.210937 1.789063-4 4-4 2.210938 0 4 1.789063 4 4z" fill="#b0bec5"/><path d="m16.5 34c0 1.378906-1.121094 2.5-2.5 2.5s-2.5-1.121094-2.5-2.5 1.121094-2.5 2.5-2.5 2.5 1.121094 2.5 2.5z" fill="#0e1447"/><path d="m11 11h6v15h-6z" fill="#fff"/><path d="m26 40v-32c0-1.101562.898438-2 2-2h12c1.101563 0 2 .898438 2 2v32c0 1.101563-.898437 2-2 2h-12c-1.101562 0-2-.898437-2-2z" fill="#f44336"/><path d="m38 34c0 2.210938-1.789062 4-4 4-2.210937 0-4-1.789062-4-4 0-2.210937 1.789063-4 4-4 2.210938 0 4 1.789063 4 4z" fill="#b0bec5"/><path d="m36.5 34c0 1.378906-1.121094 2.5-2.5 2.5s-2.5-1.121094-2.5-2.5 1.121094-2.5 2.5-2.5 2.5 1.121094 2.5 2.5z" fill="#751212"/><path d="m31 11h6v15h-6z" fill="#fff"/></svg>