<svg fill="#666" height="50" viewBox="0 0 48 48" width="50" xmlns="http://www.w3.org/2000/svg"><path d="m14 26c0 2.210938-1.789062 4-4 4-2.210937 0-4-1.789062-4-4 0-2.210937 1.789063-4 4-4 2.210938 0 4 1.789063 4 4z" fill="#ffa726"/><path d="m42 26c0 2.210938-1.789062 4-4 4-2.210937 0-4-1.789062-4-4 0-2.210937 1.789063-4 4-4 2.210938 0 4 1.789063 4 4z" fill="#ffa726"/><path d="m39 19c0-12.699219-30-8.300781-30 0v10c0 8.300781 6.699219 15 15 15s15-6.699219 15-15c0-1.800781 0-8.199219 0-10z" fill="#ffb74d"/><path d="m24 3c-9.398437 0-17 7.601563-17 17v3.398438l2 1.601562v-3l21-9.800781 9 9.800781v3l2-1.601562s0-2.097657 0-3.398438c0-8-5.699219-17-17-17z" fill="#ff5722"/><path d="m33 26c0 1.105469-.894531 2-2 2s-2-.894531-2-2 .894531-2 2-2 2 .894531 2 2z" fill="#784719"/><path d="m19 26c0 1.105469-.894531 2-2 2s-2-.894531-2-2 .894531-2 2-2 2 .894531 2 2z" fill="#784719"/><path d="m43 24c-.601562 0-1 .398438-1 1v-7c0-8.800781-7.199219-16-16-16h-7c-.601562 0-1 .398438-1 1 0 .601563.398438 1 1 1h7c7.699219 0 14 6.300781 14 14v10c0 .601563.398438 1 1 1 .601563 0 1-.398437 1-1v2c0 3.898438-3.101562 7-7 7h-11c-.601562 0-1 .398438-1 1 0 .601563.398438 1 1 1h11c5 0 9-4 9-9v-5c0-.601562-.398437-1-1-1z" fill="#757575"/><g fill="#37474f"><path d="m43 22h-1c-1.101562 0-2 .898438-2 2v4c0 1.101563.898438 2 2 2h1c1.101563 0 2-.898437 2-2v-4c0-1.101562-.898437-2-2-2z"/><path d="m26 38c0 1.105469-.894531 2-2 2s-2-.894531-2-2 .894531-2 2-2 2 .894531 2 2z"/></g></svg>