<svg fill="#666" height="50" viewBox="0 0 48 48" width="50" xmlns="http://www.w3.org/2000/svg"><path d="m24.3 46.1-1.3-1.5s1-.9 1-2.6c0-.5-.4-1-.8-1.5-.5-.7-1.2-1.7-1.2-2.9 0-.8.2-1.5.5-2.2s.5-1.4.5-2.4h2c0 1.4-.4 2.4-.6 3.1-.2.5-.4 1-.4 1.5 0 .6.4 1.1.8 1.7.6.7 1.2 1.6 1.2 2.7 0 2.6-1.6 4-1.7 4.1z" fill="#b0bec5"/><path d="m26 34h-1l-1 1-1-1h-1l1-4h2z" fill="#c51162"/><path d="m30.1 2c-2.3 0-4.4.8-6.1 2.1-1.7-1.3-3.8-2.1-6.1-2.1-5.5 0-9.9 4.5-9.9 10 0 8 11 17 16 19 4.9-2 16-10.9 16-19 0-5.5-4.4-10-9.9-10z" fill="#ff4081"/><path d="m17.9 6c1.3 0 2.6.4 3.6 1.3l2.5 2 2.5-2c1-.9 3.2-1.3 4.5-1.3 3.6 0 3.5.3 5.7 1.6-1.4-2.2-3.9-3.6-6.6-3.6-1.8 0-3.4.6-4.9 1.7l-1.2 1-1.2-1c-1.4-1.1-3.1-1.7-4.9-1.7-4.4 0-7.9 3.6-7.9 8 0 3.1 2.1 6.5 4.8 9.5-1.7-2.4-2.8-5.5-2.8-9.5 0-3.3 2.6-6 5.9-6z" fill="#fce4ec"/></svg>