<svg fill="#666" height="50" viewBox="0 0 48 48" width="50" xmlns="http://www.w3.org/2000/svg"><path d="m44 24c0 11.045-8.955 20-20 20s-20-8.955-20-20 8.955-20 20-20 20 8.955 20 20z" fill="#b0bec5"/><path d="m40 24c0 8.838-7.162 16-16 16s-16-7.162-16-16 7.162-16 16-16 16 7.162 16 16z" fill="#455a64"/><path d="m24 11c-7.149 0-13 5.851-13 13s5.851 13 13 13 13-5.851 13-13-5.851-13-13-13zm-5.5 18c-1.398 0-2.5-.398-3.301-1.199-.801-.903-1.199-2.301-1.199-3.801 0-1 .199-2 .5-2.801.398-.699.898-1.301 1.602-1.699.699-.398 1.5-.602 2.398-.602 1.301 0 2.301.301 3.102.902 1 .801 1.297 1.699 1.297 3.098h-2.598c0-.598-.102-1-.402-1.199-.297-.301-.797-.398-1.398-.398s-1.103.199-1.399.699c-.301.5-.5 1-.5 2s.098 1.398.398 1.801c.301.398.801.699 1.5.699.602 0 1-.102 1.398-.398.301-.301.5-.602.5-1.102h2.602c0 .699-.5 4-4.5 4zm11 0c-1.398 0-2.5-.398-3.301-1.199-.801-.903-1.199-2.301-1.199-3.801 0-1 .199-2 .5-2.801.398-.699.898-1.301 1.602-1.699.699-.398 1.5-.602 2.398-.602 1.301 0 2.301.301 3.102.902 1 .801 1.297 1.5 1.297 3.098h-2.598c0-.598-.102-1-.402-1.199-.297-.301-.797-.398-1.398-.398s-1.103.199-1.399.699c-.301.5-.5 1-.5 2s.098 1.398.398 1.801c.301.398.801.699 1.5.699.602 0 1-.102 1.398-.398.301-.301.5-.602.5-1.102h2.602c0 1.301-.801 4-4.5 4z" fill="#fff"/></svg>