<svg fill="#666" height="50" viewBox="0 0 48 48" width="50" xmlns="http://www.w3.org/2000/svg"><path d="m23 44h2l3-3h-8" fill="#263238"/><path d="m26 42h-4c-2.199219 0-4-1.800781-4-4v-4h12v4c0 2.199219-1.800781 4-4 4z" fill="#9fa8da"/><path d="m30 38-11.601562 1.601563c.300781.699218.902343 1.398437 1.601562 1.796875l9.398438-1.296875c.402343-.601563.601562-1.300782.601562-2.101563z" fill="#5c6bc0"/><path d="m18 35.699219v2l12-1.699219v-2z" fill="#5c6bc0"/><path d="m18 34c-3-1.898437-9-8-9-15 0-8.300781 6.699219-15 15-15s15 6.699219 15 15c0 7-6 13.101563-9 15z" fill="#ffc107"/><path d="m30.601563 17.199219-3-2c-.300782-.199219-.800782-.199219-1.101563 0l-2.5 1.601562-2.398437-1.601562c-.300782-.199219-.800782-.199219-1.101563 0l-3 2c-.199219.199219-.398437.402344-.398437.699219 0 .300781 0 .601562.199218.800781l3.800782 4.699219v10.601562h2v-11c0-.199219-.101563-.398437-.203125-.601562l-3.296875-4.097657 1.5-1 2.398437 1.597657c.300781.203125.800781.203125 1.101563 0l2.398437-1.597657 1.5 1-3.300781 4.097657c-.097656.203125-.199219.402343-.199219.601562v11h2v-10.601562l3.800781-4.699219c.199219-.199219.300782-.5.199219-.800781-.101562-.296875-.199219-.597657-.398437-.699219z" fill="#fff176"/></svg>