<svg fill="#666" height="50" viewBox="0 0 48 48" width="50" xmlns="http://www.w3.org/2000/svg"><path d="m41 24c0 9.4-7.6 17-17 17s-17-7.6-17-17 7.6-17 17-17 17 7.6 17 17z" fill="#fff"/><g fill="#455a64"><path d="m21 41v-5.5c0-.3.2-.5.5-.5s.5.2.5.5v5.5h2v-6.5c0-.3.2-.5.5-.5s.5.2.5.5v6.5h2v-5.5c0-.3.2-.5.5-.5s.5.2.5.5v5.5h1.8c.2-.3.2-.6.2-1.1v-3.9c0-2.2-1.9-5.2-4.3-5.2h-2.5c-2.3 0-4.3 3.1-4.3 5.2v3.9c0 .4.1.8.2 1.1z"/><path d="m40.1 26.4s-1.3-.4-2.4-.4h-.1c-1.1 0-2.9.3-2.9.3-.1 0-.1 0-.1-.1s0-.1.1-.1 2-.3 3.1-.3 2.4.4 2.5.4.1.1.1.2c-.2-.1-.2 0-.3 0z"/><path d="m39.8 27.2s-1.4-.4-2.6-.4c-.9 0-3 .2-3.1.2s-.1 0-.1-.1 0-.1.1-.1 2.2-.2 3.1-.2c1.3 0 2.6.4 2.6.4.1 0 .1.1.1.2 0-.1 0 0-.1 0z"/><path d="m7.8 26.4c-.1 0-.1 0-.1-.1s0-.1.1-.2c.8-.2 2.4-.5 3.3-.5.8 0 3.5.2 3.6.2s.1.1.1.1c0 .1-.1.1-.1.1s-2.7-.2-3.5-.2c-1.1.2-2.6.4-3.4.6z"/><path d="m8.2 27.9s-.1 0-.1-.1 0-.1 0-.2c.1 0 1.4-.8 2.9-1 1.3-.2 4 .1 4.2.1.1 0 .1.1.1.1 0 .1-.1.1-.1.1s-2.8-.3-4.1-.1c-1.5.3-2.9 1.1-2.9 1.1z"/><path d="m14.2 23.5c0-4.4 4.6-8.5 10.3-8.5s10.3 4 10.3 8.5-3.3 7.5-10.3 7.5-10.3-3.1-10.3-7.5z"/><path d="m28.6 16.3s1.7-2.3 4.8-2.3c1.2 1.2.4 4.8 0 5.8z"/><path d="m20.4 16.3s-1.7-2.3-4.8-2.3c-1.2 1.2-.4 4.8 0 5.8z"/><path d="m20.1 35.9s-2.3 0-2.8 0c-1.2 0-2.3-.5-2.8-1.5-.6-1.1-1.1-2.3-2.6-3.3-.3-.2-.1-.4.4-.4.5.1 1.4.2 2.1 1.1s1.5 2 2.8 2 2.7 0 3.5-.9z"/></g><path d="m24 4c-11 0-20 9-20 20s9 20 20 20 20-9 20-20-9-20-20-20zm0 36c-8.8 0-16-7.2-16-16s7.2-16 16-16 16 7.2 16 16-7.2 16-16 16z" fill="#00bcd4"/></svg>