<svg fill="#666" height="50" viewBox="0 0 48 48" width="50" xmlns="http://www.w3.org/2000/svg"><path d="m4 9h40v30h-40z" fill="#e8eaf6"/><path d="m30 34h2.800781l-5-5-2.800781 2.800781 5 5z" fill="#5c6bc0"/><path d="m18 34h-2.800781l5-5 2.800781 2.800781-5 5z" fill="#5c6bc0"/><g fill="#9fa8da"><path d="m11 15h26v4h-26z"/><path d="m24 23c-2.800781 0-5 2.199219-5 5s2.199219 5 5 5 5-2.199219 5-5-2.199219-5-5-5zm0 8c-1.699219 0-3-1.300781-3-3s1.300781-3 3-3 3 1.300781 3 3-1.300781 3-3 3z"/><path d="m3 8v32h42v-32zm40 27c-1.699219 0-3 1.300781-3 3h-32c0-1.699219-1.300781-3-3-3v-22c1.699219 0 3-1.300781 3-3h32c0 1.699219 1.300781 3 3 3z"/></g></svg>