<svg fill="#666" height="50" viewBox="0 0 48 48" width="50" xmlns="http://www.w3.org/2000/svg"><path d="m38.5 44.601563-4-4 2.101563-2.101563 4 4c.597656.601563.597656 1.5 0 2.101563-.5.5-1.5.5-2.101563 0z" fill="#37474f"/><path d="m9.5 44.601563 4-4-2.101562-2.101563-4 4c-.597657.601563-.597657 1.5 0 2.101563.5.5 1.5.5 2.101562 0z" fill="#37474f"/><path d="m44 24c0 11.046875-8.953125 20-20 20s-20-8.953125-20-20 8.953125-20 20-20 20 8.953125 20 20z" fill="#c62828"/><path d="m40 24c0 8.835938-7.164062 16-16 16-8.835937 0-16-7.164062-16-16 0-8.835937 7.164063-16 16-16 8.835938 0 16 7.164063 16 16z" fill="#eee"/><path d="m15.097656 33.476563-.566406-.566407 9.191406-9.191406.566407.5625z" fill="#e53935"/><path d="m23 11h2v13h-2z"/><path d="m31.28125 29.652344-1.625 1.628906-6.507812-6.507812 1.628906-1.625z"/><path d="m26 24c0 1.105469-.894531 2-2 2s-2-.894531-2-2 .894531-2 2-2 2 .894531 2 2z"/><path d="m25 24c0 .550781-.449219 1-1 1s-1-.449219-1-1 .449219-1 1-1 1 .449219 1 1z" fill="#c62828"/><g fill="#37474f"><path d="m22 1h4v3h-4z"/><path d="m44.398438 16.199219c2.5-3.5 2.101562-8.398438-1-11.5-3.097657-3.097656-8-3.5-11.5-1z"/><path d="m3.601563 16.199219c-2.5-3.5-2.101563-8.398438 1-11.5 3.097656-3.097656 8-3.5 11.5-1z"/></g></svg>