<svg fill="#666" height="50" viewBox="0 0 48 48" width="50" xmlns="http://www.w3.org/2000/svg"><path d="m2 10h44v28h-44z" fill="#283593"/><path d="m13 28 .59375 1.890625 1.8125-.703125-1.074219 1.65625 1.667969 1.015625-1.929687.171875.265625 1.96875-1.335938-1.441406-1.335937 1.441406.265625-1.96875-1.929688-.171875 1.667969-1.015625-1.074219-1.65625 1.8125.707031zm21.5 3 .296875.945313.90625-.351563-.535156.828125.832031.507813-.964844.085937.132813.984375-.667969-.71875-.667969.71875.132813-.984375-.964844-.085937.832031-.507813-.535156-.828125.90625.351563zm-5.035156-9.015625.296875.945313.90625-.351563-.535156.828125.832031.507813-.964844.085937.132813.984375-.667969-.71875-.667969.71875.132813-.984375-.964844-.085937.835937-.507813-.539062-.828125.90625.351563zm5.035156-5.984375.296875.945313.90625-.351563-.535156.828125.832031.507813-.964844.085937.132813.984375-.667969-.71875-.667969.71875.132813-.984375-.964844-.085937.832031-.507813-.535156-.828125.90625.351563zm6 5 .296875.945313.90625-.351563-.535156.828125.832031.507813-.964844.085937.132813.984375-.667969-.71875-.667969.71875.132813-.984375-.964844-.085937.832031-.507813-.535156-.828125.90625.351563zm-3.5 4 .273438.707031.726562.058594-.554687.492188.171875.742187-.617188-.402344-.617187.402344.171875-.742187-.554688-.492188.726563-.058594zm-35-13.042969 9.460938 5.90625 1.421875-2.378906-8.789063-5.484375h-2.09375zm22-1.957031h-1.640625l-8.785156 5.484375 1.421875 2.378906 9.003906-5.625zm-9.003906 5.769531-1.421875 2.375 9.375 5.855469h1.050781v-2.609375zm-12.996094 5.90625v2.324219h1.503906l9.378907-5.855469-1.421875-2.375zm22-6.675781h-22v4h22zm-13-5v14h4v-14z" fill="#fff"/><path d="m8.898438 19h1.742187l-8.007812 5h-.632813v-.695312zm.589843-4-7.488281-4.675781v1.089844l5.746094 3.585937zm8.070313 4 6.441406 4.019531v-1.085937l-4.699219-2.933594zm5.671875-9-8.007813 5h1.746094l7.03125-4.390625v-.609375zm-9.230469 0h-2v6h-10v2h10v6h2v-6h10v-2h-10z" fill="#e53935"/></svg>