<svg fill="#666" height="50" viewBox="0 0 48 48" width="50" xmlns="http://www.w3.org/2000/svg"><path d="m40.976563 22.890625c-.148438 3.472656-1.007813 6.226563-2.574219 8.265625-1.5625 2.042969-3.667969 3.0625-6.3125 3.0625-1.164063 0-2.171875-.253906-3.019531-.753906-.847657-.5-1.484375-1.21875-1.921875-2.152344-1.355469 1.894531-3.125 2.84375-5.304688 2.84375-1.980469 0-3.511719-.832031-4.597656-2.5-1.082031-1.667969-1.488281-3.871094-1.21875-6.605469.242187-2.238281.8125-4.230468 1.699219-5.972656.886718-1.738281 2.007812-3.078125 3.363281-4.011719 1.355469-.9375 2.820312-1.40625 4.390625-1.40625 1.941406 0 3.59375.449219 4.960937 1.347657l1.28125.871093-1.035156 11.75c-.136719 1.070313-.015625 1.890625.355469 2.460938.371094.570312.964844.851562 1.777344.851562 1.25 0 2.292968-.726562 3.132812-2.183593.839844-1.457032 1.300781-3.363282 1.382813-5.726563.230468-4.730469-.722657-8.367187-2.855469-10.90625-2.136719-2.539062-5.296875-3.8125-9.484375-3.8125-2.617188 0-4.949219.664063-6.992188 1.992188-2.050781 1.332031-3.664062 3.21875-4.839843 5.664062-1.179688 2.445313-1.847657 5.25-1.996094 8.40625-.214844 4.800781.746094 8.511719 2.890625 11.132813 2.140625 2.621093 5.34375 3.933593 9.617187 3.933593 1.125 0 2.300782-.125 3.535157-.375 1.234375-.253906 2.300781-.589843 3.191406-1.007812l.773437 3.128906c-.828125.542969-1.941406.984375-3.347656 1.316406-1.398437.332032-2.8125.496094-4.234375.496094-3.582031 0-6.628906-.722656-9.152344-2.164062-2.519531-1.445313-4.402343-3.570313-5.640625-6.386719-1.238281-2.8125-1.777343-6.171875-1.617187-10.070313.164062-3.746093 1.015625-7.097656 2.5625-10.066406 1.542969-2.96875 3.648437-5.261719 6.3125-6.878906 2.664062-1.621094 5.667969-2.433594 9.015625-2.433594 3.402344 0 6.332031.730469 8.785156 2.1875 2.453125 1.453125 4.289063 3.539063 5.507813 6.25 1.222656 2.710938 1.757812 5.863281 1.609375 9.453125zm-20.433594 2.15625c-.152344 1.789063.007812 3.148438.46875 4.074219.457031.929687 1.203125 1.398437 2.234375 1.398437.664062 0 1.292969-.292968 1.890625-.878906.597656-.582031 1.09375-1.421875 1.484375-2.519531l.855469-9.617188c-.527344-.175781-1.074219-.265625-1.628907-.265625-1.558593 0-2.769531.664063-3.628906 1.992188s-1.417969 3.269531-1.675781 5.816406z" fill="#2196f3"/></svg>