<svg fill="#666" height="50" viewBox="0 0 48 48" width="50" xmlns="http://www.w3.org/2000/svg"><path d="m33.375 30-14.375-14.375 10.628906-10.625 14.371094 14.371094z" fill="#ffcc80"/><path d="m19 15.625-3.828125 3.835938c-.222656.21875-.285156.554687-.160156.839843 1.28125 2.921875 2.257812 6.625 1.617187 7.265625-1.429687 1.433594-2.847656 2.019532-4.214843 2.585938-1.125.464844-2.1875.90625-3.050782 1.769531-2.914062 2.914063-4.574218 7.746094-2.300781 10.019531.691406.691407 1.6875 1.058594 2.878906 1.058594 2.300782 0 5.101563-1.316406 7.144532-3.355469.945312-.949218 1.648437-2.421875 2.324218-3.84375.621094-1.308593 1.261719-2.660156 2.027344-3.421875.183594-.1875.5625-.289062 1.085938-.289062 2.3125 0 6.105468 1.867187 6.144531 1.886719.292969.144531.644531.089843.875-.140625l3.828125-3.835938zm-7.71875 24.101563c-1.105469 0-2-.898438-2-2 0-1.105469.894531-2 2-2s2 .894531 2 2c0 1.101562-.894531 2-2 2z" fill="#ff5722"/><path d="m44 19.371094-14.371094-14.371094-5.007812 5.007813c.007812.007812.011719.015625.019531.023437-.03125.023438-.070312.035156-.097656.0625-1.121094 1.125-1.652344 2.851563-.324219 4.179688.003906.003906.007813.007812.015625.011718.125.128907.265625.226563.410156.308594.015625.007813.03125.015625.046875.023438.875.476562 1.96875.222656 2.789063-.113282.023437-.011718.050781-.023437.074219-.03125.171875-.074218.328125-.148437.46875-.21875l.09375-.046875c.222656-.117187.394531-.222656.488281-.28125 1.710937-1.09375 2.449219-1.066406 2.519531-1.027343.023438.054687.039063.140625.035156.265625-.019531.386718-.222656 1.171875-.886718 2.746093l-.058594.136719c-.097656.226563-.167969.441406-.222656.648438-.371094 1.433593.226562 2.324218.652343 2.753906.804688.808594 1.929688.523437 2.832032.296875.808593-.203125 1.355468-.316406 1.625-.050781.082031.082031.128906.195312.152343.332031.066407.402344-.089843 1-.230468 1.546875-.238282.902344-.488282 1.835937.152343 2.476562.105469.105469.21875.195313.335938.269532.0625.042968.125.070312.1875.101562.054687.027344.105469.058594.160156.082031.089844.035157.183594.0625.277344.085938.023437.007812.054687.015625.082031.019531.101563.027344.210938.039063.320313.050781h.023437.003906c.0625.003907.125.015625.1875.015625 1.515625 0 3.160157-1.207031 3.425782-1.472656.105468-.101562.160156-.234375.191406-.371094l.328125-.15625z" fill="#ff9800"/><path d="m31.28125 32.09375-14.371094-14.375 2.808594-2.808594 14.371094 14.375z" fill="#dd2c00"/></svg>