<svg fill="#666" height="50" viewBox="0 0 48 48" width="50" xmlns="http://www.w3.org/2000/svg"><path d="m24 40-5-9v-6h10v6z" fill="#ff9800"/><path d="m17 19c0 1.105469-.894531 2-2 2s-2-.894531-2-2 .894531-2 2-2 2 .894531 2 2" fill="#ffa726"/><path d="m35 19c0 1.105469-.894531 2-2 2s-2-.894531-2-2 .894531-2 2-2 2 .894531 2 2" fill="#ffa726"/><path d="m33 13c0-7.636719-18-4.972656-18 0v7c0 4.972656 4.027344 9 9 9s9-4.027344 9-9z" fill="#ffb74d"/><path d="m27 19c0 .550781.449219 1 1 1s1-.449219 1-1-.449219-1-1-1-1 .449219-1 1" fill="#784719"/><path d="m19 19c0 .550781.449219 1 1 1s1-.449219 1-1-.449219-1-1-1-1 .449219-1 1" fill="#784719"/><path d="m24 4c-6.074219 0-10 4.925781-10 11v2.285156l2 1.714844v-5l12-4 4 4v5l2-1.742187v-2.257813c0-4.023437-1.039062-8.015625-6-9l-1-2z" fill="#424242"/><path d="m29 31-5 9-5-9s-11 1.984375-11 13h32c0-10.976562-11-13-11-13z" fill="#b3e5fc"/><path d="m34 15s-5-1-10-1-10 1-10 1c0-4 1-10 1-10s2.375-2 9.25-2 8.75 2 8.75 2 1 6 1 10z" fill="#b3e5fc"/><g fill="#f44336"><path d="m23 6h2v6h-2z"/><path d="m21 8h6v2h-6z"/></g></svg>