<svg fill="#666" height="50" viewBox="0 0 48 48" width="50" xmlns="http://www.w3.org/2000/svg"><path d="m8 39h6v3h-6z" fill="#455a64"/><path d="m40 41h-32c-2.210937 0-4-1.789062-4-4v-26c0-2.210937 1.789063-4 4-4h32c2.210938 0 4 1.789063 4 4v26c0 2.210938-1.789062 4-4 4z" fill="#78909c"/><path d="m40 38h-32c-.550781 0-1-.449219-1-1v-26c0-.550781.449219-1 1-1h32c.550781 0 1 .449219 1 1v26c0 .550781-.449219 1-1 1z" fill="#90a4ae"/><path d="m29 14c-5.523437 0-10 4.476563-10 10 0 5.523438 4.476563 10 10 10 5.523438 0 10-4.476562 10-10 0-5.523437-4.476562-10-10-10zm0 17c-3.867187 0-7-3.132812-7-7 0-3.867187 3.132813-7 7-7 3.867188 0 7 3.132813 7 7 0 3.867188-3.132812 7-7 7z" fill="#37474f"/><g fill="#b0bec5"><path d="m35.3125 19.101563.40625-.40625c.390625-.390625.390625-1.019532 0-1.414063-.394531-.390625-1.023437-.390625-1.414062 0l-.40625.40625c.53125.410156 1.003906.882813 1.414062 1.414063z"/><path d="m22.6875 19.101563c.410156-.53125.882813-1.003907 1.414063-1.414063l-.40625-.40625c-.390625-.390625-1.019532-.390625-1.414063 0-.390625.394531-.390625 1.023438 0 1.414063z"/><path d="m21 24c0-.339844.027344-.671875.070313-1h-.570313c-.550781 0-1 .449219-1 1s.449219 1 1 1h.570313c-.042969-.328125-.070313-.660156-.070313-1z"/><path d="m29 16c.339844 0 .671875.027344 1 .070313v-.570313c0-.550781-.449219-1-1-1s-1 .449219-1 1v.570313c.328125-.042969.660156-.070313 1-.070313z"/><path d="m35.3125 28.898438c-.410156.53125-.882812 1.003906-1.414062 1.414062l.40625.40625c.191406.191406.449218.292969.707031.292969.253906 0 .511719-.101563.707031-.292969.390625-.394531.390625-1.023437 0-1.414062z"/><path d="m22.6875 28.898438-.40625.40625c-.390625.390625-.390625 1.019531 0 1.414062.195313.191406.453125.292969.707031.292969.257813 0 .515625-.101563.707032-.292969l.40625-.40625c-.53125-.410156-1.003907-.882812-1.414063-1.414062z"/><path d="m37.5 23h-.570312c.042968.328125.070312.660156.070312 1s-.027344.671875-.070312 1h.570312c.550781 0 1-.449219 1-1s-.449219-1-1-1z"/><path d="m29 32c-.339844 0-.671875-.027344-1-.070312v.570312c0 .550781.449219 1 1 1s1-.449219 1-1v-.570312c-.328125.042968-.660156.070312-1 .070312z"/></g><path d="m12 20c-1.105469 0-2 .894531-2 2v8c0 1.105469.894531 2 2 2s2-.894531 2-2v-8c0-1.105469-.894531-2-2-2z" fill="#455a64"/><path d="m12 18c-1.105469 0-2 .894531-2 2v8c0 1.105469.894531 2 2 2s2-.894531 2-2v-8c0-1.105469-.894531-2-2-2z" fill="#cfd8dc"/><path d="m48 38c0 5.523438-4.476562 10-10 10-5.523437 0-10-4.476562-10-10 0-5.523437 4.476563-10 10-10 5.523438 0 10 4.476563 10 10z" fill="#43a047"/><path d="m42.492188 33.347656-5.691407 5.703125-2.726562-2.722656-2.125 2.128906 4.855469 4.84375 7.816406-7.828125z" fill="#dcedc8"/></svg>