<svg fill="#666" height="50" viewBox="0 0 48 48" width="50" xmlns="http://www.w3.org/2000/svg"><path d="m43.90625 20.023438c3.722656 1.113281 2.417969 7.625-3.90625 5.394531-2.976562-.929688-4.464844-4.28125-5.953125-6.136719-1.304687-1.679687-3.160156-3.167969-6.324219-3.167969-2.980468 0-5.582031 2.421875-5.582031 5.769532 0 6.324218 8.183594 8.933593 15.070313 8.933593 8.929687 0 10.789062-3.351562 10.789062-6.328125 0-2.234375-1.488281-4.652343-4.09375-4.464843z" fill="#795548"/><path d="m4.09375 20.023438c-3.722656 1.113281-2.417969 7.625 3.90625 5.394531 2.976563-.929688 4.464844-4.28125 5.953125-6.136719 1.300781-1.679687 3.160156-3.167969 6.324219-3.167969 2.976562 0 5.582031 2.421875 5.582031 5.769532 0 6.324218-8.183594 8.933593-15.070312 8.933593-8.929688 0-10.789063-3.351562-10.789063-6.328125 0-2.234375 1.488281-4.652343 4.09375-4.464843z" fill="#795548"/><path d="m44.1875 20.011719c-.09375 0-.183594.003906-.28125.011719 1.703125.511718 2.34375 2.148437 1.945313 3.5625.394531 1.210937.144531 2.855468-2.019532 4.15625-1.289062.621093-3.347656 1.074218-6.621093 1.074218-4.019532 0-9.609375-1.210937-12.019532-4.058593-.742187-.871094-1.191406-1.894532-1.191406-3.089844 0 1.195312-.449219 2.21875-1.191406 3.089844-2.410156 2.847656-8 4.058593-12.019531 4.058593-3.277344 0-5.332032-.453125-6.621094-1.074218-2.164063-1.300782-2.414063-2.945313-2.019531-4.15625-.398438-1.414063.242187-3.050782 1.945312-3.5625-.097656-.007813-.191406-.011719-.28125-.011719-2.429687 0-3.8125 2.324219-3.8125 4.476562 0 2.976563 1.859375 6.328125 10.789063 6.328125 4.882812 0 10.402343-1.320312 13.210937-4.339843 2.808594 3.019531 8.328125 4.339843 13.210938 4.339843 8.929687 0 10.789062-3.351562 10.789062-6.328125 0-2.152343-1.382812-4.476562-3.8125-4.476562z" fill="#4e342e"/></svg>