<svg fill="#666" height="50" viewBox="0 0 48 48" width="50" xmlns="http://www.w3.org/2000/svg"><path d="m25 21h-2c0-7.4 4.1-7.7 7.4-7.9 3.2-.3 5.6-.5 5.6-6.1h2c0 7.5-4.1 7.8-7.4 8-3.3.3-5.6.5-5.6 6z" fill="#546e7a"/><path d="m2 21h44v20h-44z" fill="#8cbcd6"/><g fill="#e1f5fe"><path d="m4 23h4v4h-4z"/><path d="m10 23h4v4h-4z"/><path d="m16 23h4v4h-4z"/><path d="m22 23h4v4h-4z"/><path d="m28 23h4v4h-4z"/><path d="m34 23h4v4h-4z"/><path d="m40 23h4v4h-4z"/><path d="m4 35h4v4h-4z"/><path d="m10 35h4v4h-4z"/><path d="m16 35h16v4h-16z"/><path d="m34 35h4v4h-4z"/><path d="m40 35h4v4h-4z"/><path d="m4 29h7v4h-7z"/><path d="m13 29h4v4h-4z"/><path d="m19 29h4v4h-4z"/><path d="m25 29h4v4h-4z"/><path d="m31 29h4v4h-4z"/><path d="m37 29h7v4h-7z"/></g></svg>