<svg fill="#666" height="50" viewBox="0 0 48 48" width="50" xmlns="http://www.w3.org/2000/svg"><path d="m31.199219 10.601563-6.597656 2.296875-1.402344-4.296875c-.597656-1.800782.300781-3.800782 2.199219-4.402344 1.800781-.597656 3.800781.300781 4.402343 2.199219zm-2 16 6.601562-2.300782-2.300781-7.101562-6.601562 2.300781zm3.402344 10.199218c.5 1.398438 1.898437 2.398438 3.296875 2.398438.402343 0 .800781-.097656 1.101562-.199219 1.800781-.601562 2.800781-2.601562 2.199219-4.398437l-1.199219-3.601563-6.601562 2.300781z" fill="#ffb300"/><path d="m17.199219 15.5-6.597656 2.300781-1.402344-4.199218c-.597656-1.800782.300781-3.800782 2.199219-4.402344 1.800781-.597656 3.800781.300781 4.402343 2.199219zm1.402344 26.300781c.5 1.398438 1.898437 2.398438 3.296875 2.398438.402343 0 .800781-.097656 1.101562-.199219 1.800781-.601562 2.800781-2.601562 2.199219-4.398437l-1.199219-3.703125-6.601562 2.300781zm.796875-19.601562-6.597657 2.300781 2.300782 7.101563 6.597656-2.300782z" fill="#00bfa5"/><path d="m33.398438 17.300781-2.199219-6.601562 4.101562-1.398438c1.800782-.601562 3.800782.300782 4.398438 2.199219.601562 1.800781-.300781 3.800781-2.199219 4.398438zm-6.597657 2.300782-2.199218-6.601563-7.402344 2.601563 2.199219 6.597656zm-20.402343-.300782c-1.796875.597657-2.796875 2.597657-2.199219 4.398438.5 1.5 1.902344 2.402344 3.300781 2.402344.398438 0 .800781-.101563 1.101563-.203125l4.097656-1.398438-2.199219-6.601562z" fill="#00bcd4"/><path d="m15.101563 31.5 2.199218 6.601563-4.699218 1.597656c-.402344.101562-.800782.199219-1.101563.199219-1.5 0-2.800781-.898438-3.300781-2.398438-.597656-1.800781.300781-3.800781 2.199219-4.398437zm28.597656-6.199219c-.597656-1.800781-2.597656-2.800781-4.398438-2.199218l-3.5 1.199218 2.199219 6.699219 3.601563-1.199219c1.796875-.699218 2.796875-2.699218 2.097656-4.5zm-22 3.898438 2.199219 6.601562 7.402343-2.601562-2.199218-6.597656z" fill="#e91e63"/><path d="m33.398438 17.300781-2.199219-6.699218-6.597656 2.296875 2.199218 6.703125z" fill="#388e3c"/><path d="m17.199219 15.5-6.597656 2.300781 2.199218 6.699219 6.597657-2.300781z" fill="#00897b"/><path d="m29.199219 26.601563 2.199219 6.699218 6.601562-2.300781-2.199219-6.699219z" fill="#bf360c"/><path d="m15.101563 31.5 2.199218 6.699219 6.597657-2.300781-2.199219-6.699219z" fill="#4e342e"/></svg>