<svg fill="#666" height="50" viewBox="0 0 48 48" width="50" xmlns="http://www.w3.org/2000/svg"><g fill="#8bc34a"><path d="m24 25c-.6 0-1-.5-1-1 0-.1.1-5.6-3.3-7.7-.5-.3-.6-.9-.3-1.4s.9-.6 1.4-.3c4.4 2.8 4.3 9.2 4.3 9.5-.1.5-.6.9-1.1.9z"/><path d="m20.2 7c-4.8-2.4-12.3.3-14.2 1 2.8 1.7 2.4 10.9 7.5 12.6 3.6 1.2 6.4-.2 6.7-5.2 4-2.3 3.4-6.7 0-8.4z"/><path d="m24 28c-.6 0-1-.4-1-1v-3c0-7.8 5.8-9 5.8-9 .5-.1 1.1.3 1.2.8s-.3 1.1-.8 1.2c-.2 0-4.2.9-4.2 7v3c0 .6-.4 1-1 1z"/><path d="m30.2 8.3c4.4-1.4 10.4 2.7 11.8 3.7-2.6 1-4.3 9.3-8.9 9.9-3.2.4-4.9-1.3-4.1-5.9-3.6-2.8-1.9-6.8 1.2-7.7z"/></g><path d="m13.5 20.6c-5.1-1.7-4.7-10.9-7.5-12.6 2.5.2 6.1 2.4 14.2 7.4-.3 5-3 6.4-6.7 5.2z" fill="#689f38"/><path d="m33.2 21.9c4.5-.6 6.2-8.9 8.9-9.9-2.1-.3-5.4.9-13 4-1.7 4.5.8 6.4 4.1 5.9z" fill="#689f38"/><path d="m13 27 3 15h16l3-15z" fill="#e64a19"/><path d="m35 30h-22c-.6 0-1-.5-1-1v-4h24v4c0 .5-.5 1-1 1z" fill="#bf360c"/></svg>