<svg fill="#666" height="50" viewBox="0 0 48 48" width="50" xmlns="http://www.w3.org/2000/svg"><path d="m38 19-3-6-3 6z" fill="#8e24aa"/><path d="m16 19-3-6-3 6z" fill="#8e24aa"/><path d="m18 15h12v9h-12z" fill="#ce93d8"/><path d="m32 19h6v5h-6z" fill="#ce93d8"/><path d="m10 19h6v5h-6z" fill="#ce93d8"/><path d="m37 18v6h-26v-6h-6v25h38v-25z" fill="#e1bee7"/><g fill="#9c27b0"><path d="m33 43h-18c0-9 9-12 9-12s9 3 9 12z"/><path d="m43 18-3-6-3 6z"/><path d="m30 15-6-10-6 10z"/><path d="m11 18-3-6-3 6z"/></g><g fill="#8e24aa"><path d="m37 29-1.5-1-1.5 1v5h3z"/><path d="m14 29-1.5-1-1.5 1v5h3z"/><path d="m27 20-3-2-3 2v4h6z"/></g></svg>