<svg fill="#666" height="50" viewBox="0 0 48 48" width="50" xmlns="http://www.w3.org/2000/svg"><path d="m24 4c-7.699219 0-14 6.300781-14 14s14 26 14 26 14-18.300781 14-26-6.300781-14-14-14z" fill="#9c27b0"/><path d="m21 18c0-1.699219 1.300781-3 3-3s3 1.300781 3 3-1.300781 3-3 3-3-1.300781-3-3zm7.898438-4.898437c2.703125 2.699218 2.703125 7.199218 0 9.898437-.199219.199219-.398438.398438-.597657.5l1.898438 2.300781c.300781-.199218.601562-.5.800781-.699218 3.898438-3.902344 3.898438-10.203125 0-14.101563-.300781-.300781-.5-.5-.800781-.699219l-1.898438 2.300782c.300782.097656.5.296875.597657.5zm-9.796875 9.796875c-1.402344-1.296875-2.101563-3-2.101563-4.898438 0-1.898437.699219-3.601562 2.101563-4.898437.199218-.203125.398437-.402344.597656-.5l-1.898438-2.300782c-.300781.199219-.601562.5-.800781.699219-3.898437 3.898438-3.898437 10.199219 0 14.101563.300781.296875.5.5.800781.699218l1.898438-2.300781c-.300781-.199219-.5-.398437-.597656-.601562z" fill="#f3e5f5"/></svg>