<svg fill="#666" height="50" viewBox="0 0 48 48" width="50" xmlns="http://www.w3.org/2000/svg"><path d="m40 45h-32v-42h22l10 10z" fill="#4db6ac"/><path d="m38.5 14h-9.5v-9.5z" fill="#e0f2f1"/><path d="m16 33.953125h-2v-4.257812h-3v4.257812h-1.980469v-9.953125h1.980469v4.027344h3v-4.027344h2zm7-9.953125h-6v1.675781h2v8.277344h2v-8.277344h2zm1.035156 0v9.953125h1.964844v-6.84375l1.851563 6.84375h1.367187l1.78125-6.84375v6.84375h2v-9.953125h-2.585937l-1.875 7.199219-1.878907-7.199219zm11.964844 0h-2v9.953125h5v-1.667969h-3z" fill="#00695c"/></svg>