<svg fill="#666" height="50" viewBox="0 0 48 48" width="50" xmlns="http://www.w3.org/2000/svg"><path d="m44 24c0 11.044-8.956 20-20 20s-20-8.956-20-20 8.956-20 20-20 20 8.956 20 20z" fill="#3f51b5"/><path d="m27 27h-5c0 4 2 4.465 4.621 4.465 1.047 0 1.992-.148 2.84-.453l.539 3.562c-1.234.281-2.512.426-3.828.426-2.621 0-4.699-.695-6.23-2.086-1.532-1.387-1.864-3.441-1.942-5.914h-3v-2h3v-2h-3v-2h3c.172-2.473.602-4.578 2.184-5.945 1.578-1.371 3.675-2.055 6.289-2.055 1.047 0 2.223.152 3.527.457l-.539 3.578c-.938-.313-1.859-.473-2.766-.473-2.82.001-4.695 1.438-4.636 4.438h4.941v2h-5v2h5z" fill="#ffd600"/></svg>