<svg fill="#666" height="50" viewBox="0 0 48 48" width="50" xmlns="http://www.w3.org/2000/svg"><path d="m40 42h-32v-21.101562l16-11.699219 16 11.300781z" fill="#8bc34a"/><path d="m42 25-18-12-18 12v-7l18-12 18 12z" fill="#2e7d32"/><path d="m22.398438 26.300781c.101562.199219.203125.398438.402343.597657.199219.203125.398438.402343.699219.5.300781.203125.699219.300781 1.101563.5.699218.300781 1.398437.601562 2 .902343.597656.300782 1.097656.699219 1.5 1.097657.398437.402343.796875.902343 1 1.402343.199218.5.398437 1.199219.398437 1.898438s-.101562 1.300781-.300781 1.800781-.5 1-.898438 1.398438c-.402343.402343-.902343.703125-1.402343.902343-.597657.199219-1.199219.398438-1.796875.5v2.199219h-1.800782v-2.199219c-.601562-.101562-1.199218-.199218-1.800781-.402343-.601562-.199219-1.101562-.5-1.5-1-.5-.398438-.800781-1-1.101562-1.597657-.296875-.601562-.398438-1.402343-.398438-2.300781h3.300781c0 .5.097657 1 .199219 1.300781.101563.398438.300781.597657.601563.898438.199218.199219.5.402344.796875.402344.300781.097656.601562.097656.902343.097656.398438 0 .699219 0 .898438-.097656.300781-.101563.5-.203125.699219-.402344.203125-.199219.300781-.398438.402343-.597656.097657-.203125.097657-.5.097657-.800782 0-.300781 0-.601562-.097657-.800781-.101562-.199219-.199218-.5-.402343-.699219-.199219-.199218-.398438-.402343-.699219-.5-.300781-.199218-.699219-.300781-1.097656-.5-.703125-.300781-1.402344-.601562-2-.902343-.601563-.296875-1.101563-.699219-1.5-1.097657-.402344-.402343-.800782-.902343-1-1.402343-.203125-.5-.402344-1.199219-.402344-1.898438 0-.601562.101562-1.199219.300781-1.699219s.5-1 .898438-1.402343c.402343-.398438.902343-.699219 1.402343-1 .5-.296875 1.199219-.398438 1.800782-.5v-2.398438h1.796875v2.5c.601562.101563 1.203125.300781 1.800781.601563.5.296875 1 .597656 1.300781 1.097656.398438.402344.699219 1 .898438 1.601562.203125.597657.300781 1.300782.300781 2h-3.300781c0-.902343-.199219-1.601562-.597657-2-.402343-.402343-.902343-.699218-1.5-.699218-.300781 0-.601562.097656-.902343.199218-.199219.097657-.398438.199219-.597657.398438-.199218.199219-.300781.402344-.300781.601562-.101562.199219-.101562.5-.101562.800782-.199219.199218-.097657.5 0 .699218" fill="#fff"/></svg>