<svg fill="#666" height="50" viewBox="0 0 48 48" width="50" xmlns="http://www.w3.org/2000/svg"><path d="m44 24c0 11.044-8.956 20-20 20s-20-8.956-20-20 8.956-20 20-20 20 8.956 20 20z" fill="#607d8b"/><g fill="#ffeb3b"><path d="m30.118 23.985h10.882c0-6.348-3.4-11.674-8.5-14.848l-5.552 9.408c1.926 1.358 3.17 3.288 3.17 5.44z"/><path d="m21.052 18.659-5.552-9.407c-5.1 2.833-8.5 8.5-8.5 14.733h10.882c0-2.152 1.244-4.082 3.17-5.326z"/><path d="m24 30.103c-1.248 0-2.152-.226-2.948-.677l-5.552 9.407c2.382 1.47 5.326 2.152 8.5 2.152s6.118-.682 8.5-2.152l-5.552-9.408c-.796.452-1.7.678-2.948.678z"/><path d="m27 24c0 1.656-1.344 3-3 3s-3-1.344-3-3 1.344-3 3-3 3 1.344 3 3z"/></g></svg>