<svg fill="#666" height="50" viewBox="0 0 48 48" width="50" xmlns="http://www.w3.org/2000/svg"><path d="m42 38h-25v-33h17l8 8z" fill="#42a5f5"/><path d="m40.5 14h-7.5v-7.5z" fill="#e1f5fe"/><g fill="#1565c0"><path d="m22 19h16v2h-16z"/><path d="m22 23h12v2h-12z"/><path d="m22 27h16v2h-16z"/><path d="m22 31h12v2h-12z"/></g><path d="m31 43h-25v-33h17l8 8z" fill="#90caf9"/><path d="m29.5 19h-7.5v-7.5z" fill="#e1f5fe"/><g fill="#1976d2"><path d="m11 24h15v2h-15z"/><path d="m11 28h11v2h-11z"/><path d="m11 32h15v2h-15z"/><path d="m11 36h11v2h-11z"/></g></svg>