<svg fill="#666" height="50" viewBox="0 0 48 48" width="50" xmlns="http://www.w3.org/2000/svg"><path d="m40 12h-18l-4-4h-10c-2.199219 0-4 1.800781-4 4v8h40v-4c0-2.199219-1.800781-4-4-4z" fill="#ffa000"/><path d="m40 12h-32c-2.199219 0-4 1.800781-4 4v20c0 2.199219 1.800781 4 4 4h32c2.199219 0 4-1.800781 4-4v-20c0-2.199219-1.800781-4-4-4z" fill="#ffca28"/><g fill="#bf360c"><path d="m22 18h4v2h-4z"/><path d="m22 12h4v2h-4z"/><path d="m22 15h4v2h-4z"/><path d="m22 21h4v2h-4z"/><path d="m26 24h-4c0 3-2 6-2 8 0 2.199219 1.800781 4 4 4s4-1.800781 4-4c0-2-2-5-2-8zm-2 10c-1.101562 0-2-.898437-2-2 0-1.101562.898438-2 2-2 1.101563 0 2 .898438 2 2 0 1.101563-.898437 2-2 2z"/></g></svg>