<svg fill="#666" height="50" viewBox="0 0 48 48" width="50" xmlns="http://www.w3.org/2000/svg"><path d="m32 19.5c0 4.51-3.13 8.28-7.35 9.25-.69.17-1.41.25-2.15.25-3.99 0-7.41-2.46-8.81-5.95-.21-.51-2.12-5.13-4.09-9.92-.05-.11-.43-1.05-.83-2.02 1.69-1.78 3.76-3.29 6.12-4.46 3.32-1.65 7.2-2.61 11.35-2.65.79 1.76 1.61 3.58 1.72 3.81 1.67 3.78 3.24 7.49 3.7 9.15.22.81.34 1.66.34 2.54z" fill="#e69329"/><circle cx="31.5" cy="31.5" fill="#90a4ae" r="12.5"/><circle cx="31.5" cy="31.5" fill="#546e7a" r="10.5"/><path d="m27.488 31.518.739-6.518h7.188v2.123h-5.1l-.317 2.757c.604-.323 1.247-.485 1.929-.485 1.221 0 2.179.379 2.871 1.136.693.758 1.04 1.818 1.04 3.18 0 .828-.175 1.569-.524 2.224-.35.655-.85 1.163-1.502 1.524-.652.36-1.421.541-2.307.541-.775 0-1.494-.157-2.158-.471-.664-.315-1.187-.757-1.572-1.326s-.59-1.218-.612-1.947h2.519c.052.534.239.949.56 1.247.32.296.738.444 1.254.444.576 0 1.018-.207 1.33-.621.312-.415.467-1 .467-1.758 0-.728-.18-1.286-.537-1.673s-.867-.581-1.523-.581c-.604 0-1.095.158-1.471.476l-.247.229z" fill="#90a4ae"/><path d="m24.65 28.75c-.13.16-.28.32-.43.47-3.71 3.71-9.73 3.71-13.44 0-1.32-1.32-3.94-4-6.77-6.9.04-4.23 1.81-8.12 4.76-11.21 1.69-1.78 3.76-3.29 6.12-4.46l2.57 2.51s6.23 6.09 6.76 6.62c3.56 3.56 3.7 9.24.43 12.97z" fill="#ffb74d"/><path d="m21.392 18.609c-.302-.302-1.47-1.447-3.374-3.31-.297-.291-.75-.379-1.124-.197-.767.371-2.16 1.201-3.878 2.919s-2.549 3.111-2.921 3.879c-.182.375-.097.825.195 1.123.431.44.841.859 1.224 1.248.856.872 1.577 1.602 2.096 2.12 2.148 2.147 5.64 2.145 7.784.001.062-.062.115-.116.161-.173l.09-.105c1.897-2.169 1.788-5.465-.253-7.505z" fill="#ffe0b2"/></svg>