<svg fill="#666" height="50" viewBox="0 0 48 48" width="50" xmlns="http://www.w3.org/2000/svg"><path d="m26.054688 13-14.882813 14.855469c-1.5625 1.558594-1.5625 4.085937 0 5.648437l10.34375 10.324219c1.5625 1.5625 4.09375 1.5625 5.65625 0l14.828125-14.855469v-11.980468c0-2.203125-1.738281-3.992188-3.945312-3.992188zm9.945312 8c-1.105469 0-2-.894531-2-2s.894531-2 2-2 2 .894531 2 2-.894531 2-2 2" fill="#dd2c00"/><path d="m22.027344 4-14.859375 14.855469c-1.558594 1.558594-1.558594 4.085937 0 5.648437l10.328125 10.324219c1.558594 1.5625 4.089844 1.5625 5.644531 0l14.859375-14.851562v-11.984375c0-2.207032-1.789062-3.992188-3.992187-3.992188zm10 7.957031c-1.105469 0-2-.894531-2-1.992187 0-1.101563.894531-1.992188 2-1.992188 1.101562 0 2 .890625 2 1.992188 0 1.101562-.914063 2.007812-2.019531 2.007812" fill="#ff5722"/></svg>