<svg fill="#666" height="50" viewBox="0 0 48 48" width="50" xmlns="http://www.w3.org/2000/svg"><path d="m5.5 40.5h37c1.933594 0 3.5-1.566406 3.5-3.5v-26c0-1.933594-1.566406-3.5-3.5-3.5h-37c-1.933594 0-3.5 1.566406-3.5 3.5v26c0 1.933594 1.566406 3.5 3.5 3.5z" fill="#e0e0e0"/><path d="m26 40.5h16.5c1.933594 0 3.5-1.566406 3.5-3.5v-26c0-1.933594-1.566406-3.5-3.5-3.5h-37c-1.933594 0-3.5 1.566406-3.5 3.5z" fill="#d9d9d9"/><path d="m6.746094 40.5h35.753906c1.933594 0 3.5-1.566406 3.5-3.5v-25.5z" fill="#eee"/><path d="m25.746094 40.5h16.753906c1.933594 0 3.5-1.566406 3.5-3.5v-25.5l-27.230469 20.117188z" fill="#e0e0e0"/><path d="m42.5 9.5h-37c-1.933594 0-3.5-.433594-3.5 1.5v26c0 1.933594 1.566406 3.5 3.5 3.5h1.5v-28.5h34v28.5h1.5c1.933594 0 3.5-1.566406 3.5-3.5v-26c0-1.933594-1.566406-1.5-3.5-1.5z" fill="#ca3737"/><path d="m42.5 7.5h-37c-1.933594 0-3.5 1.535156-3.5 3.5 0 1.207031 1.519531 2.257813 1.519531 2.257813l20.480469 14.5 20.480469-14.5s1.519531-1.050782 1.519531-2.257813c0-1.964844-1.566406-3.5-3.5-3.5z" fill="#f5f5f5"/><path d="m43.246094 7.582031-19.246094 13.417969-19.246094-13.417969c-1.574218.335938-2.753906 1.714844-2.753906 3.417969 0 1.207031 1.519531 2.257813 1.519531 2.257813l20.480469 14.5 20.480469-14.5s1.519531-1.050782 1.519531-2.257813c0-1.703125-1.179687-3.082031-2.753906-3.417969z" fill="#e84f4b"/></svg>