<svg fill="#666" height="50" viewBox="0 0 48 48" width="50" xmlns="http://www.w3.org/2000/svg"><g fill="#ffd54f"><path d="m31.273438 11.273438c0 4.015625-7.273438 12.726562-7.273438 12.726562s-7.273437-8.710937-7.273437-12.726562 3.257812-7.273438 7.273437-7.273438 7.273438 3.257813 7.273438 7.273438z"/><path d="m14.144531 13.148438c3.820313 1.242187 9.855469 10.851562 9.855469 10.851562s-10.53125 4.226563-14.351562 2.984375c-3.820313-1.242187-5.910157-5.34375-4.667969-9.164062 1.238281-3.820313 5.34375-5.910157 9.164062-4.671875z"/><path d="m10.636719 30.023438c2.359375-3.25 13.363281-6.023438 13.363281-6.023438s.765625 11.320313-1.597656 14.570313c-2.359375 3.25-6.910156 3.96875-10.160156 1.609375s-3.96875-6.910157-1.605469-10.15625z"/><path d="m25.597656 38.570313c-2.363281-3.25-1.597656-14.570313-1.597656-14.570313s11.003906 2.773438 13.363281 6.023438c2.363282 3.25 1.644532 7.796875-1.605468 10.15625s-7.800782 1.640625-10.160157-1.609375z"/><path d="m38.351563 26.984375c-3.820313 1.242188-14.351563-2.984375-14.351563-2.984375s6.035156-9.609375 9.855469-10.851562c3.820312-1.238282 7.925781.851562 9.164062 4.671875 1.242188 3.820312-.847656 7.921875-4.667968 9.164062z"/></g><g fill="#ffca28"><path d="m20 11.273438c0 6.160156 4 12.726562 4 12.726562s-7.273437-8.710937-7.273437-12.726562 3.257812-7.273438 7.273437-7.273438c0 0-4 1.628906-4 7.273438z"/><path d="m10.660156 23.871094c5.859375 1.902344 13.339844.128906 13.339844.128906s-10.53125 4.226563-14.351562 2.984375c-3.820313-1.242187-5.910157-5.34375-4.667969-9.164062 0 0 .308594 4.308593 5.679687 6.050781z"/><path d="m19.753906 36.648438c3.621094-4.984375 4.246094-12.648438 4.246094-12.648438s.765625 11.320313-1.597656 14.570313c-2.359375 3.25-6.910156 3.96875-10.160156 1.609375 0 0 4.195312 1.035156 7.511718-3.53125z"/><path d="m34.71875 31.945313c-3.621094-4.984375-10.71875-7.945313-10.71875-7.945313s11.003906 2.773438 13.363281 6.023438c2.363282 3.25 1.644532 7.796875-1.605468 10.15625 0 0 2.277343-3.667969-1.039063-8.234375z"/><path d="m34.867188 16.261719c-5.859375 1.90625-10.867188 7.738281-10.867188 7.738281s6.035156-9.609375 9.855469-10.851562c3.820312-1.238282 7.925781.851562 9.164062 4.671875 0 0-2.78125-3.300782-8.152343-1.558594z"/></g><path d="m26.273438 15.996094c0 1.257812-2.273438 8.003906-2.273438 8.003906s-2.273437-6.746094-2.273437-8.003906c0-1.253906 1.019531-2.273438 2.273437-2.273438s2.273438 1.019532 2.273438 2.273438z" fill="#e91e63"/><path d="m17.089844 19.363281c1.195312.390625 6.910156 4.636719 6.910156 4.636719s-7.121094.074219-8.3125-.3125c-1.195312-.386719-1.847656-1.667969-1.460937-2.863281.386718-1.191406 1.671875-1.847656 2.863281-1.460938z" fill="#e91e63"/><path d="m17.457031 29.140625c.738282-1.019531 6.542969-5.140625 6.542969-5.140625s-2.128906 6.796875-2.867187 7.8125c-.738282 1.015625-2.15625 1.238281-3.171875.5s-1.242188-2.160156-.503907-3.171875z" fill="#e91e63"/><path d="m26.867188 31.8125c-.738282-1.015625-2.867188-7.8125-2.867188-7.8125s5.804688 4.121094 6.542969 5.140625c.738281 1.015625.511719 2.433594-.503906 3.171875s-2.4375.511719-3.171875-.5z" fill="#e91e63"/><path d="m32.3125 23.6875c-1.191406.386719-8.3125.3125-8.3125.3125s5.714844-4.246094 6.910156-4.636719c1.191407-.386718 2.476563.265625 2.863282 1.460938.386718 1.195312-.265625 2.476562-1.460938 2.863281z" fill="#e91e63"/></svg>