<svg fill="#666" height="50" viewBox="0 0 48 48" width="50" xmlns="http://www.w3.org/2000/svg"><path d="m40 45h-32v-42h22l10 10z" fill="#ff5722"/><path d="m38.5 14h-9.5v-9.5z" fill="#fbe9e7"/><g fill="#ffebee"><path d="m15.808594 29.5v3.5h-2.007813v-9.953125h3.390625c.984375 0 1.769532.304688 2.355469.917969.585938.609375.878906 1.402344.878906 2.378906 0 .972656-.292968 1.742188-.871093 2.308594s-1.378907.847656-2.40625.847656zm0-1.675781h1.382812c.382813 0 .679688-.125.886719-.375.210938-.25.316406-.613281.316406-1.09375 0-.496094-.109375-.890625-.320312-1.1875-.214844-.292969-.503906-.441406-.863281-.445313h-1.402344z"/><path d="m21.765625 33v-9.953125h2.628906c1.164063 0 2.089844.367188 2.78125 1.105469.6875.738281 1.042969 1.75 1.054688 3.035156v1.613281c0 1.308594-.34375 2.335938-1.035156 3.082032-.691407.746093-1.640625 1.117187-2.855469 1.117187zm2.007813-8.277344v6.609375h.601562c.671875 0 1.140625-.175781 1.414063-.53125.273437-.351562.417968-.960937.433593-1.828125v-1.726562c0-.929688-.132812-1.578125-.390625-1.945313-.261718-.367187-.703125-.558593-1.328125-.578125z"/><path d="m34.808594 28.9375h-3.125v4.0625h-2.011719v-9.953125h5.511719v1.675781h-3.5v2.550782h3.125z"/></g></svg>