<svg fill="#666" height="50" viewBox="0 0 50 50" width="50" xmlns="http://www.w3.org/2000/svg"><path d="m10 0c-5.511719 0-10 4.488281-10 10v30c0 5.511719 4.488281 10 10 10h30c5.511719 0 10-4.488281 10-10v-30c0-5.511719-4.488281-10-10-10zm0 2h30c4.433594 0 8 3.566406 8 8v30c0 4.433594-3.566406 8-8 8h-30c-4.433594 0-8-3.566406-8-8v-30c0-4.433594 3.566406-8 8-8zm10.5 6c-.777344 0-1.4375.660156-1.4375 1.4375 0 2.820313-1.480469 4.761719-3.03125 6.09375-.773437.664063-1.5625 1.148438-2.15625 1.46875-.296875.160156-.515625.296875-.6875.375s-.382812.140625-.25.09375c-.011719 0-.019531 0-.03125 0-.546875.214844-.90625.757813-.90625 1.34375v3.78125c0 .777344.691406 1.40625 1.4375 1.40625h2.5625v9.65625c0 .558594.058594 2.996094 1.15625 5.4375s3.464844 4.90625 7.59375 4.90625c6.515625 0 9.554688-2.515625 9.75-2.6875h.03125c.304688-.269531.46875-.652344.46875-1.0625v-4.5c0-.519531-.296875-1-.75-1.25-.445312-.25-.992187-.253906-1.4375.03125.117188-.074219-.003906 0-.0625.03125s-.167969.097656-.28125.15625c-.226562.117188-.53125.28125-.9375.4375-.8125.3125-1.9375.59375-3.09375.59375-1.289062 0-1.738281-.476562-2.0625-1.03125-.160156-.277344-.257812-.570312-.3125-.8125-.054687-.242187-.0625-.496094-.0625-.40625v-9.5h5.5625c.824219 0 1.4375-.660156 1.4375-1.4375v-5.125c0-.777344-.621094-1.4375-1.4375-1.4375h-5.5625v-6.5625c0-.777344-.660156-1.4375-1.4375-1.4375zm.5 2h3v7c0 .550781.449219 1 1 1h6v4h-6c-.550781 0-1 .449219-1 1v10.5c0 .214844.035156.449219.125.84375s.234375.867188.53125 1.375c.589844 1.015625 1.863281 2.03125 3.78125 2.03125 1.5 0 2.84375-.375 3.8125-.75.3125-.121094.519531-.203125.75-.3125v3.21875c-.242187.207031-2.511719 2.09375-8.25 2.09375-3.386719 0-4.886719-1.730469-5.78125-3.71875s-.96875-4.226562-.96875-4.625v-10.65625c0-.550781-.449219-1-1-1h-3v-2.8125c.210938-.09375.5-.25.84375-.4375.6875-.371094 1.585938-.90625 2.5-1.6875 1.71875-1.476562 3.457031-3.847656 3.65625-7.0625z"/></svg>