<svg fill="#666" height="50" viewBox="0 0 50 50" width="50" xmlns="http://www.w3.org/2000/svg"><path d="m25 2c-12.690705 0-23 10.309295-23 23s10.309295 23 23 23 23-10.309295 23-23-10.309295-23-23-23zm0 2c11.609824 0 21 9.390176 21 21s-9.390176 21-21 21-21-9.390176-21-21 9.390176-21 21-21zm.570312 7c-7.645 0-12.570312 5.419438-12.570312 10.648438 0 5.102 2.824016 6.299578 3.416016 6.642578.591.346 1.010578.102812 1.142578-.367188l.355468-1.425781s.164891-.378438-.162109-.773438c-.403-.486-1.273437-1.371171-1.273437-3.576171 0-3.932 3.104421-8.214844 8.732422-8.214844 5.524 0 7.416015 3.597218 7.416015 6.574218 0 3.702-1.773578 9.236329-5.517578 9.236329-2.325 0-2.994141-1.793875-2.994141-2.671875-.015-.297.053032-.596282.082032-.738282.029-.141.97439-3.151609 1.27539-4.224609.676-2.405.097719-4.40625-2.113281-4.40625-3.117 0-4.239094 4.387359-2.871094 7.193359l-2.224609 9.107422s-.307188 1.491094-.367188 2.371094c-.092 1.351.100016 3.349312.166016 3.945312.048.432001.049094.638735.246094.677735.197.038.531734-.295313.802734-.695313.34-.504 1.496797-2.136781 1.966797-3.175781.419-.927.493734-.950797.927734-2.591797.434-1.642 1.019532-3.949218 1.019532-3.949218s1.220578 2.136718 4.517578 2.136718c4.689 0 9.457031-4.082797 9.457031-11.716797 0-6.188-5.360687-10.005859-11.429688-10.005859z"/></svg>