<svg fill="#666" height="50" viewBox="0 0 50 50" width="50" xmlns="http://www.w3.org/2000/svg"><path d="m25.984375 1.984375c-.550781.011719-.992187.464844-.984375 1.015625 0 3.054688-1.167969 3.964844-2.660156 5.304688-1.492188 1.335937-3.324219 3.105468-3.324219 6.695312-.003906.359375.183594.695313.496094.878906.3125.179688.695312.179688 1.007812 0 .3125-.183593.5-.519531.496094-.878906 0-2.984375 1.160156-3.863281 2.660156-5.207031s3.324219-3.144531 3.324219-6.792969c.003906-.269531-.101562-.53125-.292969-.722656-.191406-.191406-.453125-.296875-.722656-.292969zm5.007813 5c-.550782.011719-.992188.464844-.984375 1.015625 0 1.953125-.671875 2.417969-1.667969 3.304688-.996094.886718-2.339844 2.207031-2.339844 4.695312-.003906.359375.183594.695313.496094.878906.3125.179688.695312.179688 1.007812 0 .3125-.183593.5-.519531.496094-.878906 0-1.875.660156-2.304687 1.667969-3.203125 1.007812-.894531 2.339844-2.25 2.339844-4.796875.003906-.269531-.101563-.53125-.292969-.722656s-.453125-.296875-.722656-.292969zm-19.992188 12.015625c-.550781 0-1 .449219-1 1v13c0 3.273438 1.589844 6.175781 4.027344 8h-7.027344c-.550781 0-1 .449219-1 1 0 1.773438 1.019531 3.28125 2.347656 4.324219 1.328125 1.039062 3 1.675781 4.652344 1.675781h22c1.652344 0 3.324219-.636719 4.652344-1.675781 1.328125-1.042969 2.347656-2.550781 2.347656-4.324219 0-.550781-.449219-1-1-1h-7.027344c2.199219-1.648437 3.707032-4.167969 3.980469-7.046875 2.203125-.21875 3.816406-1.210937 4.746094-2.707031 1.027344-1.664063 1.273437-3.777344 1.285156-6.074219.003906-.007812.003906-.015625.003906-.023437.007813-.050782.011719-.097657.011719-.148438 0-1.644531-1.355469-3-3-3h-3v-2c0-.550781-.449219-1-1-1zm1 2h24v11.832031c-.015625.097657-.019531.195313-.003906.292969-.070313 4.371094-3.609375 7.875-7.996094 7.875h-8c-4.429687 0-8-3.570312-8-8zm26 3h3c.566406 0 1 .433594 1 1 0 2.214844-.289062 4.042969-1 5.191406-.597656.960938-1.441406 1.570313-3 1.746094zm-29.710937 19h31.421875c-.253907.632813-.648438 1.242188-1.292969 1.75-.980469.765625-2.308594 1.25-3.417969 1.25h-22c-1.109375 0-2.4375-.484375-3.417969-1.25-.644531-.507812-1.039062-1.117187-1.292968-1.75z"/></svg>