<svg fill="#666" height="50" viewBox="0 0 50 50" width="50" xmlns="http://www.w3.org/2000/svg"><path d="m11 3c-2.75 0-5 2.25-5 5v9.6875c-.058594.195313-.058594.398438 0 .59375v14.40625c-.058594.195313-.058594.398438 0 .59375v9.71875c0 2.75 2.25 5 5 5h28c2.75 0 5-2.25 5-5v-9.8125c.027344-.132812.027344-.273437 0-.40625v-14.59375c.027344-.132812.027344-.273437 0-.40625v-9.78125c0-2.75-2.25-5-5-5zm0 2h28c1.667969 0 3 1.332031 3 3v9h-34v-9c0-1.667969 1.332031-3 3-3zm8.90625 3.96875c-.042969.007813-.085937.019531-.125.03125-.464844.105469-.792969.523438-.78125 1 0 .667969.148438 1.390625.65625 2 .507813.609375 1.371094 1 2.34375 1h6c.964844 0 1.804688-.363281 2.3125-.96875.507813-.605469.6875-1.359375.6875-2.03125.003906-.359375-.183594-.695312-.496094-.878906-.3125-.179688-.695312-.179688-1.007812 0-.3125.183594-.5.519531-.496094.878906 0 .328125-.097656.574219-.21875.71875s-.265625.28125-.78125.28125h-6c-.527344 0-.664062-.109375-.78125-.25-.117187-.140625-.21875-.417969-.21875-.75.011719-.289062-.105469-.566406-.3125-.761719-.210937-.199218-.496094-.296875-.78125-.269531zm-11.90625 10.03125h34v13h-34zm11.90625 5.96875c-.042969.007813-.085937.019531-.125.03125-.464844.105469-.792969.523438-.78125 1 0 .667969.148438 1.390625.65625 2 .507813.609375 1.371094 1 2.34375 1h6c.964844 0 1.804688-.363281 2.3125-.96875.507813-.605469.6875-1.359375.6875-2.03125.003906-.359375-.183594-.695312-.496094-.878906-.3125-.179688-.695312-.179688-1.007812 0-.3125.183594-.5.519531-.496094.878906 0 .328125-.097656.574219-.21875.71875s-.265625.28125-.78125.28125h-6c-.527344 0-.664062-.109375-.78125-.25-.117187-.140625-.21875-.417969-.21875-.75.011719-.289062-.105469-.566406-.3125-.761719-.210937-.199218-.496094-.296875-.78125-.269531zm-11.90625 9.03125h34v9c0 1.667969-1.332031 3-3 3h-28c-1.667969 0-3-1.332031-3-3zm11.90625 4.96875c-.042969.007813-.085937.019531-.125.03125-.464844.105469-.792969.523438-.78125 1 0 .667969.148438 1.390625.65625 2 .507813.609375 1.371094 1 2.34375 1h6c.964844 0 1.804688-.363281 2.3125-.96875.507813-.605469.6875-1.359375.6875-2.03125.003906-.359375-.183594-.695312-.496094-.878906-.3125-.179688-.695312-.179688-1.007812 0-.3125.183594-.5.519531-.496094.878906 0 .328125-.097656.574219-.21875.71875s-.265625.28125-.78125.28125h-6c-.527344 0-.664062-.109375-.78125-.25-.117187-.140625-.21875-.417969-.21875-.75.011719-.289062-.105469-.566406-.3125-.761719-.210937-.199218-.496094-.296875-.78125-.269531z"/></svg>