<svg fill="#666" height="50" viewBox="0 0 50 50" width="50" xmlns="http://www.w3.org/2000/svg"><path d="m28.597656.0078125c-.121093.0039063-.242187.0195313-.367187.0429688-.71875.1406247-1.199219.5273437-1.550781.8789067-.199219-.074219-.1875-.132813-.457032-.164063-.386718-.050781-.878906-.019531-1.347656.226563-.472656.246093-.875.691406-1.136719 1.257812h.003907c-.269532.597656-.316407 1.238281-.164063 1.765625.136719.460938.410156.773438.671875 1.042969-.222656.222656-.460937.449219-.609375.820312-.183594.46875-.191406 1.097657.0625 1.640625.476563 1.027344 1.515625 1.402344 2.25 1.433594.011719.132813 0 .246094.050781.398438.105469.328125.375.78125.875.964843.449219.167969.714844.066407 1.023438.027344.015625.109375-.011719.191406.035156.316406.128906.359375.46875.761719.90625.933594.789063.308594 1.304688.011719 1.703125-.199219.28125.363282.609375.878907.8125 1.570313.339844 1.179687.320313 2.742187-1.511719 4.800781-1.835937-1.519531-3.824218-2.558594-5.613281-3.125-1.097656-.34375-2.121094-.519531-3.03125-.496094-.914062.027344-1.777344.230469-2.375.917969-3.707031 4.257813-8.425781 11.9375-12.09375 18.800781-1.835937 3.433594-3.402344 6.648438-4.429687 9.136719-.515625 1.242188-.898438 2.300781-1.113282 3.152344-.109375.425781-.179687.796875-.191406 1.164062-.007812.371094-.019531.8125.414063 1.25h.003906c.335937.335938.703125.402344 1.011719.425782.304687.023437.597656-.003907.921875-.058594.65625-.109375 1.433593-.335938 2.367187-.671875 1.871094-.671875 4.359375-1.789063 7.3125-3.316406 5.910156-3.054688 13.671875-7.746094 21.820313-13.738282.039062-.027343.078125-.058593.117187-.097656.625-.625.835938-1.484375.859375-2.402344.023438-.914062-.148437-1.933593-.496094-3.023437-.652343-2.066406-1.949218-4.375-3.898437-6.433594 2.421875-1.738281 4.148437-1.585937 5.425781-1.078125.882813.355469 1.421875.832031 1.78125 1.203125-.214844.40625-.558594.949219-.234375 1.78125.171875.4375.574219.777344.933594.90625.125.046875.207031.019531.316406.035156-.039062.308594-.140625.574219.027344 1.019532.183594.5.636719.773437.960937.878906.15625.050781.269532.039062.402344.050781.03125.734375.410156 1.773438 1.433594 2.25.542969.253906 1.171875.242188 1.640625.058594.371094-.148438.597656-.382813.820312-.605469.269532.261719.582032.535156 1.042969.671875.527344.152344 1.167969.105469 1.765625-.164062.566406-.261719 1.011719-.660157 1.257813-1.132813.246093-.472656.277343-.960937.226562-1.347656-.03125-.269531-.089844-.257813-.167969-.457031.355469-.351563.742188-.832032.882813-1.550782.199219-1.003906-.308594-1.871093-.789063-2.300781-.070312-.066406-.074218-.042969-.148437-.09375.109375-.5625.089844-1.277344-.492188-1.957031-.539062-.636719-1.089843-.628906-1.535156-.640625-.171875-.570313-.589844-1.265625-1.398437-1.699219-1.105469-.597656-1.980469-.34375-2.617188-.015625.316406-.523437.375-1.101562.359375-1.636719.359375.089844.714844.191407 1.140625.15625.574219-.046875 1.226563-.300781 1.695313-.824218.445312-.496094.605468-1.183594.53125-1.730469-.027344-.191406-.132813-.300781-.191407-.464844.113282-.019531.203125.015625.324219-.019531.503906-.15625 1.03125-.550781 1.316406-1.121094.300782-.597656.347657-1.257812.195313-1.792969-.152344-.535156-.453125-.9375-.746094-1.238281-.09375-.09375-.105469-.058594-.195312-.136719.101562-.121093.128906-.082031.222656-.230468.238281-.390625.445312-.90625.425781-1.507813-.019531-.605469-.296875-1.25-.796875-1.789062-.535156-.578125-1.1875-.921875-1.832031-.96875s-1.199219.1875-1.601563.460937c-.15625.101563-.109375.136719-.238281.25-.566406-.523437-1.644531-.929687-2.753906-.476562-.636719.257812-1.085938.828125-1.257813 1.363281-.101562.320312-.054687.59375-.050781.882812-.152344-.042968-.261719-.117187-.433594-.136718-.484375-.054688-1.078125.035156-1.578125.382812-.5625.394531-.84375 1.046875-.894531 1.597656-.027344.242188.050781.429688.078125.644532-.125-.011719-.207031-.078125-.339844-.074219-.5.019531-1.035156.21875-1.503906.578125v-.003906c.375-.664063.722656-1.613282.078125-2.8125-.433594-.808594-1.128906-1.230469-1.703125-1.398438-.007812-.445312 0-.996094-.636719-1.539062-.683593-.578125-1.398437-.597657-1.957031-.488282-.054687-.074218-.027344-.078125-.09375-.152343-.378906-.414063-1.089844-.8593755-1.933594-.8281255zm.019532 2.0078125c.261718-.054687.289062.007813.433593.164063.144532.160156.21875.34375.21875.34375.101563.269531.3125.484375.582032.585937.269531.101563.570312.085938.824218-.050781 0 0 .304688-.097656.492188-.089844.023437.0625.0625.160156.066406.28125.015625.273438-.015625.53125-.015625.53125-.035156.3125.078125.625.308594.84375.230469.214844.550781.3125.863281.257813 0 0 .074219-.015625.246094.027343.167969.042969.332031.09375.523437.449219.285157.527344-.316406 1.375-.316406 1.375-.179687.214844-.261719.492188-.226562.769531.035156.277344.1875.527344.414062.6875 0 0 .539063.371094.675781 1.214844.023438.136719.074219.269531.148438.382813-.027344.597656-.042969 1.214843-.167969 1.921875-.0625.371093-.164062.769531-.300781 1.191406-.035156-.167969-.0625-.335938-.105469-.492188-.554687-1.917968-1.890625-3.050781-1.890625-3.050781-.363281-.3125-.890625-.328125-1.265625-.039062 0 0-.113281.070312-.164062.105468.074218-.34375-.039063-.699218-.292969-.941406-.257813-.238281-.621094-.328125-.960938-.230469 0 0-.265625.074219-.582031.128907-.125.023437-.105469.027343-.21875.023437.015625-.175781.046875-.378906.046875-.378906.078125-.359375-.046875-.730469-.324219-.972656-.277343-.238282-.667968-.308594-1.007812-.179688 0 0-.285156.097656-.574219.09375-.289062-.003906-.382812.023438-.53125-.296875-.039062-.082031-.027344-.019531-.015625-.054687.015625-.039063.089844-.148438.21875-.261719.261719-.222656.625-.390625.625-.390625.382813-.160156.625-.535156.613281-.949219-.007812-.414062-.273437-.777344-.660156-.914062 0 0-.359375-.148438-.59375-.367188-.121094-.105469-.183594-.207031-.203125-.28125-.023437-.074219-.042969-.140625.0625-.371094.113281-.253906.195313-.292968.234375-.316406.035156-.019531.085938-.027344.1875-.015625.199219.023438.449219.164063.449219.164063.25.167968.5625.214843.851562.125.289063-.089844.519532-.300782.632813-.582032 0 0 .046875-.3125.699219-.441406zm13.414062 1.726563c.085938.027343.125.097656.210938.179687.167968.171875.273437.421875.273437.421875.125.367188.457031.632813.84375.671875.386719.039063.765625-.152344.964844-.484375 0 0 .292969-.441406.605469-.652344.15625-.105468.265625-.132812.347656-.128906.082031.007813.222656.027344.507812.335938.242188.257812.257813.386718.261719.492187s-.035156.238281-.132812.398438c-.195313.324218-.566407.597656-.566407.597656-.300781.203125-.46875.550781-.4375.914062.027344.359375.253907.675782.582032.824219 0 0 .394531.199219.671875.480469.140625.140625.222656.285156.25.378906.027343.09375.042968.152344-.054688.351563-.050781.101562-.042969.082031-.125.109375-.085937.027343-.277344.039062-.496094.007812-.429687-.0625-.863281-.261719-.863281-.261719-.453125-.222656-1.003906-.066406-1.277344.359375-.273437.429688-.183593.992188.210938 1.3125 0 0 .410156.351563.679687.757813.136719.199219.210938.398437.226563.488281.011719.085938.035156.042969-.042969.125-.105469.121094-.179687.152344-.363281.167969-.1875.011719-.472656-.027344-.753906-.121094-.566407-.183594-1.058594-.511719-1.058594-.511719-.386719-.257812-.898438-.21875-1.238281.09375-.34375.3125-.421875.820313-.195313 1.226563 0 0 .199219.371094.296875.828125.09375.453125.074219.773437-.175781 1.011719-.453125.429687-.671875.46875-1.148438.476562-.472656.011719-1.191406-.117187-2.144531-.125-.925781-.007812-2.058594.164063-3.40625.683594.597656-1.125 1.015625-2.195313 1.171875-3.09375.183594-1.03125.175781-1.890625.210938-2.464844.035156-.574219.113281-.71875.132812-.738281.199219-.179688.304688-.199219.433594-.207031.125-.003907.296875.035156.476562.125.367188.183593.667969.5.667969.5.347656.382812.925781.445312 1.339844.136718.417969-.304687.53125-.878906.265625-1.320312 0 0-.3125-.53125-.480469-1.097656-.085937-.285157-.121094-.566407-.105469-.714844.015625-.148438.011719-.121094.058594-.152344.046875-.039062.078125-.050781.210938-.035156.132812.015625.34375.082031.550781.1875.410156.210937.75.511719.75.511719.347656.316406.871094.347656 1.257812.074218.382813-.277343.523438-.785156.328125-1.21875 0 0-.222656-.539062-.296875-1.066406-.035156-.265625-.015625-.507812.015625-.613281.035157-.105469.003907-.082031.105469-.121094.25-.101562.371094-.125.453125-.101562zm-20.773437 12.402343c.601562-.015625 1.441406.109375 2.378906.40625 1.871094.589844 4.140625 1.847657 6.042969 3.753907h.003906c1.90625 1.90625 3.15625 4.132812 3.742187 5.980468.296875.925782.417969 1.757813.402344 2.371094-.015625.59375-.179687.917969-.265625 1.015625-.742187.542969-1.476562 1.066406-2.210937 1.589844-.269532-.476563-.558594-1.09375-.992188-1.761719-.648437-.992187-1.875-1.953125-3.738281-1.953125-.363281-.007812-.699219.183594-.878906.492188-.183594.3125-.183594.699218 0 1.011718.179687.308594.515625.5.878906.496094 1.300781 0 1.621094.371094 2.066406 1.046875.308594.480469.566406 1.160156 1 1.835938-2.808594 1.957031-5.542969 3.746093-8.128906 5.347656-.382813-.503906-.625-1.058594-1.023438-1.726563-.492187-.835937-1.328125-1.75-2.808593-2.269531-.125-.046875-.257813-.066406-.394532-.0625-.480468.023438-.875.386719-.941406.863281-.066406.476563.21875.933594.671875 1.085938 1.085938.378906 1.382813.773437 1.753906 1.402344.273438.460937.542969 1.089843 1.019532 1.753906-2.804688 1.6875-5.417969 3.152344-7.722657 4.34375-2.902343 1.5-5.335937 2.589844-7.074218 3.210937-.84375.304688-1.511719.488282-1.960938.566407.019531-.109375.015625-.160157.054688-.300782.171875-.6875.527343-1.683593 1.019531-2.878906.726562-1.757812 1.761719-3.953125 2.976562-6.339844.34375.164063.664063.285157.9375.449219.542969.320313.984375.6875 1.347657 1.765625.175781.523438.742187.804688 1.265625.628906.523437-.175781.804687-.742187.628906-1.265625-.5-1.488281-1.402344-2.363281-2.21875-2.847656-.390625-.234375-.738281-.398437-1.019531-.535156.144531-.273438.277343-.539063.425781-.8125 1.703125-3.183594 3.652344-6.550781 5.597656-9.652344.226563.167969.464844.273438.683594.371094.386719.167969.777344.316406 1.1875.527344.8125.425781 1.699219 1.070312 2.496094 2.707031.152343.332031.46875.554687.832031.582031.363281.03125.710937-.140625.914062-.445312.199219-.300782.21875-.691407.050782-1.011719-.976563-2.003906-2.292969-3.042969-3.367188-3.605469-.535156-.277344-1.007812-.453125-1.308594-.585937-.300781-.132813-.34375-.234375-.265625-.097657-.03125-.058593-.070312-.113281-.117187-.164062 1.820312-2.800781 3.605469-5.296875 5.136719-7.058594.03125-.03125.320312-.210937.921875-.230469zm16.675781.328125c.730469.011719 1.382812.140625 2.144531.121094.214844-.003906.441406-.03125.667969-.078125.027344.003906.054687.011719.082031.015625.554688.085938 1.089844.5625 1.089844.5625.363281.371094.949219.398438 1.347656.0625 0 0 .847656-.597656 1.375-.316406.355469.191406.40625.355469.449219.523437.042969.171875.03125.246094.03125.246094-.054688.3125.039062.632813.253906.859375.21875.230469.53125.34375.84375.308594 0 0 .257813-.027344.53125-.015625.121094.003906.214844.046875.277344.070312.011719.191407-.085938.492188-.085938.492188-.132812.253906-.152343.554687-.050781.824219.105469.269531.316406.480468.589844.582031 0 0 .179687.074219.335937.21875.160157.144531.222657.167969.167969.429687-.128906.65625-.441406.699219-.441406.699219-.28125.113281-.492188.347656-.582031.636719-.089844.285156-.042969.597656.125.847656 0 0 .140625.253906.164062.453125.011719.101563.003906.152344-.015625.1875-.023437.039063-.0625.117188-.316406.234375-.230469.105469-.296875.082031-.371094.0625s-.175781-.085937-.28125-.203125c-.21875-.238281-.363281-.59375-.363281-.59375-.140625-.386719-.503906-.652344-.917969-.664062-.414062-.011719-.789062.234375-.949219.617187 0 0-.167968.363281-.390625.621094-.113281.128906-.222656.203125-.257812.21875-.039063.015625.023437.027344-.058594-.011719-.320312-.148437-.292969-.242187-.296875-.53125-.003906-.289062.09375-.574219.09375-.574219.128906-.34375.058594-.730468-.179687-1.007812-.242188-.277344-.613282-.402344-.972657-.324219 0 0-.203125.027344-.378906.046875-.003906-.117187 0-.09375.019531-.21875.058594-.316406.132813-.585937.132813-.585937.097656-.335938.007812-.703125-.230469-.957032-.242187-.257812-.597656-.367187-.941406-.296875.035156-.046875.101562-.160156.101562-.160156.269532-.351562.277344-.832031.027344-1.1875 0 0-.980469-1.382812-2.769531-2.214844z"/></svg>