<svg fill="#666" height="50" viewBox="0 0 50 50" width="50" xmlns="http://www.w3.org/2000/svg"><path d="m31.90625 1.96875c-.042969.007813-.085937.019531-.125.03125h-24.78125v46h36v-34.8125c.027344-.132812.027344-.273437 0-.40625v-.1875l-.15625-.15625c-.007812-.019531-.019531-.042969-.03125-.0625l-.03125-.03125c-.019531-.023437-.039062-.042969-.0625-.0625h-.03125c-.019531-.023437-.039062-.042969-.0625-.0625l-9.78125-9.78125c-.074219-.113281-.167969-.207031-.28125-.28125l-.15625-.15625h-.21875c-.089844-.023437-.1875-.035156-.28125-.03125zm-22.90625 2.03125h22v10h10v32h-32zm24 1.4375 6.5625 6.5625h-6.5625zm-19 12.5625v6h6v-6zm2 2h2v2h-2zm6 0v2h14v-2zm-8 6v6h6v-6zm2 2h2v2h-2zm6 0v2h14v-2zm-8 6v6h6v-6zm2 2h2v2h-2zm6 0v2h14v-2z"/></svg>