<svg fill="#666" height="50" viewBox="0 0 50 50" width="50" xmlns="http://www.w3.org/2000/svg"><path d="m26.5 2c-12.879822 0-23.3532587 10.390892-23.4941406 23.238281v.011719.011719c.1410162 12.571333 10.3913706 22.738281 22.9941406 22.738281 8.066476 0 15.175135-4.158892 19.279297-10.453125a1.0005662 1.0005662 0 1 0 -1.675781-1.09375c-3.747839 5.747767-10.223992 9.546875-17.603516 9.546875-11.525178 0-20.8567807-9.256949-20.9921875-20.75.1355422-11.769 9.6900615-21.25 21.4921875-21.25 9.97955 0 18.072118 7.877339 18.462891 17.759766-.191802 4.400219-1.992771 8.149662-4.339844 10.832031-2.482551 2.837201-5.589714 4.408203-7.623047 4.408203-1.11059 0-1.9846-.876329-1.994141-1.984375.0091-.102705.203964-2.227517 1.146485-4.701172a1.0002377 1.0002377 0 0 0 .007812-.027344l6.767578-16.916015a1.0001 1.0001 0 0 0 -.957031-1.382813 1.0001 1.0001 0 0 0 -.898437.640625l-1.34375 3.359375c-.608727-1.36029-1.451349-2.43826-2.503907-3.226562-1.700865-1.273847-3.853859-1.761719-6.224609-1.761719-2.802688 0-6.40871 1.748203-9.476562 4.896484-3.067854 3.148282-5.523438 7.782128-5.523438 13.603516 0 5.234548 4.265452 9.5 9.5 9.5 3.050599 0 5.283894-1.280983 6.839844-2.837891.250098-.250251.480575-.507508.701172-.767578.202933 2.011805 1.896669 3.605469 3.958984 3.605469 2.966667 0 6.359504-1.928998 9.126953-5.091797 2.420451-2.766229 4.335379-6.538617 4.777344-10.964844a1.0001 1.0001 0 0 0 .095703-.443359c0-.329885-.009931-.658273-.025391-.984375.004607-.173437.025391-.340425.025391-.515625a1.0001 1.0001 0 0 0 -.09375-.431641c-.97596-10.406164-9.747628-18.568359-20.40625-18.568359zm.5 11c2.09725 0 3.777756.428878 5.025391 1.363281 1.200862.899375 2.081153 2.306762 2.53125 4.556641l-4.257813 10.642578a1.0002377 1.0002377 0 0 0 -.015625.039062l-.359375.896485a1.0001 1.0001 0 0 0 -.050781.078125c-.785502 1.256175-1.658966 2.882782-2.947266 4.171875s-2.91338 2.251953-5.425781 2.251953c-4.153452 0-7.5-3.346548-7.5-7.5 0-5.261612 2.196431-9.378016 4.955078-12.208984 2.758647-2.830969 6.15361-4.291016 8.044922-4.291016z"/></svg>