<svg fill="#666" height="50" viewBox="0 0 50 50" width="50" xmlns="http://www.w3.org/2000/svg"><path d="m4 0v48h17c.359375.003906.695313-.183594.878906-.496094.179688-.3125.179688-.695312 0-1.007812-.183593-.3125-.519531-.5-.878906-.496094h-15v-44h18v14h14v11c-.003906.359375.183594.695313.496094.878906.3125.179688.695312.179688 1.007812 0 .3125-.183593.5-.519531.496094-.878906v-12.40625l-.28125-.3125-14-14-.3125-.28125zm22 3.4375 10.5625 10.5625h-10.5625zm19.90625 21.46875c-1.050781 0-2.105469.386719-2.90625 1.1875l-.6875.71875.03125.03125-15.4375 15.4375c-.128906.117188-.226562.269531-.28125.4375l-1.6875 6c-.101562.347656-.011719.722656.242188.984375.253906.257813.625.359375.976562.265625l6-1.59375c.167969-.054687.320313-.152344.4375-.28125l15.8125-15.6875c.125-.109375.222656-.25.28125-.40625l.125-.09375c1.601563-1.601562 1.601563-4.210937 0-5.8125-.800781-.800781-1.855469-1.1875-2.90625-1.1875zm-2.15625 3.34375 3 3-15.34375 15.25-2.9375-2.84375.03125-.125z"/></svg>