<svg fill="#666" height="50" viewBox="0 0 50 50" width="50" xmlns="http://www.w3.org/2000/svg"><path d="m25 0c-2.453125 0-4.523437 1.367188-7.59375 2.945313-3.074219 1.582031-7.1875 3.488281-13.621094 4.898437l-.785156.175781v.800782c0 15.324218 5.355469 25.550781 10.734375 31.898437 5.382813 6.351563 10.84375 8.882813 10.84375 8.882813l.441406.203125.433594-.21875s21.546875-11.105469 21.546875-40.765625v-.800782l-.785156-.175781c-6.433594-1.410156-10.546875-3.316406-13.621094-4.898437-3.070312-1.578125-5.140625-2.945313-7.59375-2.945313zm0 2c1.644531 0 3.542969 1.109375 6.683594 2.726563 2.976562 1.53125 7.179687 3.386718 13.253906 4.820312-.355469 27.132813-18.660156 37.292969-19.953125 37.972656-.625-.300781-4.953125-2.464843-9.71875-8.09375-5.03125-5.933593-10.023437-15.464843-10.203125-29.878906 6.074219-1.433594 10.277344-3.289062 13.253906-4.820312 3.140625-1.617188 5.039063-2.726563 6.683594-2.726563zm0 14c-2.210937 0-4 1.789063-4 4 0 1.347656.683594 2.605469 1.8125 3.34375l-1.8125 8.15625h8l-1.8125-8.15625c1.128906-.734375 1.8125-1.996094 1.8125-3.34375 0-2.210937-1.789062-4-4-4z"/></svg>