<svg fill="#666" height="50" viewBox="0 0 50 50" width="50" xmlns="http://www.w3.org/2000/svg"><path d="m14 3c-1.644531 0-3 1.355469-3 3v38c0 1.644531 1.355469 3 3 3h22c1.644531 0 3-1.355469 3-3v-38c0-1.644531-1.355469-3-3-3zm0 2h22c.554688 0 1 .445313 1 1v38c0 .554688-.445312 1-1 1h-22c-.554687 0-1-.445312-1-1v-38c0-.554687.445313-1 1-1zm11 .5c-.550781 0-1 .449219-1 1s.449219 1 1 1 1-.449219 1-1-.449219-1-1-1zm-9.1875 2.5c-.476562.089844-.820312.511719-.8125 1v31c0 .550781.449219 1 1 1h18c.550781 0 1-.449219 1-1v-31c0-.550781-.449219-1-1-1h-18c-.03125 0-.0625 0-.09375 0s-.0625 0-.09375 0zm1.1875 2h16v29h-16zm4.8125 32c-.550781.050781-.957031.542969-.90625 1.09375s.542969.957031 1.09375.90625h6c.359375.003906.695313-.183594.878906-.496094.179688-.3125.179688-.695312 0-1.007812-.183593-.3125-.519531-.5-.878906-.496094h-6c-.03125 0-.0625 0-.09375 0s-.0625 0-.09375 0z"/></svg>