<svg fill="#666" height="50" viewBox="0 0 50 50" width="50" xmlns="http://www.w3.org/2000/svg"><path d="m7 2v46h36v-32.589844l-13.816406-13.410156zm2 2h19v13h13v29h-32zm21 1.578125 9.707031 9.421875h-9.707031zm-9.621094 17.976563v2.234375c0 1.859375.136719 3.617187.195313 4.679687h-.027344c-.285156-.867187-.78125-2.171875-1.082031-2.953125l-1.558594-3.957031h-1.800781v10.105469h1.722656v-2.277344c0-2.027344-.070312-3.585938-.117187-4.605469h.027343c.226563.914063.691407 2.1875 1.023438 3.042969l1.542969 3.839844h1.800781v-10.109375zm3.464844.003906v10.109375h4.578125v-1.714844h-2.609375v-2.726562h2.308594v-1.632813h-2.308594v-2.328125h2.425781v-1.707031zm5.910156 0v10.109375h1.964844v-4.171875h2.28125v-1.636719h-2.28125v-2.59375h2.433594v-1.707031z"/></svg>