<svg fill="#666" height="50" viewBox="0 0 50 50" width="50" xmlns="http://www.w3.org/2000/svg"><path d="m26 0c-2.460937 0-4 2.078125-4 4v.59375c-.628906-.355469-1.3125-.59375-2-.59375-1.875 0-3.964844 1.402344-4.09375 3.84375v.0625 21.46875l-3.25-3.90625c-.007812-.019531-.019531-.042969-.03125-.0625-1.671875-1.800781-4.539062-1.769531-6.3125-.03125-.007812.007813.007813.023438 0 .03125-1.765625 1.660156-1.777344 4.449219-.09375 6.21875l.0625.09375 11.53125 14.78125c1.6875 2.25 4.300781 3.5 7.09375 3.5h8.09375c4.945313 0 9-4.054687 9-9v-29c0-.746094-.039062-1.886719-.5625-2.96875-.523437-1.082031-1.726562-2.03125-3.4375-2.03125-.792969 0-1.4375.265625-2 .59375v-.59375c0-1.519531-.265625-2.742187-.96875-3.65625-.703125-.914062-1.832031-1.34375-3.03125-1.34375-.90625 0-1.628906.296875-2.25.6875-.515625-1.449219-1.851562-2.6875-3.75-2.6875zm0 2c1.339844 0 2 1.125 2 2v18h2v-16c0-.535156.132813-1.066406.40625-1.40625.273438-.339844.675781-.59375 1.59375-.59375.800781 0 1.171875.175781 1.46875.5625s.53125 1.15625.53125 2.4375v17h2v-12c0-.652344.066406-1.523437.34375-2.09375.277344-.570312.566406-.90625 1.65625-.90625s1.378906.335938 1.65625.90625c.277344.570313.34375 1.441406.34375 2.09375v29c0 3.855469-3.144531 7-7 7h-8.09375c-2.207031 0-4.1875-.9375-5.5-2.6875-.011719-.011719-.019531-.019531-.03125-.03125l-11.59375-14.90625c-.019531-.03125-.039062-.0625-.0625-.09375-1.03125-1.03125-1.019531-2.519531-.03125-3.4375l.03125-.03125c1.019531-1.019531 2.484375-1.019531 3.40625-.0625l.03125.03125 4.96875 5.96875c.269531.335938.722656.464844 1.128906.316406.402344-.152343.667969-.542968.652344-.972656v-24.1875c.089844-1.335937 1.179688-1.90625 2.09375-1.90625.460938 0 1 .175781 1.375.5s.625.765625.625 1.5v15h2v-19c0-.875.660156-2 2-2z"/></svg>