<svg fill="#666" height="50" viewBox="0 0 50 50" width="50" xmlns="http://www.w3.org/2000/svg"><path d="m40.34375 1.960938-2.484375.457031 3.328125 18.207031 1.984375-.300781zm-11.28125 4.703125-1.960937 1.414062 10.199218 14.957031 1.746094-1.238281zm-8.710937 8.84375-1.238282 2.195312 15.386719 9.296875 1.164063-1.996094zm-4.1875 9.664062-.535157 2.230469 17.730469 4.492187.640625-1.972656zm-7.164063 3.828125v18.984375l29.902344.015625v-.015625c.03125 0 .097656-18.984375.097656-18.984375h-2v17h-26v-17zm6.171875 4.375-.269531 1.964844 18.097656 1.660156.203125-1.964844zm-.171875 6.625v2l18-.070312v-1.929688z" fill-rule="evenodd"/></svg>