<svg fill="#666" height="50" viewBox="0 0 50 50" width="50" xmlns="http://www.w3.org/2000/svg"><path d="m14.550781 6c-6.914062 0-12.550781 5.554688-12.550781 12.402344 0 3.523437 1.449219 6.632812 3.835938 8.867187l19.164062 19.144532 19.515625-19.492188c2.175781-2.148437 3.484375-5.21875 3.484375-8.519531 0-2.054688-.539062-3.996094-1.371094-5.6875l-.601562-1.234375-21.054688 20.320312-12.386718-12.386718c-.789063-.789063-.789063-2.039063 0-2.828125.789062-.789063 2.039062-.789063 2.828125 0l9.613281 9.613281 18.15625-17.535156-.996094-.695313c-.046875-.035156-.125-.09375-.246094-.171875l-.03125-.023437-.035156-.019532c-1.875-1.039062-4.027344-1.753906-6.425781-1.753906-4.425781 0-8.199219 2.355469-10.445313 5.734375-2.246093-3.445312-6.035156-5.734375-10.453125-5.734375zm0 2c4.242188 0 7.839844 2.378906 9.546875 5.945313l.890625 1.859375.90625-1.851563c1.707032-3.464844 5.328125-5.953125 9.554688-5.953125 1.609375 0 3.058594.449219 4.429687 1.070313l-14.832031 14.320312-8.21875-8.21875c-1.554687-1.554687-4.101562-1.554687-5.65625 0-1.554687 1.554688-1.554687 4.101563 0 5.65625l13.78125 13.78125.703125-.683594 19.671875-18.992187c.386719 1.105469.671875 2.257812.671875 3.46875 0 2.773437-1.109375 5.34375-2.890625 7.101562l-.003906.003907-18.105469 18.078125-17.785156-17.761719-.011719-.011719c-2.011719-1.886719-3.203125-4.425781-3.203125-7.410156 0-5.75 4.703125-10.402344 10.550781-10.402344z"/></svg>