<svg fill="#666" height="50" viewBox="0 0 50 50" width="50" xmlns="http://www.w3.org/2000/svg"><path d="m21 7c-1.644531 0-3 1.355469-3 3v5c0 1.644531 1.355469 3 3 3h3v4h-13c-2.746094 0-5 2.253906-5 5v5h-3c-1.644531 0-3 1.355469-3 3v5c0 1.644531 1.355469 3 3 3h8c1.644531 0 3-1.355469 3-3v-5c0-1.644531-1.355469-3-3-3h-3v-5c0-1.65625 1.34375-3 3-3h13v8h-3c-1.644531 0-3 1.355469-3 3v5c0 1.644531 1.355469 3 3 3h8c1.644531 0 3-1.355469 3-3v-5c0-1.644531-1.355469-3-3-3h-3v-8h13c1.65625 0 3 1.34375 3 3v5h-3c-1.644531 0-3 1.355469-3 3v5c0 1.644531 1.355469 3 3 3h8c1.644531 0 3-1.355469 3-3v-5c0-1.644531-1.355469-3-3-3h-3v-5c0-2.746094-2.253906-5-5-5h-13v-4h3c1.644531 0 3-1.355469 3-3v-5c0-1.644531-1.355469-3-3-3zm0 2h8c.554688 0 1 .445313 1 1v5c0 .554688-.445312 1-1 1h-8c-.554687 0-1-.445312-1-1v-5c0-.554687.445313-1 1-1zm-18 25h8c.554688 0 1 .445313 1 1v5c0 .554688-.445312 1-1 1h-8c-.554687 0-1-.445312-1-1v-5c0-.554687.445313-1 1-1zm18 0h8c.554688 0 1 .445313 1 1v5c0 .554688-.445312 1-1 1h-8c-.554687 0-1-.445312-1-1v-5c0-.554687.445313-1 1-1zm18 0h8c.554688 0 1 .445313 1 1v5c0 .554688-.445312 1-1 1h-8c-.554687 0-1-.445312-1-1v-5c0-.554687.445313-1 1-1z"/></svg>