<svg fill="#666" height="50" viewBox="0 0 50 50" width="50" xmlns="http://www.w3.org/2000/svg"><path d="m25 2c-5.511719 0-10 4.488281-10 10 0 3.277344 1.394531 5.539063 2.65625 7.4375 1.261719 1.898438 2.34375 3.425781 2.34375 5.625v6.125l-15.1875 2.84375c-.464844.089844-.804687.492188-.8125.96875v8c0 .550781.449219 1 1 1v1c0 1.644531 1.355469 3 3 3h34c1.644531 0 3-1.355469 3-3v-1c.550781 0 1-.449219 1-1v-8c-.007812-.476562-.347656-.878906-.8125-.96875l-15.1875-2.84375v-6.125c0-2.199219 1.082031-3.726562 2.34375-5.625 1.261719-1.898437 2.65625-4.160156 2.65625-7.4375 0-5.511719-4.488281-10-10-10zm0 2c4.429688 0 8 3.570313 8 8 0 2.71875-1.105469 4.445313-2.34375 6.3125-1.238281 1.867188-2.65625 3.890625-2.65625 6.75v5.9375h-6v-5.9375c0-2.859375-1.417969-4.882812-2.65625-6.75-1.238281-1.867187-2.34375-3.59375-2.34375-6.3125 0-4.429687 3.570313-8 8-8zm-4.0625 29h.0625 8.09375l14.90625 2.8125v6.1875h-38v-6.1875zm-13.9375 11h36v1c0 .566406-.433594 1-1 1h-34c-.566406 0-1-.433594-1-1z"/></svg>