<svg fill="#666" height="50" viewBox="0 0 50 50" width="50" xmlns="http://www.w3.org/2000/svg"><path d="m30 11c-3.601562 0-7 1.789063-9 4.6875v3.5l.3125.21875.375-1c1.398438-3.300781 4.71875-5.40625 8.21875-5.40625 5 0 9 4 9 9v2l1.5-.59375c.699219-.300781 1.394531-.40625 2.09375-.40625 3 0 5.5 2.5 5.5 5.5s-2.5 5.5-5.5 5.5h-21.5v2h21.5c4.101563 0 7.5-3.398437 7.5-7.5 0-4.101562-3.398437-7.5-7.5-7.5-.5 0-1 .085938-1.5.1875-.5-5.699219-5.199219-10.1875-11-10.1875zm-13 5c-.699219 0-1.398437.085938-2 .1875v19.8125h2zm1 0v20h2v-19.5c-.601562-.199219-1.300781-.398437-2-.5zm-4 .5c-.699219.300781-1.398437.601563-2 1v18.5h2zm-3 1.8125c-.800781.699219-1.5 1.59375-2 2.59375v15.09375h2zm-4.5 3.6875c-.175781.011719-.351562.042969-.5.09375v13.8125c.300781.101563.699219.09375 1 .09375h1v-13.90625c-.300781-.101562-.699219-.09375-1-.09375-.148437 0-.324219-.011719-.5 0zm-1.5.3125c-.699219.199219-1.398437.5-2 1v11.375c.601563.398438 1.300781.800781 2 1zm-3 1.78125c-1.199219 1.300781-2 3.007813-2 4.90625 0 1.898438.800781 3.605469 2 4.90625z"/></svg>