<svg fill="#666" height="50" viewBox="0 0 50 50" width="50" xmlns="http://www.w3.org/2000/svg"><path d="m7 2v46h36v-32.585937l-13.589844-13.414063zm2 2h19v13h13v29h-32zm21 1.390625 9.734375 9.609375h-9.734375zm2.101563 19.410156c-2.113282 0-3.195313 1.351563-3.195313 2.96875 0 .917969.527344 1.980469 1.90625 2.824219.855469.550781 1.304688.914063 1.304688 1.644531 0 .664063-.449219 1.140625-1.382813 1.140625-.566406 0-1.257812-.164062-1.660156-.390625l-.289063 1.699219c.332032.191406 1.125.402344 1.9375.402344 1.980469 0 3.34375-1.214844 3.34375-3.058594 0-1.066406-.492187-2.085937-1.828125-2.894531-1.09375-.660156-1.394531-.976563-1.394531-1.574219 0-.542969.402344-1.050781 1.246094-1.050781.566406 0 1.003906.164062 1.285156.34375l.316406-1.695313c-.300781-.179687-.929687-.359375-1.589843-.359375zm-7.605469.042969c-.75 0-1.5.078125-2.054688.199219v9.957031h1.964844v-3.765625h.390625c.8125 0 1.832031-.300781 2.460938-.957031.523437-.574219.851562-1.335938.851562-2.433594 0-.855469-.265625-1.691406-.867187-2.21875-.660157-.613281-1.574219-.78125-2.746094-.78125zm-7.964844.046875v10.109375h4.578125v-1.710937h-2.613281v-2.726563h2.3125v-1.636719h-2.3125v-2.324218h2.429687v-1.710938zm8.355469 1.546875c.914062 0 1.273437.6875 1.273437 1.574219 0 .945312-.449218 1.648437-1.4375 1.648437-.121093 0-.226562 0-.316406-.03125v-3.117187c.121094-.046875.300781-.074219.480469-.074219z"/></svg>