<svg fill="#666" height="50" viewBox="0 0 50 50" width="50" xmlns="http://www.w3.org/2000/svg"><path d="m3 5c-1.644531 0-3 1.355469-3 3v34c0 1.644531 1.355469 3 3 3h44c1.644531 0 3-1.355469 3-3v-34c0-1.644531-1.355469-3-3-3zm0 2h26v36h-26c-.5625 0-1-.4375-1-1v-34c0-.5625.4375-1 1-1zm28 0h16c.5625 0 1 .4375 1 1v34c0 .5625-.4375 1-1 1h-16zm5 2c-1.644531 0-3 1.355469-3 3s1.355469 3 3 3 3-1.355469 3-3-1.355469-3-3-3zm7 0c-1.644531 0-3 1.355469-3 3s1.355469 3 3 3 3-1.355469 3-3-1.355469-3-3-3zm-7 2c.5625 0 1 .4375 1 1s-.4375 1-1 1-1-.4375-1-1 .4375-1 1-1zm7 0c.5625 0 1 .4375 1 1s-.4375 1-1 1-1-.4375-1-1 .4375-1 1-1zm-9.1875 6c-.476562.089844-.820312.511719-.8125 1v4c0 .550781.449219 1 1 1h11c.550781 0 1-.449219 1-1v-4c0-.550781-.449219-1-1-1h-11c-.03125 0-.0625 0-.09375 0s-.0625 0-.09375 0zm1.1875 2h9v2h-9z"/></svg>