<svg fill="#666" height="50" viewBox="0 0 50 50" width="50" xmlns="http://www.w3.org/2000/svg"><path d="m39.875 1c-.28125.042969-.53125.199219-.6875.4375-1.164062 1.644531-2.914062 2.652344-5.15625 3.4375-2.242187.785156-4.929687 1.308594-7.78125 2.03125-5.703125 1.441406-12.113281 3.730469-16.59375 10.65625-4.007812 6.171875-2.457031 11.875.6875 15.6875 1.574219 1.90625 3.507813 3.386719 5.375 4.375.984375.519531 1.898438.859375 2.78125 1.0625-1.972656 1.671875-3.949219 3.078125-5.875 4.0625-2.949219 1.507813-5.714844 2.03125-8.0625 1.375-.535156-.148437-1.085937.167969-1.234375.703125-.148437.535156.167969 1.085938.703125 1.234375 3.003906.84375 6.273438.117188 9.5-1.53125 2.25-1.148437 4.5-2.746094 6.6875-4.65625.371094 1.136719.960938 2.3125 2.03125 3.375 1.609375 1.59375 4.144531 2.75 7.84375 2.75 8.945313 0 23.785156-13.433594 10.84375-44.375-.167969-.429687-.605469-.6875-1.0625-.625zm-.34375 2.78125c11.550781 29.132813-2.699219 40.21875-9.4375 40.21875-3.300781 0-5.21875-.949219-6.4375-2.15625-1.046875-1.035156-1.570312-2.320312-1.84375-3.46875.40625-.386719.820313-.753906 1.21875-1.15625 6.105469-6.167969 11.46875-14.335937 14.1875-21.15625.136719-.332031.085938-.710937-.132812-.996094-.21875-.285156-.574219-.429687-.929688-.378906-.359375.058594-.660156.3125-.78125.65625-2.582031 6.480469-7.855469 14.511719-13.75 20.46875-.410156.414063-.835937.792969-1.25 1.1875-.78125.011719-2.207031-.324219-3.71875-1.125-1.644531-.867187-3.402344-2.207031-4.78125-3.875-2.753906-3.339844-4.125-7.8125-.53125-13.34375 4.121094-6.375 9.804688-8.40625 15.375-9.8125 2.785156-.703125 5.527344-1.238281 7.96875-2.09375 1.863281-.652344 3.476563-1.664062 4.84375-2.96875z"/></svg>