<svg fill="#666" height="50" viewBox="0 0 50 50" width="50" xmlns="http://www.w3.org/2000/svg"><path d="m15 4c-.265625 0-.519531.105469-.707031.292969s-.292969.441406-.292969.707031l.007813 16.976563c0 .476562.335937.886718.804687.980468.464844.09375.933594-.15625 1.121094-.59375 1.875-4.472656 6.21875-7.363281 11.066406-7.363281 6.617188 0 12 5.382813 12 12 0 6.617188-5.382812 12-12 12-2.574219 0-5.003906-.824219-7-2.265625v-9.734375c0-3.859375 3.140625-7 7-7s7 3.140625 7 7-3.140625 7-7 7c-.867187 0-1.726562-.164062-2.546875-.484375-.515625-.203125-1.097656.050781-1.296875.5625-.203125.515625.050781 1.09375.5625 1.296875 1.058594.414063 2.164063.625 3.28125.625 4.960938 0 9-4.039062 9-9 0-4.960937-4.039062-9-9-9-4.960937 0-9 4.039063-9 9v7.917969c-.847656-.964844-1.554687-2.074219-2.066406-3.308594-.214844-.507812-.800781-.75-1.308594-.535156-.511719.210937-.75.796875-.539062 1.304687 2.183593 5.238282 7.253906 8.621094 12.914062 8.621094 7.71875 0 14-6.28125 14-14s-6.28125-14-14-14c-4.367187 0-8.382812 2.007813-10.996094 5.324219l-.003906-12.324219h20c.550781 0 1-.449219 1-1s-.449219-1-1-1zm12 4c-2.175781 0-4.308594.367188-6.34375 1.085938-.519531.183593-.792969.753906-.609375 1.273437.183594.523438.757813.792969 1.277344.609375 1.816406-.640625 3.726562-.96875 5.675781-.96875 4.679688 0 9.042969 1.859375 12.28125 5.242188.195313.207031.457031.308593.71875.308593.25 0 .5-.089843.691406-.277343.398438-.382813.414063-1.015625.03125-1.414063-3.617187-3.777344-8.492187-5.859375-13.722656-5.859375zm-2 16c-.253906 0-.511719.097656-.707031.292969-.390625.390625-.390625 1.023437 0 1.414062l1.292969 1.292969-1.292969 1.292969c-.390625.390625-.390625 1.023437 0 1.414062.195312.195313.449219.292969.707031.292969.257813 0 .511719-.097656.707031-.292969l1.292969-1.292968 1.292969 1.292968c.195312.195313.449219.292969.707031.292969.257813 0 .511719-.097656.707031-.292969.390625-.390625.390625-1.023437 0-1.414062l-1.292968-1.292969 1.292968-1.292969c.390625-.390625.390625-1.023437 0-1.414062s-1.023437-.390625-1.414062 0l-1.292969 1.292969-1.292969-1.292969c-.195312-.195313-.453125-.292969-.707031-.292969zm-16.023437 2.5625c-.550782.015625-.984375.480469-.96875 1.03125.320312 10.320313 8.660156 18.40625 18.992187 18.40625 5.761719 0 11.144531-2.578125 14.777344-7.066406.347656-.433594.28125-1.0625-.148438-1.410156-.429687-.347657-1.058593-.277344-1.40625.148437-3.25 4.023438-8.070312 6.328125-13.222656 6.328125-9.246094 0-16.707031-7.234375-16.992187-16.46875-.015625-.550781-.476563-1.003906-1.03125-.96875z"/></svg>