<svg fill="#666" height="50" viewBox="0 0 50 50" width="50" xmlns="http://www.w3.org/2000/svg"><path d="m24.984375 1.9863281a1.0001 1.0001 0 0 0 -.169922.0175781c-12.539571.0999588-22.7053402 10.2624478-22.8105468 22.8007818a1.0001 1.0001 0 0 0 0 .378906c.0989143 12.540472 10.2617938 22.707288 22.8007818 22.8125a1.0001 1.0001 0 0 0 .378906 0c12.540472-.098914 22.707288-10.261794 22.8125-22.800782a1.0001 1.0001 0 0 0 0-.378906c-.098945-12.544396-10.268104-22.7135546-22.8125-22.8124998a1.0001 1.0001 0 0 0 -.199219-.0175781zm-.984375 2.0390625v.9746094a1.0001 1.0001 0 1 0 2 0v-.9746094c10.812778.5054292 19.46918 9.1618314 19.974609 19.9746094h-.974609a1.0001 1.0001 0 1 0 0 2h.974609c-.505429 10.812778-9.161831 19.46918-19.974609 19.974609v-.974609a1.0001 1.0001 0 0 0 -1.015625-1.013672 1.0001 1.0001 0 0 0 -.984375 1.013672v.974609c-10.812778-.505429-19.4691802-9.161831-19.9746094-19.974609h.9746094a1.0001 1.0001 0 1 0 0-2h-.9746094c.5054292-10.812778 9.1618314-19.4691802 19.9746094-19.9746094zm12.964844 7.9746094a1.0001 1.0001 0 0 0 -.525391.171875l-14.322265 9.675781a1.0001 1.0001 0 0 0 -.269532.269532l-9.675781 14.322265a1.0001 1.0001 0 0 0 1.388672 1.388672l14.324219-9.675781a1.0001 1.0001 0 0 0 .269531-.269532l9.673828-14.322265a1.0001 1.0001 0 0 0 -.863281-1.560547zm-13.56836 11.396484 3.207032 3.207032-9.884766 6.677734z"/></svg>