<svg fill="#666" height="50" viewBox="0 0 50 50" width="50" xmlns="http://www.w3.org/2000/svg"><path d="m24.84375 0c-.285156.0507813-.539062.21875-.6875.46875 0 0-1.21875 1.921875-4.125 7.03125v.03125c-.117187.222656-.109375.1875-.125.21875-.507812-.210937-1.886719-1.082031-4.40625-2.59375-.316406-.183594-.707031-.179687-1.019531.007813-.308594.191406-.496094.535156-.480469.898437l.875 12.0625-5.625-2.8125c-.246094-.125-.535156-.144531-.796875-.050781-.261719.097656-.46875.296875-.578125.550781-.488281 1.117188-.566406 2.082031-.59375 2.78125-.027344.675781-.09375 1.003906-.0625.96875-.097656.035156-.363281.105469-.78125.125-.832031.042969-2.269531-.058594-4.53125-.28125-.359375-.042969-.714844.109375-.925781.402344-.214844.289062-.253906.675781-.105469 1.003906 1.742188 3.835938 2.355469 5.785156 2.28125 6.28125-.035156.246094-.058594.257813-.4375.46875-.378906.210938-1.070312.453125-2.03125.78125-.347656.109375-.609375.398438-.6796875.757813s.0585938.726562.3359375.960937c2.5625 2.195313 6.125 4.332031 8.5 6.71875 1.1875 1.195313 2.074219 2.429688 2.4375 3.6875.363281 1.257813.289063 2.546875-.5625 4.15625-.171875.324219-.15625.714844.046875 1.023438.203125.304687.554688.476562.921875.445312 0 0 3.070313-.289062 6.28125-.5625 1.605469-.136719 3.257813-.273437 4.5625-.375.777344-.0625 1.015625-.070312 1.46875-.09375v4.9375h2v-4.9375c.453125.023438.691406.03125 1.46875.09375 1.304688.101563 2.957031.238281 4.5625.375 3.210938.273438 6.28125.5625 6.28125.5625.367188.03125.71875-.140625.921875-.445312.203125-.308594.21875-.699219.046875-1.023438-.847656-1.582031-.925781-2.871094-.5625-4.125s1.25-2.488281 2.4375-3.6875c2.378906-2.402344 5.941406-4.558594 8.5-6.75.277344-.234375.40625-.601562.335938-.960937-.070313-.359375-.332032-.648438-.679688-.757813-.953125-.324219-1.722656-.585937-2.1875-.84375-.464844-.257812-.5625-.390625-.625-.65625s-.015625-.835937.375-1.8125c.390625-.976562 1.101563-2.347656 2.1875-4.125.1875-.320312.179688-.71875-.015625-1.03125-.199219-.316406-.550781-.496094-.921875-.46875-2.390625.199219-3.914062.289063-4.78125.25-.398437-.019531-.613281-.09375-.71875-.125.042969.035156.015625-.203125.03125-.84375.015625-.714844-.042969-1.722656-.53125-2.875-.109375-.253906-.316406-.453125-.578125-.550781-.261719-.09375-.550781-.074219-.796875.050781l-5.625 2.875.875-12.125c.015625-.363281-.171875-.707031-.480469-.898437-.3125-.1875-.703125-.191407-1.019531-.007813-2.519531 1.511719-3.898437 2.382813-4.40625 2.59375-.015625-.03125-.007812.003906-.125-.21875 0-.011719 0-.019531 0-.03125-3-5.097656-4.09375-7-4.09375-7-.203125-.367187-.617187-.5664063-1.03125-.5zm.15625 2.96875c.390625.671875.878906 1.523438 3.21875 5.5.007813.011719.023438.019531.03125.03125.207031.390625.382813.789063.90625 1.09375.539063.316406 1.222656.238281 1.71875.03125.644531-.269531 1.890625-1.121094 3-1.8125l-.875 12.03125c-.019531.359375.15625.703125.460938.898438.304687.195312.6875.207031 1.007812.039062l6.03125-3.09375c.042969.300781.160156.671875.15625.9375-.011719.574219-.222656 1.148438.1875 1.9375.207031.394531.625.695313 1.03125.84375.40625.148438.835938.226563 1.375.25.691406.03125 2.042969-.078125 3.21875-.15625-.542969.96875-1.175781 2.046875-1.46875 2.78125-.464844 1.164063-.648437 2.101563-.4375 3 .210938.898438.863281 1.5625 1.59375 1.96875.234375.128906.558594.203125.8125.3125-2.261719 1.734375-5.035156 3.605469-7.25 5.84375-1.324219 1.335938-2.40625 2.8125-2.90625 4.53125-.363281 1.25-.203125 2.625.21875 4.03125-.976562-.085937-2.375-.195312-4.84375-.40625-1.609375-.136719-3.25-.273437-4.5625-.375-1.3125-.101562-2.183594-.1875-2.625-.1875s-1.3125.085938-2.625.1875c-1.3125.101563-2.953125.238281-4.5625.375-2.449219.210938-3.824219.320313-4.8125.40625.425781-1.421875.550781-2.804687.1875-4.0625-.5-1.722656-1.582031-3.199219-2.90625-4.53125-2.210937-2.222656-4.992187-4.054687-7.25-5.78125.210938-.089844.492188-.171875.6875-.28125.675781-.378906 1.28125-1.054687 1.40625-1.90625.210938-1.417969-.53125-3.207031-1.75-5.90625 1.15625.089844 2.460938.191406 3.15625.15625.53125-.027344.96875-.066406 1.375-.21875s.8125-.441406 1.03125-.8125c.4375-.738281.320313-1.375.34375-1.96875.011719-.289062.160156-.671875.21875-1l6.0625 3.03125c.320313.15625.703125.132813 1-.070312.296875-.199219.460938-.542969.4375-.898438l-.875-11.875c1.101563.6875 2.359375 1.515625 3 1.78125.496094.207031 1.179688.285156 1.71875-.03125.523438-.304687.699219-.703125.90625-1.09375h.03125c.003906-.007812-.003906-.023437 0-.03125 2.277344-4.003906 2.816406-4.84375 3.21875-5.5zm-1 13.03125v3.09375c-4.898437.398438-5 4.59375-5 5.09375 0 4 3.199219 4.804688 6 5.40625 2.398438.601563 4.5 1.007813 4.5 3.40625 0 1-.40625 3.5-4.40625 3.5-.199219 0-2.082031-.011719-3.28125-1.3125-.800781-.800781-1.125-1.886719-1.125-3.1875v-.3125h-2.09375v.3125c.101563 4.898438 3.101563 5.886719 5.5 6.1875v2.21875h2v-2.21875c5.199219-.5 5.5-4.386719 5.5-5.1875-.101562-3.898437-3.292969-4.710937-6.09375-5.3125-2.398437-.601562-4.5-1.082031-4.5-3.28125 0-2.300781 1.300781-3.5 4-3.5 3.5 0 3.90625 2.707031 3.90625 3.90625v.1875h2.09375v-.1875c.101563-1.300781-.40625-2.90625-1.40625-3.90625-.898437-1-2.195312-1.613281-3.59375-1.8125v-3.09375z"/></svg>