<svg fill="#666" height="50" viewBox="0 0 50 50" width="50" xmlns="http://www.w3.org/2000/svg"><path d="m25 2c-9.941406 0-18 2.6875-18 6v17c0 5.082031 5.417969 19.082031 18 22 12.582031-2.917969 18-16.917969 18-22v-17c0-3.3125-8.058594-6-18-6zm0 2c10.5 0 16 2.972656 16 4v17c0 4.136719-4.332031 15.523438-14 19.296875v-6.296875h-4v6.296875c-9.667969-3.773437-14-15.160156-14-19.296875v-17c0-1.027344 5.5-4 16-4zm-8 7c-1.996094 0-4.144531.878906-6 4 1.953125-1.359375 3.613281-2 5-2 2.6875 0 4.027344 3.148438 4.4375 3.5625.585938.585938 1.535156.585938 2.125 0 .585938-.585937.585938-1.535156 0-2.125-.367187-.363281-2.125-3.4375-5.5625-3.4375zm16 0c-3.4375 0-5.195312 3.074219-5.5625 3.4375-.585937.589844-.585937 1.539063 0 2.125.589844.585938 1.539063.585938 2.125 0 .410156-.414062 1.75-3.5625 4.4375-3.5625 1.386719 0 3.046875.640625 5 2-1.855469-3.121094-4.003906-4-6-4zm-17 6c-1.640625 0-3.082031.59375-4 1.5.917969.90625 2.359375 1.5 4 1.5s3.082031-.59375 4-1.5c-.917969-.90625-2.359375-1.5-4-1.5zm18 0c-1.640625 0-3.082031.59375-4 1.5.917969.90625 2.359375 1.5 4 1.5s3.082031-.59375 4-1.5c-.917969-.90625-2.359375-1.5-4-1.5zm-23 9 5 8h7l2-2 2 2h7l5-8-6 5h-4l-3-3h-2l-3 3h-4z"/></svg>