<svg fill="#666" height="50" viewBox="0 0 50 50" width="50" xmlns="http://www.w3.org/2000/svg"><path d="m7 2v46h36v-32.589844l-13.816406-13.410156zm2 2h19v13h13v29h-32zm21 1.578125 9.707031 9.421875h-9.707031zm1.621094 17.886719c-2.113281 0-3.195313 1.351562-3.195313 2.972656 0 .910156.527344 1.976563 1.90625 2.816406.855469.554688 1.304688.914063 1.304688 1.652344 0 .65625-.449219 1.140625-1.378906 1.140625-.570313 0-1.261719-.167969-1.664063-.390625l-.285156 1.691406c.328125.195313 1.121094.40625 1.933594.40625 1.980468 0 3.347656-1.214843 3.347656-3.058593 0-1.066407-.496094-2.085938-1.832031-2.898438-1.09375-.65625-1.394532-.972656-1.394532-1.574219 0-.539062.402344-1.050781 1.246094-1.050781.566406 0 1.003906.167969 1.285156.347656l.320313-1.695312c-.300781-.179688-.933594-.359375-1.59375-.359375zm-15.449219.089844 1.816406 4.933593-1.890625 5.175782h1.949219l.542969-1.828125c.148437-.570313.3125-1.183594.476562-1.832032h.03125c.179688.648438.34375 1.214844.539063 1.800782l.644531 1.859375h2.027344l-1.996094-5.085938 1.890625-5.023437h-1.964844l-.507812 1.847656c-.136719.550781-.257813 1.03125-.421875 1.644531h-.027344c-.167969-.566406-.300781-1.09375-.46875-1.617187l-.582031-1.875zm6.945313.003906v10.105469h4.558593v-1.664063h-2.59375v-8.441406z"/></svg>