<svg fill="#666" height="50" viewBox="0 0 50 50" width="50" xmlns="http://www.w3.org/2000/svg"><path d="m25 2c-12.690705 0-23 10.309295-23 23s10.309295 23 23 23 23-10.309295 23-23-10.309295-23-23-23zm0 2c11.609824 0 21 9.390176 21 21s-9.390176 21-21 21-21-9.390176-21-21 9.390176-21 21-21zm-8 7v2l-1-1v16 10a1.0001 1.0001 0 0 0 1 1h4a1.0001 1.0001 0 0 0 1-1v-9h2.03125.408203l5.826172 9.521484a1.0001 1.0001 0 0 0 .853516.478516h4.880859a1.0001 1.0001 0 0 0 .841797-1.541016l-6.228516-9.6875c1.163171-.480562 2.314316-1.098557 3.259766-2.099609 1.270702-1.345432 2.126953-3.266487 2.126953-5.75 0-2.219383-.69035-3.989778-1.761719-5.285156-1.071368-1.295379-2.483007-2.11475-3.886719-2.642578-2.807423-1.055657-5.715607-.994141-6.320312-.994141zm1 2h6.03125c.686295 0 3.263361-.01791 5.617188.867188 1.176912.442546 2.265415 1.097706 3.048828 2.044921.783412.947215 1.302734 2.189649 1.302734 4.009766 0 2.043487-.637983 3.377386-1.582031 4.376953-.944048.999568-2.248204 1.652413-3.580078 2.056641a1.0001 1.0001 0 0 0 -.550782 1.498047l5.88086 9.146484h-2.488281l-5.826172-9.521484a1.0001 1.0001 0 0 0 -.853516-.478516h-.96875-3.03125a1.0001 1.0001 0 0 0 -1 1v9h-2v-9zm3 2a1.0001 1.0001 0 0 0 -1 1v8a1.0001 1.0001 0 0 0 1 1h4.515625c.363459 0 1.873987.02032 3.380859-.574219 1.506873-.594539 3.103516-2.052673 3.103516-4.464843 0-1.20943-.38836-2.226289-.996094-2.960938-.607733-.734649-1.393774-1.185514-2.152344-1.470703-1.517138-.570378-3.054264-.529297-3.335937-.529297zm1 2h3.515625c.363327 0 1.569201.0025 2.632813.402344.531804.199936.994717.486539 1.314453.873047.319735.386507.537109.875475.537109 1.685547 0 1.626827-.78231 2.187805-1.835938 2.603515-1.053627.415711-2.285896.435547-2.648437.435547h-3.515625z"/></svg>