<svg fill="#666" height="50" viewBox="0 0 50 50" width="50" xmlns="http://www.w3.org/2000/svg"><path d="m7 2v46h36v-1-31.589844l-13.816406-13.410156zm2 2h19v13h13v29h-32zm21 1.5800781 9.707031 9.4199219h-9.707031zm-5.898438 17.8554689c-2.234999 0-3.330078 2.384531-3.330078 5.144531 0 2.775.900313 5.205078 3.195313 5.205078 1.92 0 3.269531-1.545468 3.269531-5.355468 0-2.31-.688765-4.993141-3.134766-4.994141zm8.408204.029297c-2.145 0-4.246016 1.530078-4.291016 5.205078-.03 1.74.434687 3.240078 1.304688 4.080078.675.675 1.546171 1.005859 2.701171 1.005859.735 0 1.66461-.181328 2.09961-.361328-.001 0-.001-5.40039 0-5.40039h-2.714844v1.605468h.900391v2.445313c-.076.03-.212579.044922-.392578.044922-.915001 0-1.857422-.870782-1.857422-3.300782 0-2.639999 1.063437-3.554687 2.398437-3.554687.495 0 .869297.076563 1.154297.226563l.345703-1.695313c-.314-.15-.883437-.300781-1.648437-.300781zm-16.833985.091797v10.109375h4.560547v-1.664063h-2.595703v-8.445312zm8.351563 1.58789c.884 0 1.15625 1.605 1.15625 3.375 0 2.055-.316625 3.554688-1.140625 3.554688-.794 0-1.230469-1.169844-1.230469-3.464844 0-2.174.433844-3.463844 1.214844-3.464844z"/></svg>