<svg fill="#666" height="50" viewBox="0 0 50 50" width="50" xmlns="http://www.w3.org/2000/svg"><path d="m25.037109 2a1.0001 1.0001 0 0 0 -.460937.09375l-22.0000001 10.300781a1.0001 1.0001 0 0 0 -.5761719.90625v2.699219a1.0001 1.0001 0 0 0 1 1h3v23h-1.1992188c-1.5999999 0-2.8007812 1.415152-2.8007812 3v3h46v-3c0-1.584848-1.200781-3-2.800781-3h-1.199219v-23h3a1.0001 1.0001 0 0 0 1-1v-2.699219a1.0001 1.0001 0 0 0 -.576172-.90625l-22-10.300781a1.0001 1.0001 0 0 0 -.386719-.09375zm-.037109 2.1035156 21 9.8320314v1.064453h-9a1.0001 1.0001 0 1 0 0 2h1v23h-26v-23h1a1.0001 1.0001 0 1 0 0-2h-2-4-3v-1.064453zm-1 6.8964844v3.060547c-2.135425.25677-3.490598 1.318356-4.181641 2.402344-.793573 1.244821-.818359 2.511718-.818359 2.511718a1.0001 1.0001 0 0 0 0 .025391c0 1.777778.85529 3.119015 1.988281 3.912109 1.132992.793094 2.47461 1.169922 3.72461 1.544922s2.408382.748172 3.15039 1.267578c.742009.519406 1.136719 1.053169 1.136719 2.275391 0 .821748-.225315 1.320619-.552734 1.716797-.32742.396178-.796064.688023-1.310547.888672-1.028967.401297-2.117188.394531-2.117188.394531a1.0001 1.0001 0 0 0 -.019531 0c-2.223203 0-3.021811-.935656-3.513672-1.939453-.49186-1.003797-.486328-2.041016-.486328-2.041016l-2-.039062s-.04369 1.462781.689453 2.958984c.643496 1.313258 2.034975 2.674289 4.310547 2.988281v3.072266h2v-3.072266c.520984-.065968 1.178107-.191768 1.863281-.458984.735517-.286851 1.516873-.738366 2.126953-1.476562.610081-.7382 1.009766-1.763936 1.009766-2.992188 0-1.777778-.85529-3.119015-1.988281-3.912109-1.132992-.793094-2.47461-1.169922-3.72461-1.544922s-2.408382-.748172-3.15039-1.267578c-.737833-.516484-1.128406-1.052114-1.132813-2.259766.000346-.0097.02374-.728383.501953-1.478516.481427-.755179 1.31625-1.537109 3.494141-1.537109 2.109864 0 2.927545.936017 3.447266 1.955078s.552734 2.064453.552734 2.064453l2-.039062s-.0162-1.454608-.771484-2.935547c-.660236-1.294582-2.030559-2.65137-4.228516-2.972656v-3.072266zm-16 6h2v23h-2zm32 0h2v23h-2zm-35.1992188 25h40.3984378c.4 0 .800781.384848.800781 1v1h-42v-1c0-.615152.4007812-1 .8007812-1z"/></svg>