<svg fill="#666" height="50" viewBox="0 0 50 50" width="50" xmlns="http://www.w3.org/2000/svg"><path d="m25 2c-1.796875 0-3.460937.242188-4.875.5625-2.996094.679688-5.125 3.367188-5.125 6.4375v7.96875c-4.707031 3.632813-6 9.941406-6 16.03125v15h2v-15c0-5.1875.96875-10.207031 4-13.40625v15.84375l.34375.3125s3.675781 3.25 9.65625 3.25 9.65625-3.25 9.65625-3.25l.34375-.3125v-16.125c3.023438 3.019531 4 7.921875 4 13.6875v15h2v-15c0-6.714844-1.285156-12.867187-6-16.28125v-7.71875c0-3.066406-2.128906-5.757812-5.125-6.4375-1.414062-.320312-3.078125-.5625-4.875-.5625zm0 2c1.613281 0 3.136719.234375 4.4375.53125 2.09375.476563 3.5625 2.320313 3.5625 4.46875v25.46875c-.441406.367188-3.144531 2.53125-8 2.53125s-7.558594-2.164062-8-2.53125v-25.46875c0-2.148437 1.46875-3.992187 3.5625-4.46875 1.300781-.296875 2.824219-.53125 4.4375-.53125zm4 5v23.25c-.753906.324219-4.21875 1.742188-8.59375-.15625l-.8125 1.8125c5.714844 2.476563 10.84375 0 10.84375 0l.5625-.28125v-24.625z"/></svg>