<svg fill="#666" height="50" viewBox="0 0 50 50" width="50" xmlns="http://www.w3.org/2000/svg"><path d="m5.953125 4c-.511719 0-1.03125.1875-1.398437.554688-.367188.367187-.554688.886718-.554688 1.398437v38.09375c0 .507813.1875 1.03125.554688 1.398438.367187.367187.886718.554687 1.398437.554687h38.09375c.507813 0 1.03125-.1875 1.398438-.554687.367187-.367188.554687-.886719.554687-1.398438v-38.09375c0-.511719-.1875-1.03125-.554687-1.398437-.367188-.367188-.886719-.554688-1.398438-.554688zm.046875 2h38v38h-38zm20.546875 14.855469c-2.117187 0-3.195312 1.347656-3.195312 2.96875 0 .914062.523437 1.980469 1.902343 2.820312.859375.554688 1.308594.914063 1.308594 1.652344 0 .65625-.449219 1.140625-1.378906 1.140625-.570313 0-1.265625-.167969-1.667969-.390625l-.285156 1.691406c.332031.195313 1.125.40625 1.9375.40625 1.980469 0 3.34375-1.214843 3.34375-3.058593 0-1.066407-.496094-2.085938-1.828125-2.898438-1.097656-.65625-1.398438-.972656-1.398438-1.574219 0-.539062.40625-1.050781 1.246094-1.050781.570313 0 1.003906.167969 1.289063.347656l.316406-1.695312c-.300781-.179688-.933594-.359375-1.589844-.359375zm6.6875 0c-1.964844 0-4.078125 1.484375-4.078125 5.296875 0 2.863281 1.230469 4.992187 3.8125 4.992187.6875 0 1.242188-.105468 1.527344-.238281l-.199219-1.652344c-.238281.078125-.613281.152344-.941406.152344-1.199219 0-2.117188-.945312-2.117188-3.359375 0-2.507812 1.007813-3.46875 2.117188-3.46875.433594 0 .6875.09375.914062.199219l.328125-1.652344c-.191406-.136719-.671875-.269531-1.363281-.269531zm-14.921875.089844-2.191406 10.109375h1.90625l.449219-2.308594h1.8125l.433593 2.308594h1.90625l-1.964843-10.109375zm1.09375 1.859375h.042969c.089844.675781.226562 1.679687.332031 2.292968l.328125 2.117188h-1.4375l.375-2.101563c.101563-.582031.253906-1.632812.359375-2.308593z"/></svg>