<svg fill="#666" height="50" viewBox="0 0 50 50" width="50" xmlns="http://www.w3.org/2000/svg"><path d="m6 4c-1.0930628 0-2 .9069372-2 2v38c0 1.093063.9069372 2 2 2h38c1.093063 0 2-.906937 2-2v-38c0-1.0930628-.906937-2-2-2zm0 2h38v38h-38zm10 8v22h9v-2.5h-6.5v-19.5zm17.488281 5.75c-1.437 0-2.35814.652-2.86914 2.125l-.125.375v-2.25h-2.494141c.031 1.152 0 16 0 16h2.494141l.029297-9.25c-.000001-.544.031703-.992203.095703-1.408203.255-1.792 1.30514-3.248047 2.86914-3.248047.193 0 .351719-.00075.511719.03125v-2.34375c-.16-.032-.319719-.03125-.511719-.03125z"/></svg>