<svg fill="#666" height="50" viewBox="0 0 50 50" width="50" xmlns="http://www.w3.org/2000/svg"><path d="m10.3125.09375c-1.507812-.0390625-3.0625.5-4.34375 1.78125-2.347656 2.347656-3.21875 4.867188-2.8125 7.15625.40625 2.289063 1.949219 4.214844 3.9375 5.8125 1.574219 1.265625 3.4375 2.324219 5.375 3.15625h-8.46875c-2.199219 0-4 1.800781-4 4v8.8125c-.0078125.0625-.0078125.125 0 .1875v6 .09375 8.90625c0 2.199219 1.800781 4 4 4h42c2.199219 0 4-1.800781 4-4v-8.84375c.003906-.050781.003906-.105469 0-.15625v-6c0-.03125 0-.0625 0-.09375v-8.90625c0-2.199219-1.800781-4-4-4h-8.46875c1.9375-.832031 3.800781-1.890625 5.375-3.15625 1.988281-1.597656 3.53125-3.523437 3.9375-5.8125.40625-2.289062-.464844-4.808594-2.8125-7.15625-1.460937-1.464844-3.304687-1.9453125-5-1.71875-1.695312.226563-3.234375 1.1875-4.09375 2.59375-2.007812 3.28125-4.667969 7.253906-6.75 9.53125-.367187-.164062-.761719-.28125-1.1875-.28125h-4c-.425781 0-.820312.117188-1.1875.28125-2.082031-2.277344-4.742187-6.25-6.75-9.53125-.859375-1.40625-2.398437-2.367187-4.09375-2.59375-.210937-.027344-.441406-.0585937-.65625-.0625zm-.4375 2c1.457031-.09375 2.863281.648438 3.5 1.6875 2.035156 3.328125 4.65625 7.324219 6.96875 9.84375-.140625.269531-.226562.566406-.28125.875-1.761719-1.289062-3.441406-3.304687-4.9375-5.03125-.9375-1.082031-1.796875-2.027344-2.75-2.625-.476562-.296875-1.003906-.507812-1.625-.46875-.621094.039063-1.214844.382813-1.625.875-.414062.496094-.632812 1.140625-.59375 1.75.039063.609375.28125 1.140625.625 1.625.683594.964844 1.761719 1.789063 3.03125 2.59375 2.335938 1.480469 5.335938 2.800781 7.8125 3.71875v.0625c0 .332031.085938.636719.1875.9375-3.484375-.253906-8.59375-2.011719-11.84375-4.625-1.757812-1.414062-2.933594-3.015625-3.21875-4.625s.183594-3.371094 2.21875-5.40625c.769531-.773437 1.65625-1.132812 2.53125-1.1875zm30.25 0c.875.054688 1.761719.414063 2.53125 1.1875 2.035156 2.035156 2.503906 3.796875 2.21875 5.40625s-1.460937 3.210938-3.21875 4.625c-3.25 2.613281-8.359375 4.371094-11.84375 4.625.101563-.300781.1875-.605469.1875-.9375v-.0625c2.476563-.917969 5.476563-2.238281 7.8125-3.71875 1.269531-.804687 2.347656-1.628906 3.03125-2.59375.34375-.484375.585938-1.015625.625-1.625.039063-.609375-.179687-1.253906-.59375-1.75-.410156-.492187-1.003906-.835937-1.625-.875-.621094-.039062-1.148437.171875-1.625.46875-.953125.597656-1.8125 1.542969-2.75 2.625-1.496094 1.726563-3.175781 3.742188-4.9375 5.03125-.054687-.308594-.140625-.605469-.28125-.875 2.3125-2.519531 4.933594-6.515625 6.96875-9.84375.636719-1.039062 2.042969-1.78125 3.5-1.6875zm-29.25 6.25c.039063-.003906.199219.019531.46875.1875.539063.335938 1.367188 1.195313 2.28125 2.25.484375.558594 1.078125 1.214844 1.625 1.84375-.679687-.355469-1.417969-.691406-2-1.0625-1.15625-.734375-2.066406-1.492187-2.46875-2.0625-.203125-.285156-.273437-.507812-.28125-.625-.007812-.117187-.015625-.175781.125-.34375.164063-.195312.210938-.183594.25-.1875zm28.25 0c.039063.003906.085938-.007812.25.1875.140625.167969.132813.226563.125.34375-.007812.117188-.078125.339844-.28125.625-.402344.570313-1.3125 1.328125-2.46875 2.0625-.582031.371094-1.320312.707031-2 1.0625.546875-.628906 1.140625-1.285156 1.625-1.84375.914063-1.054687 1.742188-1.914062 2.28125-2.25.269531-.167969.429688-.191406.46875-.1875zm-16.125 5.65625h4c.238281 0 .453125.082031.625.21875.019531.023438.039063.042969.0625.0625.007813.007813.023438-.007812.03125 0 .019531.03125.039063.0625.0625.09375.136719.171875.21875.386719.21875.625v1.125.09375.09375.09375.59375c0 .558594-.441406 1-1 1h-4c-.558594 0-1-.441406-1-1v-.53125c0-.03125 0-.0625 0-.09375s0-.0625 0-.09375 0-.0625 0-.09375 0-.0625 0-.09375v-1.09375c0-.320312.144531-.597656.375-.78125.023438-.019531.042969-.039062.0625-.0625.15625-.105469.355469-.15625.5625-.15625zm-19 6h17v10h-19v-8c0-1.117187.882813-2 2-2zm19 0h4v17 .09375 10.90625h-4v-10.84375c.003906-.050781.003906-.105469 0-.15625v-6c0-.03125 0-.0625 0-.09375zm6 0h17c1.117188 0 2 .882813 2 2v8h-19zm-27 12h19v4h-19zm27 0h19v4h-19zm-27 6h19v10h-17c-1.117187 0-2-.882812-2-2zm27 0h19v8c0 1.117188-.882812 2-2 2h-17z"/></svg>