<svg fill="#666" height="50" viewBox="0 0 50 50" width="50" xmlns="http://www.w3.org/2000/svg"><path d="m27.960938 3.015625c-.597657-.046875-1.207032.027344-1.796875.226563-2.492188.804687-3.707032 3.507812-2.921875 5.886718l1.117187 3.398438-5.285156 1.929687-1.070313-3.25c-.589843-1.886718-2.25-3.058593-4.042968-3.191406-.59375-.042969-1.203125.03125-1.789063.226563-2.5.804687-3.714844 3.507812-2.929687 5.894531l1.148437 3.492187-3.335937 1.21875c-2.355469.832032-3.597657 3.496094-2.835938 5.910157.628906 1.992187 2.410156 3.242187 4.269531 3.242187.578125 0 1.070313-.140625 1.433594-.269531h.007813l3.382812-1.238281 1.625 4.933593-3.863281 1.414063c-2.449219.816406-3.59375 3.53125-2.84375 5.914062.617187 1.957032 2.335937 3.246094 4.261719 3.246094.535156 0 .957031-.140625 1.359375-.246094l.042968-.007812 3.96875-1.433594 1.152344 3.484375v.011719c.667969 1.882812 2.4375 3.191406 4.375 3.191406.582031 0 1.085938-.136719 1.460938-.261719 2.402343-.808593 3.714843-3.472656 2.917968-5.890625l-1.210937-3.675781 5.289062-1.910156 1.167969 3.535156v.007813c.667969 1.882812 2.4375 3.191406 4.375 3.191406.582031 0 1.085938-.136719 1.460938-.261719 2.402343-.8125 3.714843-3.476562 2.917968-5.890625l-1.226562-3.722656 2.488281-.898438.015625-.007812c2.300781-.945313 3.546875-3.601563 2.671875-6.023438-.582031-1.796875-2.164062-3.019531-3.910156-3.175781-.585938-.050781-1.1875.019531-1.777344.226563l-.003906.003906-2.445313.894531-1.617187-4.921875 2.957031-1.078125c2.449219-.816406 3.597656-3.523437 2.847656-5.90625-.5625-1.882812-2.183593-3.078125-3.9375-3.210937-.585937-.046875-1.183593.023437-1.765625.226562l-.003906.003906-3.019531 1.101563-1.039063-3.152344c-.589843-1.886719-2.25-3.058594-4.042968-3.1875zm-.132813 1.976563c1.011719.058593 1.921875.695312 2.265625 1.804687l.003906.007813 1.066407 3.238281-4.921875 1.796875-1.101563-3.335938c-.460937-1.402343.195313-2.902343 1.640625-3.363281h.011719l.003906-.003906c.34375-.117188.691406-.160156 1.03125-.144531zm9.875 5.003906c.953125.050781 1.816406.683594 2.15625 1.816406v.015625c.453125 1.429688-.203125 2.957031-1.570312 3.414063l-.011719.003906-2.941406 1.074219-1.667969-5.0625 3.0625-1.117188c.324219-.117187.652344-.160156.972656-.144531zm-23.875.003906c1.011719.054688 1.921875.695313 2.265625 1.804688l.003906.007812 1.097657 3.332031-4.921875 1.796875-1.132813-3.433593c-.460937-1.402344.195313-2.898438 1.640625-3.363282h.011719l.003906-.003906c.34375-.117187.691406-.160156 1.03125-.140625zm17.960938 1.941406 1.667968 5.0625-4.921875 1.800782-1.667968-5.066407zm-6.800782 2.484375 1.667969 5.0625-5.285156 1.933594-1.667969-5.0625zm-7.164062 2.621094 1.664062 5.0625-4.921875 1.796875-1.664062-5.0625zm16.257812 1.859375 1.621094 4.921875-4.921875 1.796875-1.621094-4.921875zm-23.0625.625 1.667969 5.0625-3.429687 1.25c-.234375.085938-.542969.15625-.769532.15625-.953125 0-1.984375-.65625-2.359375-1.84375-.441406-1.402344.328125-2.976562 1.589844-3.421875zm16.261719 1.859375 1.621094 4.921875-5.285156 1.9375-1.621094-4.925781zm-7.167969 2.617188 1.625 4.929687-4.921875 1.800781-1.625-4.929687zm21.542969 0c.949219.085937 1.835938.757812 2.167969 1.808593l.003906.027344.007813.019531c.511718 1.394532-.242188 2.960938-1.542969 3.5h-.003906l-2.371094.855469-1.710938-5.179687 2.492188-.910157c.3125-.109375.636719-.148437.957031-.121093zm-5.328125 1.71875 1.707031 5.175781-4.929687 1.78125-1.699219-5.15625zm-6.796875 2.488281 1.691406 5.144531-5.289062 1.910156-1.6875-5.117187zm-7.167969 2.625 1.683594 5.113281-4.925781 1.777344-1.679688-5.089844zm16.296875 1.960937 1.210938 3.667969c.449219 1.371094-.320313 2.917969-1.65625 3.371094-.25.082031-.578125.15625-.824219.15625-.972656 0-2.109375-.792969-2.484375-1.855469l-1.175781-3.5625zm-23.097656.527344 1.675781 5.082031-3.917968 1.414063c-.390625.101562-.761719.175781-.828125.175781-1.082032 0-1.96875-.617187-2.355469-1.84375h.003906c-.453125-1.433594.203125-2.964844 1.566406-3.417969l.011719-.003906zm9.113281 4.523438 1.195313 3.625c.449219 1.367187-.320313 2.914062-1.65625 3.367187-.25.082031-.578125.15625-.824219.15625-.972656 0-2.109375-.796875-2.484375-1.855469 0 0-.003906-.003906-.003906-.003906l-1.15625-3.511719z"/></svg>