<svg fill="#666" height="50" viewBox="0 0 50 50" width="50" xmlns="http://www.w3.org/2000/svg"><path d="m25 2c-12.688665 0-23 10.311335-23 23s10.311335 23 23 23 23-10.311335 23-23-10.311335-23-23-23zm0 2c11.607335 0 21 9.392665 21 21s-9.392665 21-21 21-21-9.392665-21-21 9.392665-21 21-21zm0 2c-10.486727 0-19 8.513273-19 19s8.513273 19 19 19 19-8.513273 19-19-8.513273-19-19-19zm0 2c3.972457 0 7.611711 1.3659473 10.501953 3.638672-.5057.619796-.802734 1.414546-.802734 2.261719 0 1.6.90039 2.999609 1.90039 4.599609.8 1.3 1.59961 3.000391 1.59961 5.400391 0 1.7-.5 3.80039-1.5 6.40039l-2 6.59961-7.09961-21.201172c1.2-.1 2.300782-.199219 2.300782-.199219 1-.1.90039-1.599609-.09961-1.599609h-.101562s-3.198828.298828-5.298828.298828c-1.9 0-5.201172-.298828-5.201172-.298828h-.09961c-1 0-1.099609 1.599609-.099609 1.599609 0 0 .999609.099219 2.099609.199219l3.09961 8.40039-4.298828 12.900391-7.201172-21.400391c1.2-.1 2.300781-.199218 2.300781-.199218 1-.1.900391-1.59961-.099609-1.59961h-.09961s-1.311383.107714-2.755859.195313c3.115247-3.666225 7.753234-5.996094 12.955078-5.996094zm12.087891 5.041016c1.36082 1.375477 2.475396 2.988021 3.304687 4.763672-.021171 1.131679-.209268 2.262852-.492187 3.394531-.4-1.4-.9-2.59961-1.5-3.59961l-.201172-.40039c-.8-1.3-1.398438-2.299219-1.398438-3.199219 0-.342555.099359-.680744.28711-.958984zm-13.488282 3.058593h1c.4.1.701172.09961 1.201172.09961l.09961.201172 7.099609 21.199218.697266 1.996094c-.381452.227354-.771751.439157-1.171875.636719l-5.326172-14.232422-.699219-1.900391-.199219-.699218zm-13.132812.09961h.433594l.099609.201172 7.199219 21.40039.601562 1.798828-.34375 1.097657c-.274899-.114356-.537363-.250774-.804687-.378907l-8.1347659-22.324218c.280334-.620231.5993429-1.217313.9492189-1.794922zm31.119141 5.095703c.26435 1.193502.414062 2.430598.414062 3.705078 0 5.25918-2.376798 9.947175-6.113281 13.0625l4.71289-13.662109c.437337-1.112815.752808-2.138966.986329-3.105469zm-33.2187505.177734 6.2128905 16.951172c-4.000725-3.1069-6.580078-7.951869-6.580078-13.423828 0-1.210307.1281354-2.389412.3671875-3.527344zm16.6328125 5.126953 5.341797 14.535157c-1.680372.55404-3.472883.865234-5.341797.865234-1.741372 0-3.41963-.264361-5-.748047z"/></svg>