<svg fill="#666" height="50" viewBox="0 0 50 50" width="50" xmlns="http://www.w3.org/2000/svg"><path d="m18.90625 2c-6.015625 0-10.90625 4.921875-10.90625 10.96875 0 1.703125.738281 3.664063 1.875 5.78125 1.136719 2.117188 2.691406 4.359375 4.40625 6.4375s3.582031 3.988281 5.40625 5.40625c1.226563.953125 2.414063 1.699219 3.59375 2.09375l-.78125 2.3125h1.4375c-.078125.476563-.222656.84375-.375 1.21875-.234375.585938-.5625 1.285156-.5625 2.28125 0 1.273438.652344 2.246094 1.15625 3.0625s.84375 1.480469.84375 1.9375c0 1.972656-.78125 2.875-.78125 2.875-.34375.429688-.277344 1.0625.15625 1.40625.429688.34375 1.0625.277344 1.40625-.15625 0 0 1.21875-1.566406 1.21875-4.125 0-1.242187-.660156-2.164062-1.15625-2.96875-.496094-.804687-.84375-1.492187-.84375-2.03125 0-.570312.175781-.90625.4375-1.5625.195313-.484375.402344-1.113281.5-1.9375h1.5625l-.78125-2.3125c1.179688-.394531 2.367188-1.140625 3.59375-2.09375 1.824219-1.417969 3.691406-3.328125 5.40625-5.40625s3.269531-4.320312 4.40625-6.4375c1.136719-2.117187 1.875-4.078125 1.875-5.78125 0-6.042969-4.890625-10.96875-10.90625-10.96875-2.277344 0-4.347656.796875-6.09375 2-1.746094-1.203125-3.816406-2-6.09375-2zm0 2c2.070313 0 3.953125.710938 5.46875 1.90625.367188.292969.882813.292969 1.25 0 1.515625-1.195312 3.398438-1.90625 5.46875-1.90625 4.925781 0 8.90625 3.996094 8.90625 8.96875 0 1.050781-.601562 2.875-1.65625 4.84375-1.054687 1.96875-2.550781 4.105469-4.1875 6.09375s-3.433594 3.804688-5.09375 5.09375c-1.660156 1.289063-3.203125 2-4.0625 2s-2.402344-.710937-4.0625-2c-1.660156-1.289062-3.457031-3.105469-5.09375-5.09375s-3.132812-4.125-4.1875-6.09375c-1.054687-1.96875-1.65625-3.792969-1.65625-4.84375 0-4.972656 3.980469-8.96875 8.90625-8.96875z"/></svg>