<svg fill="#666" height="50" viewBox="0 0 50 50" width="50" xmlns="http://www.w3.org/2000/svg"><path d="m2.84375 13c-1.558594 0-2.84375 1.285156-2.84375 2.84375v26.15625c0 1.660156 1.339844 3 3 3h4.09375c.476563 2.835938 2.941406 5 5.90625 5s5.429688-2.164062 5.90625-5h9.25c.738281 0 1.398438-.3125 1.90625-.78125.519531.457031 1.183594.773438 1.9375.78125h1.09375c.476563 2.835938 2.941406 5 5.90625 5 3.300781 0 6-2.699219 6-6s-2.699219-6-6-6c-2.964844 0-5.429687 2.164063-5.90625 5h-1.09375c-.1875 0-.472656-.128906-.6875-.34375s-.3125-.472656-.3125-.65625v-19c0-.375.625-1 1-1h8c.785156 0 1.890625.839844 2.65625 1.75.007813.011719.023438.019531.03125.03125l.15625.21875h-4.84375c-1.59375 0-3 1.289063-3 3v4c0 .832031.375 1.5625.90625 2.09375s1.261719.90625 2.09375.90625h10v8c0 .375-.625 1-1 1h-2v2h2c1.660156 0 3-1.339844 3-3v-9.625c0-2.289062-1.59375-4.3125-1.59375-4.3125h-.03125l-4.125-5.5v-.03125l-.03125-.03125c-.921875-1.113281-2.304687-2.5-4.21875-2.5h-8c-.355469 0-.683594.074219-1 .1875v-4.28125c0-1.535156-1.210937-2.90625-2.8125-2.90625zm0 2h25.34375c.429688 0 .8125.414063.8125.90625v26.25c0 .46875-.371094.84375-.84375.84375h-9.25c-.476562-2.835937-2.941406-5-5.90625-5s-5.429687 2.164063-5.90625 5h-4.09375c-.375 0-1-.628906-1-1v-26.15625c0-.46875.367188-.84375.84375-.84375zm35.15625 11h6.34375l2.4375 3.25s.90625 1.550781 1.09375 2.75h-9.875c-.167969 0-.4375-.125-.65625-.34375s-.34375-.488281-.34375-.65625v-4c0-.503906.59375-1 1-1zm-25 14c2.222656 0 4 1.777344 4 4s-1.777344 4-4 4-4-1.777344-4-4 1.777344-4 4-4zm26 0c2.222656 0 4 1.777344 4 4s-1.777344 4-4 4-4-1.777344-4-4 1.777344-4 4-4z"/></svg>