<svg fill="#666" height="50" viewBox="0 0 50 50" width="50" xmlns="http://www.w3.org/2000/svg"><path d="m17.1875 10.9375c-7.765625 0-14.0625 6.296875-14.0625 14.0625s6.296875 14.0625 14.0625 14.0625 14.0625-6.296875 14.0625-14.0625c0-.964844-.105469-1.90625-.289062-2.8125l-.078125-.3125h-13.695313v4.6875h9.375c-.746094 4.433594-4.730469 7.8125-9.375 7.8125-5.179687 0-9.375-4.195312-9.375-9.375 0-5.179687 4.195313-9.375 9.375-9.375 2.34375 0 4.480469.867188 6.125 2.289063l3.359375-3.289063c-2.5-2.289062-5.828125-3.6875-9.484375-3.6875zm21.875 6.25v4.6875h-4.6875v3.125h4.6875v4.6875h3.125v-4.6875h4.6875v-3.125h-4.6875v-4.6875z"/></svg>