<svg fill="#666" height="50" viewBox="0 0 50 50" width="50" xmlns="http://www.w3.org/2000/svg"><path d="m24.90625.96875c-.042969.007813-.085937.019531-.125.03125-.464844.105469-.792969.523438-.78125 1v4c-.003906.359375.183594.695313.496094.878906.3125.179688.695312.179688 1.007812 0 .3125-.183593.5-.519531.496094-.878906v-4c.011719-.289062-.105469-.566406-.3125-.761719-.210937-.199218-.496094-.296875-.78125-.269531zm-14.875 6.15625c-.03125.007813-.0625.019531-.09375.03125-.359375.074219-.648437.34375-.753906.695313-.105469.351562-.007813.734375.253906.992187l2.84375 2.84375c.242188.296875.628906.433594 1.003906.347656.371094-.085937.664063-.378906.75-.75.085938-.375-.050781-.761718-.347656-1.003906l-2.84375-2.84375c-.1875-.199219-.445312-.308594-.71875-.3125-.03125 0-.0625 0-.09375 0zm29.71875 0c-.042969.007813-.085937.019531-.125.03125-.179687.046875-.339844.144531-.46875.28125l-2.84375 2.84375c-.296875.242188-.433594.628906-.347656 1.003906.085937.371094.378906.664063.75.75.375.085938.761719-.050781 1.003906-.347656l2.84375-2.84375c.3125-.296875.402344-.761719.21875-1.152344-.1875-.394531-.601562-.621093-1.03125-.566406zm-14.75 1.875c-7.71875 0-14 6.28125-14 14 0 4.890625 2.191406 8.175781 4.25 10.59375 1.03125 1.207031 2.027344 2.230469 2.71875 3.125s1.03125 1.609375 1.03125 2.28125v3.53125c-.132812.277344-.132812.597656 0 .875v.59375c0 1.644531 1.355469 3 3 3h.78125c.550781.609375 1.335938 1 2.21875 1 .882813 0 1.667969-.390625 2.21875-1h.78125c1.644531 0 3-1.355469 3-3v-.8125c.027344-.132812.027344-.273437 0-.40625v-3.78125c0-.671875.339844-1.394531 1.03125-2.28125s1.6875-1.890625 2.71875-3.09375c2.058594-2.40625 4.25-5.691406 4.25-10.625 0-7.71875-6.28125-14-14-14zm0 2c6.640625 0 12 5.359375 12 12 0 4.359375-1.808594 7.078125-3.75 9.34375-.96875 1.132813-1.972656 2.121094-2.78125 3.15625-.59375.761719-1.019531 1.59375-1.25 2.5h-8.4375c-.230469-.90625-.65625-1.734375-1.25-2.5-.808594-1.042969-1.8125-2.046875-2.78125-3.1875-1.941406-2.277344-3.75-5-3.75-9.3125 0-6.640625 5.359375-12 12-12zm-21.28125 11c-.550781.078125-.9375.589844-.859375 1.140625s.589844.9375 1.140625.859375h4c.359375.003906.695313-.183594.878906-.496094.179688-.3125.179688-.695312 0-1.007812-.183593-.3125-.519531-.5-.878906-.496094h-4c-.03125 0-.0625 0-.09375 0s-.0625 0-.09375 0-.0625 0-.09375 0zm38 0c-.550781.078125-.9375.589844-.859375 1.140625s.589844.9375 1.140625.859375h4c.359375.003906.695313-.183594.878906-.496094.179688-.3125.179688-.695312 0-1.007812-.183593-.3125-.519531-.5-.878906-.496094h-4c-.03125 0-.0625 0-.09375 0s-.0625 0-.09375 0-.0625 0-.09375 0zm-28.84375 12c-.226562.03125-.4375.144531-.59375.3125l-2.84375 2.84375c-.296875.242188-.433594.628906-.347656 1.003906.085937.371094.378906.664063.75.75.375.085938.761719-.050781 1.003906-.347656l2.84375-2.84375c.296875-.285156.386719-.726562.226563-1.105469-.15625-.378906-.535157-.621093-.945313-.613281-.03125 0-.0625 0-.09375 0zm23.9375 0c-.375.066406-.675781.339844-.78125.703125-.105469.367188.003906.757813.28125 1.015625l2.84375 2.84375c.242188.296875.628906.433594 1.003906.347656.371094-.085937.664063-.378906.75-.75.085938-.375-.050781-.761718-.347656-1.003906l-2.84375-2.84375c-.1875-.199219-.445312-.308594-.71875-.3125-.03125 0-.0625 0-.09375 0s-.0625 0-.09375 0zm-15.8125 6h8v2h-5c-.03125 0-.0625 0-.09375 0s-.0625 0-.09375 0c-.550781.050781-.957031.542969-.90625 1.09375s.542969.957031 1.09375.90625h5c0 .566406-.433594 1-1 1h-6c-.566406 0-1-.433594-1-1 .359375.003906.695313-.183594.878906-.496094.179688-.3125.179688-.695312 0-1.007812-.183593-.3125-.519531-.5-.878906-.496094z"/></svg>