<svg fill="#666" height="50" viewBox="0 0 50 50" width="50" xmlns="http://www.w3.org/2000/svg"><path d="m25 2c-12.652344 0-23 9.597656-23 21.5 0 6.507813 3.132813 12.285156 8 16.21875v8.9375l1.46875-.78125 7.21875-3.75c2.015625.539063 4.113281.875 6.3125.875 12.652344 0 23-9.597656 23-21.5s-10.347656-21.5-23-21.5zm0 2c11.644531 0 21 8.757813 21 19.5 0 10.742188-9.355469 19.5-21 19.5-2.164062 0-4.257812-.3125-6.21875-.875l-.375-.09375-.34375.1875-6.0625 3.15625v-6.5625l-.375-.28125c-4.664062-3.589844-7.625-8.992187-7.625-15.03125 0-10.742187 9.355469-19.5 21-19.5zm-2.28125 13.71875-12.03125 12.75 10.8125-6.0625 5.78125 6.1875 11.875-12.875-10.53125 5.90625z"/></svg>