<svg fill="#666" height="50" viewBox="0 0 50 50" width="50" xmlns="http://www.w3.org/2000/svg"><path d="m23.597656 2c-.484375-.003906-.902343.34375-.988281.820313l-.546875 2.992187c-.46875.152344-.921875.335938-1.367187.554688l-2.457032-1.773438c-.394531-.285156-.941406-.246094-1.285156.101563l-2.136719 2.101562c-.34375.34375-.394531.882813-.117187 1.28125l1.726562 2.5c-.226562.441406-.417968.894531-.570312 1.359375l-2.996094.484375c-.480469.074219-.835937.488281-.839844.980469l-.019531 3c-.003906.484375.34375.902344.820313.988281l3.003906.546875c.148437.464844.335937.914063.554687 1.355469l-1.785156 2.46875c-.285156.394531-.246094.941406.097656 1.289062l2.109375 2.132813c.339844.34375.878907.394531 1.277344.117187l2.53125-1.742187c.4375.222656.886719.40625 1.347656.558594l.515625 3.03125c.082032.480468.492188.832031.980469.835937l2.996094.015625c.492187.003906.910156-.351562.992187-.832031l.511719-3.027344c.457031-.148437.902344-.328125 1.335938-.546875l2.511718 1.785156c.398438.28125.9375.234375 1.28125-.105468l2.136719-2.105469c.347656-.34375.394531-.890625.109375-1.292969l-1.78125-2.5c.222656-.433594.410156-.875.5625-1.328125l3.042969-.515625c.476562-.082031.828125-.496094.832031-.984375l.015625-2.996094c.003906-.488281-.347656-.90625-.832031-.988281l-3.015625-.511719c-.148438-.460937-.332031-.910156-.546875-1.351562l1.773437-2.503906c.285157-.394532.242188-.933594-.101562-1.28125l-2.109375-2.132813c-.34375-.34375-.890625-.394531-1.289063-.109375l-2.476562 1.757813c-.4375-.222657-.882813-.410157-1.339844-.5625l-.484375-3.007813c-.078125-.484375-.492187-.839844-.984375-.84375zm.828125 2.003906 1.3125.007813.433594 2.703125c.0625.394531.355469.710937.738281.808594.734375.1875 1.441407.488281 2.105469.890625.339844.210937.773438.195312 1.097656-.035157l2.230469-1.582031.921875.929688-1.605469 2.25c-.226562.324218-.246093.75-.042968 1.089843.394531.667969.683593 1.378907.855468 2.109375.09375.390625.410157.6875.808594.757813l2.714844.457031-.007813 1.308594-2.742187.460937c-.390625.066407-.707031.359375-.804688.742188-.183593.726562-.476562 1.429687-.878906 2.085937-.207031.34375-.191406.777344.042969 1.101563l1.597656 2.253906-.925781.917969-2.269531-1.609375c-.324219-.230469-.75-.246094-1.089844-.042969-.664063.394531-1.367188.675781-2.097656.855469-.390625.09375-.683594.410156-.75.804687l-.460938 2.726563-1.304687-.011719-.460938-2.734375c-.066406-.390625-.359375-.707031-.75-.800781-.722656-.179688-1.433594-.476563-2.097656-.875-.335938-.203125-.761719-.191406-1.085938.035156l-2.277343 1.570313-.921875-.933594 1.605468-2.21875c.234375-.324219.253907-.757813.046875-1.101563-.394531-.667968-.683593-1.378906-.863281-2.113281-.09375-.382812-.402344-.675781-.792969-.75l-2.703125-.488281.011719-1.3125 2.691406-.433594c.394532-.0625.714844-.355469.8125-.742187.1875-.738282.480469-1.449219.886719-2.113282.207031-.335937.195313-.765625-.03125-1.089843l-1.550781-2.25.929687-.921875 2.210938 1.59375c.320312.234375.75.253906 1.09375.054687.671875-.402344 1.386719-.6875 2.125-.867187.386719-.089844.679687-.402344.75-.789063zm.5625 6.03125c-1.285156-.007812-2.574218.472657-3.554687 1.445313-1.960938 1.9375-1.976563 5.128906-.039063 7.09375 1.9375 1.960937 5.132813 1.976562 7.09375.039062 1.960938-1.9375 1.976563-5.132812.039063-7.09375-.96875-.980468-2.253906-1.476562-3.539063-1.484375zm-.007812 1.988282c.769531.003906 1.535156.304687 2.125.902343 1.179687 1.191407 1.167969 3.085938-.023438 4.261719-1.191406 1.179688-3.085937 1.171875-4.265625-.019531-1.179687-1.195313-1.167968-3.089844.023438-4.265625.597656-.589844 1.367187-.882813 2.140625-.878906zm-10.558594 15.976562c-2.609375 0-3.8125.625-5.109375 1.125v.003906c-2.488281.96875-6.746094 2.976563-6.746094 2.976563-.5.234375-.714843.832031-.480468 1.332031.238281.5.835937.714844 1.335937.480469 0 0 4.285156-2.019531 6.613281-2.925781 1.4375-.558594 2.0625-.992188 4.386719-.992188 5.128906 0 4.921875 2.226563 7.085938 3.5.03125.019531.066406.039063.101562.050781 2.683594 1.203125 5.566406 1.449219 7.890625 1.449219 1.027344 0 1.675781.238281 2.027344.503906.347656.269532.472656.546875.472656.996094 0 .527344-.132812.777344-.480469 1.03125-.34375.25-1.007812.46875-2.019531.46875h-5.25c-2.203125 0-5.996094-.96875-5.996094-.96875-.34375-.09375-.714843.007813-.96875.261719-.253906.253906-.351562.625-.257812.96875.097656.347656.371094.617187.71875.707031 0 0 3.761719 1.03125 6.503906 1.03125h5.25c1.019531 0 1.90625-.167969 2.648438-.535156.097656-.027344.191406-.070313.273437-.128906l9.484375-6.222657c1.425781-.824218 2.398438-1.054687 2.96875-1.046875.570313.011719.765625.183594.9375.402344.253906.328125.269531.453125.105469.832031-.167969.382813-.65625.972657-1.535156 1.582032 0 0 0 0-.003907 0-1.085937.757812-13.230468 8.671875-14.632812 9.46875-1.058594.601562-1.898438 1.234375-2.855469 1.503906-.957031.265625-2.085937.265625-3.953125-.625-1.246094-.597656-6.550781-3.316406-8.269531-4.1875-.957031-.484375-1.773438-.757813-2.605469-.710938-.835937.046875-1.542969.402344-2.273437.863282-.003907 0-.007813.003906-.007813.007812l-2.476562 1.582031c-.3125.1875-.496094.53125-.484375.894532.011718.363281.222656.691406.546875.855468.328125.164063.714843.140625 1.015625-.066406l2.464843-1.578125c.636719-.398437.996094-.542969 1.324219-.5625s.777344.085938 1.59375.5c1.703125.863281 6.925781 3.542969 8.3125 4.203125 2.175781 1.042969 3.9375 1.140625 5.347656.75 1.410157-.394531 2.414063-1.183594 3.308594-1.691406 1.929688-1.097656 13.394531-8.597656 14.789063-9.566406 1.058593-.738282 1.835937-1.507813 2.230468-2.429688.394532-.921875.265625-2.046875-.363281-2.851562 0 0 0 0 0-.003907-.496094-.632812-1.375-1.148437-2.480469-1.171875-.628906-.011718-1.328125.132813-2.105468.417969-.144532-.191406-.363282-.441406-.664063-.660156-.582031-.433594-1.507812-.824219-2.765625-.824219-.644531 0-1.171875.148438-1.59375.324219-.601562-.574219-1.667969-1.304688-3.21875-1.304688-1.257812 0-2.4375.421875-3.257812.90625-.152344.089844-.519532.320313-1.144532.710938s-1.441406.894531-2.246093 1.398437c-1.285157.800782-2.082032 1.300782-2.542969 1.589844-.980469-.195312-1.960938-.472656-2.886719-.878906-.789062-.507813-2.308594-3.746094-8.0625-3.746094zm20.140625 2.019531c.632813 0 1.085938.160157 1.40625.347657l-4.625 2.867187c-.550781-.15625-1.167969-.234375-1.84375-.234375-.289062 0-.605469-.019531-.90625-.03125.1875-.117187.1875-.117187.378906-.234375.804688-.503906 1.617188-1.011719 2.246094-1.402344.625-.386718 1.136719-.703125 1.101563-.683593.472656-.28125 1.5-.628907 2.242187-.628907zm4.8125.980469c.8125 0 1.25.207031 1.515625.390625-.015625.007813-.027344.015625-.042969.027344l-6.910156 4.53125c-.09375-.558594-.324219-1.09375-.691406-1.539063l4.832031-2.996093.003906-.007813c.039063-.019531.875-.40625 1.292969-.40625z"/></svg>