<svg fill="#666" height="50" viewBox="0 0 50 50" width="50" xmlns="http://www.w3.org/2000/svg"><path d="m.8125 0c-.476562.0898438-.8203125.511719-.8125 1v12c0 .550781.449219 1 1 1h12c.550781 0 1-.449219 1-1v-12c0-.550781-.449219-1-1-1h-12c-.03125 0-.0625 0-.09375 0s-.0625 0-.09375 0zm1.1875 2h10v10h-10zm8.25 1.34375-3.84375 4.28125-2.75-2.375-1.3125 1.5 3.5 3 .75.65625.65625-.75 4.5-5zm9.75 2.6875v1.9375h30v-1.9375zm-19.1875 11.96875c-.476562.089844-.8203125.511719-.8125 1v12c0 .550781.449219 1 1 1h12c.550781 0 1-.449219 1-1v-12c0-.550781-.449219-1-1-1h-12c-.03125 0-.0625 0-.09375 0s-.0625 0-.09375 0zm1.1875 2h10v10h-10zm8.25 1.34375-3.84375 4.28125-2.75-2.375-1.3125 1.5 3.5 3 .75.65625.65625-.75 4.5-5zm9.75 2.6875v1.9375h30v-1.9375zm-19.1875 11.96875c-.476562.089844-.8203125.511719-.8125 1v12c0 .550781.449219 1 1 1h12c.550781 0 1-.449219 1-1v-12c0-.550781-.449219-1-1-1h-12c-.03125 0-.0625 0-.09375 0s-.0625 0-.09375 0zm1.1875 2h10v10h-10zm18 4.03125v1.9375h30v-1.9375z"/></svg>