<svg fill="#666" height="50" viewBox="0 0 50 50" width="50" xmlns="http://www.w3.org/2000/svg"><path d="m26 2c-12.691406 0-23 10.308594-23 23s10.308594 23 23 23c9.917969 0 15.972656-4.5625 19.125-10.21875s3.550781-12.300781 2.59375-16.84375l-.1875-.78125h-.78125l-20.75-.03125h-1v10.40625h11.4375c-1.726562 4-5.242187 6.75-10.4375 6.75-6.789062 0-12.28125-5.492187-12.28125-12.28125 0-6.789062 5.492188-12.28125 12.28125-12.28125 3.050781 0 5.820313 1.128906 7.96875 2.96875l.71875.59375 6.84375-6.84375.71875-.75-.75-.6875c-4.085937-3.722656-9.539062-6-15.5-6zm0 2c5.074219 0 9.652344 1.855469 13.28125 4.84375l-4.8125 4.8125c-2.378906-1.777344-5.269531-2.9375-8.46875-2.9375-7.871094 0-14.28125 6.410156-14.28125 14.28125s6.410156 14.28125 14.28125 14.28125c6.550781 0 11.261719-4.015625 12.9375-9.46875l.40625-1.28125h-12.34375v-6.40625l18.84375.03125c.664063 4.035156.222656 9.828125-2.46875 14.65625-2.859375 5.125-8.054687 9.1875-17.375 9.1875-11.613281 0-21-9.390625-21-21s9.386719-21 21-21z"/></svg>