<svg fill="#666" height="50" viewBox="0 0 50 50" width="50" xmlns="http://www.w3.org/2000/svg"><path d="m7 2v46h36v-32.589844l-13.816406-13.410156zm2 2h19v13h13v29h-32zm21 1.578125 9.707031 9.421875h-9.707031zm-3.59375 17.675781c-2.117187 0-3.15625 2.191407-3.15625 4.730469 0 2.554688.855469 4.785156 3.027344 4.785156 1.816406 0 3.097656-1.417968 3.097656-4.921875 0-2.125-.652344-4.59375-2.96875-4.59375zm-11.394531.109375-.699219 9.296875h1.609375l.15625-3.226562c.054688-.925781.113281-2.097656.140625-3.105469h.042969c.140625 1.007813.398437 2.164063.582031 2.910156l.796875 3.269532h1.316406l.824219-3.324219c.1875-.71875.441406-1.863281.613281-2.855469h.042969c-.03125.992188.042969 2.191406.082031 3.078125l.171875 3.253906h1.664063l-.585938-9.296875h-1.957031l-.753906 3.367188c-.257813 1.171875-.46875 2.21875-.609375 3.253906h-.027344c-.171875-1.050781-.414062-2.082031-.683594-3.253906l-.769531-3.367188zm14.734375 0 2.144531 9.296875h2.089844l2.1875-9.296875h-2.046875l-.652344 3.976563c-.171875 1.046875-.328125 2.160156-.453125 3.265625h-.03125c-.128906-1.089844-.324219-2.234375-.496094-3.226563l-.679687-4.015625zm-3.410156 1.460938c.839843 0 1.09375 1.476562 1.09375 3.105469 0 1.890625-.300782 3.269531-1.082032 3.269531-.75 0-1.164062-1.078125-1.164062-3.1875 0-2 .414062-3.1875 1.152344-3.1875z"/></svg>