<svg fill="#666" height="50" viewBox="0 0 50 50" width="50" xmlns="http://www.w3.org/2000/svg"><path d="m25 3c-2.207031 0-4 1.792969-4 4 0 1.859375 1.28125 3.410156 3 3.859375v3.140625h-8.96875c-4.429687 0-8.03125 3.601563-8.03125 8.03125v3.96875h-5v12h5v9h36v-9h5v-12h-5v-3.96875c0-4.429687-3.601562-8.03125-8.03125-8.03125h-8.96875v-3.140625c1.722656-.449219 3-2 3-3.859375 0-2.207031-1.792969-4-4-4zm0 2c1.101563 0 2 .898438 2 2 0 1.101563-.898437 2-2 2-1.101562 0-2-.898437-2-2 0-1.101562.898438-2 2-2zm-9.96875 11h19.9375c3.324219 0 6.03125 2.707031 6.03125 6.03125v22.96875h-6v-8h-20v8h-6v-22.96875c0-3.324219 2.707031-6.03125 6.03125-6.03125zm3.46875 6c-2.480469 0-4.5 2.019531-4.5 4.5s2.019531 4.5 4.5 4.5 4.5-2.019531 4.5-4.5-2.019531-4.5-4.5-4.5zm13 0c-2.480469 0-4.5 2.019531-4.5 4.5s2.019531 4.5 4.5 4.5 4.5-2.019531 4.5-4.5-2.019531-4.5-4.5-4.5zm-13 2c1.378906 0 2.5 1.121094 2.5 2.5s-1.121094 2.5-2.5 2.5-2.5-1.121094-2.5-2.5 1.121094-2.5 2.5-2.5zm13 0c1.378906 0 2.5 1.121094 2.5 2.5s-1.121094 2.5-2.5 2.5-2.5-1.121094-2.5-2.5 1.121094-2.5 2.5-2.5zm-27.5 4h3v8h-3zm39 0h3v8h-3zm-26 11h4v6h-4zm6 0h4v6h-4zm6 0h4v6h-4z"/></svg>