<svg fill="#666" height="50" viewBox="0 0 50 50" width="50" xmlns="http://www.w3.org/2000/svg"><path d="m47.507813 12.441406c-.046875-.066406-.097657-.132812-.15625-.191406-.050782-.054687-.101563-.109375-.160157-.15625-.136718-.121094-.28125-.230469-.449218-.3125l-11.964844-6.0625-.710938-.359375h-.003906c-.222656-.113281-.460937-.199219-.703125-.257812-.265625-.066407-.539062-.101563-.808594-.101563-1.199218 0-2.324218.628906-2.941406 1.636719l-1.765625 2.910156-5.265625 8.664063-2.839844-5.554688c-.21875-.359375-.523437-.640625-.886718-.824219l-12.011719-6.078125c0-.003906-.003906-.003906-.007813-.007812l-.378906-.1875c-.5-.253906-1.015625-.382813-1.53125-.382813-1.664062 0-2.921875 1.347657-2.921875 3.136719v27.054688c0 1.476562.949219 3.027343 2.261719 3.691406l10.898437 5.515625c.554688.28125 1.121094.425781 1.6875.425781 1.828125 0 3.152344-1.4375 3.152344-3.421875v-8.730469l22 11.152344v-.011719l.769531.390625c.671875.339844 1.34375.511719 2 .511719 1.871094 0 3.230469-1.394531 3.230469-3.3125v-27.742187c0-.523438-.1875-1-.492187-1.394532zm-29.507813 29.136719c0 .890625-.476562 1.421875-1.152344 1.421875-.238281 0-.503906-.066406-.785156-.207031l-10.898437-5.519531c-.640625-.324219-1.164063-1.183594-1.164063-1.90625v-27.054688c0-.714844.378906-1.136719.921875-1.136719.191406 0 .40625.050782.628906.164063l.382813.195312h.003906l12.011719 6.082032c.019531.011718.035156.03125.050781.046875zm12.585938-32.695312.734375-1.207032c.261718-.429687.742187-.675781 1.230468-.675781.113282 0 .230469.015625.34375.046875.085938.019531.175782.050781.269532.097656l12.667968 6.414063c.003907 0 .003907.003906.003907.003906l.011718.003906c.007813.003907.007813.015625.015625.019532.0625.050781.089844.136718.046875.207031l-12.617187 20.765625-1.289063 2.117187-8.359375-16.371093zm-10.585938 21.722656v-13.042969l8.980469 17.59375-8.078125-4.089844zm26 10.972656c0 .835938-.496094 1.3125-1.226562 1.3125-.328125 0-.703125-.09375-1.097657-.292969l-1.808593-.917968-8.078125-4.089844 12.210937-20.09375z"/></svg>