<svg fill="#666" height="50" viewBox="0 0 50 50" width="50" xmlns="http://www.w3.org/2000/svg"><path d="m19 1c-.522222 0-1.05461.1913289-1.431641.5683594-.37703.3770305-.568359.9094184-.568359 1.4316406h-8c-1.654 0-3 1.346-3 3v38c0 1.654 1.346 3 3 3h32c1.388 0 2.559391-.946516 2.900391-2.228516.065-.246.099609-.505484.099609-.771484v-38c0-1.654-1.346-3-3-3h-8c0-.5222222-.191329-1.0546101-.568359-1.4316406-.377031-.3770305-.909419-.5683594-1.431641-.5683594zm0 2h12v6h-12zm-10 2h8v2h-7v36h30v-36h-7v-2h8c.551 0 1 .448 1 1v38c0 .552-.449 1-1 1h-32c-.551 0-1-.448-1-1v-38c0-.552.449-1 1-1zm3 4h5c0 .5222222.191329 1.05461.568359 1.431641.377031.37703.909419.568359 1.431641.568359h12c.522222 0 1.05461-.191329 1.431641-.568359.37703-.377031.568359-.9094188.568359-1.431641h5v32h-26zm18.917969 8.001953c-.282375.008875-.562985.057485-.833985.146485-.396961.129563-.76745.353396-1.091796.654296l-.007813-.007812-.003906-.00586-11.654297 11.654297c-.124.124-.213766.277266-.259766.447266l-1.033203 3.849609c-.093.345.006766.713797.259766.966797.19.19.445031.292969.707031.292969.087 0 .174766-.010203.259766-.033203l3.849609-1.033203c.17-.046.323266-.135766.447266-.259766l11.654297-11.654297-.00586-.003906-.005859-.005859c.349839-.377276.589793-.819748.708984-1.289063.15-.592.116438-1.219922-.101562-1.794922-.145-.383-.371688-.743734-.679688-1.052734-.392-.392-.867187-.651297-1.367187-.779297-.2755-.0705-.559422-.100672-.841797-.091797zm-1.111328 2.789063 1.402343 1.402343-10.876953 10.876953-1.917969.515626.515626-1.917969z"/></svg>