<svg fill="#666" height="50" viewBox="0 0 50 50" width="50" xmlns="http://www.w3.org/2000/svg"><path d="m19.546875 3c-9.582031 0-17.546875 6.960938-17.546875 15.714844 0 4.203125 1.878906 8.019531 4.859375 10.835937l-.09375.460938c-.671875 1.96875-2.324219 3.082031-3.304687 3.4375-.570313.203125-1.042969.511719-1.304688 1.050781-.257812.535156-.101562 1.277344.289063 1.664063.914062.917968 2.101562.828125 2.96875.835937 3.261718.039063 7.105468-1.671875 9.433593-2.835937l.027344-.011719.796875-.460938-.304687-.09375.035156.007813c1.296875.300781 2.65625.394531 3.992187.394531 8.425782 0 15.675782-5.035156 17.277344-12.28125v-.003906c.214844-.964844.328125-1.96875.328125-3 0-8.746094-7.871094-15.714844-17.453125-15.714844zm0 2c8.617188 0 15.453125 6.171875 15.453125 13.714844 0 .886719-.097656 1.746094-.28125 2.570312-1.367187 6.1875-7.691406 10.714844-15.324219 10.714844-1.234375 0-2.449218-.09375-3.535156-.34375l-.4375-.128906-1.480469.851562c-2.210937 1.105469-6.023437 2.652344-8.503906 2.621094-.339844 0-.371094-.066406-.609375-.09375 1.421875-.695312 3.0625-1.957031 3.84375-4.277344l.015625-.050781.359375-1.6875-.441406-.390625c-2.863281-2.503906-4.605469-5.976562-4.605469-9.785156 0-7.535156 6.929688-13.714844 15.546875-13.714844zm-8.546875 7v2h17v-2zm0 5v2h17v-2zm27.785156 4.195313c-.050781.320312-.085937.640625-.15625.957031-.078125.34375-.179687.679687-.28125 1.019531 4.605469 1.777344 7.636719 5.359375 7.636719 9.339844 0 2.855469-1.484375 5.523437-4.1875 7.519531l-.542969.402344.167969.65625c.539063 2.066406 2.429688 3.132812 3.738281 3.84375-2.074218.28125-6.582031-.1875-8.847656-2.867188l-.378906-.453125-.578125.117188c-.910156.179687-1.964844.269531-3.230469.269531-6.21875 0-11.269531-2.410156-13.234375-6.015625-.8125-.015625-1.570312-.070312-2.28125-.15625 1.855469 4.914063 7.820313 8.171875 15.515625 8.171875 1.152344 0 2.15625-.070312 3.058594-.207031 2.207031 2.234375 5.804687 3.203125 8.71875 3.203125.191406 0 .382812-.003906.566406-.011719 1.691406-.078125 2.792969-.46875 3.28125-1.160156.214844-.3125.289063-.679688.203125-1.039063-.167969-.714843-.824219-1.066406-1.734375-1.554687-.894531-.484375-2.070312-1.121094-2.621094-2.070313 2.800782-2.3125 4.386719-5.421875 4.386719-8.648437 0-4.90625-3.667969-9.285156-9.199219-11.316406zm-27.785156.804687v2h12v-2zm25.015625 6c-.5.703125-1.050781 1.375-1.65625 2h4.640625v-2zm-5.425781 5c-1.378906.828125-2.890625 1.503906-4.496094 2h12.90625v-2z"/></svg>