<svg fill="#666" height="50" viewBox="0 0 50 50" width="50" xmlns="http://www.w3.org/2000/svg"><path d="m15 7c-7.144531 0-13 5.855469-13 13 0 14.761719 16.695313 22.046875 22.375 26.78125.367188.292969.882813.292969 1.25 0 5.679688-4.734375 22.375-12.019531 22.375-26.78125 0-7.144531-5.855469-13-13-13-2.257812 0-4.320312.558594-6.15625 1.53125-.265625.128906-.460937.371094-.53125.65625l-1.28125 5.59375c-.066406.296875.003906.605469.191406.839844.191407.238281.476563.375.777344.378906h2.21875l-3.0625 7.625c-.125.308594-.085937.660156.101563.9375s.5.441406.835937.4375h.8125l-4.15625 6.71875 1.21875-5.5c.066406-.296875-.003906-.605469-.191406-.839844-.191406-.238281-.476563-.375-.777344-.378906h-1.90625l2.65625-7.6875c.097656-.300781.050781-.632812-.136719-.894531-.183593-.257813-.480468-.414063-.800781-.417969h-3l1.0625-5.625c.066406-.367187-.078125-.742187-.375-.96875-2.078125-1.53125-4.695312-2.40625-7.5-2.40625zm0 2c2.175781 0 4.140625.65625 5.78125 1.71875l-1.15625 6.09375c-.054687.289063.019531.589844.207031.820313.1875.226562.464844.363281.761719.367187h2.8125l-2.65625 7.6875c-.097656.300781-.050781.632813.136719.894531.183594.257813.480469.414063.800781.417969h2.0625l-2.21875 9.96875c-.09375.46875.15625.9375.597656 1.117188.441407.183593.949219.027343 1.214844-.367188l8.21875-13.1875c.195313-.3125.203125-.707031.019531-1.027344-.179687-.320312-.527343-.515625-.894531-.503906h-1.09375l3.03125-7.625c.125-.308594.085938-.660156-.101562-.9375s-.5-.441406-.835938-.4375h-2.4375l.90625-3.875c1.464844-.710937 3.050781-1.125 4.84375-1.125 6.054688 0 11 4.945313 11 11 0 12.898438-14.40625 19.574219-21 24.78125-6.59375-5.207031-21-11.882812-21-24.78125 0-6.054687 4.945313-11 11-11z"/></svg>