<svg fill="#666" height="50" viewBox="0 0 50 50" width="50" xmlns="http://www.w3.org/2000/svg"><path d="m34.21875 5.46875c-5.980469 0-10.84375 4.863281-10.84375 10.84375 0 .359375.089844.710938.125 1.0625-7.394531-.707031-13.933594-4.269531-18.375-9.71875-.207031-.261719-.527344-.402344-.863281-.378906-.332031.023437-.628906.214844-.792969.503906-.933594 1.605469-1.46875 3.453125-1.46875 5.4375 0 2.402344.859375 4.601563 2.1875 6.40625-.257812-.113281-.539062-.175781-.78125-.3125-.308594-.164062-.679687-.15625-.980469.023438-.300781.179687-.484375.503906-.488281.851562v.125c0 3.683594 1.90625 6.882813 4.71875 8.84375-.03125-.003906-.0625.007813-.09375 0-.34375-.058594-.691406.0625-.921875.324219s-.304687.625-.203125.957031c1.117188 3.472656 3.96875 6.125 7.5 7.09375-2.8125 1.671875-6.074219 2.65625-9.59375 2.65625-.761719 0-1.492187-.039062-2.21875-.125-.46875-.0625-.917969.210938-1.0742187.65625-.1601563.445313.015625.941406.4179687 1.1875 4.511719 2.894531 9.867188 4.59375 15.625 4.59375 9.332031 0 16.652344-3.898437 21.5625-9.46875 4.910156-5.570312 7.46875-12.804687 7.46875-19.5625 0-.285156-.023437-.5625-.03125-.84375 1.832031-1.402344 3.46875-3.046875 4.75-4.96875.253906-.371094.226563-.867187-.066406-1.210937-.289063-.34375-.777344-.449219-1.183594-.257813-.515625.230469-1.117187.253906-1.65625.4375.710938-.949219 1.320313-1.972656 1.6875-3.125.125-.394531-.011719-.828125-.335937-1.085937-.324219-.253907-.777344-.285157-1.132813-.070313-1.707031 1.011719-3.597656 1.722656-5.59375 2.15625-1.9375-1.8125-4.488281-3.03125-7.34375-3.03125zm0 2c2.550781 0 4.855469 1.089844 6.46875 2.8125.242188.25.597656.355469.9375.28125 1.304688-.257812 2.542969-.636719 3.75-1.125-.695312.9375-1.554687 1.738281-2.5625 2.34375-.457031.222656-.671875.75-.503906 1.230469.164062.476562.664062.753906 1.160156.644531 1-.121094 1.890625-.527344 2.84375-.78125-.855469.925781-1.792969 1.761719-2.8125 2.5-.277344.203125-.429687.53125-.40625.875.015625.40625.03125.808594.03125 1.21875 0 6.25-2.398437 13.035156-6.96875 18.21875-4.570312 5.183594-11.28125 8.8125-20.0625 8.8125-3.988281 0-7.753906-.882812-11.15625-2.4375 4.21875-.324219 8.109375-1.816406 11.25-4.28125.328125-.261719.457031-.699219.324219-1.097656-.132813-.398438-.5-.671875-.917969-.683594-3.296875-.058594-6.058594-1.976562-7.53125-4.6875h.15625c.988281 0 1.964844-.125 2.875-.375.4375-.128906.738281-.535156.722656-.992187-.015625-.457032-.339843-.847657-.785156-.945313-3.558594-.71875-6.226562-3.617187-6.84375-7.21875 1.007813.347656 2.039063.621094 3.15625.65625.457031.027344.871094-.257812 1.011719-.691406s-.03125-.910156-.417969-1.152344c-2.375-1.589844-3.9375-4.296875-3.9375-7.375 0-1.140625.296875-2.1875.6875-3.1875 5 5.488281 12 9.132813 19.90625 9.53125.3125.015625.617188-.113281.820313-.351562.203125-.242188.28125-.5625.210937-.867188-.152344-.648437-.25-1.335937-.25-2.03125 0-4.898437 3.945313-8.84375 8.84375-8.84375z"/></svg>