<svg fill="#666" height="50" viewBox="0 0 50 50" width="50" xmlns="http://www.w3.org/2000/svg"><path d="m19 0c-6.847656 0-11.746094 5.847656-11.9375 13.09375-.003906.144531-.0625.261719-.0625.40625.007813.472656.34375.878906.808594.976563.460937.097656.929687-.140625 1.128906-.570313 2.21875-5.226562 7.855469-6.695312 11.78125-5.46875-2.695312.199219-5.425781.742188-7.78125 2.1875-3.417969 2.097656-5.9375 5.75-5.9375 10.875 0 3.75.851563 7.253906 3.09375 11.84375.207031.394531.644531.605469 1.078125.527344.4375-.078125.773438-.429688.828125-.871094.824219-7.609375 3.976563-11.820312 7.46875-14.34375 1.835938-1.328125 3.765625-2.160156 5.53125-2.71875-.128906 14.464844-4.679687 22.015625-9.15625 26.03125-4.613281 4.136719-9.125 4.53125-9.125 4.53125-.03125 0-.0625 0-.09375 0-3.226562-1.070312-5.0625-2.3125-5.0625-2.3125-.214844-.160156-.484375-.226562-.75-.1875-.398437.074219-.7148437.382813-.796875.78125-.0820313.398438.085938.804688.421875 1.03125 0 0 5.976563 4.1875 15.5625 4.1875 3.464844 0 6.386719-.777344 9.125-1.625.058594-.019531.128906-.011719.1875-.03125.097656-.015625.191406-.046875.28125-.09375.011719-.003906.019531-.027344.03125-.03125.308594-.097656.632813-.183594.9375-.28125 3.144531-1 6.074219-1.9375 9.4375-1.9375 6.722656 0 12.4375 3.8125 12.4375 3.8125.285156.273438.703125.351563 1.070313.199219.363281-.148438.605468-.5.617187-.894531.011719-.394532-.207031-.757813-.5625-.929688 0 0-6.085937-4.1875-13.5625-4.1875-3.101562 0-5.785156.742188-8.40625 1.5625.746094-1.429687 1.339844-3.132812 1.84375-5 .828125-3.074219 1.371094-6.625 1.75-10.09375.699219-6.398437.800781-12.445312.8125-15.1875 2.933594.578125 5.460938 2.023438 7.375 4.25 2.539063 2.953125 4.011719 7.339844 3.625 13.1875-.027344.445313.238281.851563.652344 1.011719.417969.15625.886719.027344 1.160156-.324219 3.332031-4.339844 5.1875-7.488281 5.1875-11.5 0-5.199219-3.859375-8.738281-8.09375-10.71875-3.117187-1.457031-6.191406-1.941406-8.8125-1.96875.050781-.035156.039063-.058594.09375-.09375.929688-.578125 2.125-1.074219 3.5-1.125h.03125c2.710938.007813 7.210938 1.28125 9.9375 4.28125.304688.328125.785156.421875 1.1875.226563.402344-.195313.632813-.628907.5625-1.070313-.671875-4.230469-1.976562-7.078125-3.75-8.90625-1.773437-1.828125-3.996094-2.53125-6.15625-2.53125-4.820312 0-8.566406 2.917969-9.46875 3.65625-2.964844-2.699219-7.035156-3.65625-10.03125-3.65625zm0 2c2.773438 0 6.835938 1 9.25 3.59375.367188.40625.988281.445313 1.40625.09375 0 0 4.480469-3.6875 8.84375-3.6875 1.742188 0 3.308594.515625 4.6875 1.9375.953125.984375 1.722656 2.6875 2.375 4.8125-2.941406-1.960937-6.363281-2.75-8.875-2.75-.011719 0-.019531 0-.03125 0-1.8125.058594-3.375.664063-4.5625 1.40625-1.1875.742188-1.992187 1.515625-2.40625 2.34375-.175781.355469-.132812.78125.117188 1.089844s.65625.445312 1.039062.347656c1.78125-.433594 6.378906.046875 10.21875 1.84375s6.9375 4.675781 6.9375 8.875c0 2.554688-1.203125 4.875-3.03125 7.59375-.257812-4.675781-1.679687-8.539062-4.0625-11.3125-2.9375-3.421875-7.203125-5.1875-11.90625-5.1875-.050781-.003906-.105469-.003906-.15625 0-.847656.125-1.945312.316406-3.15625.625-.011719 0-.019531 0-.03125 0-2.214844.566406-4.855469 1.554688-7.375 3.375-3.289062 2.378906-6.203125 6.339844-7.59375 12.3125-1.050781-2.789062-1.6875-5.292969-1.6875-7.8125 0-4.476562 2.066406-7.324219 5-9.125s6.804688-2.4375 10.09375-2.0625c.425781.050781.839844-.175781 1.03125-.5625.1875-.382812.113281-.847656-.1875-1.15625-3.652344-3.746094-10.839844-3.59375-15.25.78125 1.359375-4.375 4.808594-7.375 9.3125-7.375zm10.09375 13h.0625c.285156.003906.566406.046875.84375.0625-.007812 2.613281-.082031 8.796875-.78125 15.21875-.371094 3.40625-.933594 6.832031-1.71875 9.75-.761719 2.824219-1.761719 5.164063-2.90625 6.46875-2.675781.820313-5.414062 1.5-8.59375 1.5-1.996094 0-3.8125-.175781-5.4375-.46875 1.886719-.714844 4.257813-1.941406 6.625-4.0625 4.972656-4.457031 9.789063-12.828125 9.8125-28.0625.777344-.175781 1.496094-.316406 2.09375-.40625z"/></svg>