<svg fill="#666" height="50" viewBox="0 0 50 50" width="50" xmlns="http://www.w3.org/2000/svg"><path d="m25 2c-12.690705 0-23 10.309295-23 23s10.309295 23 23 23 23-10.309295 23-23-10.309295-23-23-23zm0 2c11.609824 0 21 9.390176 21 21s-9.390176 21-21 21-21-9.390176-21-21 9.390176-21 21-21zm0 7c-7.72039 0-14 6.27961-14 14s6.27961 14 14 14c6.218645 0 11.499726-4.066356 13.318359-9.691406a1.0001 1.0001 0 0 0 -.953125-1.308594h-4.3125a1.0001 1.0001 0 0 0 -.894531.554688c-1.310529 2.632616-4.012174 4.445312-7.158203 4.445312-4.430666 0-8-3.569334-8-8s3.569334-8 8-8c3.147138 0 5.848684 1.812939 7.158203 4.445312a1.0001 1.0001 0 0 0 .894531.554688h4.3125a1.0001 1.0001 0 0 0 .953125-1.308594c-1.818633-5.62505-7.099714-9.691406-13.318359-9.691406zm0 2c4.822438 0 8.843102 2.909534 10.751953 7h-2.181641c-1.734436-2.964651-4.894322-5-8.570312-5-5.511334 0-10 4.488666-10 10s4.488666 10 10 10c3.675057 0 6.833099-2.03568 8.568359-5h2.183594c-1.908851 4.090466-5.929515 7-10.751953 7-6.63961 0-12-5.36039-12-12s5.36039-12 12-12z"/></svg>