<svg fill="#666" height="50" viewBox="0 0 50 50" width="50" xmlns="http://www.w3.org/2000/svg"><path d="m22.3125 4.28125c-.382812.039063-.710937.292969-.84375.65625l-15 38.5625c-.113281.304688-.066406.648438.117188.914063.1875.269531.492187.429687.820312.429687h5.21875c.417969 0 .792969-.261719.9375-.65625l4.09375-10.9375h14.90625l3.96875 10.9375c.144531.394531.519531.65625.9375.65625h5.6875c.328125 0 .632813-.160156.820313-.429687.183593-.265625.230468-.609375.117187-.914063l-15.09375-38.5625c-.140625-.382812-.5-.644531-.90625-.65625h-5.6875c-.03125 0-.0625 0-.09375 0zm.78125 2h4.3125l14.28125 36.5625h-3.53125l-3.9375-10.9375c-.144531-.394531-.519531-.65625-.9375-.65625h-16.3125c-.410156-.003906-.785156.242188-.9375.625l-4.09375 10.96875h-3.0625zm1.90625 2.65625c-.371094.046875-.6875.300781-.8125.65625l-6.53125 17.96875c-.113281.304688-.066406.648438.117188.914063.1875.269531.492187.429687.820312.429687h13.0625c.320313-.003906.617188-.160156.800781-.417969.1875-.261718.234375-.59375.136719-.894531l-6.4375-18c-.144531-.394531-.519531-.65625-.9375-.65625h-.09375c-.042969-.003906-.082031-.003906-.125 0zm.15625 3.8125 5.09375 14.15625h-10.21875z"/></svg>