<svg fill="#666" height="50" viewBox="0 0 50 50" width="50" xmlns="http://www.w3.org/2000/svg"><path d="m3 8c-1.644531 0-3 1.355469-3 3v24c0 1.644531 1.355469 3 3 3h4.09375c.476563 2.835938 2.941406 5 5.90625 5s5.429688-2.164062 5.90625-5h9.28125c.726563 0 1.371094-.316406 1.875-.78125.515625.460938 1.175781.78125 1.9375.78125h1.09375c.476563 2.835938 2.941406 5 5.90625 5 3.300781 0 6-2.699219 6-6s-2.699219-6-6-6c-2.964844 0-5.429687 2.164063-5.90625 5h-1.09375c-.167969 0-.4375-.125-.65625-.34375s-.34375-.488281-.34375-.65625v-19c0-.167969.125-.4375.34375-.65625s.488281-.34375.65625-.34375h8c.824219 0 1.972656.925781 2.6875 1.8125l.125.1875h-4.8125c-1.601562 0-3 1.292969-3 3v4c0 .832031.375 1.5625.90625 2.09375s1.261719.90625 2.09375.90625h10v8c0 .167969-.125.4375-.34375.65625s-.488281.34375-.65625.34375h-2v2h2c.832031 0 1.5625-.375 2.09375-.90625s.90625-1.261719.90625-2.09375v-9.59375c0-1.125-.429687-2.15625-.8125-2.9375-.382812-.78125-.78125-1.34375-.78125-1.34375v-.03125l-4.09375-5.5h-.03125v-.03125c-.886719-1.109375-2.308594-2.5625-4.28125-2.5625h-8c-.359375 0-.6875.066406-1 .1875v-2.1875c0-1.644531-1.355469-3-3-3zm0 2h25c.554688 0 1 .445313 1 1v24.1875c0 .464844-.347656.8125-.8125.8125h-9.28125c-.476562-2.835937-2.941406-5-5.90625-5s-5.429687 2.164063-5.90625 5h-4.09375c-.554687 0-1-.445312-1-1v-24c0-.554687.445313-1 1-1zm35 9h6.3125l2.46875 3.28125.03125.03125c.019531.027344.289063.410156.59375 1.03125.253906.515625.386719 1.128906.46875 1.65625h-9.875c-.167969 0-.4375-.125-.65625-.34375s-.34375-.488281-.34375-.65625v-4c0-.492187.601563-1 1-1zm-33 1v5.8125h1.3125v-2.40625h2.375v-1h-2.375v-1.3125h2.6875v-1.09375zm5 0v5.59375h1.09375v-2.1875h1.3125c.898438 0 .898438.695313 1 1.59375 0 .199219-.007812.394531.09375.59375h1.3125c-.199219-.199219-.21875-.898437-.21875-1 0-1.398437-.582031-1.59375-.78125-1.59375.300781-.101562.875-.507812.875-1.40625 0-1.300781-1.1875-1.59375-1.6875-1.59375zm6 0v5.8125h4.3125v-1.125h-3.125v-1.375h2.8125v-1h-2.8125v-1.21875h3v-1.09375zm5.6875 0v5.8125h4.3125v-1.125h-3.09375v-1.375h2.78125v-1h-2.78125v-1.21875h3v-1.09375zm-10.5 1h1.40625c.300781 0 .90625.113281.90625.8125 0 .800781-.605469.78125-.90625.78125h-1.40625zm1.8125 12c2.222656 0 4 1.777344 4 4s-1.777344 4-4 4-4-1.777344-4-4 1.777344-4 4-4zm26 0c2.222656 0 4 1.777344 4 4s-1.777344 4-4 4-4-1.777344-4-4 1.777344-4 4-4z"/></svg>