<svg fill="#666" height="50" viewBox="0 0 50 50" width="50" xmlns="http://www.w3.org/2000/svg"><path d="m34.625 3.03125c-.78125.011719-1.644531.183594-2.71875.46875-3.082031.8125-20.8125 5.71875-20.8125 5.71875-.03125.007813-.0625.019531-.09375.03125-2.808594 1.058594-4.578125 2.054688-5.65625 3.5-1.070312 1.4375-1.308594 3.164063-1.3125 5.21875v.03125.625c-.011719.125-.03125.25-.03125.375v21.375c0 3.089844 2.535156 5.625 5.625 5.625h30.75c3.089844 0 5.625-2.535156 5.625-5.625v-21.53125c0-3.1875-2.851562-5.84375-6-5.84375h-30c-1.121094 0-2.128906.320313-2.96875.84375.726563-.894531 2.097656-1.738281 4.59375-2.6875.027344-.011719.035156-.019531.0625-.03125.113281-.03125 17.738281-4.902344 20.71875-5.6875.992188-.261719 1.734375-.398437 2.25-.40625.515625-.007812.757813.070313.875.15625.117188.085938.214844.253906.3125.65625s.15625 1.015625.15625 1.8125v3.34375h2v-3.34375c0-.867187-.054687-1.601562-.21875-2.28125-.164062-.679687-.484375-1.347656-1.0625-1.78125s-1.3125-.574219-2.09375-.5625zm-24.625 11.96875h30c1.949219 0 4 1.9375 4 3.84375v21.53125c0 2.007813-1.617187 3.625-3.625 3.625h-30.75c-2.011719 0-3.625-1.613281-3.625-3.625v-19.90625l.03125-1.65625c.058594-.679687.40625-1.648437 1.0625-2.40625.714844-.828125 1.691406-1.40625 2.90625-1.40625zm28.5 12c-1.382812 0-2.5 1.117188-2.5 2.5 0 1.382813 1.117188 2.5 2.5 2.5 1.378906 0 2.5-1.117187 2.5-2.5 0-1.382812-1.121094-2.5-2.5-2.5z"/></svg>