<svg fill="#666" height="50" viewBox="0 0 50 50" width="50" xmlns="http://www.w3.org/2000/svg"><path d="m45 2c-1.105469 0-2 .894531-2 2 0 .292969.074219.5625.1875.8125l-8 11.1875c-.0625-.003906-.125 0-.1875 0-.398437 0-.78125.109375-1.09375.3125l-6.90625-3.4375c-.066406-1.046875-.9375-1.875-2-1.875-1.105469 0-2 .894531-2 2 0 .105469.015625.210938.03125.3125l-7.3125 5.8125c-.222656-.085937-.464844-.125-.71875-.125-1 0-1.820312.730469-1.96875 1.6875l-6.8125 2.75c-.339844-.265625-.757812-.4375-1.21875-.4375-1.105469 0-2 .894531-2 2s.894531 2 2 2c1.007813 0 1.832031-.746094 1.96875-1.71875l6.8125-2.71875c.339844.265625.757813.4375 1.21875.4375 1.105469 0 2-.894531 2-2 0-.105469-.015625-.210937-.03125-.3125l7.3125-5.8125c.222656.085938.464844.125.71875.125.398438 0 .78125-.109375 1.09375-.3125l6.90625 3.4375c.066406 1.046875.9375 1.875 2 1.875 1.105469 0 2-.894531 2-2 0-.292969-.074219-.5625-.1875-.8125l8-11.1875c.0625.003906.125 0 .1875 0 1.105469 0 2-.894531 2-2s-.894531-2-2-2zm-4 13v35h8v-35zm2 2h4v31h-4zm-22 7v26h8v-26zm2 2h4v22h-4zm8 3v21h8v-21zm2 2h4v17h-4zm-22 1v18h8v-18zm2 2h4v14h-4zm-12 2v14h8v-14zm2 2h4v10h-4z"/></svg>