<svg fill="#666" height="50" viewBox="0 0 50 50" width="50" xmlns="http://www.w3.org/2000/svg"><path d="m36.875.875-.4375.375s-7.300781 6.515625-11.5625 10.78125c-2.570312 2.570313-2.765625 5.300781-2.5 7.34375.132813 1.019531.351563 1.878906.40625 2.5.054688.621094 0 .84375-.1875 1.03125-.804687.800781-3.347656 2.863281-6.15625 5.1875s-5.9375 4.964844-8.15625 7.1875c-4.007812 4.007813-5.933594 6.519531-6.75 8.40625-.410156.941406-.53125 1.761719-.375 2.5s.582031 1.300781.96875 1.6875c.386719.390625.949219.808594 1.6875.96875s1.554688.035156 2.5-.375c1.886719-.816406 4.398438-2.738281 8.40625-6.75 2.21875-2.21875 4.835938-5.347656 7.15625-8.15625 2.320313-2.808594 4.386719-5.351562 5.1875-6.15625.191406-.191406.386719-.246094 1-.1875s1.480469.269531 2.5.40625c2.039063.273438 4.808594.066406 7.40625-2.53125 2.835938-2.835937 10.78125-11.5 10.78125-11.5l.375-.4375-.15625-.53125s-.257812-.78125-.96875-1.9375c-.710937-1.15625-1.917969-2.761719-3.875-4.71875s-3.578125-3.175781-4.75-3.90625-1.96875-1-1.96875-1zm.40625 2.3125c.21875.09375.328125.125 1.03125.5625.429688.269531.980469.644531 1.5625 1.09375l-8.5 8.5c-.296875.242188-.433594.628906-.347656 1.003906.085937.371094.378906.664063.75.75.375.085938.761719-.050781 1.003906-.347656l8.625-8.625c.417969.375.847656.785156 1.3125 1.25.417969.417969.78125.804688 1.125 1.1875l-8.625 8.625c-.296875.242188-.433594.628906-.347656 1.003906.085937.371094.378906.664063.75.75.375.085938.761719-.050781 1.003906-.347656l8.5-8.5c.492188.636719.875 1.203125 1.15625 1.65625.421875.691406.417969.792969.5 1-.644531.703125-7.625 8.34375-10.21875 10.9375-2.175781 2.175781-3.964844 2.203125-5.71875 1.96875-.878906-.117187-1.707031-.355469-2.5625-.4375s-1.890625.042969-2.625.78125c-1.046875 1.050781-3 3.484375-5.3125 6.28125s-4.949219 5.886719-7.0625 8c-3.933594 3.9375-6.363281 5.742188-7.75 6.34375-.691406.300781-1.078125.300781-1.3125.25s-.429687-.148437-.6875-.40625v-.03125c-.257812-.257812-.355469-.421875-.40625-.65625s-.050781-.621094.25-1.3125c.601563-1.386719 2.40625-3.8125 6.34375-7.75 2.113281-2.117187 5.203125-4.746094 8-7.0625s5.234375-4.265625 6.28125-5.3125c.738281-.738281.859375-1.761719.78125-2.625s-.292969-1.710937-.40625-2.59375c-.230469-1.765625-.230469-3.546875 1.90625-5.6875 4.003906-4.003906 10.445313-9.753906 11-10.25z"/></svg>