<svg fill="#666" height="50" viewBox="0 0 50 50" width="50" xmlns="http://www.w3.org/2000/svg"><path d="m9 4c-2.7495161 0-5 2.2504839-5 5v32c0 2.749516 2.2504839 5 5 5h32c2.749516 0 5-2.250484 5-5v-32c0-2.7495161-2.250484-5-5-5zm0 2h32c1.668484 0 3 1.3315161 3 3v32c0 1.668484-1.331516 3-3 3h-32c-1.6684839 0-3-1.331516-3-3v-32c0-1.6684839 1.3315161-3 3-3zm7.707031 9.292969-1.414062 1.414062 8.292969 8.292969-8.292969 8.292969 1.414062 1.414062 8.292969-8.292969 8.292969 8.292969 1.414062-1.414062-8.292969-8.292969 8.292969-8.292969-1.414062-1.414062-8.292969 8.292969z"/></svg>