<svg fill="#666" height="50" viewBox="0 0 50 50" width="50" xmlns="http://www.w3.org/2000/svg"><path d="m11 3a1.0001 1.0001 0 0 0 -1 1v4h-1a1.0001 1.0001 0 0 0 -1 1v4h-1a1.0001 1.0001 0 0 0 -1 1v15h-2a1.0001 1.0001 0 0 0 -1 1v16a1.0001 1.0001 0 0 0 1 1h42a1.0001 1.0001 0 0 0 1-1v-16a1.0001 1.0001 0 0 0 -1-1h-2v-15a1.0001 1.0001 0 0 0 -1-1h-1v-4a1.0001 1.0001 0 0 0 -1-1h-1v-4a1.0001 1.0001 0 0 0 -1-1zm1 2h26v3h-26zm-2 5h.832031a1.0001 1.0001 0 0 0 .326172 0h27.673828a1.0001 1.0001 0 0 0 .326172 0h.841797v3h-30zm-2 5h.8320312a1.0001 1.0001 0 0 0 .3261719 0h31.6738279a1.0001 1.0001 0 0 0 .326172 0h.841797v14h-11a1.0001 1.0001 0 0 0 -1 1c0 2.773666-2.226334 5-5 5s-5-2.226334-5-5a1.0001 1.0001 0 0 0 -1-1h-11zm-3 16h13.203125c.50635 3.363146 3.296755 6 6.796875 6s6.290525-2.636854 6.796875-6h13.203125v14h-40z"/></svg>