<svg fill="#666" height="50" viewBox="0 0 50 50" width="50" xmlns="http://www.w3.org/2000/svg"><path d="m46 0c-1.941406 0-3.855469.796875-5.40625 2.5s-2.789062 4.234375-3.71875 7.875c-.394531 1.539063-.804687 3.503906-1.125 5.625h-6.75c-2.347656 0-4.761719.210938-6.71875 1.375-1.957031 1.164063-3.28125 3.378906-3.28125 6.625v.09375c-2.058594.050781-3.738281.195313-5.0625.625-.867187.28125-1.621094.730469-2.15625 1.375s-.78125 1.480469-.78125 2.375c0 1.816406.425781 3.40625 1.28125 4.59375.84375 1.171875 2.167969 1.886719 3.65625 1.90625-.230469 4.117188-1.875 6.234375-3.84375 7.46875-2.121094 1.328125-4.695312 1.5625-6.09375 1.5625h-5c-.359375-.003906-.695312.183594-.878906.496094-.1796878.3125-.1796878.695312 0 1.007812.183594.3125.519531.5.878906.496094h5c1.601563 0 4.527344-.226562 7.15625-1.875 2.464844-1.546875 4.558594-4.429687 4.8125-9.15625 1.660156 0 4.261719-.003906 8.03125 0v9.21875c-1.855469.214844-3.574219.597656-5 1.125-1.085937.402344-2.011719.867188-2.71875 1.4375-.707031.570313-1.28125 1.3125-1.28125 2.25v1h24v-1c0-.9375-.574219-1.679687-1.28125-2.25-.707031-.570312-1.632812-1.035156-2.71875-1.4375-1.425781-.527344-3.144531-.910156-5-1.125v-9.1875c2.027344.003906 5.277344 0 5.53125 0 1.316406 0 2.320313-.871094 2.8125-1.8125.355469-.675781.519531-1.40625.59375-2.09375.039063-.070312.070313-.140625.09375-.21875.304688-.894531 7.980469-22.980469 8.53125-24.5625.441406-1.269531.644531-2.699219.15625-4s-1.867187-2.3125-3.71875-2.3125zm0 2c1.257813 0 1.605469.363281 1.84375 1s.175781 1.703125-.15625 2.65625c-.507812 1.457031-6.632812 19.046875-7.90625 22.71875-.433594-.320312-.925781-.609375-1.5-.875-.230469-.109375-.496094-.207031-.75-.3125-.011719-.011719-.019531-.019531-.03125-.03125-.871094-3.902344.242188-12.097656 1.3125-16.28125.878906-3.441406 2.054688-5.683594 3.28125-7.03125 1.226563-1.347656 2.472656-1.84375 3.90625-1.84375zm-17 16h6.5c-.34375 2.9375-.492187 5.960938-.15625 8.40625-.753906-.234375-1.539062-.449219-2.375-.65625-4.085937-1.007812-8.859375-1.6875-11.96875-1.6875 0-.019531 0-.042969 0-.0625 0-2.753906.90625-4.039062 2.3125-4.875 1.40625-.835937 3.488281-1.125 5.6875-1.125zm-8 8.0625c2.808594 0 7.535156.65625 11.46875 1.625 1.964844.484375 3.753906 1.058594 4.96875 1.625.609375.28125 1.089844.558594 1.34375.78125.191406.164063.21875.253906.21875.25-.003906.640625-.140625 1.429688-.40625 1.9375-.269531.515625-.511719.71875-1.0625.71875-.28125 0-3.835937.003906-6.34375 0-.132812-.027344-.273437-.027344-.40625 0-1.480469-.003906-1.921875.003906-3.625 0-.105469-.015625-.207031-.015625-.3125 0-4.585937-.007812-8.277344-.03125-9.75-.03125-.027344 0-.160156 0-.1875 0-.125 0-.839844 0-.90625 0-.90625 0-1.558594-.351562-2.09375-1.09375-.535156-.742187-.90625-1.90625-.90625-3.40625 0-.546875.128906-.863281.34375-1.125s.582031-.511719 1.21875-.71875c1.269531-.414062 3.472656-.5625 6.4375-.5625zm7 8.9375h2v9.03125c-.332031-.011719-.664062-.03125-1-.03125-.335937 0-.667969.019531-1 .03125zm1 11c2.765625 0 5.421875.488281 7.3125 1.1875.683594.253906 1.121094.535156 1.5625.8125h-17.75c.441406-.277344.878906-.558594 1.5625-.8125 1.890625-.699219 4.546875-1.1875 7.3125-1.1875z"/></svg>