<svg fill="#666" height="50" viewBox="0 0 50 50" width="50" xmlns="http://www.w3.org/2000/svg"><path d="m32.21875 2.0625-.78125.3125-2.8125 1.09375-.78125.3125.1875.8125.59375 3c-.292969.292969-.605469.636719-.9375 1l-2.96875-.65625-.8125-.1875-.3125.75-1.21875 2.8125-.3125.75.6875.46875 2.5625 1.71875c-.03125.488281-.027344.980469 0 1.46875l-2.625 1.625-.71875.4375.3125.78125 1.09375 2.8125.3125.78125.8125-.1875 3-.59375c.304688.363281.640625.691406 1 1l-.6875 3-.1875.8125.78125.34375 2.8125 1.1875.75.3125.46875-.6875 1.71875-2.5625c.488281.03125.980469.027344 1.46875 0l1.625 2.65625.4375.6875.78125-.28125 3.59375-1.4375-.1875-.8125-.6875-3.28125c.375-.316406.714844-.65625 1.03125-1.03125l3.03125.78125.84375.21875.3125-.78125 1.21875-2.8125.34375-.78125-.75-.46875-2.625-1.59375c.03125-.488281.027344-.980469 0-1.46875l2.625-1.625.71875-.4375-.3125-.78125-1.09375-2.8125-.3125-.78125-.84375.1875-3.0625.6875c-.304687-.363281-.640625-.691406-1-1l.65625-3 .1875-.8125-.75-.3125-2.8125-1.21875-.78125-.3125-.46875.71875-1.59375 2.53125c-.460937-.046875-.960937-.003906-1.46875.03125l-1.625-2.65625zm-.84375 2.46875 1.46875 2.40625.375.59375.6875-.15625c.707031-.15625 1.375-.070312 2.28125.03125l.625.0625.34375-.53125 1.4375-2.28125 1.25.53125-.625 2.6875-.15625.65625.5625.375c.613281.4375 1.125.949219 1.5625 1.5625l.375.5625.65625-.15625 2.75-.625.5 1.25-2.40625 1.4375-.53125.34375.0625.625c.09375.835938.09375 1.539063 0 2.375l-.0625.625.53125.34375 2.375 1.46875-.5 1.1875-2.78125-.6875-.6875-.15625-.375.5625c-.4375.613281-.949219 1.125-1.5625 1.5625l-.53125.375.125.65625.625 2.96875-1.25.46875-1.4375-2.375-.34375-.53125-.625.0625c-.835937.09375-1.539062.09375-2.375 0l-.625-.0625-.3125.5-1.53125 2.3125-1.28125-.5625.59375-2.6875.15625-.625-.53125-.40625c-.613281-.4375-1.125-.949219-1.5625-1.5625l-.375-.53125-.65625.125-2.6875.5625-.46875-1.25 2.375-1.46875.5625-.34375-.09375-.625c-.09375-.835937-.09375-1.539062 0-2.375l.09375-.59375-.53125-.34375-2.3125-1.53125.53125-1.28125 2.71875.625.59375.125.375-.46875c.570313-.664062 1.15625-1.25 1.65625-1.75l.375-.375-.09375-.5-.5625-2.6875zm3.625 5.46875c-2.75 0-5 2.25-5 5s2.25 5 5 5 5-2.25 5-5-2.25-5-5-5zm0 2c1.667969 0 3 1.332031 3 3s-1.332031 3-3 3-3-1.332031-3-3 1.332031-3 3-3zm-21.46875 8-.125.84375-.5 3.25c-.542969.171875-1.066406.421875-1.5625.6875l-3.4375-2.5-3.5 3.5.46875.6875 1.90625 2.75c-.269531.535156-.507812 1.070313-.6875 1.59375l-3.28125.59375-.8125.15625v4.875l.8125.15625 3.28125.59375c.175781.546875.417969 1.058594.6875 1.5625l-1.96875 2.65625-.53125.6875 3.5 3.5.6875-.46875 2.75-1.90625c.535156.269531 1.070313.507813 1.59375.6875l.5 3.25.125.84375h4.90625l.125-.8125.625-3.28125c.542969-.171875 1.066406-.421875 1.5625-.6875l3.4375 2.5 3.5-3.5-.46875-.6875-2-2.78125c.261719-.527344.511719-1.046875.6875-1.5625l3.375-.59375.8125-.15625v-4.90625l-4.21875-.625c-.171875-.539062-.390625-1.066406-.65625-1.5625l2-2.75.46875-.6875-.5625-.59375-2.3125-2.40625-.59375-.625-.71875.5-2.75 2c-.527344-.261719-1.046875-.511719-1.5625-.6875l-.5-3.25-.125-.84375zm1.71875 2h1.5l.5625 3.5625.5625.1875c.898438.300781 1.738281.582031 2.40625 1l.5625.34375.53125-.375 2.5-1.8125 1.125 1.1875-1.8125 2.53125-.40625.53125.375.5625c.449219.71875.800781 1.550781.96875 2.3125l.15625.65625.65625.09375 3.0625.46875v1.53125l-3.0625.53125-.59375.09375-.1875.5625c-.300781.898438-.582031 1.738281-1 2.40625l-.375.5625.40625.53125 1.8125 2.53125-1.125 1.09375-2.5-1.8125-.53125-.375-.5625.34375c-.71875.449219-1.550781.800781-2.3125.96875l-.625.15625-.125.65625-.53125 2.96875h-1.53125l-.5625-3.5625-.5625-.1875c-.898437-.300781-1.738281-.582031-2.40625-1l-.5625-.34375-.53125.375-2.53125 1.71875-1.09375-1.09375 1.78125-2.40625.4375-.5625-.375-.5625c-.449219-.71875-.800781-1.519531-.96875-2.28125l-.15625-.65625-.65625-.125-2.96875-.53125v-1.5625l2.96875-.53125.59375-.125.1875-.53125c.300781-.898437.582031-1.738281 1-2.40625l.34375-.5625-.375-.53125-1.71875-2.53125 1.125-1.09375 2.5 1.8125.53125.375.5625-.34375c.71875-.449219 1.550781-.800781 2.3125-.96875l.65625-.15625.09375-.65625zm.75 7c-2.746094 0-5 2.253906-5 5s2.253906 5 5 5 5-2.253906 5-5-2.253906-5-5-5zm0 2c1.65625 0 3 1.34375 3 3s-1.34375 3-3 3-3-1.34375-3-3 1.34375-3 3-3z"/></svg>