<svg fill="#666" height="50" viewBox="0 0 50 50" width="50" xmlns="http://www.w3.org/2000/svg"><path d="m5.953125 4c-.511719 0-1.03125.1875-1.398437.554688-.367188.367187-.554688.886718-.554688 1.398437v38.09375c0 .507813.1875 1.03125.554688 1.398438.367187.367187.886718.554687 1.398437.554687h38.09375c.507813 0 1.03125-.1875 1.398438-.554687.367187-.367188.554687-.886719.554687-1.398438v-38.09375c0-.511719-.1875-1.03125-.554687-1.398437-.367188-.367188-.886719-.554688-1.398438-.554688zm.046875 2h38v38h-38zm14.453125 13.355469c-1.964844 0-4.078125 1.484375-4.078125 5.296875 0 2.863281 1.230469 4.992187 3.8125 4.992187.6875 0 1.242188-.105468 1.527344-.238281l-.195313-1.652344c-.238281.078125-.617187.152344-.945312.152344-1.199219 0-2.113281-.945312-2.113281-3.359375 0-2.507812 1.003906-3.46875 2.113281-3.46875.433594 0 .691406.09375.914062.199219l.332032-1.652344c-.195313-.136719-.675782-.269531-1.367188-.269531zm5.144531 0c-2.113281 0-3.191406 1.347656-3.191406 2.96875 0 .914062.523438 1.980469 1.90625 2.820312.851563.554688 1.300781.914063 1.300781 1.652344 0 .65625-.449218 1.140625-1.378906 1.140625-.570312 0-1.257812-.167969-1.664062-.390625l-.285157 1.691406c.328125.195313 1.125.40625 1.933594.40625 1.980469 0 3.34375-1.214843 3.34375-3.058593 0-1.066407-.492187-2.085938-1.828125-2.898438-1.09375-.65625-1.394531-.972656-1.394531-1.574219 0-.539062.40625-1.050781 1.246094-1.050781.570312 0 1.003906.167969 1.289062.347656l.3125-1.695312c-.296875-.179688-.929687-.359375-1.589844-.359375zm5.914063 0c-2.117188 0-3.199219 1.347656-3.199219 2.96875 0 .914062.527344 1.980469 1.90625 2.820312.855469.554688 1.308594.914063 1.308594 1.652344 0 .65625-.453125 1.140625-1.382813 1.140625-.570312 0-1.257812-.167969-1.664062-.390625l-.285156 1.691406c.328125.195313 1.125.40625 1.933593.40625 1.980469 0 3.34375-1.214843 3.34375-3.058593 0-1.066407-.492187-2.085938-1.828125-2.898438-1.09375-.65625-1.394531-.972656-1.394531-1.574219 0-.539062.402344-1.050781 1.246094-1.050781.566406 0 1.003906.167969 1.289062.347656l.3125-1.695312c-.296875-.179688-.929687-.359375-1.585937-.359375z"/></svg>