<svg fill="#666" height="50" viewBox="0 0 50 50" width="50" xmlns="http://www.w3.org/2000/svg"><path d="m44.875 4c-.097656.015625-.191406.046875-.28125.09375l-40 17.1875c-.355469.15625-.585937.507813-.59375.894531-.007812.390625.214844.746094.5625.917969l14.90625 7.4375 7.4375 14.90625c.171875.347656.527344.570313.917969.5625.386719-.007812.738281-.238281.894531-.59375l17.1875-40c.148438-.328125.109375-.714844-.105469-1.003906-.210937-.292969-.566406-.445313-.925781-.402344zm-4.25 3.96875-20.625 20.625-12.625-6.3125zm1.40625 1.40625-14.3125 33.25-6.3125-12.625z"/></svg>