<svg fill="#666" height="50" viewBox="0 0 50 50" width="50" xmlns="http://www.w3.org/2000/svg"><path d="m15 2c-2.749516 0-5 2.2504839-5 5v36c0 2.749516 2.250484 5 5 5h20c2.749516 0 5-2.250484 5-5v-36c0-2.7495161-2.250484-5-5-5zm2.216797 2h15.566406c-.236576.4072494-.412804.8558418-.494141 1.3417969l-.302734 1.8222656a1.0001 1.0001 0 0 0 0 .0019531c-.081026.4881865-.490264.8339844-.986328.8339844h-12c-.496064 0-.904674-.3470272-.986328-.8359375l-.304688-1.8203125v-.0019531c-.081112-.4861575-.255803-.9347081-.492187-1.3417969zm-2.888672.0800781a1.0003436 1.0003436 0 0 0 .039063.0136719c.699235.2224238 1.242347.8160261 1.36914 1.578125l.304688 1.8222656c.240346 1.4390897 1.499048 2.5058594 2.958984 2.5058594h12c1.459336 0 2.719271-1.066941 2.958984-2.5058594v-.0019531l.302735-1.8203125c.13042-.7792162.697539-1.3806914 1.417969-1.5898438 1.334722.3054839 2.320312 1.4846668 2.320312 2.9179688v36c0 1.668484-1.331516 3-3 3h-20c-1.668484 0-3-1.331516-3-3v-36c0-1.4361416.989363-2.6173257 2.328125-2.9199219zm7.671875.9199219a1.0001 1.0001 0 1 0 0 2h3a1.0001 1.0001 0 1 0 0-2zm6 0a1 1 0 0 0 -1 1 1 1 0 0 0 1 1 1 1 0 0 0 1-1 1 1 0 0 0 -1-1z"/></svg>