<svg fill="#666" height="50" viewBox="0 0 50 50" width="50" xmlns="http://www.w3.org/2000/svg"><path d="m19.8125 0c-.324219.0546875-.601562.269531-.738281.570313-.136719.296875-.117188.648437.050781.929687 1.53125 2.761719 1.941406 5.109375 1.84375 6.84375s-.804687 2.824219-1.125 3.03125c-.230469.148438-.304687.136719-.5625.09375-.257812-.042969-.652344-.191406-1.15625-.375-1.003906-.371094-2.566406-.75-4.3125.125-.269531.136719-.464844.390625-.523437.691406-.0625.296875.015625.605469.210937.839844.320313.375.695313 1.175781.875 1.96875.179688.792969.15625 1.585938-.03125 2-.34375.757813-2.9375 2.273438-2.9375 6.5625 0 1.460938.214844 2.988281 1.15625 4.71875h-9.5625c-1.644531 0-3 1.355469-3 3v6c0 .765625.300781 1.46875.78125 2-.480469.53125-.78125 1.234375-.78125 2v6c0 1.644531 1.355469 3 3 3h28c.765625 0 1.46875-.300781 2-.78125.53125.480469 1.234375.78125 2 .78125h12c1.644531 0 3-1.355469 3-3v-6c0-.765625-.300781-1.46875-.78125-2 .480469-.53125.78125-1.234375.78125-2v-6c0-1.644531-1.355469-3-3-3h-8.28125c.644531-2.863281-.210937-5.027344-1.3125-6.53125-.632812-.867187-1.324219-1.542969-1.78125-2.125s-.632812-.992187-.625-1.3125c.03125-1.230469.964844-3.167969 1.0625-5.28125.050781-1.054687-.179687-2.210937-.9375-3.21875-.757812-1.007812-1.976562-1.824219-3.78125-2.46875-.332031-.128906-.710937-.066406-.988281.160156-.277344.222657-.414063.582032-.355469.933594.1875 1.257813.15625 2.417969-.0625 3.0625-.109375.324219-.25.492188-.34375.5625-.09375.070313-.167969.101563-.4375.0625-.585937-.082031-.46875-.097656-.5-.1875s-.042969-.558594.0625-1.21875c.214844-1.324219.671875-3.414062-.40625-5.59375-1.652344-3.332031-5.28125-4.84375-8.3125-4.84375-.03125 0-.0625 0-.09375 0s-.0625 0-.09375 0zm1.8125 2.40625c1.949219.433594 3.949219 1.417969 4.90625 3.34375.753906 1.527344.445313 2.960938.21875 4.375-.113281.707031-.277344 1.398438 0 2.1875.277344.789063 1.140625 1.390625 2.125 1.53125.6875.097656 1.386719-.082031 1.90625-.46875s.835938-.917969 1.03125-1.5c.230469-.675781.289063-1.453125.28125-2.25.652344.371094 1.160156.726563 1.4375 1.09375.449219.59375.566406 1.195313.53125 1.9375-.070312 1.484375-1.015625 3.339844-1.0625 5.3125-.023437 1.042969.507813 1.882813 1.0625 2.59375.554688.710938 1.1875 1.371094 1.71875 2.09375.980469 1.335938 1.671875 2.777344.90625 5.34375h-4.78125c.308594-1.171875.382813-2.34375.09375-3.4375-.402344-1.53125-1.46875-2.855469-3.0625-3.84375-.355469-.214844-.808594-.183594-1.132812.070313-.324219.257812-.460938.691406-.335938 1.085937.25.769531.152344 1.507813-.0625 1.96875-.214844.460938-.449219.65625-.90625.65625-.179687 0-.355469-.152344-.53125-.59375s-.140625-1.066406-.0625-1.21875c1.273438-2.5 1.511719-4.375 1.09375-5.84375s-1.449219-2.332031-2.21875-2.9375c-.210937-.171875-.480469-.25-.75-.21875-.273437.039063-.519531.1875-.679687.410156-.160157.226563-.21875.507813-.164063.777344.234375 1.132813.101563 1.894531-.21875 2.59375-.320312.699219-.875 1.339844-1.53125 2.0625-1.3125 1.441406-3.0625 3.277344-3.0625 6.34375 0 .265625.015625 1.109375.3125 2.15625-.640625.070313-1.230469.335938-1.6875.75-.53125-.480469-1.234375-.78125-2-.78125h-.0625c-1.378906-1.910156-1.53125-3.109375-1.53125-4.71875 0-3.539062 1.816406-3.691406 2.75-5.75.46875-1.042969.433594-2.207031.1875-3.28125-.128906-.570312-.445312-1-.6875-1.5.625-.09375 1.175781-.003906 1.78125.21875.445313.164063.90625.371094 1.5.46875s1.359375.007813 2-.40625c1.226563-.792969 1.90625-2.398437 2.03125-4.5625.097656-1.6875-.402344-3.804687-1.34375-6.0625zm3.40625 14.9375c.007813.023438.023438.039063.03125.0625.238281.839844.203125 2.136719-.9375 4.375-.011719 0-.019531 0-.03125 0-.464844.921875-.363281 1.933594 0 2.84375s1.191406 1.875 2.40625 1.875c1.230469 0 2.246094-.804687 2.71875-1.8125.125-.265625.152344-.582031.21875-.875.289063.402344.507813.835938.625 1.28125.222656.847656.132813 1.820313-.25 2.90625h-9c-.414062-1.027344-.4375-1.800781-.4375-2.125 0-2.34375 1.179688-3.515625 2.53125-5 .675781-.742187 1.398438-1.550781 1.875-2.59375.128906-.285156.167969-.617187.25-.9375zm-22.03125 12.65625h12c.566406 0 1 .433594 1 1v6c0 .566406-.433594 1-1 1h-12c-.566406 0-1-.433594-1-1v-6c0-.566406.433594-1 1-1zm16 0h18.125c.191406.058594.402344.058594.59375 0h9.28125c.566406 0 1 .433594 1 1v6c0 .566406-.433594 1-1 1h-28c-.566406 0-1-.433594-1-1v-6c0-.566406.433594-1 1-1zm-16 10h28c.566406 0 1 .433594 1 1v6c0 .566406-.433594 1-1 1h-28c-.566406 0-1-.433594-1-1v-6c0-.566406.433594-1 1-1zm32 0h12c.566406 0 1 .433594 1 1v6c0 .566406-.433594 1-1 1h-12c-.566406 0-1-.433594-1-1v-6c0-.566406.433594-1 1-1z"/></svg>