<svg fill="#666" height="50" viewBox="0 0 50 50" width="50" xmlns="http://www.w3.org/2000/svg"><path d="m3 4c-1.644531 0-3 1.355469-3 3v36.90625c-.0625.230469-.0390625.472656.0625.6875.28125 1.363281 1.5 2.40625 2.9375 2.40625h39c1.492188 0 2.71875-1.125 2.9375-2.5625.007813-.0625.027344-.125.03125-.1875 0-.019531 0-.042969 0-.0625l.03125-.15625c0-.011719 0-.019531 0-.03125l4.96875-26.8125.03125-.09375v-.09375c0-1.644531-1.355469-3-3-3v-3c0-1.644531-1.355469-3-3-3h-25.96875c.003906.003906-.007812 0-.03125 0-.03125-.023437-.121094-.097656-.28125-.28125-.246094-.28125-.53125-.75-.84375-1.25s-.648437-1.03125-1.0625-1.5c-.414062-.46875-.992187-.96875-1.8125-.96875zm0 2h11c-.0625 0 .066406 0 .3125.28125s.53125.75.84375 1.25.65625 1.03125 1.0625 1.5.960938.96875 1.78125.96875h26c.5625 0 1 .4375 1 1v3h-37c-1.574219 0-2.828125 1.265625-2.9375 2.8125h-.03125l-.03125.1875-3 16.1875v-26.1875c0-.5625.4375-1 1-1zm5 10h39c.5625 0 1 .4375 1 1l-4.90625 26.53125-.03125.0625c-.011719.039063-.023437.082031-.03125.125-.011719.039063-.023437.082031-.03125.125v.0625.03125c-.015625.050781-.023437.101563-.03125.15625-.003906.03125.003906.0625 0 .09375-.003906.042969-.003906.082031 0 .125-.125.40625-.511719.6875-.96875.6875h-39c-.5625 0-1-.4375-1-1l4.96875-26.8125.03125-.09375v-.09375c0-.5625.4375-1 1-1z"/></svg>