<svg fill="#666" height="50" viewBox="0 0 50 50" width="50" xmlns="http://www.w3.org/2000/svg"><path d="m5 7c-2.75 0-5 2.25-5 5v26c0 2.75 2.25 5 5 5h40c2.75 0 5-2.25 5-5v-26c0-2.75-2.25-5-5-5zm0 2h40c1.667969 0 3 1.332031 3 3v26c0 1.667969-1.332031 3-3 3h-40c-1.667969 0-3-1.332031-3-3v-26c0-1.667969 1.332031-3 3-3zm20.90625 9c-.621094.125-1.09375.683594-1.09375 1.34375 0 .746094.617188 1.34375 1.375 1.34375.746094 0 1.34375-.597656 1.34375-1.34375 0-.757812-.597656-1.34375-1.34375-1.34375-.09375 0-.191406-.019531-.28125 0zm-9.09375 1.1875-2.1875.375-.3125 1.9375-.78125.125-.28125 1.78125h1.0625v3.75c0 .972656.242188 1.617188.75 2.03125.425781.34375 1.015625.53125 1.875.53125.664063 0 1.09375-.117187 1.375-.1875v-2.03125c-.15625.039063-.511719.125-.75.125-.507812 0-.75-.253906-.75-.84375v-3.375h1.34375l.3125-1.90625h-1.65625zm-6.65625 2.15625c-.871094 0-1.574219.230469-2.09375.65625-.539062.445313-.8125 1.066406-.8125 1.84375 0 1.40625.851563 2.023438 2.25 2.53125.902344.320313 1.1875.554688 1.1875.90625 0 .34375-.285156.53125-.8125.53125-.652344 0-1.734375-.335937-2.4375-.75l-.3125 1.9375c.601563.34375 1.714844.71875 2.875.71875.921875 0 1.703125-.242187 2.21875-.65625.578125-.457031.875-1.132812.875-2 0-1.4375-.863281-2.023437-2.28125-2.53125-.757812-.28125-1.1875-.5-1.1875-.84375 0-.289062.230469-.4375.65625-.4375.777344 0 1.578125.292969 2.125.5625l.3125-1.9375c-.433594-.207031-1.332031-.53125-2.5625-.53125zm22.90625 0c-.746094 0-1.390625.316406-2 .96875l-.125-.8125h-2.28125v11.03125l2.59375-.4375v-2.5625c.394531.125.792969.1875 1.15625.1875.640625 0 1.554688-.183594 2.28125-.96875.695313-.757812 1.0625-1.925781 1.0625-3.46875 0-1.367187-.261719-2.398437-.78125-3.0625-.457031-.589844-1.097656-.875-1.90625-.875zm7.21875 0c-2.183594 0-3.5625 1.628906-3.5625 4.21875 0 1.449219.378906 2.527344 1.09375 3.21875.640625.621094 1.558594.9375 2.75.9375 1.097656 0 2.109375-.261719 2.75-.6875l-.28125-1.75c-.632812.34375-1.359375.5-2.1875.5-.496094 0-.847656-.09375-1.09375-.3125-.269531-.226562-.417969-.597656-.46875-1.125h4.25c.011719-.125.03125-.71875.03125-.90625 0-1.285156-.296875-2.285156-.84375-3-.558594-.726562-1.371094-1.09375-2.4375-1.09375zm-16.875.03125c-.726562 0-1.304687.378906-1.53125 1.0625l-.15625-.9375h-2.25v8.0625h2.5625v-5.25c.320313-.394531.785156-.53125 1.40625-.53125.136719 0 .261719 0 .4375.03125v-2.375c-.175781-.039062-.3125-.0625-.46875-.0625zm1.46875.125v8.0625h2.59375v-8.0625zm15.15625 1.59375c.066406-.015625.113281 0 .1875 0 .578125 0 .898438.546875.9375 1.6875h-1.90625c.0625-1.003906.324219-1.570312.78125-1.6875zm-7.8125.21875c.652344 0 .96875.683594.96875 2.0625 0 .785156-.105469 1.398438-.34375 1.8125-.207031.394531-.535156.59375-.90625.59375-.257812 0-.480469-.054687-.6875-.15625v-3.8125c.433594-.457031.824219-.5.96875-.5z"/></svg>