<svg fill="#666" height="50" viewBox="0 0 50 50" width="50" xmlns="http://www.w3.org/2000/svg"><path d="m25 0c-3.40625 0-5.53125.753906-6.15625 1-.03125.007813-.0625.019531-.09375.03125-.054687.023438-.1875.0625-.1875.0625l-6.75 1.78125c-.0625.015625-.128906.035156-.1875.0625-.011719.003906-.042969.023438-.0625.03125-.011719.011719-.019531.019531-.03125.03125-.644531.210938-3.46875 1.242188-5.03125 3.84375-2.390625 3.980469-6.3125 10.40625-6.3125 10.40625-.292969.464844-.1523437 1.082031.3125 1.375l6.59375 4.0625c.464844.292969 1.082031.152344 1.375-.3125l2.53125-3.96875v29.59375c0 .550781.449219 1 1 1h26c.550781 0 1-.449219 1-1l-.0625-23.625.03125-6 2.5625 4c.292969.464844.910156.605469 1.375.3125l6.59375-4.0625c.464844-.292969.605469-.910156.3125-1.375 0 0-3.921875-6.425781-6.3125-10.40625-1.582031-2.640625-4.476562-3.65625-5.0625-3.84375-.011719-.011719-.019531-.019531-.03125-.03125-.03125-.011719-.113281-.058594-.125-.0625-.019531 0-.042969 0-.0625 0-.011719-.011719-.019531-.019531-.03125-.03125h-.0625c-.03125-.011719-.0625-.023437-.09375-.03125l-6.59375-1.75s-.132812-.039062-.1875-.0625c-.03125-.011719-.0625-.023437-.09375-.03125-.625-.246094-2.75-1-6.15625-1zm0 2c2.316406 0 3.816406.328125 4.6875.59375-.128906.230469-.300781.480469-.53125.75-.699219.8125-1.855469 1.65625-4.15625 1.65625s-3.457031-.84375-4.15625-1.65625c-.230469-.269531-.402344-.519531-.53125-.75.871094-.265625 2.371094-.59375 4.6875-.59375zm-6.59375 1.1875c.199219.4375.457031.945313.90625 1.46875 1.019531 1.1875 2.863281 2.34375 5.6875 2.34375s4.667969-1.15625 5.6875-2.34375c.449219-.523437.707031-1.03125.90625-1.46875l5.15625 1.375c-.4375 1.292969-1.5 5.101563.21875 10.34375-.003906.09375.007813.191406.03125.28125l-.0625 9.1875.0625 22.625h-24v-31.71875c.003906-.042969.003906-.082031 0-.125 2.425781-4.460937.820313-9.175781.28125-10.59375zm-6.90625 2.03125c.550781 1.886719 1.429688 6.066406-.25 9.09375-.035156.050781-.066406.101563-.09375.15625-.003906.007813.003906.023438 0 .03125-.023437.03125-.042969.0625-.0625.09375l-3.78125 5.90625-4.90625-3.03125c.554688-.910156 3.609375-5.925781 5.8125-9.59375.8125-1.355469 2.320313-2.199219 3.28125-2.65625zm27.03125 0c.960938.460938 2.445313 1.3125 3.25 2.65625 2.203125 3.667969 5.257813 8.683594 5.8125 9.59375l-4.90625 3.03125-3.78125-5.9375c-1.441406-4.117187-.824219-7.683594-.375-9.34375z"/></svg>