<svg fill="#666" height="50" viewBox="0 0 50 50" width="50" xmlns="http://www.w3.org/2000/svg"><path d="m7 2v46h36v-32.589844l-13.816406-13.410156zm2 2h19v13h13v29h-32zm21 1.578125 9.707031 9.421875h-9.707031zm-3.980469 17.746094c-.707031 0-1.417968.066406-1.941406.175781v9.160156h1.859375v-3.460937h.371094c.765625 0 1.730469-.277344 2.328125-.886719.496094-.523437.808594-1.226562.808594-2.234375 0-.785156-.257813-1.558594-.824219-2.039062-.625-.566407-1.492188-.714844-2.601563-.714844zm-10.65625.039062-.691406 9.296875h1.605469l.15625-3.226562c.054687-.925781.109375-2.097656.140625-3.105469h.039062c.144532 1.007813.398438 2.164063.585938 2.910156l.796875 3.269532h1.316406l.828125-3.324219c.183594-.71875.4375-1.863281.609375-2.855469h.042969c-.03125.992188.039062 2.191406.082031 3.078125l.171875 3.253906h1.664063l-.582032-9.296875h-1.960937l-.753906 3.367188c-.253907 1.171875-.46875 2.21875-.609375 3.253906h-.027344c-.171875-1.050781-.414063-2.082031-.683594-3.253906l-.765625-3.367188zm16.941407.21875c-.765625 0-1.519532.238282-1.902344.46875l.238281 1.371094c.34375-.207031.753906-.359375 1.167969-.359375.652344 0 1.078125.386719 1.078125 1.03125 0 .871094-.878906 1.144531-1.5625 1.160156h-.183594v1.324219h.253906c.949219 0 1.730469.425781 1.730469 1.421875 0 .757813-.496094 1.296875-1.390625 1.296875-.496094 0-1.007812-.140625-1.375-.347656l-.269531 1.421875c.410156.222656 1.0625.398437 1.816406.398437 2.003906 0 3.082031-1.335937 3.082031-2.703125 0-1.210937-.679687-1.984375-1.578125-2.273437v-.027344c.8125-.375 1.324219-1.121094 1.324219-2.015625 0-1.144531-.8125-2.167969-2.429687-2.167969zm-5.914063 1.199219c.867188 0 1.207031.636719 1.207031 1.453125 0 .867188-.425781 1.515625-1.363281 1.515625-.113281 0-.210937 0-.296875-.027344v-2.867187c.113281-.042969.28125-.074219.453125-.074219z"/></svg>