<svg fill="#666" height="50" viewBox="0 0 50 50" width="50" xmlns="http://www.w3.org/2000/svg"><path d="m16.40625 4c-.273437.058594-.511719.226563-.65625.46875l-15.59375 25c-.1875.289063-.2109375.65625-.0625.96875l7.8125 16c.167969.347656.519531.566406.90625.5625h31.5c.367188-.003906.703125-.207031.875-.53125l8.6875-16c.167969-.316406.15625-.695312-.03125-1l-15.59375-25c-.183594-.292969-.5-.46875-.84375-.46875h-16.8125c-.03125 0-.0625 0-.09375 0s-.0625 0-.09375 0zm.875 2h15.5625l14.6875 23.5625-18.125-5.5625zm-.34375.375 4.15625 17.03125-11.71875 21.53125-7.21875-14.875zm7.875 15.03125 4.875 7.59375h-9.375zm23 8.65625-8.09375 14.9375h-29.78125l15.0625-13.5z"/></svg>