<svg fill="#666" height="50" viewBox="0 0 50 50" width="50" xmlns="http://www.w3.org/2000/svg"><path d="m25 1c-8.839844 0-16 7.160156-16 16 0 7.308594 3.859375 15.164063 7.65625 21.25 3.796875 6.085938 7.59375 10.40625 7.59375 10.40625.191406.214844.464844.339844.75.339844s.558594-.125.75-.339844c0 0 3.800781-4.410156 7.59375-10.53125s7.65625-13.957031 7.65625-21.125c0-8.839844-7.160156-16-16-16zm0 2c7.761719 0 14 6.238281 14 14 0 6.433594-3.636719 14.082031-7.34375 20.0625-3.105469 5.011719-5.734375 8.238281-6.65625 9.34375-.929687-1.097656-3.558594-4.253906-6.65625-9.21875-3.703125-5.9375-7.34375-13.597656-7.34375-20.1875 0-7.761719 6.238281-14 14-14zm0 8c-3.855469 0-7 3.144531-7 7s3.144531 7 7 7 7-3.144531 7-7-3.144531-7-7-7zm0 2c2.773438 0 5 2.226563 5 5 0 2.773438-2.226562 5-5 5-2.773437 0-5-2.226562-5-5 0-2.773437 2.226563-5 5-5z"/></svg>