<svg fill="#666" height="50" viewBox="0 0 50 50" width="50" xmlns="http://www.w3.org/2000/svg"><path d="m25 2c-4.957031 0-9 4.042969-9 9 0 .683594.148438 1.394531.375 2.125-.625-.441406-1.25-.785156-1.90625-1-1.179687-.382812-2.398437-.507812-3.5625-.40625-3.492187.304688-6.632812 2.652344-7.78125 6.1875-1.53125 4.714844 1.066406 9.78125 5.78125 11.3125.660156.214844 1.382813.300781 2.15625.3125-.613281.457031-1.15625.941406-1.5625 1.5-2.914062 4.011719-2.042969 9.648438 1.96875 12.5625 4.011719 2.914063 9.679688 2.042969 12.59375-1.96875.402344-.550781.699219-1.214844.9375-1.9375.238281.722656.535156 1.386719.9375 1.9375 2.914063 4.011719 8.582031 4.882813 12.59375 1.96875 4.011719-2.914062 4.882813-8.550781 1.96875-12.5625-.40625-.558594-.949219-1.042969-1.5625-1.5.773438-.011719 1.496094-.097656 2.15625-.3125 4.714844-1.53125 7.3125-6.597656 5.78125-11.3125-1.148437-3.535156-4.289062-5.882812-7.78125-6.1875-1.164062-.101562-2.382812.023438-3.5625.40625-.65625.214844-1.28125.558594-1.90625 1 .226563-.730469.375-1.441406.375-2.125 0-4.957031-4.042969-9-9-9zm0 2c3.878906 0 7 3.121094 7 7 0 .800781-.4375 2.140625-1.15625 3.59375-.484375.980469-1.082031 2.011719-1.71875 3.03125-.359375.4375-.726562.878906-1.0625 1.3125-1.382812 1.777344-2.371094 3.214844-3.0625 4.25-.691406-1.035156-1.679687-2.472656-3.0625-4.25-.335937-.433594-.703125-.875-1.0625-1.3125-.636719-1.019531-1.234375-2.050781-1.71875-3.03125-.71875-1.453125-1.15625-2.792969-1.15625-3.59375 0-3.878906 3.121094-7 7-7zm-13.21875 9.65625c.683594.015625 1.371094.148438 2.0625.375.761719.25 1.933594 1.054688 3.09375 2.1875.785156.765625 1.574219 1.667969 2.34375 2.59375.304688.476563.597656.953125.90625 1.40625 1.25 1.84375 2.296875 3.234375 3.0625 4.21875-1.199219.335938-2.859375.832031-4.96875 1.59375-.53125.191406-1.082031.410156-1.625.625-1.136719.285156-2.285156.535156-3.34375.6875-1.605469.234375-3.019531.25-3.78125 0-3.6875-1.199219-5.699219-5.15625-4.5-8.84375.898438-2.765625 3.34375-4.582031 6.0625-4.8125.226563-.019531.460938-.035156.6875-.03125zm26.4375 0c.226563-.003906.460938.011719.6875.03125 2.71875.230469 5.164063 2.046875 6.0625 4.8125 1.199219 3.6875-.8125 7.644531-4.5 8.84375-.761719.25-2.175781.234375-3.78125 0-1.058594-.152344-2.207031-.402344-3.34375-.6875-.542969-.214844-1.09375-.433594-1.625-.625-2.109375-.761719-3.769531-1.257812-4.96875-1.59375.765625-.984375 1.8125-2.375 3.0625-4.21875.308594-.453125.601563-.929687.90625-1.40625.769531-.925781 1.558594-1.828125 2.34375-2.59375 1.160156-1.132812 2.332031-1.9375 3.09375-2.1875.691406-.226562 1.378906-.359375 2.0625-.375zm-13.21875.03125c-1.382812 0-2.5 1.117188-2.5 2.5 0 1.382813 2.5 6.8125 2.5 6.8125s2.5-5.429687 2.5-6.8125c0-1.378906-1.117187-2.5-2.5-2.5zm-8.59375 6.09375c-.96875.082031-1.835937.734375-2.15625 1.71875-.425781 1.3125.28125 2.730469 1.59375 3.15625s7.25-.28125 7.25-.28125-4.375-4.042969-5.6875-4.46875c-.328125-.105469-.675781-.152344-1-.125zm16.6875 0c-.164062.019531-.335937.070313-.5.125-1.3125.425781-5.6875 4.46875-5.6875 4.46875s5.9375.707031 7.25.28125 2.019531-1.84375 1.59375-3.15625c-.371094-1.148437-1.5-1.847656-2.65625-1.71875zm-9.15625 6.6875c-.050781 1.246094-.105469 2.996094-.03125 5.25.015625.523438.0625 1.058594.09375 1.59375-.078125 1.21875-.1875 2.429688-.375 3.53125-.273437 1.597656-.714844 2.945313-1.1875 3.59375-2.28125 3.136719-6.644531 3.839844-9.78125 1.5625s-3.839844-6.644531-1.5625-9.78125c.472656-.648437 1.625-1.496094 3.0625-2.25.960938-.503906 2.046875-.960937 3.15625-1.40625.558594-.140625 1.121094-.28125 1.65625-.4375 2.167969-.628906 3.804688-1.222656 4.96875-1.65625zm2.125 0c1.164063.433594 2.800781 1.027344 4.96875 1.65625.535156.15625 1.097656.296875 1.65625.4375 1.109375.445313 2.195313.902344 3.15625 1.40625 1.4375.753906 2.589844 1.601563 3.0625 2.25 2.277344 3.136719 1.574219 7.5-1.5625 9.78125-3.136719 2.277344-7.5 1.574219-9.78125-1.5625-.472656-.648437-.914062-1.996094-1.1875-3.59375-.1875-1.101562-.296875-2.3125-.375-3.53125.03125-.535156.078125-1.070312.09375-1.59375.074219-2.253906.019531-4.003906-.03125-5.25zm-2.25.15625s-5.1875 2.914063-6 4.03125c-.8125 1.117188-.585937 2.6875.53125 3.5 1.117188.8125 2.6875.554688 3.5-.5625.8125-1.117187 1.96875-6.96875 1.96875-6.96875zm2.375 0s1.15625 5.851563 1.96875 6.96875c.8125 1.117188 2.382813 1.375 3.5.5625 1.117188-.8125 1.34375-2.382812.53125-3.5-.8125-1.117187-6-4.03125-6-4.03125z"/></svg>