<svg fill="#666" height="50" viewBox="0 0 50 50" width="50" xmlns="http://www.w3.org/2000/svg"><path d="m25 2c-12.691406 0-23 10.308594-23 23s10.308594 23 23 23 23-10.308594 23-23-10.308594-23-23-23zm0 2c11.609375 0 21 9.390625 21 21s-9.390625 21-21 21-21-9.390625-21-21 9.390625-21 21-21zm-.0625 6.78125c-.144531.019531-.300781.078125-.4375.15625l-.90625.53125c-.539062.3125-.71875 1.023438-.40625 1.5625l7.84375 13.5 2.875-1.6875-7.84375-13.5c-.234375-.402344-.6875-.617187-1.125-.5625zm-2.40625 4.5c-.4375-.058594-.890625.125-1.125.53125l-1 1.71875 2.96875 1.71875 1-1.6875c.316406-.539062.132813-1.246094-.40625-1.5625l-1-.59375c-.136719-.078125-.292969-.105469-.4375-.125zm-2.375 2.65625-6.90625 11.875 2.9375 1.71875 6.9375-11.84375zm-9.84375 5.375v3.3125h4.21875l1.9375-3.3125zm11.125 0-1.84375 3.3125h10.75l-1.84375-3.3125zm12.28125 0 1.78125 3.3125h4.125v-3.3125zm.5 2.09375-2.875 1.65625 1.65625 2.875 2.875-1.6875zm1.53125 3.625c-.097656.015625-.214844.070313-.3125.125-.46875.265625-1.152344.660156-1.5625.90625-.769531.460938-.175781 1.800781 0 2.09375.996094 1.667969 2.007813 1.445313 2.78125 2.625.425781.644531.304688.910156.4375 1.125.050781.078125.246094.183594.3125.09375 1.195313-1.652344.832031-4.515625-.03125-5.78125-.351562-.515625-.949219-1.296875-1.625-1.1875zm-22.875 1.40625-1.4375 5.40625c-.027344.097656.007813.199219.09375.25.085938.050781.210938.039063.28125-.03125l4-3.875z"/></svg>