<svg fill="#666" height="50" viewBox="0 0 50 50" width="50" xmlns="http://www.w3.org/2000/svg"><path d="m28.992188 8.546875c-5.214844 0-9.609375 3.113281-11.730469 7.523438-1.132813-.78125-2.429688-1.347657-3.90625-1.347657-3.714844 0-6.703125 2.941407-6.925781 6.601563-3.722657 1.347656-6.429688 4.828125-6.429688 9.003906 0 5.332031 4.339844 9.671875 9.671875 9.671875h31.425781c4.90625 0 8.902344-3.996094 8.902344-8.902344 0-4.550781-3.488281-8.179687-7.90625-8.699218.015625-.234375.046875-.460938.046875-.703125 0-7.25-5.898437-13.148438-13.148437-13.148438zm0 2c6.171875 0 11.148437 4.980469 11.148437 11.148438 0 .457031-.035156.914062-.09375 1.382812l-.140625 1.121094h1.132813c.121093 0 .136718 0 .058593 0 3.824219 0 6.902344 3.078125 6.902344 6.898437 0 3.824219-3.078125 6.902344-6.902344 6.902344h-31.425781c-4.25 0-7.671875-3.421875-7.671875-7.671875 0-3.535156 2.386719-6.488281 5.625-7.382812l.761719-.210938-.027344-.785156c-.003906-.140625-.011719-.210938-.011719-.21875 0-2.777344 2.230469-5.007813 5.007813-5.007813 1.390625 0 2.636719.5625 3.542969 1.46875l1.101562 1.105469.546875-1.464844c1.570313-4.246093 5.636719-7.285156 10.445313-7.285156zm-2.992188 8.453125c-3.957031 0-7.359375 2.949219-7.921875 6.859375-.003906.046875 0 .09375-.007812.140625h2.023437c.484375-2.859375 2.988281-5 5.90625-5 1.613281 0 3.121094.648438 4.234375 1.765625l-2.234375 2.234375h6v-6l-2.351562 2.351563c-1.484375-1.488282-3.5-2.351563-5.648438-2.351563zm5.910156 9c-.476562 2.832031-2.941406 5-5.910156 5-1.667969 0-3.242187-.613281-4.359375-1.640625l2.359375-2.359375h-6v6l2.226563-2.226562c1.488281 1.394531 3.574218 2.226562 5.773437 2.226562 4.070313 0 7.4375-3.058594 7.933594-7z"/></svg>