<svg fill="#666" height="50" viewBox="0 0 50 50" width="50" xmlns="http://www.w3.org/2000/svg"><path d="m24.714844 2c-2.070313.023438-4.167969.347656-6.242188.960938-.152343.007812-.296875.046875-.429687.121093-.050781.015625-.101563.027344-.152344.042969-4.699219 1.527344-8.566406 4.433594-11.3125 8.125-.027344.035156-.054687.070313-.082031.109375-.054688.074219-.109375.152344-.167969.230469-.117187.105469-.207031.234375-.265625.378906-.023437.03125-.046875.066406-.070312.097656-.066407.097657-.128907.195313-.195313.292969-.109375.167969-.21875.335938-.324219.507813-.117187.191406-.234375.382812-.347656.574218-.054687.097657-.113281.199219-.167969.296875-.132812.234375-.261718.472657-.386718.714844-.035157.066406-.070313.132813-.101563.203125-.152344.296875-.296875.597656-.433594.902344-.152343.332031-.292968.671875-.429687 1.015625s-.261719.6875-.378906 1.035156c-.121094.351563-.230469.703125-.335938 1.058594-.09375.335937-.183594.675781-.265625 1.019531-.011719.050781-.023437.101563-.035156.152344-.0625.273437-.121094.550781-.175781.832031-.027344.148438-.054688.296875-.078125.449219-.039063.207031-.070313.414062-.101563.625-.027344.183594-.050781.371094-.070312.558594-.023438.167968-.042969.335937-.058594.507812-.027344.265625-.042969.535156-.058594.800781-.007812.097657-.015625.195313-.019531.292969-.007813.191406-.011719.378906-.011719.570313-.019531.09375-.019531.191406-.007812.285156-.003907.039062-.003907.078125-.003907.117187 0 .042969-.003906.082032-.003906.121094v.042969c.003906.34375.011719.695312.027344 1.042969 0 .039062 0 .082031.003906.121093.019531.34375.046875.6875.078125 1.027344.007813.050781.007813.097656.015625.144531.027344.265625.0625.527344.097656.789063.019532.144531.039063.285156.058594.425781.03125.183594.066406.363281.097656.542969.035157.203125.074219.40625.113282.609375.027343.125.058593.25.085937.375.066406.277344.132813.554687.203125.828125.011719.039062.023438.078125.035156.117187.089844.335938.1875.667969.292969.996094.007813.011719.011719.03125.015625.046875.015625.039063.03125.082031.046875.125.101563.308594.207031.617188.324219.921875.03125.078125.0625.15625.089844.234375.105468.261719.210937.523438.324218.78125.058594.140625.125.277344.1875.414063.085938.183593.167969.367187.257813.546875.113281.230468.230469.457031.351562.679687.039063.074219.078125.152344.117188.222656.144531.261719.292969.519532.441406.773438.039063.0625.074219.125.113281.1875.179688.292969.363282.574219.550782.859375.183593.269531.375.535156.566406.796875h.003906c.058594.121094.140625.230469.242188.320312.167968.21875.335937.4375.515625.652344.46875.570313.964843 1.117188 1.484375 1.636719.246093.242187.496093.480469.75.714844.039062.035156.078125.070312.117187.101562.214844.195313.4375.386719.660156.574219.082032.070312.167969.136719.25.207031.183594.148438.371094.296875.558594.4375.125.097656.257813.195313.390625.289063.152344.113281.308594.226562.46875.335937.167969.113281.335938.226563.503906.335938.113282.074218.226563.148437.339844.21875.238281.152343.480469.296875.726563.4375.050781.027343.097656.054687.148437.085937.296875.167969.597656.332031.90625.484375.886719.457031 1.8125.851563 2.761719 1.1875.140625.09375.300781.148438.472656.160156.289063.097657.578125.191407.871094.277344.34375.097656.6875.1875 1.035156.269531.03125.007813.058594.015625.089844.023438.316406.070312.640625.136719.960937.199219.074219.011718.144532.027343.21875.039062.257813.046875.515625.089844.777344.125.179688.027344.363281.046875.542969.070313.175781.019531.355469.042968.535156.058593.238281.023438.480469.039063.722656.054688.121094.007812.246094.019531.367188.023437.320312.015625.640625.023438.960937.023438.039063 0 .082032.003906.121094.003906h.042969c.34375-.003906.691406-.011719 1.039062-.027344.042969-.003906.085938 0 .125-.003906.339844-.019531.683594-.042969 1.023438-.078125.050781-.003906.101562-.007812.148437-.015625.265625-.027344.527344-.0625.789063-.097656.144531-.019531.289062-.039063.429687-.058594.152344-.027344.304688-.054687.453125-.082031.242188-.042969.484375-.085938.726563-.136719.085937-.019531.175781-.042969.265625-.0625.304687-.070312.613281-.140625.914062-.222656.003907 0 .011719-.003906.015625-.003906.019532-.003907.039063-.011719.058594-.019532.34375-.089843.679688-.191406 1.015625-.300781.019531-.003906.039063-.007812.0625-.015625.039063-.011719.078125-.027344.121094-.042969.152344-.015625.304687-.070312.4375-.15625.15625-.054687.320312-.109375.476562-.167968.089844-.035157.179688-.070313.265625-.105469.242188-.09375.484375-.191406.722657-.292969.179687-.078125.359375-.160156.539062-.246094.140625-.066406.285156-.132812.425781-.203125.25-.121093.496094-.25.742188-.378906.058594-.03125.117187-.0625.175781-.09375.285156-.15625.5625-.316406.835938-.480469.035156-.023437.074218-.042968.113281-.066406.300781-.183594.597656-.375.890625-.574219.304687-.203125.605469-.417968.898437-.640625.296875-.21875.585938-.449218.871094-.679687.28125-.234375.554688-.472656.824219-.714844 0-.003906.007812-.007812.007812-.011719.003907 0 .007813-.003906.011719-.007812.25-.226563.492188-.457031.730469-.695313.039062-.039062.078125-.082031.117187-.121093.207032-.207032.40625-.417969.605469-.632813.066406-.074219.136719-.148437.203125-.226562.144531-.164063.289063-.324219.429688-.492188.136718-.160156.269531-.324219.402343-.488281.070313-.085938.140625-.175781.207032-.261719.03125-.042969.0625-.085937.09375-.128906.105468-.09375.191406-.207031.246093-.332031.066407-.089844.132813-.175782.199219-.261719.007813-.015625.015625-.023438.027344-.039063.007812-.007812.011719-.023437.019531-.035156 2.671875-3.753906 4.25-8.34375 4.25-13.296875 0-.074219-.007812-.148437-.011719-.222656.015625-.113281.011719-.230469-.007812-.339844-.058594-2.261719-.429688-4.441406-1.089844-6.492187-.007812-.019532-.011719-.035157-.015625-.054688-.015625-.046875-.035156-.089844-.050781-.140625-.152344-.449219-.3125-.894531-.492188-1.332031-.03125-.085938-.0625-.171875-.097656-.257813-.183594-.433593-.378906-.859375-.585937-1.28125-.09375-.191406-.191407-.378906-.289063-.566406-.117187-.21875-.234375-.433594-.359375-.644531-.230469-.414063-.480469-.816406-.734375-1.214844-.074219-.105469-.140625-.214844-.214844-.324219-.039062-.054687-.078125-.109375-.113281-.160156-.058594-.148437-.152344-.277344-.269531-.378906-.066406-.09375-.128906-.1875-.199219-.277344 0-.003906-.003906-.011719-.003906-.015625-.011719-.007812-.019531-.019531-.027344-.03125-.433594-.578125-.890625-1.136719-1.371094-1.664062-.699218-.777344-1.449218-1.496094-2.242187-2.164063-.074219-.0625-.148438-.125-.222656-.1875-.253907-.207031-.507813-.410156-.769532-.609375l-.007812-.003906c-.035156-.027344-.070313-.050781-.105469-.074219-.441406-.328125-.894531-.640625-1.359375-.9375-.195312-.125-.390625-.246094-.59375-.367187-.203125-.121094-.410156-.242188-.617187-.359375-.308594-.167969-.621094-.332032-.9375-.492188-.050782-.023437-.097657-.050781-.148438-.078125-.179687-.082031-.359375-.160156-.535156-.242187-.253906-.113282-.507813-.226563-.765625-.335938-.195313-.078125-.386719-.15625-.585938-.234375-.328125-.125-.664062-.242187-1-.351562-.027343-.007813-.058593-.015625-.085937-.023438-.164063-.125-.363281-.191406-.570313-.195312-.019531 0-.035156 0-.050781 0-.042969-.011719-.082031-.023438-.125-.035157-.21875-.0625-.4375-.125-.660156-.183593-.28125-.070313-.5625-.136719-.847656-.199219-.09375-.019531-.1875-.035156-.28125-.054688-.679688-.136718-1.367188-.246093-2.058594-.324218-.179688-.019532-.355469-.050782-.535156-.066407-.628907-.054687-1.265625-.078125-1.898438-.082031h-.003906c-.019531 0-.039063 0-.058594 0-.007812 0-.011719 0-.015625 0-.09375.003906-.179687-.003906-.269531 0zm.285156 2c.695313 0 1.382813.035156 2.0625.101563.339844.035156.675781.074218 1.011719.125.042969.007812.085937.007812.128906.015625.152344.023437.304688.054687.457031.082031.089844.015625.175782.035156.261719.050781l-3.921875 2.445313-3.921875-2.445313c.070313-.011719.144531-.03125.21875-.042969.148438-.027343.296875-.054687.449219-.082031.082031-.011719.164062-.019531.242187-.03125.285157-.042969.574219-.082031.859375-.109375.003907-.003906.007813 0 .011719 0 .703125-.074219 1.417969-.109375 2.140625-.109375zm-6.59375 1.0625 5.621094 3.507813v5.902343l-8.671875 6.296875-5.695313-1.832031-1.578125-6.351562c.175782-.242188.351563-.488282.535157-.722657.214843-.265625.445312-.519531.671875-.773437.222656-.253906.449218-.511719.6875-.757813.222656-.226562.457031-.441406.691406-.660156.292969-.273437.582031-.550781.890625-.808594.054687-.046875.109375-.089843.164062-.136718.460938-.375.941407-.734375 1.433594-1.070313.074219-.050781.144531-.097656.21875-.148437.472656-.3125.964844-.609375 1.464844-.882813.113281-.066406.230469-.125.347656-.1875.464844-.246094.941406-.476562 1.425781-.6875.582032-.253906 1.179688-.484375 1.792969-.6875zm13.1875 0c.328125.113281.65625.222656.980469.347656.078125.03125.160156.0625.242187.097657.238282.09375.472657.203125.703125.304687.398438.179688.789063.367188 1.171875.566406.164063.085938.328125.164063.484375.253907.535157.296875 1.054688.605468 1.558594.945312.003906 0 .007813.003906.011719.007813.023437.015625.042969.03125.066406.046875.476563.324218.9375.671875 1.382813 1.03125.132812.109375.261718.222656.394531.335937.363281.308594.71875.628906 1.0625.960938.101562.097656.203125.199218.300781.300781.4375.4375.859375.894531 1.253906 1.371094v.003906c.253907.304687.480469.628906.710938.949219l-1.589844 6.402343-5.683594 1.78125-8.617187-6.257812v-5.972656zm11.808594 9.839844c.070312.125.140625.25.207031.375.160156.308594.304688.628906.453125.945312.339844.738282.652344 1.496094.910156 2.289063.222657.691406.410157 1.382812.558594 2.078125.054688.238281.09375.480469.140625.71875.023438.144531.054688.289062.078125.4375.011719.082031.019531.160156.03125.242187.019531.121094.03125.246094.046875.367188l-3.539062-2.976563zm-36.800781.007812 1.109375 4.472657-3.523438 2.960937c.039063-.308594.070313-.621094.125-.925781.019531-.136719.042969-.269531.070313-.402344.109375-.566406.238281-1.128906.394531-1.683594.019531-.074218.042969-.148437.066406-.222656.171875-.597656.371094-1.179687.59375-1.753906.015625-.035156.027344-.070313.039063-.105469.164062-.402344.351562-.792969.539062-1.1875.125-.273437.25-.546875.390625-.8125.058594-.117187.128906-.226562.195313-.339844zm18.398437 1.324219 8.285156 6.023438-3.160156 9.742187h-10.25l-3.160156-9.742187zm-15.925781 4.613281 5.671875 1.824219 3.296875 10.15625-3.546875 4.886719-6.535156-.460938c-.09375-.132812-.203125-.261718-.296875-.398437-.050782-.078125-.105469-.160156-.160157-.242188-.308593-.464843-.601562-.945312-.871093-1.4375-.070313-.125-.136719-.253906-.203125-.378906-.242188-.457031-.46875-.921875-.675782-1.398437-.269531-.617188-.511718-1.253907-.726562-1.910157-.222656-.691406-.410156-1.382812-.558594-2.078125-.054687-.238281-.09375-.480468-.140625-.71875-.023437-.144531-.054687-.285156-.078125-.429687-.015625-.109375-.027344-.21875-.039062-.328125-.035157-.246094-.070313-.492188-.097657-.742188-.007812-.058593-.011718-.113281-.015625-.171875-.058593-.628906-.089843-1.265625-.089843-1.910156zm31.894531.035157 5.027344 4.226562c-.003906.640625-.035156 1.273438-.09375 1.902344-.050781.527344-.121094 1.050781-.214844 1.570312-.019531.136719-.042969.269532-.066406.402344-.113281.566406-.242188 1.128906-.398438 1.683594-.019531.074219-.042968.152344-.066406.226562-.167969.578125-.359375 1.148438-.578125 1.703125-.023437.066407-.050781.132813-.078125.199219-.148437.375-.328125.742188-.5 1.109375-.132812.285156-.261719.570313-.40625.847656-.164062.3125-.347656.613282-.527344.917969-.164062.28125-.328125.5625-.507812.839844-.167969.25-.347656.496094-.527344.742187l-6.578125.464844-3.496094-4.898437 3.296875-10.144532zm-21.304687 13.117187h10.679687l3.503906 4.914063-2.464843 6.089843c-.65625.207032-1.3125.386719-1.972657.527344-.226562.050781-.457031.09375-.6875.136719-.15625.027344-.3125.054687-.46875.082031-.097656.011719-.191406.023438-.289062.039063-.257813.035156-.515625.070312-.777344.097656-.050781.003906-.101562.007812-.15625.015625-.667969.0625-1.34375.097656-2.03125.097656-.679687 0-1.347656-.035156-2.011719-.097656-.527343-.050781-1.054687-.121094-1.574218-.214844-.132813-.019531-.265625-.042969-.398438-.066406-.566406-.113281-1.125-.242188-1.675781-.398438-.082031-.023437-.160156-.042968-.242188-.066406-.164062-.046875-.324218-.113281-.488281-.167969l-2.480469-6.125zm-9.945313 5.382813 4.59375.324218 1.730469 4.269532c-.261719-.125-.53125-.242188-.789063-.378907-.320312-.167968-.628906-.355468-.941406-.539062-.273437-.164063-.546875-.320313-.8125-.492188-.292969-.191406-.578125-.402343-.859375-.609375-.261719-.191406-.523437-.375-.777344-.578125-.265625-.210937-.519531-.441406-.773437-.664062-.253906-.226563-.511719-.453125-.757813-.691406-.210937-.207032-.410156-.425782-.613281-.640625zm30.5625 0c-.089844.097656-.175781.203125-.269531.296875-.214844.21875-.441406.421875-.664063.632812-.296875.277344-.59375.5625-.90625.824219-.054687.046875-.109375.089844-.164062.136719-.464844.378906-.949219.738281-1.449219 1.082031-.058594.039062-.117187.078125-.171875.113281-.488281.328125-.992187.632813-1.511719.917969-.101562.058594-.207031.109375-.3125.164062-.285156.152344-.582031.285157-.875.425782l1.730469-4.269532z"/></svg>