<svg fill="#666" height="50" viewBox="0 0 50 50" width="50" xmlns="http://www.w3.org/2000/svg"><path d="m7 2v46h36v-32.589844l-13.816406-13.410156zm2 2h19v13h13v29h-32zm21 1.578125 9.707031 9.421875h-9.707031zm3.839844 17.703125c-2.03125 0-4.019531 1.40625-4.0625 4.785156-.03125 1.601563.410156 2.980469 1.234375 3.753907.640625.621093 1.460937.925781 2.554687.925781.699219 0 1.578125-.167969 1.992188-.332031v-4.964844h-2.574219v1.472656h.855469v2.25c-.074219.027344-.199219.042969-.371094.042969-.867187 0-1.761719-.800781-1.761719-3.035156 0-2.429688 1.007813-3.269532 2.273438-3.269532.46875 0 .820312.070313 1.09375.207032l.328125-1.558594c-.300781-.136719-.839844-.277344-1.5625-.277344zm-8.144531.042969c-.710938 0-1.421875.070312-1.945313.179687v9.15625h1.859375v-3.460937h.371094c.765625 0 1.730469-.277344 2.328125-.882813.496094-.523437.8125-1.226562.8125-2.234375 0-.785156-.257813-1.558593-.824219-2.039062-.625-.566406-1.492187-.71875-2.601562-.71875zm-10.65625.039062-.695313 9.296875h1.605469l.15625-3.226562c.054687-.925781.113281-2.097656.140625-3.105469h.042969c.140625 1.011719.394531 2.167969.582031 2.910156l.796875 3.273438h1.320312l.824219-3.324219c.183594-.71875.4375-1.863281.609375-2.859375h.042969c-.027344.996094.042969 2.195313.085937 3.078125l.171875 3.253906h1.664063l-.585938-9.296875h-1.957031l-.753906 3.367188c-.257813 1.171875-.472656 2.222656-.613281 3.253906h-.027344c-.171875-1.046875-.410156-2.082031-.683594-3.253906l-.765625-3.367188zm11.023437 1.421875c.867188 0 1.207031.636719 1.207031 1.449219 0 .867188-.421875 1.515625-1.363281 1.515625-.109375 0-.210937.003906-.296875-.027344v-2.867187c.113281-.039063.285156-.070313.453125-.070313z"/></svg>