<svg fill="#666" height="50" viewBox="0 0 50 50" width="50" xmlns="http://www.w3.org/2000/svg"><path d="m7.6875 0c-.957031 0-1.71875.660156-1.875 1.59375l-5.71875 33.8125c-.0585937.1875-.09375.390625-.09375.59375v12c0 1.09375.90625 2 2 2h46c1.09375 0 2-.90625 2-2v-12c0-.296875-.066406-.589844-.1875-.84375l-5.625-33.5625c-.15625-.933594-.917969-1.59375-1.875-1.59375zm.09375 2h34.4375l5.375 32h-45.21875zm-5.78125 34h45.96875c.007813.019531.019531.042969.03125.0625v11.9375h-46zm5 4v5h27v-5h-2v3h-3v-3h-2v3h-3v-3h-2v3h-3v-3h-2v3h-3v-3h-2v3h-3v-3zm34 0c-1.105469 0-2 .894531-2 2s.894531 2 2 2 2-.894531 2-2-.894531-2-2-2z"/></svg>