<svg fill="#666" height="50" viewBox="0 0 50 50" width="50" xmlns="http://www.w3.org/2000/svg"><path d="m7 7c-1.6449698 0-3 1.3550302-3 3v30c0 1.64497 1.3550302 3 3 3h36c1.64497 0 3-1.35503 3-3v-30c0-1.6449698-1.35503-3-3-3zm0 2h36c.56503 0 1 .4349698 1 1v3h-38v-3c0-.5650302.4349698-1 1-1zm1 1a1 1 0 0 0 -1 1 1 1 0 0 0 1 1 1 1 0 0 0 1-1 1 1 0 0 0 -1-1zm3 0a1 1 0 0 0 -1 1 1 1 0 0 0 1 1 1 1 0 0 0 1-1 1 1 0 0 0 -1-1zm3 0a1 1 0 0 0 -1 1 1 1 0 0 0 1 1 1 1 0 0 0 1-1 1 1 0 0 0 -1-1zm-8 5h38v25c0 .56503-.43497 1-1 1h-36c-.5650302 0-1-.43497-1-1z"/></svg>