<svg fill="#666" height="50" viewBox="0 0 50 50" width="50" xmlns="http://www.w3.org/2000/svg"><path d="m14 2c-2.75 0-5 2.25-5 5s2.25 5 5 5 5-2.25 5-5-2.25-5-5-5zm21 0c-2.75 0-5 2.25-5 5s2.25 5 5 5 5-2.25 5-5-2.25-5-5-5zm-21 2c1.667969 0 3 1.332031 3 3s-1.332031 3-3 3-3-1.332031-3-3 1.332031-3 3-3zm21 0c1.667969 0 3 1.332031 3 3s-1.332031 3-3 3-3-1.332031-3-3 1.332031-3 3-3zm-25.5 9c-3.023437 0-5.5 2.476563-5.5 5.5v12.3125c-.007812.0625-.007812.125 0 .1875-.003906.09375.007813.191406.03125.28125.148438 1.511719 1.421875 2.71875 2.96875 2.71875.351563 0 .683594-.074219 1-.1875v11.53125c0 1.460938 1.195313 2.65625 2.65625 2.65625h1.6875c.644531 0 1.191406-.300781 1.65625-.6875.464844.386719 1.011719.6875 1.65625.6875h1.6875c1.460938 0 2.65625-1.195312 2.65625-2.65625v-6.53125c.316406.113281.648438.1875 1 .1875v6.5c0 1.367188 1.132813 2.5 2.5 2.5h3c1.367188 0 2.5-1.132812 2.5-2.5v-6.5c.351563 0 .683594-.074219 1-.1875v6.1875c0 1.644531 1.355469 3 3 3 .765625 0 1.46875-.300781 2-.78125.53125.480469 1.234375.78125 2 .78125 1.644531 0 3-1.355469 3-3v-8h2.59375c.65625 0 1.277344-.339844 1.625-.875 0-.011719 0-.019531 0-.03125.347656-.539062.425781-1.183594.25-1.78125 0-.011719 0-.019531 0-.03125l-.40625-1.28125c1.011719 0 1.925781-.492187 2.40625-1.28125.480469-.789062.554688-1.773437.25-2.71875-.917969-2.835937-4.03125-12.3125-4.03125-12.3125-.1875-.578125-.539062-1.433594-1.28125-2.21875-.742187-.785156-1.914062-1.46875-3.40625-1.46875h-1.9375c-.019531 0-.042969 0-.0625 0h-4c-1.496094 0-2.664062.683594-3.40625 1.46875-.378906.40625-.359375 1.042969.046875 1.421875s1.042969.359375 1.421875-.046875c.453125-.484375 1.011719-.84375 1.9375-.84375h4 .09375 1.90625c.921875 0 1.484375.363281 1.9375.84375s.761719 1.113281.875 1.46875c0 0 3.082031 9.453125 4 12.28125.160156.492188.09375.859375-.03125 1.0625s-.289062.34375-.71875.34375c-.414062 0-.773437-.269531-.90625-.625-.003906-.007812.003906-.023437 0-.03125-.015625-.097656-.046875-.191406-.09375-.28125l-2.78125-8.375c-.148437-.464844-.609375-.757812-1.09375-.6875-.296875.039063-.558594.210938-.714844.464844-.160156.253906-.195312.566406-.097656.847656l2.8125 8.4375c.019531.085938.050781.171875.09375.25l1.28125 3.90625v.03125c.003906.03125-.027344.046875-.03125.0625h-7.46875c-.019531 0-.042969 0-.0625 0h-3v-6c0-2.199219-1.800781-4-4-4h-6c-2.199219 0-4 1.800781-4 4v1.84375.09375 14.40625c0 .382813-.277344.65625-.65625.65625h-1.6875c-.382812 0-.65625-.273437-.65625-.65625v-12.6875c.003906-.289062-.121094-.5625-.335937-.753906-.214844-.191406-.503907-.28125-.789063-.246094-.503906.0625-.878906.492188-.875 1v12.6875c0 .382813-.277344.65625-.65625.65625h-1.6875c-.382812 0-.65625-.273437-.65625-.65625v-24.34375c.011719-.289062-.105469-.566406-.3125-.761719-.210937-.199218-.496094-.296875-.78125-.269531-.042969.007813-.085937.019531-.125.03125-.464844.105469-.792969.523438-.78125 1v9.84375.09375.0625c0 .566406-.433594 1-1 1-.542969 0-.96875-.402344-1-.9375 0-.019531 0-.042969 0-.0625.007813-.0625.007813-.125 0-.1875v-12.3125c0-1.9375 1.558594-3.5 3.5-3.5h9c.75 0 1.433594.226563 2 .625.289063.242188.6875.300781 1.03125.152344.347656-.148438.582031-.476563.605469-.851563.027344-.375-.160156-.730468-.480469-.925781-.890625-.625-1.988281-1-3.15625-1zm15.5 3c-2.199219 0-4 1.800781-4 4s1.800781 4 4 4 4-1.800781 4-4-1.800781-4-4-4zm0 2c1.117188 0 2 .882813 2 2 0 1.117188-.882812 2-2 2-1.117187 0-2-.882812-2-2 0-1.117187.882813-2 2-2zm-3 9h6c1.117188 0 2 .882813 2 2v6.8125.09375.09375c0 .566406-.433594 1-1 1h-1c-.550781 0-1 .449219-1 1v7.5c0 .285156-.214844.5-.5.5h-3c-.285156 0-.5-.214844-.5-.5v-7.5c0-.550781-.449219-1-1-1h-1c-.566406 0-1-.433594-1-1v-7c0-1.117187.882813-2 2-2zm10 10h2v8c0 .566406-.433594 1-1 1s-1-.433594-1-1zm4 0h2v8c0 .566406-.433594 1-1 1s-1-.433594-1-1z"/></svg>