<svg fill="#666" height="50" viewBox="0 0 50 50" width="50" xmlns="http://www.w3.org/2000/svg"><path d="m12.28125 13.09375c-.226562.03125-.4375.144531-.59375.3125l-10.90625 10.875-.6875.71875.6875.71875 10.90625 10.875c.242188.296875.628906.433594 1.003906.347656.371094-.085937.664063-.378906.75-.75.085938-.375-.050781-.761718-.347656-1.003906l-9.15625-9.1875h42.125l-9.15625 9.1875c-.296875.242188-.433594.628906-.347656 1.003906.085937.371094.378906.664063.75.75.375.085938.761719-.050781 1.003906-.347656l10.90625-10.875.6875-.71875-.6875-.71875-10.90625-10.875c-.207031-.222656-.507812-.335937-.8125-.3125-.390625.039063-.722656.300781-.847656.667969-.128906.371094-.027344.78125.253906 1.050781l9.15625 9.1875h-42.125l9.15625-9.1875c.3125-.296875.402344-.761719.21875-1.152344-.1875-.394531-.601562-.621093-1.03125-.566406z"/></svg>