<svg fill="#666" height="50" viewBox="0 0 50 50" width="50" xmlns="http://www.w3.org/2000/svg"><path d="m6 0v48h28c1.671875 1.257813 3.753906 2 6 2 5.511719 0 10-4.488281 10-10 0-4.085937-2.480469-7.605469-6-9.15625v-16.25l-.28125-.3125-14-14-.3125-.28125zm2 2h20v14h14v14.21875c-.648437-.132812-1.3125-.21875-2-.21875-5.511719 0-10 4.488281-10 10 0 2.253906.765625 4.324219 2.03125 6h-24.03125zm22 1.4375 10.5625 10.5625h-10.5625zm10 28.5625c4.429688 0 8 3.570313 8 8 0 4.429688-3.570312 8-8 8-4.429687 0-8-3.570312-8-8 0-4.429687 3.570313-8 8-8zm-1 3v4h-4v2h4v4h2v-4h4v-2h-4v-4z"/></svg>