<svg fill="#666" height="50" viewBox="0 0 50 50" width="50" xmlns="http://www.w3.org/2000/svg"><path d="m4.984375 5c-1.636719 0-2.984375 1.347656-2.984375 2.984375v34.03125c0 1.636719 1.347656 2.984375 2.984375 2.984375h40.03125c1.636719 0 2.984375-1.347656 2.984375-2.984375v-34.03125c0-1.636719-1.347656-2.984375-2.984375-2.984375zm0 2h40.03125c.554688 0 .984375.429688.984375.984375v3.015625h-42v-3.015625c0-.554687.429688-.984375.984375-.984375zm2.015625 1c-.550781 0-1 .449219-1 1s.449219 1 1 1 1-.449219 1-1-.449219-1-1-1zm3 0c-.550781 0-1 .449219-1 1s.449219 1 1 1 1-.449219 1-1-.449219-1-1-1zm-6 5h42v14h-42zm0 16h20v14h-19.015625c-.554687 0-.984375-.429687-.984375-.984375zm22 0h20v13.015625c0 .554688-.429687.984375-.984375.984375h-19.015625zm-20 2v2h16v-2zm0 4v2h16v-2zm0 4v2h9v-2z"/></svg>