<svg fill="#666" height="50" viewBox="0 0 50 50" width="50" xmlns="http://www.w3.org/2000/svg"><path d="m15 2.96875c-.03125.007813-.0625.019531-.09375.03125h-.34375l-.125.15625c-.023437.019531-.042969.039063-.0625.0625l-.03125.03125c-.019531.007813-.042969.019531-.0625.03125v.03125c-.046875.039063-.085937.078125-.125.125l-13.1875 13.875-.59375.625.53125.6875 23.0625 29.6875c.066406.324219.289063.589844.59375.71875l.4375.59375.46875-.625c.292969-.136719.5-.402344.5625-.71875 0-.011719 0-.019531 0-.03125l23.0625-29.625.53125-.6875-.59375-.625-13.15625-13.8125c-.019531-.023437-.039062-.042969-.0625-.0625v-.03125c-.027344-.035156-.058594-.066406-.09375-.09375l-.03125-.0625c-.046875-.046875-.101562-.089844-.15625-.125l-.09375-.125h-.28125c-.0625-.015625-.125-.027344-.1875-.03125-.0625.003906-.125.015625-.1875.03125h-19.6875c-.03125-.011719-.0625-.023437-.09375-.03125zm.8125 2.03125h6.90625l-9 9.71875zm11.46875 0h6.90625l2.09375 9.6875zm-2.28125.46875 10.71875 11.53125h-21.46875zm11.71875 1.78125 9.25 9.75h-7.1875zm-23.4375.03125-2.09375 9.71875h-7.15625zm-9.53125 11.71875h7.59375l9.625 22.1875zm9.75 0h23l-11.5 26.5zm25.125 0h7.625l-17.21875 22.1875z"/></svg>