<svg fill="#666" height="50" viewBox="0 0 50 50" width="50" xmlns="http://www.w3.org/2000/svg"><path d="m14.3125 2-.25.65625s-3.0625 8.09375-3.0625 16.34375c0 7.226563 5.957031 12.503906 13 12.96875v6.125c0 .949219-.445312 1.746094-1.25 2.5-.804687.753906-1.972656 1.402344-3.15625 1.90625-2.367187 1.007813-4.75 1.40625-4.75 1.40625-.011719 0-.019531 0-.03125 0-.71875.144531-1.390625.515625-1.90625 1.03125s-.90625 1.230469-.90625 2.0625c0 .550781.449219 1 1 1h24c.550781 0 1-.449219 1-1 0-.832031-.390625-1.546875-.90625-2.0625s-1.1875-.886719-1.90625-1.03125c-.011719 0-.019531 0-.03125 0 0 0-2.382812-.398437-4.75-1.40625-1.183594-.503906-2.351562-1.152344-3.15625-1.90625-.804687-.753906-1.25-1.550781-1.25-2.5v-6.125c7.042969-.464844 13-5.742187 13-12.96875 0-8.25-3.0625-16.34375-3.0625-16.34375l-.25-.65625zm1.4375 2h18.5c.207031.574219 1.175781 3.316406 1.90625 7-.019531 0-.042969 0-.0625 0h-22.25c.730469-3.683594 1.699219-6.425781 1.90625-7zm20.71875 8.9375h.03125c.296875 1.902344.5 3.953125.5 6.0625 0 6.429688-5.476562 11-12 11-6.523437 0-12-4.570312-12-11 0-2.085937.207031-4.113281.5-6 .0625.007813.125.007813.1875 0h22.40625c.128906.003906.253906-.019531.375-.0625zm-11.46875 27.96875c.273438.398438.527344.796875.875 1.125 1.070313 1 2.402344 1.753906 3.71875 2.3125 2.617188 1.113281 5.191406 1.527344 5.21875 1.53125h.03125c.066406.015625.117188.097656.1875.125h-20.0625c.070313-.027344.121094-.109375.1875-.125h.03125c.027344-.003906 2.601563-.417969 5.21875-1.53125 1.316406-.558594 2.648438-1.3125 3.71875-2.3125.347656-.328125.601563-.726562.875-1.125z"/></svg>