<svg fill="#666" height="50" viewBox="0 0 50 50" width="50" xmlns="http://www.w3.org/2000/svg"><path d="m36.9375 2.84375c0 3.09375-.722656 4.460938-1.65625 5.21875-.933594.757813-2.355469.996094-3.96875 1.21875s-3.414062.429688-4.90625 1.625c-1.238281.992188-2.09375 2.632813-2.34375 5.09375h-20.0625c-2.199219 0-4 1.800781-4 4v20c0 2.199219 1.800781 4 4 4h42c2.199219 0 4-1.800781 4-4v-20c0-2.199219-1.800781-4-4-4h-19.90625c.214844-1.9375.816406-2.933594 1.5625-3.53125.929688-.746094 2.320313-.964844 3.9375-1.1875 1.617188-.222656 3.445313-.441406 4.9375-1.65625 1.492188-1.214844 2.40625-3.355469 2.40625-6.78125zm-32.9375 15.15625h42c1.117188 0 2 .882813 2 2v20c0 1.117188-.882812 2-2 2h-42c-1.117187 0-2-.882812-2-2v-20c0-1.117187.882813-2 2-2zm1 4v4h4v-4zm6 0v4h4v-4zm6 0v4h4v-4zm6 0v4h4v-4zm6 0v4h4v-4zm6 0v4h4v-4zm6 0v4h4v-4zm-36 6v4h7v-4zm9 0v4h4v-4zm6 0v4h4v-4zm6 0v4h4v-4zm6 0v4h4v-4zm6 0v4h7v-4zm-33 6v4h4v-4zm6 0v4h4v-4zm6 0v4h16v-4zm18 0v4h4v-4zm6 0v4h4v-4z"/></svg>