<svg fill="#666" height="50" viewBox="0 0 50 50" width="50" xmlns="http://www.w3.org/2000/svg"><path d="m25 1c-5.535156 0-10 4.464844-10 10v2h-7.90625l-.09375.875-4 35-.125 1.125h44.25l-.125-1.125-4-35-.09375-.875h-7.90625v-2c0-5.535156-4.464844-10-10-10zm0 2c4.464844 0 8 3.535156 8 8v2h-16v-2c0-4.464844 3.535156-8 8-8zm-16.09375 12h6.09375v2.28125c-.597656.347656-1 .980469-1 1.71875 0 1.105469.894531 2 2 2s2-.894531 2-2c0-.738281-.402344-1.371094-1-1.71875v-2.28125h16v2.28125c-.597656.347656-1 .980469-1 1.71875 0 1.105469.894531 2 2 2s2-.894531 2-2c0-.738281-.402344-1.371094-1-1.71875v-2.28125h6.09375l3.78125 33h-39.75z"/></svg>