<svg fill="#666" height="50" viewBox="0 0 50 50" width="50" xmlns="http://www.w3.org/2000/svg"><path d="m35.414063 3c-.050782 0-.101563.007813-.152344.015625-6.863281.039063-15.800781 2.890625-22.574219 9.660156-5.300781 5.304688-8.207031 11.949219-9.246094 17.867188-1.039062 5.914062-.359375 11.132812 2.261719 13.753906 1.867188 1.875 5.082031 2.703125 8.902344 2.703125 6.882812 0 15.898437-2.871094 22.71875-9.6875 5.300781-5.304687 8.203125-11.960937 9.238281-17.875 1.03125-5.917969.355469-11.136719-2.25-13.746094-1.828125-1.824218-4.960937-2.628906-8.675781-2.664062-.074219-.015625-.148438-.027344-.222656-.027344zm0 2c3.511718 0 6.269531.890625 7.480468 2.105469 1.699219 1.699219 2.664063 6.445312 1.699219 11.988281-.96875 5.539063-3.714844 11.835938-8.6875 16.800781-6.386719 6.390625-14.984375 9.105469-21.300781 9.105469-3.507813 0-6.265625-.890625-7.488281-2.117187-1.71875-1.714844-2.679688-6.460938-1.707032-11.996094.972657-5.535156 3.726563-11.824219 8.695313-16.792969 6.386719-6.390625 14.988281-9.09375 21.308594-9.09375zm-9.914063 11c-.828125 0-1.5.671875-1.5 1.5s.671875 1.5 1.5 1.5c.027344 0 .054688 0 .082031-.003906l2.003907 2.003906-2.585938 2.585938-2.003906-2.003907c.003906-.027343.003906-.054687.003906-.082031 0-.828125-.671875-1.5-1.5-1.5s-1.5.671875-1.5 1.5.671875 1.5 1.5 1.5c.027344 0 .054688 0 .082031-.003906l2.003907 2.003906-2.585938 2.585938-2.003906-2.003907c.003906-.027343.003906-.054687.003906-.082031 0-.828125-.671875-1.5-1.5-1.5s-1.5.671875-1.5 1.5.671875 1.5 1.5 1.5c.027344 0 .054688 0 .082031-.003906l2.003907 2.003906-2.292969 2.292969c-.261719.25-.367188.625-.273438.972656.089844.351563.363282.625.714844.714844.347656.09375.722656-.011719.972656-.273438l2.292969-2.292968 2.003906 2.003906c-.003906.027344-.003906.054687-.003906.082031 0 .828125.671875 1.5 1.5 1.5s1.5-.671875 1.5-1.5-.671875-1.5-1.5-1.5c-.027344 0-.054687 0-.082031.003906l-2.003906-2.003906 2.585937-2.585937 2.003906 2.003906c-.003906.027344-.003906.054687-.003906.082031 0 .828125.671875 1.5 1.5 1.5s1.5-.671875 1.5-1.5-.671875-1.5-1.5-1.5c-.027344 0-.054687 0-.082031.003906l-2.003906-2.003906 2.585937-2.585937 2.003906 2.003906c-.003906.027344-.003906.054687-.003906.082031 0 .828125.671875 1.5 1.5 1.5s1.5-.671875 1.5-1.5-.671875-1.5-1.5-1.5c-.027344 0-.054687 0-.082031.003906l-2.003906-2.003906 2.292968-2.292969c.296875-.289062.382813-.726562.222657-1.105468-.160157-.382813-.535157-.625-.949219-.613282-.261719.007813-.507813.117188-.6875.304688l-2.292969 2.292969-2.003906-2.003907c.003906-.027343.003906-.054687.003906-.082031 0-.828125-.671875-1.5-1.5-1.5z"/></svg>