<svg fill="#666" height="50" viewBox="0 0 50 50" width="50" xmlns="http://www.w3.org/2000/svg"><path d="m7 2v46h36v-32.589844l-13.816406-13.410156zm2 2h19v13h13v29h-32zm21 1.578125 9.707031 9.421875h-9.707031zm-11.6875 17.867188-2.191406 10.109375h1.90625l.445312-2.308594h1.816407l.433593 2.308594h1.90625l-1.964843-10.109375zm4.257813 0 2.265625 10.109375h2.203125l2.308593-10.109375h-2.160156l-.6875 4.320312c-.179687 1.140625-.34375 2.355469-.480469 3.554688h-.03125c-.132812-1.183594-.34375-2.429688-.523437-3.507813l-.71875-4.367187zm7.632812 0v10.109375h1.96875v-10.109375zm-10.796875 1.859375h.042969c.089844.675781.226562 1.679687.332031 2.292968l.328125 2.117188h-1.4375l.375-2.101563c.101563-.582031.253906-1.632812.359375-2.308593z"/></svg>