<svg fill="#666" height="50" viewBox="0 0 50 50" width="50" xmlns="http://www.w3.org/2000/svg"><path d="m24.875 0c-.363281.0429688-.675781.28125-.8125.625l-6.25 15.5-16.65625 1.15625c-.398437.039063-.734375.308594-.859375.691406-.121094.378907-.003906.796875.296875 1.058594l12.8125 10.71875-4.0625 16.21875c-.101562.394531.050781.8125.378906 1.054688.332032.238281.773438.253906 1.121094.039062l14.15625-8.875 14.15625 8.875c.347656.214844.789063.199219 1.121094-.039062.328125-.242188.480469-.660157.378906-1.054688l-4.0625-16.21875 12.8125-10.71875c.300781-.261719.417969-.679687.296875-1.058594-.125-.382812-.460937-.652343-.859375-.691406l-16.65625-1.15625-6.25-15.5c-.167969-.429687-.605469-.6875-1.0625-.625zm.125 3.71875 5.53125 13.75c.144531.359375.488281.605469.875.625l14.78125 1-11.375 9.53125c-.296875.253906-.417969.65625-.3125 1.03125l3.625 14.40625-12.59375-7.90625c-.324219-.203125-.738281-.203125-1.0625 0l-12.59375 7.90625 3.625-14.40625c.105469-.375-.015625-.777344-.3125-1.03125l-11.375-9.53125 14.78125-1c.386719-.019531.730469-.265625.875-.625z"/></svg>