<svg fill="#666" height="50" viewBox="0 0 50 50" width="50" xmlns="http://www.w3.org/2000/svg"><path d="m10 4c-3.3016254 0-6 2.6983746-6 6v30c0 3.301625 2.6983746 6 6 6h30c3.301625 0 6-2.698375 6-6v-30c0-3.3016254-2.698375-6-6-6zm0 2h30c2.220375 0 4 1.7796254 4 4v30c0 2.220375-1.779625 4-4 4h-30c-2.2203746 0-4-1.779625-4-4v-30c0-2.2203746 1.7796254-4 4-4zm15 5c-7.719465 0-14 6.279517-14 14s6.280535 14 14 14 14-6.279517 14-14-6.280535-14-14-14zm0 2c6.638535 0 12 5.360483 12 12s-5.361465 12-12 12-12-5.360483-12-12 5.361465-12 12-12zm0 2.947266c-4.986893 0-9.052734 4.065841-9.052734 9.052734s4.065841 9.052734 9.052734 9.052734 9.052734-4.065841 9.052734-9.052734-4.065841-9.052734-9.052734-9.052734zm0 2.105468c3.849107 0 6.947266 3.098159 6.947266 6.947266s-3.098159 6.947266-6.947266 6.947266-6.947266-3.098159-6.947266-6.947266 3.098159-6.947266 6.947266-6.947266z"/></svg>