<svg fill="#666" height="50" viewBox="0 0 50 50" width="50" xmlns="http://www.w3.org/2000/svg"><path d="m25 2c-12.690705 0-23 10.309295-23 23s10.309295 23 23 23 23-10.309295 23-23-10.309295-23-23-23zm0 2c11.609824 0 21 9.390176 21 21s-9.390176 21-21 21-21-9.390176-21-21 9.390176-21 21-21zm.289062 8.507812c-3.73.000001-6.203187 2.260126-6.742187 5.703126-.035.215999.071109.358531.287109.394531l2.259766.396484c.216.036.358531-.072109.394531-.287109.43-2.188 1.720516-3.408203 3.728516-3.408203 2.045 0 3.478515 1.291937 3.478515 3.335937.000001 1.22-.429593 2.044625-1.683593 3.765625l-2.404297 3.298828c-.753 1.041-1.074219 1.794469-1.074219 3.230469v1.46875c0 .215.142422.359469.357422.355469h2.367187c.215001 0 .357422-.142422.357422-.357422v-1.146485c0-1.219.216594-1.721453.933594-2.689453l2.402344-3.300781c1.22-1.686 1.828125-2.940109 1.828125-4.662109 0-3.551-2.618235-6.097657-6.490235-6.097657zm-1.576171 20.984376c-.216-.000001-.359375.144374-.359375.359374v3.083985c0 .215.142375.357422.359375.357422h2.726562c.214 0 .357422-.141422.357422-.357422v-3.083985c0-.213999-.142422-.359374-.357422-.359374z"/></svg>