<svg fill="#666" height="50" viewBox="0 0 50 50" width="50" xmlns="http://www.w3.org/2000/svg"><path d="m24.875 2c-.28125.042969-.53125.199219-.6875.4375 0 0-1.789062 2.566406-3.5625 5.625-.886719 1.527344-1.757812 3.171875-2.4375 4.71875-.679687 1.546875-1.1875 2.949219-1.1875 4.21875 0 4.066406 3.066406 7.4375 7 7.9375v2.0625h-6c-.03125 0-.0625 0-.09375 0-.074219.011719-.148437.035156-.21875.0625l-12 4c-.40625.132813-.683594.511719-.6875.9375v15c0 .550781.449219 1 1 1h38c.550781 0 1-.449219 1-1v-15c-.003906-.425781-.28125-.804687-.6875-.9375l-12-4c-.101562-.039062-.207031-.058594-.3125-.0625h-6v-2.0625c3.933594-.5 7-3.871094 7-7.9375 0-1.269531-.507812-2.671875-1.1875-4.21875-.679687-1.546875-1.550781-3.191406-2.4375-4.71875-1.773437-3.058594-3.5625-5.625-3.5625-5.625-.207031-.308594-.566406-.476562-.9375-.4375zm.125 2.875c.554688.820313 1.308594 1.917969 2.625 4.1875.863281 1.488281 1.742188 3.09375 2.375 4.53125.632813 1.4375 1 2.742188 1 3.40625 0 3.261719-2.574219 5.902344-5.8125 6-.125-.023437-.25-.023437-.375 0-3.238281-.097656-5.8125-2.738281-5.8125-6 0-.664062.367188-1.96875 1-3.40625.632813-1.4375 1.511719-3.042969 2.375-4.53125 1.316406-2.269531 2.070313-3.367187 2.625-4.1875zm0 8.125s-3 4.34375-3 6 1.34375 3 3 3 3-1.34375 3-3-3-6-3-6zm-6.875 16h13.75l11.125 3.71875v13.28125h-36v-13.28125z"/></svg>