<svg fill="#666" height="50" viewBox="0 0 50 50" width="50" xmlns="http://www.w3.org/2000/svg"><path d="m28.96875 1.21875c-.1875.035156-.359375.121094-.5.25l-4.21875 3.625-1.4375-1.59375c-.195312-.226562-.484375-.351562-.78125-.34375-.25.019531-.484375.128906-.65625.3125l-2.5 2.53125h-3.40625c-.03125 0-.0625 0-.09375 0s-.0625 0-.09375 0c-.160156.035156-.3125.109375-.4375.21875l-10.15625 7.8125-.0625.03125c-.011719.011719-.019531.019531-.03125.03125-.011719 0-.019531 0-.03125 0-.042969.019531-.085937.039063-.125.0625-.011719.011719-.019531.019531-.03125.03125-.023437.019531-.042969.039063-.0625.0625-.035156.027344-.066406.058594-.09375.09375-.035156.039063-.066406.082031-.09375.125-.011719.019531-.023437.042969-.03125.0625-.011719.011719-.019531.019531-.03125.03125-.023437.050781-.046875.101563-.0625.15625l-3.9375 7.84375c-.195313.386719-.1210938.851563.183594 1.160156.308594.304688.773437.378907 1.160156.183594l2.5625-1.28125v20.375c0 .550781.449219 1 1 1h30 .03125c.0625-.003906.125-.015625.1875-.03125.03125-.007812.0625-.019531.09375-.03125.25-.074219.464844-.242187.59375-.46875l7.875-9.84375c.140625-.175781.21875-.398437.21875-.625v-9.5625l5.71875-5.71875c.316406-.332031.367188-.832031.125-1.21875l-5.8125-9.6875c-.007812-.03125-.019531-.0625-.03125-.09375-.042969-.140625-.121094-.265625-.21875-.375-.007812-.019531-.019531-.042969-.03125-.0625-.011719 0-.019531 0-.03125 0-.007812-.019531-.019531-.042969-.03125-.0625-.011719 0-.019531 0-.03125 0-.019531-.011719-.042969-.023437-.0625-.03125 0-.011719 0-.019531 0-.03125-.011719 0-.019531 0-.03125 0-.050781-.035156-.101562-.066406-.15625-.09375-.011719 0-.019531 0-.03125 0-.019531-.011719-.042969-.023437-.0625-.03125-.011719 0-.019531 0-.03125 0-.019531-.011719-.042969-.023437-.0625-.03125-.011719 0-.019531 0-.03125 0-.019531 0-.042969 0-.0625 0-.011719 0-.019531 0-.03125 0-.019531 0-.042969 0-.0625 0-.011719 0-.019531 0-.03125 0h-.0625c-.019531 0-.042969 0-.0625 0h-8.84375l-4.1875-4.4375c-.175781-.203125-.421875-.324219-.6875-.34375-.0625-.007812-.125-.007812-.1875 0zm.09375 2.375 7.71875 8.1875-2.21875 2.21875h-2.40625c-.027344-.035156-.058594-.066406-.09375-.09375l-6.5-7.3125zm-7.03125 2.03125 7.46875 8.375h-15.65625zm-6.25 2.375h1.15625l-5.90625 6h-3.09375zm20.125 0h4.65625l-2.40625 2.40625zm6.90625.625 4.9375 8.1875-6.5625 6.5625-4.9375-8.1875zm-36.8125 7.375h28v26h-28v-20.875c.003906-.042969.003906-.082031 0-.125zm30 2.5625 4.15625 6.9375c.152344.265625.421875.449219.726563.492188.304687.042968.613281-.058594.835937-.273438l.28125-.28125v7.21875l-6 7.5zm-32 .6875v1.125l-.75.375zm10.71875.75c-.550781.078125-.9375.589844-.859375 1.140625s.589844.9375 1.140625.859375h10c.359375.003906.695313-.183594.878906-.496094.179688-.3125.179688-.695312 0-1.007812-.183593-.3125-.519531-.5-.878906-.496094h-10c-.03125 0-.0625 0-.09375 0s-.0625 0-.09375 0-.0625 0-.09375 0z"/></svg>