<svg fill="#666" height="50" viewBox="0 0 50 50" width="50" xmlns="http://www.w3.org/2000/svg"><path d="m30.375-.09375c-5.042969.0546875-8.199219 2.398438-9.96875 5.0625-1.550781 2.335938-2.027344 4.726563-2.25 6.28125-4.703125.640625-7.523437 2.515625-8.6875 4.96875-1.15625 2.4375-.65625 5.121094.40625 7.3125-.09375.578125-.09375 1.101563-.125 1.625-1.503906.171875-2.964844.65625-4.125 1.71875-1.304687 1.195313-2.085937 3.050781-2.0625 5.3125-1.878906 2.375-3.003906 5.707031-2.09375 10.40625-.304687.3125-.617187.613281-.84375 1-.34375.582031-.625 1.171875-.625 1.90625 0 1.28125.246094 2.332031.84375 3.125s1.542969 1.21875 2.5 1.28125c2.347656.101563 6.25.09375 7.75.09375.996094 0 1.84375-.535156 2.15625-1.1875s.25-1.222656.25-1.40625c0-1.347656-.914062-2.371094-2-3.25.558594-.539062 1.015625-1.164062 1.3125-1.8125.230469-.5.367188-1.003906.46875-1.46875.394531.074219.808594.148438 1.25.1875.671875.0625 1.246094-.042969 1.84375-.09375.4375 1.019531 1.058594 2.136719 1.90625 3.25-.261719.171875-.507812.355469-.6875.59375-.476562.628906-.683594 1.410156-.59375 2.1875.183594 1.554688 1.691406 3 4 3h6.1875c1.046875 0 1.957031-.242187 2.625-.8125.667969-.570312 1-1.425781 1-2.28125 0-1.707031-.628906-3.371094-1.8125-4.5625.101563-.792969-.007812-1.828125-.03125-2.8125 2.363281-1.335937 4.207031-2.59375 5.6875-3.78125.066406.152344.085938.449219.15625.5625.246094.402344.3125.445313.3125.40625 0 0 0 .035156 0 .03125-.292969 1.535156-.03125 3.210938.6875 4.8125.394531.882813.914063 1.730469 1.53125 2.5-.96875.730469-1.476562 1.902344-1.28125 3.03125.277344 1.578125 1.832031 2.90625 4.125 2.90625h6.21875c1.046875 0 1.957031-.242187 2.625-.8125.667969-.570312.96875-1.425781.96875-2.28125 0-1.71875-.652344-3.4375-1.9375-4.625-.574219-3.511719-1.285156-4.816406-2.34375-6.75.441406-2.292969.320313-4.527344-.1875-6.4375-.480469-1.808594-1.269531-3.265625-2.21875-4.3125.597656-2.542969.167969-4.761719-1.15625-6.3125-1.167969-1.367187-2.890625-2.214844-4.71875-2.90625.21875-.496094.359375-1.042969.375-1.5625.027344-.851562-.222656-1.65625-.625-2.375.054688-.492187.019531-.933594-.09375-1.3125.222656-.363281.34375-.746094.375-1.125.050781-.605469-.035156-1.222656-.21875-1.78125-.003906-.007812.003906-.023437 0-.03125-.601562-1.894531-1.65625-3.667969-2.84375-5.03125-1.195312-1.371094-2.472656-2.4375-4-2.4375-.011719 0-.019531 0-.03125 0zm.03125 2c.371094 0 1.496094.597656 2.5 1.75s1.9375 2.746094 2.4375 4.34375v.03125c.113281.335938.179688.707031.15625.96875-.011719.117188-.015625.082031-.03125.125-.476562.066406-1.117187.121094-1.84375.03125-.835937-.101562-1.574219-.273437-2.03125-.34375-.015625-.003906-.050781 0-.0625 0-.554687-.09375-1.140625-.042969-1.65625.1875-.535156.238281-1.027344.71875-1.1875 1.375s.019531 1.347656.40625 2c.304688.511719.867188 1.027344 1.46875 1.5625-.019531.167969-.183594.332031-.1875.5-.011719.511719.050781 1.046875.21875 1.59375s.421875 1.09375.84375 1.5625 1.070313.863281 1.8125.90625h.0625c1.015625 0 1.765625-.503906 2.34375-.9375.265625-.199219.269531-.25.4375-.40625 1.921875.65625 3.582031 1.511719 4.53125 2.625 1.035156 1.214844 1.445313 2.671875.71875 5.03125-.101562.359375.007813.746094.28125 1 .695313.65625 1.507813 2.046875 1.96875 3.78125.460938 1.734375.585938 3.800781.125 5.875-.058594.242188-.027344.5.09375.71875 1.210938 2.222656 1.726563 2.839844 2.3125 6.5625.035156.277344.179688.523438.40625.6875.933594.648438 1.46875 2.003906 1.46875 3.46875 0 .445313-.101562.628906-.28125.78125-.179687.152344-.5625.3125-1.3125.3125h-6.21875c-1.609375 0-2.058594-.679687-2.15625-1.25-.085937-.492187.183594-.957031.84375-1.21875.195313.15625.355469.359375.5625.5.457031.3125 1.078125.191406 1.390625-.265625s.191406-1.078125-.265625-1.390625c-1.207031-.816406-2.261719-2.191406-2.90625-3.625s-.851562-2.910156-.59375-3.875c.042969-.140625.054688-.292969.03125-.4375-.109375-.65625-.453125-.960937-.59375-1.1875-.121094-.195312-.226562-.496094-.28125-.96875.5-.488281 1.1875-1.003906 1.5625-1.46875 1.683594-2.089844 2.183594-4.039062 2.125-5.65625-.058594-1.9375-.902344-4.035156-1.6875-5.75s-1.5625-3.03125-1.5625-3.03125c-.285156-.476562-.902344-.628906-1.375-.34375-.476562.285156-.628906.898438-.34375 1.375 0 0 .730469 1.203125 1.46875 2.8125s1.457031 3.636719 1.5 5v.03125c.042969 1.183594-.246094 2.527344-1.6875 4.3125-1.273437 1.578125-3.699219 3.511719-7.3125 5.65625-.332031-1.792969-1.066406-3.675781-2.375-5.4375.894531-4.6875.003906-8.429687-2.78125-11.625-.222656-.304687-.597656-.457031-.972656-.394531-.371094.0625-.675781.332031-.789063.691406-.109375.359375-.007812.753906.261719 1.015625 2.527344 2.902344 3.238281 5.816406 2.28125 10.3125-.070312.296875 0 .605469.1875.84375 2.65625 3.296875 2.660156 7.296875 2.28125 9.84375-.046875.363281.109375.722656.40625.9375.84375.632813 1.40625 2.035156 1.40625 3.5 0 .445313-.101562.628906-.28125.78125-.179687.152344-.59375.3125-1.34375.3125h-6.1875c-1.589844 0-1.933594-.648437-2-1.21875-.035156-.285156.046875-.5625.1875-.75.105469-.140625.296875-.203125.5-.25.0625.042969.09375.113281.15625.15625.464844.300781 1.089844.167969 1.390625-.296875s.167969-1.089844-.296875-1.390625c-1.292969-.835937-2.324219-3.039062-3.03125-4.65625-.027344-.054687-.058594-.105469-.09375-.15625-.019531-.03125-.039062-.0625-.0625-.09375-.039062-.046875-.078125-.085937-.125-.125-.089844-.09375-.195312-.167969-.3125-.21875-1.371094-.644531-2.066406-1.886719-2.40625-3.21875s-.1875-2.804687-.0625-3.15625c.121094-.363281.023438-.765625-.25-1.03125-1.398437-1.347656-2.191406-2.421875-2.59375-3.5625-.183594-.523437-.28125-1.117187-.3125-1.75.042969-.164062.042969-.335937 0-.5.007813-.628906.042969-1.273437.1875-2.09375.042969-.222656.011719-.453125-.09375-.65625-.988281-1.84375-1.371094-4.136719-.5-5.96875s3.019531-3.488281 7.8125-3.96875c.472656-.039062.847656-.40625.90625-.875.140625-1.269531.613281-3.921875 2.09375-6.15625s3.855469-4.109375 8.3125-4.15625zm.5 8.875c.09375-.007812.199219-.019531.3125 0h.03125c.132813.019531.472656.082031.90625.15625-.027344.042969-.050781.09375-.0625.15625-.101562.398438.511719 1.007813 1.3125 1.40625 0 0 .289063-.5 1.1875-.5.269531-.039062.480469-.007812.65625.03125.03125.125.082031.238281.15625.34375.070313.09375.128906.226563.1875.375-.195312.027344-.367187.25-.59375.25-.398437 0-.507812-.1875-.90625-.1875-.398437 0-.5.199219-.5.5s.71875.59375.71875.59375l1.375-.21875c.023438-.042969.066406-.121094.09375-.1875.019531.148438.035156.289063.03125.4375 0 .046875-.027344.082031-.03125.125-.8125.003906-2.238281.207031-3.28125 1.34375-.097656-.332031-.164062-.6875-.15625-.9375.003906-.128906.042969-.214844.0625-.25.164063-.210937.234375-.476562.199219-.742187s-.175781-.503907-.386719-.664063c-.757812-.597656-1.199219-1.117187-1.40625-1.46875-.207031-.351562-.1875-.492187-.1875-.5 0-.007812-.03125.007813.0625-.03125.046875-.019531.125-.023437.21875-.03125zm4.28125.3125c.007813.09375.09375.285156.0625.375-.015625.0625-.027344.125-.03125.1875-.039062.015625-.070312.03125-.125.03125-.199219 0-.28125-.082031-.28125-.28125 0-.101562-.007812-.117187.09375-.21875-.199219.101563-.398437 0-.5 0-.101562 0-.304687.101563-.40625 0l.09375.125c0 .199219-.082031.28125-.28125.28125s-.3125-.082031-.3125-.28125c0-.066406.035156-.148437.09375-.1875.519531.035156 1.054688-.011719 1.59375-.03125zm.59375 3.125c-.066406.445313-.238281.796875-.46875.96875-.019531.007813-.042969.019531-.0625.03125-.011719.011719-.019531.019531-.03125.03125v.03125c-.019531.007813-.042969.019531-.0625.03125 0 0-.296875.308594-.71875.625-.414062.308594-.898437.550781-1.09375.5625-.007812 0-.023437 0-.03125 0-.121094-.011719-.203125-.074219-.3125-.1875.207031-.523437.875-1.6875 2.78125-2.09375zm-25.96875 12.9375c.070313.519531.109375 1.046875.28125 1.53125.496094 1.414063 1.496094 2.640625 2.78125 3.9375-.214844 1-.269531 2.234375.09375 3.65625.242188.949219.730469 1.890625 1.40625 2.75-.3125-.039062-.625-.074219-.875-.125-.347656-.070312-.640625-.214844-.59375-.1875-.34375-.195312-.773437-.167969-1.089844.066406-.320312.238282-.46875.640625-.378906 1.027344-.007812-.042969.003906.234375-.0625.5625s-.195312.734375-.375 1.125c-.359375.785156-.949219 1.453125-1.46875 1.65625-.367187.132813-.625.464844-.660156.855469s.164062.765625.503906.957031c1.347656.808594 2.125 1.847656 2.125 2.4375 0 .316406-.019531.539063-.03125.5625-.011719.023438.128906.03125-.375.03125-1.492187 0-5.371094.003906-7.625-.09375-.011719 0-.019531 0-.03125 0-.515625-.039062-.777344-.171875-1-.46875-.230469-.304687-.4375-.917969-.4375-1.9375 0-.066406.113281-.515625.34375-.90625s.585938-.757812.75-.875c.320313-.238281.464844-.644531.375-1.03125-1.046875-4.660156.0625-7.316406 1.8125-9.4375.164063-.203125.242188-.460937.21875-.71875-.132812-1.996094.5-3.296875 1.46875-4.1875.757813-.695312 1.777344-1.03125 2.84375-1.1875z"/></svg>