<svg fill="#666" height="50" viewBox="0 0 50 50" width="50" xmlns="http://www.w3.org/2000/svg"><path d="m25 2c-2.472656 0-4.683594.730469-6.3125 1.96875-1.355469 1.027344-2.308594 2.433594-2.59375 4.03125h-13.09375c-1.644531 0-3 1.355469-3 3v16.8125c-.0078125.0625-.0078125.125 0 .1875v17c0 1.644531 1.355469 3 3 3h44c1.644531 0 3-1.355469 3-3v-17.09375c0-.03125 0-.0625 0-.09375v-16.8125c0-1.644531-1.355469-3-3-3h-13.09375c-.285156-1.597656-1.238281-3.003906-2.59375-4.03125-1.628906-1.238281-3.839844-1.96875-6.3125-1.96875zm0 2c2.082031 0 3.863281.628906 5.09375 1.5625.914063.695313 1.527344 1.515625 1.78125 2.4375h-13.75c.253906-.921875.867188-1.742187 1.78125-2.4375 1.230469-.933594 3.011719-1.5625 5.09375-1.5625zm-22 6h44c.566406 0 1 .433594 1 1v16.8125c-.003906.042969-.003906.082031 0 .125v.0625c0 .566406-.433594 1-1 1h-17c0-1.644531-1.355469-3-3-3h-4c-1.644531 0-3 1.355469-3 3h-17c-.566406 0-1-.433594-1-1 .007813-.0625.007813-.125 0-.1875v-16.8125c0-.566406.433594-1 1-1zm20 18h4c.566406 0 1 .433594 1 1v.8125.09375.09375c-.007812.074219-.007812.144531 0 .21875v.78125c0 .566406-.433594 1-1 1h-4c-.566406 0-1-.433594-1-1v-.8125c.027344-.132812.027344-.273437 0-.40625v-.78125c0-.566406.433594-1 1-1zm-21 2.8125c.316406.113281.648438.1875 1 .1875h17c0 1.644531 1.355469 3 3 3h4c1.644531 0 3-1.355469 3-3h17c.351563 0 .683594-.074219 1-.1875v14.1875c0 .566406-.433594 1-1 1h-44c-.566406 0-1-.433594-1-1z"/></svg>