<svg fill="#666" height="50" viewBox="0 0 50 50" width="50" xmlns="http://www.w3.org/2000/svg"><path d="m2.84375 2c-1.558594 0-2.84375 1.285156-2.84375 2.84375v4.96875c-.00390625.042969-.00390625.082031 0 .125v37.0625c0 .550781.449219 1 1 1h48c.550781 0 1-.449219 1-1v-37c0-.03125 0-.0625 0-.09375v-5.0625c0-1.558594-1.285156-2.84375-2.84375-2.84375zm0 2h44.3125c.480469 0 .84375.363281.84375.84375v4.15625h-46v-4.15625c0-.480469.363281-.84375.84375-.84375zm-.84375 7h46v35h-46zm11.59375 6.59375c-.960937 0-1.832031.171875-2.59375.53125s-1.410156.855469-1.9375 1.46875-.9375 1.308594-1.21875 2.125-.40625 1.683594-.40625 2.59375c0 .921875.125 1.808594.40625 2.625s.691406 1.511719 1.21875 2.125 1.175781 1.113281 1.9375 1.46875c.761719.351563 1.632813.53125 2.59375.53125.78125 0 1.476563-.121094 2.125-.375.648438-.253906 1.238281-.632812 1.71875-1.09375.480469-.460937.84375-.988281 1.125-1.625s.453125-1.355469.5-2.125h-2.1875c-.046875.46875-.15625.90625-.3125 1.3125s-.378906.785156-.65625 1.09375c-.277344.304688-.585937.542969-.96875.71875-.382812.175781-.839844.25-1.34375.25-.683594 0-1.285156-.128906-1.78125-.40625-.496094-.273437-.90625-.664062-1.21875-1.125-.3125-.460937-.539062-.972656-.6875-1.5625-.148437-.589844-.21875-1.203125-.21875-1.8125 0-.613281.070313-1.191406.21875-1.78125.148438-.589844.375-1.132812.6875-1.59375.3125-.460937.722656-.816406 1.21875-1.09375.496094-.273437 1.097656-.40625 1.78125-.40625.46875 0 .863281.0625 1.21875.1875s.671875.300781.9375.53125c.265625.226563.488281.5.65625.8125s.277344.628906.375 1h2.25c-.070312-.695312-.230469-1.304687-.53125-1.84375-.300781-.539062-.703125-.996094-1.1875-1.375s-1.050781-.675781-1.6875-.875c-.636719-.195312-1.3125-.28125-2.03125-.28125zm10.75 0 5.1875 13.46875h1.9375l-5.15625-13.46875zm-3.34375 4.0625v2.40625h2.5v-2.40625zm0 6.65625v2.4375h2.5v-2.4375z"/></svg>