<svg fill="#666" height="50" viewBox="0 0 50 50" width="50" xmlns="http://www.w3.org/2000/svg"><path d="m7 2v46h36v-32.589844l-13.816406-13.410156zm2 2h19v13h13v29h-32zm21 1.578125 9.707031 9.421875h-9.707031zm-13.878906 17.933594c-.75 0-1.53125.074219-2.144531.191406h-.003907v9.964844h1.964844v-4.039063h.289063c.660156 0 .972656.363282 1.152343 1.621094.152344 1.113281.378907 2.132813.496094 2.417969h2.058594c-.183594-.375-.453125-1.621094-.648438-2.746094-.195312-1.078125-.539062-1.726562-1.226562-1.996094v-.03125c1.03125-.476562 1.554687-1.453125 1.554687-2.535156 0-.867187-.179687-1.542969-.792968-2.097656-.660157-.601563-1.621094-.75-2.699219-.75zm6.34375.046875-2.1875 10.105469h1.902344l.449218-2.308594h1.816407l.433593 2.308594h1.90625l-1.964843-10.105469zm4.441406 0 1.722656 10.109375h1.949219l.675781-3.300781c.210938-.988282.375-2.113282.558594-3.332032h.027344c.136719 1.230469.285156 2.386719.449219 3.316407l.601562 3.316406h2.023438l1.785156-10.109375h-1.917969l-.496094 4.003906c-.136718 1.171875-.253906 2.25-.390625 3.570313h-.03125c-.117187-1.320313-.296875-2.445313-.476562-3.585938l-.675781-3.988281h-1.589844l-.71875 4.019531c-.210938 1.214844-.4375 2.308594-.574219 3.554688h-.042969c-.121093-1.230469-.210937-2.386719-.347656-3.539063l-.492187-4.035156zm-10.5 1.484375c.882813.027344 1.230469.644531 1.230469 1.5 0 .882812-.496094 1.570312-1.351563 1.570312h-.347656v-3.011718c.105469-.046875.300781-.058594.46875-.058594zm7.15625.375h.042969c.089844.671875.226562 1.679687.332031 2.292969l.328125 2.117187h-1.441406l.375-2.101562c.105469-.585938.257812-1.636719.363281-2.308594z"/></svg>