<svg fill="#666" height="50" viewBox="0 0 50 50" width="50" xmlns="http://www.w3.org/2000/svg"><path d="m9 4c-2.7495161 0-5 2.2504839-5 5v32c0 2.749516 2.2504839 5 5 5h32c2.749516 0 5-2.250484 5-5v-32c0-2.7495161-2.250484-5-5-5zm0 2h32c1.668484 0 3 1.3315161 3 3v32c0 1.668484-1.331516 3-3 3h-32c-1.6684839 0-3-1.331516-3-3v-32c0-1.6684839 1.3315161-3 3-3zm5 5.011719c-1.095221 0-2.080781.32736-2.810547.941406s-1.177734 1.531386-1.177734 2.513672c0 1.86718 1.619566 3.322812 3.679687 3.466797a.98809878.98809878 0 0 0 .003906.001953.98809878.98809878 0 0 0 .304688.052734c2.27301 0 3.988281-1.592198 3.988281-3.521484a.98809878.98809878 0 0 0 -.001953-.052735c-.101751-1.900231-1.795885-3.402343-3.986328-3.402343zm0 1.976562c1.392231 0 1.94197.621757 2.001953 1.503907-.01215.856246-.541862 1.519531-2.001953 1.519531-1.385406 0-2.011719-.709494-2.011719-1.544922 0-.417714.152422-.732499.472657-1.001953.320232-.269454.834283-.476563 1.539062-.476563zm-3 6.011719a1.0001 1.0001 0 0 0 -1 1v19a1.0001 1.0001 0 0 0 1 1h6a1.0001 1.0001 0 0 0 1-1v-5.865234-13.134766a1.0001 1.0001 0 0 0 -1-1zm9 0a1.0001 1.0001 0 0 0 -1 1v19a1.0001 1.0001 0 0 0 1 1h6a1.0001 1.0001 0 0 0 1-1v-10c0-.829667.226394-1.654965.625-2.195312.398606-.540349.901466-.864631 1.857422-.847657.985744.01695 1.507577.354638 1.902344.884766.394766.530127.615234 1.32487.615234 2.158203v10a1.0001 1.0001 0 0 0 1 1h6a1.0001 1.0001 0 0 0 1-1v-10.738281c0-2.961538-.877212-5.307389-2.380859-6.894531-1.503648-1.587144-3.594969-2.367188-5.806641-2.367188-2.102017 0-3.701647.704889-4.8125 1.423828v-.423828a1.0001 1.0001 0 0 0 -1-1zm-8 2h4v12.134766 4.865234h-4zm9 0h4v1.560547a1.0001 1.0001 0 0 0 1.798828.601562s1.570366-2.162109 5.013672-2.162109c1.753328 0 3.256866.582581 4.355469 1.742188 1.098603 1.159606 1.832031 2.946069 1.832031 5.519531v9.738281h-4v-9c0-1.166667-.279532-2.372893-1.009766-3.353516-.730233-.980622-1.9584-1.663408-3.472656-1.689453-1.522044-.02703-2.770059.669957-3.501953 1.66211-.731894.992152-1.015625 2.210526-1.015625 3.380859v9h-4z"/></svg>