<svg fill="#666" height="50" viewBox="0 0 50 50" width="50" xmlns="http://www.w3.org/2000/svg"><path d="m9 4c-2.7495161 0-5 2.2504839-5 5v32c0 2.749516 2.2504839 5 5 5h32c2.749516 0 5-2.250484 5-5v-32c0-2.7495161-2.250484-5-5-5zm0 2h32c1.668484 0 3 1.3315161 3 3v32c0 1.668484-1.331516 3-3 3h-32c-1.6684839 0-3-1.331516-3-3v-32c0-1.6684839 1.3315161-3 3-3zm14.451172 6c-.272 0-.451172.171688-.451172.429688v3.140624c0 .257.178172.429688.451172.429688v-.001953h3.09375c.272 0 .455078-.171688.455078-.429688v-3.138671c0-.257-.183078-.429688-.455078-.429688zm.023437 8c-.284 0-.474609.151953-.474609.376953v17.246094c0 .225.188609.375.474609.375v.001953h3.048829c.285999 0 .476562-.151953.476562-.376953v-17.246094c0-.225-.189563-.376953-.476562-.376953z"/></svg>