<svg fill="#666" height="50" viewBox="0 0 50 50" width="50" xmlns="http://www.w3.org/2000/svg"><path d="m29 3c-.9375 0-1.835937.382813-2.5 1-.664062.617188-1.136719 1.433594-1.5 2.40625-.644531 1.734375-.914062 3.988281-.96875 6.625-4.796875.148438-9.210937 1.390625-12.75 3.4375-1.066406-1-2.425781-1.5-3.78125-1.5-1.410156 0-2.824219.542969-3.90625 1.625-2.167969 2.167969-2.167969 5.644531 0 7.8125l.25.25c-.53125 1.378906-.84375 2.832031-.84375 4.34375 0 4.527344 2.566406 8.585938 6.5625 11.4375 3.996094 2.851563 9.445313 4.5625 15.4375 4.5625 5.992188 0 11.441406-1.710937 15.4375-4.5625 3.996094-2.851562 6.5625-6.910156 6.5625-11.4375 0-1.511719-.3125-2.964844-.84375-4.34375l.25-.25c2.167969-2.167969 2.167969-5.644531 0-7.8125-1.082031-1.082031-2.496094-1.625-3.90625-1.625-1.355469 0-2.714844.5-3.78125 1.5-3.523437-2.035156-7.917969-3.277344-12.6875-3.4375.0625-2.484375.332031-4.5625.84375-5.9375.289063-.777344.652344-1.335937 1-1.65625.347656-.320312.664063-.4375 1.125-.4375.460938 0 .683594.125 1.03125.40625s.753906.742188 1.28125 1.28125c.941406.964844 2.382813 2.027344 4.78125 2.25.445313 2.300781 2.480469 4.0625 4.90625 4.0625 2.75 0 5-2.25 5-5s-2.25-5-5-5c-2.394531 0-4.425781 1.710938-4.90625 3.96875-1.78125-.171875-2.566406-.859375-3.34375-1.65625-.449219-.460937-.863281-1-1.4375-1.46875s-1.375-.84375-2.3125-.84375zm12 2c1.667969 0 3 1.332031 3 3s-1.332031 3-3 3-3-1.332031-3-3 1.332031-3 3-3zm-16 10c5.609375 0 10.675781 1.613281 14.28125 4.1875s5.71875 6.039063 5.71875 9.8125c0 3.773438-2.113281 7.238281-5.71875 9.8125s-8.671875 4.1875-14.28125 4.1875-10.675781-1.613281-14.28125-4.1875-5.71875-6.039062-5.71875-9.8125c0-3.773437 2.113281-7.238281 5.71875-9.8125s8.671875-4.1875 14.28125-4.1875zm-17.5 1.9375c.703125 0 1.414063.210938 2.03125.65625-2.003906 1.4375-3.644531 3.175781-4.78125 5.125-1.167969-1.421875-1.089844-3.378906.25-4.71875.714844-.714844 1.609375-1.0625 2.5-1.0625zm35 0c.890625 0 1.785156.347656 2.5 1.0625 1.339844 1.339844 1.417969 3.296875.25 4.71875-1.136719-1.949219-2.777344-3.6875-4.78125-5.125.617188-.445312 1.328125-.65625 2.03125-.65625zm-25.5 5.0625c-2.199219 0-4 1.800781-4 4s1.800781 4 4 4 4-1.800781 4-4-1.800781-4-4-4zm16 0c-2.199219 0-4 1.800781-4 4s1.800781 4 4 4 4-1.800781 4-4-1.800781-4-4-4zm-16 2c1.117188 0 2 .882813 2 2 0 1.117188-.882812 2-2 2-1.117187 0-2-.882812-2-2 0-1.117187.882813-2 2-2zm16 0c1.117188 0 2 .882813 2 2 0 1.117188-.882812 2-2 2-1.117187 0-2-.882812-2-2 0-1.117187.882813-2 2-2zm1.15625 9.84375c-.054687.007813-.105469.015625-.15625.03125-.316406.0625-.582031.269531-.71875.5625 0 0-.523437.726563-1.84375 1.5625-1.320312.835938-3.378906 1.6875-6.4375 1.6875s-5.117187-.851562-6.4375-1.6875c-1.320312-.835937-1.84375-1.5625-1.84375-1.5625-.226562-.355469-.652344-.53125-1.0625-.4375-.324219.082031-.585937.316406-.699219.632813-.113281.3125-.0625.660156.136719.929687 0 0 .769531 1.109375 2.375 2.125s4.089844 2 7.53125 2 5.925781-.984375 7.53125-2 2.375-2.125 2.375-2.125c.300781-.289062.390625-.738281.222656-1.121094-.167968-.382812-.554687-.621093-.972656-.597656z"/></svg>