<svg fill="#666" height="50" viewBox="0 0 50 50" width="50" xmlns="http://www.w3.org/2000/svg"><path d="m42.90625 2.90625c-1.054687 0-2.109375.390625-2.90625 1.1875l-.84375.8125c-.203125-.105469-.433594-.136719-.65625-.09375-.191406.042969-.363281.140625-.5.28125l-31.40625 31.40625c-.097656.097656-.171875.214844-.21875.34375l-3.3125 8.8125c-.132812.363281-.042969.773438.234375 1.046875.273438.277344.683594.367188 1.046875.234375l8.8125-3.3125c.128906-.046875.246094-.121094.34375-.21875l31.40625-31.40625c.335938-.347656.378906-.886719.09375-1.28125l.8125-.8125c1.59375-1.59375 1.59375-4.21875 0-5.8125-.796875-.796875-1.851562-1.1875-2.90625-1.1875zm0 2c.546875 0 1.097656.191406 1.5.59375.808594.808594.808594 2.191406 0 3l-.78125.8125-3-3 .78125-.8125c.402344-.402344.953125-.59375 1.5-.59375zm-4.21875 2.28125 4.125 4.125-2.75 2.71875-4.09375-4.09375zm-4.15625 4.15625 4.125 4.125-25.90625 25.875-.75-.78125v-1.5625c0-.550781-.449219-1-1-1h-1.5625l-.78125-.75zm-26.875 27.75.625.625c.191406.1875.453125.289063.71875.28125h1v1c-.007812.265625.09375.527344.28125.71875l.625.625-3.8125 1.4375-.875-.875z"/></svg>