<svg fill="#666" height="50" viewBox="0 0 50 50" width="50" xmlns="http://www.w3.org/2000/svg"><path d="m24.964844 1a1.0001 1.0001 0 0 0 -.582032.2128906l-19.960937 15.6230474-3.0390625 2.376953a1.0002305 1.0002305 0 1 0 1.234375 1.574218l1.3828125-1.082031v26.294922a1.0001 1.0001 0 0 0 1 1h40a1.0001 1.0001 0 0 0 1-1v-26.294922l1.382812 1.082031a1.0002308 1.0002308 0 1 0 1.234376-1.574218l-2.984376-2.333985-20.015624-15.6660154a1.0001 1.0001 0 0 0 -.652344-.2128906zm.035156 2.2695312 19 14.8691408v26.861328h-38v-26.861328zm-1 11.7304688v2.099609c-3.443.363-5.576172 2.402329-5.576172 5.361329 0 7.539999 11.210938 3.997218 11.210938 9.199218 0 2.01-1.884766 3.351563-4.634766 3.351563s-4.566797-1.531282-4.716797-3.363281h-2.337891c.014 3.000999 2.391688 5.13464 6.054688 5.43164v1.919922h2v-1.939453c3.792-.342 6-2.378844 6-5.589844 0-7.428-11.224609-4.445484-11.224609-9.146484 0-1.709 1.516609-3.13086 4.224609-3.13086s4.265312 1.531235 4.320312 3.240235h2.324219c-.095-2.937-2.310531-5.02275-5.644531-5.34375v-2.089844z"/></svg>