<svg fill="#666" height="50" viewBox="0 0 50 50" width="50" xmlns="http://www.w3.org/2000/svg"><path d="m20.064453 2.5234375a1.0001 1.0001 0 0 0 -.664062.2636719l-3.552735 3.2558594-4.736328.7890624a1.0001 1.0001 0 0 0 -.763672.6152344l-1.7753904 4.4375004-3.9453125 2.763672a1.0001 1.0001 0 0 0 -.4257812.878906l.296875 4.835937-2.3671875 4.140625a1.0001 1.0001 0 0 0 0 .992188l2.3671875 4.140625-.296875 4.835937a1.0001 1.0001 0 0 0 .4257812.878906l3.9453125 2.763672 1.7753904 4.4375a1.0001 1.0001 0 0 0 .763672.615235l4.736328.789062 3.552735 3.25586a1.0001 1.0001 0 0 0 .960937.220703l4.638672-1.38086 4.638672 1.38086a1.0001 1.0001 0 0 0 .960937-.220703l3.552735-3.25586 4.736328-.789062a1.0001 1.0001 0 0 0 .763672-.615235l1.77539-4.4375 3.945313-2.763672a1.0001 1.0001 0 0 0 .425781-.878906l-.296875-4.835937 2.367188-4.140625a1.0001 1.0001 0 0 0 0-.992188l-2.367188-4.140625.296875-4.835937a1.0001 1.0001 0 0 0 -.425781-.878906l-3.945313-2.763672-1.77539-4.4375004a1.0001 1.0001 0 0 0 -.763672-.6152344l-4.736328-.7890624-3.552735-3.2558594a1.0001 1.0001 0 0 0 -.960937-.2207032l-4.638672 1.3808594-4.638672-1.3808594a1.0001 1.0001 0 0 0 -.296875-.0429687zm.269531 2.1210937 4.38086 1.3046876a1.0001 1.0001 0 0 0 .570312 0l4.38086-1.3046876 3.353515 3.0742188a1.0001 1.0001 0 0 0 .511719.2480469l4.472656.7460937 1.677735 4.1914064a1.0001 1.0001 0 0 0 .355468.447265l3.730469 2.613282-.279297 4.574218a1.0001 1.0001 0 0 0 .128907.556641l2.230468 3.904297-2.230468 3.904297a1.0001 1.0001 0 0 0 -.128907.556641l.279297 4.574218-3.730469 2.613282a1.0001 1.0001 0 0 0 -.355468.447265l-1.677735 4.191406-4.472656.746094a1.0001 1.0001 0 0 0 -.511719.248047l-3.353515 3.074219-4.38086-1.304688a1.0001 1.0001 0 0 0 -.570312 0l-4.38086 1.304688-3.353515-3.074219a1.0001 1.0001 0 0 0 -.511719-.248047l-4.472656-.746094-1.677735-4.191406a1.0001 1.0001 0 0 0 -.3554684-.447265l-3.7304687-2.613282.2792969-4.574218a1.0001 1.0001 0 0 0 -.1289063-.556641l-2.2304687-3.904297 2.2304687-3.904297a1.0001 1.0001 0 0 0 .1289063-.556641l-.2792969-4.574218 3.7304687-2.613282a1.0001 1.0001 0 0 0 .3554684-.447265l1.677735-4.1914064 4.472656-.7460937a1.0001 1.0001 0 0 0 .511719-.2480469zm13.72461 9.8144528-10.960938 17.009766-7.328125-6.611328-1.339843 1.484375 9.074218 8.189453 12.236328-18.990234z"/></svg>