<svg fill="#666" height="50" viewBox="0 0 50 50" width="50" xmlns="http://www.w3.org/2000/svg"><path d="m40 12c-4.992187 0-25.042969 0-30.078125 0-1.847656.003906-3.558594 1.214844-4.136719 2.972656-.328125 1-3.109375 10.121094-4.273437 13.859375-.34375 1.105469-.65625 2.34375-.441406 3.703125.4375 2.738282 2.660156 4.972657 5.429687 5.375 3.023438.4375 5.777344-.960937 6.996094-3.46875.519531-1.070312.964844-2.324218 1.332031-3.441406h10.171875 10.109375c.210938.722656.429688 1.53125.660156 2.265625h.003907c1.136718 3.554688 4.890625 5.445313 8.457031 4.480469 3.378906-.917969 5.464844-4.417969 4.554687-7.816406-.535156-1.996094-3.570312-11.667969-4.496093-14.710938-.570313-1.875-2.308594-3.21875-4.289063-3.21875zm0 2c1.046875 0 2.066406.777344 2.375 1.800781.9375 3.078125 4.023438 12.941407 4.480469 14.648438.621094 2.328125-.804688 4.730469-3.152344 5.363281-2.609375.707031-5.210937-.601562-6.027344-3.15625-.242187-.765625-.496093-1.730469-.742187-2.5625-.078125-.257812-.238281-.589844-.554688-.816406-.3125-.230469-.664062-.277344-.925781-.277344-1.777344 0-6.117187 0-10.453125 0-4.339844 0-8.675781.003906-10.453125 0-.289062 0-.675781.066406-.988281.3125-.316406.246094-.457031.566406-.535156.8125v.003906c-.359375 1.121094-.839844 2.4375-1.324219 3.4375-.847656 1.738282-2.621094 2.695313-4.910156 2.367188-1.851563-.269531-3.449219-1.875-3.742188-3.710938-.140625-.875.054688-1.773437.375-2.796875 1.167969-3.753906 4.027344-13.105468 4.265625-13.828125.25-.761718 1.410156-1.597656 2.234375-1.597656zm-28 2v2h-2v2h2v2h2v-2h2v-2h-2v-2zm24.980469 0c-.535156.007813-.980469.464844-.980469 1 0 .558594.460938 1.007813 1.019531 1 .539063-.011719.980469-.460937.980469-1.003906 0-.554688-.457031-1.003906-1.019531-.996094zm1.988281 2c-.535156.007813-.976562.460938-.96875 1.007813.007813.546875.457031 1 .984375.992187.574219-.007812 1.019531-.453125 1.015625-1.011719-.003906-.554687-.464844-.996093-1.03125-.988281zm-3.972656 0c-.546875.003906-.992188.445313-.996094.988281-.003906.5625.4375 1 1.019531 1.011719.554688.011719.972657-.414062.980469-.988281.007813-.570313-.433594-1.011719-1.003906-1.011719zm1.992187 2c-.535156.007813-.984375.460938-.988281.996094-.003906.554687.453125 1.011719 1.011719 1.003906.535156-.007812.984375-.457031.988281-.992187.003906-.558594-.457031-1.015625-1.011719-1.007813zm-16.945312 1c-1.660156-.023437-3.042969 1.335938-3.042969 3-.003906 1.652344 1.355469 3.007813 3.003906 3 1.636719-.007812 2.992188-1.347656 2.996094-2.984375.003906-1.632812-1.324219-2.992187-2.957031-3.015625zm9.941406 0c-1.632812.007813-2.976562 1.355469-2.984375 2.988281-.007812 1.652344 1.359375 3.015625 3.011719 3.011719 1.648437-.003906 2.992187-1.367187 2.988281-3.015625-.003906-1.644531-1.367187-2.992187-3.015625-2.984375zm-9.96875 2c.597656.007813.984375.402344.984375 1.011719 0 .585937-.398437.984375-1 .988281-.515625 0-1-.484375-1-1 0-.542969.472656-1.007812 1.015625-1zm9.980469 0c.535156-.003906 1.003906.460938 1.003906.992188 0 .527343-.476562 1.007812-.992187 1.007812-.597657 0-1.011719-.414062-1.007813-1 .003906-.597656.402344-.996094.996094-1z"/></svg>