<svg fill="#666" height="50" viewBox="0 0 50 50" width="50" xmlns="http://www.w3.org/2000/svg"><path d="m7 2v46h36v-32.589844l-13.816406-13.410156zm2 2h19v13h13v29h-32zm21 1.578125 9.707031 9.421875h-9.707031zm.21875 17.191406c-.835937 0-1.613281.089844-2.21875.230469v10h2v-2.890625c.175781.015625.214844.015625.410156.015625 1.011719 0 2.164063-.40625 2.871094-1.238281.550781-.640625.890625-1.457031.890625-2.660156 0-1.027344-.320312-1.949219-.957031-2.554688-.710938-.671875-1.738281-.902344-2.996094-.902344zm-14.21875.230469v1.648438h3.875v.035156l-3.875 7.199219v1.117187h6v-1.648437h-3.75v-.054688l3.75-6.933594v-1.363281zm8 0v10h2l.003906-10zm6.535156 1.3125c1.277344 0 1.738282.9375 1.738282 2.054688 0 1.367187-.691407 2.214843-1.929688 2.214843-.195312 0-.203125 0-.34375-.035156v-4.144531c.160156-.054688.269531-.089844.535156-.089844z"/></svg>