<svg fill="#666" height="50" viewBox="0 0 50 50" width="50" xmlns="http://www.w3.org/2000/svg"><path d="m2 8v9.8125c-.027344.132813-.027344.273438 0 .40625v5.78125h46v-9.6875c0-.03125 0-.0625 0-.09375.042969-.164062.042969-.335937 0-.5v-5.71875zm2 2h5.5625l-5.5625 5.5625zm8.4375 0h5.125l-12 12h-1.5625v-3.5625zm8 0h5.125l-12 12h-5.125zm8 0h5.125l-12 12h-5.125zm8 0h5.125l-12 12h-5.125zm8 0h1.5625v3.5625l-8.4375 8.4375h-5.125zm1.5625 6.4375v5.5625h-5.5625zm-42 8.5625v17h6v-17h-2v15h-2v-15zm36 0v17h6v-17h-2v15h-2v-15z"/></svg>