<svg fill="#666" height="50" viewBox="0 0 50 50" width="50" xmlns="http://www.w3.org/2000/svg"><path d="m25 2c-12.645455 0-23 10.354545-23 23s10.354545 23 23 23 23-10.354545 23-23-10.354545-23-23-23zm0 2c11.554545 0 21 9.445455 21 21s-9.445455 21-21 21-21-9.445455-21-21 9.445455-21 21-21zm-.015625 1.8789062a1.0001 1.0001 0 0 0 -.984375 1.015625v2.0585938a1.0001 1.0001 0 1 0 2 0v-2.0585938a1.0001 1.0001 0 0 0 -1.015625-1.015625zm-9.091797 2.421875a1.0001 1.0001 0 0 0 -.794922 1.5253907l1.074219 1.7910161a1.0001 1.0001 0 1 0 1.714844-1.029297l-1.074219-1.791016a1.0001 1.0001 0 0 0 -.919922-.4960938zm18.185547 0a1.0001 1.0001 0 0 0 -.890625.4960938l-1.074219 1.791016a1.0001 1.0001 0 1 0 1.714844 1.029297l1.074219-1.7910161a1.0001 1.0001 0 0 0 -.824219-1.5253907zm-24.71875 6.5429688a1.0001 1.0001 0 0 0 -.4550781 1.863281l1.7910151 1.074219a1.0001 1.0001 0 1 0 1.027344-1.714844l-1.7910154-1.074218a1.0001 1.0001 0 0 0 -.5722656-.148438zm30.667969.15625a1.0001 1.0001 0 0 0 -.386719.066406l-15.988281 6.16211a1.0001 1.0001 0 0 0 -.466797.371093c-1.253635.667257-2.185547 1.874949-2.185547 3.400391 0 2.209804 1.790196 4 4 4 .690891 0 1.258107-.31906 1.820312-.619141a1.0001 1.0001 0 0 0 .689454-.240234l13.144531-11.384766a1.0001 1.0001 0 0 0 -.626953-1.755859zm-5.009766 3.992188-8.699219 7.535156a1.0001 1.0001 0 0 0 -.080078.054687c-.340165.2627-.748191.417969-1.238281.417969-1.190196 0-2-.809804-2-2 0-.942907.530471-1.615893 1.330078-1.880859a1.0001 1.0001 0 0 0 .152344-.066407zm-28.017578 4.902343a1.0001 1.0001 0 1 0 0 2h2.0605469a1.0001 1.0001 0 1 0 0-2zm33.939453 0a1.0001 1.0001 0 1 0 0 2h2.060547a1.0001 1.0001 0 1 0 0-2zm-29.703125 7.962891a1.0001 1.0001 0 0 0 -.541016.148437l-1.7910151 1.076172a1.0001 1.0001 0 1 0 1.0292969 1.714844l1.7910152-1.076172a1.0001 1.0001 0 0 0 -.488281-1.863281zm27.498047 0a1.0001 1.0001 0 0 0 -.458984 1.863281l1.791015 1.076172a1.0001 1.0001 0 1 0 1.029297-1.714844l-1.791015-1.076172a1.0001 1.0001 0 0 0 -.570313-.148437z"/></svg>