<svg fill="#666" height="50" viewBox="0 0 50 50" width="50" xmlns="http://www.w3.org/2000/svg"><path d="m3 5c-1.644531 0-3 1.355469-3 3v29c0 1.644531 1.355469 3 3 3h17.40625l-.53125 3.375c-.148437.9375-.925781 1.625-1.875 1.625h-1c-.03125 0-.0625 0-.09375 0-.550781.027344-.980469.496094-.953125 1.046875s.496094.980469 1.046875.953125h16c.359375.003906.695313-.183594.878906-.496094.179688-.3125.179688-.695312 0-1.007812-.183593-.3125-.519531-.5-.878906-.496094h-1c-.949219 0-1.726562-.6875-1.875-1.625l-.53125-3.375h17.40625c1.644531 0 3-1.355469 3-3v-29c0-1.644531-1.355469-3-3-3zm0 2h44c.566406 0 1 .433594 1 1v24h-46v-24c0-.566406.433594-1 1-1zm-1 27h46v3c0 .566406-.433594 1-1 1h-44c-.566406 0-1-.433594-1-1zm23 .90625c-.601562 0-1.09375.492188-1.09375 1.09375 0 .601563.492188 1.09375 1.09375 1.09375.601563 0 1.09375-.492187 1.09375-1.09375 0-.601562-.492187-1.09375-1.09375-1.09375zm-2.53125 5.09375h5.0625l.59375 3.6875c.074219.472656.242188.914063.46875 1.3125h-7.1875c.226563-.398437.394531-.839844.46875-1.3125z"/></svg>