<svg fill="#666" height="50" viewBox="0 0 50 50" width="50" xmlns="http://www.w3.org/2000/svg"><path d="m31 4v2.8125c-.007812.0625-.007812.125 0 .1875v3h-14c-4.957031 0-9 4.042969-9 9v16c0 .550781.449219 1 1 1h19v10h2v-10h2v10h2v-10h13c.550781 0 1-.449219 1-1v-16c0-4.957031-4.042969-9-9-9h-4v2h4c3.878906 0 7 3.121094 7 7v15h-20v-15c0-2.828125-1.324219-5.347656-3.375-7h8.375v5.28125c-.597656.347656-1 .980469-1 1.71875 0 1.105469.894531 2 2 2s2-.894531 2-2c0-.738281-.402344-1.371094-1-1.71875v-9.28125h4v-4zm-14 8c3.878906 0 7 3.121094 7 7v15h-14v-15c0-3.878906 3.121094-7 7-7zm-3.28125 8c-.550781.078125-.9375.589844-.859375 1.140625s.589844.9375 1.140625.859375h6c.359375.003906.695313-.183594.878906-.496094.179688-.3125.179688-.695312 0-1.007812-.183593-.3125-.519531-.5-.878906-.496094h-6c-.03125 0-.0625 0-.09375 0s-.0625 0-.09375 0-.0625 0-.09375 0z"/></svg>