<svg fill="#666" height="50" viewBox="0 0 50 50" width="50" xmlns="http://www.w3.org/2000/svg"><path d="m25 2c-12.690705 0-23 10.309295-23 23s10.309295 23 23 23 23-10.309295 23-23-10.309295-23-23-23zm0 2c11.609824 0 21 9.390176 21 21s-9.390176 21-21 21-21-9.390176-21-21 9.390176-21 21-21zm5.693359 10.058594c-3.600305 0-6.541015 2.939581-6.541015 6.539062 0 .0253.007512.048959.007812.074219-3.814085-.507567-7.188078-2.390532-9.505859-5.232422a1.0001 1.0001 0 0 0 -1.638672.128906c-.562891.967654-.884766 2.095409-.884766 3.289063 0 1.062175.295902 2.048899.748047 2.939453a1.0001 1.0001 0 0 0 -.792968.976563v.070312c0 1.934033.905025 3.609039 2.246093 4.808594a1.0001 1.0001 0 0 0 -.259765 1.02539c.558438 1.736926 1.860144 3.096745 3.490234 3.863282-1.304092.609978-2.701413 1.046875-4.242188 1.046875-.410797 0-.810125-.023353-1.201171-.070313a1.0001 1.0001 0 0 0 -.658203 1.835938c2.604467 1.671101 5.705857 2.646484 9.029296 2.646484 5.370648 0 9.615673-2.256126 12.453125-5.474609 2.837453-3.218484 4.310547-7.372308 4.310547-11.285157 0-.11751-.005412-.229944-.007812-.345703.973839-.781791 1.889733-1.644087 2.583984-2.683593a1.0001 1.0001 0 0 0 -1.125-1.511719c.161627-.314579.390413-.587691.5-.929688a1.0001 1.0001 0 0 0 -1.460937-1.166015c-.87459.518215-1.857296.859867-2.875 1.097656-1.143369-.974154-2.563851-1.642578-4.175782-1.642578zm0 2c1.312188 0 2.484962.548387 3.3125 1.43164a1.0001 1.0001 0 0 0 .921875.298828c.151915-.029879.273948-.126619.423828-.162109-.018599.01151-.030048.031719-.048828.042969a1.0001 1.0001 0 0 0 .529297 1.857422c-.06869.05238-.109696.134979-.179687.185547a1.0001 1.0001 0 0 0 -.414063.853515c.0095.224254.015625.449426.015625.673828 0 3.405151-1.314249 7.131375-3.810547 9.962891-2.4963 2.831515-6.134772 4.796875-10.953125 4.796875-1.653188 0-3.208534-.330313-4.689453-.832031 1.842262-.390349 3.586463-1.042766 5.015625-2.164063a1.0001 1.0001 0 0 0 -.597656-1.785156c-1.415651-.02571-2.505943-.826405-3.320312-1.859375.299177-.03871.608611-.0401.894531-.119141a1.0001 1.0001 0 0 0 -.06836-1.945312c-1.65141-.333282-2.939613-1.571893-3.412109-3.173828.4253.102354.797945.331281 1.25.345703a1.0001 1.0001 0 0 0 .587891-1.830078c-1.219737-.815617-2.019532-2.19701-2.019532-3.779297 0-.326999.17547-.5869.240235-.892578 2.840497 2.811859 6.620736 4.678056 10.876953 4.892578a1.0001 1.0001 0 0 0 1.023437-1.228516c-.07783-.329146-.11914-.672519-.11914-1.03125 0-2.518518 2.02132-4.539062 4.541015-4.539062z"/></svg>