<svg fill="#666" height="50" viewBox="0 0 50 50" width="50" xmlns="http://www.w3.org/2000/svg"><path d="m24.5625 3.34375c-.984375 0-3.074219.152344-5.34375 1.15625s-4.722656 2.917969-6.25 6.34375c-1.152344 2.582031-.8125 6.339844-.625 9.34375.015625.222656.019531.414063.03125.625-.09375.042969-.011719.0625-.3125.0625-.453125 0-1.058594-.148437-1.8125-.5-.300781-.140625-.621094-.1875-.9375-.1875-.574219 0-1.136719.171875-1.625.46875s-.957031.757813-1.09375 1.46875c-.082031.4375.011719 1.09375.4375 1.625s1.085938.964844 2.125 1.375c.226563.089844.457031.175781.6875.25.46875.148438 1.019531.308594 1.4375.53125s.664063.484375.75.6875c.09375.21875.121094.558594-.1875 1.1875-.011719.019531-.023437.042969-.03125.0625-.003906.015625-.019531.027344-.03125.0625-.125.28125-2.863281 6.25-8.5625 7.1875-.734375.121094-1.257812.761719-1.21875 1.5.011719.214844.082031.445313.15625.625.277344.652344.871094 1.132813 1.84375 1.5625.898438.398438 2.296875.75 4.15625 1.0625.046875.128906.109375.371094.1875.71875 0 .007813-.003906.023438 0 .03125.070313.324219.136719.679688.25 1.0625.113281.390625.402344.773438.75.96875.347656.195313.675781.21875.875.21875.414063 0 .757813-.085937 1.125-.15625.605469-.117187 1.335938-.25 2.28125-.25.523438 0 1.070313.035156 1.625.125.949219.15625 1.882813.773438 3 1.5625 1.617188 1.144531 3.558594 2.53125 6.46875 2.53125.050781 0 .105469-.027344.15625-.03125.050781.003906.105469 0 .15625 0 .082031.003906.167969.03125.25.03125 2.910156 0 4.847656-1.386719 6.46875-2.53125 1.113281-.789062 2.050781-1.40625 3-1.5625.554688-.089844 1.101563-.125 1.625-.125.914063 0 1.636719.117188 2.3125.25.429688.085938.757813.125 1.09375.125h.0625c.308594 0 .664063-.085937.96875-.3125.304688-.226562.507813-.550781.59375-.84375.113281-.382812.175781-.75.25-1.09375.082031-.382812.144531-.589844.1875-.71875 1.859375-.3125 3.257813-.664062 4.15625-1.0625.972656-.429687 1.566406-.914062 1.84375-1.5625.082031-.1875.144531-.410156.15625-.625.039063-.734375-.488281-1.378906-1.21875-1.5-2.875-.472656-4.984375-2.203125-6.40625-3.875-1.414062-1.664062-2.117187-3.253906-2.15625-3.34375 0-.011719 0-.019531 0-.03125-.007812-.019531-.019531-.042969-.03125-.0625-.3125-.628906-.3125-.964844-.21875-1.1875.085938-.203125.332031-.464844.75-.6875s.964844-.382812 1.4375-.53125c.234375-.074219.46875-.164062.6875-.25.910156-.359375 1.535156-.734375 1.96875-1.1875s.632813-1.015625.625-1.5c-.019531-1.023437-.78125-1.703125-1.65625-2.03125l-.03125-.03125c-.007812-.003906-.023437.003906-.03125 0-.359375-.144531-.738281-.21875-1.125-.21875-.261719 0-.625.011719-1.0625.21875-.679687.320313-1.25.476563-1.6875.5-.027344 0-.003906 0-.03125 0s-.007812.003906-.03125 0c-.128906-.015625-.089844-.039062-.15625-.0625.011719-.171875.019531-.324219.03125-.5v-.125c.191406-3.003906.527344-6.757812-.625-9.34375-1.527344-3.425781-3.976562-5.371094-6.25-6.375-2.273437-1.003906-4.355469-1.125-5.34375-1.125h-.09375c-.011719 0-.019531 0-.03125 0zm0 2h.875c.800781 0 2.617188.125 4.53125.96875 1.914063.84375 3.929688 2.378906 5.25 5.34375.75 1.679688.628906 5.40625.4375 8.40625v.125c-.027344.417969-.074219.824219-.09375 1.21875-.007812.28125.105469.554688.3125.75.15625.160156.8125.675781 1.90625.71875h.03125.03125c.808594-.03125 1.65625-.277344 2.53125-.6875.023438-.011719.132813-.03125.21875-.03125.125 0 .289063.03125.375.0625.007813.003906.023438-.003906.03125 0 .019531.011719.042969.023438.0625.03125.234375.082031.34375.175781.375.21875.007813.007813-.003906.027344 0 .03125-.011719.019531-.023437.019531-.0625.0625-.144531.152344-.542969.425781-1.28125.71875-.121094.046875-.304687.117188-.53125.1875-.472656.148438-1.144531.351563-1.78125.6875-.636719.335938-1.308594.832031-1.65625 1.65625-.371094.871094-.214844 1.828125.21875 2.75.003906.015625-.003906.019531 0 .03125.015625.042969.03125.066406.03125.0625.089844.207031.847656 1.972656 2.46875 3.875 1.457031 1.710938 3.671875 3.480469 6.625 4.25-.125.082031-.039062.078125-.28125.1875-.71875.316406-1.953125.65625-3.96875.96875-.570312.085938-.996094.625-1.15625 1s-.242187.746094-.34375 1.21875c-.046875.21875-.105469.417969-.15625.625-.136719-.011719-.25-.011719-.5-.0625-.726562-.140625-1.605469-.28125-2.6875-.28125-.640625 0-1.28125.046875-1.9375.15625-1.535156.257813-2.730469 1.117188-3.84375 1.90625-1.625 1.144531-3.007812 2.15625-5.3125 2.15625-.09375 0-.1875.003906-.28125 0-.042969-.003906-.082031-.003906-.125 0-.039062.003906-.109375 0-.15625 0-2.304687 0-3.695312-1.011719-5.3125-2.15625-1.117187-.789062-2.308594-1.652344-3.84375-1.90625-.65625-.109375-1.296875-.15625-1.9375-.15625-1.152344 0-2.082031.164063-2.6875.28125-.242187.046875-.332031.074219-.46875.09375-.054687-.21875-.136719-.425781-.1875-.65625-.09375-.429687-.15625-.808594-.3125-1.1875-.078125-.1875-.1875-.394531-.375-.59375s-.464844-.359375-.78125-.40625c-2.011719-.3125-3.28125-.683594-4-1-.25-.109375-.15625-.101562-.28125-.1875 6.230469-1.609375 8.941406-7.773437 9.09375-8.125.011719-.023437.019531-.039062.03125-.0625.003906-.011719-.003906-.015625 0-.03125.433594-.921875.589844-1.878906.21875-2.75-.351562-.824219-1.019531-1.320312-1.65625-1.65625-.636719-.335937-1.277344-.539062-1.75-.6875-.230469-.074219-.445312-.140625-.5625-.1875-.839844-.332031-1.207031-.648437-1.3125-.78125 0 .019531-.023437-.066406.125-.15625.164063-.097656.453125-.15625.59375-.15625.078125 0 .074219.003906.0625 0 .9375.4375 1.828125.6875 2.6875.6875 1.1875 0 1.898438-.515625 2.09375-.71875.195313-.199219.296875-.472656.28125-.75-.023437-.4375-.066406-.882812-.09375-1.34375-.1875-3.003906-.3125-6.726562.4375-8.40625 1.320313-2.960937 3.308594-4.5 5.21875-5.34375s3.761719-.96875 4.5625-.96875z"/></svg>