<svg fill="#666" height="50" viewBox="0 0 50 50" width="50" xmlns="http://www.w3.org/2000/svg"><path d="m21.4375 1.0058594c-1.355797.0404912-2.665761.7466197-3.412109 1.9804687l-.263672.4375c-.376546.6216756-1.040034 1.0045706-1.765625 1.0195313h-.001953l-.511719.0117187c-2.195845.045732-3.984613 1.8332064-4.029297 4.0292969l-.011719.5117188c-.01496.725604-.399021 1.3904652-1.019531 1.7656252l-.4375.265625c-1.8789271 1.137377-2.5349798 3.580986-1.4765625 5.505859h.0019531l.2460938.449219c.3501483.635706.3501483 1.403356 0 2.039062l-.2460938.447266c-1.0582488 1.924567-.4035885 4.368565 1.4765625 5.505859l.4374999.263672c.621676.376546 1.004571 1.040034 1.019531 1.765625v.001953l.011719.511719c.036992 1.776241 1.221292 3.268852 2.832031 3.804688l-5.1953121 11.257812a1.0001 1.0001 0 0 0 .9082031 1.419922h6.519531l3.699219 4.625a1.0001 1.0001 0 0 0 1.697266-.224609l3.115234-7.119141 3.115234 7.119141a1.0001 1.0001 0 0 0 1.697266.224609l3.699219-4.625h6.519531a1.0001 1.0001 0 0 0 .908203-1.419922l-5.203125-11.27539c1.583636-.55097 2.742709-2.030304 2.779297-3.78711v-.001953l.011719-.509766v-.001953c.01496-.725604.399021-1.390465 1.019531-1.765625l.439453-.265625c1.878975-1.137378 2.533026-3.579033 1.47461-5.503906l-.001954-.001953-.25-.451172c-.348021-.63495-.347531-1.400739.001954-2.035156l.248046-.447266v-.001953c1.05779-1.923731.403661-4.365972-1.474609-5.503906l-.001953-.001953-.4375-.263672c-.621631-.376358-1.004571-1.0400341-1.019531-1.7656252v-.0019532l-.011719-.5097656v-.0019531c-.045731-2.1958516-1.833207-3.9846128-4.029297-4.0292969l-.511719-.0117188c-.725604-.0149609-1.390465-.3990217-1.765625-1.0195312l-.265625-.4375c-1.137294-1.880151-3.581292-2.53481132-5.505859-1.4765625v.0019531l-.449219.2460938c-.635706.3501483-1.403356.3501483-2.039062 0l-.447266-.2460938c-.481142-.2645622-.994218-.4223229-1.511719-.4804687-.194062-.0218047-.388346-.029222-.582031-.0234375zm-.050781 1.9941406c.395514-.0288607.805353.0548121 1.18164.2617188l.445313.2460937c1.234294.6798517 2.736409.6798517 3.970703 0l.447266-.2480469v.0019532c1.003433-.5517512 2.237372-.2220364 2.830078.7578124l.265625.4375c.728645 1.2042164 2.026425 1.9546978 3.433594 1.984375l.513671.0117188c1.14525.023302 2.048964.9250633 2.072266 2.0703125v.0019531l.009766.5117188c.02904 1.4084086.78005 2.7060926 1.984375 3.4355466l.4375.265625c.979249.592343 1.310099 1.825024.759765 2.828125l-.248047.449219c-.679851 1.234294-.679851 2.734456 0 3.96875l.001954.001953v.001953l.248046.44336c.551583 1.003126.21926 2.237456-.759765 2.830078l-.4375.265625c-1.205491.72884-1.955336 2.027151-1.984375 3.435547l-.009766.511718v.001953c-.0233 1.145251-.927016 2.047011-2.072266 2.070313l-.513671.011719c-1.407661.02969-2.704475.77865-3.433594 1.982422v.001953l-.265625.4375c-.592706.979849-1.826645 1.309563-2.830078.757812v.001953l-.447266-.248046c-1.234294-.679853-2.736409-.679853-3.970703 0l-.447266.248046v-.001953c-1.003126.551583-2.237456.221213-2.830078-.757812l-.265625-.4375c-.728645-1.204217-2.026424-1.954698-3.433594-1.984375h-.001953l-.511718-.011719c-1.14525-.0233-2.048964-.925062-2.072266-2.070313v-.001953l-.009766-.511718c-.02904-1.408409-.78005-2.706093-1.984375-3.435547l-.4375-.265625c-.979814-.592841-1.3115166-1.826645-.759765-2.830078l.246093-.445313v-.001953c.678911-1.233969.679539-2.735026 0-3.96875l-.248046-.447266h.001953c-.5515833-1.003126-.221213-2.237456.757812-2.830078l.4375-.265625c1.204217-.728645 1.954698-2.026425 1.984375-3.4335935v-.0019531l.011719-.5117188c.0233-1.1452492.925062-2.0489631 2.070313-2.0722656h.001953l.511718-.0097656c1.408409-.029039 2.706093-.7800506 3.435547-1.984375l.265625-.4375c.296353-.4899245.75165-.8190138 1.259766-.9550782.127029-.034016.256834-.056786.388672-.0664062zm10.896484 8.085938-8.240234 12.880859-6.623047-5.960938-1.339844 1.488282 8.376953 7.537109 9.509766-14.867188zm1.417969 20.517578 4.796875 10.396484h-5.435547a1.0001 1.0001 0 0 0 -.78125.375l-2.966797 3.707031-3.191406-7.298828 1.683594-3.847656c1.607197.251023 3.282867-.45669 4.167968-1.919922l.265625-.4375c.322358-.532212.859053-.873434 1.460938-.974609zm-17.34375.007812c.579079.113668 1.093148.452161 1.404297.966797l.265625.4375c1.137378 1.878975 3.580986 2.534979 5.505859 1.476563v-.001954l.449219-.246093c.610204-.336103 1.339026-.340387 1.958984-.03125l-5.193359 11.86914-2.966797-3.707031a1.0001 1.0001 0 0 0 -.78125-.375h-5.435547z"/></svg>