<svg fill="#666" height="50" viewBox="0 0 50 50" width="50" xmlns="http://www.w3.org/2000/svg"><path d="m25 2c-12.690705 0-23 10.309295-23 23s10.309295 23 23 23 23-10.309295 23-23-10.309295-23-23-23zm0 2c11.609824 0 21 9.390176 21 21s-9.390176 21-21 21-21-9.390176-21-21 9.390176-21 21-21zm-5 11c-5.511334 0-10 4.488666-10 10s4.488666 10 10 10 10-4.488666 10-10c0-.375475-.020677-.746123-.060547-1.109375l-.097656-.890625h-8.841797v2h7c0 4.430666-3.569334 8-8 8s-8-3.569334-8-8 3.569334-8 8-8c1.649667 0 3.173917.49591 4.445312 1.347656v.001953c.311669.208074.608846.439037.888672.689453l1.333985-1.492187c-.348174-.311629-.718997-.599402-1.111328-.861328-1.588605-1.064254-3.504308-1.685547-5.556641-1.685547zm16 5v3h-3v2h3v3h2v-3h3v-2h-3v-3z"/></svg>