<svg fill="#666" height="50" viewBox="0 0 50 50" width="50" xmlns="http://www.w3.org/2000/svg"><path d="m16.84375 4c-.28125.042969-.53125.199219-.6875.4375l-16 24c-.3125.464844-.1835938 1.09375.28125 1.40625.464844.3125 1.09375.183594 1.40625-.28125l15.1875-22.78125 9.5625 13.5c.058594.132813.144531.25.25.34375l3.46875 4.9375c.171875.355469.535156.574219.929688.5625.394531-.011719.746093-.253906.894531-.617187.152344-.367188.074219-.785157-.199219-1.070313l-3.1875-4.5 6.34375-7.34375 13.125 17.03125c.34375.433594.976563.5 1.40625.15625.433594-.34375.5-.976562.15625-1.40625l-13.875-18c-.210937-.265625-.539062-.40625-.875-.375-.253906.027344-.488281.148438-.65625.34375l-6.8125 7.875-9.75-13.78125c-.210937-.320312-.589844-.488281-.96875-.4375zm-16.03125 32c-.550781.050781-.957031.542969-.90625 1.09375.0507812.550781.542969.957031 1.09375.90625h48c.359375.003906.695313-.183594.878906-.496094.179688-.3125.179688-.695312 0-1.007812-.183593-.3125-.519531-.5-.878906-.496094h-48c-.03125 0-.0625 0-.09375 0s-.0625 0-.09375 0zm0 8c-.550781.050781-.957031.542969-.90625 1.09375.0507812.550781.542969.957031 1.09375.90625h48c.359375.003906.695313-.183594.878906-.496094.179688-.3125.179688-.695312 0-1.007812-.183593-.3125-.519531-.5-.878906-.496094h-48c-.03125 0-.0625 0-.09375 0s-.0625 0-.09375 0z"/></svg>