<svg fill="#666" height="50" viewBox="0 0 50 50" width="50" xmlns="http://www.w3.org/2000/svg"><path d="m25 .09375-.71875.6875-8.5 8.5c-.398437.398438-.398437 1.039063 0 1.4375.398438.398438 1.039063.398438 1.4375 0l6.78125-6.78125v20.0625h-20.0625l6.78125-6.78125c.324219-.300781.410156-.777344.214844-1.171875-.191406-.398437-.625-.617187-1.058594-.546875-.222656.023438-.433594.125-.59375.28125l-8.5 8.5-.6875.71875.6875.71875 8.5 8.5c.398438.398438 1.039063.398438 1.4375 0 .398438-.398437.398438-1.039062 0-1.4375l-6.78125-6.78125h20.0625v20.0625l-6.78125-6.78125c-.242187-.25-.597656-.355469-.9375-.28125-.375.066406-.675781.339844-.78125.703125-.105469.367188.003906.757813.28125 1.015625l8.5 8.5.71875.6875.71875-.6875 8.5-8.5c.398438-.398437.398438-1.039062 0-1.4375-.398437-.398437-1.039062-.398437-1.4375 0l-6.78125 6.78125v-20.0625h20.0625l-6.78125 6.78125c-.398437.398438-.398437 1.039063 0 1.4375.398438.398438 1.039063.398438 1.4375 0l8.5-8.5.6875-.71875-.6875-.71875-8.5-8.5c-.207031-.222656-.507812-.335937-.8125-.3125-.042969.007813-.085937.019531-.125.03125-.375.066406-.675781.339844-.78125.703125-.105469.367188.003906.757813.28125 1.015625l6.78125 6.78125h-20.0625v-20.0625l6.78125 6.78125c.398438.398438 1.039063.398438 1.4375 0 .398438-.398437.398438-1.039062 0-1.4375l-8.5-8.5z"/></svg>