<svg fill="#666" height="50" viewBox="0 0 50 50" width="50" xmlns="http://www.w3.org/2000/svg"><path d="m25 0c-2.453125 0-4.523437 1.355469-7.59375 2.9375-3.070312 1.582031-7.191406 3.492188-13.625 4.90625l-.78125.1875v.78125c0 15.320313 5.371094 25.558594 10.75 31.90625s10.84375 8.875 10.84375 8.875l.4375.21875.4375-.21875s21.53125-11.125 21.53125-40.78125v-.78125l-.78125-.1875c-6.433594-1.414062-10.554687-3.324219-13.625-4.90625-3.070312-1.582031-5.140625-2.9375-7.59375-2.9375zm0 2c1.644531 0 3.550781 1.105469 6.6875 2.71875 2.980469 1.53125 7.171875 3.410156 13.25 4.84375-.367187 27.117188-18.683594 37.289063-19.96875 37.96875-.621094-.300781-4.949219-2.464844-9.71875-8.09375-5.027344-5.933594-10.003906-15.476562-10.1875-29.875 6.078125-1.433594 10.269531-3.3125 13.25-4.84375 3.136719-1.613281 5.042969-2.71875 6.6875-2.71875zm7.6875 12.625-.53125.84375-8.125 12.625-5.375-4.84375-.71875-.65625-1.34375 1.46875.75.6875 6.1875 5.625.875.78125.65625-1 8.78125-13.625.53125-.84375z"/></svg>