<svg fill="#666" height="50" viewBox="0 0 50 50" width="50" xmlns="http://www.w3.org/2000/svg"><path d="m20 3c-1.644531 0-3 1.355469-3 3v3h-14c-1.644531 0-3 1.355469-3 3v14.8125c-.0078125.0625-.0078125.125 0 .1875v17c0 1.644531 1.355469 3 3 3h44c1.644531 0 3-1.355469 3-3v-32c0-1.644531-1.355469-3-3-3h-14v-3c0-1.644531-1.355469-3-3-3zm0 2h10c.5625 0 1 .4375 1 1v3h-12v-3c0-.5625.4375-1 1-1zm-17 6h44c.5625 0 1 .4375 1 1v14.84375.09375.0625c0 .5625-.4375 1-1 1h-44c-.5625 0-1-.4375-1-1 .007813-.0625.007813-.125 0-.1875v-14.8125c0-.5625.4375-1 1-1zm22 11c-1.105469 0-2 .894531-2 2s.894531 2 2 2 2-.894531 2-2-.894531-2-2-2zm-23 7.8125c.316406.113281.648438.1875 1 .1875h44c.351563 0 .683594-.074219 1-.1875v14.1875c0 .5625-.4375 1-1 1h-44c-.5625 0-1-.4375-1-1z"/></svg>