<svg fill="#666" height="50" viewBox="0 0 50 50" width="50" xmlns="http://www.w3.org/2000/svg"><path d="m6 6c-1.863281 0-3.390625.921875-4.40625 2.09375s-1.59375 2.585938-1.59375 3.90625v26.375c0 3.089844 2.535156 5.625 5.625 5.625h38.75c3.089844 0 5.625-2.535156 5.625-5.625v-26.53125c0-3.1875-2.851562-5.84375-6-5.84375zm0 2h38c1.949219 0 4 1.9375 4 3.84375v26.53125c0 2.007813-1.617187 3.625-3.625 3.625h-38.75c-2.011719 0-3.625-1.613281-3.625-3.625v-26.375c0-.679687.378906-1.765625 1.09375-2.59375s1.691406-1.40625 2.90625-1.40625zm.8125 2c-.476562.089844-.820312.511719-.8125 1v28c0 .550781.449219 1 1 1h37c.550781 0 1-.449219 1-1v-28c0-.550781-.449219-1-1-1h-37c-.03125 0-.0625 0-.09375 0s-.0625 0-.09375 0zm1.1875 2h35v26h-35zm-4 11.5c-.828125 0-1.5.671875-1.5 1.5s.671875 1.5 1.5 1.5 1.5-.671875 1.5-1.5-.671875-1.5-1.5-1.5z"/></svg>