<svg fill="#666" height="50" viewBox="0 0 50 50" width="50" xmlns="http://www.w3.org/2000/svg"><path d="m3 3c-1.644531 0-3 1.355469-3 3v41h50v-41c0-1.644531-1.355469-3-3-3zm0 2h44c.566406 0 1 .433594 1 1v3h-46v-3c0-.566406.433594-1 1-1zm-1 6h46v34h-46zm26.90625 3.96875c-.042969.007813-.085937.019531-.125.03125-.328125.074219-.601562.308594-.71875.625l-9 22c-.207031.519531.042969 1.105469.5625 1.3125s1.105469-.042969 1.3125-.5625l9-22c.148438-.328125.109375-.714844-.105469-1.003906-.210937-.292969-.566406-.445313-.925781-.402344zm-12.96875 6c-.03125.007813-.0625.019531-.09375.03125-.121094.019531-.238281.0625-.34375.125l-7 4c-.316406.175781-.515625.511719-.515625.875s.199219.699219.515625.875l7 4c.484375.277344 1.097656.109375 1.375-.375s.109375-1.097656-.375-1.375l-5.46875-3.125 5.46875-3.125c.46875-.199219.714844-.714844.570313-1.203125-.144532-.488281-.632813-.792969-1.132813-.703125zm17.875.03125c-.425781.066406-.765625.398438-.835937.824219-.070313.425781.140625.851562.523437 1.050781l5.46875 3.125-5.46875 3.125c-.484375.277344-.652344.890625-.375 1.375s.890625.652344 1.375.375l7-4c.316406-.175781.515625-.511719.515625-.875s-.199219-.699219-.515625-.875l-7-4c-.207031-.121094-.449219-.167969-.6875-.125z"/></svg>