<svg fill="#666" height="50" viewBox="0 0 50 50" width="50" xmlns="http://www.w3.org/2000/svg"><path d="m29 4.53125c-5.214844 0-9.628906 3.121094-11.75 7.53125-1.128906-.777344-2.4375-1.34375-3.90625-1.34375-3.726562 0-6.699219 2.949219-6.90625 6.625-3.726562 1.34375-6.4375 4.820313-6.4375 9 0 5.328125 4.328125 9.65625 9.65625 9.65625h8.34375c.359375.003906.695313-.183594.878906-.496094.179688-.3125.179688-.695312 0-1.007812-.183593-.3125-.519531-.5-.878906-.496094h-8.34375c-4.25 0-7.65625-3.410156-7.65625-7.65625 0-3.535156 2.382813-6.511719 5.625-7.40625.441406-.128906.738281-.542969.71875-1-.003906-.140625 0-.210937 0-.21875 0-2.777344 2.222656-5 5-5 1.390625 0 2.65625.558594 3.5625 1.46875.238281.230469.578125.332031.902344.261719.328125-.070313.597656-.296875.722656-.605469 1.574219-4.25 5.660156-7.3125 10.46875-7.3125 6.171875 0 11.15625 4.988281 11.15625 11.15625 0 .457031-.035156.90625-.09375 1.375-.035156.28125.050781.5625.234375.777344s.453125.339844.734375.347656h.0625c3.824219 0 6.90625 3.082031 6.90625 6.90625s-3.082031 6.90625-6.90625 6.90625h-9.09375c-.359375-.003906-.695312.183594-.878906.496094-.179688.3125-.179688.695312 0 1.007812.183594.3125.519531.5.878906.496094h9.09375c4.90625 0 8.90625-4 8.90625-8.90625 0-4.550781-3.492187-8.167969-7.90625-8.6875.015625-.242187.0625-.46875.0625-.71875 0-7.25-5.90625-13.15625-13.15625-13.15625zm-4.09375 20.4375c-.042969.007813-.085937.019531-.125.03125-.464844.105469-.792969.523438-.78125 1v17.5625l-3.28125-3.28125c-.242187-.25-.597656-.355469-.9375-.28125-.375.066406-.675781.339844-.78125.703125-.105469.367188.003906.757813.28125 1.015625l5 5 .71875.6875.71875-.6875 5-5c.398438-.398437.398438-1.039062 0-1.4375-.398437-.398437-1.039062-.398437-1.4375 0l-3.28125 3.28125v-17.5625c.011719-.289062-.105469-.566406-.3125-.761719-.210937-.199218-.496094-.296875-.78125-.269531z"/></svg>