<svg fill="#666" height="50" viewBox="0 0 50 50" width="50" xmlns="http://www.w3.org/2000/svg"><path d="m11.839844 2.988281c-.769531-.0625-1.625.160157-2.414063.714844-.695312.484375-2.195312 1.675781-3.597656 3.023438-.699219.671875-1.367187 1.371093-1.882812 2.058593-.519532.6875-.972657 1.316407-.945313 2.230469.027344.820313.109375 3.246094 1.855469 6.964844 1.746094 3.714844 5.132812 8.8125 11.738281 15.421875 6.609375 6.609375 11.707031 9.996094 15.421875 11.742187 3.714844 1.746094 6.144531 1.828125 6.964844 1.855469.910156.027344 1.539062-.425781 2.226562-.945312.6875-.519532 1.386719-1.183594 2.058594-1.882813 1.34375-1.402344 2.535156-2.902344 3.019531-3.597656 1.105469-1.574219.921875-3.433594-.308593-4.296875-.773438-.542969-7.886719-5.277344-8.957032-5.933594-1.085937-.664062-2.335937-.363281-3.453125.226563-.878906.464843-3.257812 1.828125-3.9375 2.21875-.511718-.324219-2.453125-1.617188-6.628906-5.792969-4.179687-4.175781-5.46875-6.117188-5.792969-6.628906.390625-.679688 1.75-3.046875 2.21875-3.941407.585938-1.113281.914063-2.375.214844-3.46875-.292969-.464843-1.625-2.492187-2.96875-4.527343-1.347656-2.035157-2.625-3.964844-2.957031-4.425782v-.003906c-.433594-.597656-1.109375-.949219-1.875-1.011719zm-.183594 2.042969c.273438.035156.4375.144531.4375.144531.160156.222657 1.5625 2.324219 2.90625 4.355469 1.34375 2.035156 2.714844 4.121094 2.953125 4.5.039063.058594.09375.722656-.296875 1.460938v.003906c-.441406.839844-2.5 4.4375-2.5 4.4375l-.285156.503906.292969.5s1.535156 2.589844 6.417968 7.472656c4.886719 4.882813 7.476563 6.421875 7.476563 6.421875l.5.292969.503906-.285156s3.589844-2.054688 4.4375-2.5c.738281-.386719 1.402344-.335938 1.480469-.289063.691406.425782 8.375 5.53125 8.847656 5.863282.015625.011718.433594.644531-.175781 1.511718h-.003906c-.367188.527344-1.570313 2.054688-2.824219 3.359375-.628906.652344-1.273438 1.261719-1.820313 1.671875-.546875.410157-1.035156.539063-.957031.542969-.851562-.027344-2.730469-.046875-6.179687-1.667969-3.449219-1.617187-8.371094-4.855468-14.859375-11.347656-6.484375-6.484375-9.722657-11.40625-11.34375-14.859375-1.617188-3.449219-1.636719-5.328125-1.664063-6.175781.003906.078125.132813-.414063.542969-.960938s1.015625-1.195312 1.667969-1.824218c1.308593-1.253907 2.832031-2.457032 3.359375-2.824219v.003906c.433593-.304687.8125-.34375 1.085937-.3125z"/></svg>