<svg fill="#666" height="50" viewBox="0 0 50 50" width="50" xmlns="http://www.w3.org/2000/svg"><path d="m18.5 2.5625c-4.132812 0-7.5 3.371094-7.5 7.5 0 1.160156.273438 2.273438.75 3.25l1.78125-.875c-.347656-.710937-.53125-1.519531-.53125-2.375 0-3.050781 2.445313-5.5 5.5-5.5 3.046875 0 5.5 2.449219 5.5 5.5h2c0-4.132812-3.371094-7.5-7.5-7.5zm18.6875 4.375c-.042969.007813-.085937.019531-.125.03125-.019531.007813-.042969.019531-.0625.03125-2.535156.636719-5.4375 2.15625-7.28125 5.59375-1.753906-.375-3.546875-.65625-5.46875-.65625-5.6875 0-10.097656 1.769531-13.5625 4.46875-1.769531 1.375-3.15625 3.265625-4.03125 5.59375-.308594-.105469-.71875-.277344-1.1875-.59375-.785156-.535156-1.46875-1.269531-1.46875-2.625 0-1.078125.503906-1.980469 1.34375-2.34375.46875-.171875.738281-.65625.636719-1.144531-.101563-.488281-.546875-.824219-1.042969-.792969-.128906.007813-.257812.039063-.375.09375-1.660156.714844-2.5625 2.4375-2.5625 4.1875 0 2.09375 1.21875 3.515625 2.34375 4.28125.695313.472656 1.289063.707031 1.71875.84375-.339844 1.480469-.480469 3.121094-.40625 4.875.1875 4.453125 3.203125 7.71875 5.46875 9.53125h.03125c.203125.160156.265625.253906.28125.28125s.0625-.035156-.03125.25c-.300781.921875-.875 2.3125-.875 2.3125v.03125c-.53125 1.394531.171875 2.96875 1.5625 3.5v.03125l3.21875 1.1875c1.394531.53125 3-.167969 3.53125-1.5625 0 0 .398438-1.125.75-2.0625.054688-.140625.09375-.175781.125-.21875.039063.003906.042969.015625.125.03125.636719.117188 2.050781.53125 4.40625.53125 2.402344 0 3.800781-.242187 4.4375-.28125.125-.007812.175781 0 .21875 0 .015625.027344.011719.050781.03125.09375.003906.015625-.003906.015625 0 .03125.320313.957031.707031 1.847656.71875 1.875.003906.015625.023438.015625.03125.03125.542969 1.367188 2.089844 2.054688 3.46875 1.53125l3.21875-1.1875c0-.011719 0-.019531 0-.03125 1.394531-.527344 2.097656-2.105469 1.5625-3.5l-.5-1.34375c-.027344-.054687-.058594-.105469-.09375-.15625 0 0 .03125-.003906.03125 0s-.136719.050781.1875-.125c2.429688-1.320312 4.289063-3.355469 5.46875-5.8125.109375-.230469.203125-.394531.28125-.46875s.125-.125.4375-.125h1.625c1.4375 0 2.625-1.1875 2.625-2.625v-4.875c0-1.4375-1.183594-2.625-2.625-2.625h-1.625c-.253906 0-.320312-.019531-.34375-.03125-.496094-2.878906-2.4375-6.484375-6.71875-8.3125.050781-2.058594.503906-3.6875 1.5-6.375.128906-.320312.085938-.6875-.117187-.964844-.203125-.28125-.539063-.4375-.882813-.410156zm-1.5625 2.8125c-.605469 1.882813-1.035156 3.574219-1 5.53125.003906.425781.28125.804688.6875.9375 4.183594 1.460938 5.726563 4.714844 6.125 7.21875.152344.953125 1.167969 1.59375 2.3125 1.59375h1.625c.351563 0 .625.269531.625.625v4.875c0 .351563-.269531.625-.625.625h-1.625c-.734375 0-1.398437.273438-1.8125.65625-.414062.382813-.597656.804688-.71875 1.0625-1.015625 2.113281-2.539062 3.789063-4.59375 4.90625-.800781.433594-1.230469 1.238281-1.25 1.84375-.015625.519531.160156.796875.21875.90625h-.03125l.0625.15625.4375 1.21875c.144531.375-.023437.792969-.40625.9375l-3.21875 1.21875c-.382812.144531-.796875-.058594-.9375-.4375 0-.011719 0-.019531 0-.03125 0 0-.390625-.894531-.6875-1.78125-.148437-.433594-.359375-.917969-.84375-1.21875s-.960937-.277344-1.40625-.25c-.890625.058594-2.039062.28125-4.3125.28125-2.144531 0-3.203125-.34375-4.0625-.5-.429687-.078125-.957031-.148437-1.5.15625-.542969.304688-.746094.800781-.9375 1.3125-.34375.921875-.78125 2.03125-.78125 2.03125-.144531.378906-.558594.582031-.9375.4375l-3.21875-1.21875c-.378906-.144531-.550781-.558594-.40625-.9375.015625-.042969.5625-1.382812.90625-2.4375.230469-.710937.132813-1.429687-.15625-1.90625-.289062-.476562-.675781-.730469-.78125-.8125-2.023437-1.617187-4.570312-4.492187-4.71875-8.0625-.210937-5.066406 1.527344-8.597656 4.25-10.71875 3.15625-2.457031 7.0625-4.03125 12.34375-4.03125 2.015625 0 3.921875.246094 5.71875.6875.472656.117188.957031-.121094 1.15625-.5625 1.121094-2.472656 2.78125-3.566406 4.5-4.3125zm.84375 13.34375c-1.058594 0-1.90625.851563-1.90625 1.90625 0 1.058594.847656 1.9375 1.90625 1.9375 1.054688 0 1.90625-.882812 1.90625-1.9375 0-1.054687-.851562-1.90625-1.90625-1.90625z"/></svg>