<svg fill="#666" height="50" viewBox="0 0 50 50" width="50" xmlns="http://www.w3.org/2000/svg"><path d="m25 2c-12.691406 0-23 10.308594-23 23s10.308594 23 23 23 23-10.308594 23-23-10.308594-23-23-23zm0 2c11.609375 0 21 9.390625 21 21s-9.390625 21-21 21c-3.742187 0-7.242187-.976562-10.28125-2.6875l10.71875-10.75c1.578125.84375 3.199219 1.433594 4.8125 1.4375 1.867188.003906 3.6875-.71875 5.1875-2.21875 1.371094-1.371094 2.710938-3.523437 3.59375-5.875.882813-2.351562 1.367188-4.894531.625-7.03125-.113281-.328125-.386719-.570312-.722656-.648437-.339844-.074219-.691406.027343-.933594.273437l-5.28125 5.28125c-.347656.347656-.871094.347656-1.21875 0l-5.28125-5.28125c-.34375-.34375-.34375-.875 0-1.21875l5.28125-5.28125c.246094-.242187.347656-.59375.273438-.933594-.078125-.335937-.320313-.609375-.648438-.722656-1.066406-.371094-2.246094-.417969-3.4375-.28125s-2.417969.464844-3.59375.90625c-2.351562.882813-4.503906 2.222656-5.875 3.59375-1.496094 1.496094-2.222656 3.320313-2.21875 5.1875.003906 1.617188.589844 3.234375 1.4375 4.8125l-10.75 10.71875c-1.710937-3.039062-2.6875-6.539062-2.6875-10.28125 0-11.609375 9.390625-21 21-21zm3.5625 8.125-3.75 3.75c-1.109375 1.109375-1.109375 2.921875 0 4.03125l5.28125 5.28125c1.109375 1.113281 2.921875 1.113281 4.03125 0l3.75-3.75c-.035156 1.164063-.222656 2.429688-.71875 3.75-.789062 2.101563-2.0625 4.125-3.125 5.1875-1.164062 1.164063-2.398437 1.628906-3.78125 1.625-1.382812-.003906-2.917969-.503906-4.5-1.46875-.394531-.257812-.914062-.207031-1.25.125l-11.5 11.5625c-2.039062-1.421875-3.796875-3.179687-5.21875-5.21875l11.5625-11.5c.332031-.335937.382813-.855469.125-1.25-.960937-1.582031-1.464844-3.117187-1.46875-4.5-.003906-1.382812.460938-2.617187 1.625-3.78125 1.0625-1.0625 3.085938-2.335937 5.1875-3.125 1.320313-.496094 2.585938-.683594 3.75-.71875z"/></svg>