<svg fill="#666" height="50" viewBox="0 0 50 50" width="50" xmlns="http://www.w3.org/2000/svg"><path d="m24 2c-2.839844 0-4.800781 1.445313-5.796875 3.398438-.992187 1.953125-1.203125 4.335937-1.203125 6.601562v5c0 .320313-.105469.824219-.257812 1.125l-.007813.023438-.011719.023437c.023438-.050781-.425781.625-.988281 1.421875-.5625.800781-1.277344 1.859375-1.976562 3.144531-1.367188 2.511719-2.683594 5.90625-2.746094 9.960938-.15625.136719-.292969.273437-.421875.398437-.582031.582032-.992188 1.195313-1.640625 1.652344l-.121094.089844-.09375.117187c.015625-.019531.011719.011719-.179687.054688-.191407.039062-.515625.066406-.890625.101562-.378907.035157-.824219.082032-1.296875.28125-.46875.203125-.964844.621094-1.21875 1.203125-.203125.460938-.160157.941407-.0625 1.289063.09375.347656.226562.628906.351562.90625.242188.554687.453125 1.070312.453125 1.710937 0 .070313-.03125.167969-.15625.375-.128906.207032-.375.464844-.507812 1l-.015625.046875c-.050782.261719-.121094.519532-.144532.867188-.023437.347656.042969.785156.234375 1.164062l.027344.058594.035156.046875c.308594.464844.878907.929688 1.683594 1.214844.804688.28125 1.949219.535156 3.917969.941406.9375.207031 1.902344.585938 2.816406.949219.917969.363281 1.75.71875 2.640625.800781.71875.066406 1.789063.105469 2.800781-.472656.785157-.445313 1.398438-1.304688 1.644532-2.496094h9.210937c.144531.929688.492188 1.664063 1.109375 2.15625.59375.554688 1.503906.84375 2.886719.84375 1.539062 0 2.730469-.664062 3.660156-1.59375.488281-.488281.9375-.71875 2.5625-1.878906.613281-.390625 1.425781-.855469 2.140625-1.273438.355469-.207031.6875-.402343.964844-.578125.277344-.175781.46875-.277343.710937-.519531l.003907-.003906h.003906c-.003906 0 .203125-.125.453125-.4375s.425781-.8125.425781-1.332031c0-.5625-.28125-1.09375-.609375-1.390625-.28125-.257813-.558594-.378907-.789062-.460938-.519532-.253906-1.03125-.472656-1.585938-1.285156.050781.066406-.097656-.457031-.1875-1.046875-.09375-.601563-.171875-1.316406-.714844-1.984375-.082031-.105469-.179687-.199219-.285156-.277344.09375-.914062.171875-1.90625.171875-2.9375 0-3.160156-1.8125-6.285156-3.792969-9.128906-1.972656-2.839844-3.410156-4.351563-4.210937-7.664063h.003906c-.421875-1.730468-.480469-2.242187-.539062-2.773437-.058594-.535156-.121094-1.125-.488282-2.660156-.34375-1.621094-.722656-3.304688-1.90625-4.640625-1.191406-1.34375-3.132812-2.132813-6.066406-2.132813zm0 2c2.597656 0 3.816406.605469 4.570313 1.457031.753906.851563 1.113281 2.164063 1.449218 3.753907l.007813.007812v.015625c.355469 1.484375.386719 1.859375.445312 2.414063.058594.554687.148438 1.246093.578125 3.027343.898438 3.71875 2.613282 5.601563 4.515625 8.335938 1.898438 2.730469 3.433594 5.636719 3.433594 7.988281 0 .933594-.070312 1.867188-.15625 2.726563-.0625.019531-.125.039062-.179687.058593-.304688-.222656-.664063-.378906-1.054688-.488281-.519531-.1875-1.03125-.328125-1.625-.34375-.371094-.039062-.71875-.027344-1.042969.015625-.542968-9.902344-5.003906-12.820312-6.425781-15.757812.003906-.007813.011719-.011719.015625-.023438.335938-.515625.390625-1.050781.449219-1.660156.007812-.0625.003906-.125.003906-.183594.632813-.878906 1.015625-2.042969 1.015625-3.34375 0-2.804687-1.757812-5-4-5-1.273437 0-2.058594.445313-2.503906 1.488281-.453125-1.03125-1.230469-1.488281-2.496094-1.488281-.503906 0-.976562.125-1.417969.328125.117188-.367187.246094-.710937.402344-1.023437.738281-1.445313 1.777344-2.304688 4.015625-2.304688zm-3 5c1.105469 0 2 1.34375 2 3v.015625c-.082031-.003906-.160156-.015625-.246094-.015625-.285156 0-.550781.042969-.804687.109375-.121094-.636719-.488281-1.109375-.949219-1.109375-.550781 0-1 .671875-1 1.5 0 .203125.027344.394531.078125.570313-.269531.203125-.476562.375-.597656.496093-.042969.039063-.082031.070313-.121094.105469-.222656-.480469-.359375-1.046875-.359375-1.671875 0-1.65625.894531-3 2-3zm5 0c1.105469 0 2 1.34375 2 3 0 .570313-.117187 1.089844-.300781 1.542969-.292969-.125-.574219-.21875-.855469-.289063.089844-.222656.15625-.472656.15625-.753906 0-.828125-.449219-1.5-1-1.5s-1 .671875-1 1.5v.011719c-.304687-.125-.636719-.242188-.988281-.335938-.003906-.058593-.011719-.117187-.011719-.175781 0-1.65625.894531-3 2-3zm-3.246094 5c.40625 0 .996094.160156 1.535157.378906.539062.21875.996093.460938 1.378906.621094l.078125.035156.082031.015625c.507813.121094.964844.25 1.152344.347657-.050781.429687-.101563.664062-.125.699218-.027344.042969-.167969.175782-.679688.449219-.632812.226563-1.113281.59375-1.628906.90625-.566406.339844-1.140625.546875-1.222656.546875-.4375 0-1.042969-.03125-1.285156-.082031.09375.027344-.070313-.054688-.277344-.246094-.222656-.210937-.5-.5-.78125-.800781l-.074219-.074219-.078125-.054687c-.320312-.226563-.570312-.429688-.691406-.574219-.125-.148438-.136719-.191406-.136719-.289063 0-.148437-.027344-.058593.0625-.160156.089844-.105469.363281-.320312.734375-.648437l.035156-.027344.03125-.035156c-.054687.058593.308594-.296875.703125-.554688.394532-.257812.882813-.453125 1.1875-.453125zm-3.828125 3.769531c.027344.027344.054688.058594.085938.082032-.007813.050781-.011719.097656-.011719.148437v.941406c-.007812.097657-.25.789063-.703125 1.601563-.457031.816406-1.082031 1.816406-1.710937 2.925781-1.257813 2.210938-2.585938 4.832031-2.585938 7.53125 0 .597656.132813 1.160156.328125 1.6875-.039062-.035156-.078125-.078125-.121094-.109375-.316406-.253906-.675781-.488281-1.167968-.550781.1875-3.328125 1.292968-6.160156 2.476562-8.332031.648438-1.191407 1.3125-2.179688 1.855469-2.945313.53125-.757812.898437-1.164062 1.160156-1.746094.203125-.402343.324219-.820312.394531-1.234375zm7.945313.652344c1.84375 3.628906 5.667969 5.691406 6.082031 14.90625-.320312.042969-.640625.128906-.90625.324219-.359375.261719-.558594.59375-.703125.890625-.164062.328125-.273437.707031-.3125 1.085937-.035156.382813-.03125.78125-.03125 1.371094 0 .945313-.007812 1.988281-.109375 2.695313v.023437c-.003906.003906-.003906.007813-.003906.015625-.214844.429688-1.75 3.265625-5.886719 3.265625-2.40625 0-3.886719-.941406-4.753906-1.816406-.109375-.160156-.21875-.308594-.328125-.460938.582031-.191406 1.230469-.457031 1.714844-1.148437l.023437-.027344.015625-.03125c.308594-.511719.371094-1.097656.296875-1.558594-.078125-.460937-.265625-.820312-.441406-1.085937-.167969-.25-.285156-.316406-.410156-.414063-.125-.09375-.253907-.175781-.398438-.265625-.285156-.179687-.621094-.367187-.96875-.566406-.691406-.398437-1.460937-.863281-1.734375-1.097656-.332031-.28125-.882812-.878906-1.308594-1.546875-.421875-.671875-.707031-1.417969-.707031-1.980469 0-2.007812 1.113281-4.417969 2.324219-6.542969.605469-1.0625 1.222656-2.054687 1.71875-2.9375.390625-.699218.722656-1.292968.871094-1.941406.132812.089844.285156.175781.488281.246094l.035156.011719.039063.011718c.695312.183594 1.394531.152344 1.847656.152344.941406 0 1.621094-.453125 2.253906-.832031.609375-.367188 1.179688-.699219 1.292969-.746094zm-14.070313 15.578125c-.160156 0-.03125-.011719.164063.144531.195312.15625.460937.425782.722656.738282.523438.628906 1.0625 1.4375 1.390625 1.980468l.015625.03125.019531.027344c.785157 1.117188.886719 1.4375 2.058594 3.308594l-.019531-.042969c.066406.121094.128906.21875.195312.328125.003907.007813.007813.015625.011719.027344 0 0 .003906 0 .003906.003906.03125.070313.074219.136719.121094.199219.097656.183594.324219.597656.878906 1.246094.078125.105468.179688.238281.242188.332031.308594.476562.433594.734375.386719 1.46875l-.003907.03125v.03125c0 1.324219-.347656 1.671875-.753906 1.902344-.40625.230468-1.078125.269531-1.632812.21875-.386719-.035157-1.171875-.308594-2.085938-.667969-.910156-.363281-1.972656-.789063-3.121094-1.042969h-.007812l-.007813-.003906c-1.960937-.402344-3.082031-.667969-3.664062-.871094-.542969-.195312-.519531-.222656-.644531-.40625 0-.011719-.011719-.023437-.007813-.058594.003906-.078125.046875-.285156.101563-.558593v-.003907c-.015625.074219.082031-.128906.273437-.441406.191406-.308594.453125-.789062.453125-1.417969 0-1.089843-.375-1.941406-.625-2.519531-.128906-.285156-.222656-.507812-.25-.617187.027344-.058594.039063-.089844.140625-.132813.121094-.050781.371094-.101562.695313-.128906.324218-.03125.707031-.046875 1.136718-.140625.425782-.097656.949219-.308594 1.324219-.785156.792969-.636719 1.378906-1.351563 1.6875-1.664063.234375-.230469.390625-.375.488281-.4375.101563-.058594.132813-.078125.3125-.078125zm22.371094.917969c.164063-.019531.367188-.015625.625.015625l.058594.007812h.0625c-.085938 0 .761719.140625 1.042969.246094l.039062.011719.042969.011719c.238281.066406.269531.113281.320312.148437-.039062.082031-.101562.167969-.160156.253906-.117187.113282-.316406.269532-.421875.632813-.289062.324219-.835937.664062-1.140625.664062-.1875 0-.382812-.035156-.488281-.078125-.03125-.011718-.023438-.023437-.042969-.03125v-.113281s.011719-.015625.042969-.230469c.023437-.144531-.039063-.414062-.089844-.65625-.019531-.296875-.191406-.515625-.304687-.78125.019531-.007812.054687-.011718.078125-.019531h.164062c0-.015625 0-.027344 0-.042969.058594-.011718.101563-.035156.171875-.039062zm2.246094.09375c0 .125.046875.0625.066406.160156-.007812.007813-.015625.023438-.023437.035156zm2.203125.617187c.054687.136719.160156.425782.230469.871094.082031.546875.039062 1.105469.457031 1.796875l.007812.019531.015625.019532c.851563 1.277343 1.980469 1.789062 2.394532 1.996093l.0625.03125.070312.023438c.089844.027344.128906.054687.152344.066406 0-.003906 0 .015625 0 .015625.011719-.019531-.074219.035156-.3125.273438.0625-.0625-.125.089843-.359375.242187-.242188.148438-.558594.335938-.914063.542969-.703125.410156-1.535156.886719-2.21875 1.320312l-.019531.011719-.023437.015625c-1.632813 1.167969-2.160157 1.433594-2.84375 2.117188-.726563.726562-1.191407 1.007812-2.246094 1.007812-1.179688 0-1.421875-.179687-1.542969-.296875l-.046875-.050781-.058594-.042969c-.066406-.050781-.425781-.5625-.425781-1.683594 0-.8125.613281-1.792968.871094-3.957031.132812-.945312.128906-2.027344.128906-2.96875 0-.589844.003906-.960937.023438-1.171875.003906-.050781.011718-.070312.015625-.105469.03125.042969.070312.078125.070312.203125v.214844l.050781.113281c-.015625.070313-.050781.1875-.050781.433594v.675781l.09375.199219c.253906.5625.738281.933594 1.1875 1.121094.449219.183594.878906.226562 1.25.226562 1.320313 0 2.316406-.792968 2.90625-1.660156l.175781-.253906v-.058594c.011719-.019531-.003906-.011719.015625-.035156l.066407-.070313.050781-.082031c.304687-.5.523437-.855469.441406-.765625zm-22.484375.746094c.5.355469 1.082031.675781 1.621094.984375.347656.199219.671875.386719.902343.53125.101563.0625.175782.113281.226563.148438.046875.085937.097656.179687.109375.246093.007812.066407-.003906.101563-.03125.15625-.027344.019532-.46875.320313-.9375.472657-.101563.03125-.175781.046875-.269531.070312-.792969-1.269531-1.152344-1.894531-1.621094-2.609375z"/></svg>