<svg fill="#666" height="50" viewBox="0 0 50 50" width="50" xmlns="http://www.w3.org/2000/svg"><path d="m7 2v46h36v-32.589844l-13.816406-13.410156zm2 2h19v13h13v29h-32zm21 1.578125 9.707031 9.421875h-9.707031zm-7.988281 17.976563 1.8125 4.933593-1.890625 5.175782h1.949219l.539062-1.828125c.152344-.570313.316406-1.183594.480469-1.832032h.03125c.179687.648438.34375 1.21875.539062 1.804688l.644532 1.855469h2.027343l-1.992187-5.085938 1.886719-5.023437h-1.964844l-.511719 1.847656c-.132812.554687-.253906 1.035156-.417969 1.648437h-.03125c-.164062-.570312-.296875-1.097656-.460937-1.621093l-.589844-1.875zm-6.0625.003906v1.8125h1.785156v8.292969h1.964844v-8.292969h1.800781v-1.8125zm12.570312 0v1.8125h1.78125v8.292969h1.964844v-8.292969h1.800781v-1.8125z"/></svg>