<svg fill="#666" height="50" viewBox="0 0 50 50" width="50" xmlns="http://www.w3.org/2000/svg"><path d="m3 0c-1.644531 0-3 1.355469-3 3v44c0 1.644531 1.355469 3 3 3h44c1.644531 0 3-1.355469 3-3v-44c0-1.644531-1.355469-3-3-3zm0 2h44c.554688 0 1 .445313 1 1v44c0 .554688-.445312 1-1 1h-44c-.554687 0-1-.445312-1-1v-44c0-.554687.445313-1 1-1zm12.09375 16.40625c-.867187 0-1.71875.097656-2.40625.28125v13.3125h2.125v-5.3125h.59375c1.101563 0 2.386719-.476562 3.1875-1.375.601563-.699219 1-1.601562 1-3 0-1.199219-.394531-2.207031-1.09375-2.90625-.800781-.699219-2.007812-1-3.40625-1zm18.5 0c-.867187 0-1.71875.097656-2.40625.28125v13.3125h2.125v-5.3125h.59375c1.101563 0 2.386719-.476562 3.1875-1.375.601563-.699219 1-1.601562 1-3 0-1.199219-.394531-2.207031-1.09375-2.90625-.800781-.699219-2.007812-1-3.40625-1zm-12.28125.09375v13.5h2.09375v-5.90625h3.1875v5.90625h2.09375v-13.5h-2.09375v5.59375h-3.1875v-5.59375zm-5.8125 1.6875c1.5 0 2 1.011719 2 2.3125 0 1.5-.789062 2.5-2.1875 2.5h-.5v-4.6875c.101563-.101562.386719-.125.6875-.125zm18.40625 0c1.5 0 2 1.011719 2 2.3125 0 1.5-.820312 2.5-2.21875 2.5h-.5v-4.6875c.101563-.101562.417969-.125.71875-.125z"/></svg>