<svg fill="#666" height="50" viewBox="0 0 50 50" width="50" xmlns="http://www.w3.org/2000/svg"><path d="m21 3v10h-2c-1.644531 0-3 1.355469-3 3v22c0 1.644531 1.355469 3 3 3h1.96875c-.261719 3.320313-3.089844 6-6.46875 6s-6.207031-2.679687-6.46875-6h2.96875c1.644531 0 3-1.355469 3-3v-28c0-1.644531-1.355469-3-3-3h-8c-1.644531 0-3 1.355469-3 3v28c0 1.644531 1.355469 3 3 3h3.03125c.261719 4.425781 3.980469 8 8.46875 8s8.207031-3.574219 8.46875-8h24.03125c1.644531 0 3-1.355469 3-3v-22c0-1.644531-1.355469-3-3-3h-2v-10zm2 2h20v12h-20zm-20 4h8c.554688 0 1 .445313 1 1v28c0 .554688-.445312 1-1 1h-8c-.554687 0-1-.445312-1-1v-28c0-.554687.445313-1 1-1zm16 6h2v4h24v-4h2c.554688 0 1 .445313 1 1v22c0 .554688-.445312 1-1 1h-28c-.554687 0-1-.445312-1-1v-22c0-.554687.445313-1 1-1zm8 6c-1.105469 0-2 .894531-2 2s.894531 2 2 2 2-.894531 2-2-.894531-2-2-2zm6 0c-1.105469 0-2 .894531-2 2s.894531 2 2 2 2-.894531 2-2-.894531-2-2-2zm6 0c-1.105469 0-2 .894531-2 2s.894531 2 2 2 2-.894531 2-2-.894531-2-2-2zm-12 6c-1.105469 0-2 .894531-2 2s.894531 2 2 2 2-.894531 2-2-.894531-2-2-2zm6 0c-1.105469 0-2 .894531-2 2s.894531 2 2 2 2-.894531 2-2-.894531-2-2-2zm6 0c-1.105469 0-2 .894531-2 2s.894531 2 2 2 2-.894531 2-2-.894531-2-2-2zm-12 6c-1.105469 0-2 .894531-2 2s.894531 2 2 2 2-.894531 2-2-.894531-2-2-2zm6 0c-1.105469 0-2 .894531-2 2s.894531 2 2 2 2-.894531 2-2-.894531-2-2-2zm6 0c-1.105469 0-2 .894531-2 2s.894531 2 2 2 2-.894531 2-2-.894531-2-2-2z"/></svg>