<svg fill="#666" height="50" viewBox="0 0 50 50" width="50" xmlns="http://www.w3.org/2000/svg"><path d="m5 5c-1.644531 0-3 1.355469-3 3v28c0 1.644531 1.355469 3 3 3h15v3h-2c-1.644531 0-3 1.355469-3 3v2h20v-2c0-1.644531-1.355469-3-3-3h-2v-3h15c1.644531 0 3-1.355469 3-3v-28c0-1.644531-1.355469-3-3-3zm0 2h40c.566406 0 1 .433594 1 1v28c0 .566406-.433594 1-1 1h-40c-.566406 0-1-.433594-1-1v-28c0-.140625.011719-.285156.0625-.40625.148438-.359375.515625-.59375.9375-.59375zm4 6c-1.09375 0-2 .90625-2 2v13c0 1.09375.90625 2 2 2h6c1.09375 0 2-.90625 2-2v-13c0-1.09375-.90625-2-2-2zm14 0c-1.09375 0-2 .90625-2 2v13c0 1.09375.90625 2 2 2h18c1.09375 0 2-.90625 2-2v-13c0-1.09375-.90625-2-2-2zm-14 2h6v13h-6zm14 0h18v13h-18zm-11 10c-.550781 0-1 .449219-1 1s.449219 1 1 1 1-.449219 1-1-.449219-1-1-1zm20 0c-.550781 0-1 .449219-1 1s.449219 1 1 1 1-.449219 1-1-.449219-1-1-1zm-7 9c-.550781 0-1 .449219-1 1s.449219 1 1 1 1-.449219 1-1-.449219-1-1-1zm-3 5h6v3h-6zm-4 5h14c.566406 0 1 .433594 1 1h-16c0-.566406.433594-1 1-1z"/></svg>