<svg fill="#666" height="50" viewBox="0 0 50 50" width="50" xmlns="http://www.w3.org/2000/svg"><path d="m5 3c-1.28125 0-2.53125.230469-3.5 1.03125s-1.5 2.136719-1.5 3.78125c0 8.890625.453125 14.261719 2.875 17.65625 1.210938 1.699219 2.914063 2.785156 5.09375 3.40625.457031.128906 1.03125.1875 1.53125.28125-1.296875.667969-2.351562 1.496094-3.0625 2.4375-1.621094 2.148438-1.851562 4.558594-1.15625 6.1875.003906.007813-.003906.023438 0 .03125.957031 2.378906 2.457031 4.59375 4.1875 6.28125 1.734375 1.695313 3.691406 2.90625 5.71875 2.90625.785156 0 1.359375-.292969 2.21875-.78125s1.851563-1.226562 2.90625-2.1875c1.699219-1.550781 3.394531-3.929687 4.6875-6.8125 1.292969 2.882813 2.988281 5.261719 4.6875 6.8125 1.054688.960938 2.046875 1.699219 2.90625 2.1875s1.433594.78125 2.21875.78125c2.027344 0 3.984375-1.210937 5.71875-2.90625 1.734375-1.695312 3.230469-3.921875 4.1875-6.3125 0-.011719 0-.019531 0-.03125.628906-1.605469.398438-3.996094-1.21875-6.15625-.707031-.941406-1.738281-1.765625-3.03125-2.4375.511719-.097656 1.097656-.148437 1.5625-.28125 2.179688-.621094 3.882813-1.707031 5.09375-3.40625 2.421875-3.394531 2.875-8.765625 2.875-17.65625 0-1.6875-.519531-3.023437-1.5-3.8125-.980469-.789062-2.234375-1-3.5-1-1.53125 0-3.246094.707031-5.15625 1.84375s-3.960937 2.726563-6 4.625c-3.511719 3.269531-6.832031 7.464844-8.84375 11.8125-2.011719-4.347656-5.332031-8.542969-8.84375-11.8125-2.039062-1.898437-4.089844-3.488281-6-4.625s-3.625-1.84375-5.15625-1.84375zm0 2c.820313 0 2.375.519531 4.125 1.5625s3.738281 2.558594 5.6875 4.375c3.898438 3.628906 7.636719 8.484375 9.25 13.09375.144531.390625.519531.652344.9375.652344s.792969-.261719.9375-.652344c1.613281-4.609375 5.351563-9.464844 9.25-13.09375 1.949219-1.816406 3.9375-3.332031 5.6875-4.375s3.304688-1.5625 4.125-1.5625c1.035156 0 1.804688.203125 2.25.5625.445313.359375.75.9375.75 2.25 0 8.808594-.621094 13.871094-2.5 16.5-.9375 1.316406-2.160156 2.125-4.03125 2.65625s-4.355469.71875-7.5625.71875c-.546875.007813-.984375.453125-.984375 1s.4375.992188.984375 1c4.472656 0 6.792969 1.480469 8 3.09375s1.238281 3.558594.96875 4.25c-.84375 2.109375-2.234375 4.175781-3.75 5.65625-1.503906 1.46875-3.109375 2.296875-4.28125 2.3125-.015625-.03125-.625-.175781-1.25-.53125-.714844-.40625-1.617187-1.042969-2.5625-1.90625-1.890625-1.726562-3.921875-4.363281-5.0625-7.96875-.113281-.441406-.511719-.75-.96875-.75s-.855469.308594-.96875.75c-1.140625 3.605469-3.171875 6.242188-5.0625 7.96875-.945312.863281-1.847656 1.5-2.5625 1.90625-.582031.328125-1.128906.488281-1.21875.53125-1.171875 0-2.796875-.832031-4.3125-2.3125s-2.90625-3.546875-3.75-5.65625c0-.011719 0-.019531 0-.03125-.292969-.671875-.28125-2.605469.9375-4.21875s3.558594-3.09375 8.03125-3.09375c.546875-.007812.984375-.453125.984375-1s-.4375-.992187-.984375-1c-3.207031 0-5.691406-.1875-7.5625-.71875s-3.09375-1.339844-4.03125-2.65625c-1.878906-2.628906-2.5-7.691406-2.5-16.5 0-1.253906.328125-1.84375.78125-2.21875s1.199219-.59375 2.21875-.59375z"/></svg>