<svg fill="#666" height="50" viewBox="0 0 50 50" width="50" xmlns="http://www.w3.org/2000/svg"><path d="m7 2v46h36v-32.585937l-13.589844-13.414063zm2 2h19v13h13v29h-32zm21 1.390625 9.734375 9.609375h-9.734375zm2.097656 18.078125c-2.144531 0-4.246093 1.527344-4.289062 5.203125-.03125 1.738281.433594 3.238281 1.300781 4.078125.675781.675781 1.546875 1.003906 2.703125 1.003906.734375 0 1.664063-.175781 2.097656-.359375v-5.398437h-2.710937v1.605469h.898437v2.445312c-.074218.027344-.210937.046875-.390625.046875-.914062 0-1.859375-.875-1.859375-3.304687 0-2.640625 1.0625-3.554688 2.398438-3.554688.496094 0 .871094.078125 1.15625.226563l.34375-1.695313c-.316406-.152344-.882813-.296875-1.648438-.296875zm-8.597656.042969c-.75 0-1.496094.074219-2.050781.195312v9.960938h1.960937v-3.765625h.390625c.8125 0 1.832032-.300781 2.460938-.960938.523437-.570312.855469-1.335937.855469-2.429687 0-.855469-.269532-1.695313-.871094-2.21875-.660156-.617188-1.574219-.78125-2.746094-.78125zm-5.640625.046875v6.972656c0 1.304688-.476562 1.53125-1.046875 1.53125-.253906 0-.449219-.015625-.644531-.074219l-.167969 1.652344c.226563.085938.585938.144531.992188.144531 1.441406 0 2.851562-.433593 2.851562-3.34375v-6.882812zm6.03125 1.542969c.917969 0 1.277344.6875 1.277344 1.574218 0 .945313-.453125 1.652344-1.441406 1.652344-.121094 0-.222657-.003906-.316407-.03125v-3.121094c.121094-.046875.300782-.074218.480469-.074218z"/></svg>