<svg fill="#666" height="50" viewBox="0 0 50 50" width="50" xmlns="http://www.w3.org/2000/svg"><path d="m11 4c-1.644531 0-3 1.355469-3 3v5h-1c-.03125 0-.0625 0-.09375 0-.550781.027344-.980469.496094-.953125 1.046875s.496094.980469 1.046875.953125h4c.359375.003906.695313-.183594.878906-.496094.179688-.3125.179688-.695312 0-1.007812-.183593-.3125-.519531-.5-.878906-.496094h-1v-5c0-.554687.445313-1 1-1h28c.554688 0 1 .445313 1 1v36c0 .554688-.445312 1-1 1h-28c-.554687 0-1-.445312-1-1v-4h-2v4c0 1.644531 1.355469 3 3 3h28c1.644531 0 3-1.355469 3-3v-36c0-1.644531-1.355469-3-3-3zm-3 11v3h-1c-.03125 0-.0625 0-.09375 0s-.0625 0-.09375 0c-.550781.050781-.957031.542969-.90625 1.09375s.542969.957031 1.09375.90625h4c.359375.003906.695313-.183594.878906-.496094.179688-.3125.179688-.695312 0-1.007812-.183593-.3125-.519531-.5-.878906-.496094h-1v-3zm14 1v6h-6v6h6v6h6v-6h6v-6h-6v-6zm2 2h2v6h6v2h-6v6h-2v-6h-6v-2h6zm-16 3v3h-1c-.03125 0-.0625 0-.09375 0-.550781.027344-.980469.496094-.953125 1.046875s.496094.980469 1.046875.953125h4c.359375.003906.695313-.183594.878906-.496094.179688-.3125.179688-.695312 0-1.007812-.183593-.3125-.519531-.5-.878906-.496094h-1v-3zm0 6v3h-1c-.03125 0-.0625 0-.09375 0-.550781.027344-.980469.496094-.953125 1.046875s.496094.980469 1.046875.953125h4c.359375.003906.695313-.183594.878906-.496094.179688-.3125.179688-.695312 0-1.007812-.183593-.3125-.519531-.5-.878906-.496094h-1v-3zm0 6v3h-1c-.03125 0-.0625 0-.09375 0-.550781.027344-.980469.496094-.953125 1.046875s.496094.980469 1.046875.953125h4c.359375.003906.695313-.183594.878906-.496094.179688-.3125.179688-.695312 0-1.007812-.183593-.3125-.519531-.5-.878906-.496094h-1v-3z"/></svg>