<svg fill="#666" height="50" viewBox="0 0 50 50" width="50" xmlns="http://www.w3.org/2000/svg"><path d="m25 2c-2.847113 0-5 2.3838269-5 5.1699219v2.7246093c-.741312.2447908-1.456106.5422168-2.146484.8886718l-1.925782-1.9257811c-1.969827-1.9698277-5.17825-2.1342494-7.1914059-.1210938-2.0131556 2.0131559-1.8487339 5.2215789.1210938 7.1914059l1.9257811 1.925782c-.346438.689946-.643996 1.40514-.8886718 2.146484h-2.7246093c-2.786095 0-5.1699219 2.152887-5.1699219 5s2.3838269 5 5.1699219 5h2.7246093c.2447908.741312.5422168 1.456106.8886718 2.146484l-1.9257811 1.925782c-1.9698277 1.969827-2.1342494 5.17825-.1210938 7.191406 2.0131559 2.013155 5.2215789 1.848734 7.1914059-.121094l1.925782-1.925781c.690378.346455 1.405172.643881 2.146484.888672v2.724609c0 2.786095 2.152887 5.169922 5 5.169922s5-2.383827 5-5.169922v-2.724609c.741312-.244791 1.456106-.542217 2.146484-.888672l1.925782 1.925781c1.969827 1.969828 5.17825 2.134249 7.191406.121094 2.013155-2.013156 1.848734-5.221579-.121094-7.191406l-1.925781-1.925782c.346455-.690378.643881-1.405172.888672-2.146484h2.724609c2.786095 0 5.169922-2.152887 5.169922-5s-2.383827-5-5.169922-5h-2.724609c-.244791-.741312-.542217-1.456106-.888672-2.146484l1.925781-1.925782c1.969828-1.969827 2.134249-5.17825.121094-7.1914059-2.013156-2.0131556-5.221579-1.8487339-7.191406.1210938l-1.925782 1.9257811c-.690378-.346455-1.405172-.643881-2.146484-.8886718v-2.7246093c0-2.786095-2.152887-5.1699219-5-5.1699219zm0 2c1.760887 0 3 1.3700168 3 3.1699219v4.1464841l.732422.203125c1.118852.309649 2.17897.747017 3.162109 1.304688l.66211.376953 2.929687-2.929688c1.272172-1.2721715 3.118437-1.3659382 4.363281-.121093 1.244845 1.244844 1.151079 3.091109-.121093 4.363281l-2.929688 2.929687.376953.66211c.557671.983139.995039 2.043257 1.304688 3.162109l.203125.732422h4.146484c1.799905 0 3.169922 1.239113 3.169922 3s-1.370017 3-3.169922 3h-4.146484l-.203125.732422c-.309649 1.118852-.747017 2.17897-1.304688 3.162109l-.376953.66211 2.929688 2.929687c1.272172 1.272172 1.365938 3.118437.121093 4.363281-1.244844 1.244845-3.091109 1.151079-4.363281-.121093l-2.929687-2.929688-.66211.376953c-.983139.557671-2.043257.995039-3.162109 1.304688l-.732422.203125v4.146484c0 1.799905-1.239113 3.169922-3 3.169922s-3-1.370017-3-3.169922v-4.146484l-.732422-.203125c-1.118852-.309649-2.17897-.747017-3.162109-1.304688l-.66211-.376953-2.929687 2.929688c-1.272172 1.272172-3.118437 1.365938-4.363281.121093-1.2448452-1.244844-1.1510785-3.091109.121093-4.363281l2.929688-2.929687-.376953-.66211c-.557671-.983139-.995039-2.043257-1.304688-3.162109l-.203125-.732422h-4.1464841c-1.7999051 0-3.1699219-1.239113-3.1699219-3s1.3700168-3 3.1699219-3h4.1484371l.201172-.734375c.308431-1.117829.746781-2.176602 1.304688-3.160156l.376953-.66211-2.929688-2.929687c-1.2721715-1.272172-1.3659382-3.118437-.121093-4.363281 1.244844-1.2448452 3.091109-1.1510785 4.363281.121093l2.929687 2.929688.66211-.376953c.983139-.557671 2.043257-.995039 3.162109-1.304688l.732422-.203125v-4.1464841c0-1.7999051 1.239113-3.1699219 3-3.1699219zm0 11c-5.511003 0-10 4.488997-10 10s4.488997 10 10 10 10-4.488997 10-10-4.488997-10-10-10zm0 2c4.090654 0 7.441154 3.045772 7.931641 7h-3.033203c-.466878-2.274608-2.491229-4-4.898438-4s-4.43156 1.725392-4.898438 4h-3.033203c.490487-3.954228 3.840987-7 7.931641-7zm0 5c1.668699 0 3 1.331301 3 3s-1.331301 3-3 3-3-1.331301-3-3 1.331301-3 3-3zm-7.931641 4h3.033203c.466878 2.274608 2.491229 4 4.898438 4s4.43156-1.725392 4.898438-4h3.033203c-.490487 3.954228-3.840987 7-7.931641 7s-7.441154-3.045772-7.931641-7z"/></svg>