<svg fill="#666" height="50" viewBox="0 0 50 50" width="50" xmlns="http://www.w3.org/2000/svg"><path d="m20.875 11c-.183594.023438-.355469.101563-.5.21875l-16 13c-.238281.191406-.375.476563-.375.78125 0 .304688.136719.589844.375.78125l16 13c.300781.242188.710938.289063 1.058594.121094s.566406-.519531.566406-.902344v-6.90625c10.605469.214844 16.09375 3.402344 18.90625 6.5625 2.863281 3.222656 3.085938 6.25 3.09375 6.34375v.0625c.015625.550781.480469.984375 1.03125.96875s.984375-.480469.96875-1.03125v-.0625-.0625c-.003906-.191406-.113281-6.175781-3.21875-12.3125-3.0625-6.054687-9.269531-12.148437-20.78125-12.5v-7.0625c.003906-.289062-.121094-.5625-.335937-.753906-.214844-.191406-.503907-.28125-.789063-.246094zm-.875 3.09375v5.90625c0 .550781.449219 1 1 1 11.511719 0 17.082031 5.671875 20 11.4375.742188 1.46875 1.296875 2.9375 1.71875 4.3125-.117187-.140625-.1875-.265625-.3125-.40625-3.316406-3.730469-9.652344-7.34375-21.40625-7.34375-.550781 0-1 .449219-1 1v5.90625l-13.40625-10.90625z"/></svg>