<svg fill="#666" height="50" viewBox="0 0 50 50" width="50" xmlns="http://www.w3.org/2000/svg"><path d="m24.90625 3.96875c-.042969.007813-.085937.019531-.125.03125-.011719 0-.019531 0-.03125 0-9.839844.082031-18.398437 4.964844-22.375 12.0625-.03125.054688-.066406.101563-.09375.15625-1.460937 2.664063-2.28125 5.636719-2.28125 8.78125 0 6.578125 3.558594 12.414063 9.125 16.25h.03125c4.324219 2.972656 9.859375 4.75 15.84375 4.75 13.707031 0 25-9.304687 25-21 0-11.640625-11.191406-20.914062-24.8125-21-.089844-.023437-.1875-.035156-.28125-.03125zm-1.09375 2.0625c.0625-.003906.125.003906.1875 0v6c-3.402344.1875-6.492187 1.308594-8.8125 3.09375-.589844.453125-1.109375.964844-1.59375 1.5-1.089844-1.339844-2.835937-2.28125-4.65625-2.71875-.78125-.1875-1.585937-.265625-2.375-.21875 3.957031-4.394531 10.144531-7.359375 17.25-7.65625zm2.1875 0c7.183594.253906 13.449219 3.222656 17.4375 7.65625-.789062-.046875-1.59375.03125-2.375.21875-1.820312.4375-3.566406 1.378906-4.65625 2.71875-.484375-.535156-1.003906-1.046875-1.59375-1.5-2.320312-1.785156-5.410156-2.90625-8.8125-3.09375zm-1.1875 7.96875c.0625.007813.125.007813.1875 0 3.382813 0 6.4375 1.058594 8.59375 2.71875s3.40625 3.871094 3.40625 6.28125-1.25 4.621094-3.40625 6.28125c-.441406.339844-.925781.652344-1.4375.9375-.03125.019531-.0625.039063-.09375.0625-1.972656 1.078125-4.417969 1.71875-7.0625 1.71875-2.636719 0-5.0625-.648437-7.03125-1.71875-.039062-.023437-.082031-.042969-.125-.0625-.511719-.285156-.996094-.597656-1.4375-.9375-2.15625-1.660156-3.40625-3.871094-3.40625-6.28125s1.25-4.621094 3.40625-6.28125c2.117188-1.628906 5.101563-2.679687 8.40625-2.71875zm-17.6875 1.65625c.433594.011719.886719.078125 1.34375.1875 1.632813.394531 3.195313 1.472656 3.84375 2.46875-.839844 1.414063-1.3125 3.007813-1.3125 4.6875 0 2.847656 1.378906 5.421875 3.5625 7.34375-1.054687.394531-2.140625 1.039063-3.125 1.9375-1.546875 1.414063-2.851562 3.480469-3 5.90625-4-3.429687-6.4375-8.097656-6.4375-13.1875 0-2.777344.71875-5.421875 2.03125-7.8125.035156-.050781.066406-.101562.09375-.15625.433594-.671875 1.027344-1.058594 1.78125-1.25.375-.097656.785156-.136719 1.21875-.125zm35.75 0c.433594-.011719.84375.027344 1.21875.125.753906.191406 1.347656.578125 1.78125 1.25.019531.03125.039063.0625.0625.09375 1.332031 2.40625 2.0625 5.074219 2.0625 7.875 0 5.089844-2.4375 9.757813-6.4375 13.1875-.148437-2.425781-1.453125-4.492187-3-5.90625-.984375-.898437-2.070312-1.542969-3.125-1.9375 2.183594-1.921875 3.5625-4.496094 3.5625-7.34375 0-1.679687-.472656-3.273437-1.3125-4.6875.648438-.996094 2.210938-2.074219 3.84375-2.46875.457031-.109375.910156-.175781 1.34375-.1875zm-26.46875 16.28125c.269531-.011719.441406.03125.5.0625.03125.011719.0625.023438.09375.03125 2.28125 1.242188 5.039063 1.96875 8 1.96875 2.90625 0 5.617188-.707031 7.875-1.90625.078125-.023437.148438-.054687.21875-.09375.113281-.058594.730469-.128906 1.53125.15625s1.765625.835938 2.59375 1.59375c1.585938 1.449219 2.722656 3.527344 2.21875 6.03125-3.933594 2.625-8.949219 4.21875-14.4375 4.21875s-10.503906-1.59375-14.4375-4.21875c-.503906-2.503906.632813-4.582031 2.21875-6.03125.828125-.757812 1.792969-1.308594 2.59375-1.59375.402344-.144531.761719-.207031 1.03125-.21875z"/></svg>