<svg fill="#666" height="50" viewBox="0 0 50 50" width="50" xmlns="http://www.w3.org/2000/svg"><path d="m5 4c-1.644531 0-3 1.355469-3 3v36c0 1.644531 1.355469 3 3 3h40c1.644531 0 3-1.355469 3-3v-32c0-1.644531-1.355469-3-3-3h-27c.085938 0-.03125 0-.277344-.28125-.242187-.28125-.542968-.75-.859375-1.25-.3125-.5-.640625-1.035156-1.054687-1.507812-.417969-.46875-.988281-.960938-1.808594-.960938zm0 2h9c-.0625 0 .0625.007813.308594.289063.246094.277343.546875.742187.863281 1.242187.09375.152344.195313.3125.296875.46875h-10.46875c-.351562 0-.683594.074219-1 .1875v-1.1875c0-.5625.4375-1 1-1zm0 4h17v13.28125c-.59375.351563-1 .988281-1 1.71875v2c0 .832031.527344 1.554688 1.261719 1.851563-.144531.558593-.242188.921875-.484375 1.945312-.1875.800781-.378906 1.640625-.523438 2.371094-.144531.726562-.253906 1.285156-.253906 1.792969 0 2.210937 1.796875 4.039062 4 4.039062s4-1.828125 4-4.039062c0-.507813-.109375-1.066407-.253906-1.792969-.144531-.730469-.335938-1.570313-.523438-2.371094-.242187-1.023437-.339843-1.386719-.484375-1.945312.734375-.296875 1.261719-1.019532 1.261719-1.851563v-2c0-.730469-.40625-1.367187-1-1.71875v-13.28125h17c.5625 0 1 .4375 1 1v32c0 .5625-.4375 1-1 1h-40c-.5625 0-1-.4375-1-1v-32c0-.566406.433594-1 1-1zm19 0h2v4h-1v2h1v4h-1v2h1v1h-2v-4h1v-2h-1v-4h1v-2h-1zm-1 15h4v2h-4zm1.28125 4h1.4375c.121094.472656.28125 1.070313.558594 2.253906.1875.789063.371094 1.609375.507812 2.300782.136719.691406.214844 1.308593.214844 1.40625 0 1.132812-.902344 2.039062-2 2.039062s-2-.90625-2-2.039062c0-.097657.078125-.714844.214844-1.40625.136719-.691407.320312-1.511719.507812-2.300782.277344-1.183593.4375-1.78125.558594-2.253906zm.71875 5c-.542969 0-.988281.449219-.984375 1-.003906.550781.441406 1 .984375 1s.988281-.449219.984375-1c.003906-.550781-.441406-1-.984375-1z"/></svg>