<svg fill="#666" height="50" viewBox="0 0 50 50" width="50" xmlns="http://www.w3.org/2000/svg"><path d="m3 0c-1.644531 0-3 1.355469-3 3v44c0 1.644531 1.355469 3 3 3h34c1.644531 0 3-1.355469 3-3v-8l-2 2v6c0 .5625-.4375 1-1 1h-34c-.5625 0-1-.4375-1-1v-44c0-.566406.433594-1 1-1h34c.5625 0 1 .4375 1 1v6l2 2v-8c0-1.644531-1.355469-3-3-3zm34.84375 13.09375c-.375.066406-.675781.339844-.78125.703125-.105469.367188.003906.757813.28125 1.015625l9.1875 9.1875h-29.53125c-.03125 0-.0625 0-.09375 0-.550781.027344-.980469.496094-.953125 1.046875s.496094.980469 1.046875.953125h29.53125l-9.1875 9.1875c-.296875.242188-.433594.628906-.347656 1.003906.085937.371094.378906.664063.75.75.375.085938.761719-.050781 1.003906-.347656l10.90625-10.875.6875-.71875-.6875-.71875-10.90625-10.875c-.207031-.222656-.507812-.335937-.8125-.3125-.03125 0-.0625 0-.09375 0z"/></svg>