<svg fill="#666" height="50" viewBox="0 0 50 50" width="50" xmlns="http://www.w3.org/2000/svg"><path d="m25 1.96875c-.5 0-1.003906.128906-1.449219.390625-.007812 0-.011718.003906-.019531.007813 0 0-5.261719 3.203125-10.53125 6.480468-2.632812 1.640625-5.265625 3.296875-7.257812 4.589844-.992188.648438-1.824219 1.203125-2.421875 1.625-.300782.214844-.542969.390625-.734375.546875-.09375.078125-.175782.148438-.265625.242188-.046875.046875-.09375.097656-.15625.1875-.058594.089843-.175782.203125-.195313.5625-.035156.625.148438.65625.242188.804687.089843.148438.195312.28125.316406.4375.246094.304688.566406.667969.949219 1.082031.136718.144532.339843.347657.492187.507813 0 3.074219.007813 7.480469.011719 8.847656-.605469.359375-.980469 1.011719-.980469 1.71875 0 .230469.042969.460938.121094.679688-.675781.546875-1.121094 1.363281-1.121094 2.289062 0 1.179688.613281 2.183594 1.144531 3.066406.53125.886719 1.0625 1.574219 1.0625 1.574219.1875.246094.480469.390625.789063.390625s.601562-.140625.792969-.382812c0 0 .53125-.679688 1.066406-1.558594.535156-.882813 1.144531-1.898438 1.144531-3.089844 0-.925781-.445312-1.742187-1.121094-2.289062.078125-.21875.121094-.449219.121094-.679688 0-.695312-.363281-1.339844-.953125-1.703125-.003906-1.023437-.007812-3.8125-.007812-6.730469.078125.078125.136718.148438.21875.226563 1.507812 1.511719 2.355468 2.320312 3.015625 2.960937-.453125.328125-.863282.726563-1.234375 1.175782.003906.535156.007812 1.050781.007812 1.507812.300781.355469.539063.765625.703125 1.207031.609375-1.210937 1.390625-2.160156 2.378906-2.582031.175782-.015625.347657-.074219.492188-.175781.671875-.234375 5.550781-1.839844 13.304687-1.851563-1.742187 1.9375-5.28125 4.25-10.550781 4.300782-.261719-.070313-.8125-.1875-1.554687.070312-.476563.167969-.988282.535156-1.320313 1.105469-.332031.566406-.496094 1.285156-.496094 2.1875 0 1.878906 1.183594 3.464844 2.839844 3.984375 1.011719 2.859375 2.261719 5.730469 3.9375 8.003906-3.6875-.585937-7.738281-.6875-10.78125-.6875v-3.8125c-.550781.511719-1.230469.8125-2 .8125v4c0 .285156.085938.558594.292969.75.207031.195313.425781.261719.707031.25.085938-.007812 8.773438-.476562 14.296875 1.308594 1.363281 1.039062 2.929688 1.691406 4.710938 1.691406 1.785156 0 3.359375-.65625 4.726562-1.703125 5.421875-1.738281 14.203125-1.265625 14.203125-1.265625.285156.015625.5625-.082031.769531-.277344.207032-.195312.328125-.46875.324219-.753906v-7c0-1.957031-.28125-4.695312-1.09375-7.214844-.644531-1.984375-1.632812-3.898437-3.214844-5.03125.660157-.636718 1.511719-1.449218 3.023438-2.960937 1.003906-1.007813 2.011719-2.039063 2.777344-2.867188.382812-.414062.703125-.777343.949218-1.082031.121094-.15625.226563-.289062.320313-.4375.089844-.148437.273437-.179687.238281-.804687-.019531-.363282-.136719-.476563-.199219-.566407-.058593-.085937-.105468-.136718-.152343-.183593-.089844-.09375-.171875-.164063-.269532-.242188-.1875-.15625-.429687-.332031-.730468-.546875-.597657-.421875-1.429688-.976562-2.425782-1.625-1.988281-1.292969-4.621093-2.949219-7.253906-4.589844-5.269531-3.277343-10.53125-6.480468-10.53125-6.480468-.007812-.003907-.011719-.007813-.019531-.007813-.445313-.261719-.949219-.390625-1.449219-.390625zm0 2.0625c.140625 0 .28125.039063.410156.113281.019532.011719 5.25 3.191407 10.496094 6.457032 2.628906 1.636718 5.257813 3.292968 7.222656 4.570312.984375.640625 1.800782 1.1875 2.359375 1.578125.054688.039063.070313.054688.117188.089844-.175781.207031-.34375.40625-.601563.683594-.730468.792968-1.722656 1.808593-2.722656 2.808593-1.121094 1.125-1.480469 1.460938-2.25 2.210938v-3.542969c0-.371094-.199219-.714844-.519531-.898437 0 0-5.566406-3.132813-14.511719-3.132813-8.945312 0-14.511719 3.132813-14.511719 3.132813-.320312.183593-.519531.527343-.519531.898437v3.542969c-.769531-.75-1.128906-1.085938-2.25-2.210938-.679687-.675781-1.257812-1.285156-1.851562-1.90625-.070313-.113281-.167969-.210937-.277344-.285156-.183594-.195312-.4375-.441406-.597656-.613281-.253907-.28125-.421875-.484375-.601563-.6875.050781-.039063.066406-.050781.121094-.089844.558594-.394531 1.375-.941406 2.359375-1.578125 1.964844-1.28125 4.59375-2.933594 7.222656-4.570312 5.246094-3.265625 10.476563-6.445313 10.496094-6.457032.128906-.074218.269531-.113281.410156-.113281zm0 13c7.847656 0 12.292969 2.296875 12.96875 2.65625v3.976563c-1.585937-.496094-5.808594-1.695313-12.96875-1.695313s-11.382812 1.199219-12.96875 1.695313v-3.976563c.675781-.359375 5.121094-2.65625 12.96875-2.65625zm2.410156 7.070313c1.261719.058593 2.4375.144531 3.511719.269531.476563 1.460937 1.4375 2.679687 2.296875 3.601562.984375 1.054688 1.894531 1.730469 1.894531 1.730469.226563.167969.507813.234375.78125.183594 0 0 .261719-.035156.507813.09375.242187.125.601562.339844.601562 1.71875 0 1.21875-.804687 2.101562-1.707031 2.207031-.382812.042969-.707031.304688-.832031.667969-1.019531 2.957031-2.320313 5.90625-3.914063 8.035156-.519531.695313-1.0625 1.289063-1.632812 1.785156-.167969.078125-.308594.195313-.417969.34375-1.054687.808594-2.203125 1.261719-3.492187 1.261719-1.320313 0-2.496094-.472656-3.574219-1.316406-.074219-.09375-.160156-.164063-.265625-.226563-.59375-.507812-1.164063-1.121093-1.703125-1.847656-1.59375-2.128906-2.894531-5.078125-3.914063-8.035156-.125-.367188-.449218-.625-.832031-.667969-.90625-.105469-1.714844-.988281-1.714844-2.207031 0-.65625.121094-1.011719.21875-1.179688.101563-.164062.160157-.191406.257813-.222656.191406-.070312.503906-.007812.503906-.007812.105469.035156.210938.050781.316406.050781 6.9375-.039063 11.378907-3.421875 13.109375-6.238281zm5.867188.597656c3.015625.496094 4.71875 1.054687 5.101562 1.1875.140625.097656.300782.15625.46875.175781 1.355469.566406 2.433594 2.226563 3.121094 4.359375.71875 2.226563 1 4.832031 1 6.578125v5.957031c-1.257812-.066406-5.980469-.257812-10.636719.597657 1.625-2.253907 2.847657-5.066407 3.839844-7.871094 1.652344-.519531 2.832031-2.105469 2.832031-3.984375 0-1.851563-.785156-3.03125-1.6875-3.496094-.546875-.285156-.742187-.179687-1.082031-.171875-.066406-.050781-.738281-.546875-1.550781-1.421875-.515625-.550781-1.019531-1.21875-1.40625-1.910156zm-28.277344 7.300781c.574219 0 1 .433594 1 .96875 0 .285156-.390625 1.28125-.855469 2.046875-.070312.117188-.070312.101563-.140625.207031-.070312-.113281-.074218-.097656-.148437-.21875-.46875-.773437-.855469-1.789062-.855469-2.035156 0-.535156.425781-.96875 1-.96875z"/></svg>