<svg fill="#666" height="50" viewBox="0 0 50 50" width="50" xmlns="http://www.w3.org/2000/svg"><path d="m13 3c-2.75 0-5 2.25-5 5 0 2.40625 1.726563 4.4375 4 4.90625v24.1875c-2.273437.46875-4 2.5-4 4.90625 0 2.75 2.25 5 5 5s5-2.25 5-5c0-2.394531-1.710937-4.425781-3.96875-4.90625.1875-3.398437 1.414063-5.136719 3.25-6.3125 2-1.277344 4.875-1.816406 7.875-2.3125s6.125-.964844 8.625-2.5625c2.324219-1.484375 3.933594-4.046875 4.15625-8 2.300781-.445312 4.0625-2.480469 4.0625-4.90625 0-2.75-2.25-5-5-5s-5 2.25-5 5c0 2.394531 1.710938 4.425781 3.96875 4.90625-.1875 3.394531-1.414062 5.140625-3.25 6.3125-2 1.273438-4.875 1.785156-7.875 2.28125s-6.125.996094-8.625 2.59375c-.84375.539063-1.589844 1.230469-2.21875 2.0625v-18.25c2.273438-.46875 4-2.5 4-4.90625 0-2.75-2.25-5-5-5zm0 2c1.667969 0 3 1.332031 3 3s-1.332031 3-3 3-3-1.332031-3-3 1.332031-3 3-3zm24 5c1.667969 0 3 1.332031 3 3s-1.332031 3-3 3-3-1.332031-3-3 1.332031-3 3-3zm-24 29c1.667969 0 3 1.332031 3 3s-1.332031 3-3 3-3-1.332031-3-3 1.332031-3 3-3z"/></svg>