<svg fill="#666" height="50" viewBox="0 0 50 50" width="50" xmlns="http://www.w3.org/2000/svg"><path d="m25.0625 0c-2.5625 0-4.472656.0898438-5.90625.40625-.71875.160156-1.332031.386719-1.84375.75s-.917969.925781-1 1.5625c-.050781.378906-.058594.367188-.15625.65625-.097656.289063-.21875.753906-.375 1.6875-.476562 2.863281-1.976562 2.558594-3.28125 4.09375-1.503906 1.09375-2.5 2.851563-2.5 4.84375v22c0 1.992188.996094 3.75 2.5 4.84375l.03125.03125c.042969.03125.082031.066406.125.09375 1.25 1.34375 2.605469 1.234375 3.125 4 .15625.839844.289063 1.261719.375 1.53125.085938.269531.097656.339844.15625.78125.078125.617188.472656 1.167969.96875 1.53125s1.078125.585938 1.78125.75c1.40625.328125 3.308594.4375 5.875.4375 2.5625 0 4.472656-.089844 5.90625-.40625.71875-.160156 1.332031-.386719 1.84375-.75s.917969-.925781 1-1.5625c.050781-.378906.058594-.367187.15625-.65625.097656-.289062.21875-.753906.375-1.6875.457031-2.761719 1.851563-2.605469 3.125-3.96875.042969-.027344.082031-.0625.125-.09375l.03125-.03125c1.503906-1.09375 2.5-2.851562 2.5-4.84375v-2c.550781 0 1-.449219 1-1v-6c0-.550781-.449219-1-1-1v-3c1.113281-.082031 2-1.023437 2-2.15625v-3.6875c0-1.132812-.886719-2.074219-2-2.15625v-1c0-1.992187-.996094-3.75-2.5-4.84375-.011719-.011719-.019531-.019531-.03125-.03125-.042969-.03125-.082031-.066406-.125-.09375-1.25-1.34375-2.605469-1.234375-3.125-4-.15625-.839844-.289062-1.261719-.375-1.53125-.085937-.269531-.097656-.339844-.15625-.78125-.078125-.617187-.472656-1.167969-.96875-1.53125s-1.078125-.585937-1.78125-.75c-1.40625-.328125-3.308594-.4375-5.875-.4375zm0 2c2.503906 0 4.34375.121094 5.4375.375.546875.128906.871094.289063 1.03125.40625.160156.117188.144531.140625.15625.21875.070313.535156.167969.835938.25 1.09375.082031.257813.167969.535156.3125 1.3125.207031 1.105469.613281 1.921875 1.0625 2.59375h-16.59375c.449219-.675781.847656-1.511719 1.03125-2.625.144531-.867187.238281-1.15625.3125-1.375s.183594-.496094.25-1c.011719-.085937-.011719-.097656.15625-.21875s.527344-.28125 1.09375-.40625c1.128906-.25 2.992188-.375 5.5-.375zm-9.0625 8h18c2.21875 0 4 1.78125 4 4v2.15625c-.332031.617188-.5625 1.507813-.5625 2.84375 0 1.332031.234375 2.222656.5625 2.84375v14.15625c0 2.21875-1.78125 4-4 4h-18c-2.21875 0-4-1.78125-4-4v-22c0-2.21875 1.78125-4 4-4zm23.84375 7c.101563 0 .15625.054688.15625.15625v3.6875c0 .101563-.054687.15625-.15625.15625h-.03125c-.011719-.015625-.015625-.007812-.03125-.03125-.132812-.214844-.34375-.761719-.34375-1.96875s.242188-1.757812.375-1.96875c.019531-.03125.015625-.011719.03125-.03125zm-23.15625 25h16.59375c-.449219.675781-.847656 1.511719-1.03125 2.625-.144531.867188-.238281 1.15625-.3125 1.375s-.183594.496094-.25 1c-.011719.085938.011719.097656-.15625.21875s-.527344.28125-1.09375.40625c-1.128906.25-2.992187.375-5.5.375-2.503906 0-4.34375-.121094-5.4375-.375-.546875-.128906-.871094-.289062-1.03125-.40625-.160156-.117187-.144531-.140625-.15625-.21875-.070312-.535156-.167969-.835937-.25-1.09375-.082031-.257812-.167969-.535156-.3125-1.3125-.207031-1.105469-.613281-1.921875-1.0625-2.59375z"/></svg>