<svg fill="#666" height="50" viewBox="0 0 50 50" width="50" xmlns="http://www.w3.org/2000/svg"><path d="m24.962891 1.0546875a1.0001 1.0001 0 0 0 -.578125.2089844l-23.0000004 17.9472661a1.0005659 1.0005659 0 0 0 1.2304688 1.578124l1.3847656-1.080078v26.291016a1.0001 1.0001 0 0 0 1 1h13.832031a1.0001 1.0001 0 0 0 .326172 0h11.673828a1.0001 1.0001 0 0 0 .326172 0h13.841797a1.0001 1.0001 0 0 0 1-1v-26.291016l1.384766 1.080078a1.0005657 1.0005657 0 1 0 1.230468-1.578124l-7.615234-5.941407v-7.269531h-6v2.5859375l-9.384766-7.3222656a1.0001 1.0001 0 0 0 -.652343-.2089844zm.037109 2.2675781 19 14.8261724v26.851562h-12v-19h-14v19h-12v-26.851562zm12 4.6777344h2v3.708984l-2-1.5625zm-17 20h10v17h-10z"/></svg>