<svg fill="#666" height="50" viewBox="0 0 50 50" width="50" xmlns="http://www.w3.org/2000/svg"><path d="m15 3c-6.6154664 0-12 5.3845336-12 12v20c0 6.615466 5.3845336 12 12 12h20c6.615466 0 12-5.384534 12-12v-20c0-6.6154664-5.384534-12-12-12zm0 2h20c5.534534 0 10 4.4654664 10 10v20c0 5.534534-4.465466 10-10 10h-20c-5.5345336 0-10-4.465466-10-10v-20c0-5.5345336 4.4654664-10 10-10zm-3.384766 13.066406c-.703 0-1.220703.501157-1.220703 1.160156 0 .650001.517703 1.150391 1.220703 1.150391s1.222657-.500391 1.222657-1.150391c0-.659-.519657-1.160156-1.222657-1.160156zm10.421875.570313c-3.639 0-5.923828 2.548531-5.923828 6.644531 0 4.087 2.240828 6.652344 5.923828 6.652344 3.674 0 5.90625-2.574344 5.90625-6.652344 0-4.087-2.25025-6.643531-5.90625-6.644531zm12.929688 0c-2.768 0-4.615235 1.502718-4.615235 3.761719 0 1.862999 1.045844 2.971812 3.339844 3.507812l1.634766.396484c1.679.395 2.417969.974407 2.417969 1.941407 0 1.125-1.160188 1.941406-2.742188 1.941406-1.695095 0-2.873026-.763908-3.041015-1.966797h-1.953126c.141001 2.268 2.029797 3.716797 4.841797 3.716797 3.006 0 4.886719-1.519313 4.886719-3.945313 0-1.907-1.071828-2.962359-3.673828-3.568359l-1.396484-.34375c-1.652-.387-2.320313-.905547-2.320313-1.810547 0-1.143 1.03775-1.888672 2.59375-1.888672 1.477 0 2.494688.727485 2.679688 1.896485h1.916015c-.114-2.136-1.993359-3.638672-4.568359-3.638672zm-12.929688 1.835937c2.409 0 3.894532 1.864594 3.894532 4.808594 0 2.926-1.486532 4.816406-3.894532 4.816406-2.434 0-3.910156-1.889406-3.910156-4.816406 0-2.944 1.519156-4.807594 3.910156-4.808594zm-11.361328 1.583985v9.570312h1.88086v-9.570312z"/></svg>