<svg fill="#666" height="50" viewBox="0 0 50 50" width="50" xmlns="http://www.w3.org/2000/svg"><path d="m7 2v46h36v-32.589844l-13.816406-13.410156zm2 2h18v13h13c.464844.007813.871094-.308594.984375-.761719l.015625.015625v29.746094h-32zm20 .609375 10.707031 10.390625h-10.707031zm5.832031 18.859375c-2.144531 0-4.242187 1.527344-4.289062 5.203125-.03125 1.738281.433594 3.238281 1.304687 4.078125.675782.679688 1.542969 1.007813 2.699219 1.007813.734375 0 1.664063-.179688 2.097656-.363282v-5.394531h-2.710937v1.601563h.898437v2.445312c-.074218.03125-.210937.046875-.390625.046875-.914062 0-1.859375-.871094-1.859375-3.300781 0-2.640625 1.066407-3.558594 2.402344-3.558594.492188 0 .867188.078125 1.152344.230469l.347656-1.699219c-.316406-.148437-.886719-.296875-1.652344-.296875zm-18.71875.046875c-.78125 0-1.5.070313-1.996093.191406v9.933594c.390625.042969 1.007812.101563 1.621093.101563 1.410157 0 2.414063-.316407 3.089844-.976563.886719-.777344 1.410156-2.234375 1.410156-4.273437 0-1.964844-.449218-3.300782-1.320312-4.082032-.644531-.597656-1.53125-.894531-2.804688-.894531zm5.730469.042969-.734375 10.109375h1.691406l.167969-3.511719c.058594-1.007812.117188-2.28125.148438-3.375h.042968c.152344 1.09375.421875 2.355469.617188 3.164063l.839844 3.554687h1.398437l.867188-3.613281c.195312-.78125.464843-2.023438.644531-3.105469h.046875c-.03125 1.082031.042969 2.386719.085937 3.34375l.183594 3.542969h1.753906l-.613281-10.109375h-2.074219l-.792968 3.660156c-.269532 1.273438-.496094 2.414063-.644532 3.539063h-.03125c-.179687-1.140625-.433593-2.265625-.71875-3.539063l-.8125-3.660156zm-5.371094 1.53125c1.183594 0 1.726563 1.257812 1.726563 3.328125 0 2.789062-.828125 3.71875-1.773438 3.71875-.101562 0-.253906 0-.34375-.027344v-6.976562c.121094-.046875.253907-.042969.390625-.042969z"/></svg>