<svg fill="#666" height="50" viewBox="0 0 50 50" width="50" xmlns="http://www.w3.org/2000/svg"><path d="m13 0c-5.023437 0-8.121094.496094-10 1.03125-.941406.265625-1.578125.554688-2 .78125-.136719.074219-.210937.152344-.3125.21875-.023437.015625-.070312.015625-.09375.03125-.105469.054688-.203125.128906-.28125.21875-.011719 0-.019531 0-.03125 0l-.03125.0625c-.035156.027344-.066406.058594-.09375.09375l-.15625.125v.25c-.00390625.042969-.00390625.082031 0 .125v46.0625c-.00390625.359375.183594.695313.496094.878906.3125.179688.695312.179688 1.007812 0 .3125-.183593.5-.519531.496094-.878906v-18.34375c.417969-.167969 1.046875-.402344 2.1875-.6875 1.90625-.480469 4.828125-.96875 8.8125-.96875 3.902344 0 6.796875.960938 10.3125 1.96875 3.515625 1.007813 7.609375 2.03125 13.6875 2.03125 7.023438 0 12.5-3.125 12.5-3.125l.5-.28125v-27.28125l-1.46875.8125c-.820312.445313-5.519531 2.875-11.53125 2.875-4.777344 0-8.109375-1.40625-11.625-2.90625s-7.214844-3.09375-12.375-3.09375zm0 2c4.753906 0 8.078125 1.40625 11.59375 2.90625s7.230469 3.09375 12.40625 3.09375c5.382813 0 9.113281-1.59375 11-2.5v22.84375c-.683594.367188-5.050781 2.65625-11 2.65625-5.851562 0-9.6875-.976562-13.15625-1.96875-3.46875-.992187-6.613281-2.03125-10.84375-2.03125-4.148437 0-7.21875.511719-9.28125 1.03125-1.113281.28125-1.1875.382813-1.71875.59375v-25.09375c.285156-.148437.773438-.339844 1.5625-.5625 1.640625-.464844 4.546875-.96875 9.4375-.96875z"/></svg>