<svg fill="#666" height="50" viewBox="0 0 50 50" width="50" xmlns="http://www.w3.org/2000/svg"><path d="m6 2c-2.199219 0-4 1.800781-4 4l.015625 24.683594h.015625c-.007812.105469-.03125.207031-.03125.316406 0 2.199219 1.800781 4 4 4h14.011719l.003906 8.683594h.046875c-.007812.109375-.0625.203125-.0625.316406 0 2.199219 1.800781 4 4 4h24v-2h-24c-1.117187 0-2-.882812-2-2 0-1.117187.882813-2 2-2h24v-27h-18v-13zm0 2h22v11h-4c-2.199219 0-4 1.800781-4 4l.003906 8h-14.003906c-.722656 0-1.394531.210938-1.984375.550781l-.015625-21.550781c0-1.117187.882813-2 2-2zm3 2c-1.09375 0-2 .90625-2 2v2c0 1.09375.90625 2 2 2h14c1.09375 0 2-.90625 2-2v-2c0-1.09375-.90625-2-2-2zm0 2h14v2h-14zm15 9h22v23h-22c-.734375 0-1.390625.257813-1.984375.609375l-.015625-21.609375c0-1.117187.882813-2 2-2zm3 2c-1.09375 0-2 .90625-2 2v2c0 1.09375.90625 2 2 2h14c1.09375 0 2-.90625 2-2v-2c0-1.09375-.90625-2-2-2zm0 2h14v2h-14zm-21 8h14.007813l.003906 4h-14.011719c-1.117187 0-2-.882812-2-2 0-1.117187.882813-2 2-2z"/></svg>