<svg fill="#666" height="50" viewBox="0 0 50 50" width="50" xmlns="http://www.w3.org/2000/svg"><path d="m4 4v42h42v-42zm2 2h4v3h-4zm6 0h26v38h-26zm28 0h4v3h-4zm-34 5h4v3h-4zm34 0h4v3h-4zm-34 5h4v3h-4zm34 0h4v3h-4zm-20.1875 1.09375c-.476562.089844-.820312.511719-.8125 1v13.8125c-.003906.359375.1875.691406.496094.871094.308594.183594.691406.183594 1.003906.003906l12-6.90625c.316406-.175781.515625-.511719.515625-.875s-.199219-.699219-.515625-.875l-12-6.90625c-.179687-.101562-.386719-.144531-.59375-.125-.03125 0-.0625 0-.09375 0zm1.1875 2.75 8.96875 5.15625-8.96875 5.15625zm-15 1.15625h4v3h-4zm34 0h4v3h-4zm-34 5h4v3h-4zm34 0h4v3h-4zm-34 5h4v3h-4zm34 0h4v3h-4zm-34 5h4v3h-4zm34 0h4v3h-4zm-34 5h4v3h-4zm34 0h4v3h-4z"/></svg>