<svg fill="#666" height="50" viewBox="0 0 50 50" width="50" xmlns="http://www.w3.org/2000/svg"><path d="m4 0v48h24c.359375.003906.695313-.183594.878906-.496094.179688-.3125.179688-.695312 0-1.007812-.183593-.3125-.519531-.5-.878906-.496094h-22v-44h18v14h14v19c-.003906.359375.183594.695313.496094.878906.3125.179688.695312.179688 1.007812 0 .3125-.183593.5-.519531.496094-.878906v-20.40625l-.28125-.3125-14-14-.3125-.28125zm22 3.4375 10.5625 10.5625h-10.5625zm21.6875 24.09375-.53125.8125-11.65625 18.125-7.8125-7.09375-.75-.6875-1.34375 1.46875.71875.6875 8.71875 7.90625.875.78125.625-1 12.3125-19.09375.53125-.84375z"/></svg>