<svg fill="#666" height="50" viewBox="0 0 50 50" width="50" xmlns="http://www.w3.org/2000/svg"><path d="m7 2v46h36v-32.589844l-13.816406-13.410156zm2 2h19v13h13v29h-32zm21 1.578125 9.707031 9.421875h-9.707031zm-9.765625 18.132813c-1.96875 0-4.082031 1.484375-4.082031 5.292968 0 2.867188 1.230469 4.996094 3.8125 4.996094.6875 0 1.242187-.105469 1.527344-.238281l-.195313-1.652344c-.238281.074219-.617187.152344-.945312.152344-1.199219 0-2.117188-.945313-2.117188-3.359375 0-2.507813 1.007813-3.464844 2.117188-3.464844.433593 0 .691406.089844.914062.191406l.332031-1.648437c-.195312-.136719-.675781-.269531-1.363281-.269531zm5.140625 0c-2.113281 0-3.191406 1.347656-3.191406 2.96875 0 .914062.523437 1.980468 1.902344 2.820312.855468.554688 1.304687.914063 1.304687 1.652344 0 .65625-.449219 1.136719-1.378906 1.136719-.570313 0-1.261719-.164063-1.664063-.386719l-.285156 1.691406c.332031.195313 1.125.40625 1.933594.40625 1.980469 0 3.347656-1.214844 3.347656-3.0625 0-1.0625-.496094-2.082031-1.828125-2.890625-1.097656-.660156-1.398437-.976562-1.398437-1.578125 0-.539062.402343-1.046875 1.242187-1.046875.570313 0 1.007813.164063 1.292969.34375l.316406-1.695312c-.300781-.179688-.933594-.359375-1.59375-.359375zm2.253906.089843 2.261719 10.105469h2.203125l2.3125-10.105469h-2.160156l-.6875 4.320313c-.183594 1.136719-.347656 2.355469-.480469 3.554687h-.03125c-.132812-1.183593-.34375-2.433593-.523437-3.511718l-.722657-4.363282z"/></svg>