<svg fill="#666" height="50" viewBox="0 0 50 50" width="50" xmlns="http://www.w3.org/2000/svg"><path d="m22.205078 2a1.0001 1.0001 0 0 0 -.986328.8378906l-.972656 5.9550782c-1.169585.3402283-2.284851.799304-3.335938 1.3710932l-4.914062-3.5097651a1.0001 1.0001 0 0 0 -1.28711.1054687l-3.8906246 3.8867184a1.0001 1.0001 0 0 0 -.1113282 1.28125l3.4570308 4.945313c-.580608 1.057224-1.0498522 2.178777-1.398437 3.359375l-5.9296875.986328a1.0001 1.0001 0 0 0 -.8339844.986328v5.5a1.0001 1.0001 0 0 0 .8242188.986328l5.9335937 1.050782c.3466951 1.178551.812957 2.300877 1.3945314 3.359374l-3.5000001 4.896485a1.0001 1.0001 0 0 0 .1054687 1.287109l3.8886724 3.890625a1.0001 1.0001 0 0 0 1.279296.113281l4.955078-3.46875c1.054187.575168 2.172182 1.037616 3.345704 1.38086l.990234 5.96289a1.0001 1.0001 0 0 0 .986328.835938h5.5a1.0001 1.0001 0 0 0 .986328-.826172l1.060547-5.986328c1.16868-.348503 2.281419-.817803 3.330078-1.396484l4.988281 3.5a1.0001 1.0001 0 0 0 1.28125-.111328l3.888672-3.892579a1.0001 1.0001 0 0 0 .103516-1.291015l-3.556641-4.9375c.568674-1.043636 1.026806-2.149719 1.367188-3.310547l6.017578-1.054688a1.0001 1.0001 0 0 0 .826172-.986328v-5.5a1.0001 1.0001 0 0 0 -.837891-.986328l-6.007812-.982422c-.342664-1.159454-.802063-2.263558-1.371094-3.30664l3.507812-4.998047a1.0001 1.0001 0 0 0 -.111328-1.28125l-3.890625-3.8886721a1.0001 1.0001 0 0 0 -1.291015-.1035157l-4.923828 3.5410158c-1.04908-.5763619-2.162553-1.0431804-3.333985-1.388672l-1.046875-5.984375a1.0001 1.0001 0 0 0 -.986328-.828125zm.851563 2h3.808593l.996094 5.6855469a1.0001 1.0001 0 0 0 .742188.7988281c1.46251.364457 2.836091.942174 4.089843 1.701172a1.0001 1.0001 0 0 0 1.101563-.042969l4.679687-3.3632811 2.69336 2.6933591-3.332031 4.748047a1.0001 1.0001 0 0 0 -.039063 1.089844c.751491 1.250924 1.321458 2.615832 1.685547 4.070312a1.0001 1.0001 0 0 0 .808594.744141l5.707031.933594v3.808594l-5.71875 1.003906a1.0001 1.0001 0 0 0 -.796875.746094c-.359877 1.452629-.930188 2.817499-1.681641 4.068359a1.0001 1.0001 0 0 0 .044922 1.099609l3.378906 4.689453-2.693359 2.695313-4.740234-3.326172a1.0001 1.0001 0 0 0 -1.09375-.035156c-1.247516.758991-2.622511 1.339434-4.080078 1.708984a1.0001 1.0001 0 0 0 -.740235.794922l-1.009765 5.6875h-3.814454l-.941406-5.662109a1.0001 1.0001 0 0 0 -.746094-.806641c-1.463384-.360693-2.84314-.93754-4.105468-1.695312a1.0001 1.0001 0 0 0 -1.087891.039062l-4.703125 3.294922-2.6953125-2.699219 3.3242185-4.646484a1.0001 1.0001 0 0 0 .041016-1.09961c-.76602-1.265754-1.345353-2.645396-1.710938-4.115234a1.0001 1.0001 0 0 0 -.7949215-.742187l-5.6308594-1v-3.814454l5.6269531-.935546a1.0001 1.0001 0 0 0 .8066408-.744141c.368726-1.474904.947778-2.854318 1.710937-4.117188a1.0001 1.0001 0 0 0 -.035156-1.091797l-3.2851561-4.695312 2.6972661-2.6953125 4.662109 3.3320315a1.0001 1.0001 0 0 0 1.095703.042969c1.255658-.754145 2.638617-1.326357 4.103516-1.685547a1.0001 1.0001 0 0 0 .748046-.8105472zm1.943359 13c-4.406433 0-8 3.593567-8 8s3.593567 8 8 8 8-3.593567 8-8-3.593567-8-8-8zm0 2c3.325553 0 6 2.674447 6 6s-2.674447 6-6 6-6-2.674447-6-6 2.674447-6 6-6z"/></svg>