<svg fill="#666" height="50" viewBox="0 0 50 50" width="50" xmlns="http://www.w3.org/2000/svg"><path d="m8.539063 9-6.851563 7.996094 23.3125 27.550781.765625-.902344 22.546875-26.648437-6.53125-7.621094c-.011719-.015625-.023437-.027344-.035156-.039062l-.289063-.335938zm.921875 2h3.746093c-2.542968 1.539063-5.457031 4.152344-6.820312 8.453125l-2.074219-2.449219zm15.5625 0c2.09375-.050781 3.671875.261719 4.882812.742188.15625.089843.242188.152343.421875.261718.574219.277344.960938.609375 1.359375.9375.480469.382813.917969.785157 1.289063 1.199219.242187.335938.476562.667969.609375.949219.113281.226562.261718.457031.292968.648437.046875.15625.136719.421875.136719.421875.078125.484375.496094.839844.984375.839844h6c.550781 0 1-.449219 1-1v-3.296875l3.6875 4.300781-4.160156 4.914063c-.300781-.617188-.730469-1.152344-1.253906-1.582031-1.050782-.859375-2.410157-1.355469-3.933594-1.6875-3.054688-.664063-6.839844-.648438-10.339844-.648438-3.246094 0-5.980469-.015625-7.746094-.359375-.878906-.167969-1.5-.425781-1.820312-.6875-.320313-.257812-.433594-.453125-.433594-.953125 0-.15625.167969-1.4375 1.332031-2.578125 1.167969-1.140625 3.382813-2.316406 7.691407-2.421875zm7.617187 0h3.636719c-.265625.460938-.324219.542969-.652344 1.144531-.230469.421875-.429687.832032-.640625 1.25-.050781-.070312-.085937-.152343-.140625-.222656-.109375-.136719-.265625-.226562-.382812-.359375-.148438-.199219-.171875-.363281-.351563-.5625-.394531-.4375-.890625-.859375-1.46875-1.25zm5.9375 0h1.421875v4h-3.59375c.265625-.5625.613281-1.242187.96875-1.894531.601563-1.101563 1-1.761719 1.203125-2.105469zm-21.609375.363281c-.300781.226563-.789062.390625-1.03125.628907-1.589844 1.554687-1.9375 3.164062-1.9375 4.007812 0 1 .453125 1.929688 1.175781 2.515625.726563.582031 1.644532.886719 2.699219 1.09375 2.113281.40625 4.878906.390625 8.125.390625 3.5 0 7.214844.015625 9.910156.601563 1.351563.292968 2.429688.734375 3.097657 1.28125.582031.476562.855468 1.03125.929687 1.804687-2.683594 3.148438-2.214844 2.492188-3.460937 3.851563-.144532-.457032-.328125-.90625-.679688-1.269532-.835937-.855468-2.128906-1.269531-3.796875-1.269531-6.5 0-11.742187 0-15.5625-.25-1.90625-.121094-3.460937-.308594-4.605469-.566406-1.144531-.261719-1.859375-.625-2.125-.890625-.886718-.886719-.933593-1.066406-1.609375-2.433594 1.554688-6.167969 6.550782-8.660156 8.871094-9.496094zm-4.800781 14.917969c1.171875.214844 2.539062.363281 4.144531.46875 3.929688.25 9.1875.25 15.6875.25 1.332031 0 2.039063.335938 2.359375.667969.324219.328125.425781.734375.285156 1.375-.097656.460937-.523437 1.015625-.921875 1.554687-.105468.105469-.769531.871094-.832031.933594-.640625.585938-1.34375 1.175781-2.261719 1.542969-1.117187.445312-2.453125.605469-3.652343.726562-.539063.050782-.9375.144532-1.539063.15625-.230469.003907-.40625.015625-.558594.015625-.09375-.539062-.257812-1.214843-.609375-1.921875-.746093-1.488281-2.4375-3.050781-5.269531-3.050781-1.609375 0-2.742187.269531-3.496094.574219-.148437.058594-.273437.121094-.394531.1875zm6.832031 4.71875c2.167969 0 2.976563.9375 3.480469 1.949219.203125.402344.132812.472656.207031.820312-2.292969-.246093-3.96875-.605468-4.171875-.671875l-1.753906-1.75c.519531-.164062 1.109375-.347656 2.238281-.347656zm11.140625 4.375-5.140625 6.078125-5.121094-6.054687c.984375.171875 2.191407.351562 3.589844.445312.144531.09375.3125.148438.488281.15625 0 0 .648438-.019531.878907-.015625.066406 0 .097656.015625.164062.015625.097656 0 .144531-.023437.238281-.023437.605469 0 1.0625-.097657 2.117188-.210938 1.066406-.109375 1.984375-.253906 2.785156-.390625z"/></svg>