<svg fill="#666" height="50" viewBox="0 0 50 50" width="50" xmlns="http://www.w3.org/2000/svg"><path d="m7 2v46h36v-32.589844l-13.816406-13.410156zm2 2h19v13h13v29h-32zm21 1.578125 9.707031 9.421875h-9.707031zm-9.054687 16.421875c-.53125.03125-.945313.46875-.945313 1v13c0 .347656.183594.671875.480469.855469.300781.179687.671875.191406.980469.03125l11.554687-6c.324219-.167969.527344-.492188.539063-.855469.011718-.359375-.171875-.699219-.480469-.886719l-11.558594-7c-.171875-.105468-.371094-.152343-.570312-.144531zm1.054687 2.777344 8.515625 5.15625-8.515625 4.421875z"/></svg>