<svg fill="#666" height="50" viewBox="0 0 50 50" width="50" xmlns="http://www.w3.org/2000/svg"><path d="m9.9375.53125-.71875.6875-8 8-.6875.71875.6875.71875 15.625 15.625-12.53125 12.53125c-.128906.117188-.226562.269531-.28125.4375l-2 7.5c-.089844.34375.011719.707031.261719.957031s.613281.351563.957031.261719l7.5-2c.167969-.054687.320313-.152344.4375-.28125l34.5625-34.5625c-.003906.003906.8125-.8125.8125-.8125 1.902344-1.902344 1.898438-4.976562 0-6.875-1.902344-1.902344-4.972656-1.898437-6.875 0l-13.40625 13.40625-15.625-15.625zm0 2.84375 1.625 1.625-1.28125 1.28125 1.4375 1.4375 1.28125-1.28125 1.5625 1.5625-2.28125 2.28125 1.4375 1.4375 2.28125-2.28125 1.5625 1.5625-1.28125 1.28125 1.4375 1.4375 1.28125-1.28125 1.5625 1.5625-2.28125 2.28125 1.4375 1.4375 2.28125-2.28125 1.5625 1.5625-1.28125 1.28125 1.28125 1.28125-5.28125 5.28125-14.90625-14.90625zm30.34375 2.28125 4.0625 4.0625-34.375 34.375-4.0625-4.0625zm-6.28125 18.9375-.71875.6875-2 2 1.4375 1.4375 1.28125-1.28125 1.5625 1.5625-2.28125 2.28125 1.4375 1.4375 2.28125-2.28125 1.5625 1.5625-1.28125 1.28125 1.4375 1.4375 1.28125-1.28125 1.5625 1.5625-2.28125 2.28125 1.4375 1.4375 2.28125-2.28125 1.5625 1.5625-1.28125 1.28125 1.4375 1.4375 1.28125-1.28125.625.625-6.5625 6.5625-14.0625-14.03125-1.40625 1.40625 14.75 14.78125.71875.6875.71875-.6875 8-8 .6875-.71875-.6875-.71875z"/></svg>