<svg fill="#666" height="50" viewBox="0 0 50 50" width="50" xmlns="http://www.w3.org/2000/svg"><path d="m5 7c-2.75 0-5 2.25-5 5v26c0 2.75 2.25 5 5 5h40c2.75 0 5-2.25 5-5v-26c0-2.75-2.25-5-5-5zm0 2h40c1.667969 0 3 1.332031 3 3v26c0 1.667969-1.332031 3-3 3h-40c-1.667969 0-3-1.332031-3-3v-26c0-1.667969 1.332031-3 3-3zm16.1875 12.90625c-1.832031 0-3.3125 1.449219-3.3125 3.25 0 1.820313 1.441406 3.21875 3.28125 3.21875.519531 0 .980469-.085937 1.53125-.34375v-1.4375c-.484375.484375-.921875.6875-1.46875.6875-1.21875 0-2.09375-.871094-2.09375-2.125 0-1.1875.898438-2.125 2.03125-2.125.574219 0 1.027344.195313 1.53125.6875v-1.40625c-.53125-.269531-.980469-.40625-1.5-.40625zm-5.71875.03125c-1.097656 0-1.9375.765625-1.9375 1.78125 0 .851563.402344 1.292969 1.53125 1.71875.65625.246094 1.1875.371094 1.1875.96875 0 .503906-.398437.875-.9375.875-.574219 0-1.035156-.273437-1.3125-.8125l-.78125.75c.558594.816406 1.238281 1.1875 2.15625 1.1875 1.253906 0 2.125-.832031 2.125-2.03125 0-.984375-.40625-1.433594-1.78125-1.9375-.726562-.269531-.9375-.445312-.9375-.78125 0-.390625.386719-.6875.90625-.6875.363281 0 .652344.148438.96875.5l.625-.84375c-.519531-.453125-1.132812-.6875-1.8125-.6875zm10.8125 0c-1.785156 0-3.25 1.433594-3.25 3.21875s1.464844 3.25 3.25 3.25 3.21875-1.464844 3.21875-3.25-1.433594-3.21875-3.21875-3.21875zm-20.375.125v6.1875h1.78125c2.695313 0 3.3125-2.128906 3.3125-3.09375 0-1.828125-1.351562-3.09375-3.3125-3.09375zm5.65625 0v6.1875h1.21875v-6.1875zm17.71875 0 2.625 6.34375h.65625l2.6875-6.34375h-1.3125l-1.6875 4.15625-1.65625-4.15625zm6.5 0v6.1875h3.4375v-1.0625h-2.21875v-1.65625h2.125v-1.0625h-2.125v-1.375h2.21875v-1.03125zm4.21875 0v6.1875h1.21875v-2.5h.15625l1.65625 2.5h1.5l-1.9375-2.59375c.910156-.1875 1.40625-.832031 1.40625-1.78125 0-1.160156-.792969-1.8125-2.1875-1.8125zm1.21875.96875h.375c.753906 0 1.15625.304688 1.15625.90625 0 .621094-.417969.96875-1.1875.96875h-.34375zm-34.09375.0625h.40625c1.644531 0 2.21875 1.089844 2.21875 2.0625 0 .464844-.136719 2.03125-2.3125 2.03125h-.3125z"/></svg>