<svg fill="#666" height="50" viewBox="0 0 50 50" width="50" xmlns="http://www.w3.org/2000/svg"><path d="m43.03125 11c-.308594.003906-.644531.03125-.96875.0625-1.304687.121094-2.730469.445313-4.1875 1.09375 0 0-5.609375 2.519531-10.25 4.59375l-11.28125-3.46875c-.753906-.230469-1.570312-.332031-2.34375-.34375-.773437-.011719-1.472656.054688-2.125.34375l-1.5625.6875c-.261719.117188-.578125.304688-.75.6875-.171875.382813-.121094.847656.03125 1.15625.296875.601563.78125.914063 1.46875 1.28125l.03125.03125 6.625 4.03125c-3.335937 1.492188-7.851562 3.515625-8.09375 3.625-.210937.09375-.210937.058594-.375 0-.164062-.058594-.460937-.246094-.84375-.53125-1.355469-1-3.359375-2.457031-3.9375-2.90625-.890625-.679687-1.949219-.6875-2.90625-.375-.476562.15625-.960937.417969-1.28125.9375-.3203125.519531-.3632813 1.273438-.09375 1.875.667969 1.5 2.777344 6.140625 3.5625 7.90625.425781.957031 1.316406 1.617188 2.40625 1.90625 1.089844.289063 2.402344.277344 3.96875.0625 3.132813-.433594 7.347656-1.789062 12.65625-4.15625.417969-.1875.898438-.394531 1.34375-.59375l-2.3125 12.21875v.0625c-.183594.746094-.277344 1.320313-.03125 1.9375.128906.316406.445313.652344.84375.78125.398438.128906.738281.050781 1-.0625l1.5625-.6875c.648438-.289062 1.179688-.789062 1.6875-1.375.507813-.585937.984375-1.285156 1.3125-2h-.03125l7.4375-16.09375c3.710938-1.738281 7.273438-3.46875 9.875-4.9375 1.339844-.757812 2.4375-1.445312 3.21875-2.0625.390625-.308594.6875-.589844.9375-.9375s.523438-.917969.25-1.53125c-.621094-1.390625-2.175781-2.421875-4.28125-2.9375-.789062-.191406-1.632812-.296875-2.5625-.28125zm0 2c.765625 0 1.46875.097656 2.09375.25 1.441406.351563 2.320313 1.054688 2.6875 1.53125-.101562.105469-.175781.1875-.375.34375-.621094.492188-1.640625 1.144531-2.9375 1.875-2.589844 1.460938-6.242187 3.246094-10.0625 5.03125l-.34375.15625-.15625.34375-7.59375 16.4375c-.230469.503906-.578125 1.050781-.96875 1.5s-.84375.773438-1 .84375l-.625.28125v-.03125l2.65625-14.15625.375-1.875-1.75.78125c-1.082031.484375-2.105469.949219-3.0625 1.375-5.207031 2.320313-9.285156 3.613281-12.09375 4-1.402344.195313-2.492187.152344-3.1875-.03125-.695312-.183594-.972656-.441406-1.125-.78125-.789062-1.765625-2.867187-6.410156-3.53125-7.90625-.015625-.039062-.023437-.023437-.03125-.03125.035156-.027344.101563-.066406.1875-.09375.34375-.113281.976563.027344 1.0625.09375v-.03125c.652344.503906 2.609375 1.96875 3.96875 2.96875.398438.292969.800781.613281 1.34375.8125s1.25.1875 1.875-.09375c.285156-.125 5.300781-2.382812 9.625-4.3125.035156-.015625.058594.015625.09375 0 .097656-.027344.195313-.070312.28125-.125.015625-.007812.015625-.023437.03125-.03125l.03125-.03125c3.332031-1.484375 3.898438-1.742187 7.28125-3.25.03125-.007812.0625-.019531.09375-.03125.011719-.003906.019531.003906.03125 0 .210938-.023437.40625-.109375.5625-.25l.03125-.03125c4.597656-2.046875 10.1875-4.53125 10.1875-4.53125 1.265625-.5625 2.480469-.867187 3.5625-.96875.269531-.023437.527344-.03125.78125-.03125zm-29.0625 1.9375c.59375.011719 1.25.085938 1.78125.25l9.125 2.78125c-2.394531 1.070313-2.640625 1.175781-4.90625 2.1875l-7.875-4.78125.59375-.28125c.15625-.070312.6875-.167969 1.28125-.15625z"/></svg>