<svg fill="#666" height="50" viewBox="0 0 50 50" width="50" xmlns="http://www.w3.org/2000/svg"><path d="m48.277344 1.726563-23.308594 4.660156 1.324219 1.320312 1.5 1.5-20.921875 20.921875c-1.171875 1.171875-1.171875 3.070313 0 4.242188l3.460937 3.460937c-1.144531.742188-1.925781 1.445313-2.449218 2.136719-.652344.855469-.914063 1.664063-1.148438 2.300781-.238281.636719-.429687 1.109375-.976562 1.699219-.542969.585938-1.476563 1.289063-3.195313 2.132813-.5.242187-.703125.839843-.460937 1.335937.242187.5.839843.703125 1.335937.460938 1.859375-.910157 3.015625-1.734375 3.789063-2.570313.777343-.839844 1.128906-1.679687 1.382812-2.363281.25-.683594.417969-1.199219.863281-1.785156.402344-.53125 1.089844-1.152344 2.3125-1.894532l3.84375 3.84375c.585938.585938 1.351563.878907 2.121094.878907.765625 0 1.535156-.292969 2.121094-.878907l20.921875-20.921875 2.820312 2.824219zm-2.550781 2.546875-3.339844 16.699218-13.359375-13.359375zm-16.519532 6.347656 5.050782 5.050781-7.554688-2.546875zm-4.082031 4.082031 12.316406 4.15625 1.9375 1.933594-2.460937 2.460937-15.214844-5.128906zm-5 5 15.214844 5.128906-3.421875 3.421875-15.214844-5.128906zm-5 5 15.214844 5.128906-3.167969 3.167969-15.21875-5.125zm-4.75 4.75 15.21875 5.125-3.421875 3.421875-13.332031-4.488281-.554688-.554688c-.253906-.253906-.292968-.550781-.292968-.707031s.039062-.453125.292968-.707031zm1.644531 7.238281 8.574219 2.886719-2.136719 2.136719c-.164062.164062-.34375.238281-.492187.269531-.085938.019531-.160156.023438-.214844.023438-.15625 0-.453125-.039063-.707031-.292969z"/></svg>