<svg fill="#666" height="50" viewBox="0 0 50 50" width="50" xmlns="http://www.w3.org/2000/svg"><path d="m20.09375.78125c-.945312-.03125-1.96875.226563-2.46875 1.125-.558594.980469-.421875 2.1875.15625 3 .082031.113281.191406.207031.28125.3125-.835937-.015625-1.589844.074219-2.25.28125-.457031.144531-.871094.335938-1.21875.6875-.347656.351563-.59375.882813-.59375 1.40625 0 1.027344.472656 1.9375 1.15625 2.5625s1.539063 1.039063 2.46875 1.40625c1.859375.730469 4.082031 1.261719 5.96875 2.0625h.03125c1.953125.8125 3.535156 1.667969 4.46875 2.1875-.460937 1.398438-1.011719 2.015625-1.6875 2.34375-.699219.339844-1.6875.390625-2.9375.3125-2.496094-.15625-5.929687-.820312-9.5.9375-4.597656 2.273438-7.070312 5.890625-8.125 9.4375-.539062 1.816406-.734375 3.597656-.6875 5.21875-2.359375.304688-4.15625 2.183594-4.15625 4.4375 0 2.460938 2.039063 4.5 4.5 4.5 1.070313 0 2.191406-.359375 3.1875-.9375-.070312.5625-.230469 1.285156-.53125 2.21875-.179687.558594-.226562 1.148438-.0625 1.6875.164063.539063.535156.972656.96875 1.25.863281.554688 1.917969.691406 3.125.75 2.40625.117188 5.527344-.230469 8.40625-.28125h.03125c2.449219 0 6.324219.199219 9.59375.25 1.640625.023438 3.113281.039063 4.25-.0625.566406-.050781 1.039063-.117187 1.46875-.25.214844-.066406.425781-.167969.65625-.34375.089844-.070312.195313-.160156.28125-.28125.046875.050781.074219.105469.125.15625.5.488281 1.253906.75 2.09375.75 1.742188 0 3.460938.015625 4.8125-.0625.675781-.039062 1.273438-.078125 1.78125-.21875.253906-.070312.488281-.179687.75-.375.261719-.195312.5625-.609375.5625-1.0625 0-1.265625-.40625-2.273437-1.0625-2.96875-.65625-.695312-1.488281-1.042969-2.25-1.25s-1.46875-.304687-2-.40625c-.398437-.078125-.632812-.183594-.6875-.1875-.035156-.089844-.121094-.289062-.1875-.5-.113281-.371094-.257812-.855469-.40625-1.4375-.296875-1.164062-.652344-2.648437-1.0625-4.03125-.664062-2.214844-.011719-2.980469.8125-4.28125.746094-1.179687 1.617188-2.792969 1.15625-5.15625.175781-.011719.355469-.015625.53125-.03125 1.523438-.144531 2.953125-.425781 4.15625-.90625s2.246094-1.148437 2.71875-2.25c.867188-2.136719.023438-4.734375-1.375-7.09375-1.390625-2.34375-3.429687-4.476562-5.6875-5.5625-.003906-.003906.003906-.027344 0-.03125-.007812-.003906-.023437.003906-.03125 0-1.109375-.550781-2.320312-.875-3.53125-1-1.164062-.121094-2.324219-.011719-3.4375.25-.671875-.773437-2.058594-2.246094-4.0625-3.75-2.375-1.753906-5.046875-3.25-7.34375-4.09375-1.148437-.421875-2.210937-.6875-3.15625-.71875zm-.0625 2c.585938.019531 1.503906.214844 2.53125.59375 2.050781.753906 4.617188 2.199219 6.84375 3.84375v-.03125c1.398438 1.050781 2.507813 2.089844 3.21875 2.84375-.4375.214844-.859375.464844-1.25.75-1.039062-.804687-2.40625-1.601562-3.84375-2.53125-1.277344-.78125-2.625-1.398437-3.9375-1.875-.863281-.414062-1.691406-.820312-2.375-1.21875-.886719-.511719-1.515625-1.035156-1.78125-1.40625s-.304687-.421875-.0625-.84375c0-.011719 0-.019531 0-.03125 0-.003906.070313-.113281.65625-.09375zm-1.9375 4.4375c.242188.003906.511719.035156.78125.0625 1.25.128906 2.746094.507813 4.28125 1.09375 1.257813.605469 2.523438 1.21875 3.625 1.875.117188.066406.242188.109375.375.125 1.0625.675781 2.0625 1.320313 2.75 1.8125-.332031.410156-.628906.855469-.875 1.34375-.003906.007813.003906.023438 0 .03125-.070312.136719-.125.269531-.1875.40625-.988281-.554687-2.507812-1.382812-4.4375-2.1875-.011719-.003906-.019531.003906-.03125 0-2.105469-.890625-4.367187-1.421875-6-2.0625-.820312-.320312-1.464844-.683594-1.84375-1.03125s-.53125-.621094-.53125-1.09375c.03125-.035156.160156-.109375.40625-.1875.367188-.113281.957031-.203125 1.6875-.1875zm18.75 3.84375c.363281-.011719.726563-.003906 1.09375.03125.972656.09375 1.929688.371094 2.8125.8125h.03125c1.726563.820313 3.617188 2.746094 4.84375 4.8125 1.21875 2.054688 1.667969 4.207031 1.25 5.28125-.128906.296875-.644531.777344-1.59375 1.15625s-2.246094.683594-3.625.8125c-2.757812.261719-5.902344-.125-7.59375-.96875-3.101562-1.550781-4.574219-4.378906-3.8125-7.1875.011719-.039062.023438-.082031.03125-.125.007813-.019531.023438-.042969.03125-.0625.011719-.039062.023438-.082031.03125-.125.113281-.347656.253906-.691406.4375-1.03125 0-.011719 0-.019531 0-.03125 1.050781-2.097656 3.507813-3.296875 6.0625-3.375zm3.65625 5.9375c-.828125 0-1.5.671875-1.5 1.5s.671875 1.5 1.5 1.5 1.5-.671875 1.5-1.5-.671875-1.5-1.5-1.5zm-12.125 2.15625c.621094 2.320313 2.3125 4.390625 4.78125 5.625 1.679688.839844 3.902344 1.214844 6.15625 1.25.539063 2.019531-.050781 2.785156-.84375 4.03125-.820312 1.292969-1.847656 3.140625-1.03125 5.90625.003906.007813-.003906.023438 0 .03125.386719 1.308594.730469 2.761719 1.03125 3.9375.152344.59375.300781 1.09375.4375 1.53125.132813.425781.183594.71875.5 1.125h.03125c.535156.695313 1.210938.8125 1.84375.9375.640625.125 1.332031.21875 1.90625.375s1.023438.378906 1.3125.6875c.203125.21875.261719.671875.34375 1.125-.269531.050781-.5625.097656-1.03125.125-1.222656.070313-2.960937.0625-4.71875.0625-.507812 0-.589844-.089844-.6875-.1875s-.242187-.34375-.40625-.8125c-.324219-.929687-.777344-2.535156-2.28125-4-.007812-.007812-.023437-.023437-.03125-.03125-.859375-.867187-1.871094-2.425781-2.75-3.90625-.828125-1.386719-1.496094-2.671875-2.09375-3.5-.160156-.472656-.402344-.957031-.71875-1.40625-1.273437-1.792969-3.835937-3.0625-8.03125-3.0625-.359375-.003906-.695312.183594-.878906.496094-.179688.3125-.179688.695312 0 1.007812.183594.3125.519531.5.878906.496094 3.804688 0 5.605469 1.089844 6.40625 2.21875.160156.222656.28125.449219.375.6875.007813.03125.019531.0625.03125.09375.003906.007813-.003906.023438 0 .03125.019531.121094.0625.238281.125.34375.191406.8125.050781 1.625-.21875 2.1875-.011719 0-.019531 0-.03125 0-1.617187 3.40625-5.402344 4.027344-7.6875 4.4375-.050781.007813-.136719.023438-.1875.03125-.480469.121094-.800781.574219-.753906 1.066406.046875.492188.449219.875.941406.902344 7.988281 0 11.679688.820313 13.09375 1.5625.707031.371094.808594.605469.875.8125.027344.082031-.003906.269531 0 .375-.203125.042969-.417969.09375-.78125.125-.988281.085938-2.421875.085938-4.03125.0625-3.222656-.050781-7.101562-.25-9.65625-.25-3.011719.050781-6.179687.386719-8.3125.28125-1.066406-.054687-1.859375-.265625-2.125-.4375-.132812-.085937-.140625-.109375-.15625-.15625s-.03125-.175781.0625-.46875c.546875-1.699219.746094-2.933594.65625-3.9375-.019531-.207031-.046875-.40625-.09375-.59375.097656-.265625.078125-.558594-.054687-.808594-.128907-.25-.359375-.433593-.632813-.503906-.105469-.125-.199219-.246094-.3125-.34375-.546875-.464844-1.105469-.667969-1.4375-.84375s-.390625-.226562-.4375-.375c0-.011719 0-.019531 0-.03125-.621094-1.816406-.890625-4.960937.03125-8.0625.921875-3.101562 2.960938-6.191406 7.0625-8.21875 2.929688-1.441406 5.796875-.886719 8.5-.71875 1.351563.085938 2.699219.066406 3.9375-.53125.394531-.191406.757813-.46875 1.09375-.78125zm-23.03125 16.875c.121094.757813.292969 1.449219.5 2.0625.003906.015625.027344.015625.03125.03125.261719.773438.898438 1.246094 1.375 1.5.328125.175781.574219.308594.78125.4375-.859375.546875-1.882812.9375-2.53125.9375-1.339844 0-2.5-1.160156-2.5-2.5 0-1.214844.898438-2.28125 2.34375-2.46875zm25.375 1.09375c.175781.296875.316406.566406.5.875.914063 1.53125 1.925781 3.175781 3.0625 4.3125h.03125c.0625.058594.097656.128906.15625.1875-1.582031-.601562-4.261719-.980469-7.78125-1.21875 1.523438-.800781 2.988281-1.914062 3.90625-3.84375.046875-.101562.082031-.203125.125-.3125z"/></svg>