<svg fill="#666" height="50" viewBox="0 0 50 50" width="50" xmlns="http://www.w3.org/2000/svg"><path d="m33 0c-1.09375 0-2 .90625-2 2v3c0 .945313.671875 1.769531 1.5625 1.96875-.535156.859375-1.054687 1.933594-1.5625 3.15625-1.113281 2.675781-2.136719 5.953125-2.65625 8.625-.105469.542969.253906 1.066406.796875 1.171875s1.066406-.253906 1.171875-.796875c.484375-2.492187 1.480469-5.71875 2.53125-8.25.527344-1.265625 1.058594-2.347656 1.53125-3.0625.234375-.359375.453125-.625.59375-.75.054688-.046875.050781-.058594.0625-.0625h7.8125c.027344.015625.109375.066406.21875.1875.21875.242188.503906.695313.8125 1.25.617188 1.109375 1.289063 2.667969 1.90625 4.375 1.234375 3.414063 2.21875 7.457031 2.21875 9v22.1875c0 1.667969-1.332031 3-3 3h-12c-.753906 0-1.441406-.265625-1.96875-.71875-.253906-.304687-.667969-.429687-1.046875-.316406-.382812.109375-.660156.4375-.710937.832031-.050782.394531.136718.78125.476562.984375.875.753906 2.007813 1.21875 3.25 1.21875h12c2.75 0 5-2.25 5-5v-22.1875c0-2.253906-1.058594-6.109375-2.34375-9.65625-.640625-1.773437-1.328125-3.453125-2.03125-4.71875-.09375-.167969-.1875-.3125-.28125-.46875.933594-.164062 1.65625-.992187 1.65625-1.96875v-3c0-1.09375-.90625-2-2-2zm0 2h12v3h-12zm-13.78125 12.96875c-.535156-.011719-1 .0625-1 .0625s-1.410156 2.296875-1.5625 4.96875c-2.554687-3.890625-5.769531-.535156-6.96875-3.625 0 4.929688 3.90625 4.003906 5.34375 4.625-4.386719 0-2.839844 3.773438-6.34375 3.875 3.117188 1.378906 5.910156 1.097656 7.96875-2.90625-.953125 2.785156-1.644531 5.035156 2.25 7.375 1.027344-1.835937.53125-5.171875-.5-7.84375 1.867188 3.089844 4.449219 5.210938 7.84375 3.0625-2.722656-.710937-1.503906-2.707031-6.3125-3.46875 3.089844.421875 5.199219.859375 6.0625-2.40625-2.488281.945313-3.480469-2.796875-7.5625 1.4375-.015625.007813.023438-2.679687 2.28125-4.6875-.34375-.335937-.964844-.457031-1.5-.46875zm-10.84375 5.59375c-.085937.019531-.171875.050781-.25.09375-5.8125 2.167969-8.125 7.449219-8.125 13.1875 0 8.523438 7.613281 16.15625 17 16.15625 4.136719 0 8.363281-1.402344 11.59375-4.34375s5.40625-7.433594 5.40625-13.40625c0-2.308594-.394531-4.648437-1.4375-6.65625-1.042969-2.007812-2.777344-3.675781-5.28125-4.53125-.527344-.179687-1.101562.097656-1.28125.625-.179687.527344.097656 1.101563.625 1.28125 2.035156.695313 3.3125 1.9375 4.15625 3.5625s1.21875 3.636719 1.21875 5.71875c0 5.496094-1.9375 9.371094-4.75 11.9375s-6.5625 3.8125-10.25 3.8125c-8.292969 0-15-6.835937-15-14.15625 0-5.234375 1.8125-9.480469 6.8125-11.34375.476563-.167969.753906-.667969.640625-1.164062-.109375-.492188-.574219-.824219-1.078125-.773438z"/></svg>