<svg fill="#666" height="50" viewBox="0 0 50 50" width="50" xmlns="http://www.w3.org/2000/svg"><path d="m30.171875 2.0390625c-.399567-.0293682-.809674.0420357-1.189453.2246094l-3.982422 1.8945312-3.984375-1.8964843h-.001953c-1.01129-.4825964-2.234821-.1787947-2.908203.7128906v.0019531l-2.648438 3.5332031-4.412109.1738282h-.001953c-1.1174336.0454428-2.0599762.883125-2.2382815 1.9882812l-.7050781 4.357422-3.8242188 2.207031c-.9697352.55823-1.4187387 1.735971-1.0644531 2.798828l1.4042969 4.189453-2.3632813 3.728516c-.5989281.944788-.449453 2.197273.3613281 2.972656l3.1855469 3.054688-.359375 4.40039c-.090946 1.116619.6262786 2.152123 1.6972657 2.464844h.0019531l4.2421871 1.222656 1.726563 4.064453v.001954c.43911 1.025707 1.55369 1.627353 2.660156 1.388672l4.320313-.884766 3.414062 2.794922v-.001953c.433277.355725.969778.537109 1.5.537109.532272 0 1.06593-.182336 1.498047-.537109l3.414062-2.794922 4.320313.884765c1.104312.236882 2.221571-.360539 2.660156-1.390625l1.726563-4.0625 4.240234-1.222656h.001953c1.073945-.310923 1.789893-1.349892 1.699219-2.464844l-.359375-4.402343 3.185547-3.054688c.809636-.775503.9626-2.027252.363281-2.972656l-2.363281-3.728516 1.404297-4.189453v-.001953c.350103-1.060408-.09388-2.23816-1.064453-2.796875l-3.826172-2.207031-.703125-4.3593752v-.0019532c-.182923-1.1005849-1.124668-1.9369805-2.242188-1.9824218l-4.412109-.1738282-2.648438-3.53125c-.336633-.448845-.812723-.749613-1.330078-.8769531-.129338-.031835-.261342-.0527106-.394531-.0625zm-10.134766 1.9296875c.048062.0049439.096503.0189794.142579.0410156l4.820312 2.2929688 4.820312-2.2929688h.001954c.181256-.087137.398705-.03545.523437.1308594l3.201172 4.2695312 5.332031.2089844c.210481.00856.373082.1538641.408203.3652344l.84961 5.261719 4.625 2.667968c.178822.102941.258069.30884.193359.507813l-1.695312 5.058594 2.855468 4.507812c.110353.174077.084794.392514-.066406.53711l-3.851562 3.693359.433593 5.318359c.01733.213049-.102585.388189-.30664.447266l-5.126953 1.478516-2.083985 4.910156c-.08342.195914-.280968.296977-.472656.255859l-.003906-.001953-5.236328-1.072265-4.128907 3.378906c-.08188.06723-.171803.097656-.269531.097656-.09978 0-.190761-.029433-.271484-.095703l-4.128907-3.378906-5.236328 1.072265h-.005859c-.191534.04132-.385813-.05952-.470703-.257812v.003906l-2.083984-4.912109-5.1250005-1.476563c-.2030199-.059232-.3256474-.237884-.3085937-.447266l.4335937-5.320312-3.8515625-3.691406v-.001953c-.1512188-.14457-.1774782-.359945-.0664062-.535157l2.8574218-4.507812-1.6972656-5.060547c-.065714-.197143.013095-.40209.1933594-.505859h.0019531l4.6230469-2.667969.8515626-5.2675782c.0336-.2082833.194602-.3520707.404297-.3613282l5.332031-.2089844 3.199219-4.2675781c.096154-.127327.240581-.1886596.384765-.1738281zm3.962891 7.03125c0 1-1 2-3 2v2h3v9h.099609 1.900391v-13zm-12 16v7h1.599609v-2.900391h3v-1.199218h-3v-1.59961h3.400391v-1.300781zm6.199219 0v7h1.5v-2.800781h1.5c1.2 0 1.200781.9 1.300781 2 .1.3.099219.600781.199219.800781h1.5c-.3-.4-.298828-1.100781-.298828-1.300781 0-1.7-.8-1.9-1-2 .4-.2 1.099609-.598828 1.099609-1.798828 0-1.5-1.399609-1.900391-2.099609-1.900391zm7.40039 0v7h5.300782v-1.300781h-3.800782v-1.699219h3.400391v-1.199219h-3.400391v-1.5h3.701172v-1.300781zm7.09961 0v7h5.300781v-1.300781h-3.800781v-1.699219h3.40039v-1.199219h-3.40039v-1.5h3.701172v-1.300781zm-13 1.199219h1.701172c.4 0 1.099609.1 1.099609 1s-.699609 1-1.099609 1h-1.701172z"/></svg>