<svg fill="#666" height="50" viewBox="0 0 50 50" width="50" xmlns="http://www.w3.org/2000/svg"><path d="m7 2v46h36v-32.589844l-13.816406-13.410156zm2 2h19v13h13v29h-32zm21 1.578125 9.707031 9.421875h-9.707031zm3.386719 16.292969c-.886719-.035156-2.140625.5-2.699219 1.824219-.542969 1.289062-.910156 3.511718-1.253906 5.683593-.175781 1.085938-.324219 2.136719-.445313 2.964844-.121093.832031-.222656 1.5-.246093 1.621094 0 .003906-.003907.011719-.003907.019531-.066406.34375-.207031.621094-.363281.78125-.15625.164063-.289062.234375-.542969.234375-.570312 0-.835937-.234375-.894531-.921875 0-.019531 0-.039062-.003906-.058594-.074219-.507812-.941406-7.3125-.941406-7.3125-.0625-.503906-.492188-.878906-1-.875-.507813.003907-.929688.386719-.988282.890625 0 0-.210937 1.902344-.433593 3.882813-.222657 1.980469-.476563 4.148437-.503907 4.332031-.003906.019531-.003906.039063-.007812.058594-.058594.683594-.324219.921875-.890625.921875-.257813 0-.386719-.070313-.542969-.230469-.15625-.164062-.300781-.445312-.363281-.789062-.003906-.003907-.003906-.011719-.007813-.015625-.195312-.96875-.5625-2.390625-.9375-4.554688v-.003906c-.1875-1.035156-.472656-1.769531-1.050781-2.269531-.574219-.5-1.414062-.523438-1.941406-.328125-1.058594.386718-1.609375 1.238281-1.609375 1.238281-.34375.433594-.269531 1.0625.164062 1.402344.433594.34375 1.0625.269531 1.40625-.164063 0 0 .480469-.464844.695313-.570312.039062.046875.234375.292968.367187 1.042968.386719 2.230469.773438 3.746094.949219 4.605469v-.015625c.121094.664063.402344 1.300781.886719 1.804688.480469.503906 1.199219.847656 1.984375.847656 1.507812 0 2.753906-1.234375 2.882812-2.746094l-.003906.058594c.007813-.066406.054688-.5.070313-.621094.296875 1.320313 1.34375 2.390625 2.714843 2.390625.785157 0 1.503907-.34375 1.984375-.847656.484375-.503906.761719-1.136719.886719-1.796875.070313-.339844.144531-.902344.265625-1.726563.117188-.832031.269531-1.867187.4375-2.9375.339844-2.132812.820313-4.492187 1.125-5.222656.292969-.691406.457031-.613281.777344-.601562.320312.011718.648437.175781.648437.175781.484375.265625 1.09375.089844 1.363282-.390625.265625-.484375.09375-1.09375-.390625-1.359375 0 0-.660157-.390625-1.542969-.421875z"/></svg>