<svg fill="#666" height="50" viewBox="0 0 50 50" width="50" xmlns="http://www.w3.org/2000/svg"><path d="m25 2c-12.690705 0-23 10.309295-23 23s10.309295 23 23 23 23-10.309295 23-23-10.309295-23-23-23zm0 2c11.609824 0 21 9.390176 21 21s-9.390176 21-21 21-21-9.390176-21-21 9.390176-21 21-21zm1.580078 6c-2.651858 0-4.663002.867217-5.902344 2.400391-1.239341 1.533173-1.677734 3.580655-1.677734 5.826171v1.773438h-2a1.0001 1.0001 0 0 0 -1 1v5a1.0001 1.0001 0 0 0 1 1h2v12a1.0001 1.0001 0 0 0 1 1h6a1.0001 1.0001 0 0 0 1-1v-12h4a1.0001 1.0001 0 0 0 .980469-.804688l1-5a1.0001 1.0001 0 0 0 -.980469-1.195312h-5v-2.193359c0-.485024.03137-.481027.171875-.572266.14051-.091239.648322-.234375 1.539063-.234375h3.289062a1.0001 1.0001 0 0 0 1-1v-4a1.0001 1.0001 0 0 0 -.664062-.941406s-2.879601-1.058594-5.75586-1.058594zm0 2c1.892421 0 3.647423.510447 4.419922.751953v2.248047h-2.289062c-1.047261 0-1.896964.08458-2.626954.558594-.729989.474011-1.083984 1.38207-1.083984 2.248047v3.193359a1.0001 1.0001 0 0 0 1 1h4.779297l-.599609 3h-4.179688a1.0001 1.0001 0 0 0 -1 1v12h-4v-12a1.0001 1.0001 0 0 0 -1-1h-2v-3h2a1.0001 1.0001 0 0 0 1-1v-2.773438c0-1.979482.405014-3.544783 1.232422-4.568359s2.104514-1.658203 4.347656-1.658203z"/></svg>