<svg fill="#666" height="50" viewBox="0 0 50 50" width="50" xmlns="http://www.w3.org/2000/svg"><path d="m6 9c-2.199219 0-4 1.800781-4 4v24c0 2.199219 1.800781 4 4 4h38c2.199219 0 4-1.800781 4-4v-24c0-2.199219-1.800781-4-4-4zm0 2h38c1.117188 0 2 .882813 2 2v24c0 1.117188-.882812 2-2 2h-38c-1.117187 0-2-.882812-2-2v-24c0-1.117187.882813-2 2-2zm10.90625 4c-2.21875.039063-3.785156 1.089844-4.40625 2.5625-.550781 1.3125-.441406 2.792969-.125 4.21875-.007812.011719.007813.019531 0 .03125-.175781.300781-.332031.746094-.3125 1.28125.027344.769531.3125 1.347656.625 1.71875.164063.195313.234375.214844.375.3125.160156.496094.335938 1 .59375 1.34375.171875.230469.367188.339844.53125.5.011719.425781.023438.820313 0 1.21875-.082031.160156-.226562.332031-.6875.5625-.503906.253906-1.238281.511719-2 .84375s-1.570312.746094-2.25 1.4375c-.679687.691406-1.175781 1.683594-1.25 2.90625-.015625.277344.082031.546875.269531.746094.191407.203125.453125.316406.730469.316406h16c.277344 0 .539063-.113281.730469-.316406.1875-.199219.285156-.46875.269531-.746094-.074219-1.222656-.570312-2.214844-1.25-2.90625-.679687-.691406-1.488281-1.105469-2.25-1.4375s-1.496094-.589844-2-.84375c-.480469-.242187-.648437-.429687-.71875-.59375-.019531-.386719.019531-.773437.03125-1.1875.1875-.179687.425781-.292969.59375-.53125.246094-.355469.394531-.859375.53125-1.34375.335938-.25.96875-.789062.96875-1.90625 0-.46875-.234375-.753906-.375-1.09375.234375-.769531.53125-1.917969.40625-3.15625-.070312-.675781-.257812-1.371094-.75-1.96875-.40625-.496094-1.085937-.769531-1.8125-.875-.578125-.632812-1.382812-1.09375-2.4375-1.09375-.011719 0-.019531 0-.03125 0zm.03125 2h.03125c.632813.015625 1.058594.382813 1.125.5.175781.300781.496094.492188.84375.5.449219 0 .558594.09375.6875.25s.269531.472656.3125.90625c.085938.867188-.179687 2.066406-.34375 2.5625-.113281.332031-.042969.703125.1875.96875-.011719.011719.125.238281.125.5 0 .183594-.3125.46875-.3125.46875-.25.148438-.417969.402344-.46875.6875-.046875.328125-.191406.675781-.375.9375s-.429687.464844-.375.4375c-.335937.164063-.554687.5-.5625.875 0 .585938-.074219 1.15625 0 1.96875.011719.085938.03125.167969.0625.25.328125.875 1.058594 1.371094 1.75 1.71875s1.398438.617188 2.0625.90625c.664063.289063 1.238281.605469 1.625 1 .132813.136719.152344.398438.25.5625h-13.125c.097656-.164062.117188-.425781.25-.5625.386719-.394531.960938-.710937 1.625-1 .664063-.289062 1.371094-.558594 2.0625-.90625s1.425781-.839844 1.75-1.71875c.03125-.082031.050781-.164062.0625-.25.074219-.816406 0-1.382812 0-1.96875.003906-.359375-.1875-.695312-.5-.875.015625.015625.007813.019531-.03125 0-.058594-.054687-.253906-.234375-.40625-.4375-.214844-.285156-.402344-.671875-.4375-.9375-.050781-.328125-.261719-.609375-.5625-.75 0 0 .035156.015625-.03125-.0625s-.144531-.199219-.15625-.53125c-.003906-.101562.09375-.25.09375-.25.25-.253906.347656-.625.25-.96875-.351562-1.351562-.398437-2.640625-.0625-3.4375.332031-.789062.921875-1.304687 2.59375-1.34375zm11.875 2c-.550781.050781-.957031.542969-.90625 1.09375s.542969.957031 1.09375.90625h12c.359375.003906.695313-.183594.878906-.496094.179688-.3125.179688-.695312 0-1.007812-.183593-.3125-.519531-.5-.878906-.496094h-12c-.03125 0-.0625 0-.09375 0s-.0625 0-.09375 0zm0 5c-.550781.050781-.957031.542969-.90625 1.09375s.542969.957031 1.09375.90625h12c.359375.003906.695313-.183594.878906-.496094.179688-.3125.179688-.695312 0-1.007812-.183593-.3125-.519531-.5-.878906-.496094h-12c-.03125 0-.0625 0-.09375 0s-.0625 0-.09375 0zm0 5c-.550781.050781-.957031.542969-.90625 1.09375s.542969.957031 1.09375.90625h12c.359375.003906.695313-.183594.878906-.496094.179688-.3125.179688-.695312 0-1.007812-.183593-.3125-.519531-.5-.878906-.496094h-12c-.03125 0-.0625 0-.09375 0s-.0625 0-.09375 0z"/></svg>