<svg fill="#666" height="50" viewBox="0 0 50 50" width="50" xmlns="http://www.w3.org/2000/svg"><path d="m25 0c-1.0625 0-2.132812.382813-2.96875 1.15625-.011719.011719-.019531.019531-.03125.03125l-20.8125 20.90625c-1.59375 1.59375-1.578125 4.199219-.03125 5.875l.03125.03125 20.8125 20.8125c1.59375 1.59375 4.199219 1.578125 5.875.03125l.03125-.03125 20.8125-20.8125c1.664063-1.664062 1.6875-4.3125.09375-5.90625l-20.90625-20.90625c-.796875-.796875-1.84375-1.1875-2.90625-1.1875zm-.03125 2c.5625 0 1.128906.191406 1.53125.59375l20.90625 20.90625c.808594.808594.8125 2.15625-.125 3.09375l-20.75 20.78125c-.011719.011719-.019531.023438-.03125.03125-.925781.824219-2.296875.796875-3.09375 0l-20.78125-20.78125c-.011719-.011719-.019531-.019531-.03125-.03125-.410156-.460937-.597656-1.035156-.59375-1.59375 0-.140625.003906-.269531.03125-.40625.078125-.40625.261719-.792969.5625-1.09375l20.78125-20.875.03125-.03125c.457031-.40625 1.011719-.59375 1.5625-.59375zm-1.15625 12c-.300781 0-.40625.207031-.40625.40625v14.5c0 .300781.207031.40625.40625.40625h2.28125c.300781 0 .40625-.207031.40625-.40625v-14.5c0-.300781-.207031-.40625-.40625-.40625zm0 18.59375c-.300781 0-.40625.207031-.40625.40625v2.6875c0 .300781.207031.40625.40625.40625h2.375c.300781 0 .40625-.207031.40625-.40625v-2.59375c0-.300781-.207031-.40625-.40625-.40625v-.09375z"/></svg>