<svg fill="#666" height="50" viewBox="0 0 50 50" width="50" xmlns="http://www.w3.org/2000/svg"><path d="m11.8125 0c-.476562.0898438-.820312.511719-.8125 1v3.8125c0 .765625.25 1.480469.65625 2.1875s.988281 1.378906 1.71875 1.84375l.03125.03125 7.40625 4.3125c-.257812.191406-.410156.492188-.40625.8125v2c0 1.542969 1.121094 2.929688 2.65625 3-.011719.019531-.019531.042969-.03125.0625-.007812.015625-.023437.015625-.03125.03125l-3.9375 7.96875-9 1.34375c-.019531 0-.042969 0-.0625 0-.722656.144531-1.433594.710938-1.6875 1.53125h-.03125c-.007812.023438.007813.039063 0 .0625-.011719.039063-.054687.054688-.0625.09375h.0625c-.269531.871094-.003906 1.714844.5 2.21875h.03125l6.5 6.25-1.5 8.75c-.003906.011719 0 .019531 0 .03125-.152344.808594.164063 1.65625.90625 2.125l-.03125.03125c.027344.019531.066406.011719.09375.03125.027344.015625.035156.046875.0625.0625l.03125-.03125c.691406.417969 1.53125.417969 2.1875.15625.03125-.007812.0625-.019531.09375-.03125l8.03125-4.15625 8.0625 4.15625c.4375.21875.863281.21875 1.0625.21875.523438 0 .855469-.171875 1.09375-.25.101563-.035156.195313-.089844.28125-.15625.671875-.503906 1.046875-1.300781.875-2.15625h.03125l-.03125-.09375-1.46875-8.6875 6.5-6.25c.113281-.113281.199219-.253906.25-.40625.140625-.425781.328125-1.148437 0-1.96875-.320312-.796875-.984375-1.324219-1.6875-1.5-.039062-.011719-.082031-.023437-.125-.03125l-9-1.34375-3.90625-7.96875c-.007812-.015625-.023437-.015625-.03125-.03125-.019531-.042969-.039062-.085937-.0625-.125 1.378906-.226562 2.375-1.5 2.375-2.9375v-2c-.003906-.273437-.113281-.53125-.3125-.71875l7.5-4.40625c.03125-.019531.0625-.039062.09375-.0625.660156-.460937 1.179688-1.085937 1.59375-1.78125.414063-.695312.71875-1.417969.71875-2.21875v-3.8125c0-.550781-.449219-1-1-1h-26c-.03125 0-.0625 0-.09375 0s-.0625 0-.09375 0zm1.1875 2h24v2.8125c0 .199219-.152344.707031-.4375 1.1875-.269531.453125-.640625.878906-.96875 1.125h-.03125l-9.15625 5.40625c-.03125.019531-.0625.039063-.09375.0625-.5625.394531-1.96875.394531-2.53125 0-.03125-.023437-.0625-.042969-.09375-.0625l-9.25-5.375c-.011719-.007812-.019531-.023437-.03125-.03125-.359375-.238281-.738281-.667969-1-1.125-.269531-.46875-.40625-.953125-.40625-1.1875zm9.40625 13h5v1c0 .613281-.414062 1-.8125 1h-3.40625c-.398437 0-.78125-.386719-.78125-1zm2.65625 4.875c.113281 0 .207031.003906.21875.03125l.03125.03125 4.1875 8.5c.140625.300781.421875.511719.75.5625l9.40625 1.375c.09375.023438.230469.078125.3125.28125.054688.136719 0 .3125-.03125.46875l-6.625 6.34375c-.25.230469-.371094.570313-.3125.90625l1.625 9.28125v.09375c-.011719-.042969-.050781.03125-.0625.0625-.078125.027344-.207031.09375-.25.09375-.199219 0-.195312-.019531-.15625 0l-8.5-4.40625c-.285156-.144531-.621094-.144531-.90625 0l-8.40625 4.375c-.019531.007813-.011719-.007812-.03125 0-.238281.089844-.332031.085938-.40625.03125-.039062-.035156-.082031-.066406-.125-.09375-.003906-.019531-.011719-.0625 0-.125 0-.011719 0-.019531 0-.03125l1.59375-9.28125c.066406-.332031-.042969-.671875-.28125-.90625l-6.875-6.5625-.03125-.03125c-.046875-.058594-.085937-.15625-.0625-.21875.023438-.050781.046875-.101562.0625-.15625.015625-.074219-.003906-.082031.21875-.125l9.4375-1.375c.328125-.050781.609375-.261719.75-.5625l4.1875-8.5.03125-.03125c.011719-.027344.136719-.03125.25-.03125z"/></svg>