<svg fill="#666" height="50" viewBox="0 0 50 50" width="50" xmlns="http://www.w3.org/2000/svg"><path d="m5 4c-1.6455732 0-3 1.3555411-3 3v9 10 17c0 1.644459 1.3544268 3 3 3h40c1.645063 0 3-1.354937 3-3v-17-10-5c0-1.6450628-1.354937-3-3-3h-27c.08657 0-.03101.000364-.275391-.28125-.244382-.281614-.54519-.7488088-.859375-1.25-.314184-.5011912-.643457-1.0359601-1.058593-1.5058594-.415137-.4698992-.987887-.9628906-1.806641-.9628906zm0 2h9c-.06075 0 .06114.00701.308594.2871094.247457.2801007.548637.7453318.861328 1.2441406s.636507 1.031614 1.042969 1.5c.406461.468386.966036.96875 1.787109.96875h27c.562937 0 1 .437063 1 1v2.1875c-.314892-.11356-.648157-.1875-1-.1875h-40c-.3518425 0-.6851085.07394-1 .1875v-6.1875c0-.5635411.4355732-1 1-1zm0 9h40c.56503 0 1 .43497 1 1v10 17c0 .562937-.437063 1-1 1h-40c-.5644268 0-1-.436459-1-1v-17-10c0-.56503.4349698-1 1-1z"/></svg>