<svg fill="#666" height="50" viewBox="0 0 50 50" width="50" xmlns="http://www.w3.org/2000/svg"><path d="m6 0v50h38v-35.414062l-14.585937-14.585938zm2 2h20v14h14v32h-34zm22 1.414063 10.585938 10.585937h-10.585938zm-19.484375 21.128906v11.457031h1.820313v-5.046875h2.71875v5.046875h1.820312v-11.457031h-1.820312v4.742187h-2.71875v-4.742187zm7.410156 0v1.664062h2.058594v9.792969h1.816406v-9.792969h2.058594v-1.664062zm7.414063 0-.765625 11.457031h1.582031l.203125-4.367187c.066406-1.359375.136719-2.875.15625-4.164063h.046875c.207031 1.273438.511719 2.699219.816406 3.855469l1.121094 4.539062h1.242188l1.191406-4.660156c.269531-1.101562.574219-2.476562.796875-3.734375h.050781c-.015625 1.257813.050781 2.820313.121094 4.109375l.222656 4.421875h1.644531l-.679687-11.457031h-1.953125l-1.074219 4.640625c-.339844 1.496094-.59375 2.6875-.796875 3.976562h-.03125c-.222656-1.289062-.511719-2.496093-.871094-3.976562l-1.101562-4.640625zm9.960937 0v11.457031h4.878907v-1.53125h-3.058594v-9.925781z"/></svg>