<svg fill="#666" height="50" viewBox="0 0 50 50" width="50" xmlns="http://www.w3.org/2000/svg"><path d="m28.875 11c-.503906.0625-.878906.492188-.875 1v7.0625c-11.511719.351563-17.71875 6.445313-20.78125 12.5-3.105469 6.136719-3.214844 12.121094-3.21875 12.3125v.0625.0625c-.015625.550781.417969 1.015625.96875 1.03125s1.015625-.417969 1.03125-.96875v-.0625c.007813-.09375.230469-3.121094 3.09375-6.34375 2.8125-3.160156 8.300781-6.347656 18.90625-6.5625v6.90625c0 .382813.21875.734375.566406.902344.347657.167969.757813.121094 1.058594-.121094l16-13c.238281-.191406.375-.476562.375-.78125 0-.304687-.136719-.589844-.375-.78125l-16-13c-.210937-.171875-.480469-.25-.75-.21875zm1.125 3.09375 13.40625 10.90625-13.40625 10.90625v-5.90625c0-.550781-.449219-1-1-1-11.753906 0-18.089844 3.613281-21.40625 7.34375-.125.140625-.195312.265625-.3125.40625.421875-1.375.976563-2.84375 1.71875-4.3125 2.917969-5.765625 8.488281-11.4375 20-11.4375.550781 0 1-.449219 1-1z"/></svg>