<svg fill="#666" height="50" viewBox="0 0 50 50" width="50" xmlns="http://www.w3.org/2000/svg"><path d="m9.84375 0c-.230469.0390625-.441406.164063-.59375.34375 0 0-1.027344 1.199219-2.0625 2.6875s-2.1875 3.144531-2.1875 4.875c0 2.609375 1.960938 4.839844 4.5 5.09375h.09375.8125.09375c2.539063-.253906 4.5-2.484375 4.5-5.09375 0-1.730469-1.152344-3.386719-2.1875-4.875s-2.0625-2.6875-2.0625-2.6875c-.222656-.2617187-.566406-.3945313-.90625-.34375zm15 0c-.230469.0390625-.441406.164063-.59375.34375 0 0-1.027344 1.199219-2.0625 2.6875s-2.1875 3.144531-2.1875 4.875c0 2.609375 1.960938 4.839844 4.5 5.09375h.09375.8125.09375c2.539063-.253906 4.5-2.484375 4.5-5.09375 0-1.730469-1.152344-3.386719-2.1875-4.875s-2.0625-2.6875-2.0625-2.6875c-.222656-.2617187-.566406-.3945313-.90625-.34375zm15 0c-.230469.0390625-.441406.164063-.59375.34375 0 0-1.027344 1.199219-2.0625 2.6875s-2.1875 3.144531-2.1875 4.875c0 2.609375 1.960938 4.839844 4.5 5.09375h.09375.8125.09375c2.539063-.253906 4.5-2.484375 4.5-5.09375 0-1.730469-1.152344-3.386719-2.1875-4.875s-2.0625-2.6875-2.0625-2.6875c-.222656-.2617187-.566406-.3945313-.90625-.34375zm-29.84375 2.625c.371094.453125.597656.683594 1.1875 1.53125.964844 1.386719 1.8125 3.179688 1.8125 3.75 0 1.332031-.867187 2.472656-2 2.90625v-2.8125c.011719-.289062-.105469-.566406-.3125-.761719-.210937-.199218-.496094-.296875-.78125-.269531-.042969.007813-.085937.019531-.125.03125-.464844.105469-.792969.523438-.78125 1v2.8125c-1.132812-.433594-2-1.574219-2-2.90625 0-.570312.847656-2.363281 1.8125-3.75.589844-.847656.816406-1.078125 1.1875-1.53125zm15 0c.371094.453125.597656.683594 1.1875 1.53125.964844 1.386719 1.8125 3.179688 1.8125 3.75 0 1.332031-.867187 2.472656-2 2.90625v-2.8125c.011719-.289062-.105469-.566406-.3125-.761719-.210937-.199218-.496094-.296875-.78125-.269531-.042969.007813-.085937.019531-.125.03125-.464844.105469-.792969.523438-.78125 1v2.8125c-1.132812-.433594-2-1.574219-2-2.90625 0-.570312.847656-2.363281 1.8125-3.75.589844-.847656.816406-1.078125 1.1875-1.53125zm15 0c.371094.453125.597656.683594 1.1875 1.53125.964844 1.386719 1.8125 3.179688 1.8125 3.75 0 1.332031-.867187 2.472656-2 2.90625v-2.8125c.011719-.289062-.105469-.566406-.3125-.761719-.210937-.199218-.496094-.296875-.78125-.269531-.042969.007813-.085937.019531-.125.03125-.464844.105469-.792969.523438-.78125 1v2.8125c-1.132812-.433594-2-1.574219-2-2.90625 0-.570312.847656-2.363281 1.8125-3.75.589844-.847656.816406-1.078125 1.1875-1.53125zm-34.125 10.375c-1.035156.09375-1.875.988281-1.875 2 0 .652344.230469.910156.4375 1.28125s.449219.761719.6875 1.1875c.472656.851563.875 1.796875.875 2.53125v8.25c-2.84375.753906-5 3.210938-5 6.25v3.59375c-.105469.25-.105469.53125 0 .78125v9.125c-.03125 0-.0625 0-.09375 0s-.0625 0-.09375 0c-.550781.050781-.957031.542969-.90625 1.09375.0507812.550781.542969.957031 1.09375.90625h48c.359375.003906.695313-.183594.878906-.496094.179688-.3125.179688-.695312 0-1.007812-.183593-.3125-.519531-.5-.878906-.496094v-9.15625c.058594-.191406.058594-.402344 0-.59375v-3.75c0-2.972656-2.144531-5.484375-5-6.25v-8.75c0-.394531.171875-.851562.40625-1.34375.234375-.492187.59375-.921875.59375-1.75 0-.492187-.085937-1.082031-.5-1.59375-.414062-.511719-1.144531-.8125-1.90625-.8125-2.777344 0-6.125-.96875-6.125-.96875-.039062-.011719-.082031-.023437-.125-.03125-.152344-.023437-.320312-.011719-.46875 0-1.035156.09375-1.875.988281-1.875 2 0 .652344.230469.910156.4375 1.28125s.449219.761719.6875 1.1875c.472656.851563.875 1.796875.875 2.53125v8h-7v-8.5c0-.394531.171875-.851562.40625-1.34375.234375-.492187.59375-.921875.59375-1.75 0-.492187-.085937-1.082031-.5-1.59375-.414062-.511719-1.144531-.8125-1.90625-.8125-2.777344 0-6.125-.96875-6.125-.96875-.039062-.011719-.082031-.023437-.125-.03125-.152344-.023437-.320312-.011719-.46875 0-1.035156.09375-1.875.988281-1.875 2 0 .652344.230469.910156.4375 1.28125s.449219.761719.6875 1.1875c.472656.851563.875 1.796875.875 2.53125v8h-7v-8.5c0-.394531.171875-.851562.40625-1.34375.234375-.492187.59375-.921875.59375-1.75 0-.492187-.085937-1.082031-.5-1.59375-.414062-.511719-1.144531-.8125-1.90625-.8125-2.777344 0-6.125-.96875-6.125-.96875-.039062-.011719-.082031-.023437-.125-.03125-.152344-.023437-.320312-.011719-.46875 0zm.1875 2c.234375.070313 3.425781 1 6.53125 1 .335938 0 .332031.046875.34375.0625s.0625.136719.0625.34375c0-.125-.140625.316406-.40625.875s-.59375 1.3125-.59375 2.21875v8.5h-4v-8c0-1.367187-.597656-2.550781-1.125-3.5-.261719-.472656-.519531-.914062-.6875-1.21875-.0625-.117187-.097656-.203125-.125-.28125zm15 0c.234375.070313 3.425781 1 6.53125 1 .335938 0 .332031.046875.34375.0625s.0625.136719.0625.34375c0-.125-.140625.316406-.40625.875s-.59375 1.3125-.59375 2.21875v8.5h-4v-8c0-1.367187-.597656-2.550781-1.125-3.5-.261719-.472656-.519531-.914062-.6875-1.21875-.0625-.117187-.097656-.203125-.125-.28125zm15 0c.234375.070313 3.425781 1 6.53125 1 .335938 0 .332031.046875.34375.0625s.0625.136719.0625.34375c0-.125-.140625.316406-.40625.875s-.59375 1.3125-.59375 2.21875v8.5h-4v-8c0-1.367187-.597656-2.550781-1.125-3.5-.261719-.472656-.519531-.914062-.6875-1.21875-.0625-.117187-.097656-.203125-.125-.28125zm-28.25 15h34.375c2.679688 0 4.8125 2.078125 4.8125 4.5v3.65625c-.523437.476563-1.253906.84375-2 .84375-1.65625 0-3-1.34375-3-3 0-.03125 0-.0625 0-.09375-.003906-.0625-.015625-.125-.03125-.1875-.007812-.042969-.019531-.085937-.03125-.125-.027344-.054687-.058594-.105469-.09375-.15625-.148437-.230469-.386719-.386719-.65625-.4375-.132812-.027344-.273437-.027344-.40625 0-.191406.042969-.363281.140625-.5.28125-.023437.03125-.042969.0625-.0625.09375-.023437.019531-.042969.039063-.0625.0625v.03125c-.023437.019531-.042969.039063-.0625.0625-.011719.03125-.023437.0625-.03125.09375-.027344.058594-.046875.125-.0625.1875-.003906.042969-.003906.082031 0 .125v.0625c0 1.65625-1.34375 3-3 3s-3-1.34375-3-3c0-.03125 0-.0625 0-.09375-.003906-.0625-.015625-.125-.03125-.1875-.007812-.042969-.019531-.085937-.03125-.125-.019531-.023437-.039062-.042969-.0625-.0625-.007812-.03125-.019531-.0625-.03125-.09375-.0625-.082031-.136719-.15625-.21875-.21875-.046875-.046875-.101562-.089844-.15625-.125-.03125-.011719-.0625-.023437-.09375-.03125-.058594-.027344-.125-.046875-.1875-.0625-.132812-.027344-.273437-.027344-.40625 0-.191406.042969-.363281.140625-.5.28125v.03125c-.046875.039063-.085937.078125-.125.125v.03125c-.023437.019531-.042969.039063-.0625.0625-.027344.058594-.046875.125-.0625.1875-.011719.03125-.023437.0625-.03125.09375v.03125c-.003906.050781-.003906.105469 0 .15625 0 1.65625-1.34375 3-3 3s-3-1.34375-3-3c0-.03125 0-.0625 0-.09375-.003906-.0625-.015625-.125-.03125-.1875-.007812-.042969-.019531-.085937-.03125-.125-.027344-.054687-.058594-.105469-.09375-.15625-.148437-.230469-.386719-.386719-.65625-.4375-.132812-.027344-.273437-.027344-.40625 0-.0625.015625-.128906.035156-.1875.0625-.054687.027344-.105469.058594-.15625.09375-.054687.035156-.109375.078125-.15625.125-.023437.03125-.042969.0625-.0625.09375-.023437.019531-.042969.039063-.0625.0625v.03125c-.074219.105469-.125.21875-.15625.34375-.003906.042969-.003906.082031 0 .125v.0625c0 1.65625-1.34375 3-3 3s-3-1.34375-3-3c0-.03125 0-.0625 0-.09375-.003906-.0625-.015625-.125-.03125-.1875-.007812-.042969-.019531-.085937-.03125-.125-.027344-.054687-.058594-.105469-.09375-.15625-.148437-.230469-.386719-.386719-.65625-.4375-.132812-.027344-.273437-.027344-.40625 0-.191406.042969-.363281.140625-.5.28125-.023437.03125-.042969.0625-.0625.09375-.023437.019531-.042969.039063-.0625.0625v.03125c-.023437.019531-.042969.039063-.0625.0625-.011719.03125-.023437.0625-.03125.09375-.027344.058594-.046875.125-.0625.1875-.003906.042969-.003906.082031 0 .125v.0625c0 1.65625-1.34375 3-3 3s-3-1.34375-3-3c0-.03125 0-.0625 0-.09375s0-.0625 0-.09375c-.011719-.074219-.035156-.148437-.0625-.21875-.019531-.023437-.039062-.042969-.0625-.0625-.023437-.066406-.054687-.128906-.09375-.1875-.019531-.023437-.039062-.042969-.0625-.0625-.03125-.023437-.0625-.042969-.09375-.0625-.199219-.175781-.457031-.265625-.71875-.25-.042969.007813-.085937.019531-.125.03125-.464844.105469-.792969.523438-.78125 1 0 1.65625-1.34375 3-3 3-.808594 0-1.5-.28125-2-.78125v-3.71875c0-2.539062 2.113281-4.5 4.8125-4.5zm1.1875 8.96875c.914063 1.21875 2.371094 2.03125 4 2.03125s3.085938-.8125 4-2.03125c.914063 1.21875 2.371094 2.03125 4 2.03125s3.085938-.8125 4-2.03125c.914063 1.21875 2.371094 2.03125 4 2.03125s3.085938-.8125 4-2.03125c.914063 1.21875 2.371094 2.03125 4 2.03125s3.085938-.8125 4-2.03125c.914063 1.21875 2.371094 2.03125 4 2.03125.71875 0 1.394531-.160156 2-.4375v7.4375h-44v-7.4375c.625.273438 1.292969.4375 2 .4375 1.628906 0 3.085938-.8125 4-2.03125z"/></svg>