<svg fill="#666" height="50" viewBox="0 0 50 50" width="50" xmlns="http://www.w3.org/2000/svg"><path d="m37.90625-.03125c-.042969.0078125-.085937.0195312-.125.03125-.375.0664063-.675781.339844-.78125.703125-.105469.367188.003906.757813.28125 1.015625l1.28125 1.28125-7.5625 7.5625-1.0625-1.03125c-.050781-.09375-.113281-.175781-.1875-.25l-.15625-.125c-.03125-.023437-.0625-.042969-.09375-.0625l-2.78125-2.8125c-.207031-.222656-.507812-.335937-.8125-.3125-.042969.007813-.085937.019531-.125.03125-.375.066406-.675781.339844-.78125.703125-.105469.367188.003906.757813.28125 1.015625l2.28125 2.28125-21.28125 21.28125c-.25.253906-.347656.625-.25.96875l1.75 6.96875-6.78125 6.78125v4l8.78125-8.78125 6.96875 1.75c.34375.097656.714844 0 .96875-.25l21.28125-21.28125 2.28125 2.28125c.398438.398438 1.039063.398438 1.4375 0 .398438-.398437.398438-1.039062 0-1.4375l-2.875-2.875c-.082031-.113281-.191406-.210937-.3125-.28125l-1.09375-1.125 7.5625-7.5625 1.28125 1.28125c.398438.398438 1.039063.398438 1.4375 0 .398438-.398437.398438-1.039062 0-1.4375l-10-10c-.207031-.2226562-.507812-.3359375-.8125-.3125zm2.09375 4.46875 4.5625 4.5625-7.5625 7.5625-4.5625-4.5625zm-11 7 8.5625 8.5625-20.875 20.875-6.875-1.6875-1.6875-6.875 1.375-1.375c.03125.023438.0625.042969.09375.0625l3.6875 3.71875c.398438.398438 1.039063.398438 1.4375 0 .398438-.398437.398438-1.039062 0-1.4375l-3.71875-3.6875c-.019531-.023437-.039062-.042969-.0625-.0625l2.5625-2.59375h.03125c.019531.023438.039063.042969.0625.0625l1.6875 1.71875c.398438.398438 1.039063.398438 1.4375 0 .398438-.398437.398438-1.039062 0-1.4375l-1.71875-1.6875c-.019531-.023437-.039062-.042969-.0625-.0625l2.59375-2.59375c.019531.023438.039063.042969.0625.0625l3.6875 3.71875c.398438.398438 1.039063.398438 1.4375 0 .398438-.398437.398438-1.039062 0-1.4375l-3.71875-3.6875c-.019531-.023437-.039062-.042969-.0625-.0625l2.59375-2.59375c.019531.023438.039063.042969.0625.0625l1.6875 1.71875c.398438.398438 1.039063.398438 1.4375 0 .398438-.398437.398438-1.039062 0-1.4375l-1.71875-1.6875c-.019531-.023437-.039062-.042969-.0625-.0625l2.59375-2.59375c.019531.023438.039063.042969.0625.0625l3.6875 3.71875c.398438.398438 1.039063.398438 1.4375 0 .398438-.398437.398438-1.039062 0-1.4375l-3.71875-3.6875c-.019531-.023437-.039062-.042969-.0625-.0625z"/></svg>