<svg fill="#666" height="50" viewBox="0 0 50 50" width="50" xmlns="http://www.w3.org/2000/svg"><path d="m26.046875 6.921875-7.488281 12.9375c-.019531.027344-.035156.054688-.050781.085938l-3.722657 6.425781-3.035156-3.035156-9.882812 18.664062h2.265625l8.117187-15.335937 2.964844 2.960937 4.441406-7.675781 2.765625 2.367187 3.5-3 3.5 3 2.347656-2.015625 8.121094 15.664063 2.03125-3.042969 3.933594 7.078125h2.289062l-6.066406-10.921875-1.96875 2.957031-7.019531-13.535156c0-.003906 0-.003906 0-.003906-.039063-.179688-.125-.34375-.246094-.476563zm-.09375 4.15625 4.875 9.402344-1.40625 1.203125-3.5-3-3.5 3-1.746094-1.496094z"/></svg>