<svg fill="#666" height="50" viewBox="0 0 50 50" width="50" xmlns="http://www.w3.org/2000/svg"><path d="m13.59375 0c-1.53125 0-2.910156 1.011719-3.21875 2.53125v.03125l-.25 1.4375h-.125c-1.992187 0-3.394531 1.390625-4.09375 2.96875s-.90625 3.417969-.90625 5.03125c0 .550781.449219 1 1 1h1.15625l4.9375 34.875v.03125c.210938 1.304688 1.382813 2.09375 2.65625 2.09375h20.5c1.273438 0 2.445313-.792969 2.65625-2.09375 0-.011719 0-.019531 0-.03125l4.9375-34.875h1.15625c.550781 0 1-.449219 1-1 0-1.613281-.207031-3.453125-.90625-5.03125s-2.101562-2.96875-4.09375-2.96875h-.125l-.25-1.4375c0-.011719 0-.019531 0-.03125-.308594-1.519531-1.6875-2.53125-3.21875-2.53125zm0 2h22.8125c.5625 0 1.167969.503906 1.25.90625l.15625 1.09375h-25.625l.15625-1.09375c.082031-.402344.6875-.90625 1.25-.90625zm-2.46875 3.96875h.0625c.0625.015625.125.027344.1875.03125h27.1875c.0625-.003906.125-.015625.1875-.03125h.03125.0625c.050781.015625.101563.023438.15625.03125h1c1.152344 0 1.765625.621094 2.28125 1.78125.390625.886719.480469 2.082031.5625 3.21875h-35.6875c.082031-1.136719.171875-2.332031.5625-3.21875.515625-1.160156 1.128906-1.78125 2.28125-1.78125h1c.042969-.007812.085938-.019531.125-.03125zm-1.96875 7.03125h31.6875l-1.5625 11h-5.28125c-1.5625-4.042969-4.921875-7-9-7s-7.4375 2.957031-9 7h-5.28125zm15.84375 6c3.304688 0 6.230469 2.542969 7.4375 6.3125.132813.40625.511719.683594.9375.6875h5.625l-.84375 6h-4.78125c-.425781.003906-.804687.28125-.9375.6875-1.207031 3.769531-4.132812 6.3125-7.4375 6.3125-3.304687 0-6.230469-2.542969-7.4375-6.3125-.132812-.40625-.511719-.683594-.9375-.6875h-4.78125l-.84375-6h5.625c.425781-.003906.804688-.28125.9375-.6875 1.207031-3.769531 4.132813-6.3125 7.4375-6.3125zm0 4c-2.886719 0-5 2.804688-5 6 0 3.195313 2.113281 6 5 6s5-2.804687 5-6c0-3.195312-2.113281-6-5-6zm0 2c1.535156 0 3 1.671875 3 4s-1.464844 4-3 4-3-1.671875-3-4 1.464844-4 3-4zm-12.875 9h3.875c1.5625 4.042969 4.921875 7 9 7s7.4375-2.957031 9-7h3.875l-1.9375 13.5625c-.015625.105469-.347656.4375-.6875.4375h-20.5c-.339844 0-.671875-.332031-.6875-.4375z"/></svg>