<svg fill="#666" height="50" viewBox="0 0 50 50" width="50" xmlns="http://www.w3.org/2000/svg"><path d="m25 2c-12.690705 0-23 10.309295-23 23s10.309295 23 23 23 23-10.309295 23-23-10.309295-23-23-23zm0 2c11.609824 0 21 9.390176 21 21s-9.390176 21-21 21-21-9.390176-21-21 9.390176-21 21-21zm-9.099609 9 7.099609 12.300781h-3.5v1.5h4.300781l.199219.298828v2.5h-4.5v1.5h4.5v5.900391h2.099609v-5.900391h4.59961v-1.5h-4.59961v-2.5l.201172-.298828h4.398438v-1.5h-3.699219l7.099609-12.300781h-2.298828l-6.800781 12.300781-6.699219-12.300781z"/></svg>