<svg fill="#666" height="50" viewBox="0 0 50 50" width="50" xmlns="http://www.w3.org/2000/svg"><path d="m15.5 1c-.15625.015625-.304687.070313-.4375.15625l-14.59375 9.40625c-.269531.175781-.4375.472656-.4492187.796875-.0117188.320313.1328127.628906.3867187.828125l8.9375 6.78125-8.9375 6.71875c-.277344.199219-.4375.527344-.4179688.871094.0195313.339844.2109378.648437.5117188.816406l8.5 5v6.71875c-.003906.335938.160156.652344.4375.84375l15 9.90625c.339844.230469.785156.230469 1.125 0l15-9.8125c.277344-.191406.441406-.507812.4375-.84375v-6.75l8.5-5.09375c.269531-.164062.445313-.445312.476563-.757812s-.085938-.625-.320313-.835938l-8.40625-7.125 8.375-6.84375c.25-.203125.390625-.515625.371094-.835937-.019531-.324219-.191406-.617188-.464844-.789063l-14.1875-9c-.203125-.132812-.445312-.1875-.6875-.15625-.183594.023438-.355469.101563-.5.21875l-9.125 7.59375-8.78125-7.5625c-.203125-.183594-.476562-.273437-.75-.25zm.03125 2.25 7.8125 6.71875-12.3125 7.8125-8.28125-6.3125zm19.34375 0 12.40625 7.84375-7.6875 6.28125-12.84375-7.4375zm-9.875 8.03125 12.75 7.34375-12.78125 8-12.09375-7.625zm14.59375 8.53125 7.71875 6.5625-7.625 4.5625-.09375.03125c-.089844.039063-.175781.09375-.25.15625l-4.65625 2.78125-7.9375-6.03125zm-28.53125.40625 12.1875 7.65625-7.71875 6.03125-12.71875-7.5zm13.96875 8.84375 8.96875 6.84375c.328125.25.773438.273438 1.125.0625l3.875-2.3125v5l-14 9.125-14-9.25v-4.96875l4.09375 2.40625c.359375.203125.804688.167969 1.125-.09375z"/></svg>