<svg fill="#666" height="50" viewBox="0 0 50 50" width="50" xmlns="http://www.w3.org/2000/svg"><path d="m5 4c-1.6449698 0-3 1.3550302-3 3v9 10 17c0 1.64497 1.3550302 3 3 3h40c1.64497 0 3-1.35503 3-3v-32c0-1.6449698-1.35503-3-3-3h-27c.08657 0-.03101.000364-.275391-.28125-.244382-.281614-.54519-.7488088-.859375-1.25-.314184-.5011912-.643457-1.0359601-1.058593-1.5058594-.415137-.4698992-.987887-.9628906-1.806641-.9628906zm0 2h9c-.06075 0 .06114.00701.308594.2871094.247457.2801007.548637.7453318.861328 1.2441406s.636507 1.031614 1.042969 1.5c.406461.468386.966036.96875 1.787109.96875h27c.56503 0 1 .43497 1 1v2.1875c-.314892-.11356-.648157-.1875-1-.1875h-40c-.3518425 0-.6851085.07394-1 .1875v-6.1875c0-.5650302.4349698-1 1-1zm0 9h40c.56503 0 1 .43497 1 1v27c0 .56503-.43497 1-1 1h-40c-.5650302 0-1-.43497-1-1v-27c0-.56503.4349698-1 1-1zm15.714844 5c-3.653468 0-6.714844 2.772122-6.714844 6.267578 0 3.231247 2.727445 6.411033 5.287109 9.007813 2.559665 2.596779 5.109375 4.521484 5.109375 4.521484l.59961.453125.601562-.449219s2.552103-1.902003 5.113282-4.488281c2.561177-2.586278 5.289062-5.778171 5.289062-9.044922 0-3.495456-3.061376-6.267578-6.714844-6.267578-1.720421 0-3.140387.796614-4.285156 1.769531-1.144769-.972917-2.564735-1.769531-4.285156-1.769531zm0 2c1.369494 0 2.658963.738033 3.558594 1.6875l.726562.765625.726562-.765625c.899631-.949467 2.1891-1.6875 3.558594-1.6875 2.656532 0 4.714844 1.945034 4.714844 4.267578 0 2.001249-2.272116 5.17595-4.710938 7.638672-2.138877 2.159839-3.789514 3.386727-4.285156 3.765625-.494866-.382768-2.149965-1.626732-4.291015-3.798828-2.440336-2.475721-4.712891-5.662716-4.712891-7.605469 0-2.322544 2.058312-4.267578 4.714844-4.267578z"/></svg>