<svg fill="#666" height="50" viewBox="0 0 50 50" width="50" xmlns="http://www.w3.org/2000/svg"><path d="m24.90625 7.96875c-.042969.007813-.085937.019531-.125.03125-.464844.105469-.792969.523438-.78125 1v29.53125l-9.1875-9.1875c-.1875-.199219-.445312-.308594-.71875-.3125-.40625.003906-.769531.25-.921875.628906-.148437.375-.058594.808594.234375 1.089844l10.875 10.90625.71875.6875.71875-.6875 10.875-10.90625c.296875-.242187.433594-.628906.347656-1.003906-.085937-.371094-.378906-.664063-.75-.75-.375-.085938-.761718.050781-1.003906.347656l-9.1875 9.1875v-29.53125c.011719-.289062-.105469-.566406-.3125-.761719-.210937-.199218-.496094-.296875-.78125-.269531z"/></svg>