<svg fill="#666" height="50" viewBox="0 0 50 50" width="50" xmlns="http://www.w3.org/2000/svg"><path d="m24 2c-12.136719 0-22 9.863281-22 22s9.863281 22 22 22c2.058594 0 4.070313-.296875 6-.84375v-3.859375c-1.496094 1.445313-3.191406 2.371094-5 2.625v-7.921875h5v-2h-5v-9h5v-2h-5v-9h9.371094c.894531 2.582031 1.460937 5.519531 1.585937 8.660156l1.042969.980469.988281.921875.464844.4375h5.511719c-.078125 1.527344-.320313 3.027344-.734375 4.480469l1.617187 1.515625c.753907-2.238281 1.152344-4.589844 1.152344-6.996094 0-12.136719-9.863281-22-22-22zm-1 2.082031v7.917969h-8.558594c.375-.824219.773438-1.609375 1.214844-2.320312 1.996094-3.222657 4.570313-5.207032 7.34375-5.597657zm2 0c3.503906.484375 6.578125 3.484375 8.578125 7.917969h-8.578125zm6.5 1.371094c3.398438 1.375 6.320313 3.660156 8.488281 6.546875h-4.269531c-1.09375-2.628906-2.535156-4.859375-4.21875-6.546875zm-15.074219.039063c-.902343.910156-1.738281 1.953125-2.46875 3.132812-.640625 1.035156-1.210937 2.167969-1.707031 3.375h-4.230469c2.152344-2.863281 5.042969-5.132812 8.40625-6.507812zm-9.734375 8.507812h4.828125c-.878906 2.726563-1.398437 5.773438-1.488281 9h-6.007812c.164062-3.273437 1.121093-6.328125 2.667968-9zm6.945313 0h9.363281v9h-10.96875c.097656-3.273437.667969-6.335937 1.605469-9zm22.816406 0h4.871094c1.542969 2.671875 2.488281 5.730469 2.648437 9h-6.003906c-.09375-3.230469-.625-6.277344-1.515625-9zm-32.429687 11h6.007812c.089844 3.226563.609375 6.273438 1.488281 9h-4.828125c-1.546875-2.671875-2.503906-5.726562-2.667968-9zm8.007812 0h10.96875v9h-9.363281c-.9375-2.664062-1.507813-5.726562-1.605469-9zm21.921875 0c-.53125.027344-.953125.464844-.953125 1v19.25c0 .40625.242188.769531.617188.921875.375.15625.804687.070313 1.089843-.214844l3.011719-3.015625 2.511719 5.476563c.230469.5.824219.71875 1.328125.488281l3.859375-1.765625c.5-.230469.71875-.824219.488281-1.328125l-2.605469-5.6875h4.699219c.410156 0 .78125-.25.929688-.632812.152343-.382813.054687-.816407-.246094-1.097657l-14-13.125c-.199219-.183593-.460938-.28125-.730469-.269531zm1.046875 3.308594 10.46875 9.816406h-3.59375c-.15625 0-.308594.035156-.449219.105469l-.105468.054687c-.480469.242188-.6875.820313-.460938 1.308594l2.8125 6.140625-2.042969.9375-2.691406-5.871094c-.132812-.296875-.410156-.507812-.730469-.566406-.324218-.058594-.652343.046875-.882812.28125l-2.324219 2.320313zm-26.980469 7.691406h4.230469c.496094 1.207031 1.066406 2.339844 1.707031 3.375.730469 1.179688 1.566407 2.222656 2.46875 3.132813-3.363281-1.375-6.253906-3.644532-8.40625-6.507813zm6.421875 0h8.558594v7.917969c-2.773437-.390625-5.347656-2.375-7.34375-5.59375-.441406-.714844-.839844-1.5-1.214844-2.324219z"/></svg>