<svg fill="#666" height="50" viewBox="0 0 50 50" width="50" xmlns="http://www.w3.org/2000/svg"><path d="m16.5 2c-1.921875 0-3.5 1.578125-3.5 3.5 0 .546875.148438 1.039063.375 1.5h-.375c-2.199219 0-4 1.800781-4 4 0 .734375.214844 1.40625.5625 2h-.5625c-2.199219 0-4 1.800781-4 4 0 .757813.222656 1.457031.59375 2.0625-2.007812.207031-3.59375 1.878906-3.59375 3.9375s1.585938 3.730469 3.59375 3.9375c-.371094.605469-.59375 1.304688-.59375 2.0625 0 2.199219 1.800781 4 4 4h.5625c-.347656.59375-.5625 1.265625-.5625 2 0 2.199219 1.800781 4 4 4h.375c-.226562.460938-.375.953125-.375 1.5 0 1.921875 1.578125 3.5 3.5 3.5h.6875c-.113281.316406-.1875.648438-.1875 1 0 1.644531 1.355469 3 3 3h10c1.644531 0 3-1.355469 3-3 0-.351562-.074219-.683594-.1875-1h.6875c1.921875 0 3.5-1.578125 3.5-3.5 0-.546875-.148437-1.039062-.375-1.5h.375c2.199219 0 4-1.800781 4-4 0-.734375-.214844-1.40625-.5625-2h.5625c2.199219 0 4-1.800781 4-4 0-.757812-.222656-1.457031-.59375-2.0625 2.007813-.207031 3.59375-1.878906 3.59375-3.9375s-1.585937-3.730469-3.59375-3.9375c.371094-.605469.59375-1.304687.59375-2.0625 0-2.199219-1.800781-4-4-4h-.5625c.347656-.59375.5625-1.265625.5625-2 0-2.199219-1.800781-4-4-4h-.375c.226563-.460937.375-.953125.375-1.5 0-1.921875-1.578125-3.5-3.5-3.5zm0 2h17c.839844 0 1.5.660156 1.5 1.5s-.660156 1.5-1.5 1.5h-3.5c-.03125 0-.0625 0-.09375 0s-.0625 0-.09375 0c-.550781.050781-.957031.542969-.90625 1.09375s.542969.957031 1.09375.90625h7c1.117188 0 2 .882813 2 2 0 1.117188-.882812 2-2 2h-16c-.03125 0-.0625 0-.09375 0-.339844.019531-.644531.207031-.8125.5v.03125c-.128906.226563-.160156.496094-.09375.75l.03125.03125v.0625l.03125.03125c.03125.078125.074219.152344.125.21875l.03125.03125c.070313.085938.15625.160156.25.21875.019531.011719.042969.023438.0625.03125l.03125.03125h.0625l.03125.03125h.0625.03125c.0625.015625.125.027344.1875.03125h.03125.03125 20c1.117188 0 2 .882813 2 2 0 1.117188-.882812 2-2 2h-14c-.359375-.003906-.695312.183594-.878906.496094-.179688.3125-.179688.695312 0 1.007812.183594.3125.519531.5.878906.496094h17c1.117188 0 2 .882813 2 2 0 1.117188-.882812 2-2 2h-9c-.03125 0-.0625 0-.09375 0s-.0625 0-.09375 0c-.550781.050781-.957031.542969-.90625 1.09375s.542969.957031 1.09375.90625h6c1.117188 0 2 .882813 2 2 0 1.117188-.882812 2-2 2h-9c-.03125 0-.0625 0-.09375 0s-.0625 0-.09375 0c-.441406.0625-.789062.40625-.851562.847656-.066407.441407.167968.871094.570312 1.058594l.03125.03125h.0625l.03125.03125h.0625c.039063.011719.082031.023438.125.03125h.09375.03125.03125 5c1.117188 0 2 .882813 2 2 0 1.117188-.882812 2-2 2h-5c-.03125 0-.0625 0-.09375 0-.0625.003906-.125.015625-.1875.03125-.03125.007813-.0625.019531-.09375.03125-.066406.023438-.128906.054688-.1875.09375-.03125.019531-.0625.039063-.09375.0625-.019531.007813-.042969.019531-.0625.03125v.03125c-.046875.039063-.085937.078125-.125.125v.03125c-.023437.019531-.042969.039063-.0625.0625v.03125c-.113281.210938-.144531.453125-.09375.6875.007813.054688.015625.105469.03125.15625l.03125.03125c.019531.03125.039063.0625.0625.09375v.03125l.03125.03125c.007813.019531.019531.042969.03125.0625l.03125.03125.03125.03125c.0625.074219.136719.136719.21875.1875.03125.023438.0625.042969.09375.0625h.0625l.03125.03125h.0625.03125c.03125.011719.0625.023438.09375.03125.042969.003906.082031.003906.125 0h.03125 1.5c.839844 0 1.5.660156 1.5 1.5s-.660156 1.5-1.5 1.5h-8.5c-.164062.003906-.324219.046875-.46875.125-.089844.039063-.175781.09375-.25.15625-.023437.03125-.042969.0625-.0625.09375-.023437.019531-.042969.039063-.0625.0625-.089844.140625-.144531.300781-.15625.46875v.09375c-.003906.175781.039063.347656.125.5.007813.019531.019531.042969.03125.0625.019531.03125.039063.0625.0625.09375.074219.074219.15625.136719.25.1875.019531.023438.039063.042969.0625.0625.097656.046875.203125.078125.3125.09375.050781.003906.105469.003906.15625 0h5c.566406 0 1 .433594 1 1s-.433594 1-1 1h-10c-.566406 0-1-.433594-1-1s.433594-1 1-1h1c.09375.003906.191406-.007812.28125-.03125.03125-.007812.0625-.019531.09375-.03125.066406-.023437.128906-.054687.1875-.09375.03125-.019531.0625-.039062.09375-.0625.261719-.222656.394531-.566406.34375-.90625 0-.03125 0-.0625 0-.09375-.027344-.101562-.070312-.195312-.125-.28125-.007812-.019531-.019531-.042969-.03125-.0625-.113281-.171875-.277344-.300781-.46875-.375-.03125-.011719-.0625-.023437-.09375-.03125-.089844-.023437-.1875-.035156-.28125-.03125h-4.5c-.839844 0-1.5-.660156-1.5-1.5s.660156-1.5 1.5-1.5h1.5c.09375.003906.191406-.007812.28125-.03125.03125-.007812.0625-.019531.09375-.03125.191406-.074219.355469-.203125.46875-.375.023438-.03125.042969-.0625.0625-.09375.144531-.269531.15625-.59375.03125-.875-.019531-.03125-.039062-.0625-.0625-.09375-.050781-.082031-.113281-.15625-.1875-.21875-.019531-.023437-.039062-.042969-.0625-.0625-.175781-.140625-.398437-.21875-.625-.21875h-5c-1.117187 0-2-.882812-2-2 0-1.117187.882813-2 2-2h5c.09375.003906.191406-.007812.28125-.03125.03125-.007812.0625-.019531.09375-.03125.101563-.035156.195313-.089844.28125-.15625.023438-.019531.042969-.039062.0625-.0625.144531-.144531.246094-.328125.28125-.53125 0-.03125 0-.0625 0-.09375.015625-.136719.007813-.273437-.03125-.40625-.007812-.03125-.019531-.0625-.03125-.09375-.09375-.214844-.257812-.394531-.46875-.5-.03125-.011719-.0625-.023437-.09375-.03125-.121094-.042969-.246094-.066406-.375-.0625h-9c-1.117187 0-2-.882812-2-2 0-1.117187.882813-2 2-2h22c.359375.003906.695313-.183594.878906-.496094.179688-.3125.179688-.695312 0-1.007812-.183593-.3125-.519531-.5-.878906-.496094h-25c-1.117187 0-2-.882812-2-2 0-1.117187.882813-2 2-2h17c.359375.003906.695313-.183594.878906-.496094.179688-.3125.179688-.695312 0-1.007812-.183593-.3125-.519531-.5-.878906-.496094h-14c-1.117187 0-2-.882812-2-2 0-1.117187.882813-2 2-2h8c.09375.003906.191406-.007812.28125-.03125.03125-.007812.0625-.019531.09375-.03125.335938-.132812.570313-.429687.625-.785156.050781-.355469-.09375-.710938-.375-.933594-.03125-.023437-.0625-.042969-.09375-.0625-.160156-.101562-.34375-.15625-.53125-.15625h-4c-1.117187 0-2-.882812-2-2 0-1.117187.882813-2 2-2h13c.359375.003906.695313-.183594.878906-.496094.179688-.3125.179688-.695312 0-1.007812-.183593-.3125-.519531-.5-.878906-.496094h-9.5c-.839844 0-1.5-.660156-1.5-1.5s.660156-1.5 1.5-1.5zm8.5 27c-2.210937 0-4 1.789063-4 4 0 2.210938 1.789063 4 4 4 2.210938 0 4-1.789062 4-4 0-2.210937-1.789062-4-4-4z"/></svg>