<svg fill="#666" height="50" viewBox="0 0 50 50" width="50" xmlns="http://www.w3.org/2000/svg"><path d="m25 3c-12.13842 0-22 9.86158-22 22s9.86158 22 22 22 22-9.86158 22-22-9.86158-22-22-22zm0 2c11.05754 0 20 8.94246 20 20s-8.94246 20-20 20-20-8.94246-20-20 8.94246-20 20-20zm-8.009766 10.990234a1.0001 1.0001 0 0 0 -.697265 1.716797l7.292969 7.292969-7.292969 7.292969a1.0001 1.0001 0 1 0 1.414062 1.414062l7.292969-7.292969 7.292969 7.292969a1.0001 1.0001 0 1 0 1.414062-1.414062l-7.292969-7.292969 7.292969-7.292969a1.0001 1.0001 0 0 0 -.726562-1.716797 1.0001 1.0001 0 0 0 -.6875.302735l-7.292969 7.292969-7.292969-7.292969a1.0001 1.0001 0 0 0 -.716797-.302735z"/></svg>