<svg fill="#666" height="50" viewBox="0 0 50 50" width="50" xmlns="http://www.w3.org/2000/svg"><path d="m25 8c-3.546875 0-5.871094.238281-7.34375.5-1.386719.246094-1.988281.53125-2.0625.5625-.003906.003906-.125.03125-.125.03125-1.480469.5-3.734375 1.1875-4.78125 3.21875-.253906.492188-.632812 1.492188-1.1875 2.90625-.425781 1.085938-.925781 2.457031-1.4375 3.78125h-2.96875c-1.484375 0-2.585937.496094-3.25 1.25-.664062.753906-.84375 1.648438-.84375 2.34375 0 .777344.40625 1.554688 1.03125 1.9375.625.382813 1.324219.46875 2.0625.46875h1.65625c-.15625.417969-.6875 1.8125-.6875 1.8125l-.0625.1875v12c0 1.644531 1.355469 3 3 3h4c1.644531 0 3-1.355469 3-3v-1h20v1c0 1.644531 1.355469 3 3 3h4c1.644531 0 3-1.355469 3-3v-12l-.0625-.1875s-.523437-1.390625-.6875-1.8125h1.65625c.738281 0 1.4375-.085937 2.0625-.46875.625-.382812 1.03125-1.160156 1.03125-1.9375 0-.695312-.179687-1.589844-.84375-2.34375-.664062-.753906-1.765625-1.25-3.25-1.25h-2.96875c-.0625-.148437-.125-.292969-.15625-.375-1.082031-2.796875-2.125-5.460937-2.5-6.3125-.957031-2.175781-3.417969-2.84375-4.75-3.21875-.042969-.011719-.117187-.050781-.15625-.0625v.03125c-.09375-.039062-.664062-.316406-2.03125-.5625-1.472656-.261719-3.796875-.5-7.34375-.5zm0 2c3.453125 0 5.671875.261719 7 .5s1.65625.40625 1.65625.40625l.09375.03125.0625.03125c1.21875.347656 3.183594 1.148438 3.625 2.15625.289063.65625 1.425781 3.582031 2.46875 6.25.25.636719.667969 1.675781.53125 2.3125-.070312.320313-.191406.550781-.65625.8125s-1.339844.5-2.78125.5h-24c-1.441406 0-2.316406-.238281-2.78125-.5s-.585937-.492187-.65625-.8125c-.136719-.636719.28125-1.675781.53125-2.3125l-.0625-.03125c.457031-1.191406.925781-2.425781 1.3125-3.40625.550781-1.402344 1.042969-2.527344 1.125-2.6875.554688-1.078125 2.285156-1.8125 3.75-2.3125h.0625l.0625-.03125s.328125-.167969 1.65625-.40625 3.546875-.5 7-.5zm-19.90625 11h2.15625c-.378906.996094-.445312 1.191406-.75 2h-2.40625c-.558594 0-.90625-.097656-1-.15625s-.09375.03125-.09375-.25c0-.363281.101563-.757812.34375-1.03125.242188-.273437.664063-.5625 1.75-.5625zm37.59375 0h2.21875c1.085938 0 1.507813.289063 1.75.5625.242188.273438.34375.667969.34375 1.03125 0 .28125 0 .191406-.09375.25s-.441406.15625-1 .15625h-2.4375c-.320312-.820312-.390625-.988281-.78125-2zm-34.25 2.59375c.230469.242188.496094.476563.8125.65625.902344.507813 2.097656.75 3.75.75h24c1.652344 0 2.847656-.242187 3.75-.75.316406-.179687.582031-.414062.8125-.65625.585938 1.539063 1.402344 3.695313 1.4375 3.78125v7.78125c0 .46875-.390625.84375-.90625.84375h-34.1875c-.515625 0-.90625-.375-.90625-.84375v-7.78125c.03125-.085937.867188-2.257812 1.4375-3.78125zm2.5625 2.40625c-1.644531 0-3 1.355469-3 3 0 .886719.367188 1.675781.875 2.21875.507813.542969 1.121094.910156 1.71875 1.25.847656.480469 1.425781.847656 2.09375 1.125s1.386719.40625 2.3125.40625c2.195313 0 4-1.800781 4-4s-1.804687-4-4-4zm24 0c-2.195312 0-4 1.800781-4 4s1.804688 4 4 4c.925781 0 1.644531-.128906 2.3125-.40625s1.246094-.644531 2.09375-1.125c.597656-.339844 1.210938-.707031 1.71875-1.25.507813-.542969.875-1.332031.875-2.21875 0-1.644531-1.355469-3-3-3zm-24 2h4c1.117188 0 2 .882813 2 2 0 1.117188-.882812 2-2 2-.75 0-1.121094-.066406-1.5625-.25s-.992187-.53125-1.875-1.03125c-.5625-.316406-.976562-.617187-1.21875-.875-.242187-.257812-.34375-.425781-.34375-.84375 0-.5625.4375-1 1-1zm24 0h4c.5625 0 1 .4375 1 1 0 .417969-.101562.585938-.34375.84375-.242187.257813-.65625.558594-1.21875.875-.882812.5-1.433594.847656-1.875 1.03125s-.8125.25-1.5625.25c-1.117187 0-2-.882812-2-2 0-1.117187.882813-2 2-2zm-28 9.84375c.289063.09375.589844.15625.90625.15625h5.09375v1c0 .5625-.4375 1-1 1h-4c-.5625 0-1-.4375-1-1zm36 0v1.15625c0 .5625-.4375 1-1 1h-4c-.5625 0-1-.4375-1-1v-1h5.09375c.316406 0 .617188-.0625.90625-.15625z"/></svg>