<svg fill="#666" height="50" viewBox="0 0 50 50" width="50" xmlns="http://www.w3.org/2000/svg"><path d="m27 3c-1.359375 0-2.554687.546875-3.65625 1.28125-.050781-.007812-5.042969-.777344-8.5-.28125-3.054687.4375-6.277344 1.574219-8.75 4.1875s-4.09375 6.65625-4.09375 12.59375c0 5.566406 2.015625 12.3125 2.0625 12.46875 0 0 .03125.09375.03125.09375l.90625 11.75c.046875.515625.480469.910156 1 .90625h7c.519531.003906.953125-.390625 1-.90625l.90625-10.40625c.769531.121094 1.789063.3125 3.09375.3125 1.3125 0 2.316406-.234375 3.09375-.375l.90625 10.46875c.046875.515625.480469.910156 1 .90625h7c.550781 0 1-.449219 1-1 0-.179687 0-.328125 0-.5.035156-6.769531.722656-10.253906 1.53125-12.75.703125-2.171875 1.496094-3.867187 2.09375-6.1875 1.578125.660156 3.21875 1.136719 4.28125 1.78125 1.335938.808594 2.175781 1.816406 2.09375 4.8125-.027344.992188-.230469 1.800781-.5 2.25s-.457031.59375-1.03125.59375c-.5 0-1.054687-.414062-1.5-.96875-.445312-.554687-.6875-1.09375-.6875-1.09375-.117187-.28125-.351562-.496094-.644531-.578125-.292969-.085937-.605469-.035156-.855469.140625l-2.34375 1.6875c-.359375.265625-.5.738281-.34375 1.15625 0 0 1.863281 4.65625 6.90625 4.65625 1.585938 0 2.984375-.734375 4.03125-1.90625s1.800781-2.742187 2.375-4.65625c1.152344-3.824219 1.59375-9 1.59375-14.84375 0-5.988281-1.800781-9.933594-4.3125-12.34375s-5.652344-3.25-8.15625-3.25c-2.425781 0-3.800781.785156-4.5 1.25-.660156-.488281-1.886719-1.25-4.03125-1.25zm0 2c2.171875 0 3.3125 1.125 3.3125 1.125.363281.363281.945313.390625 1.34375.0625 0 0 1.316406-1.1875 3.875-1.1875 2.0625 0 4.675781.695313 6.75 2.6875 2.074219 1.992188 3.71875 5.3125 3.71875 10.90625 0 5.738281-.453125 10.773438-1.5 14.25-.523437 1.738281-1.183594 3.09375-1.9375 3.9375s-1.539062 1.21875-2.5625 1.21875c-3.125 0-4.21875-1.917969-4.625-2.75l.6875-.5c.144531.238281.128906.261719.34375.53125.625.78125 1.636719 1.71875 3.0625 1.71875 1.191406 0 2.203125-.648437 2.75-1.5625.546875-.914062.75-2.050781.78125-3.25.09375-3.464844-1.269531-5.476562-3.0625-6.5625-1.792969-1.085937-3.824219-1.449219-5.46875-2.3125-.277344-.144531-.605469-.148437-.890625-.011719-.28125.132813-.484375.394532-.546875.699219-.527344 2.816406-1.511719 4.359375-2.40625 7.125-.800781 2.472656-1.402344 6.050781-1.53125 11.9375-.476562.132813-.839844.472656-1 .9375h-.1875c-.203125-.585937-.75-1-1.40625-1s-1.203125.414063-1.40625 1h-1.1875l-.90625-10.5625c-.023437-.285156-.164062-.546875-.390625-.71875-.226562-.171875-.515625-.242187-.796875-.1875 0 0-2.433594.46875-3.8125.46875-1.40625 0-3.84375-.40625-3.84375-.40625-.273437-.042969-.558594.027344-.777344.199219s-.355468.429687-.378906.707031l-.8125 9.53125c-.519531.105469-.921875.476563-1.09375.96875h-.1875c-.203125-.585937-.75-1-1.40625-1s-1.203125.414063-1.40625 1h-1.15625l-.875-11.03125c-.003906-.0625-.015625-.125-.03125-.1875 0 0-2.03125-6.878906-2.03125-12 0-5.578125 1.460938-9.03125 3.53125-11.21875 2.070313-2.1875 4.851563-3.164062 7.625-3.5625 1.960938-.28125 4.390625-.113281 6.09375.0625-1.378906 1.699219-2.25 3.863281-2.25 6 0 7.769531 3.628906 14.785156 8.625 16.875.433594.167969.925781.011719 1.1875-.375.234375-.347656.472656-.8125.78125-1.46875s.675781-1.457031 1.0625-2.375c.773438-1.839844 1.636719-4.058594 2.3125-6.03125.179688-.527344-.097656-1.101562-.625-1.28125-.527344-.179687-1.101562.097656-1.28125.625-.652344 1.910156-1.492187 4.105469-2.25 5.90625-.378906.902344-.738281 1.6875-1.03125 2.3125-.066406.144531-.0625.15625-.125.28125-3.484375-2.042969-6.65625-7.820312-6.65625-14.46875 0-1.601562.707031-3.441406 1.84375-4.8125s2.644531-2.25 4.15625-2.25zm14 10c-.554687 0-1 .449219-1 1s.445313 1 1 1c.554688 0 1-.449219 1-1s-.445312-1-1-1z"/></svg>