<svg fill="#666" height="50" viewBox="0 0 50 50" width="50" xmlns="http://www.w3.org/2000/svg"><path d="m25 2c-12.690705 0-23 10.309295-23 23s10.309295 23 23 23 23-10.309295 23-23-10.309295-23-23-23zm0 2c11.609824 0 21 9.390176 21 21s-9.390176 21-21 21-21-9.390176-21-21 9.390176-21 21-21zm-1.199219 10.300781c-.3 0-.40039.198438-.40039.398438v13.5c0 .3.20039.40039.40039.40039h2.298828c.3 0 .400391-.20039.400391-.40039v-13.5c0-.3-.200391-.398438-.400391-.398438zm0 18c-.3 0-.40039.198438-.40039.398438v2.601562c0 .3.20039.398438.40039.398438h2.398438c.3 0 .40039-.198438.40039-.398438v-2.601562c0-.3-.20039-.398438-.40039-.398438z"/></svg>