<svg fill="#666" height="50" viewBox="0 0 50 50" width="50" xmlns="http://www.w3.org/2000/svg"><path d="m25.125 2c-.300781.003906-.601562.023438-.90625.0625-.613281.078125-1.28125.277344-1.8125.8125l-19.625 19.625c-1.019531 1.019531-1.019531 2.699219 0 3.71875l5.6875 5.71875c.046875.046875.101563.089844.15625.125.015625.015625.046875.015625.0625.03125l.03125.03125c.027344.027344.035156.066406.0625.09375l15 15c1.019531 1.019531 2.699219 1.019531 3.71875 0l19.625-19.625c.527344-.527344.734375-1.203125.8125-1.8125s.0625-1.210937.0625-1.78125v-.125c0-.09375 0-.230469 0-.40625 0-.113281 0-.324219 0-.46875 0-.296875 0-.566406 0-.96875 0-1.195312 0-2.808594 0-4.40625 0-3.195312 0-6.394531 0-6.46875 0-1.734375-1.425781-3.15625-3.15625-3.15625h-2.84375v-2.84375c0-1.734375-1.421875-3.15625-3.15625-3.15625h-12.84375c-.277344 0-.574219-.003906-.875 0zm.03125 2h.84375 12.84375c.652344 0 1.15625.503906 1.15625 1.15625v2.84375h-3.75c-.039062-.042969-.082031-.082031-.125-.125-.582031-.582031-1.355469-.875-2.125-.875s-1.542969.292969-2.125.875c-.042969.042969-.085937.082031-.125.125-.488281-.003906-1.007812-.003906-1.53125.0625-.613281.078125-1.28125.277344-1.8125.8125l-19.625 19.625c-.15625.15625-.296875.320313-.40625.5l-4.1875-4.1875c-.257812-.257812-.253906-.652344 0-.90625l19.625-19.625c.105469-.105469.304688-.199219.6875-.25.191406-.023437.402344-.03125.65625-.03125zm6 6h13.6875c.652344 0 1.15625.503906 1.15625 1.15625v6.46875 4.40625 1.4375.40625.09375.03125c0 .605469.019531 1.152344-.03125 1.53125s-.140625.546875-.25.65625l-19.625 19.625c-.257812.257813-.652344.253906-.90625 0l-15-15c-.257812-.257812-.253906-.652344 0-.90625l19.625-19.625c.105469-.105469.304688-.199219.6875-.25.191406-.023437.402344-.03125.65625-.03125zm8.84375 3c-.769531 0-1.542969.292969-2.125.875-1.164062 1.164063-1.164062 3.085938 0 4.25 1.164063 1.164063 3.085938 1.164063 4.25 0 1.164063-1.164062 1.164063-3.085937 0-4.25-.582031-.582031-1.355469-.875-2.125-.875zm0 2c.253906 0 .519531.082031.71875.28125.398438.398438.398438 1.039063 0 1.4375-.398437.398438-1.039062.398438-1.4375 0-.398437-.398437-.398437-1.039062 0-1.4375.199219-.199219.464844-.28125.71875-.28125z"/></svg>