<svg fill="#666" height="50" viewBox="0 0 50 50" width="50" xmlns="http://www.w3.org/2000/svg"><path d="m10 4c-1.644531 0-3 1.355469-3 3v1h.414063c.175781.433594.421875.832031.726562 1.15625-3.804687 4.125-6.140625 9.644531-6.140625 15.707031 0 8.53125 4.597656 15.992188 11.4375 20l.234375.136719h22.65625l.234375-.136719c6.839844-4.007812 11.4375-11.46875 11.4375-20 0-6.0625-2.335937-11.582031-6.140625-15.707031.304688-.324219.550781-.722656.722656-1.15625h.417969v-1c0-1.644531-1.355469-3-3-3zm0 2h30c.554688 0 1 .445313 1 1 0 .554688-.445312 1-1 1h-30c-.554687 0-1-.445312-1-1 0-.554687.445313-1 1-1zm.144531 4h29.710938c1.207031 1.222656 2.25 2.601563 3.140625 4.082031-.519531-.058593-1.015625-.097656-1.429688-.078125-7.574218.011719-15.324218 3.996094-21.964843 3.996094-5.460938 0-9.582032-1.015625-13.265625-2.722656 1-1.949219 2.285156-3.734375 3.808593-5.277344zm31.511719 6c.238281-.015625.972656.03125 1.609375.128906.316406.050782.621094.109375.847656.167969.023438.007813.035157.011719.054688.019531 1.167969 2.609375 1.832031 5.492188 1.832031 8.546875 0 7.730469-4.132812 14.449219-10.273437 18.136719h-21.453125c-6.140625-3.6875-10.273438-10.40625-10.273438-18.136719 0-2.753906.535156-5.371093 1.492188-7.769531 3.9375 1.816406 8.398437 2.90625 14.109375 2.90625 7.410156 0 15.152343-4 22-4zm-7.15625 3c-.828125 0-1.5.671875-1.5 1.5s.671875 1.5 1.5 1.5 1.5-.671875 1.5-1.5-.671875-1.5-1.5-1.5zm-3 4c-.828125 0-1.5.671875-1.5 1.5s.671875 1.5 1.5 1.5 1.5-.671875 1.5-1.5-.671875-1.5-1.5-1.5zm-17.5 4c.492188.625 1 3.542969 1 5 0 1.445313-.507812 4.375-1 5 1.472656-.625 3.046875-2.667969 3.421875-3.671875.003906 0 .035156-.082031.042969-.09375 1.890625 1.589844 4.234375 3.765625 7.507812 3.765625 3.304688 0 8.027344-3.890625 8.027344-5.554687 0-1.667969-4.722656-4.445313-8.027344-4.445313-4.144531 0-7.339843 3.644531-7.5 3.828125l-.035156-.078125s-.980469-2.5-3.4375-3.75zm21 0c-.550781 0-1 .449219-1 1s.449219 1 1 1 1-.449219 1-1-.449219-1-1-1zm-10.027344 2c2.203125 0 5.046875 1.621094 5.886719 2.511719-.804687 1.144531-3.855469 3.488281-5.886719 3.488281-2.328125 0-4.199218-1.585937-5.851562-2.984375l-.011719-.011719c.644531-.671875 3.082031-3.003906 5.863281-3.003906zm1.027344 1c-.550781 0-1 .449219-1 1s.449219 1 1 1 1-.449219 1-1-.449219-1-1-1z"/></svg>