<svg fill="#666" height="50" viewBox="0 0 50 50" width="50" xmlns="http://www.w3.org/2000/svg"><path d="m38.035156 13.988281c-.40625-.007812-.777343.234375-.941406.605469-.160156.375-.078125.808594.207031 1.097656l7.976563 8.308594h-43.253906c-.359375-.003906-.695313.183594-.875.496094-.183594.3125-.183594.695312 0 1.007812.179687.3125.515625.5.875.496094h43.253906l-7.976563 8.308594c-.382812.398437-.367187 1.03125.03125 1.414062.398438.382813 1.03125.371094 1.414063-.03125l10.265625-10.691406-10.265625-10.691406c-.183594-.199219-.441406-.3125-.710938-.320313z"/></svg>