<svg fill="#666" height="50" viewBox="0 0 50 50" width="50" xmlns="http://www.w3.org/2000/svg"><path d="m25-.03125c-6.0625 0-11.03125 4.804688-11.03125 10.75v12.5625c0 5.945313 4.96875 10.75 11.03125 10.75s11.03125-4.804687 11.03125-10.75v-12.5625c0-5.945312-4.96875-10.75-11.03125-10.75zm0 2.0625c4.984375 0 8.96875 3.882813 8.96875 8.6875v.28125h-5.46875c-.03125 0-.0625 0-.09375 0-.550781.027344-.980469.496094-.953125 1.046875s.496094.980469 1.046875.953125h5.46875v2h-5.46875c-.03125 0-.0625 0-.09375 0-.550781.027344-.980469.496094-.953125 1.046875s.496094.980469 1.046875.953125h5.46875v2h-5.46875c-.03125 0-.0625 0-.09375 0-.550781.027344-.980469.496094-.953125 1.046875s.496094.980469 1.046875.953125h5.46875v2.28125c0 4.804688-3.984375 8.6875-8.96875 8.6875s-8.96875-3.882812-8.96875-8.6875v-2.28125h5.46875c.359375.003906.695313-.183594.878906-.496094.179688-.3125.179688-.695312 0-1.007812-.183593-.3125-.519531-.5-.878906-.496094h-5.46875v-2h5.46875c.359375.003906.695313-.183594.878906-.496094.179688-.3125.179688-.695312 0-1.007812-.183593-.3125-.519531-.5-.878906-.496094h-5.46875v-2h5.46875c.359375.003906.695313-.183594.878906-.496094.179688-.3125.179688-.695312 0-1.007812-.183593-.3125-.519531-.5-.878906-.496094h-5.46875v-.28125c0-4.804687 3.984375-8.6875 8.96875-8.6875zm-15.1875 15.09375c-.410156.085938-.699219.457031-.6875.875v5c0 7.703125 5.546875 14.167969 12.84375 15.59375v6.40625h-6.5c-1.902344 0-3.46875 1.570313-3.46875 3.46875v1.46875h25.875v-1.46875c0-1.898437-1.566406-3.46875-3.46875-3.46875h-6.375v-6.40625c7.296875-1.425781 12.84375-7.890625 12.84375-15.59375v-5c0-.484375-.390625-.875-.875-.875s-.875.390625-.875.875v5c0 7.800781-6.324219 14.125-14.125 14.125s-14.125-6.324219-14.125-14.125v-5c.003906-.25-.101562-.488281-.285156-.65625-.1875-.167969-.433594-.25-.683594-.21875-.03125 0-.0625 0-.09375 0zm14.21875 21.6875c.320313.019531.644531.0625.96875.0625s.648438-.042969.96875-.0625v6.15625h-1.9375zm-8.5625 8.1875h7.28125c.082031.019531.164063.03125.25.03125h4c.074219-.003906.148438-.011719.21875-.03125h7.1875c.640625 0 1.066406.421875 1.28125.96875h-21.5c.214844-.546875.636719-.96875 1.28125-.96875z"/></svg>