<svg fill="#666" height="50" viewBox="0 0 50 50" width="50" xmlns="http://www.w3.org/2000/svg"><path d="m40 0c-5.46875 0-9.933594 4.421875-10 9.875l-14.09375 7.0625c-1.65625-1.21875-3.699219-1.9375-5.90625-1.9375-5.511719 0-10 4.488281-10 10s4.488281 10 10 10c2.207031 0 4.25-.71875 5.90625-1.9375l14.09375 7.0625c.066406 5.453125 4.53125 9.875 10 9.875 5.511719 0 10-4.488281 10-10s-4.488281-10-10-10c-2.125 0-4.097656.675781-5.71875 1.8125l-13.65625-6.8125 13.65625-6.8125c1.621094 1.136719 3.59375 1.8125 5.71875 1.8125 5.511719 0 10-4.488281 10-10s-4.488281-10-10-10zm0 2c4.429688 0 8 3.570313 8 8 0 4.429688-3.570312 8-8 8-1.636719 0-3.140625-.507812-4.40625-1.34375-.125-.417969-.503906-.707031-.9375-.71875-.003906-.003906-.027344.003906-.03125 0-1.394531-1.261719-2.332031-3.027344-2.5625-5 .210938-.351562.1875-.796875-.0625-1.125.101563-4.339844 3.632813-7.8125 8-7.8125zm-9.78125 10c.371094 1.808594 1.230469 3.4375 2.4375 4.75l-12.84375 6.4375c-.339844-1.828125-1.15625-3.476562-2.34375-4.8125zm-20.21875 5c1.851563 0 3.554688.609375 4.90625 1.65625.011719.007813.019531.023438.03125.03125.007813.019531.019531.042969.03125.0625.085938.105469.191406.1875.3125.25.003906.003906.027344-.003906.03125 0 1.496094 1.328125 2.484375 3.222656 2.65625 5.34375-.113281.273438-.101562.582031.03125.84375-.019531.082031-.03125.164063-.03125.25-.121094 2.21875-1.128906 4.191406-2.6875 5.5625-.09375.058594-.179687.132813-.25.21875-1.375 1.113281-3.117187 1.78125-5.03125 1.78125-4.429687 0-8-3.570312-8-8 0-4.429687 3.570313-8 8-8zm9.8125 9.8125 12.84375 6.4375c-1.207031 1.3125-2.066406 2.941406-2.4375 4.75l-12.75-6.375c1.1875-1.335937 2.003906-2.984375 2.34375-4.8125zm20.1875 5.1875c4.429688 0 8 3.570313 8 8 0 4.429688-3.570312 8-8 8-4.429687 0-8-3.570312-8-8 0-2.40625 1.046875-4.566406 2.71875-6.03125.023438-.019531.042969-.039062.0625-.0625.003906-.003906.027344.003906.03125 0 .160156-.066406.300781-.175781.40625-.3125 1.335938-.996094 2.980469-1.59375 4.78125-1.59375z"/></svg>