<svg fill="#666" height="50" viewBox="0 0 50 50" width="50" xmlns="http://www.w3.org/2000/svg"><path d="m24.90625.96875c-.042969.007813-.085937.019531-.125.03125-.464844.105469-.792969.523438-.78125 1v30.5625l-6.28125-6.28125c-.242187-.25-.597656-.355469-.9375-.28125-.375.066406-.675781.339844-.78125.703125-.105469.367188.003906.757813.28125 1.015625l8 8 .71875.6875.71875-.6875 8-8c.398438-.398437.398438-1.039062 0-1.4375-.398437-.398437-1.039062-.398437-1.4375 0l-6.28125 6.28125v-30.5625c.011719-.289062-.105469-.566406-.3125-.761719-.210937-.199218-.496094-.296875-.78125-.269531zm-17.90625 15.03125v34h36v-34h-10c-.359375-.003906-.695312.183594-.878906.496094-.179688.3125-.179688.695312 0 1.007812.183594.3125.519531.5.878906.496094h8v30h-32v-30h8c.359375.003906.695313-.183594.878906-.496094.179688-.3125.179688-.695312 0-1.007812-.183593-.3125-.519531-.5-.878906-.496094z"/></svg>