<svg fill="#666" height="50" viewBox="0 0 50 50" width="50" xmlns="http://www.w3.org/2000/svg"><path d="m25 2c-12.690705 0-23 10.309295-23 23s10.309295 23 23 23 23-10.309295 23-23-10.309295-23-23-23zm0 2c11.609824 0 21 9.390176 21 21s-9.390176 21-21 21-21-9.390176-21-21 9.390176-21 21-21zm-1.220703 8.904297c-.215 0-.357422.144375-.357422.359375v2.61914c0 .215001.141422.357422.357422.357422h2.439453c.214 0 .357422-.142421.357422-.357422v-2.61914c0-.215-.142422-.359375-.357422-.359375zm.072265 7.208984c-.213999 0-.357421.144375-.357421.359375v16.462891c0 .215.142422.357422.357421.357422h2.294922c.215 0 .359375-.141422.359375-.357422v-16.462891c0-.215-.143375-.359375-.359375-.359375z"/></svg>