<svg fill="#666" height="50" viewBox="0 0 50 50" width="50" xmlns="http://www.w3.org/2000/svg"><path d="m25 0c-1.0625 0-2.132812.382813-2.96875 1.15625-.011719.011719-.019531.019531-.03125.03125l-20.8125 20.90625c-1.59375 1.59375-1.578125 4.199219-.03125 5.875l.03125.03125 20.8125 20.8125c1.59375 1.59375 4.199219 1.578125 5.875.03125l.03125-.03125 20.8125-20.8125c1.664063-1.664062 1.6875-4.3125.09375-5.90625l-20.90625-20.90625c-.796875-.796875-1.84375-1.1875-2.90625-1.1875zm-.03125 2c.5625 0 1.128906.191406 1.53125.59375l20.90625 20.90625c.808594.808594.8125 2.15625-.125 3.09375l-20.75 20.78125c-.011719.011719-.019531.023438-.03125.03125-.925781.824219-2.296875.796875-3.09375 0l-20.78125-20.78125c-.011719-.011719-.019531-.019531-.03125-.03125-.410156-.460937-.597656-1.035156-.59375-1.59375 0-.140625.003906-.269531.03125-.40625.078125-.40625.261719-.792969.5625-1.09375l20.78125-20.875.03125-.03125c.457031-.40625 1.011719-.59375 1.5625-.59375zm-.0625 10.96875c-.042969.007813-.085937.019531-.125.03125-.464844.105469-.792969.523438-.78125 1v19.5625l-5.28125-5.28125c-.144531-.144531-.328125-.246094-.53125-.28125-.132812-.027344-.273437-.027344-.40625 0-.375.066406-.675781.339844-.78125.703125-.105469.367188.003906.757813.28125 1.015625l6.875 6.84375c.074219.113281.167969.207031.28125.28125l.5625.5625.5625-.5625c.03125-.019531.0625-.039062.09375-.0625l.0625-.0625c0-.011719 0-.019531 0-.03125.023438-.019531.042969-.039062.0625-.0625l6.9375-6.90625c.398438-.398437.398438-1.039062 0-1.4375-.398437-.398437-1.039062-.398437-1.4375 0l-5.28125 5.28125v-19.5625c0-.03125 0-.0625 0-.09375s0-.0625 0-.09375c-.011719-.074219-.035156-.148437-.0625-.21875-.019531-.023437-.039062-.042969-.0625-.0625-.023437-.066406-.054687-.128906-.09375-.1875-.019531-.023437-.039062-.042969-.0625-.0625-.03125-.023437-.0625-.042969-.09375-.0625-.199219-.175781-.457031-.265625-.71875-.25z"/></svg>