<svg fill="#666" height="50" viewBox="0 0 50 50" width="50" xmlns="http://www.w3.org/2000/svg"><path d="m5 7c-2.75 0-5 2.25-5 5v26c0 2.75 2.25 5 5 5h40c2.75 0 5-2.25 5-5v-26c0-2.75-2.25-5-5-5zm0 2h40c1.667969 0 3 1.332031 3 3v26c0 1.667969-1.332031 3-3 3h-40c-1.667969 0-3-1.332031-3-3v-26c0-1.667969 1.332031-3 3-3zm3.5625 10.90625-3.71875 8.5h2.21875l.8125-1.90625h4.1875l.8125 1.90625h4.21875v-6.3125l2.8125 6.3125h1.90625l2.84375-6.21875v6.21875h2.09375v-8.5h-3.34375l-2.5625 5.71875-2.5625-5.71875h-3.28125v8.1875l-3.65625-8.1875zm20.9375 0v8.53125h8l2.5-2.84375 2.46875 2.84375h2.65625l-3.75-4.375 3.75-4.15625h-2.65625l-2.40625 2.65625-2.3125-2.65625zm-19.59375 1.78125 1.3125 3h-2.5625zm21.65625.03125 5.09375.03125 2.03125 2.3125-2.28125 2.5625h-4.84375v-1.6875h4.625v-1.625h-4.625z"/></svg>