<svg fill="#666" height="50" viewBox="0 0 50 50" width="50" xmlns="http://www.w3.org/2000/svg"><path d="m24.982422 2a1.0001 1.0001 0 0 0 -.447266.1132812l-20.9999998 10.9999998a1.0001 1.0001 0 0 0 -.5351562.886719v3a1.0001 1.0001 0 0 0 1 1h1v1.400391c0 1.211901.8642937 2.244637 2 2.521484v18.089844h-2.9003906l.1660156.013672c-1.2320211-.207389-2.265625.849305-2.265625 2.005859v2.748047c0 1.180165.9340538 2.220703 2.0996094 2.220703h41.7011716c1.165556 0 2.09961-.962587 2.09961-2.119141v-2.748047c0-1.156553-.934054-2.121093-2.09961-2.121093h-2.800781v-18.089844c1.135706-.276847 2-1.309583 2-2.521484v-1.400391h1a1.0001 1.0001 0 0 0 1-1v-3a1.0001 1.0001 0 0 0 -.535156-.886719l-21-10.9999998a1.0001 1.0001 0 0 0 -.482422-.1132812zm.017578 2.1308594 20 10.4746096v1.394531h-.832031a1.0001 1.0001 0 0 0 -.326172 0h-9.6875a1.0001 1.0001 0 0 0 -.169922-.013672 1.0001 1.0001 0 0 0 -.144531.013672h-3.671875a1.0001 1.0001 0 0 0 -.326172 0h-9.6875a1.0001 1.0001 0 0 0 -.169922-.013672 1.0001 1.0001 0 0 0 -.144531.013672h-3.671875a1.0001 1.0001 0 0 0 -.326172 0h-9.6875001a1.0001 1.0001 0 0 0 -.1699219-.013672 1.0001 1.0001 0 0 0 -.1445312.013672h-.8398438v-1.394531zm-18 13.8691406h8v1.400391c0 .381481-.218128.599609-.599609.599609h-6.8007816c-.3814815 0-.5996094-.218128-.5996094-.599609zm10 0h2v1.400391c0 1.211901.864294 2.244637 2 2.521484v18.089844h-6v-18.089844c1.135706-.276847 2-1.309583 2-2.521484zm4 0h8v1.400391c0 .381481-.218128.599609-.599609.599609h-6.800782c-.381481 0-.599609-.218128-.599609-.599609zm10 0h2v1.400391c0 1.211901.864294 2.244637 2 2.521484v18.089844h-6v-18.089844c1.135706-.276847 2-1.309583 2-2.521484zm4 0h8v1.400391c0 .381481-.218128.599609-.599609.599609h-6.800782c-.381481 0-.599609-.218128-.599609-.599609zm-26 4h4v18h-4zm14 0h4v18h-4zm14 0h4v18h-4zm-33.015625 20.003906a1.0001 1.0001 0 0 0 .1152344.007813h41.7011716c.03444 0 .09961.05565.09961.121093v2.748047c0 .065449-.065165.119141-.09961.119141h-41.7011716c-.0344445 0-.0996094.023132-.0996094-.220703v-2.748047c0-.023115-.0086663-.023509-.015625-.027344z"/></svg>