<svg fill="#666" height="50" viewBox="0 0 50 50" width="50" xmlns="http://www.w3.org/2000/svg"><path d="m26 2c-12.699219 0-17.601562 8.199219-18 16v6.6875c-.699219.800781-1 1.824219-1 3.125 0 2.300781 1.488281 4.1875 3.6875 4.6875 2.601563 6.800781 6.914063 15.5 14.3125 15.5 4 0 7.101563-2.601562 9.5-6h-2.59375c-2.199219 2.699219-4.5 4-7 4-4.800781 0-8.917969-4.8125-12.71875-14.8125l-.1875-.59375-.59375-.09375c-1.300781 0-2.40625-1.1875-2.40625-2.6875 0-.585937.109375-1.078125.28125-1.46875l3.28125 1.5625c.3125.152344.679688.132813.972656-.054687.289063-.183594.46875-.503907.464844-.851563v-7.15625c.691406-.046875 2.511719-.117187 5.53125-.84375 3.175781-.761719 6.839844-2.125 9.375-4.5625 2.683594 3.535156 6.152344 4.90625 7.09375 5.21875v7.34375c-.003906.347656.175781.667969.464844.851563.292969.1875.660156.207031.972656.054687l1.5625-.78125v3.3125c-.160156.035156-.332031.0625-.5.0625l-.59375.09375-.21875.59375c-1 2.601563-2 4.820313-3 6.71875 1.199219-.199219 2.324219-.695312 3.125-1.59375.601563-1.300781 1.09375-2.613281 1.59375-3.8125.199219-.050781.394531-.132812.59375-.21875v.71875c0 3.371094-2.628906 6-6 6h-4.1875c-.417969-1.15625-1.519531-2-2.8125-2h-2c-1.644531 0-3 1.355469-3 3s1.355469 3 3 3h2c1.292969 0 2.394531-.84375 2.8125-2h4.1875c4.429688 0 8-3.570312 8-8v-1c1.644531 0 3-1.355469 3-3v-4c0-1.644531-1.355469-3-3-3v-4c-.398437-8.800781-5.292969-13.800781-13.59375-14l-2-2zm-.40625 2 2 2h.40625c10 0 11.800781 7.5 12 12v4c-.03125 0-.0625 0-.09375 0-.515625.046875-.910156.480469-.90625 1v1.875l-1 .5v-6.375c.003906-.449219-.289062-.84375-.71875-.96875 0 0-4.984375-1.566406-7.4375-5.5625-.199219-.320312-.5625-.5-.9375-.46875-.269531.027344-.519531.160156-.6875.375-1.992187 2.390625-5.785156 3.886719-9.125 4.6875s-6.15625.9375-6.15625.9375c-.527344.03125-.9375.472656-.9375 1v6.40625l-2.09375-1v-6.40625c.601563-10.101562 8.386719-13.898437 15.6875-14zm15.40625 20h1c.554688 0 1 .445313 1 1v4c0 .554688-.445312 1-1 1h-.8125c-.0625-.015625-.125-.027344-.1875-.03125v-4.34375c.015625-.105469.015625-.207031 0-.3125zm-16 15h2c.554688 0 1 .445313 1 1 0 .554688-.445312 1-1 1h-2c-.554687 0-1-.445312-1-1 0-.554687.445313-1 1-1z"/></svg>