<svg fill="#666" height="50" viewBox="0 0 50 50" width="50" xmlns="http://www.w3.org/2000/svg"><path d="m25 0c-1.640625 0-3.132812.808594-4.375 2.125-1.242187 1.316406-2.300781 3.148438-3.15625 5.375-.34375.890625-.65625 1.859375-.9375 2.875-1.003906-.253906-1.976562-.480469-2.90625-.625-1.179687-.1875-2.304687-.28125-3.34375-.28125-1.039062 0-1.996094.105469-2.875.3125-1.761719.414063-3.242187 1.296875-4.0625 2.71875-.820312 1.421875-.863281 3.140625-.34375 4.875s1.59375 3.550781 3.09375 5.40625c.59375.734375 1.273438 1.476563 2 2.21875-.726562.742188-1.40625 1.484375-2 2.21875-1.5 1.855469-2.574219 3.671875-3.09375 5.40625s-.476562 3.453125.34375 4.875c.820313 1.421875 2.300781 2.304688 4.0625 2.71875 1.761719.414063 3.859375.402344 6.21875.03125.929688-.144531 1.902344-.367187 2.90625-.625.28125 1.015625.59375 1.984375.9375 2.875.855469 2.226563 1.914063 4.058594 3.15625 5.375 1.242188 1.316406 2.734375 2.125 4.375 2.125s3.132813-.808594 4.375-2.125c1.242188-1.316406 2.300781-3.148437 3.15625-5.375.34375-.890625.65625-1.859375.9375-2.875 1.003906.257813 1.976563.480469 2.90625.625 2.359375.371094 4.457031.382813 6.21875-.03125 1.761719-.414062 3.242188-1.296875 4.0625-2.71875.820313-1.421875.863281-3.140625.34375-4.875s-1.59375-3.550781-3.09375-5.40625c-.59375-.734375-1.273437-1.476562-2-2.21875.726563-.742187 1.40625-1.484375 2-2.21875 1.5-1.855469 2.574219-3.671875 3.09375-5.40625s.476563-3.453125-.34375-4.875c-.820312-1.421875-2.300781-2.304687-4.0625-2.71875-.878906-.207031-1.835937-.3125-2.875-.3125-1.039062 0-2.164062.09375-3.34375.28125-.929687.144531-1.902344.371094-2.90625.625-.28125-1.015625-.59375-1.984375-.9375-2.875-.855469-2.226562-1.914062-4.058594-3.15625-5.375-1.242187-1.316406-2.734375-2.125-4.375-2.125zm0 2c.988281 0 1.953125.457031 2.9375 1.5s1.925781 2.65625 2.71875 4.71875c.316406.824219.609375 1.726563.875 2.6875-2.074219.640625-4.265625 1.507813-6.53125 2.5625-2.265625-1.054687-4.457031-1.921875-6.53125-2.5625.265625-.960937.558594-1.863281.875-2.6875.792969-2.0625 1.734375-3.675781 2.71875-4.71875s1.949219-1.5 2.9375-1.5zm-14.71875 9.46875c.914063 0 1.941406.078125 3.03125.25.867188.136719 1.792969.347656 2.75.59375-.46875 2.105469-.820312 4.429688-1.03125 6.90625-2.058594 1.4375-3.898437 2.898438-5.5 4.375-.691406-.707031-1.324219-1.410156-1.875-2.09375-1.390625-1.71875-2.304687-3.34375-2.71875-4.71875-.414062-1.375-.339844-2.425781.15625-3.28125s1.355469-1.453125 2.75-1.78125c.699219-.164062 1.523438-.25 2.4375-.25zm29.4375 0c.914063 0 1.738281.085938 2.4375.25 1.394531.328125 2.253906.925781 2.75 1.78125.492188.855469.570313 1.90625.15625 3.28125-.414062 1.375-1.328125 3-2.71875 4.71875-.550781.683594-1.183594 1.386719-1.875 2.09375-1.601562-1.476562-3.441406-2.9375-5.5-4.375-.210937-2.476562-.5625-4.800781-1.03125-6.90625.957031-.246094 1.882813-.457031 2.75-.59375 1.089844-.171875 2.117188-.25 3.03125-.25zm-21.71875 1.40625c1.480469.46875 3.046875 1.023438 4.65625 1.71875-.921875.476563-1.84375.992188-2.78125 1.53125-.929687.535156-1.820312 1.070313-2.6875 1.625.199219-1.738281.480469-3.363281.8125-4.875zm14 0c.332031 1.511719.613281 3.136719.8125 4.875-.867187-.554687-1.761719-1.089844-2.6875-1.625-.9375-.539062-1.859375-1.054687-2.78125-1.53125 1.609375-.695312 3.175781-1.25 4.65625-1.71875zm-7 2.8125c1.355469.660156 2.730469 1.382813 4.125 2.1875 1.382813.796875 2.667969 1.632813 3.90625 2.46875.105469 1.5.1875 3.046875.1875 4.65625s-.082031 3.15625-.1875 4.65625c-1.238281.835938-2.523437 1.671875-3.90625 2.46875-1.394531.804688-2.769531 1.527344-4.125 2.1875-1.355469-.660156-2.730469-1.382812-4.125-2.1875-1.382812-.796875-2.667969-1.632812-3.90625-2.46875-.105469-1.5-.1875-3.046875-.1875-4.65625s.082031-3.15625.1875-4.65625c1.238281-.835937 2.523438-1.667969 3.90625-2.46875 1.394531-.804687 2.769531-1.527344 4.125-2.1875zm0 3.3125c-3.300781 0-6 2.699219-6 6s2.699219 6 6 6 6-2.699219 6-6-2.699219-6-6-6zm0 2c2.222656 0 4 1.777344 4 4s-1.777344 4-4 4-4-1.777344-4-4 1.777344-4 4-4zm-10.15625.8125c-.046875 1.042969-.0625 2.101563-.0625 3.1875 0 1.085938.015625 2.144531.0625 3.1875-1.414062-1.050781-2.664062-2.132812-3.8125-3.1875 1.148438-1.054687 2.398438-2.136719 3.8125-3.1875zm20.3125 0c1.414063 1.050781 2.664063 2.132813 3.8125 3.1875-1.148437 1.054688-2.398437 2.136719-3.8125 3.1875.046875-1.042969.0625-2.101562.0625-3.1875 0-1.085937-.015625-2.144531-.0625-3.1875zm-25.625 4.59375c1.601563 1.472656 3.441406 2.941406 5.5 4.375.210938 2.476563.5625 4.800781 1.03125 6.90625-.957031.246094-1.882812.457031-2.75.59375-2.183594.34375-4.074219.328125-5.46875 0s-2.253906-.925781-2.75-1.78125c-.492187-.855469-.570312-1.9375-.15625-3.3125.414063-1.375 1.328125-2.96875 2.71875-4.6875.550781-.683594 1.183594-1.386719 1.875-2.09375zm30.9375 0c.691406.707031 1.324219 1.410156 1.875 2.09375 1.390625 1.71875 2.304688 3.3125 2.71875 4.6875.414063 1.375.339844 2.457031-.15625 3.3125s-1.355469 1.453125-2.75 1.78125-3.285156.34375-5.46875 0c-.867187-.136719-1.792969-.347656-2.75-.59375.46875-2.105469.820313-4.429687 1.03125-6.90625 2.058594-1.433594 3.898438-2.902344 5.5-4.375zm-23.28125 5.8125c.867188.554688 1.757813 1.089844 2.6875 1.625.941406.542969 1.882813 1.050781 2.8125 1.53125-1.625.703125-3.195312 1.277344-4.6875 1.75-.335937-1.523437-.613281-3.15625-.8125-4.90625zm15.625 0c-.199219 1.75-.476562 3.382813-.8125 4.90625-1.492187-.472656-3.0625-1.046875-4.6875-1.75.929688-.480469 1.871094-.988281 2.8125-1.53125.929688-.535156 1.820313-1.070312 2.6875-1.625zm-7.8125 4.3125c2.265625 1.058594 4.457031 1.917969 6.53125 2.5625-.265625.960938-.558594 1.863281-.875 2.6875-.792969 2.0625-1.734375 3.675781-2.71875 4.71875s-1.949219 1.5-2.9375 1.5-1.953125-.457031-2.9375-1.5-1.925781-2.65625-2.71875-4.71875c-.316406-.824219-.609375-1.726562-.875-2.6875 2.074219-.644531 4.265625-1.503906 6.53125-2.5625z"/></svg>