<svg fill="#666" height="50" viewBox="0 0 50 50" width="50" xmlns="http://www.w3.org/2000/svg"><path d="m14.130859 4c-7.7919996 0-14.130859 6.367359-14.130859 14.193359 0 1.326.12751563 2.591641.35351562 3.806641h2.04687498c-.256-1.213-.4003906-2.478641-.4003906-3.806641 0-6.723 5.4408594-12.193359 12.130859-12.193359 3.69 0 6.818828 1.5625781 9.298829 4.642578.192.24.759765.970703.759765.970703.379.488 1.201078.488 1.580078 0 0-.001.564766-.72775.759766-.96875 2.444-3.0389997 5.673844-4.644531 9.339844-4.644531 6.69 0 12.130859 5.470359 12.130859 12.193359 0 11.599-10.541281 18.688282-18.238281 23.863282-1.806 1.214-3.439625 2.538578-4.765625 3.642578-1.059-.87-3.194766-2.592532-4.759766-3.644531-5.24-3.524001-11.7962186-7.936688-15.4492186-14.054688h-2.3183594c3.719 7.011 10.931344 11.868797 16.652344 15.716797 2.024 1.36 5.204328 4.021828 5.236328 4.048828.172.145.393187.212891.617187.212891.259 0 .521657-.090813.722657-.257813 1.333-1.116 3.159687-2.645906 5.179687-4.003906 8.071-5.428 19.123047-12.859438 19.123047-25.523438 0-7.826-6.338859-14.193359-14.130859-14.193359-4.289 0-8.054625 1.8608594-10.890625 5.3808594-2.835-3.52-6.586657-5.3808594-10.847657-5.3808594zm3.359375 7a1.0001 1.0001 0 0 0 -.96875.798828l-2.800781 13.607422-1.785156-4.757812a1.0001 1.0001 0 0 0 -1.830078-.095704l-1.7226565 3.447266h-6.3828125a1.0001 1.0001 0 1 0 0 2h7a1.0001 1.0001 0 0 0 .8945312-.552734l.9746098-1.949219 2.195312 5.853515a1.0001 1.0001 0 0 0 1.914063-.15039l2.458984-11.947266 3.078125 16.925782a1.0001 1.0001 0 0 0 1.917969.179687l4.054687-10.542969 2.076172 5.535156a1.0001 1.0001 0 0 0 1.783203.177735l2.207032-3.529297h4.716796a2 2 0 0 0 1.728516 1 2 2 0 0 0 2-2 2 2 0 0 0 -2-2 2 2 0 0 0 -1.730469 1h-5.269531a1.0001 1.0001 0 0 0 -.847656.470703l-1.427735 2.283203-2.289062-6.105468a1.0001 1.0001 0 0 0 -1.869141-.007813l-3.720703 9.671875-3.361328-18.492188a1.0001 1.0001 0 0 0 -.994141-.820312z"/></svg>