<svg fill="#666" height="50" viewBox="0 0 50 50" width="50" xmlns="http://www.w3.org/2000/svg"><path d="m7 2v46h36v-32.589844l-13.816406-13.410156zm2 2h19v13h13v29h-32zm21 1.578125 9.707031 9.421875h-9.707031zm-6.230469 14.296875c-.75 0-1.527343.425781-1.867187 1.058594-.34375.628906-.367188 1.304687-.28125 2.007812.132812 1.109375.636719 2.363282 1.289062 3.648438-.324218 1.09375-.480468 2.046875-.96875 3.214844-.621093 1.488281-1.382812 2.667968-2.113281 3.90625-.953125.445312-2.15625.84375-2.859375 1.304687-.789062.519531-1.414062.984375-1.78125 1.722656-.179687.367188-.273437.890625-.09375 1.363282.179688.472656.554688.78125.941406.980468.820313.433594 1.765625.164063 2.449219-.296875.683594-.460937 1.292969-1.136718 1.90625-1.960937.308594-.417969.554688-1.09375.859375-1.582031.980469-.433594 1.675781-.882813 2.789063-1.265625 1.503906-.519532 2.84375-.738282 4.25-1.042969 1.175781.792969 2.425781 1.410156 3.792968 1.410156.773438 0 1.371094-.035156 1.953125-.351562.585938-.316407.9375-1.078125.9375-1.660157 0-.472656-.207031-.976562-.535156-1.300781-.332031-.324219-.722656-.496094-1.125-.605469-.796875-.214843-1.703125-.199218-2.746094-.09375-.550781.058594-1.289062.351563-1.902343.464844-.082032-.0625-.160157-.089844-.242188-.160156-1.246094-1.074219-2.414062-2.558594-3.28125-4.035156-.050781-.089844-.042969-.152344-.09375-.242188.210938-.789062.625-1.707031.71875-2.398437.128906-.957032.15625-1.792969-.074219-2.558594-.117187-.382813-.3125-.769531-.652343-1.066406-.339844-.296875-.820313-.460938-1.269532-.460938zm-.082031 1.992188c.011719 0 .03125.007812.046875.011718.003906.007813.011719.003907.042969.101563.054687.183594.023437.703125.003906 1.164062-.023437-.117187-.160156-.335937-.171875-.441406-.058594-.464844.015625-.761719.046875-.8125.007813-.019531.019531-.023437.03125-.023437zm.605469 7.015625c.617187.886718 1.300781 1.714843 2.066406 2.476562-1.023437.273438-1.941406.371094-2.972656.726563-.21875.074218-.34375.179687-.558594.257812.304688-.636719.683594-1.109375.957031-1.765625.25-.597656.292969-1.101562.507813-1.695312z"/></svg>