<svg fill="#666" height="50" viewBox="0 0 50 50" width="50" xmlns="http://www.w3.org/2000/svg"><path d="m37 4c-2.404 0-4.663281.9367188-6.363281 2.6367188l-5 5.0000002c-1.445 1.445-2.338219 3.293969-2.574219 5.292969-.041.352-.0625.710312-.0625 1.070312 0 1.368.313672 2.686766.888672 3.884766l1.52539-1.527344c-.267-.748-.414062-1.540422-.414062-2.357422 0-1.87.728781-3.626219 2.050781-4.949219l5-4.9999998c1.323-1.322 3.079219-2.0507812 4.949219-2.0507812s3.626219.7287812 4.949219 2.0507812c1.323 1.3220001 2.050781 3.0792188 2.050781 4.9492188s-.728781 3.626219-2.050781 4.949219l-5 5c-1.323 1.322-3.079219 2.050781-4.949219 2.050781-.817 0-1.609422-.147062-2.357422-.414062l-1.527344 1.52539c1.198.575 2.516766.888672 3.884766.888672 2.404 0 4.663281-.936719 6.363281-2.636719l5-5c1.7-1.7 2.636719-3.959281 2.636719-6.363281s-.936719-4.6632813-2.636719-6.3632812c-1.7-1.7000001-3.959281-2.6367188-6.363281-2.6367188zm-6.019531 13.990234a1.0001 1.0001 0 0 0 -.6875.302735l-12 12a1.0001 1.0001 0 1 0 1.414062 1.414062l12-12a1.0001 1.0001 0 0 0 -.726562-1.716797zm-12.980469 5.009766c-2.404 0-4.663281.936719-6.363281 2.636719l-5.0000002 5c-1.5640001 1.563-2.4821407 3.600109-2.6191407 5.787109-.012.191-.0175781.383172-.0175781.576172 0 2.404.9367188 4.663281 2.6367188 6.363281 1.6999999 1.7 3.9592812 2.636719 6.3632812 2.636719s4.663281-.936719 6.363281-2.636719l5-5c1.7-1.7 2.636719-3.959281 2.636719-6.363281 0-1.368-.313672-2.686766-.888672-3.884766l-1.52539 1.527344c.267.748.414062 1.540422.414062 2.357422 0 1.87-.728781 3.626219-2.050781 4.949219l-5 5c-1.323 1.322-3.079219 2.050781-4.949219 2.050781s-3.6262187-.728781-4.9492188-2.050781c-1.323-1.322-2.0507812-3.079219-2.0507812-4.949219s.7287812-3.626219 2.0507812-4.949219l4.9999998-5c1.323-1.322 3.079219-2.050781 4.949219-2.050781.817 0 1.609422.147062 2.357422.414062l1.527344-1.52539c-1.198-.575-2.516766-.888672-3.884766-.888672z"/></svg>