<svg fill="#666" height="50" viewBox="0 0 50 50" width="50" xmlns="http://www.w3.org/2000/svg"><path d="m48.90625 0c-.132812.015625-.257812.0585938-.375.125l-48 26c-.347656.1875-.5507813.5625-.5195312.957031.0351562.394532.3007812.730469.6757812.855469l13.625 4.46875-1.3125 13.5c-.054687.4375.1875.859375.59375 1.035156.40625.175782.878906.058594 1.15625-.285156l8.59375-9.71875 12.96875 12.78125c.253906.25.621094.34375.964844.246094s.605469-.367188.691406-.714844l12-48c.089844-.316406.011719-.65625-.199219-.90625-.214843-.25-.535156-.3789063-.863281-.34375zm-1.4375 2.9375-11.03125 44.125-11.84375-11.6875 17.21875-23.78125c.378906-.398437.367188-1.027344-.03125-1.40625-.398437-.378906-1.027344-.367187-1.40625.03125l-25.15625 20.375-11.71875-3.8125zm-11.6875 13.5625-13.125 18.21875c-.035156.039063-.066406.082031-.09375.125l-.0625.0625c-.023437.03125-.042969.0625-.0625.09375l-7.15625 8.03125 1.0625-10.8125z"/></svg>