<svg fill="#666" height="50" viewBox="0 0 50 50" width="50" xmlns="http://www.w3.org/2000/svg"><path d="m7 2v46h36v-32.589844l-13.816406-13.410156zm2 2h19v13h13v29h-32zm21 1.578125 9.707031 9.421875h-9.707031zm-11.875 17.933594c-.75 0-1.5.074219-2.058594.191406v9.964844h1.964844v-3.765625h.390625c.8125 0 1.832031-.300781 2.460938-.960938.523437-.570312.855468-1.335937.855468-2.429687 0-.855469-.269531-1.695313-.871093-2.21875-.660157-.617188-1.574219-.78125-2.742188-.78125zm6.855469 0c-.75 0-1.5.074219-2.058594.191406v9.964844h1.96875v-3.765625h.390625c.808594 0 1.828125-.300781 2.457031-.960938.523438-.570312.855469-1.335937.855469-2.429687 0-.855469-.269531-1.695313-.871094-2.21875-.660156-.617188-1.574218-.78125-2.742187-.78125zm4.109375.046875v1.8125h1.785156v8.292969h1.964844v-8.292969h1.800781v-1.8125zm-10.574219 1.539062c.914063 0 1.269531.691407 1.269531 1.578125 0 .945313-.449218 1.648438-1.4375 1.648438-.121093 0-.222656 0-.316406-.027344v-3.121094c.121094-.046875.300781-.078125.484375-.078125zm6.851563 0c.914062 0 1.273437.691407 1.273437 1.578125 0 .945313-.449219 1.648438-1.4375 1.648438-.121094 0-.222656 0-.3125-.027344v-3.121094c.117188-.046875.296875-.078125.476563-.078125z"/></svg>