<svg fill="#666" height="50" viewBox="0 0 50 50" width="50" xmlns="http://www.w3.org/2000/svg"><path d="m24.90625-.03125c-.03125.0078125-.0625.0195312-.09375.03125-.011719 0-.019531 0-.03125 0-.03125.0078125-.0625.0195313-.09375.03125-9.785156.167969-17.6875 8.144531-17.6875 17.96875v6.6875c-.058594.195313-.058594.398438 0 .59375v6.71875c0 9.929688 8.070313 18 18 18 9.929688 0 18-8.070312 18-18v-6.8125c.027344-.132812.027344-.273437 0-.40625v-6.78125c0-9.824219-7.902344-17.800781-17.6875-17.96875-.019531-.0117187-.042969-.0234375-.0625-.03125-.019531 0-.042969 0-.0625 0-.089844-.0234375-.1875-.0351563-.28125-.03125zm-.90625 2.09375v21.9375h-15v-6c0-8.507812 6.625-15.417969 15-15.9375zm2 0c8.375.519531 15 7.429688 15 15.9375v6h-15zm-17 23.9375h32v6c0 8.847656-7.152344 16-16 16s-16-7.152344-16-16z"/></svg>