<svg fill="#666" height="50" viewBox="0 0 50 50" width="50" xmlns="http://www.w3.org/2000/svg"><path d="m14.28125 0c-7.863281 0-14.28125 6.320313-14.28125 14.09375 0 2.457031.6875 4.734375 1.8125 6.75-.273437 1.429688-.4375 2.902344-.4375 4.40625 0 13.019531 10.699219 23.5625 23.875 23.5625 1.375 0 2.714844-.121094 4.03125-.34375 1.933594.972656 4.121094 1.53125 6.4375 1.53125 7.863281 0 14.28125-6.316406 14.28125-14.09375 0-2.117187-.519531-4.101562-1.375-5.90625.324219-1.542969.53125-3.121094.53125-4.75 0-13.011719-10.726562-23.5625-23.90625-23.5625-1.261719 0-2.503906.125-3.71875.3125-2.128906-1.246094-4.59375-2-7.25-2zm0 2c2.410156 0 4.640625.667969 6.53125 1.84375.203125.132813.445313.1875.6875.15625 1.222656-.207031 2.472656-.3125 3.75-.3125 12.113281 0 21.90625 9.648438 21.90625 21.5625 0 1.589844-.164062 3.132813-.5 4.625-.0625.230469-.039062.472656.0625.6875.820313 1.613281 1.28125 3.410156 1.28125 5.34375 0 6.683594-5.480469 12.09375-12.28125 12.09375-2.105469 0-4.089844-.523437-5.8125-1.4375-.191406-.097656-.410156-.132812-.625-.09375-1.304687.238281-2.660156.34375-4.03125.34375-12.113281 0-21.875-9.636719-21.875-21.5625 0-1.484375.148438-2.941406.4375-4.34375.050781-.246094.003906-.503906-.125-.71875-1.074219-1.796875-1.6875-3.859375-1.6875-6.09375 0-6.675781 5.484375-12.09375 12.28125-12.09375zm10.8125 6.375c-2.632812 0-5 .355469-7.03125 1.09375-.007812.003906-.023437-.003906-.03125 0-2.050781.75-3.722656 1.890625-4.875 3.375-1.164062 1.492188-1.78125 3.277344-1.78125 5.1875 0 1.976563.582031 3.753906 1.71875 5.15625 1.085938 1.335938 2.539063 2.382813 4.3125 3.125 1.6875.707031 3.769531 1.300781 6.1875 1.8125 1.730469.359375 3.132813.695313 4.125 1 .878906.269531 1.570313.671875 2.0625 1.125.398438.367188.5625.730469.5625 1.40625 0 .796875-.324219 1.324219-1.28125 1.96875-.953125.644531-2.277344 1.03125-4.03125 1.03125-1.285156 0-2.273437-.203125-2.90625-.5-.707031-.328125-1.234375-.726562-1.5625-1.15625-.410156-.53125-.804687-1.230469-1.1875-2.09375-.40625-.941406-.933594-1.738281-1.625-2.3125-.734375-.609375-1.675781-.90625-2.65625-.90625-1.160156 0-2.246094.371094-3.0625 1.125-.804687.75-1.28125 1.789063-1.28125 2.875 0 1.574219.589844 3.152344 1.65625 4.65625 1.050781 1.5 2.457031 2.707031 4.125 3.59375 2.339844 1.226563 5.25 1.8125 8.65625 1.8125 2.839844 0 5.375-.429687 7.53125-1.3125 2.167969-.886719 3.90625-2.15625 5.09375-3.8125 1.179688-1.648437 1.777344-3.574219 1.78125-5.625 0-1.691406-.339844-3.203125-1.0625-4.46875-.699219-1.222656-1.6875-2.246094-2.90625-3.03125-1.167969-.75-2.566406-1.371094-4.15625-1.875-1.535156-.484375-3.257812-.945312-5.125-1.34375-.015625-.003906-.015625.003906-.03125 0-1.4375-.328125-2.492187-.585937-3.09375-.75-.550781-.152344-1.136719-.355469-1.6875-.625-.480469-.238281-.808594-.519531-1.03125-.78125-.167969-.203125-.21875-.335937-.21875-.65625 0-.472656.179688-.835937.96875-1.34375.773438-.503906 1.894531-.78125 3.40625-.78125 1.652344 0 2.75.304688 3.21875.65625.652344.484375 1.265625 1.21875 1.78125 2.1875l.03125.03125c.523438.886719 1.003906 1.542969 1.5625 2.03125.695313.601563 1.617188.84375 2.625.84375 1.164063 0 2.257813-.425781 3.0625-1.25.777344-.792969 1.25-1.808594 1.25-2.875 0-1.027344-.304687-2.074219-.84375-3.0625-.554687-1.015625-1.40625-1.9375-2.5-2.78125-1.117187-.863281-2.496094-1.542969-4.09375-2.03125-1.628906-.5-3.535156-.71875-5.65625-.71875zm0 2c1.972656 0 3.6875.230469 5.0625.65625 1.414063.433594 2.589844 1.007813 3.46875 1.6875.925781.714844 1.578125 1.445313 1.96875 2.15625.410156.75.59375 1.449219.59375 2.09375 0 .546875-.183594.984375-.65625 1.46875-.445312.460938-.957031.65625-1.65625.65625-.6875 0-1.085937-.148437-1.3125-.34375-.289062-.25-.683594-.761719-1.125-1.5-.011719-.023437-.019531-.039062-.03125-.0625-.621094-1.144531-1.394531-2.097656-2.3125-2.78125-1.066406-.800781-2.5625-1.0625-4.4375-1.0625-1.773437 0-3.292969.34375-4.5 1.125-1.125.726563-1.875 1.789063-1.875 3 0 .707031.242188 1.398438.6875 1.9375.4375.515625 1.007813.945313 1.6875 1.28125.65625.324219 1.34375.59375 2.03125.78125.664063.179688 1.746094.445313 3.21875.78125 1.828125.386719 3.5.820313 4.96875 1.28125 1.457031.464844 2.707031 1.027344 3.6875 1.65625.96875.625 1.714844 1.40625 2.25 2.34375.511719.898438.78125 2.042969.78125 3.46875 0 1.667969-.460937 3.148438-1.40625 4.46875-.933594 1.304688-2.328125 2.351563-4.21875 3.125-1.855469.761719-4.144531 1.15625-6.78125 1.15625-3.171875 0-5.757812-.535156-7.71875-1.5625-1.410156-.75-2.539062-1.761719-3.40625-3-.011719 0-.019531 0-.03125 0-.886719-1.253906-1.28125-2.421875-1.28125-3.5 0-.566406.199219-.980469.65625-1.40625.441406-.40625.933594-.59375 1.6875-.59375.589844 0 1.007813.128906 1.375.4375.367188.304688.746094.824219 1.0625 1.5625l.03125.03125c.429688.972656.902344 1.804688 1.4375 2.5.5625.734375 1.335938 1.3125 2.28125 1.75 1.027344.480469 2.277344.6875 3.75.6875 2.03125 0 3.777344-.417969 5.15625-1.34375 1.324219-.890625 2.15625-2.199219 2.15625-3.65625 0-1.109375-.433594-2.148437-1.21875-2.875-.757812-.699219-1.703125-1.222656-2.8125-1.5625-1.089844-.335937-2.546875-.664062-4.3125-1.03125-2.332031-.492187-4.289062-1.082031-5.8125-1.71875-1.519531-.636719-2.679687-1.511719-3.53125-2.5625-.832031-1.027344-1.28125-2.269531-1.28125-3.875 0-1.503906.441406-2.8125 1.34375-3.96875h.03125c.882813-1.140625 2.179688-2.066406 3.96875-2.71875 1.757813-.644531 3.910156-.96875 6.375-.96875z"/></svg>