<svg fill="#666" height="50" viewBox="0 0 50 50" width="50" xmlns="http://www.w3.org/2000/svg"><path d="m13.1875 2c-2.226562 0-5.097656 1.640625-7.625 4.84375s-4.5625 8.050781-4.5625 14.65625c0 3.070313.984375 6.59375 2.8125 9.4375.464844.722656 1.011719 1.382813 1.59375 2-2.265625 2.894531-4.125 5.09375-4.125 5.09375-.320312.238281-.46875.648438-.375 1.035156.09375.390625.410156.6875.804688.753907.394531.066406.792968-.109375 1.007812-.445313 0 0 1.882813-2.222656 4.1875-5.15625 1.441406 1.070313 3.097656 1.78125 5 1.78125 3.105469 0 6.046875-1.527344 8.59375-3.6875.464844-.394531.839844-.910156 1.28125-1.34375.78125.601563 1.683594 1.03125 2.71875 1.03125 1.582031 0 2.976563-.789062 4.1875-1.8125 1.210938-1.023437 2.292969-2.316406 3.25-3.59375s1.800781-2.515625 2.5-3.40625c.300781-.386719.566406-.636719.78125-.84375.066406.621094.03125 1.605469-.03125 2.59375s-.160156 1.988281-.15625 2.8125c0 .414063.027344.777344.125 1.15625.050781.191406.09375.394531.28125.625s.597656.46875.96875.46875c1.214844 0 2.148438-.707031 2.96875-1.53125.820313-.824219 1.605469-1.839844 2.4375-2.8125 1.664063-1.945312 3.460938-3.65625 6.1875-3.65625.359375.003906.695313-.183594.878906-.496094.179688-.3125.179688-.695312 0-1.007812-.183593-.3125-.519531-.5-.878906-.496094-3.574219 0-5.957031 2.289063-7.71875 4.34375-.878906 1.027344-1.640625 2.011719-2.3125 2.6875-.398437.402344-.644531.417969-.9375.5625.007813-.667969.097656-1.578125.15625-2.53125.0625-1.011719.089844-2.027344 0-2.90625-.046875-.441406-.097656-.867187-.3125-1.28125-.214844-.414062-.769531-.875-1.375-.875-.667969 0-1.105469.339844-1.5.6875s-.769531.757813-1.15625 1.25c-.769531.984375-1.613281 2.246094-2.53125 3.46875s-1.898437 2.429688-2.90625 3.28125c-1.007812.851563-1.988281 1.3125-2.90625 1.3125-.503906 0-.960937-.128906-1.375-.40625 1.417969-1.613281 2.722656-3.3125 3.75-5.09375 1.636719-2.835937 2.707031-5.644531 2.96875-7.9375.128906-1.144531.089844-2.210937-.375-3.09375-.464844-.882812-1.46875-1.46875-2.5625-1.46875-2.199219 0-4.21875 1.4375-5.65625 3.5625s-2.34375 5.007813-2.34375 8.25c0 2.105469.449219 4.046875 1.375 5.5625.039063.066406.113281.09375.15625.15625-.417969.417969-.8125.910156-1.25 1.28125-2.320312 1.964844-4.835937 3.1875-7.28125 3.1875-1.402344 0-2.652344-.550781-3.78125-1.375.925781-1.230469 1.734375-2.15625 2.71875-3.625 4.046875-6.035156 8.15625-13.761719 8.15625-20.8125 0-.796875-.082031-2.25-.875-3.625s-2.449219-2.5625-4.9375-2.5625zm0 2c1.914063 0 2.683594.6875 3.1875 1.5625s.625 2.019531.625 2.625c0 6.25-3.890625 13.796875-7.84375 19.6875-.890625 1.328125-1.59375 2.148438-2.4375 3.28125-.402344-.453125-.871094-.773437-1.21875-1.3125-1.59375-2.480469-2.5-5.714844-2.5-8.34375 0-6.195312 1.910156-10.589844 4.15625-13.4375s4.957031-4.0625 6.03125-4.0625zm13.71875 10c.53125 0 .613281.085938.78125.40625.167969.320313.292969.988281.1875 1.90625-.207031 1.832031-1.210937 4.523438-2.75 7.1875-.910156 1.574219-2.023437 3.097656-3.25 4.53125-.585937-1.09375-.96875-2.5625-.96875-4.21875 0-2.859375.8125-5.375 2-7.125s2.699219-2.6875 4-2.6875zm-26.90625 30v2h50v-2z"/></svg>