<svg fill="#666" height="50" viewBox="0 0 50 50" width="50" xmlns="http://www.w3.org/2000/svg"><path d="m5 4c-1.6449698 0-3 1.3550302-3 3v9 10 17c0 1.64497 1.3550302 3 3 3h40c1.64497 0 3-1.35503 3-3v-32c0-1.6449698-1.35503-3-3-3h-27c.08657 0-.03101.000364-.275391-.28125-.244382-.281614-.54519-.7488088-.859375-1.25-.314184-.5011912-.643457-1.0359601-1.058593-1.5058594-.415137-.4698992-.987887-.9628906-1.806641-.9628906zm0 2h9c-.06075 0 .06114.00701.308594.2871094.247457.2801007.548637.7453318.861328 1.2441406s.636507 1.031614 1.042969 1.5c.406461.468386.966036.96875 1.787109.96875h27c.56503 0 1 .43497 1 1v2.1875c-.314892-.11356-.648157-.1875-1-.1875h-40c-.3518425 0-.6851085.07394-1 .1875v-6.1875c0-.5650302.4349698-1 1-1zm0 9h40c.56503 0 1 .43497 1 1v27c0 .56503-.43497 1-1 1h-40c-.5650302 0-1-.43497-1-1v-27c0-.56503.4349698-1 1-1zm19.984375 3.986328a1.0001 1.0001 0 0 0 -.984375 1.013672v12.585938l-3.292969-3.292969a1.0001 1.0001 0 0 0 -.716797-.302735 1.0001 1.0001 0 0 0 -.697265 1.716797l4.857422 4.857422a1.0001 1.0001 0 0 0 .855468.449219 1.0001 1.0001 0 0 0 .001953 0 1.0001 1.0001 0 0 0 .001954 0 1.0001 1.0001 0 0 0 .003906 0 1.0001 1.0001 0 0 0 .839844-.453125l4.853515-4.853516a1.0001 1.0001 0 0 0 -.726562-1.716797 1.0001 1.0001 0 0 0 -.6875.302735l-3.292969 3.292969v-12.585938a1.0001 1.0001 0 0 0 -1.015625-1.013672zm-9.984375 19.013672a1.0001 1.0001 0 1 0 0 2h20a1.0001 1.0001 0 1 0 0-2z"/></svg>