<svg fill="#666" height="50" viewBox="0 0 50 50" width="50" xmlns="http://www.w3.org/2000/svg"><path d="m25 0c-2.453125 0-4.523437 1.355469-7.59375 2.9375-3.070312 1.582031-7.191406 3.492188-13.625 4.90625l-.78125.1875v.78125c0 15.320313 5.371094 25.558594 10.75 31.90625s10.84375 8.875 10.84375 8.875l.4375.21875.4375-.21875s21.53125-11.125 21.53125-40.78125v-.78125l-.78125-.1875c-6.433594-1.414062-10.554687-3.324219-13.625-4.90625-3.070312-1.582031-5.140625-2.9375-7.59375-2.9375zm0 2c1.644531 0 3.550781 1.105469 6.6875 2.71875 2.980469 1.53125 7.171875 3.410156 13.25 4.84375-.367187 27.117188-18.683594 37.289063-19.96875 37.96875-.621094-.300781-4.949219-2.464844-9.71875-8.09375-5.027344-5.933594-10.003906-15.476562-10.1875-29.875 6.078125-1.433594 10.269531-3.3125 13.25-4.84375 3.136719-1.613281 5.042969-2.71875 6.6875-2.71875zm-5.59375 15.4375c-2.140625 0-3.34375 1.402344-3.34375 3.1875 0 1.242188.882813 2.402344 2.15625 3.21875.933594.648438 1.5 1.175781 1.5 2.09375 0 .953125-.628906 1.59375-1.75 1.59375-.59375 0-1.324219-.214844-1.75-.46875l-.3125 1.5625c.355469.238281 1.210938.46875 2.0625.46875 2.058594 0 3.53125-1.285156 3.53125-3.34375 0-1.222656-.585937-2.332031-2.03125-3.28125-1.171875-.746094-1.625-1.179687-1.625-2.0625 0-.699219.496094-1.375 1.53125-1.375.613281 0 1.082031.171875 1.40625.375l.3125-1.5625c-.304687-.1875-.957031-.40625-1.6875-.40625zm6.4375 0c-2.140625 0-3.34375 1.402344-3.34375 3.1875 0 1.242188.882813 2.402344 2.15625 3.21875.933594.648438 1.5 1.175781 1.5 2.09375 0 .953125-.597656 1.59375-1.71875 1.59375-.59375 0-1.355469-.214844-1.78125-.46875l-.3125 1.5625c.355469.238281 1.210938.46875 2.0625.46875 2.058594 0 3.53125-1.285156 3.53125-3.34375 0-1.222656-.585937-2.332031-2.03125-3.28125-1.171875-.746094-1.625-1.179687-1.625-2.0625 0-.699219.496094-1.375 1.53125-1.375.613281 0 1.082031.171875 1.40625.375l.34375-1.5625c-.304687-.1875-.988281-.40625-1.71875-.40625zm3.5.09375v11.46875h4.875v-1.53125h-3.0625v-9.9375z"/></svg>