<svg fill="#666" height="50" viewBox="0 0 50 50" width="50" xmlns="http://www.w3.org/2000/svg"><path d="m7 4c-1.6449698 0-3 1.3550302-3 3v5 33a1.0001 1.0001 0 0 0 1 1h40a1.0001 1.0001 0 0 0 1-1v-34-4c0-1.6449698-1.35503-3-3-3zm0 2h36c.56503 0 1 .4349698 1 1v3h-38v-3c0-.5650302.4349698-1 1-1zm-1 6h38v32h-38zm11.755859 9c-2.298 0-3.755859 1.450109-3.755859 3.287109 0 1.277 1.112516 2.451063 2.478516 3.289063 1.002.666 1.603515 1.208344 1.603515 2.152344 0 .981-.653422 1.644531-1.857422 1.644531-.638 0-1.442437-.208703-1.898437-.470703l-.326172 1.607422c.382.246 1.312609.488281 2.224609.488281 2.208 0 3.775391-1.345891 3.775391-3.462891 0-1.259-.619922-2.397-2.169922-3.375-1.258-.769-1.914062-1.187656-1.914062-2.097656 0-.719.691687-1.435547 1.804687-1.435547.656 0 1.584641.395469 1.931641.605469l.347656-1.609375c-.329-.192-1.460141-.623047-2.244141-.623047zm11.244141 0v12h2v-5h3v5h2v-12h-2v5h-3v-5zm-4.244141.001953c-2.298 0-3.755859 1.45011-3.755859 3.287109 0 1.277001 1.112516 2.44911 2.478516 3.28711 1.002.666 1.603515 1.208344 1.603515 2.152344 0 .981-.653422 1.646484-1.857422 1.646484-.638 0-1.442437-.210656-1.898437-.472656l-.326172 1.607422c.382.246 1.312609.490234 2.224609.490234 2.208 0 3.775391-1.345891 3.775391-3.462891 0-1.259-.619922-2.397-2.169922-3.375-1.258-.769-1.914062-1.189609-1.914062-2.099609 0-.719.691687-1.433594 1.804687-1.433594.656 0 1.584641.395469 1.931641.605469l.347656-1.609375c-.329-.192-1.460141-.623047-2.244141-.623047z"/></svg>