<svg fill="#666" height="50" viewBox="0 0 50 50" width="50" xmlns="http://www.w3.org/2000/svg"><path d="m6.667969 4c-1.460938 0-2.667969 1.207031-2.667969 2.667969v36.664062c0 1.460938 1.207031 2.667969 2.667969 2.667969h36.664062c1.460938 0 2.667969-1.203125 2.667969-2.667969v-36.664062c0-1.460938-1.203125-2.667969-2.667969-2.667969zm0 2h36.664062c.371094 0 .667969.296875.667969.667969v36.664062c0 .371094-.296875.667969-.667969.667969h-36.664062c-.371094 0-.667969-.296875-.667969-.667969v-36.664062c0-.371094.296875-.667969.667969-.667969zm18.550781 13.769531c-2.25 0-3.34375 2.429688-3.34375 5.144532 0 3.300781 1.195313 5.207031 3.160156 5.207031.089844 0 .257813.089844.480469.207031.75.453125 1.726563.960938 2.59375 1.324219l.691406-1.488281c-.628906-.238282-1.332031-.464844-1.976562-.75v-.074219c.945312-.511719 1.515625-2.070313 1.515625-4.574219 0-2.308594-.675781-4.996094-3.121094-4.996094zm-5.957031.03125c-2.113281 0-3.195313 1.351563-3.195313 2.96875 0 .917969.527344 1.980469 1.90625 2.824219.855469.550781 1.304688.914063 1.304688 1.644531 0 .664063-.449219 1.140625-1.382813 1.140625-.566406 0-1.257812-.164062-1.660156-.390625l-.285156 1.699219c.328125.191406 1.121094.402344 1.933594.402344 1.980468 0 3.347656-1.214844 3.347656-3.058594 0-1.066406-.496094-2.085937-1.832031-2.894531-1.09375-.660156-1.394532-.976563-1.394532-1.574219 0-.542969.402344-1.050781 1.242188-1.050781.570312 0 1.007812.164062 1.289062.34375l.316407-1.695313c-.300782-.179687-.929688-.359375-1.589844-.359375zm10.320312.089844v10.109375h4.558594v-1.664062h-2.59375v-8.445313zm-4.453125 1.589844c.871094 0 1.152344 1.484375 1.152344 3.375 0 2.101562-.328125 3.554687-1.152344 3.554687-.871093 0-1.234375-1.453125-1.21875-3.507812 0-1.90625.40625-3.421875 1.21875-3.421875z"/></svg>