<svg fill="#666" height="50" viewBox="0 0 50 50" width="50" xmlns="http://www.w3.org/2000/svg"><path d="m3 5c-1.644531 0-3 1.355469-3 3v9.8125.09375 24.09375c0 1.644531 1.355469 3 3 3h44c1.644531 0 3-1.355469 3-3v-24c0-.03125 0-.0625 0-.09375v-9.90625c0-1.644531-1.355469-3-3-3zm0 2h44c.554688 0 1 .445313 1 1v9h-46v-9c0-.554687.445313-1 1-1zm4 2c-1.644531 0-3 1.355469-3 3s1.355469 3 3 3 3-1.355469 3-3-1.355469-3-3-3zm7 0c-1.644531 0-3 1.355469-3 3s1.355469 3 3 3 3-1.355469 3-3-1.355469-3-3-3zm5.8125 0c-.476562.089844-.820312.511719-.8125 1v4c0 .550781.449219 1 1 1h25c.550781 0 1-.449219 1-1v-4c0-.550781-.449219-1-1-1h-25c-.03125 0-.0625 0-.09375 0s-.0625 0-.09375 0zm-12.8125 2c.5625 0 1 .4375 1 1s-.4375 1-1 1-1-.4375-1-1 .4375-1 1-1zm7 0c.5625 0 1 .4375 1 1s-.4375 1-1 1-1-.4375-1-1 .4375-1 1-1zm7 0h23v2h-23zm-19 8h46v23c0 .554688-.445312 1-1 1h-44c-.554687 0-1-.445312-1-1z"/></svg>