<svg fill="#666" height="50" viewBox="0 0 50 50" width="50" xmlns="http://www.w3.org/2000/svg"><path d="m15 7c-7.167969 0-13 5.832031-13 13 0 14.761719 16.695313 22.046875 22.375 26.78125l.625.53125.625-.53125c5.679688-4.734375 22.375-12.019531 22.375-26.78125 0-7.167969-5.832031-13-13-13-4.054687 0-7.617187 1.925781-10 4.84375-2.382812-2.917969-5.945312-4.84375-10-4.84375zm0 2c3.835938 0 7.1875 1.96875 9.15625 4.9375l.84375 1.25.84375-1.25c1.96875-2.96875 5.320313-4.9375 9.15625-4.9375 6.085938 0 11 4.914063 11 11 0 12.898438-14.40625 19.574219-21 24.78125-6.59375-5.207031-21-11.882812-21-24.78125 0-6.085937 4.914063-11 11-11z"/></svg>