<svg fill="#666" height="50" viewBox="0 0 50 50" width="50" xmlns="http://www.w3.org/2000/svg"><path d="m17.1875 0c-1.414062 0-2.71875.492188-3.78125 1.3125-.007812.003906-.023437-.003906-.03125 0v.03125c-.867187.667969-1.460937 1.480469-1.875 2.34375-.789062-.582031-1.796875-1.074219-2.9375-1.5-1.890625-.707031-4.179687-1.1875-6.5625-1.1875-.03125 0-.0625 0-.09375 0-.386719.027344-.722656.273438-.863281.636719-.140625.359375-.058594.769531.207031 1.050781 2.5625 2.789063 3.917969 6.179688 4.375 7.46875-.074219.050781-.148437.101563-.21875.15625-.007812.003906-.023437-.003906-.03125 0v.03125c-1.441406 1.109375-2.1875 2.621094-2.46875 4.09375-.242187 1.257813-.164062 2.445313.03125 3.5-2.171875 1.921875-3.550781 4.882813-2.5 8.25v.03125c.953125 2.863281 3.390625 4.660156 6.5 5.0625.492188 1.089844 1.144531 2.183594 2.125 3.0625 1.140625 1.023438 2.679688 1.75 4.53125 1.75.179688 0 .359375-.019531.53125-.03125 3.390625.777344 7.5 5.253906 7.875 13 .003906.0625.015625.125.03125.1875.007813.019531.019531.042969.03125.0625v.03125c.007813.019531.019531.042969.03125.0625v.03125c.019531.023438.039063.042969.0625.0625v.03125c.019531.023438.039063.042969.0625.0625v.03125c.019531.011719.042969.023438.0625.03125v.03125c.039063.046875.078125.085938.125.125h.03125c.050781.035156.101563.066406.15625.09375.097656.046875.203125.078125.3125.09375h.0625.03125.0625s4.148438-.273437 8.71875-2.5c4.570313-2.226562 9.675781-6.511719 11.5-14.28125 1.351563-6.007812 2.195313-10.101562 3.09375-12.9375.898438-2.835937 1.789063-4.347656 3.25-5.5.316406-.246094.457031-.65625.355469-1.046875-.101563-.386719-.425781-.675781-.824219-.734375-1.128906-.1875-2.128906-.199219-3.03125-.09375-2.65625.3125-4.476562 1.683594-6.15625 3-.203125-.234375-.410156-.445312-.625-.65625.199219-1.25.269531-2.589844-.03125-3.9375-.34375-1.53125-1.195312-3.03125-2.75-4.125-1.171875-.820312-2.46875-1.1875-3.75-1.1875-.128906 0-.25.023438-.375.03125-.222656-1.792969-1.042969-3.589844-2.875-4.84375-1.171875-.820312-2.507812-1.1875-3.875-1.1875-1.730469 0-3.136719.648438-4.28125 1.3125-1.125-.679687-2.578125-1.3125-4.21875-1.3125zm0 2c1.308594 0 2.777344.625 3.625 1.21875.332031.242188.777344.253906 1.125.03125 1.007813-.640625 2.324219-1.25 3.75-1.25 1.035156 0 1.921875.234375 2.75.8125 1.382813.949219 1.910156 2.1875 2.03125 3.59375-.730469.246094-1.386719.570313-1.96875.90625-1.171875-.671875-2.652344-1.3125-4.3125-1.3125-1.414062 0-2.71875.492188-3.78125 1.3125-.007812.003906-.023437-.003906-.03125 0v.03125c-.664062.511719-1.171875 1.109375-1.5625 1.75-.308594-.050781-.644531-.09375-1-.09375-1.730469 0-3.167969.648438-4.3125 1.3125-.222656-.128906-.472656-.253906-.71875-.375.195313-.246094.265625-.570312.1875-.875-.207031-.878906-.316406-1.980469-.15625-3.03125.101563-.179687.144531-.386719.125-.59375.25-.964844.742188-1.835937 1.65625-2.53125.011719-.011719.019531-.019531.03125-.03125.734375-.570312 1.585938-.875 2.5625-.875zm-13.03125 1.1875c1.335938.175781 2.636719.472656 3.71875.875 1.445313.539063 2.5 1.25 2.96875 1.75-.15625 1.101563-.074219 2.15625.09375 3.09375-.105469.09375-.203125.183594-.3125.28125-.460937-.097656-.941406-.1875-1.4375-.1875-.617187 0-1.214844.105469-1.78125.28125-.480469-1.261719-1.5-3.660156-3.25-6.09375zm20.03125 4.8125c1.308594 0 2.796875.625 3.78125 1.25.324219.203125.738281.203125 1.0625 0 .75-.476562 1.671875-.953125 2.6875-1.15625h.03125c.34375-.066406.707031-.09375 1.0625-.09375.917969 0 1.796875.234375 2.625.8125 1.144531.804688 1.679688 1.792969 1.9375 2.9375.257813 1.144531.171875 2.441406-.0625 3.65625-.066406.347656.050781.703125.3125.9375 1.648438 1.464844 3.007813 3.4375 2.3125 6.21875-.59375 2.289063-2.425781 3.753906-5.375 3.84375-.398437.007813-.757812.253906-.90625.625-.40625 1.039063-1.039062 2.09375-1.875 2.84375-.027344.027344-.066406.039063-.09375.0625-.203125.070313-.378906.199219-.5.375-.714844.476563-1.546875.78125-2.59375.78125-1.351562 0-2.351562-.46875-3.1875-1.21875-.273437-.246094-.519531-.542969-.75-.84375-.039062-.316406-.222656-.59375-.5-.75-.238281-.40625-.460937-.828125-.625-1.25-.144531-.359375-.488281-.605469-.875-.625-2.15625-.140625-3.679687-.933594-4.625-2.375-.007812-.019531-.019531-.042969-.03125-.0625-.003906-.007812.003906-.023437 0-.03125-.042969-.164062-.128906-.316406-.25-.4375-.007812-.011719-.023437-.019531-.03125-.03125-.011719-.011719-.019531-.019531-.03125-.03125-.128906-.261719-.246094-.550781-.34375-.84375-.328125-1.046875-.375-2-.1875-2.875l.03125-.03125c.003906-.007812-.003906-.023437 0-.03125.21875-.222656.324219-.535156.28125-.84375.441406-1.058594 1.199219-1.976562 2.15625-2.71875.308594-.246094.441406-.648437.34375-1.03125-.222656-.9375-.339844-2.132812-.125-3.25.214844-1.117187.714844-2.121094 1.75-2.90625l.03125-.03125c.734375-.570312 1.585938-.875 2.5625-.875zm-15 3c1.308594 0 2.796875.625 3.78125 1.25.324219.203125.738281.203125 1.0625 0 1.007813-.640625 2.355469-1.25 3.78125-1.25.066406 0 .148438.027344.21875.03125-.035156.136719-.097656.269531-.125.40625-.242187 1.257813-.164062 2.445313.03125 3.5-.804687.710938-1.496094 1.566406-2 2.53125-.648437-.296875-1.335937-.46875-2.03125-.46875-2.671875 0-4.8125 2.285156-4.8125 5s2.140625 5 4.8125 5c1.195313 0 2.246094-.46875 3.0625-1.1875 1.230469 1.34375 2.953125 2.207031 4.96875 2.46875.074219.167969.167969.332031.25.5-.089844.039063-.1875.058594-.28125.09375-.042969-.003906-.082031-.003906-.125 0-.257812.003906-.503906.101563-.6875.28125-.476562.117188-.988281.214844-1.5625.25-.386719.019531-.730469.265625-.875.625-.40625 1.039063-1.039062 2.09375-1.875 2.84375-.691406.621094-1.511719 1.027344-2.53125 1.15625-.03125-.007812-.0625-.027344-.09375-.03125-.09375-.011719-.1875-.011719-.28125 0-.152344-.003906-.300781.03125-.4375.09375-1.265625-.035156-2.230469-.5-3.03125-1.21875-.835937-.75-1.46875-1.804687-1.875-2.84375-.144531-.359375-.488281-.605469-.875-.625-2.789062-.179687-4.53125-1.464844-5.3125-3.8125-.871094-2.792969.324219-4.988281 2.28125-6.5.308594-.246094.441406-.648437.34375-1.03125-.222656-.9375-.339844-2.132812-.125-3.25.214844-1.117187.714844-2.121094 1.75-2.90625l.03125-.03125c.160156-.125.328125-.214844.5-.3125.164063-.042969.316406-.128906.4375-.25.496094-.207031 1.042969-.3125 1.625-.3125zm19.625 3c-2.667969 0-4.8125 2.277344-4.8125 5s2.144531 5 4.8125 5 4.78125-2.277344 4.78125-5-2.113281-5-4.78125-5zm18.09375.90625c-.972656 1.253906-1.792969 2.738281-2.4375 4.78125-.953125 3.011719-1.808594 7.101563-3.15625 13.09375-1.675781 7.128906-6.199219 10.859375-10.40625 12.90625-1.550781.753906-2.832031 1.089844-4.09375 1.4375.933594-1.007812 1.867188-2.152344 2.71875-3.59375 1.824219-3.09375 3.242188-7.1875 3.4375-12.0625.050781-.042969.109375-.082031.15625-.125.972656-.875 1.632813-1.949219 2.125-3.03125 3.324219-.332031 5.867188-2.328125 6.625-5.25 0-.011719 0-.019531 0-.03125.527344-2.109375.109375-3.9375-.71875-5.4375 1.863281-1.460937 3.253906-2.617187 5.75-2.6875zm-18.09375 1.09375c1.53125 0 2.78125 1.304688 2.78125 3 0 1.695313-1.25 3-2.78125 3s-2.8125-1.304687-2.8125-3c0-1.695312 1.28125-3 2.8125-3zm-14.90625 3c.472656 0 .933594.128906 1.34375.34375-.261719 1.1875-.238281 2.484375.1875 3.84375v.03125c.105469.3125.234375.617188.375.90625-.511719.53125-1.148437.875-1.90625.875-1.527344 0-2.8125-1.316406-2.8125-3s1.285156-3 2.8125-3zm9.75 11.9375c.132813.136719.261719.277344.40625.40625 1.140625 1.023438 2.679688 1.75 4.53125 1.75.839844 0 1.609375-.148437 2.3125-.40625-.355469 3.964844-1.585937 7.285156-3.09375 9.84375-.5625.953125-1.167969 1.792969-1.78125 2.53125.027344-1.242187.019531-2.785156-.09375-4.5-.210937-3.199219-.765625-6.835937-2.28125-9.625zm-2.21875.15625c1.527344 2.273438 2.273438 6.171875 2.5 9.59375.222656 3.394531.039063 6 0 6.46875-.027344.023438-.066406.039063-.09375.0625-.703125-5.929687-3.472656-10.140625-6.75-12.09375.371094-.226562.71875-.5 1.03125-.78125.972656-.875 1.632813-1.949219 2.125-3.03125.414063-.046875.800781-.132812 1.1875-.21875z"/></svg>