<svg fill="#666" height="50" viewBox="0 0 50 50" width="50" xmlns="http://www.w3.org/2000/svg"><path d="m11 4c-1.644531 0-3 1.355469-3 3v5h-1c-.03125 0-.0625 0-.09375 0-.550781.027344-.980469.496094-.953125 1.046875s.496094.980469 1.046875.953125h4c.359375.003906.695313-.183594.878906-.496094.179688-.3125.179688-.695312 0-1.007812-.183593-.3125-.519531-.5-.878906-.496094h-1v-5c0-.554687.445313-1 1-1h28c.554688 0 1 .445313 1 1v36c0 .554688-.445312 1-1 1h-28c-.554687 0-1-.445312-1-1v-4h-2v4c0 1.644531 1.355469 3 3 3h28c1.644531 0 3-1.355469 3-3v-36c0-1.644531-1.355469-3-3-3zm-3 11v3h-1c-.03125 0-.0625 0-.09375 0s-.0625 0-.09375 0c-.550781.050781-.957031.542969-.90625 1.09375s.542969.957031 1.09375.90625h4c.359375.003906.695313-.183594.878906-.496094.179688-.3125.179688-.695312 0-1.007812-.183593-.3125-.519531-.5-.878906-.496094h-1v-3zm18 1c-6.101562 0-10 4.8125-10 10.3125 0 5.300781 3.8125 8.5 8.3125 8.5 1.898438 0 3.273438-.199219 4.875-1l-.5-1.5c-1.101562.601563-2.5.875-4 .875-4 0-6.875-2.6875-6.875-7.1875 0-5.300781 3.574219-8.59375 7.875-8.59375 4.199219 0 6.5 2.800781 6.5 6.5 0 3.101563-1.480469 4.789063-2.78125 4.6875-.800781 0-1.019531-.792969-.71875-2.59375l.8125-5c-.699219-.300781-1.894531-.59375-3.09375-.59375-3.800781 0-6.3125 2.980469-6.3125 6.28125 0 2.199219 1.300781 3.5 3 3.5 1.5 0 2.695313-.6875 3.59375-2.1875h.125c.101563 1.5.988281 2.1875 2.1875 2.1875 2.800781 0 5-2.375 5-6.375 0-4.5-3.300781-7.8125-8-7.8125zm-18 5v3h-1c-.03125 0-.0625 0-.09375 0-.550781.027344-.980469.496094-.953125 1.046875s.496094.980469 1.046875.953125h4c.359375.003906.695313-.183594.878906-.496094.179688-.3125.179688-.695312 0-1.007812-.183593-.3125-.519531-.5-.878906-.496094h-1v-3zm18.09375 1.1875c.5 0 .894531.117188 1.09375.21875l-.5 2.6875c-.199219 1.601563-1.488281 3.21875-2.6875 3.21875-1.101562 0-1.59375-.710937-1.59375-1.8125 0-2.300781 1.585938-4.3125 3.6875-4.3125zm-18.09375 4.8125v3h-1c-.03125 0-.0625 0-.09375 0-.550781.027344-.980469.496094-.953125 1.046875s.496094.980469 1.046875.953125h4c.359375.003906.695313-.183594.878906-.496094.179688-.3125.179688-.695312 0-1.007812-.183593-.3125-.519531-.5-.878906-.496094h-1v-3zm0 6v3h-1c-.03125 0-.0625 0-.09375 0-.550781.027344-.980469.496094-.953125 1.046875s.496094.980469 1.046875.953125h4c.359375.003906.695313-.183594.878906-.496094.179688-.3125.179688-.695312 0-1.007812-.183593-.3125-.519531-.5-.878906-.496094h-1v-3z"/></svg>