<svg fill="#666" height="50" viewBox="0 0 50 50" width="50" xmlns="http://www.w3.org/2000/svg"><path d="m7 2v46h36v-33.40625l-.28125-.3125-12-12-.3125-.28125zm2 2h20v12h12v30h-32zm22 1.4375 8.5625 8.5625h-8.5625zm-17 4.5625v2h13v-2zm0 4v2h13v-2zm0 4v2h23v-2zm0 4v2h23v-2zm0 4v2h23v-2zm6.15625 4.5625c-1.136719 0-2.0625.726563-2.6875 1.65625-.625.929688-1 2.125-1 3.4375 0 1.101563.34375 2.296875 1 3.3125.085938.132813.242188.214844.34375.34375-.324219.289063-.9375.90625-.9375.90625-.320312.195313-.507812.550781-.480469.925781.023438.375.257813.703125.605469.851563.34375.148437.742188.089844 1.03125-.152344 0 0 .839844-.816406 1.4375-1.34375.367188.144531.699219.375 1.125.375 2.523438 0 4.195313-1.359375 5.15625-2.59375.28125-.363281.433594-.625.625-.9375.070313.214844.132813.417969.21875.625.0625.148438.132813.296875.25.46875.117188.171875.339844.5625.96875.5625.667969 0 1.078125-.320312 1.46875-.59375.390625-.273437.742188-.578125 1.125-.875.765625-.597656 1.535156-1.0625 2.09375-1.0625.359375.003906.695313-.183594.878906-.496094.179688-.3125.179688-.695312 0-1.007812-.183593-.3125-.519531-.5-.878906-.496094-1.40625 0-2.472656.8125-3.3125 1.46875-.359375.28125-.648437.527344-.90625.71875-.03125-.09375-.058594-.148437-.09375-.25-.109375-.320312-.246094-.644531-.40625-.96875-.082031-.164062-.152344-.351562-.3125-.53125-.160156-.179687-.464844-.4375-.9375-.4375-.648437 0-.871094.394531-1.03125.59375s-.28125.378906-.40625.59375c-.253906.425781-.535156.929688-.90625 1.40625-.671875.863281-1.632812 1.574219-3.15625 1.71875 1.027344-1.382812 1.9375-3.105469 1.9375-5.1875 0-.675781-.125-1.414062-.59375-2.03125-.46875-.617187-1.300781-1-2.21875-1zm0 2c.4375 0 .519531.082031.625.21875s.1875.433594.1875.8125c0 1.59375-.867187 3.089844-1.8125 4.28125-.417969-.648437-.6875-1.558594-.6875-2.21875 0-.917969.277344-1.777344.65625-2.34375s.8125-.75 1.03125-.75z"/></svg>