<svg fill="#666" height="50" viewBox="0 0 50 50" width="50" xmlns="http://www.w3.org/2000/svg"><path d="m7 2v46h36v-32.589844l-13.816406-13.410156zm2 2h19v13h13v29h-32zm21 1.578125 9.707031 9.421875h-9.707031zm-4.535156 17.886719c-2.113281 0-3.195313 1.351562-3.195313 2.972656 0 .914063.527344 1.976563 1.90625 2.816406.855469.558594 1.304688.914063 1.304688 1.652344 0 .65625-.449219 1.140625-1.382813 1.140625-.566406 0-1.257812-.167969-1.660156-.390625l-.285156 1.691406c.328125.195313 1.121094.40625 1.933594.40625 1.980468 0 3.347656-1.214843 3.347656-3.058593 0-1.066407-.496094-2.085938-1.832031-2.894532-1.09375-.660156-1.398438-.976562-1.398438-1.578125 0-.539062.40625-1.046875 1.246094-1.046875.570312 0 1.007812.164063 1.289062.34375l.316407-1.695312c-.300782-.179688-.929688-.359375-1.589844-.359375zm-7.605469.046875c-.75 0-1.5.074219-2.054687.191406v9.964844h1.964843v-3.765625h.390625c.808594 0 1.828125-.300781 2.460938-.960938.523437-.570312.851562-1.335937.851562-2.429687 0-.855469-.265625-1.695313-.867187-2.21875-.660156-.617188-1.574219-.78125-2.746094-.78125zm12.703125 0c-.777344 0-1.5.074219-1.992187.191406v9.933594c.390625.046875 1.003906.101562 1.617187.101562 1.410156 0 2.417969-.3125 3.09375-.972656.882813-.78125 1.40625-2.234375 1.40625-4.277344 0-1.964843-.449219-3.296875-1.316406-4.078125-.648438-.601562-1.53125-.898437-2.808594-.898437zm.363281 1.574219c1.183594 0 1.726563 1.257812 1.726563 3.328125 0 2.789062-.828125 3.722656-1.773438 3.722656-.105468 0-.253906 0-.34375-.03125v-6.976563c.121094-.042968.253907-.042968.390625-.042968zm-12.675781.011718c.914063 0 1.273438.691407 1.273438 1.578125 0 .945313-.449219 1.648438-1.4375 1.648438-.121094 0-.226563 0-.316407-.027344v-3.121094c.121094-.046875.300782-.078125.480469-.078125z"/></svg>