<svg fill="#666" height="50" viewBox="0 0 50 50" width="50" xmlns="http://www.w3.org/2000/svg"><path d="m2.8125 6c-.476562.089844-.820312.511719-.8125 1v36c0 .550781.449219 1 1 1h44c.550781 0 1-.449219 1-1v-36c0-.03125 0-.0625 0-.09375-.046875-.515625-.480469-.910156-1-.90625h-44c-.03125 0-.0625 0-.09375 0s-.0625 0-.09375 0zm1.1875 2h42v34h-42zm32.90625 7.96875c-.042969.007813-.085937.019531-.125.03125h-1.28125c-.03125 0-.0625 0-.09375 0-.550781.027344-.980469.496094-.953125 1.046875s.496094.980469 1.046875.953125h.5v13h-.5c-.03125 0-.0625 0-.09375 0s-.0625 0-.09375 0c-.550781.050781-.957031.542969-.90625 1.09375s.542969.957031 1.09375.90625h3c.359375.003906.695313-.183594.878906-.496094.179688-.3125.179688-.695312 0-1.007812-.183593-.3125-.519531-.5-.878906-.496094h-.5v-13h.5c.359375.003906.695313-.183594.878906-.496094.179688-.3125.179688-.695312 0-1.007812-.183593-.3125-.519531-.5-.878906-.496094h-1.3125c-.089844-.023437-.1875-.035156-.28125-.03125zm-22.53125.03125c-.402344.046875-.734375.332031-.84375.71875l-4.5 14.625c-.023437.089844-.035156.1875-.03125.28125v.375c-.003906.359375.183594.695313.496094.878906.3125.179688.695312.179688 1.007812 0 .3125-.183593.5-.519531.496094-.878906v-.15625l.875-2.84375h5.25l.875 2.84375v.15625c-.003906.359375.183594.695313.496094.878906.3125.179688.695312.179688 1.007812 0 .3125-.183593.5-.519531.496094-.878906v-.375c.003906-.09375-.007812-.191406-.03125-.28125l-4.5-14.625c-.136719-.476562-.601562-.785156-1.09375-.71875zm9.4375 0c-.476562.089844-.820312.511719-.8125 1v8.8125c-.027344.132813-.027344.273438 0 .40625v5.78125c-.003906.359375.183594.695313.496094.878906.3125.179688.695312.179688 1.007812 0 .3125-.183593.5-.519531.496094-.878906v-5h3c2.199219 0 4-1.800781 4-4v-3c0-2.199219-1.800781-4-4-4h-4c-.03125 0-.0625 0-.09375 0s-.0625 0-.09375 0zm1.1875 2h3c1.117188 0 2 .882813 2 2v3c0 1.117188-.882812 2-2 2h-3zm-10.5 2.4375 2 6.5625h-4z"/></svg>