<svg fill="#666" height="50" viewBox="0 0 50 50" width="50" xmlns="http://www.w3.org/2000/svg"><path d="m8 2v4h-4v42h42v-34h-16v-8h-4v-4zm2 2h14v4h4v38h-9v-7h-4v7h-9v-38h4zm0 6v2h2v-2zm4 0v2h2v-2zm4 0v2h2v-2zm4 0v2h2v-2zm-12 5v4h2v-4zm4 0v4h2v-4zm4 0v4h2v-4zm4 0v4h2v-4zm8 1h14v30h-14zm2 2v2h2v-2zm4 0v2h2v-2zm4 0v2h2v-2zm-30 3v4h2v-4zm4 0v4h2v-4zm4 0v4h2v-4zm4 0v4h2v-4zm10 1v2h2v-2zm4 0v2h2v-2zm4 0v2h2v-2zm-8 4v2h2v-2zm4 0v2h2v-2zm4 0v2h2v-2zm-30 1v4h2v-4zm4 0v4h2v-4zm4 0v4h2v-4zm4 0v4h2v-4zm10 3v2h2v-2zm4 0v2h2v-2zm4 0v2h2v-2zm-30 3v4h2v-4zm4 0v4h2v-4zm4 0v4h2v-4zm4 0v4h2v-4zm10 1v2h2v-2zm4 0v2h2v-2zm4 0v2h2v-2zm-8 4v2h2v-2zm4 0v2h2v-2zm4 0v2h2v-2zm-30 1v5h2v-5zm12 0v5h2v-5zm10 3v2h2v-2zm4 0v2h2v-2zm4 0v2h2v-2z"/></svg>