<svg fill="#666" height="50" viewBox="0 0 50 50" width="50" xmlns="http://www.w3.org/2000/svg"><path d="m28.90625 8.96875c-.042969.007813-.085937.019531-.125.03125-.375.066406-.675781.339844-.78125.703125-.105469.367188.003906.757813.28125 1.015625.5.5 1.136719 1 2.0625 1.15625.753906.125 2.109375.09375 3.78125.09375.039063.257813.0625.503906.125.875.132813.789063.335938 1.90625.59375 3.15625h-17.21875l-1.5-3c.058594-.003906.128906 0 .1875 0 2.601563 0 3.6875-.707031 3.6875-1.40625 0-.601562-.511719-.601562-1.3125-.5h-6.375c-1.101562 0-1.3125.507813-1.3125 1.40625 0 2.300781 1.367188 1.539063 3.125.9375l1.75 3.5625-2.34375 4.65625c-1.101562-.421875-2.285156-.65625-3.53125-.65625-5.511719 0-10 4.488281-10 10s4.488281 10 10 10c5.175781 0 9.4375-3.953125 9.9375-9h4.0625c.203125-.003906.398438-.070312.5625-.1875.019531-.007812.042969-.019531.0625-.03125l.03125-.03125c.019531-.007812.042969-.019531.0625-.03125 0-.011719 0-.019531 0-.03125l.03125-.03125c.035156-.039062.066406-.082031.09375-.125l10.6875-12.46875c.199219.84375.441406 1.742188.6875 2.6875-3.636719 1.5-6.21875 5.082031-6.21875 9.25 0 5.511719 4.488281 10 10 10s10-4.488281 10-10-4.488281-10-10-10c-.644531 0-1.265625.070313-1.875.1875-.414062-1.621094-.78125-3.140625-1.0625-4.4375-.382812-1.773437-.675781-3.210937-.84375-4.21875-.085937-.503906-.117187-.914062-.15625-1.1875-.019531-.136719-.054687-.242187-.0625-.3125-.007812-.070312 0-.179687 0-.03125 0-.550781-.449219-1-1-1-2.5 0-3.769531-.03125-4.34375-.125s-.4375-.09375-.9375-.59375c-.207031-.222656-.507812-.335937-.8125-.3125zm-10.28125 9.03125h15.21875l-9.625 11.1875zm-1.625 1.25 5.375 10.75h-2.4375c-.308594-3.132812-2.0625-5.828125-4.59375-7.4375zm-7 3.75c.933594 0 1.824219.144531 2.65625.4375l-3.5625 7.125c-.152344.3125-.132812.679688.054688.972656.183593.289063.503906.46875.851562.464844h7.9375c-.492187 3.953125-3.847656 7-7.9375 7-4.429687 0-8-3.570312-8-8 0-4.429687 3.570313-8 8-8zm30 0c4.429688 0 8 3.570313 8 8 0 4.429688-3.570312 8-8 8-4.429687 0-8-3.570312-8-8 0-3.257812 1.9375-6.03125 4.71875-7.28125.644531 2.332031 1.414063 4.878906 2.34375 7.59375.066406.390625.355469.703125.734375.800781.382813.097657.785156-.035156 1.03125-.34375.246094-.308593.289063-.730468.109375-1.082031-.921875-2.695312-1.683594-5.246094-2.3125-7.5625.445313-.078125.90625-.125 1.375-.125zm-25.5625 1.375c1.878906 1.257813 3.207031 3.269531 3.5 5.625h-6.3125z"/></svg>