<svg fill="#666" height="50" viewBox="0 0 50 50" width="50" xmlns="http://www.w3.org/2000/svg"><path d="m46.0625 2.65625c-.167969.019531-.332031.085938-.46875.1875l-11.34375 7.65625c-.527344-.433594-1.105469-.898437-1.34375-1.09375l1.40625-4.71875c.089844-.308594.027344-.644531-.171875-.898437-.199219-.253907-.507812-.394532-.828125-.382813 0 0-5.003906.039063-7.34375 3.9375-.0625.074219-.117187.160156-.15625.25-4.339844.261719-8.625-1.75-8.625-1.75-.183594-.089844-.390625-.125-.59375-.09375-.515625.078125-.882812.542969-.84375 1.0625 0 0 .058594 1.160156.625 2.375.125.269531.429688.511719.625.78125-.667969.058594-1.757812.039063-2.25.09375-1.222656.132813-1.996094.171875-3.46875-.28125-.363281-.109375-.757812 0-1.015625.277344-.257812.28125-.335937.679687-.203125 1.035156.335938.890625 1.046875 1.699219 1.875 2.40625-.484375.085938-1.457031.09375-1.8125.1875-1.089844.289063-1.511719.492188-2.625.4375-.375-.023437-.730469.167969-.921875.488281-.191406.324219-.183594.726563.015625 1.042969.464844.738281 1.011719 1.238281 1.59375 1.59375-.398437.179688-.875.367188-1.15625.53125-.476562.277344-.789062.464844-.96875.53125-.179687.066406-.214844.089844-.5 0-.390625-.128906-.824219-.003906-1.085937.3125-.261719.316406-.304688.765625-.101563 1.125.382813.671875.933594 1.101563 1.53125 1.4375-.304687.121094-.664062.226563-.90625.34375-.960937.46875-1.46875.738281-1.6875.75-.390625.015625-.738281.257813-.886719.621094-.148437.363281-.070312.78125.199219 1.066406.382813.425781.8125.726563 1.21875.9375-.226562.097656-.375.226563-.59375.3125-.882812.34375-1.59375.5625-1.59375.5625-.378906.066406-.683594.34375-.789062.714844-.105469.371094.011718.765625.300781 1.019531.289062.253906.695312.320313 1.050781.171875 0 0 .789063-.222656 1.75-.59375.960938-.371094 2.085938-.863281 2.9375-1.53125.332031-.257812.46875-.691406.34375-1.09375-.105469-.316406-.34375-.566406-.53125-.6875s-.359375-.144531-.5-.1875c-.207031-.066406-.378906-.113281-.5625-.15625.070313-.039062.144531-.058594.21875-.09375.832031-.40625 1.921875-.847656 3.8125-1.0625.546875-.007812.984375-.453125.984375-1s-.4375-.992187-.984375-1c0 0-.769531-.074219-1.625-.34375-.179687-.054687-.234375-.175781-.40625-.25.117188-.070312.253906-.117187.375-.1875.851563-.496094 2-1.074219 4.53125-1.34375.550781.027344 1.019531-.402344 1.046875-.953125s-.402344-1.019531-.953125-1.046875c-1.164062-.242187-2.109375-.058594-2.96875-.375.289063-.074219.671875-.078125.96875-.15625.988281-.261719 2.265625-.53125 5.03125-.53125.546875-.007812.984375-.453125.984375-1s-.4375-.992187-.984375-1c-.773437 0-1.609375-.328125-2.3125-.875-.039062-.03125-.054687-.0625-.09375-.09375.574219.015625 1.132813-.003906 1.6875-.0625 1.292969-.140625 2.695313-.351562 5.28125-.25h.03125c.550781.015625 1.015625-.417969 1.03125-.96875s-.417969-1.015625-.96875-1.03125c-.03125 0-.03125 0-.0625 0-1.242187 0-1.714844-.65625-2.09375-1.46875-.007812-.015625.007813-.015625 0-.03125 1.992188.800781 5.742188 2.082031 10.21875.90625.425781-.101562.734375-.46875.765625-.90625.027344-.4375-.230469-.84375-.640625-1 1.058594-1.011719 2.359375-1.421875 3.375-1.625l-1.09375 3.8125c-.105469.375.015625.777344.3125 1.03125 0 0 1.179688.949219 2.4375 2 1.257813 1.050781 2.65625 2.285156 2.9375 2.5625.046875.046875.394531.769531.53125 1.4375s.1875 1.25.1875 1.25c.007813.097656.027344.191406.0625.28125 0 0 1.613281 4.207031 7.09375 9.5.054688.058594.117188.113281.1875.15625 1.097656.65625 1.328125 1.367188 1.40625 2 .074219.632813-.0625 1.0625-.0625 1.0625-.058594.148438-.078125.308594-.0625.46875v.03125c-.015625.121094-.054687.292969-.09375.5-.074219.417969-.171875.972656-.28125 1.5-.160156.78125-.238281 1.191406-.3125 1.53125-.445312.222656-2.113281.992188-4.1875.3125-2.894531-.949219-3.625-3.34375-3.625-3.34375-.164062-.511719-.703125-.800781-1.21875-.65625 0 0-1.707031.464844-3.71875.1875s-4.191406-1.1875-5.46875-4.1875c-.125-.28125-.375-.488281-.675781-.5625-.296875-.070312-.613281-.003906-.855469.1875-2.304687 1.847656-3.550781 3.574219-4.09375 5.28125s-.367187 3.304688-.0625 4.71875c.304688 1.414063.71875 2.695313.78125 3.90625.0625 1.210938-.15625 2.34375-1.15625 3.75-.328125.457031-.222656 1.09375.234375 1.421875s1.09375.222656 1.421875-.234375c1.242188-1.746094 1.582031-3.476562 1.5-5.03125-.082031-1.554687-.535156-2.933594-.8125-4.21875s-.394531-2.441406 0-3.6875c.328125-1.03125 1.210938-2.214844 2.625-3.53125 1.652344 2.6875 4.167969 3.859375 6.3125 4.15625 1.730469.238281 2.960938.054688 3.71875-.09375.433594.949219 1.5 2.871094 4.46875 3.84375 3.289063 1.078125 6.15625-.625 6.15625-.625.234375-.136719.402344-.363281.46875-.625 0 0 .21875-1.023437.4375-2.09375.109375-.535156.230469-1.085937.3125-1.53125.039063-.222656.070313-.425781.09375-.59375.023438-.167969.078125-.195312.03125-.5625h-.03125c.078125-.289062.257813-.6875.15625-1.53125-.125-1.050781-.773437-2.359375-2.21875-3.3125l.03125-.03125c-5.183594-5.003906-6.558594-8.597656-6.59375-8.6875-.011719-.144531-.042969-.609375-.1875-1.3125-.054687-.261719-.113281-.535156-.1875-.8125l8.15625-11.0625c.226563-.304687.257813-.710937.085938-1.046875-.171875-.339844-.519532-.550781-.898438-.546875-.03125 0-.0625 0-.09375 0zm-4.1875 5.125-4.1875 5.6875c-.410156-.386719-1.066406-.96875-1.84375-1.625zm-7.375 11.21875c-.828125 0-1.5.671875-1.5 1.5s.671875 1.5 1.5 1.5 1.5-.671875 1.5-1.5-.671875-1.5-1.5-1.5z"/></svg>