<svg fill="#666" height="50" viewBox="0 0 50 50" width="50" xmlns="http://www.w3.org/2000/svg"><path d="m10.585938 11-10.20507862 10.205078a1.0001 1.0001 0 0 0 -.19140626.191406l-.18945312.189454v.246093a1.0001 1.0001 0 0 0 0 .326172v5.841797h3v22h6v-22h2v15h6v-15h16v15h6v-15h2v22h6v-22h3v-5.832031a1.0001 1.0001 0 0 0 0-.326172v-.255859l-.193359-.19336a1.0001 1.0001 0 0 0 -.183594-.185547 1.0001 1.0001 0 0 0 -.005859-.003906l-10.203126-10.203125h-.414062zm.828124 2h27.171876l8 8h-43.1718755zm-9.414062 10h46v3h-1.832031a1.0001 1.0001 0 0 0 -.326172 0h-3.6875a1.0001 1.0001 0 0 0 -.169922-.013672 1.0001 1.0001 0 0 0 -.144531.013672h-3.671875a1.0001 1.0001 0 0 0 -.326172 0h-3.6875a1.0001 1.0001 0 0 0 -.169922-.013672 1.0001 1.0001 0 0 0 -.144531.013672h-17.671875a1.0001 1.0001 0 0 0 -.326172 0h-3.6875a1.0001 1.0001 0 0 0 -.169922-.013672 1.0001 1.0001 0 0 0 -.144531.013672h-3.6718752a1.0001 1.0001 0 0 0 -.3261719 0h-3.6875a1.0001 1.0001 0 0 0 -.1699219-.013672 1.0001 1.0001 0 0 0 -.1445312.013672h-1.8398438zm3 5h2v20h-2zm8 0h2v13h-2zm22 0h2v13h-2zm8 0h2v20h-2z"/></svg>