<svg fill="#666" height="50" viewBox="0 0 50 50" width="50" xmlns="http://www.w3.org/2000/svg"><path d="m24.984375 3.9863281a1.0001 1.0001 0 0 0 -.144531.0136719h-19.839844a1.0001 1.0001 0 0 0 -1 1v19.832031a1.0001 1.0001 0 0 0 0 .326172v19.841797a1.0001 1.0001 0 0 0 1 1h19.832031a1.0001 1.0001 0 0 0 .326172 0h19.841797a1.0001 1.0001 0 0 0 1-1v-19.832031a1.0001 1.0001 0 0 0 0-.326172v-19.841797a1.0001 1.0001 0 0 0 -1-1h-19.845703a1.0001 1.0001 0 0 0 -.169922-.0136719zm-18.984375 2.0136719h18v18h-18zm20 0h18v18h-18zm-20 20h18v18h-18zm20 0h18v18h-18z"/></svg>