<svg fill="#666" height="50" viewBox="0 0 50 50" width="50" xmlns="http://www.w3.org/2000/svg"><path d="m25 1c-2.199219 0-4 1.800781-4 4v1h-9c-1.644531 0-3 1.355469-3 3v37c0 1.644531 1.355469 3 3 3h26c1.644531 0 3-1.355469 3-3v-37c0-1.644531-1.355469-3-3-3h-9v-1c0-2.199219-1.800781-4-4-4zm0 2c1.117188 0 2 .882813 2 2v1.832031c-.019531.109375-.019531.21875 0 .324219v1.84375h-4v-1.832031c.019531-.109375.019531-.21875 0-.324219v-1.84375c0-1.117187.882813-2 2-2zm0 1c-.550781 0-1 .449219-1 1s.449219 1 1 1 1-.449219 1-1-.449219-1-1-1zm-13 4h9v2c0 .550781.449219 1 1 1h6c.550781 0 1-.449219 1-1v-2h9c.566406 0 1 .433594 1 1v37c0 .566406-.433594 1-1 1h-26c-.566406 0-1-.433594-1-1v-37c0-.566406.433594-1 1-1zm21.292969 13.292969-11.292969 11.292969-5.292969-5.292969-1.414062 1.414062 6.707031 6.707032 12.707031-12.707032z"/></svg>