<svg fill="#666" height="50" viewBox="0 0 50 50" width="50" xmlns="http://www.w3.org/2000/svg"><path d="m17 2c-3.300781 0-6 2.699219-6 6 0 1.984375.976563 3.75 2.46875 4.84375-.800781.402344-1.53125.921875-2.15625 1.5625-.726562-.257812-1.5-.40625-2.3125-.40625-3.855469 0-7 3.144531-7 7 0 2.449219 1.269531 4.625 3.1875 5.875-3.054687 1.445313-5.1875 4.539063-5.1875 8.125v4.5c-.00390625.320313.148438.621094.40625.8125 0 0 .707031.5 2.0625.90625s3.449219.78125 6.53125.78125 5.175781-.375 6.53125-.78125c.175781-.050781.316406-.101562.46875-.15625v4.4375c-.003906.320313.148438.621094.40625.8125 0 0 .707031.5 2.0625.90625s3.449219.78125 6.53125.78125 5.175781-.375 6.53125-.78125 2.0625-.90625 2.0625-.90625c.257813-.191406.410156-.492187.40625-.8125v-4.4375c.152344.054688.292969.105469.46875.15625 1.355469.40625 3.449219.78125 6.53125.78125s5.175781-.375 6.53125-.78125 2.0625-.90625 2.0625-.90625c.257813-.191406.410156-.492187.40625-.8125v-4.5c0-3.585937-2.132812-6.679687-5.1875-8.125 1.917969-1.25 3.1875-3.425781 3.1875-5.875 0-3.855469-3.144531-7-7-7-.871094 0-1.699219.175781-2.46875.46875-.628906-.660156-1.371094-1.210937-2.1875-1.625 1.492188-1.09375 2.46875-2.859375 2.46875-4.84375 0-3.300781-2.699219-6-6-6s-6 2.699219-6 6c0 1.984375.976563 3.75 2.46875 4.84375-2.296875 1.132813-3.976562 3.3125-4.375 5.9375-.398437-2.628906-2.074219-4.808594-4.375-5.9375 1.492188-1.09375 2.46875-2.859375 2.46875-4.84375 0-3.300781-2.699219-6-6-6zm0 2c2.222656 0 4 1.777344 4 4s-1.777344 4-4 4-4-1.777344-4-4 1.777344-4 4-4zm15.8125 0c2.222656 0 4 1.777344 4 4s-1.777344 4-4 4-4-1.777344-4-4 1.777344-4 4-4zm-15.8125 10c3.371094 0 6 2.628906 6 6v.3125c-2.875.871094-5 3.535156-5 6.6875 0 2.449219 1.269531 4.625 3.1875 5.875-1.253906.59375-2.328125 1.464844-3.1875 2.53125v-.40625c0-3.585937-2.132812-6.679687-5.1875-8.125 1.917969-1.25 3.1875-3.425781 3.1875-5.875 0-2.28125-1.113281-4.3125-2.8125-5.59375 1.039063-.886719 2.328125-1.40625 3.8125-1.40625zm15.8125 0c1.527344 0 2.855469.535156 3.90625 1.46875-1.648437 1.28125-2.71875 3.292969-2.71875 5.53125 0 2.449219 1.269531 4.625 3.1875 5.875-3.054687 1.445313-5.1875 4.539063-5.1875 8.125v.40625c-.859375-1.066406-1.933594-1.9375-3.1875-2.53125 1.917969-1.25 3.1875-3.425781 3.1875-5.875 0-3.222656-2.210937-5.945312-5.1875-6.75v-.25c0-3.371094 2.628906-6 6-6zm-23.8125 2c.777344 0 1.5.1875 2.15625.5 1.679688.804688 2.84375 2.503906 2.84375 4.5 0 2.773438-2.226562 5-5 5-2.773437 0-5-2.226562-5-5 0-2.773437 2.226563-5 5-5zm32 0c2.773438 0 5 2.226563 5 5 0 2.773438-2.226562 5-5 5-2.773437 0-5-2.226562-5-5 0-1.847656.988281-3.445312 2.46875-4.3125.007813-.003906.023438.003906.03125 0 .148438-.03125.285156-.09375.40625-.1875.035156-.015625.058594-.046875.09375-.0625.019531-.007812.042969-.019531.0625-.03125.597656-.253906 1.246094-.40625 1.9375-.40625zm-16 6c2.773438 0 5 2.226563 5 5 0 2.773438-2.226562 5-5 5-2.773437 0-5-2.226562-5-5 0-2.773437 2.226563-5 5-5zm-16 6c3.855469 0 7 3.144531 7 7v3.84375c-.148437.089844-.207031.191406-1.03125.4375-1.144531.34375-3.050781.71875-5.96875.71875s-4.824219-.375-5.96875-.71875c-.824219-.246094-.882812-.347656-1.03125-.4375v-3.84375c0-3.855469 3.144531-7 7-7zm32 0c3.855469 0 7 3.144531 7 7v3.84375c-.148437.089844-.207031.191406-1.03125.4375-1.144531.34375-3.050781.71875-5.96875.71875s-4.824219-.375-5.96875-.71875c-.824219-.246094-.882812-.347656-1.03125-.4375v-3.84375c0-3.855469 3.144531-7 7-7zm-16 6c3.855469 0 7 3.144531 7 7v3.84375c-.148437.089844-.207031.191406-1.03125.4375-1.144531.34375-3.050781.71875-5.96875.71875s-4.824219-.375-5.96875-.71875c-.824219-.246094-.882812-.347656-1.03125-.4375v-3.84375c0-3.855469 3.144531-7 7-7z"/></svg>