<svg fill="#666" height="50" viewBox="0 0 50 50" width="50" xmlns="http://www.w3.org/2000/svg"><path d="m5 2v46h18v-46zm22 0v46h18v-46zm-20 2h14v42h-14zm22 0h14v42h-14zm-17 3c-1.09375 0-2 .90625-2 2v21c0 1.09375.90625 2 2 2h4c1.09375 0 2-.90625 2-2v-21c0-1.09375-.90625-2-2-2zm22 0c-1.09375 0-2 .90625-2 2v21c0 1.09375.90625 2 2 2h4c1.09375 0 2-.90625 2-2v-21c0-1.09375-.90625-2-2-2zm-22 2h4v21h-4zm22 0h4v21h-4zm-20 26c-2.199219 0-4 1.800781-4 4s1.800781 4 4 4 4-1.800781 4-4-1.800781-4-4-4zm22 0c-2.199219 0-4 1.800781-4 4s1.800781 4 4 4 4-1.800781 4-4-1.800781-4-4-4zm-22 2c1.117188 0 2 .882813 2 2 0 1.117188-.882812 2-2 2-1.117187 0-2-.882812-2-2 0-1.117187.882813-2 2-2zm22 0c1.117188 0 2 .882813 2 2 0 1.117188-.882812 2-2 2-1.117187 0-2-.882812-2-2 0-1.117187.882813-2 2-2z"/></svg>