<svg fill="#666" height="50" viewBox="0 0 50 50" width="50" xmlns="http://www.w3.org/2000/svg"><path d="m21 2c-1.645455 0-3 1.3545455-3 3v2h-7.845703a1.0001 1.0001 0 0 0 -.169922-.0136719 1.0001 1.0001 0 0 0 -.1445312.0136719h-1.8398438a1.0001 1.0001 0 1 0 0 2h1v36c0 1.645455 1.354545 3 3 3h26c1.645455 0 3-1.354545 3-3v-36h1a1.0001 1.0001 0 1 0 0-2h-1.832031a1.0001 1.0001 0 0 0 -.326172 0h-7.841797v-2c0-1.6454545-1.354545-3-3-3zm0 2h8c.554545 0 1 .4454545 1 1v2h-10v-2c0-.5545455.445455-1 1-1zm-10 5h7.832031a1.0001 1.0001 0 0 0 .326172 0h11.673828a1.0001 1.0001 0 0 0 .326172 0h7.841797v36c0 .554545-.445455 1-1 1h-26c-.554545 0-1-.445455-1-1zm7.984375 4.986328a1.0001 1.0001 0 0 0 -.984375 1.013672v25a1.0001 1.0001 0 1 0 2 0v-25a1.0001 1.0001 0 0 0 -1.015625-1.013672zm6 0a1.0001 1.0001 0 0 0 -.984375 1.013672v25a1.0001 1.0001 0 1 0 2 0v-25a1.0001 1.0001 0 0 0 -1.015625-1.013672zm6 0a1.0001 1.0001 0 0 0 -.984375 1.013672v25a1.0001 1.0001 0 1 0 2 0v-25a1.0001 1.0001 0 0 0 -1.015625-1.013672z"/></svg>