<svg fill="#666" height="50" viewBox="0 0 50 50" width="50" xmlns="http://www.w3.org/2000/svg"><path d="m2.8125 0c-1.535156 0-2.8125 1.277344-2.8125 2.8125v5c-.0078125.0625-.0078125.125 0 .1875v32c0 .550781.449219 1 1 1h23c.359375.003906.695313-.183594.878906-.496094.179688-.3125.179688-.695312 0-1.007812-.183593-.3125-.519531-.5-.878906-.496094h-22v-30h40v13c-.003906.359375.183594.695313.496094.878906.3125.179688.695312.179688 1.007812 0 .3125-.183593.5-.519531.496094-.878906v-14c.007813-.0625.007813-.125 0-.1875v-5c0-1.535156-1.277344-2.8125-2.8125-2.8125zm0 2h38.375c.464844 0 .8125.347656.8125.8125v4.1875h-40v-4.1875c0-.464844.347656-.8125.8125-.8125zm4.1875 13v2h4v-2zm7 0v2h23v-2zm-7 5v2h4v-2zm7 0v2h23v-2zm31.90625 4.90625c-1.050781 0-2.105469.386719-2.90625 1.1875l-.6875.71875.03125.03125-15.4375 15.4375c-.128906.117188-.226562.269531-.28125.4375l-1.6875 6c-.101562.347656-.011719.722656.242188.984375.253906.257813.625.359375.976562.265625l6-1.59375c.167969-.054687.320313-.152344.4375-.28125l15.8125-15.6875c.121094-.101562.21875-.230469.28125-.375 0-.011719 0-.019531 0-.03125l.125-.09375c1.601563-1.601562 1.601563-4.210937 0-5.8125-.800781-.800781-1.855469-1.1875-2.90625-1.1875zm-38.90625.09375v2h4v-2zm7 0v2h23v-2zm29.75 3.25 3 3-15.34375 15.25-2.9375-2.84375.03125-.125zm-36.75 1.75v2h4v-2zm7 0v2h19v-2z"/></svg>