<svg fill="#666" height="50" viewBox="0 0 50 50" width="50" xmlns="http://www.w3.org/2000/svg"><path d="m23.75 1.84375c-1.097656.011719-2.160156.816406-2.46875 2.03125-.015625.0625-.027344.125-.03125.1875 0 0-.144531 2.007813-.53125 4.53125-.386719 2.523438-1.015625 5.5625-1.875 7.4375-.34375.75-.710937 1.03125-1.15625 1.21875-.445312.1875-1.0625.222656-1.8125.1875-8.265625-.394531-12.6875.070313-12.9375.09375v-.03125c-.035156-.003906-.058594.03125-.09375.03125h-.09375v.03125c-1.234375.003906-2.289062.777344-2.625 1.78125-.347656 1.039063.0625 2.335938 1.15625 3.03125l-.03125.03125s.0625.03125.0625.03125c.078125.054688 3.714844 2.617188 11.1875 6.6875 1.40625.765625 1.847656 2.121094 1.1875 3.59375-2.328125 5.203125-4.957031 11.71875-4.96875 11.75v.03125c-.496094 1.21875.03125 2.519531.9375 3.15625.871094.609375 2.144531.660156 3.15625-.0625l.03125.03125s.121094-.089844.125-.09375c.210938-.125 5.84375-3.425781 10.65625-7.96875.84375-.796875 1.378906-.949219 1.71875-.9375s.703125.195313 1.1875.65625c4.90625 4.691406 10.351563 8.15625 10.5 8.25.003906 0 .09375.0625.09375.0625v-.03125c1.019531.769531 2.332031.71875 3.21875.09375.890625-.625 1.390625-1.894531.9375-3.09375h.03125s-.03125-.09375-.03125-.09375c-.039062-.121094-2.523437-7.980469-4.09375-12.0625-.339844-.886719-.449219-1.472656-.40625-1.78125s.15625-.542969.8125-1c3.699219-2.585937 11.066406-7.167969 11.09375-7.1875.015625-.007812.019531-.023437.03125-.03125 1.109375-.691406 1.507813-2.015625 1.15625-3.0625-.347656-1.03125-1.4375-1.855469-2.71875-1.8125v-.03125h-.09375c-.117187-.003906-8.039062-.136719-12.84375.03125-.945312.035156-1.761719-.003906-2.21875-.1875s-.703125-.367187-.875-1.28125c-1.53125-8.125-4.472656-12.167969-4.625-12.375-.003906-.007812.003906-.023437 0-.03125-.003906-.003906-.09375-.125-.09375-.125l-.03125.03125c-.582031-1.0625-1.578125-1.730469-2.625-1.71875zm.03125 2c.253906-.003906.625.140625.90625.71875.035156.054688.078125.109375.125.15625 0 0 2.839844 3.734375 4.34375 11.71875.261719 1.386719 1.125 2.382813 2.125 2.78125 1 .398438 2.015625.347656 3 .3125 4.71875-.164062 12.84375-.03125 12.84375-.03125h.09375c.464844-.035156.65625.1875.75.46875s.074219.519531-.3125.75v.03125s-7.367187 4.550781-11.1875 7.21875c-.902344.632813-1.523437 1.441406-1.65625 2.375-.132812.933594.121094 1.800781.5 2.78125 1.523438 3.964844 4.09375 12.03125 4.09375 12.03125.007813.03125.019531.0625.03125.09375.164063.382813.046875.59375-.21875.78125s-.59375.25-.9375-.03125c-.027344-.035156-.058594-.066406-.09375-.09375 0 0-5.492187-3.484375-10.28125-8.0625-.644531-.613281-1.460937-1.175781-2.5-1.21875-1.039062-.042969-2.089844.464844-3.15625 1.46875-4.679687 4.417969-10.40625 7.8125-10.40625 7.8125-.042969.027344-.085937.058594-.125.09375-.34375.28125-.671875.21875-.9375.03125s-.382812-.398437-.21875-.78125c0 0 2.628906-6.558594 4.9375-11.71875 1.035156-2.308594.15625-4.949219-2.0625-6.15625-7.480469-4.074219-11.03125-6.59375-11.03125-6.59375-.019531-.023437-.039062-.042969-.0625-.0625-.386719-.230469-.40625-.46875-.3125-.75s.285156-.503906.75-.46875c.050781.003906.105469.003906.15625 0 0 0 4.449219-.464844 12.84375-.0625.871094.042969 1.800781.03125 2.6875-.34375s1.679688-1.140625 2.1875-2.25c1.035156-2.253906 1.632813-5.367187 2.03125-7.96875.382813-2.496094.519531-4.339844.53125-4.5.121094-.476562.308594-.527344.5625-.53125zm12.28125 18.125c-.664062 0-1.1875.523438-1.1875 1.1875 0 .664063.523438 1.21875 1.1875 1.21875.664063 0 1.21875-.554687 1.21875-1.21875 0-.664062-.554687-1.1875-1.21875-1.1875zm-18.4375 1.84375c-.664062 0-1.21875.523438-1.21875 1.1875 0 .664063.554688 1.21875 1.21875 1.21875.664063 0 1.21875-.554687 1.21875-1.21875 0-.664062-.554687-1.1875-1.21875-1.1875zm7.375 1.1875c-1.019531 0-1.84375.824219-1.84375 1.84375s.824219 1.84375 1.84375 1.84375 1.84375-.824219 1.84375-1.84375-.824219-1.84375-1.84375-1.84375zm9.21875 13.5625c-.664062 0-1.21875.554688-1.21875 1.21875 0 .664063.554688 1.1875 1.21875 1.1875.664063 0 1.21875-.523437 1.21875-1.1875 0-.664062-.554687-1.21875-1.21875-1.21875z"/></svg>