<svg fill="#666" height="50" viewBox="0 0 50 50" width="50" xmlns="http://www.w3.org/2000/svg"><path d="m10.96875 3c-.222656.023438-.433594.125-.59375.28125 0 0-7.375 6.855469-7.375 15.15625 0 4.425781 1.726563 8.773438 6.125 11.5.476563 1.96875.820313 3.742188.5625 5.3125-.089844.367188.035156.75.320313.996094.285156.246094.6875.308594 1.035156.164062.347656-.144531.585937-.472656.613281-.847656.542969-3.304687-.777344-6.453125-1.53125-9.9375s-1.046875-7.28125 1.125-12.0625c.152344-.3125.132813-.679687-.054687-.972656-.183594-.289063-.503907-.46875-.851563-.464844-.398437.007813-.757812.253906-.90625.625-2.375 5.222656-2.042969 9.601563-1.25 13.28125.066406.308594.148438.578125.21875.875-2.460937-2.257812-3.40625-5.226562-3.40625-8.46875 0-6.332031 4.894531-11.65625 6.03125-12.84375 1 1.148438 4.125 4.859375 4.8125 9.03125.46875 2.84375-.292969 5.257813-1.28125 7.0625-.492187.902344-1.039062 1.648438-1.5 2.1875-.460937.539063-.886719.929688-.9375.96875-.332031.195313-.523437.558594-.492187.941406.027343.386719.277343.714844.636718.855469.355469.136719.761719.058594 1.042969-.203125.3125-.234375.742188-.617187 1.28125-1.25.539063-.632812 1.148438-1.488281 1.71875-2.53125 1.140625-2.085937 2.054688-4.972656 1.5-8.34375-.960937-5.835937-6.03125-11-6.03125-11-.207031-.222656-.507812-.335937-.8125-.3125zm17.9375 17.0625c-.6875 0-1.382812.046875-2.09375.125-7.566406.820313-11.097656 5.042969-12.46875 8.96875s-.78125 7.625-.78125 7.625v.03125c-3.066406 3.207031-4.4375 6.03125-4.4375 6.03125-.210937.324219-.21875.742188-.019531 1.070313.203125.332031.578125.515625.964844.472656.382812-.042969.710937-.300781.835937-.667969 0 0 3.554688-7.320312 12.21875-11.40625 5.910156-2.789062 13.5625-1.9375 13.5625-1.9375.375.097656.773438-.03125 1.019531-.332031.246094-.296875.300782-.710938.132813-1.0625-.164063-.351563-.515625-.574219-.902344-.574219 0 0-2.015625-.257812-4.84375-.125-2.828125.132813-6.492187.652344-9.8125 2.21875-2.742187 1.292969-5.007812 2.882813-6.84375 4.5-.027344-1.265625.070313-3.15625.78125-5.1875 1.1875-3.394531 3.882813-6.871094 10.8125-7.625 9.207031-1 16.328125 5.519531 17.6875 6.84375-.972656 1.714844-6.460937 10.691406-16.65625 11.8125-5.695312.625-10.6875-2.03125-10.6875-2.03125-.316406-.222656-.730469-.242187-1.070312-.054687-.335938.191406-.53125.558593-.503907.945312.027344.386719.277344.71875.636719.859375 0 0 5.421875 2.957031 11.84375 2.25 12.449219-1.371094 18.59375-13.53125 18.59375-13.53125.1875-.371094.125-.820312-.15625-1.125 0 0-7.503906-8.097656-17.8125-8.09375z"/></svg>