<svg fill="#666" height="50" viewBox="0 0 50 50" width="50" xmlns="http://www.w3.org/2000/svg"><path d="m6.78125 2c-.011719.003906-.019531.027344-.03125.03125-.027344.003906-.066406-.007812-.09375 0-.210937.023438-.40625.109375-.5625.25-.671875.367188-1.09375 1.121094-1.09375 1.9375v41.78125c0 .621094.273438 1.273438.78125 1.65625.234375.261719.589844.378906.9375.3125.457031.023438.9375-.078125 1.34375-.3125.847656-.492187 18.15625-10.5 18.15625-10.5l9.03125-5.21875c.019531-.007812.042969-.019531.0625-.03125l.125-.0625s.121094-.0625.125-.0625l.03125-.03125c.269531-.15625 7.667969-4.414062 8.6875-5 .703125-.40625 1.261719-1.066406 1.25-1.875s-.582031-1.4375-1.21875-1.78125c-.351562-.1875-2.632812-1.492187-4.75-2.71875-2.117187-1.226562-4.125-2.40625-4.125-2.40625l-9.21875-5.3125s-16.761719-9.679687-17.75-10.25c-.347656-.199219-.742187-.359375-1.125-.40625-.191406-.023437-.375-.03125-.5625 0zm.21875 2.6875 20.375 20.21875-20.375 20.21875zm4.75 1.90625c5.085938 2.9375 13.46875 7.78125 13.46875 7.78125l8.0625 4.65625-4.5 4.46875zm23.3125 13.46875c.480469.28125 1.703125.992188 3.5 2.03125 2.117188 1.226563 4.289063 2.46875 4.8125 2.75.050781.027344.035156.042969.0625.0625-.039062.027344-.050781.035156-.15625.09375-.960937.554688-7.191406 4.171875-8.1875 4.75l-4.90625-4.84375zm-6.28125 6.21875 4.53125 4.5-8.09375 4.65625s-8.164062 4.710938-13.4375 7.75z"/></svg>