<svg fill="#666" height="50" viewBox="0 0 50 50" width="50" xmlns="http://www.w3.org/2000/svg"><path d="m1 4v5.6875c-.058594.195313-.058594.398438 0 .59375v29.25c-.132812.277344-.132812.597656 0 .875v5.59375h48v-5.8125c.027344-.132812.027344-.273437 0-.40625v-29.59375c.027344-.132812.027344-.273437 0-.40625v-5.78125zm2 2h3v3h-3zm5 0h4v3h-4zm6 0h4v3h-4zm6 0h4v3h-4zm6 0h4v3h-4zm6 0h4v3h-4zm6 0h4v3h-4zm6 0h3v3h-3zm-41 5h44v28h-44zm17.40625 8-.28125.53125-4 7.6875-.125.21875v1.5625h5v2h2v-2h1v-2h-1v-8zm5.59375 0v12h2v-3l.96875-1.78125 2.03125 4.78125h2l-2.9375-6.71875 2.9375-5.28125h-2l-3 5.40625v-5.40625zm-5 3.15625v4.84375h-2.53125zm-18 18.84375h3v3h-3zm5 0h4v3h-4zm6 0h4v3h-4zm6 0h4v3h-4zm6 0h4v3h-4zm6 0h4v3h-4zm6 0h4v3h-4zm6 0h3v3h-3z"/></svg>