<svg fill="#666" height="50" viewBox="0 0 50 50" width="50" xmlns="http://www.w3.org/2000/svg"><path d="m9 4c-2.7495161 0-5 2.2504839-5 5v32c0 2.749516 2.2504839 5 5 5h32c2.749516 0 5-2.250484 5-5v-32c0-2.7495161-2.250484-5-5-5zm0 2h32c1.668484 0 3 1.3315161 3 3v32c0 1.668484-1.331516 3-3 3h-32c-1.6684839 0-3-1.331516-3-3v-32c0-1.6684839 1.3315161-3 3-3zm22.714844 6c-7.074 0-11.844 3.102-13.25 9h-4.464844v2h4.113281l-.042969.271484c-.052999.558-.070312 1.134516-.070312 1.728516 0 .611.018844 1.205672.089844 1.763672l.033203.236328h-4.123047v2h4.453125c1.406 5.913 6.184719 9 13.261719 9 .839 0 1.767156-.070672 2.285156-.138672v-2.183594c-.571.069-1.302156.123047-2.285156.123047-5.487 0-9.311344-2.319781-10.652344-6.800781h9.9375v-2h-10.365234l-.044922-.234375c-.054-.559-.087891-1.151672-.087891-1.763672 0-.611.034891-1.171469.087891-1.730469l.054687-.271484h10.355469v-2h-9.90625c1.321-4.479 5.121094-6.779297 10.621094-6.779297.965 0 1.678843.016516 2.214844.103516v-2.183594c-.5-.071-1.410844-.140625-2.214844-.140625z"/></svg>