<svg fill="#666" height="50" viewBox="0 0 50 50" width="50" xmlns="http://www.w3.org/2000/svg"><path d="m12 0c-1.09375 0-2 .90625-2 2v2h-6c-1.070312 0-2 .804688-2 1.957031v40.25c0 .574219.332031 1.128907.734375 1.414063.402344.28125.839844.378906 1.265625.378906h42c.425781 0 .863281-.097656 1.265625-.378906.402344-.285156.734375-.839844.734375-1.414063v-40.25c0-1.046875-.847656-1.957031-1.917969-1.957031h-6.082031v-2c0-1.09375-.90625-2-2-2h-2c-1.09375 0-2 .90625-2 2v2h-18v-2c0-1.09375-.90625-2-2-2zm0 2h2v6h-2zm24 0h2v6h-2zm-32 4h6v2c0 1.09375.90625 2 2 2h2c1.09375 0 2-.90625 2-2v-2h18v2c0 1.09375.90625 2 2 2h2c1.09375 0 2-.90625 2-2v-2h6v7h-42zm0 9h42v31h-42zm28.703125 5.617188-.542969.839843-8.144531 12.636719-5.34375-4.835937-.742187-.667969-1.339844 1.480469.738281.671875 7.09375 6.414062 9.417969-14.613281.542969-.839844z"/></svg>