<svg fill="#666" height="50" viewBox="0 0 50 50" width="50" xmlns="http://www.w3.org/2000/svg"><path d="m25 2c-12.690705 0-23 10.309295-23 23s10.309295 23 23 23 23-10.309295 23-23-10.309295-23-23-23zm0 2c11.609824 0 21 9.390176 21 21s-9.390176 21-21 21-21-9.390176-21-21 9.390176-21 21-21zm-.015625 2.9863281a1.0001 1.0001 0 0 0 -.984375 1.0136719v14.173828a3 3 0 0 0 -2 2.826172 3 3 0 0 0 .294922 1.291016l-6.001953 6.001953a1.0001 1.0001 0 1 0 1.414062 1.414062l6.001953-6.001953a3 3 0 0 0 1.291016.294922 3 3 0 0 0 3-3 3 3 0 0 0 -2-2.824219v-14.175781a1.0001 1.0001 0 0 0 -1.015625-1.0136719z"/></svg>