<svg fill="#666" height="50" viewBox="0 0 50 50" width="50" xmlns="http://www.w3.org/2000/svg"><path d="m0 7v36h50v-36zm2 2h46v2.5c-.390625.339844-17.925781 15.636719-19.5625 17.0625l-.09375.09375c-1.296875 1.128906-2.625 1.34375-3.34375 1.34375-.714844 0-2.046875-.214844-3.34375-1.34375-.371094-.324219-3.042969-2.632812-4.96875-4.3125-5.714844-4.984375-14.394531-12.585937-14.6875-12.84375zm0 5.15625c1.734375 1.511719 7.886719 6.867188 13.125 11.4375l-13.125 10.375zm46 0v21.8125l-13.125-10.375c5.238281-4.570312 11.390625-9.925781 13.125-11.4375zm-31.34375 12.78125c1.214844 1.058594 3.410156 2.976563 3.6875 3.21875l.03125.03125c1.691406 1.453125 3.488281 1.8125 4.625 1.8125 1.144531 0 2.957031-.363281 4.65625-1.84375.28125-.242187 2.492188-2.148437 3.71875-3.21875l14.625 11.5625v2.5h-46v-2.5z"/></svg>