<svg fill="#666" height="50" viewBox="0 0 50 50" width="50" xmlns="http://www.w3.org/2000/svg"><path d="m14.5 3c-6.339438 0-11.5 5.160562-11.5 11.5v21c0 6.339438 5.160562 11.5 11.5 11.5h21c6.339438 0 11.5-5.160562 11.5-11.5v-21c0-6.339438-5.160562-11.5-11.5-11.5zm0 2h21c5.258562 0 9.5 4.241438 9.5 9.5v21c0 5.258562-4.241438 9.5-9.5 9.5h-21c-5.258562 0-9.5-4.241438-9.5-9.5v-21c0-5.258562 4.241438-9.5 9.5-9.5zm13.503906 4a1.0001 1.0001 0 0 0 -.761718 1.652344s3.668631 4.338214 3.755859 9.863281c.01677 1.04412-.349009 2.428872-.679688 3.730469-1.859032-1.337872-10.079228-7.294028-14.601562-11.94336a1.0001 1.0001 0 0 0 -1.537109 1.269532s1.631696 2.336971 3.55664 4.921875c.363382.487966.6552.743861 1.025391 1.232421-1.945636-1.374909-3.825418-2.646884-7.107422-5.482421a1.0001 1.0001 0 0 0 -1.445313 1.367187s2.550661 3.304025 5.714844 6.970703c2.755292 3.192852 5.799759 6.376881 8.373047 8.279297-.906034.519761-2.318988 1.136123-4.796875 1.136719-2.784151.000928-6.547782-.894516-10.9453125-3.830078a1.0001 1.0001 0 0 0 -1.4433594 1.291015s5.5068249 10.539969 18.0136719 10.541016c2.857837 0 4.904884-.770505 6.470703-1.496094s2.621478-1.310547 3.603516-1.310547c2.089451 0 3.552734 2.3125 3.552734 2.3125a1.0001 1.0001 0 0 0 1.791016-.130859c.971597-2.408263.182955-4.864955-.740235-6.650391-.752147-1.454643-1.376939-2.109805-1.683593-2.464843.304876-.653894.880014-2.053458.880859-4.384766.001069-4.293246-1.872607-10.791758-10.431641-16.6972656a1.0001 1.0001 0 0 0 -.564453-.1777344zm3.597656 5.373047c4.355467 4.376938 5.399172 8.553824 5.398438 11.501953-.000913 2.518848-.867188 4.001953-.867188 4.001953a1.0001 1.0001 0 0 0 .13086 1.173828s.973158 1.068686 1.761719 2.59375c.479622.927583.745418 1.967138.824218 3.007813-.880466-.749991-2.074492-1.458985-3.65039-1.458985-1.683963 0-2.982382.818183-4.445313 1.496094-1.46293.677911-3.119743 1.310547-5.628906 1.310547-6.66473-.000558-10.856904-3.15085-13.380859-5.837891 2.924586 1.289725 5.570253 1.836666 7.755859 1.835938 4.477333-.0011 7.148438-2.236328 7.148438-2.236328a1.0001 1.0001 0 0 0 -.140626-1.623047c-2.038192-1.200223-5.67503-4.983993-8.736328-8.501953.858071.614029 1.815509 1.322296 2.462891 1.740234 2.127462 1.373451 3.216797 1.808594 3.216797 1.808594a1.0001 1.0001 0 0 0 1.005859-1.697266c-.476519-.400013-1.697386-2.033966-2.68164-3.242187 4.441835 3.550804 8.646484 6.570312 8.646484 6.570312a1.0001 1.0001 0 0 0 1.519531-.482422c.666947-1.876385 1.08549-4.053203 1.056641-5.849609-.03718-2.354762-.670776-4.357071-1.396485-6.111328z"/></svg>