<svg fill="#666" height="50" viewBox="0 0 50 50" width="50" xmlns="http://www.w3.org/2000/svg"><path d="m7 2v46h36v-32.414062l-13.585937-13.585938zm2 2h19v13h13v29h-32zm21 1.414063 9.585938 9.585937h-9.585938zm-5 15.003906c-.5625 0-.941406.367187-.941406.914062v8.984375c0 1.101563-.378906 2.015625-2.457031 2.015625-2.929688 0-4.15625.644532-4.15625 2.476563 0 1.191406.285156 3.023437 4.15625 3.023437 3.589843 0 4.34375-2.65625 4.34375-4.03125v-8.617187c3.398437 0 3.023437 1.285156 5.570312 1.558594.566406.089843 1.042969-.273438 1.042969-.824219v-2.75c0-.460938-.382813-.917969-.855469-.917969-2.832031-.273437-2.265625-1.832031-5.757812-1.832031z"/></svg>