<svg fill="#666" height="50" viewBox="0 0 50 50" width="50" xmlns="http://www.w3.org/2000/svg"><path d="m20.84375-.03125c-.425781.0664063-.761719.390625-.84375.8125-1.5625 7.402344-4.738281 12.804688-7.59375 17.84375-2.855469 5.039063-5.4375 9.75-5.4375 15.6875 0 7.726563 5.078125 12.816406 11.84375 15.25.101563.039063.175781.121094.28125.15625.480469.191406 1.027344-.007812 1.273438-.460937.246093-.453125.117187-1.019532-.304688-1.320313-1.734375-1.339844-4.03125-4.496094-4.03125-7 0-2.75.554688-4.472656 1.34375-6.40625.617188-1.507812 1.375-3.285156 2.0625-5.46875 2.203125 2.75 2.53125 6 2.53125 6 .019531.46875.351563.859375.8125.957031.457031.097657.917969-.132812 1.125-.550781 0 0 3.472656-7.269531 3.15625-15.8125 5.691406 6.011719 7.941406 11.84375 7.90625 16.65625-.039062 5.585938-2.96875 9.96875-5.71875 11.84375-.378906.273438-.527344.765625-.355469 1.199219.167969.4375.609375.703125 1.074219.644531 7.226563-1.050781 13.0625-7.625 13.0625-15.78125 0-5.832031-1.6875-10.988281-5.1875-16.3125s-8.796875-10.855469-16.15625-17.65625c-.203125-.1914062-.472656-.2929688-.75-.28125-.03125 0-.0625 0-.09375 0zm.6875 2.96875c6.589844 6.167969 11.507813 11.347656 14.625 16.09375 3.332031 5.070313 4.8125 9.738281 4.8125 15.1875 0 5.609375-3.136719 10.21875-7.4375 12.4375 1.96875-2.617187 3.46875-6.128906 3.5-10.34375.042969-5.992187-2.867187-13.082031-10.34375-20.0625-.320312-.28125-.78125-.335937-1.160156-.132812-.375.199218-.585938.617187-.527344 1.039062.949219 6.410156-.660156 11.371094-1.8125 14.34375-.609375-1.667969-1.648437-3.652344-3.53125-5.28125-.269531-.230469-.640625-.304687-.976562-.195312-.335938.105468-.59375.382812-.679688.726562-.746094 3.042969-1.707031 5.007813-2.53125 7.03125-.824219 2.023438-1.5 4.117188-1.5 7.15625 0 1.734375.625 3.390625 1.5 4.84375-3.953125-2.464844-6.4375-6.21875-6.4375-11.46875 0-5.34375 2.3125-9.671875 5.15625-14.6875 2.621094-4.621094 5.601563-9.847656 7.34375-16.6875z"/></svg>