<svg fill="#666" height="50" viewBox="0 0 50 50" width="50" xmlns="http://www.w3.org/2000/svg"><path d="m5.953125 4c-.511719 0-1.03125.1875-1.398437.554688-.367188.367187-.554688.886718-.554688 1.398437v38.09375c0 .507813.1875 1.03125.554688 1.398438.367187.367187.886718.554687 1.398437.554687h38.09375c.507813 0 1.03125-.1875 1.398438-.554687.367187-.367188.554687-.886719.554687-1.398438v-38.09375c0-.511719-.1875-1.03125-.554687-1.398437-.367188-.367188-.886719-.554688-1.398438-.554688zm.046875 2h38v38h-38zm6.433594 14.890625v10.109375h1.960937v-4.230469h2.058594v4.230469h1.964844v-10.109375h-1.964844v4.050781h-2.058594v-4.050781zm7.035156 0v1.8125h1.78125v8.296875h1.96875v-8.296875h1.796875v-1.8125zm6.941406 0-.734375 10.109375h1.699219l.160156-3.511719c.0625-1.003906.121094-2.277343.152344-3.375h.046875c.148438 1.097657.417969 2.355469.613281 3.167969l.839844 3.550781h1.394531l.871094-3.613281c.191406-.777344.464844-2.023437.644531-3.105469h.042969c-.027344 1.082032.046875 2.386719.09375 3.347657l.175781 3.539062h1.757813l-.617188-10.109375h-2.066406l-.796875 3.660156c-.269531 1.273438-.496094 2.417969-.644531 3.542969h-.027344c-.183594-1.144531-.4375-2.269531-.722656-3.542969l-.808594-3.660156zm9.199219 0v10.109375h4.558594v-1.664062h-2.59375v-8.445313z"/></svg>