<svg fill="#666" height="50" viewBox="0 0 50 50" width="50" xmlns="http://www.w3.org/2000/svg"><path d="m7 2v46h36v-32.589844l-13.816406-13.410156zm2 2h19v13h13v29h-32zm21 1.578125 9.707031 9.421875h-9.707031zm3.421875 17.886719c-2.144531 0-4.246094 1.53125-4.292969 5.207031-.027343 1.738281.4375 3.238281 1.308594 4.078125.675781.675781 1.546875 1.003906 2.699219 1.003906.734375 0 1.664062-.179687 2.097656-.359375v-5.398437h-2.714844v1.601562h.902344v2.449219c-.074219.027344-.210937.042969-.390625.042969-.914062 0-1.859375-.871094-1.859375-3.300781 0-2.640625 1.0625-3.554688 2.398438-3.554688.492187 0 .871093.078125 1.152343.226563l.347657-1.695313c-.316407-.148437-.882813-.300781-1.648438-.300781zm-16.332031.046875c-.75 0-1.503906.074219-2.058594.191406v9.964844h1.964844v-3.765625h.394531c.808594 0 1.828125-.300781 2.457031-.960938.523438-.570312.855469-1.335937.855469-2.429687 0-.855469-.269531-1.695313-.871094-2.21875-.660156-.617188-1.574218-.78125-2.742187-.78125zm9.070312.042969v2.234375c0 1.859375.136719 3.617187.199219 4.679687h-.03125c-.285156-.867187-.78125-2.171875-1.078125-2.953125l-1.5625-3.957031h-1.796875v10.105469h1.722656v-2.277344c0-2.027344-.074218-3.585938-.121093-4.605469h.03125c.226562.914063.691406 2.1875 1.019531 3.042969l1.546875 3.839844h1.800781v-10.109375zm-8.683593 1.542968c.914062 0 1.273437.691407 1.273437 1.578125 0 .945313-.449219 1.648438-1.4375 1.648438-.121094 0-.226562 0-.316406-.027344v-3.121094c.121094-.046875.300781-.078125.480469-.078125z"/></svg>