<svg fill="#666" height="50" viewBox="0 0 50 50" width="50" xmlns="http://www.w3.org/2000/svg"><path d="m24.402344 9c-6.601563 0-12.800781.5-16.101563 1.199219-2.199218.5-4.101562 2-4.5 4.300781-.398437 2.398438-.800781 6-.800781 10.5s.398438 8 .898438 10.5c.402343 2.199219 2.300781 3.800781 4.5 4.300781 3.503906.699219 9.5 1.199219 16.101562 1.199219 6.601563 0 12.597656-.5 16.097656-1.199219 2.203125-.5 4.101563-2 4.5-4.300781.402344-2.5.902344-6.097656 1-10.597656 0-4.5-.5-8.101563-1-10.601563-.398437-2.199218-2.296875-3.800781-4.5-4.300781-3.5-.5-9.597656-1-16.195312-1zm0 2c7.199219 0 12.996094.597656 15.796875 1.097656 1.5.402344 2.699219 1.402344 2.898437 2.703125.601563 3.199219 1 6.601563 1 10.101563-.097656 4.296875-.597656 7.796875-1 10.296875-.296875 1.898437-2.296875 2.5-2.898437 2.703125-3.601563.699219-9.601563 1.195312-15.601563 1.195312s-12.097656-.398437-15.597656-1.195312c-1.5-.402344-2.699219-1.402344-2.898437-2.703125-.800782-2.800781-1.101563-6.5-1.101563-10.199219 0-4.601562.402344-8 .800781-10.097656.300782-1.902344 2.398438-2.503906 2.898438-2.703125 3.300781-.699219 9.402344-1.199219 15.703125-1.199219zm-5.402344 6v16l14-8zm2 3.402344 8 4.597656-8 4.597656z"/></svg>