<svg fill="#666" height="50" viewBox="0 0 50 50" width="50" xmlns="http://www.w3.org/2000/svg"><path d="m5 7c-2.746094 0-5 2.253906-5 5v26c0 2.746094 2.253906 5 5 5h40c2.746094 0 5-2.253906 5-5v-26c0-2.746094-2.253906-5-5-5zm0 2h40c1.65625 0 3 1.34375 3 3v26c0 1.65625-1.34375 3-3 3h-40c-1.65625 0-3-1.34375-3-3v-26c0-1.65625 1.34375-3 3-3zm3.1875 9.6875 5 14.3125h2.21875l5-14.3125h-2l-4.09375 12.40625-4.125-12.40625zm15.90625 0v14.3125h1.90625v-14.3125zm7 0v14.3125h1.90625v-5.90625h4.40625c1.5 0 2.582031-.394531 3.28125-1.09375s1.125-1.792969 1.125-3.09375-.425781-2.394531-1.125-3.09375c-.800781-.699219-1.882812-1.125-3.28125-1.125zm2 1.625h3.71875c1.101563 0 1.773438.289063 2.375.6875.601563.398438.8125 1.007813.8125 1.90625 0 .898438-.3125 1.5-.8125 2s-1.273437.6875-2.375.6875v-.09375h-3.71875z"/></svg>