<svg fill="#666" height="50" viewBox="0 0 50 50" width="50" xmlns="http://www.w3.org/2000/svg"><path d="m7 2v46h36v-32.589844l-13.816406-13.410156zm2 2h19v13h13v29h-32zm21 1.578125 9.707031 9.421875h-9.707031zm-9.605469 17.890625c-1.964843 0-4.082031 1.484375-4.082031 5.292969 0 2.863281 1.234375 4.996094 3.8125 4.996094.691406 0 1.246094-.105469 1.53125-.242188l-.195312-1.648437c-.238282.074218-.617188.148437-.945313.148437-1.199219 0-2.113281-.945312-2.113281-3.359375 0-2.503906 1.003906-3.464844 2.113281-3.464844.433594 0 .6875.089844.914063.195313l.332031-1.652344c-.195313-.132812-.675781-.265625-1.367188-.265625zm5.144532 0c-2.113282 0-3.195313 1.347656-3.195313 2.96875 0 .914063.527344 1.980469 1.90625 2.820313.855469.554687 1.304688.914062 1.304688 1.648437 0 .660156-.449219 1.140625-1.378907 1.140625-.570312 0-1.261718-.164062-1.664062-.390625l-.289063 1.695313c.332032.195312 1.128907.40625 1.9375.40625 1.980469 0 3.34375-1.214844 3.34375-3.058594 0-1.066406-.492187-2.085938-1.828125-2.898438-1.09375-.65625-1.394531-.972656-1.394531-1.574218 0-.539063.402344-1.050782 1.246094-1.050782.566406 0 1.003906.164063 1.285156.34375l.316406-1.691406c-.296875-.183594-.929687-.359375-1.589843-.359375zm5.910156 0c-2.113281 0-3.195313 1.347656-3.195313 2.96875 0 .914063.527344 1.980469 1.90625 2.820313.855469.554687 1.304688.914062 1.304688 1.648437 0 .660156-.449219 1.140625-1.378906 1.140625-.570313 0-1.261719-.164062-1.664063-.390625l-.285156 1.695313c.328125.195312 1.125.40625 1.933594.40625 1.980468 0 3.34375-1.214844 3.34375-3.058594 0-1.066406-.492188-2.085938-1.828125-2.898438-1.09375-.65625-1.398438-.972656-1.398438-1.574218 0-.539063.40625-1.050782 1.25-1.050782.566406 0 1.003906.164063 1.285156.34375l.316407-1.691406c-.300782-.183594-.929688-.359375-1.589844-.359375z"/></svg>