<svg fill="#666" height="50" viewBox="0 0 50 50" width="50" xmlns="http://www.w3.org/2000/svg"><path d="m25 2c-12.691406 0-23 10.308594-23 23s10.308594 23 23 23 23-10.308594 23-23-10.308594-23-23-23zm0 2c11.609375 0 21 9.390625 21 21s-9.390625 21-21 21-21-9.390625-21-21 9.390625-21 21-21zm-7.875 13.125c-4.113281 0-6.6875 2.949219-6.6875 7.75 0 4.789063 2.578125 7.75 6.6875 7.75 3.300781 0 5.746094-1.953125 6.15625-4.875h-2.3125c-.410156 1.671875-1.886719 2.71875-3.84375 2.71875-2.664062 0-4.3125-2.148437-4.3125-5.59375 0-3.457031 1.65625-5.625 4.3125-5.625 1.949219 0 3.414063 1.183594 3.84375 3h2.3125c-.367187-3.015625-2.894531-5.125-6.15625-5.125zm16.28125 0c-4.113281 0-6.6875 2.949219-6.6875 7.75 0 4.789063 2.578125 7.75 6.6875 7.75 3.300781 0 5.714844-1.953125 6.125-4.875h-2.28125c-.410156 1.671875-1.886719 2.71875-3.84375 2.71875-2.664062 0-4.34375-2.148437-4.34375-5.59375 0-3.457031 1.6875-5.625 4.34375-5.625 1.949219 0 3.414063 1.183594 3.84375 3h2.3125c-.367187-3.015625-2.894531-5.125-6.15625-5.125z"/></svg>