<svg fill="#666" height="50" viewBox="0 0 50 50" width="50" xmlns="http://www.w3.org/2000/svg"><path d="m5.8125 0c-.476562.0898438-.820312.511719-.8125 1v44c0 .550781.449219 1 1 1h3v3c0 .550781.449219 1 1 1h34c.550781 0 1-.449219 1-1v-44c0-.550781-.449219-1-1-1h-3v-3c0-.550781-.449219-1-1-1h-34c-.03125 0-.0625 0-.09375 0s-.0625 0-.09375 0zm1.1875 2h32v42h-32zm34 4h2v42h-32v-2h29c.550781 0 1-.449219 1-1zm-19.09375 4.5c-.199219 0-.40625.207031-.40625.40625v17.28125c0 .199219.207031.40625.40625.40625h2.5c.199219 0 .40625-.207031.40625-.40625v-17.28125c0-.199219-.207031-.40625-.40625-.40625zm-.21875 21.09375c-.199219 0-.375.207031-.375.40625v3c0 .199219.175781.40625.375.40625h2.71875c.199219 0 .40625-.207031.40625-.40625v-2.90625c0-.199219-.207031-.40625-.40625-.40625v-.09375z"/></svg>