<svg fill="#666" height="50" viewBox="0 0 50 50" width="50" xmlns="http://www.w3.org/2000/svg"><path d="m30.59375.09375c-.15625.015625-.304687.070313-.4375.15625-.335937.214844-1.65625.804688-3.28125 1.40625-1.625.601563-3.625 1.289063-5.59375 1.96875-1.96875.679688-3.921875 1.359375-5.46875 1.9375-.773437.289063-1.429687.546875-1.96875.78125-.539062.234375-.902344.367188-1.28125.6875-.507812.429688-1.042969 1.121094-1.75 2.0625s-1.511719 2.085938-2.28125 3.28125c-.769531 1.195313-1.511719 2.4375-2.0625 3.53125s-.96875 1.953125-.96875 2.90625c0 .398438.074219.496094.15625.8125s.199219.71875.34375 1.1875c.292969.9375.6875 2.164063 1.1875 3.5.929688 2.480469 2.136719 5.347656 3.4375 7.59375-1.671875 1.910156-2.625 4.382813-2.625 7.09375 0 6.046875 4.953125 11 11 11s11-4.953125 11-11c0-2.960937-1.15625-5.691406-3.0625-7.65625.839844-.378906 2.109375-.835937 3.59375-1.46875 2.089844-.890625 4.585938-2.210937 6.8125-4.59375 2.28125-2.449219 3.332031-5.980469 4.4375-9.1875s2.28125-6.046875 4.09375-7.28125c.410156-.289062.542969-.835937.3125-1.28125-1.40625-2.695312-4.46875-4.429687-7.53125-5.625-3.0625-1.195312-6.128906-1.8125-7.96875-1.8125-.03125 0-.0625 0-.09375 0zm.25 2.03125c1.410156.027344 4.328125.546875 7.09375 1.625 2.554688.996094 4.789063 2.511719 5.96875 4.1875-1.980469 1.851563-3.015625 4.652344-4 7.5-1.117187 3.242188-2.210937 6.515625-4.03125 8.46875-1.976562 2.117188-4.167969 3.289063-6.125 4.125-1.941406.828125-3.628906 1.226563-4.84375 2.15625-.011719.007813-.019531.023438-.03125.03125-1.0625.789063-2.34375 2.03125-3.78125 3.09375-1.453125 1.070313-3.019531 1.875-4.40625 1.875-1.558594 0-3.359375-1.414062-3.5-2.875-.097656-1.097656.328125-2.121094 1.09375-3.125s1.871094-1.945312 3.03125-2.71875c2.320313-1.546875 4.75-2.4375 4.75-2.4375.175781-.070312.328125-.191406.4375-.34375 0 0 1.011719-1.394531 2.1875-2.90625.589844-.753906 1.230469-1.539062 1.78125-2.1875.550781-.648437 1.082031-1.183594 1.25-1.3125.371094-.292969.480469-.808594.269531-1.230469-.210937-.421875-.6875-.636718-1.144531-.519531 0 0-1.289062.335938-2.875.40625-1.585937.070313-3.351562-.203125-4.1875-.96875-.230469-.210937-.542969-.300781-.851562-.246094-.304688.054688-.570313.25-.710938.527344 0 0-1.980469 3.5-4.625 4.0625-.339844.066406-.621094.308594-.742187.632813-.121094.324218-.0625.6875.148437.960937 0 0 .820313 1.019531 1 3.28125.015625.21875.101563.429688.25.59375 0 0 .1875.203125.40625.5.167969.230469.292969.429688.375.59375-.824219.652344-1.703125 1.253906-2.34375 2.09375-.367187.480469-.625 1.039063-.875 1.59375-.980469-1.890625-2.003906-3.945312-2.75-5.9375-.488281-1.300781-.878906-2.511719-1.15625-3.40625-.140625-.449219-.242187-.824219-.3125-1.09375-.042969-.164062-.050781-.320312-.0625-.375.023438-.167969.242188-.992187.71875-1.9375.503906-.996094 1.226563-2.1875 1.96875-3.34375.742188-1.15625 1.515625-2.292969 2.1875-3.1875s1.296875-1.601562 1.4375-1.71875c-.054687.046875.296875-.195312.78125-.40625.484375-.210937 1.152344-.4375 1.90625-.71875 1.511719-.5625 3.4375-1.257812 5.40625-1.9375 1.96875-.679687 3.964844-1.355469 5.625-1.96875 1.472656-.546875 2.507813-.972656 3.28125-1.40625zm-11.375 14.8125c1.445313.792969 3.09375 1.066406 4.5625 1 .257813-.011719.230469-.042969.46875-.0625-.457031.550781-.921875 1.109375-1.375 1.6875-1.105469 1.417969-1.886719 2.523438-2.03125 2.71875-.347656.132813-2.308594.925781-4.53125 2.34375-.105469-.160156-.179687-.390625-.28125-.53125-.199219-.269531-.285156-.363281-.375-.46875-.15625-1.226562-.417969-2.222656-.71875-2.875 2.507813-1.085937 3.78125-2.917969 4.28125-3.8125zm5.78125 15.5625c1.695313 1.613281 2.75 3.929688 2.75 6.5 0 4.953125-4.046875 9-9 9s-9-4.046875-9-9c0-1.945312.589844-3.714844 1.625-5.15625.816406 2.003906 2.886719 3.34375 5.0625 3.34375 2.113281 0 3.996094-1.070312 5.59375-2.25 1.1875-.875 2.15625-1.75 2.96875-2.4375z"/></svg>