<svg fill="#666" height="50" viewBox="0 0 50 50" width="50" xmlns="http://www.w3.org/2000/svg"><path d="m4.984375 5c-1.6367543 0-2.984375 1.3476207-2.984375 2.984375v34.03125c0 1.636754 1.3476207 2.984375 2.984375 2.984375h40.03125c1.636754 0 2.984375-1.347621 2.984375-2.984375v-34.03125c0-1.6367543-1.347621-2.984375-2.984375-2.984375zm0 2h40.03125c.555246 0 .984375.4291293.984375.984375v4.015625h-20.001953-2-19.998047v-4.015625c0-.5552457.4291293-.984375.984375-.984375zm-.984375 7h19.998047l.001953 29h-19.015625c-.5552457 0-.984375-.429129-.984375-.984375zm21.998047 0h20.001953v28.015625c0 .555246-.429129.984375-.984375.984375h-19.015625zm-18.998047 5v2h2v-2zm4 0v2h10v-2zm18 0v2h2v-2zm4 0v2h10v-2zm-26 4v2h2v-2zm4 0v2h8v-2zm18 0v2h2v-2zm4 0v2h10v-2zm-26 4v2h2v-2zm4 0v2h10v-2zm18 0v2h2v-2zm4 0v2h8v-2zm-16 5v2h4v-2zm22 0v2h4v-2zm-32 4v2h2v-2zm4 0v2h10v-2zm18 0v2h2v-2zm4 0v2h10v-2z"/></svg>