<svg fill="#666" height="50" viewBox="0 0 50 50" width="50" xmlns="http://www.w3.org/2000/svg"><path d="m25 0c-5.644531 0-10.769531 1.011719-14.5625 2.71875-1.894531.851563-3.457031 1.882813-4.59375 3.09375-1.136719 1.210938-1.84375 2.644531-1.84375 4.1875v9.8125c-.007812.0625-.007812.125 0 .1875v9.8125c-.007812.0625-.007812.125 0 .1875v9c0 1.542969.707031 2.976563 1.84375 4.1875 1.136719 1.210938 2.699219 2.242188 4.59375 3.09375 3.792969 1.707031 8.917969 2.71875 14.5625 2.71875s10.769531-1.011719 14.5625-2.71875c1.894531-.851562 3.457031-1.882812 4.59375-3.09375 1.136719-1.210937 1.84375-2.644531 1.84375-4.1875v-29c0-1.542969-.707031-2.976562-1.84375-4.1875-1.136719-1.210937-2.699219-2.242187-4.59375-3.09375-3.792969-1.707031-8.917969-2.71875-14.5625-2.71875zm0 2c5.402344 0 10.273438 1.011719 13.71875 2.5625 1.722656.773438 3.082031 1.679688 3.96875 2.625.886719.945313 1.3125 1.871094 1.3125 2.8125s-.425781 1.867188-1.3125 2.8125c-.886719.945313-2.246094 1.851563-3.96875 2.625-3.445312 1.550781-8.316406 2.5625-13.71875 2.5625s-10.273437-1.011719-13.71875-2.5625c-1.722656-.773437-3.082031-1.679687-3.96875-2.625-.886719-.945312-1.3125-1.871094-1.3125-2.8125s.425781-1.867187 1.3125-2.8125c.886719-.945312 2.246094-1.851562 3.96875-2.625 3.445313-1.550781 8.316406-2.5625 13.71875-2.5625zm-19 12.34375c1.121094 1.144531 2.621094 2.121094 4.4375 2.9375 3.792969 1.707031 8.917969 2.71875 14.5625 2.71875s10.769531-1.011719 14.5625-2.71875c1.816406-.816406 3.316406-1.792969 4.4375-2.9375v5.5.09375.0625c0 .941406-.425781 1.867188-1.3125 2.8125-.886719.945313-2.246094 1.851563-3.96875 2.625-3.445312 1.550781-8.316406 2.5625-13.71875 2.5625s-10.273437-1.011719-13.71875-2.5625c-1.722656-.773437-3.082031-1.679687-3.96875-2.625-.886719-.945312-1.3125-1.871094-1.3125-2.8125.007813-.0625.007813-.125 0-.1875zm0 10c1.121094 1.144531 2.621094 2.121094 4.4375 2.9375 3.792969 1.707031 8.917969 2.71875 14.5625 2.71875s10.769531-1.011719 14.5625-2.71875c1.816406-.816406 3.316406-1.792969 4.4375-2.9375v5.5.09375.0625c0 .941406-.425781 1.867188-1.3125 2.8125-.886719.945313-2.246094 1.851563-3.96875 2.625-3.445312 1.550781-8.316406 2.5625-13.71875 2.5625s-10.273437-1.011719-13.71875-2.5625c-1.722656-.773437-3.082031-1.679687-3.96875-2.625-.886719-.945312-1.3125-1.871094-1.3125-2.8125.007813-.0625.007813-.125 0-.1875zm0 10c1.121094 1.144531 2.621094 2.121094 4.4375 2.9375 3.792969 1.707031 8.917969 2.71875 14.5625 2.71875s10.769531-1.011719 14.5625-2.71875c1.816406-.816406 3.316406-1.792969 4.4375-2.9375v4.65625c0 .941406-.425781 1.867188-1.3125 2.8125-.886719.945313-2.246094 1.851563-3.96875 2.625-3.445312 1.550781-8.316406 2.5625-13.71875 2.5625s-10.273437-1.011719-13.71875-2.5625c-1.722656-.773437-3.082031-1.679687-3.96875-2.625-.886719-.945312-1.3125-1.871094-1.3125-2.8125z"/></svg>