<svg fill="#666" height="50" viewBox="0 0 50 50" width="50" xmlns="http://www.w3.org/2000/svg"><path d="m25 2c-12.688665 0-23 10.311335-23 23s10.311335 23 23 23 23-10.311335 23-23c0-12.633831-10.226618-22.8957871-22.839844-22.984375a1.0001 1.0001 0 0 0 -.160156-.015625zm0 2c11.607335 0 21 9.392665 21 21s-9.392665 21-21 21-21-9.392665-21-21 9.392665-21 21-21zm-8 14a3 3 0 0 0 -3 3 3 3 0 0 0 3 3 3 3 0 0 0 3-3 3 3 0 0 0 -3-3zm16 0a3 3 0 0 0 -3 3 3 3 0 0 0 3 3 3 3 0 0 0 3-3 3 3 0 0 0 -3-3zm-18 13a1.0001 1.0001 0 1 0 0 2h20a1.0001 1.0001 0 1 0 0-2z"/></svg>