<svg fill="#666" height="50" viewBox="0 0 50 50" width="50" xmlns="http://www.w3.org/2000/svg"><path d="m4 6v6c-.0625.308594-1 4.839844-1 7.5 0 1.378906.269531 2.695313 1 3.75v24.75h42v-24.75c.730469-1.054687 1-2.371094 1-3.75 0-2.632812-.917969-7.035156-1-7.4375 0-.019531 0-.042969 0-.0625v-6zm2 2h38v3h-4.8125c-.132812-.027344-.273437-.027344-.40625 0h-6.5625c-.101562-.027344-.207031-.039062-.3125-.03125-.03125.007813-.0625.019531-.09375.03125h-6.59375c-.101562-.027344-.207031-.039062-.3125-.03125-.03125.007813-.0625.019531-.09375.03125h-6.59375c-.101562-.027344-.207031-.039062-.3125-.03125-.03125.007813-.0625.019531-.09375.03125h-6.59375c-.101562-.027344-.207031-.039062-.3125-.03125-.03125.007813-.0625.019531-.09375.03125h-4.8125zm-.125 5h4.125v8.875c-.640625.675781-1.503906 1.125-2.5 1.125-.773437 0-1.261719-.195312-1.625-.5625-.0625-.121094-.144531-.226562-.25-.3125-.398437-.574219-.625-1.519531-.625-2.625 0-1.972656.703125-5.582031.875-6.5zm6.125 0h5v8.875c-.640625.675781-1.503906 1.125-2.5 1.125s-1.859375-.449219-2.5-1.125zm7 0h5v8.875c-.640625.675781-1.503906 1.125-2.5 1.125s-1.859375-.449219-2.5-1.125zm7 0h5v8.90625c-.636719.667969-1.507812 1.09375-2.5 1.09375-.996094 0-1.859375-.449219-2.5-1.125zm7 0h5v8.90625c-.636719.667969-1.507812 1.09375-2.5 1.09375-.992187 0-1.863281-.425781-2.5-1.09375zm7 0h4.125c.171875.917969.875 4.527344.875 6.5 0 .984375-.179687 1.824219-.5 2.40625-.234375.136719-.402344.363281-.46875.625-.351562.308594-.824219.46875-1.53125.46875-.992187 0-1.863281-.425781-2.5-1.09375zm-8 10.53125c.960938.839844 2.121094 1.46875 3.5 1.46875s2.539063-.628906 3.5-1.46875c.960938.839844 2.121094 1.46875 3.5 1.46875.53125 0 1.042969-.09375 1.5-.25v21.25h-3v-18h-11v18h-24v-21.25c.457031.15625.96875.25 1.5.25 1.375 0 2.539063-.601562 3.5-1.4375.960938.835938 2.125 1.4375 3.5 1.4375s2.539063-.601562 3.5-1.4375c.960938.835938 2.125 1.4375 3.5 1.4375s2.539063-.601562 3.5-1.4375c.960938.835938 2.125 1.4375 3.5 1.4375 1.378906 0 2.539063-.628906 3.5-1.46875zm-23 4.46875v15h18v-15zm2 2h14v11h-14zm21 0h7v16h-7z"/></svg>