<svg fill="#666" height="50" viewBox="0 0 50 50" width="50" xmlns="http://www.w3.org/2000/svg"><path d="m25 2c-12.690705 0-23 10.309295-23 23s10.309295 23 23 23 23-10.309295 23-23-10.309295-23-23-23zm0 2c11.609824 0 21 9.390176 21 21s-9.390176 21-21 21-21-9.390176-21-21 9.390176-21 21-21zm-7.041016 9.037109a1.0001 1.0001 0 0 0 -1 1.003907v.023437a1.0001 1.0001 0 0 0 0 .005859l.083985 21.966797a1.0001 1.0001 0 0 0 1.503906.861329l18.957031-11.070313a1.0001 1.0001 0 0 0 -.005859-1.732422l-19.041016-10.925781v.001953a1.0001 1.0001 0 0 0 -.498047-.134766zm1.00586 2.732422 16.037109 9.203125-15.964844 9.322266z"/></svg>