<svg fill="#666" height="50" viewBox="0 0 50 50" width="50" xmlns="http://www.w3.org/2000/svg"><path d="m6 0c-1.085937 0-2.070312.421875-2.53125 1.21875-.460937.796875-.46875 1.65625-.46875 2.59375 0 2.636719 1.664063 6.890625 4.71875 10.5625 2.839844 3.414063 7.070313 6.226563 12.28125 5.78125.015625.304688.042969.605469.09375.90625-.421875-.039062-.855469-.035156-1.28125 0-1.058594.085938-2.117187.4375-3.09375 1.15625-1.707031 1.253906-3.070312 3.480469-3.96875 7.125-.148437.21875-.207031.488281-.15625.75-.066406.300781-.128906.589844-.1875.90625-.375 1.820313-.496094 3.96875-.3125 6.125-.011719.125-.003906.253906.03125.375v.03125.09375c.144531 1.34375.421875 2.679688.8125 3.9375.53125 1.714844 1.3125 3.285156 2.4375 4.46875.496094.523438 1.074219.980469 1.71875 1.3125 1.144531 1.6875 2.90625 2.65625 2.90625 2.65625v-2c4.519531-.105469 10.0625-4.167969 12.0625-10.59375.398438-1.25.625-2.371094.75-3.40625.21875-.300781.253906-.695312.09375-1.03125.0625-1.558594-.183594-2.863281-.625-3.96875 2.152344.0625 4.117188-.476562 5.3125-1.96875 0-.011719 0-.019531 0-.03125 1.40625-1.808594 1.734375-4.476562.84375-7.1875 1.136719.160156 2.300781.195313 3.4375.09375 2.394531-.214844 4.734375-.945312 5.71875-2.84375.871094-1.746094.460938-3.917969-.625-5.9375-1.070312-1.992187-2.875-3.902344-5.21875-5.15625.339844-.046875.695313-.085937 1.03125-.09375 1.132813-.023437 2.0625.125 2.0625.125.550781.085938 1.070313-.292969 1.15625-.84375.085938-.550781-.292969-1.070312-.84375-1.15625 0 0-1.089844-.152344-2.40625-.125s-2.917969.160156-4.15625 1.125c-.011719.011719-.019531.019531-.03125.03125-.671875-.046875-1.335937-.015625-1.96875.125l-.46875-1.75c.660156-.539062 1.671875-.988281 2.6875-1.1875 1.183594-.230469 2.1875-.21875 2.1875-.21875.359375.003906.695313-.183594.878906-.496094.179688-.3125.179688-.695312 0-1.007812-.183593-.3125-.519531-.50000025-.878906-.496094 0 0-1.171875.0117188-2.5625.28125-1.390625.269531-3.066406.746094-4.1875 2.0625-.21875.246094-.300781.585938-.21875.90625l.6875 2.625c-1.128906.667969-2.0625 1.695313-2.71875 2.96875-.496094.960938-.789062 1.992188-.875 3.03125-1.546875-3.890625-3.976562-6.792969-6.5625-8.75-2.757812-2.085937-5.652344-3.125-7.96875-3.125-1.378906 0-2.320312.398438-2.84375.96875-.054687.058594-.082031.125-.125.1875-2.492187-.796875-4.832031-1.15625-6.625-1.15625zm0 2c2.375 0 6.421875.84375 10.09375 2.75 3.414063 1.773438 6.480469 4.421875 7.9375 8.09375-.929687.480469-1.757812 1.148438-2.4375 2.03125v.03125c-.714844.953125-1.191406 2.054688-1.4375 3.1875-4.621094.554688-8.261719-1.820312-10.90625-5-2.769531-3.328125-4.25-7.621094-4.25-9.28125 0-.863281.097656-1.441406.1875-1.59375s.097656-.21875.8125-.21875zm9.59375 0c1.683594 0 4.316406.855469 6.78125 2.71875 2.179688 1.648438 4.25 4.078125 5.65625 7.3125-.726562-.046875-1.4375-.019531-2.125.125-1.679687-4.273437-5.195312-7.257812-8.90625-9.1875-.671875-.351562-1.351562-.652344-2.03125-.9375.167969-.027344.371094-.03125.625-.03125zm21.5 5c.167969 0 .328125.011719.5.03125.324219.035156.660156.121094 1 .21875-.242187.144531-.484375.316406-.6875.53125-.007812.007813.007813.023438 0 .03125-.839844.855469-1.144531 2.042969-1 3.125.144531 1.089844.664063 2.132813 1.5 2.90625.851563.789063 2 1.226563 3.125 1.375 1.125.148438 2.332031.042969 3.1875-.8125v-.03125h.03125c.078125-.085937.152344-.160156.21875-.25.144531.808594.074219 1.519531-.15625 2-.414062.800781-2.039062 1.597656-4.09375 1.78125-2.054687.183594-4.425781-.179687-5.875-.90625-2.914062-1.457031-3.457031-4.550781-2.0625-7.25.695313-1.34375 1.691406-2.164062 2.875-2.53125.441406-.136719.933594-.21875 1.4375-.21875zm3.125 1.78125c.121094-.007812.234375-.015625.375 0 .558594.070313 1.214844.378906 1.71875.84375.710938.671875 1.101563 1.4375 1.21875 2.0625.113281.609375-.039062 1.03125-.28125 1.3125-.160156.144531-.734375.316406-1.46875.21875-.75-.101562-1.554687-.429687-2-.84375-.464844-.429687-.792969-1.109375-.875-1.71875s.0625-1.09375.40625-1.4375v-.03125h.03125c.230469-.253906.515625-.378906.875-.40625zm-12.78125 5.15625c.945313-.003906 1.96875.253906 3 .75.523438 1.683594 1.664063 3.175781 3.5 4.09375.347656.171875.710938.332031 1.09375.46875 1.285156 2.621094 1.019531 5.183594-.03125 6.53125-.824219 1.003906-2.839844 1.472656-5.25 1.0625-.019531-.011719-.042969-.023437-.0625-.03125-.03125-.003906-.0625.003906-.09375 0-.765625-.0625-3.667969-1.117187-4.375-1.59375-.007812-.007812-.023437-.023437-.03125-.03125-.847656-.6875-2.34375-2.429687-2.6875-3.1875-.046875-.128906-.121094-.246094-.21875-.34375-.277344-.773437-.378906-1.582031-.3125-2.375.035156-.121094.042969-.25.03125-.375.148438-.988281.558594-1.933594 1.1875-2.78125.582031-.757812 1.296875-1.320312 2.09375-1.6875.265625.007813.527344-.09375.71875-.28125.464844-.136719.929688-.214844 1.4375-.21875zm-8.40625 9.09375c.601563-.042969 1.234375.078125 1.875.25.058594.046875.121094.089844.1875.125.734375 1.265625 1.875 2.574219 2.875 3.375.019531.011719.042969.023438.0625.03125 1.191406.835938 3.21875 1.589844 4.8125 1.84375.625.917969 1.058594 2.023438 1.09375 3.5625-8.726562-1.535156-12.265625-6.144531-13.25-8.21875.074219-.0625.144531-.132812.21875-.1875.675781-.496094 1.394531-.726562 2.125-.78125zm-3.71875 2.65625c1.710938 2.855469 5.96875 7.078125 14.46875 8.53125-.128906.765625-.320312 1.601563-.625 2.5625v.03125c-.144531.464844-.3125.910156-.5 1.34375-1.683594-.160156-4.75-.972656-7.6875-2.40625-2.949219-1.441406-5.78125-3.488281-7.25-5.90625.449219-1.816406.992188-3.152344 1.59375-4.15625zm-2.125 6.8125c1.824219 2.148438 4.359375 3.816406 6.90625 5.0625 2.765625 1.351563 5.507813 2.15625 7.5625 2.46875-.554687.875-1.191406 1.644531-1.875 2.34375-3.546875-.1875-6.453125-1.058594-8.625-2.15625-2.097656-1.058594-3.457031-2.351562-4.03125-3.21875-.132812-1.566406-.117187-3.121094.0625-4.5zm.5 7.9375c.730469.550781 1.582031 1.066406 2.5625 1.5625 1.976563 1 4.457031 1.839844 7.375 2.21875-1.6875 1.148438-3.441406 1.78125-4.8125 1.78125-1.222656 0-2.171875-.472656-3-1.34375s-1.5-2.175781-1.96875-3.6875c-.054687-.175781-.109375-.351562-.15625-.53125z"/></svg>