<svg fill="#666" height="50" viewBox="0 0 50 50" width="50" xmlns="http://www.w3.org/2000/svg"><path d="m25 0c-4.40625 0-8 3.59375-8 8 0 2.414063 1.082031 4.5625 2.78125 6.03125-1.433594.167969-2.332031.839844-3.25 1.5-.753906.542969-9.84375 7.21875-9.84375 7.21875-.144531.09375-.261719.222656-.34375.375v.03125c-.78125.730469-1.34375 1.695313-1.34375 2.84375 0 2.199219 1.800781 4 4 4 .675781 0 1.230469-.332031 1.78125-.625.007813-.003906.023438.003906.03125 0 .210938.003906.421875-.0625.59375-.1875l.03125-.03125 5.5625-4v2.65625l-1.75 3.5c-.035156.039063-.066406.082031-.09375.125 0 0-2.679687 4.09375-3.15625 4.8125-.488281.734375-.949219 1.359375-1 2.25s.382813 1.679688 1.09375 2.625c.546875.722656 1.777344 2.339844 2.96875 3.875.59375.769531 1.183594 1.53125 1.65625 2.125s.792969.980469 1.0625 1.25c.339844.339844.894531.882813 1.6875 1.25.792969.367188 1.9375.511719 2.9375-.125.996094-.632812 1.453125-1.664062 1.46875-2.53125.015625-.867187-.273437-1.570312-.53125-2.0625-.210937-.402344-.507812-.75-.9375-1.3125-.429687-.5625-.949219-1.253906-1.46875-1.90625-.722656-.910156-1.050781-1.308594-1.40625-1.75l3.375-2.96875c.035156-.027344.066406-.058594.09375-.09375.335938.058594.664063.125 1 .125h2c.332031 0 .664063-.035156 1-.09375.03125.023438.0625.042969.09375.0625l3.375 2.96875c-.355469.441406-.683594.839844-1.40625 1.75-.519531.652344-1.039062 1.34375-1.46875 1.90625-.429687.5625-.726562.910156-.9375 1.3125-.257812.492188-.546875 1.195313-.53125 2.0625.015625.867188.472656 1.898438 1.46875 2.53125 1 .636719 2.144531.492188 2.9375.125.792969-.367187 1.347656-.910156 1.6875-1.25.269531-.269531.589844-.65625 1.0625-1.25s1.0625-1.355469 1.65625-2.125c1.191406-1.535156 2.421875-3.152344 2.96875-3.875.710938-.945312 1.144531-1.734375 1.09375-2.625s-.511719-1.515625-1-2.25c-.476562-.71875-3.15625-4.8125-3.15625-4.8125-.019531-.03125-.039062-.0625-.0625-.09375l-.03125-.03125c-.011719-.011719-.019531-.019531-.03125-.03125l-1.71875-3.46875v-2.65625l5.5625 4 .03125.03125c.164063.117188.359375.183594.5625.1875.027344.015625.066406-.011719.09375 0 .546875.285156 1.085938.625 1.75.625 2.199219 0 4-1.800781 4-4 0-1.132812-.550781-2.085937-1.3125-2.8125-.007812-.019531-.019531-.042969-.03125-.0625-.011719-.011719-.019531-.019531-.03125-.03125-.074219-.136719-.183594-.253906-.3125-.34375 0 0-9.089844-6.675781-9.84375-7.21875-.917969-.660156-1.816406-1.332031-3.25-1.5 1.699219-1.46875 2.78125-3.617187 2.78125-6.03125 0-4.40625-3.59375-8-8-8zm0 2c3.324219 0 6 2.675781 6 6s-2.675781 6-6 6-6-2.675781-6-6 2.675781-6 6-6zm-4.5 14h9c1.445313 0 1.6875.347656 2.8125 1.15625.589844.421875 9.328125 6.820313 9.65625 7.0625l.03125.03125c.046875.046875.101563.089844.15625.125.515625.363281.84375.945313.84375 1.625 0 1.117188-.882812 2-2 2-.453125 0-.867187-.167969-1.21875-.4375-.011719 0-.019531 0-.03125 0l-.03125-.03125c-.03125-.023437-.0625-.042969-.09375-.0625l-7.03125-5.09375c-.304687-.226562-.710937-.257812-1.046875-.085937-.339844.171875-.550781.519531-.546875.898437v3.8125h-12v-3.8125c.003906-.378906-.207031-.726562-.546875-.898437-.335937-.171875-.742187-.140625-1.046875.085937l-7.03125 5.09375c-.042969.027344-.085937.058594-.125.09375-.011719 0-.019531 0-.03125 0-.351562.269531-.765625.4375-1.21875.4375-1.117187 0-2-.882812-2-2 0-.679687.328125-1.261719.84375-1.625.054688-.035156.109375-.078125.15625-.125l.03125-.03125c.328125-.242187 9.066406-6.640625 9.65625-7.0625 1.125-.808594 1.367188-1.15625 2.8125-1.15625zm-1.90625 13h12.8125l1.34375 2.65625c-.386719.296875-.941406.753906-2.15625 1.5-1.566406.964844-3.535156 1.84375-4.59375 1.84375h-2c-1.058594 0-3.027344-.878906-4.59375-1.84375-1.214844-.746094-1.769531-1.203125-2.15625-1.5zm-2.34375 4.46875c.53125.382813 1.269531.867188 2.09375 1.375.757813.46875 1.578125.953125 2.4375 1.34375l-3.3125 2.875c-.390625.359375-.433594.964844-.09375 1.375 0 0 .972656 1.207031 2 2.5.511719.644531 1.023438 1.332031 1.4375 1.875.414063.542969.769531 1.070313.75 1.03125.167969.316406.316406.757813.3125 1.09375-.003906.335938-.027344.554688-.53125.875-.386719.246094-.625.1875-1.03125 0s-.84375-.5625-1.125-.84375c-.039062-.039062-.441406-.511719-.90625-1.09375s-1.066406-1.332031-1.65625-2.09375c-1.183594-1.527344-2.398437-3.164062-2.9375-3.875-.613281-.8125-.695312-1.148437-.6875-1.3125.007813-.164062.175781-.523437.65625-1.25.386719-.585937 1.90625-2.847656 2.59375-3.875zm17.5 0c.6875 1.027344 2.207031 3.289063 2.59375 3.875.480469.726563.648438 1.085938.65625 1.25.007813.164063-.074219.5-.6875 1.3125-.539062.710938-1.753906 2.347656-2.9375 3.875-.589844.761719-1.191406 1.511719-1.65625 2.09375s-.867187 1.054688-.90625 1.09375c-.28125.28125-.71875.65625-1.125.84375s-.644531.246094-1.03125 0c-.503906-.320312-.527344-.539062-.53125-.875-.003906-.335937.144531-.777344.3125-1.09375-.019531.039063.335938-.488281.75-1.03125.414063-.542969.925781-1.230469 1.4375-1.875 1.027344-1.292969 2-2.5 2-2.5.339844-.410156.296875-1.015625-.09375-1.375l-3.3125-2.875c.859375-.390625 1.679688-.875 2.4375-1.34375.824219-.507812 1.5625-.992187 2.09375-1.375z"/></svg>