<svg fill="#666" height="50" viewBox="0 0 50 50" width="50" xmlns="http://www.w3.org/2000/svg"><path d="m23.90625.96875c-.042969.007813-.085937.019531-.125.03125-.464844.105469-.792969.523438-.78125 1 0 3.054688-1.164062 3.976563-2.65625 5.3125-1.492187 1.335938-3.3125 3.097656-3.3125 6.6875-.003906.359375.183594.695313.496094.878906.3125.179688.695312.179688 1.007812 0 .3125-.183593.5-.519531.496094-.878906 0-2.984375 1.15625-3.875 2.65625-5.21875s3.3125-3.132812 3.3125-6.78125c.011719-.289062-.105469-.566406-.3125-.761719-.210937-.199218-.496094-.296875-.78125-.269531zm5 5c-.042969.007813-.085937.019531-.125.03125-.464844.105469-.792969.523438-.78125 1 0 1.953125-.660156 2.425781-1.65625 3.3125s-2.34375 2.199219-2.34375 4.6875c-.003906.359375.183594.695313.496094.878906.3125.179688.695312.179688 1.007812 0 .3125-.183593.5-.519531.496094-.878906 0-1.875.648438-2.292969 1.65625-3.1875 1.007813-.894531 2.34375-2.265625 2.34375-4.8125.011719-.289062-.105469-.566406-.3125-.761719-.210937-.199218-.496094-.296875-.78125-.269531zm-19.09375 12.03125c-.292969.054688-.546875.234375-.691406.496094-.144531.257812-.164063.570312-.058594.847656.484375 1.394531 3.238281 9.78125 4.46875 27.96875.09375 1.398438 1.1875 2.6875 2.71875 2.6875h13.5c1.53125 0 2.625-1.289062 2.71875-2.6875.210938-3.09375.472656-5.804687.75-8.34375 2.734375-.265625 5.300781-.839844 7.3125-2.03125 2.035156-1.207031 3.46875-3.214844 3.46875-5.875 0-1.609375-.515625-3.210937-1.78125-4.34375-1.265625-1.132812-3.160156-1.71875-5.75-1.71875h-1.0625c.714844-3.207031 1.328125-5.074219 1.53125-5.65625.113281-.304687.066406-.648437-.117187-.914062-.1875-.269532-.492188-.429688-.820313-.429688h-26c-.03125 0-.0625 0-.09375 0s-.0625 0-.09375 0zm1.46875 2h23.4375c-.8125 2.511719-3.113281 10.355469-4.25 27.15625-.03125.46875-.355469.84375-.71875.84375h-13.5c-.363281 0-.6875-.375-.71875-.84375-1.136719-16.800781-3.4375-24.644531-4.25-27.15625zm23.6875 7h1.5c2.285156 0 3.65625.519531 4.4375 1.21875s1.09375 1.625 1.09375 2.84375c0 2.003906-.859375 3.203125-2.46875 4.15625-1.496094.886719-3.664062 1.417969-6.0625 1.6875.488281-3.996094.988281-7.332031 1.5-9.90625z"/></svg>