<svg fill="#666" height="50" viewBox="0 0 50 50" width="50" xmlns="http://www.w3.org/2000/svg"><path d="m3 7c-1.644531 0-3 1.355469-3 3v30c0 1.644531 1.355469 3 3 3h44c1.644531 0 3-1.355469 3-3v-30c0-1.644531-1.355469-3-3-3zm0 2h44c.566406 0 1 .433594 1 1v30c0 .566406-.433594 1-1 1h-44c-.566406 0-1-.433594-1-1v-30c0-.566406.433594-1 1-1zm32.84375 8.9375c-4.042969 0-6.5625 2.855469-6.5625 7.40625 0 4.539063 2.46875 7.375 6.5625 7.375 4.082031 0 6.5625-2.84375 6.5625-7.375 0-4.539062-2.5-7.40625-6.5625-7.40625zm-14.46875.03125c-3.074219 0-5.125 1.644531-5.125 4.15625 0 2.070313 1.167969 3.308594 3.71875 3.90625l1.8125.4375c1.867188.4375 2.6875 1.082031 2.6875 2.15625 0 1.25-1.304687 2.15625-3.0625 2.15625-1.886719 0-3.1875-.847656-3.375-2.1875h-2.15625c.15625 2.519531 2.25 4.125 5.375 4.125 3.339844 0 5.4375-1.679687 5.4375-4.375 0-2.117187-1.203125-3.292969-4.09375-3.96875l-1.5625-.375c-1.835937-.429687-2.5625-.992187-2.5625-2 0-1.269531 1.144531-2.125 2.875-2.125 1.640625 0 2.765625.824219 2.96875 2.125h2.15625c-.128906-2.371094-2.234375-4.03125-5.09375-4.03125zm-11.65625.3125v14.09375h2.1875v-14.09375zm26.125 1.71875c2.675781 0 4.34375 2.074219 4.34375 5.34375 0 3.253906-1.667969 5.34375-4.34375 5.34375-2.703125 0-4.34375-2.089844-4.34375-5.34375 0-3.273437 1.6875-5.34375 4.34375-5.34375z"/></svg>