<svg fill="#666" height="50" viewBox="0 0 50 50" width="50" xmlns="http://www.w3.org/2000/svg"><path d="m9 4c-2.7495161 0-5 2.2504839-5 5v32c0 2.749516 2.2504839 5 5 5h16.832031a1.0001 1.0001 0 0 0 .326172 0h5.673828a1.0001 1.0001 0 0 0 .326172 0h8.841797c2.749516 0 5-2.250484 5-5v-32c0-2.7495161-2.250484-5-5-5zm0 2h32c1.668484 0 3 1.3315161 3 3v32c0 1.668484-1.331516 3-3 3h-8v-14h3.820312l1.400391-7h-5.220703v-2c0-.557492.05305-.601071.240234-.722656.187185-.121586.765588-.277344 1.759766-.277344h3v-5.630859l-.570312-.271485s-2.297041-1.097656-5.429688-1.097656c-2.25 0-4.098412.896453-5.28125 2.375s-1.71875 3.458333-1.71875 5.625v2h-3v7h3v14h-16c-1.6684839 0-3-1.331516-3-3v-32c0-1.6684839 1.3315161-3 3-3zm23 9c2.079062 0 3.38736.458455 4 .701172v2.298828h-1c-1.150822 0-2.073044.0952-2.849609.599609-.776565.504415-1.150391 1.461883-1.150391 2.400391v4h4.779297l-.599609 3h-4.179688v16h-4v-16h-3v-3h3v-4c0-1.833333.464088-3.353547 1.28125-4.375s1.96875-1.625 3.71875-1.625z"/></svg>