<svg fill="#666" height="50" viewBox="0 0 50 50" width="50" xmlns="http://www.w3.org/2000/svg"><path d="m6 0v50h38v-35.414062l-14.585937-14.585938zm2 2h20v14h14v32h-34zm22 1.414063 10.585938 10.585937h-10.585938zm-12.683594 21.078125c-.800781 0-1.546875.085937-2.125.222656v11.285156h1.800782v-4.472656c.171875.019531.324218.019531.511718.019531.96875 0 2.074219-.390625 2.753907-1.191406.527343-.613281.851562-1.394531.851562-2.546875 0-.988281-.308594-1.871094-.921875-2.449219-.679687-.644531-1.664062-.867187-2.871094-.867187zm7.242188 0c-.78125 0-1.511719.085937-2.039063.222656v11.25c.410157.066406 1.039063.117187 1.667969.117187 1.476563 0 2.601563-.371093 3.363281-1.15625.867188-.847656 1.480469-2.394531 1.480469-4.859375 0-2.296875-.578125-3.789062-1.515625-4.625-.679687-.628906-1.632812-.949218-2.957031-.949218zm5.949219.050781v11.457031h1.820312v-4.945312h2.703125v-1.511719h-2.703125v-3.417969h2.890625v-1.582031zm-5.660157 1.410156c1.582032 0 2.308594 1.496094 2.308594 4.097656 0 3.484375-1.136719 4.539063-2.394531 4.539063-.117188 0-.289063 0-.441406-.035156v-8.550782c.152343-.03125.339843-.050781.527343-.050781zm-7.226562.015625c1.222656 0 1.664062.902344 1.664062 1.972656 0 1.308594-.660156 2.125-1.847656 2.125-.1875 0-.308594 0-.445312-.035156v-3.976562c.152343-.050782.375-.085938.628906-.085938z"/></svg>