<svg fill="#666" height="50" viewBox="0 0 50 50" width="50" xmlns="http://www.w3.org/2000/svg"><path d="m24.90625-.03125c-.042969.0078125-.085937.0195312-.125.03125-.464844.105469-.792969.523438-.78125 1v3.03125c-12.6875.441406-23 9.179688-23 21.96875.003906.445313.296875.832031.722656.957031.425782.121094.882813-.050781 1.121094-.425781 0 0 2.191406-3.53125 7.15625-3.53125 2.777344 0 5.21875 1.417969 6.65625 3.5625.183594.269531.488281.433594.8125.4375h.0625c.324219-.003906.628906-.167969.8125-.4375 1.261719-1.882812 3.292969-3.207031 5.65625-3.5v19.9375c0 2.773438-2.226562 5-5 5-2.773437 0-5-2.226562-5-5 .003906-.359375-.183594-.695312-.496094-.878906-.3125-.179688-.695312-.179688-1.007812 0-.3125.183594-.5.519531-.496094.878906 0 3.855469 3.148438 7 7 7 3.851563 0 7-3.144531 7-7v-19.9375c2.363281.292969 4.394531 1.617188 5.65625 3.5.183594.269531.488281.433594.8125.4375h.0625c.324219-.003906.628906-.167969.8125-.4375 1.4375-2.144531 3.875-3.5625 6.65625-3.5625 3.960938 0 7.25 3.65625 7.25 3.65625.273438.3125.710938.421875 1.101563.273438.386718-.144532.644531-.515625.648437-.929688-.003906-12.789062-10.3125-21.527344-23-21.96875v-3.03125c.011719-.289062-.105469-.566406-.3125-.761719-.210937-.1992185-.496094-.2968748-.78125-.269531zm.09375 6.03125c11.40625 0 20.515625 6.945313 21.75 17.59375-1.542969-1.242187-3.710937-2.59375-6.75-2.59375-3.011719 0-5.667969 1.386719-7.5 3.5-1.832031-2.113281-4.488281-3.5-7.5-3.5s-5.667969 1.386719-7.5 3.5c-1.832031-2.113281-4.488281-3.5-7.5-3.5-3.054687 0-5.253906 1.136719-6.71875 2.28125 1.371094-10.472656 10.425781-17.28125 21.71875-17.28125z"/></svg>