<svg fill="#666" height="50" viewBox="0 0 50 50" width="50" xmlns="http://www.w3.org/2000/svg"><path d="m5.953125 4c-.511719 0-1.03125.1875-1.398437.554688-.367188.367187-.554688.886718-.554688 1.398437v38.09375c0 .507813.1875 1.03125.554688 1.398438.367187.367187.886718.554687 1.398437.554687h38.09375c.507813 0 1.03125-.1875 1.398438-.554687.367187-.367188.554687-.886719.554687-1.398438v-38.09375c0-.511719-.1875-1.03125-.554687-1.398437-.367188-.367188-.886719-.554688-1.398438-.554688zm.046875 2h38v38h-38zm21.9375 13.8125c-2.113281 0-3.191406 1.347656-3.191406 2.96875 0 .914063.523437 1.980469 1.90625 2.820313.851562.554687 1.300781.914062 1.300781 1.648437 0 .660156-.449219 1.140625-1.378906 1.140625-.570313 0-1.257813-.164062-1.664063-.390625l-.285156 1.695313c.328125.195312 1.125.40625 1.9375.40625 1.976563 0 3.34375-1.214844 3.34375-3.058594 0-1.066406-.496094-2.085938-1.832031-2.898438-1.09375-.660156-1.394531-.972656-1.394531-1.574218 0-.539063.40625-1.050782 1.246093-1.050782.570313 0 1.003907.164063 1.289063.34375l.316406-1.691406c-.300781-.179687-.933594-.359375-1.59375-.359375zm-6.386719.089844v6.972656c0 1.304688-.480468 1.53125-1.050781 1.53125-.253906 0-.449219-.015625-.644531-.074219l-.167969 1.648438c.226563.089844.585938.148437.992188.148437 1.441406 0 2.851562-.433593 2.851562-3.34375v-6.882812z"/></svg>