<svg fill="#666" height="50" viewBox="0 0 50 50" width="50" xmlns="http://www.w3.org/2000/svg"><path d="m33 .0625c-.71875 0-1.417969.304688-1.96875.84375l-.03125-.03125-5.90625 5.84375c-.160156.097656-.289062.238281-.375.40625l-23.9375 23.75v.03125c-1.105469 1.105469-1.105469 2.894531 0 4l3.125 3.09375c.351563.355469.914063.394531 1.3125.09375.859375-.6875 1.980469-1.1875 3.09375-1.1875 2.660156 0 4.6875 2.125 4.6875 4.6875 0 1.160156-.421875 2.214844-1.15625 3.03125-.347656.402344-.320312 1.007813.0625 1.375l3.09375 3.09375c1.105469 1.105469 2.894531 1.105469 4 0l23.65625-23.65625h.03125c.382813-.089844.675781-.394531.75-.78125 0-.011719 0-.019531 0-.03125l5.5625-5.53125c.039063-.027344.058594-.0625.09375-.09375 1.203125-1.007812 1.199219-2.832031.125-3.90625l-3.125-3.09375c-.351562-.355469-.914062-.394531-1.3125-.09375-.855469.683594-1.808594 1.09375-2.96875 1.09375-2.660156 0-4.71875-2.125-4.71875-4.6875 0-1.160156.410156-2.144531 1.09375-3 .300781-.398437.261719-.960937-.09375-1.3125l-3.09375-3.09375c-.550781-.550781-1.273437-.84375-2-.84375zm0 2.03125c.222656 0 .445313.070313.59375.21875l2.5625 2.5625c-.609375 1-1.0625 2.144531-1.0625 3.4375 0 3.636719 2.976563 6.6875 6.71875 6.6875 1.296875 0 2.40625-.453125 3.40625-1.0625l2.5625 2.5625c.296875.296875.320313.785156.03125 1-.042969.027344-.085937.058594-.125.09375l-5.34375 5.34375c-.203125-.183594-.476562-.273437-.75-.25-.375.035156-.695312.277344-.835937.628906-.136719.347657-.070313.746094.179687 1.027344l-23.34375 23.34375c-.296875.296875-.890625.296875-1.1875 0l-2.5625-2.5625c.679688-1.046875 1.15625-2.234375 1.15625-3.53125 0-3.636719-2.945312-6.6875-6.6875-6.6875-1.339844 0-2.515625.515625-3.53125 1.15625l-2.5625-2.5625c-.296875-.296875-.296875-.890625 0-1.1875l23.40625-23.28125c.386719.398438 1.023438.402344 1.421875.015625.398438-.386719.402344-1.023437.015625-1.421875l5.34375-5.3125c.148438-.148437.371094-.21875.59375-.21875zm-4.03125 8.03125-.75.5-.03125.90625.21875.28125 1.375 1.40625.875.28125.71875-.53125.03125-.875-.1875-.3125-1.40625-1.375zm4.1875 4.1875-.71875.53125-.03125.875.1875.3125 1.40625 1.40625.84375.28125.75-.53125.03125-.875-.1875-.3125-1.40625-1.40625zm4.21875 4.21875-.71875.5-.03125.90625.1875.28125 1.40625 1.40625.84375.28125.75-.5.03125-.90625-.21875-.28125-1.40625-1.40625z"/></svg>