<svg fill="#666" height="50" viewBox="0 0 50 50" width="50" xmlns="http://www.w3.org/2000/svg"><path d="m25 3c-2.921875 0-5.347656 2.097656-5.875 4.875-.695312.242188-1.367187.535156-2 .875-2.335937 1.253906-4.1875 3.378906-4.1875 6.25 0 1.59375.292969 3.050781.96875 4.25-.242187-.046875-.484375-.101562-.71875-.125-.148437-.011719-.285156-.035156-.4375-.03125-.457031.007813-.9375.117188-1.34375.40625-.542969.386719-.855469.988281-1.03125 1.65625-.019531.074219-.042969.171875-.0625.25-.371094-.050781-.84375-.15625-1.4375-.4375-.195312-.09375-.417969-.183594-.625-.3125s-.410156-.292969-.625-.46875c-.429687-.347656-.859375-.792969-1.28125-1.375-.210937-.292969-.429687-.605469-.625-.96875-.976562-1.8125-1.71875-4.589844-1.71875-8.84375 0-.03125 0-.0625 0-.09375s0-.0625 0-.09375c-.007812-.042969-.019531-.085937-.03125-.125-.015625-.054687-.039062-.105469-.0625-.15625-.035156-.066406-.078125-.128906-.125-.1875-.019531-.023437-.039062-.042969-.0625-.0625-.109375-.125-.25-.222656-.40625-.28125-.132812-.039062-.269531-.046875-.40625-.03125-.042969.007813-.085937.019531-.125.03125-.464844.105469-.792969.523438-.78125 1 0 7.1875 2.101563 10.910156 4.375 12.75 1.378906 1.113281 2.804688 1.488281 3.71875 1.625-.066406 1.082031-.09375 2.386719-.09375 4.09375 0 .167969.027344.332031.03125.5h-8.03125c-.03125 0-.0625 0-.09375 0-.570312.027344-1.011719.507813-.984375 1.078125.027344.570313.507813 1.011719 1.078125.984375h8.1875c.21875 1.792969.644531 3.574219 1.3125 5.25-.984375.226563-2.546875.699219-4.1875 1.65625-2.597656 1.515625-5.3125 4.378906-5.3125 9.0625-.003906.359375.183594.695313.496094.878906.3125.179688.695312.179688 1.007812 0 .3125-.183593.5-.519531.496094-.878906 0-3.941406 2.097656-6.054687 4.3125-7.34375 1.644531-.957031 3.292969-1.382812 4.03125-1.53125.433594.828125.917969 1.621094 1.46875 2.375 2.515625 3.429688 6.277344 5.96875 11.0625 6.5h.25c4.785156-.53125 8.546875-3.070312 11.0625-6.5.550781-.753906 1.035156-1.546875 1.46875-2.375.738281.148438 2.386719.574219 4.03125 1.53125 2.214844 1.289063 4.3125 3.402344 4.3125 7.34375-.003906.359375.183594.695313.496094.878906.3125.179688.695312.179688 1.007812 0 .3125-.183593.5-.519531.496094-.878906 0-4.683594-2.714844-7.546875-5.3125-9.0625-1.640625-.957031-3.203125-1.429687-4.1875-1.65625.667969-1.675781 1.09375-3.457031 1.3125-5.25h8.1875c.570313 0 1.03125-.460937 1.03125-1.03125 0-.570312-.460937-1.03125-1.03125-1.03125h-8.03125c.003906-.167969.03125-.332031.03125-.5 0-1.710937-.050781-3-.15625-4.0625.359375-.050781.820313-.152344 1.3125-.3125.253906-.082031.507813-.1875.78125-.3125.273438-.125.558594-.265625.84375-.4375s.558594-.363281.84375-.59375.570313-.488281.84375-.78125c.273438-.292969.554688-.609375.8125-.96875.257813-.359375.484375-.753906.71875-1.1875s.453125-.921875.65625-1.4375c.808594-2.058594 1.34375-4.78125 1.34375-8.375 0-.03125 0-.0625 0-.09375s0-.0625 0-.09375c-.011719-.074219-.035156-.148437-.0625-.21875-.019531-.023437-.039062-.042969-.0625-.0625-.023437-.066406-.054687-.128906-.09375-.1875-.019531-.023437-.039062-.042969-.0625-.0625-.03125-.023437-.0625-.042969-.09375-.0625-.199219-.175781-.457031-.265625-.71875-.25-.042969.007813-.085937.019531-.125.03125-.191406.042969-.363281.140625-.5.28125-.023437.03125-.042969.0625-.0625.09375-.046875.046875-.089844.101563-.125.15625-.011719.03125-.023437.0625-.03125.09375-.027344.058594-.046875.125-.0625.1875-.003906.042969-.003906.082031 0 .125v.0625c0 6.804688-1.898437 9.792969-3.625 11.1875-1.191406.964844-2.292969 1.191406-2.875 1.25-.207031-.601562-.53125-1.125-1.03125-1.46875-.53125-.367187-1.179687-.480469-1.78125-.46875-.261719.003906-.535156.058594-.8125.09375.832031-1.261719 1.1875-2.839844 1.1875-4.59375 0-2.871094-1.851562-4.996094-4.1875-6.25-.621094-.332031-1.285156-.605469-1.96875-.84375-.511719-2.800781-2.96875-4.90625-5.90625-4.90625zm0 2c1.597656 0 2.953125.9375 3.59375 2.28125-1.199219-.230469-2.414062-.34375-3.59375-.34375-1.191406 0-2.417969.109375-3.625.34375.640625-1.351562 2.023438-2.28125 3.625-2.28125zm0 4.0625c2.367188 0 4.96875.507813 6.875 1.53125 1.90625 1.023438 3.0625 2.394531 3.0625 4.40625 0 2.261719-.472656 3.542969-1.84375 4.46875s-3.929687 1.46875-8.09375 1.46875c-4.164062 0-6.722656-.542969-8.09375-1.46875s-1.84375-2.207031-1.84375-4.46875c0-2.011719 1.15625-3.382812 3.0625-4.40625 1.90625-1.023437 4.507813-1.53125 6.875-1.53125zm-12.34375 12.03125c.0625-.011719.171875-.015625.34375 0 .683594.0625 2.085938.539063 4.0625 1 .359375.082031.757813.167969 1.15625.25 1.761719.515625 3.96875.71875 6.78125.71875 2.410156 0 4.375-.164062 6-.53125.039063-.007812.085938.007813.125 0 .558594-.085937 1.078125-.1875 1.5625-.28125 1.9375-.375 3.335938-.734375 4.0625-.75.363281-.007812.484375.070313.5625.125.078125.054688.1875.140625.3125.53125.25.785156.375 2.511719.375 5.3125 0 3.863281-1.203125 7.796875-3.4375 10.84375-2.027344 2.761719-4.902344 4.796875-8.5625 5.5v-14.8125c.007813-.308594-.128906-.601562-.367187-.796875-.234375-.195312-.550782-.269531-.851563-.203125-.464844.105469-.792969.523438-.78125 1v14.8125c-3.660156-.703125-6.535156-2.738281-8.5625-5.5-2.234375-3.046875-3.4375-6.980469-3.4375-10.84375 0-3.074219.089844-4.933594.3125-5.78125.113281-.425781.230469-.546875.25-.5625.011719-.007812.03125-.019531.09375-.03125z"/></svg>