<svg fill="#666" height="50" viewBox="0 0 50 50" width="50" xmlns="http://www.w3.org/2000/svg"><path d="m5.953125 4c-.511719 0-1.03125.1875-1.398437.554688-.367188.367187-.554688.886718-.554688 1.398437v38.09375c0 .507813.1875 1.03125.554688 1.398438.367187.367187.886718.554687 1.398437.554687h38.09375c.507813 0 1.03125-.1875 1.398438-.554687.367187-.367188.554687-.886719.554687-1.398438v-38.09375c0-.511719-.1875-1.03125-.554687-1.398437-.367188-.367188-.886719-.554688-1.398438-.554688zm.046875 2h38v38h-38zm8.351563 13.890625 1.8125 4.933594-1.886719 5.175781h1.945312l.542969-1.828125c.148438-.570312.3125-1.1875.480469-1.832031h.027344c.179687.644531.347656 1.214844.539062 1.800781l.644531 1.859375h2.027344l-1.996094-5.085937 1.890625-5.023438h-1.960937l-.511719 1.84375c-.136719.554688-.253906 1.035156-.421875 1.652344h-.03125c-.164062-.570313-.296875-1.097656-.464844-1.621094l-.582031-1.875zm7.304687 0-.734375 10.109375h1.691406l.167969-3.511719c.058594-1.003906.117188-2.28125.148438-3.375h.042968c.152344 1.09375.421875 2.355469.617188 3.167969l.839844 3.550781h1.394531l.867187-3.613281c.199219-.777344.46875-2.023437.648438-3.105469h.046875c-.03125 1.082032.042969 2.386719.085937 3.347657l.183594 3.539062h1.75l-.609375-10.109375h-2.074219l-.792968 3.660156c-.269532 1.273438-.496094 2.414063-.648438 3.539063h-.027344c-.179687-1.140625-.4375-2.265625-.722656-3.539063l-.808594-3.660156zm9.191406 0v10.109375h4.5625v-1.664062h-2.597656v-8.445313z"/></svg>