<svg fill="#666" height="50" viewBox="0 0 50 50" width="50" xmlns="http://www.w3.org/2000/svg"><path d="m6 0v50h38v-35.414062l-14.585937-14.585938zm2 2h20v14h14v32h-34zm22 1.414063 10.585938 10.585937h-10.585938zm-.609375 21.027343c-2.140625 0-3.347656 1.410157-3.347656 3.195313 0 1.242187.882812 2.378906 2.160156 3.191406.933594.648438 1.496094 1.175781 1.496094 2.09375 0 .953125-.613281 1.597656-1.734375 1.597656-.597656 0-1.34375-.203125-1.769531-.457031l-.304688 1.5625c.355469.238281 1.222656.472656 2.074219.472656 2.054687 0 3.515625-1.304687 3.515625-3.363281 0-1.222656-.578125-2.328125-2.023438-3.28125-1.171875-.746094-1.628906-1.15625-1.628906-2.039062 0-.699219.492188-1.394532 1.53125-1.394532.609375 0 1.085938.1875 1.40625.390625l.328125-1.5625c-.308594-.183593-.972656-.40625-1.703125-.40625zm-8.140625.050782c-.800781 0-1.550781.085937-2.125.222656v11.285156h1.800781v-4.472656c.171875.019531.324219.019531.511719.019531.96875 0 2.070313-.390625 2.75-1.191406.527344-.613281.851563-1.394531.851563-2.546875 0-.988281-.304688-1.871094-.917969-2.449219-.679688-.644531-1.667969-.867187-2.871094-.867187zm.304688 1.476562c1.222656 0 1.664062.902344 1.664062 1.972656 0 1.308594-.660156 2.125-1.851562 2.125-.1875 0-.304688 0-.441407-.035156v-3.976562c.152344-.050782.375-.085938.628907-.085938z"/></svg>