<svg fill="#666" height="50" viewBox="0 0 50 50" width="50" xmlns="http://www.w3.org/2000/svg"><path d="m19 5c-1.644531 0-3 1.355469-3 3v3h-13c-1.644531 0-3 1.355469-3 3v5.6875c-.0585938.195313-.0585938.398438 0 .59375v21.71875c0 1.644531 1.355469 3 3 3h44c1.644531 0 3-1.355469 3-3v-21.8125c.027344-.132812.027344-.273437 0-.40625v-5.78125c0-1.644531-1.355469-3-3-3h-13v-3c0-1.644531-1.355469-3-3-3zm0 2h12c.5625 0 1 .4375 1 1v3h-14v-3c0-.5625.4375-1 1-1zm-16 6h44c.5625 0 1 .4375 1 1v5h-4c0-1.09375-.90625-2-2-2h-4c-1.09375 0-2 .90625-2 2h-22c0-1.09375-.90625-2-2-2h-4c-1.09375 0-2 .90625-2 2h-4v-5c0-.5625.4375-1 1-1zm5 6h4v.53125c-.132812.277344-.132812.597656 0 .875v.59375h-4v-.8125c.027344-.132812.027344-.273437 0-.40625zm30 0h4v.53125c-.132812.277344-.132812.597656 0 .875v.59375h-4v-.8125c.027344-.132812.027344-.273437 0-.40625zm-36 2h4c0 1.09375.90625 2 2 2h4c1.09375 0 2-.90625 2-2h22c0 1.09375.90625 2 2 2h4c1.09375 0 2-.90625 2-2h4v21c0 .5625-.4375 1-1 1h-44c-.5625 0-1-.4375-1-1zm21 4v4h-4v4h4v4h4v-4h4v-4h-4v-4z"/></svg>