<svg fill="#666" height="50" viewBox="0 0 50 50" width="50" xmlns="http://www.w3.org/2000/svg"><path d="m7 2v46h36v-31.832031c.019531-.109375.019531-.21875 0-.324219v-.433594l-13.816406-13.410156zm2 2h19v13h13v29h-32zm21 1.578125 9.707031 9.421875h-9.707031zm-4.183594 18.746094c-2.234375 0-3.332031 2.386719-3.332031 5.144531 0 2.777344.902344 5.207031 3.199219 5.207031 1.917969 0 3.269531-1.542968 3.269531-5.355468 0-2.308594-.691406-4.996094-3.136719-4.996094zm7.964844.03125c-1.964844 0-4.078125 1.484375-4.078125 5.296875 0 2.863281 1.230469 4.992187 3.8125 4.992187.6875 0 1.242188-.105468 1.527344-.238281l-.199219-1.652344c-.238281.074219-.613281.152344-.941406.152344-1.199219 0-2.117188-.945312-2.117188-3.359375 0-2.503906 1.007813-3.46875 2.117188-3.46875.433594 0 .6875.09375.914062.199219l.328125-1.652344c-.191406-.132812-.671875-.269531-1.363281-.269531zm-16.171875.046875c-.777344 0-1.5.074219-1.992187.191406v9.933594c.390625.042969 1.003906.101562 1.617187.101562 1.410156 0 2.417969-.316406 3.09375-.972656.882813-.78125 1.40625-2.234375 1.40625-4.277344 0-1.964843-.449219-3.296875-1.316406-4.078125-.644531-.597656-1.53125-.898437-2.808594-.898437zm.363281 1.570312c1.183594 0 1.726563 1.261719 1.726563 3.332032 0 2.789062-.828125 3.722656-1.773438 3.722656-.105468 0-.253906-.003906-.34375-.03125v-6.976563c.121094-.046875.253907-.046875.390625-.046875zm7.769532.0625c.882812 0 1.152343 1.605469 1.152343 3.375 0 2.054688-.3125 3.558594-1.136718 3.558594-.792969 0-1.230469-1.171875-1.230469-3.46875 0-2.171875.4375-3.464844 1.214844-3.464844z"/></svg>