<svg fill="#666" height="50" viewBox="0 0 50 50" width="50" xmlns="http://www.w3.org/2000/svg"><path d="m25 2c-12.690705 0-23 10.309295-23 23s10.309295 23 23 23 23-10.309295 23-23-10.309295-23-23-23zm0 2c11.609824 0 21 9.390176 21 21s-9.390176 21-21 21-21-9.390176-21-21 9.390176-21 21-21zm-.400391 8.599609c-.9 0-1.898828.100391-2.798828.400391s-1.70039.700781-2.40039 1.300781c-.7.5-1.301172 1.19961-1.701172 2.09961-.5.9-.699219 1.899609-.699219 3.099609 0 1 .1 1.900781.5 2.800781.3.9.800781 1.79961 1.300781 2.59961h-2v1.099609h2.699219c.3.4.499219.999219.699219 1.699219s.300781 1.300781.300781 1.800781c0 .7-.100781 1.300391-.300781 1.900391s-.498828 1.099609-.798828 1.599609-.701172.900391-1.201172 1.400391c-.4.5-.898438.898828-1.398438 1.298828l1.199219 1.800781.900391-.599609c.3-.1.498828-.300391.798828-.400391l.90039-.300781c.3-.1.69961-.09961 1.09961-.09961.7 0 1.300781.101172 1.800781.201172.6.2 1.099609.3 1.599609.5s.99961.4 1.59961.5c.5.1 1.20039.199219 1.90039.199219 1.1 0 1.901172-.2 2.701172-.5.7-.4 1.499219-.9 2.199219-1.5l-1.099609-1.599609c-.4.5-1.001172.898828-1.701172 1.298828s-1.39961.601562-2.09961.601562c-.5 0-1.1-.101172-1.5-.201172-.5-.2-.90039-.3-1.40039-.5s-1-.4-1.5-.5-1.198438-.199218-1.898438-.199218c-.6 0-1.201172.098828-1.701172.298828-.6.2-1.099609.501172-1.599609.701172l-.099609-.09961c.5-.3 1.00039-.801172 1.40039-1.201172.5-.4.899219-.90039 1.199219-1.40039s.600781-.99961.800781-1.59961.298828-1.198828.298828-1.798828c0-.5-.099218-1.101172-.199218-1.701172-.2-.7-.39961-1.199609-.59961-1.599609h4.798828v-1.099609h-5.40039c-.2-.5-.499219-.900782-.699219-1.300782l-.599609-1.199218c-.2-.3-.4-.801172-.5-1.201172s-.201172-.9-.201172-1.5c0-.9.2-1.598828.5-2.298828.3-.6.701172-1.19961 1.201172-1.59961.5-.5 1.098828-.8 1.798828-1 .6-.2 1.3-.300781 2-.300781 1.8 0 3.201172.499219 4.201172 1.699219.9 1.1 1.40039 2.60039 1.40039 4.40039h2.09961c0-2.5-.6-4.50039-2-5.90039s-3.300782-2.09961-5.800782-2.09961z"/></svg>