<svg fill="#666" height="50" viewBox="0 0 50 50" width="50" xmlns="http://www.w3.org/2000/svg"><path d="m23.6875 1.03125c-.667969-.019531-1.3125.230469-1.84375.625s-1.007812.914063-1.46875 1.5625c-.351562.496094-.699219.707031-1.3125.84375s-1.46875.125-2.46875.125c-1.117187 0-1.925781.097656-2.59375.34375-.535156.195313-1.023437.578125-1.28125 1.0625-.011719.03125-.023437.0625-.03125.09375-.011719.023438-.023437.039063-.03125.0625-.011719.019531-.023437.042969-.03125.0625-.019531.054688-.050781.101563-.0625.15625-.160156.671875.066406 1.238281.34375 1.6875.273438.441406.636719.820313 1 1.15625.417969.417969 1.304688 1.175781 2.15625 2.53125.769531 1.222656 1.328125 2.886719 1.28125 4.875-3.3125 1.011719-6.476562 3.421875-8.90625 6.5-2.636719 3.339844-4.4375 7.414063-4.4375 11.375 0 4.886719 1.53125 8.367188 5 10.34375 3.46875 1.976563 8.59375 2.5625 16 2.5625s12.53125-.585937 16-2.5625c3.46875-1.976562 5-5.457031 5-10.34375 0-7.5625-5.925781-14.484375-12.75-17.5.480469-.0625.976563-.109375 1.5-.09375 1.683594.042969 3.480469.550781 5.03125 2.1875.234375.300781.621094.445313.996094.367188.371094-.078125.671875-.363282.765625-.734375.09375-.367188-.03125-.761719-.324219-1.007813-1.8125-1.917969-4.007812-2.644531-5.96875-2.78125 1.640625-.6875 3.527344-.894531 5.78125.34375.316406.222656.730469.242188 1.070313.054688.335937-.191407.53125-.558594.503906-.945313s-.277344-.71875-.636719-.859375c-1.40625-.773437-2.742187-1.085937-4-1.09375-2.832031-.015625-5.214844 1.492188-6.78125 2.5625-.226562-3.644531 1.835938-6.550781 2.09375-6.875l.03125-.03125.03125-.0625c.347656-.546875.890625-1.324219 1.125-2.25.117188-.460937.183594-1.070312-.21875-1.625-.402344-.554687-1.082031-.75-1.75-.75-1.25 0-2.378906.425781-3.28125.59375s-1.359375.140625-1.8125-.3125v.03125c-.007812-.007812-.023437.007813-.03125 0-1.300781-1.351562-2.355469-2.242187-3.6875-2.28125zm-.0625 2c.363281.011719 1.152344.417969 2.34375 1.65625h.03125v.03125c1.046875 1.046875 2.472656 1.019531 3.59375.8125.847656-.15625 1.652344-.367187 2.3125-.46875.011719.074219.027344.078125-.0625.21875s-.296875.378906-.625.65625c-.65625.554688-1.75 1.261719-2.90625 2.3125-.472656.433594-1.035156.726563-1.46875.78125-.433594.054688-.683594-.03125-.96875-.375h-.03125c-.507812-.632812-.964844-1.113281-1.5-1.4375-.546875-.332031-1.191406-.5-1.78125-.40625-1.167969.183594-1.910156 1.023438-2.8125 1.875h-.03125v-.03125c-.515625.484375-1.128906.644531-2.0625.25-.789062-.332031-1.761719-1.164062-2.6875-2.53125.34375-.09375.84375-.1875 1.625-.1875 1 0 1.96875.023438 2.90625-.1875.9375-.210937 1.851563-.71875 2.5-1.625h.03125c.390625-.550781.730469-.925781 1-1.125s.414063-.222656.59375-.21875zm-.75 5.78125c.125-.019531.203125-.046875.4375.09375s.566406.453125 1 1v.03125h.03125c.714844.855469 1.785156 1.183594 2.75 1.0625s1.863281-.582031 2.59375-1.25c.105469-.097656.207031-.15625.3125-.25-.671875 1.625-1.203125 3.796875-.78125 6.28125-4.625 2.246094-8.328125 1.058594-9.75.40625.039063-2.039062-.550781-3.789062-1.28125-5.15625 1.078125.105469 2.136719-.183594 2.90625-.90625.890625-.839844 1.53125-1.273437 1.78125-1.3125zm7.375 8.6875c6.914063 2.023438 13.75 9.34375 13.75 16.59375 0 4.511719-1.113281 7-3.96875 8.625s-7.738281 2.28125-15.03125 2.28125-12.175781-.65625-15.03125-2.28125-3.96875-4.113281-3.96875-8.625c0-3.339844 1.585938-7.097656 4-10.15625 2.382813-3.015625 5.554688-5.320312 8.5-6.03125 1.675781.753906 6.300781 2.296875 11.75-.40625zm-6.75 4.5v2c-1.5.199219-4.09375 1.394531-4.09375 4.59375 0 5.800781 8.40625 2.820313 8.40625 7.21875 0 1.5-.707031 2.78125-3.40625 2.78125-2.800781 0-3.59375-2.207031-3.59375-3.40625h-1.8125c.300781 3.898438 3 4.824219 4.5 5.125v1.6875h1.8125v-1.6875c1.398438-.101562 4.59375-1.117187 4.59375-4.71875 0-3-2.414062-3.804687-4.8125-4.40625-1.898437-.5-3.6875-.882812-3.6875-2.78125 0-.800781.300781-2.59375 3-2.59375 1.898438 0 2.792969 1.195313 3.09375 2.59375h1.8125c-.5-2-1.398437-3.8125-4-4.3125v-2.09375z"/></svg>