<svg fill="#666" height="50" viewBox="0 0 50 50" width="50" xmlns="http://www.w3.org/2000/svg"><path d="m24.84375 3.4375c-.304687.046875-.570312.230469-.71875.5l-24 41.5625c-.1796875.3125-.1796875.695313.003906 1.003906.179688.308594.511719.5.871094.496094h48c.359375.003906.691406-.1875.871094-.496094.183594-.308593.183594-.691406.003906-1.003906l-24-41.5625c-.203125-.367187-.617187-.566406-1.03125-.5zm.15625 3 22.25 38.5625h-44.5zm-1.15625 12.46875c-.214844 0-.34375.128906-.34375.34375v14.46875c0 .214844.128906.375.34375.375h2.3125c.214844 0 .34375-.160156.34375-.375v-14.46875c0-.214844-.128906-.34375-.34375-.34375zm-.21875 18.0625c-.132812.050781-.1875.183594-.1875.34375v2.625c0 .214844.128906.34375.34375.34375h2.4375c.214844 0 .34375-.128906.34375-.34375v-2.625c0-.214844-.128906-.34375-.34375-.34375h-2.4375c-.054687 0-.113281-.015625-.15625 0z"/></svg>