<svg fill="#666" height="50" viewBox="0 0 50 50" width="50" xmlns="http://www.w3.org/2000/svg"><path d="m25 3c-8.273437 0-15 6.726563-15 15 0 5.058594 1.929688 8.066406 3.75 10.15625.910156 1.046875 1.789063 1.890625 2.375 2.65625.585938.765625.875 1.382813.875 2.1875v10c0 1.644531 1.355469 3 3 3h1.15625c.445313 1.71875 1.992188 3 3.84375 3 1.851563 0 3.398438-1.28125 3.84375-3h1.15625c1.644531 0 3-1.355469 3-3v-10c0-1.128906.332031-1.910156.90625-2.71875s1.4375-1.613281 2.34375-2.59375c1.808594-1.964844 3.75-4.722656 3.75-9.6875 0-8.273437-6.726562-15-15-15zm0 2c7.191406 0 13 5.808594 13 13 0 4.46875-1.558594 6.511719-3.25 8.34375-.84375.917969-1.730469 1.746094-2.46875 2.78125s-1.28125 2.3125-1.28125 3.875v5h-12v-5c0-1.347656-.585937-2.460937-1.3125-3.40625-.726562-.945312-1.597656-1.789062-2.4375-2.75-1.679687-1.925781-3.25-4.269531-3.25-8.84375 0-7.191406 5.808594-13 13-13zm-4.09375 12.96875c-.042969.007813-.085937.019531-.125.03125-.375.066406-.675781.339844-.78125.703125-.105469.367188.003906.757813.28125 1.015625l3.71875 3.71875v12.5625h2v-12.5625l3.71875-3.71875c.398438-.398437.398438-1.039062 0-1.4375-.398437-.398437-1.039062-.398437-1.4375 0l-3.28125 3.28125-3.28125-3.28125c-.207031-.222656-.507812-.335937-.8125-.3125zm-1.90625 22.03125h12v3c0 .554688-.445312 1-1 1h-7.8125c-.132812-.027344-.273437-.027344-.40625 0h-1.78125c-.554687 0-1-.445312-1-1zm4.28125 6h3.4375c-.34375.597656-.972656 1-1.71875 1s-1.375-.402344-1.71875-1z"/></svg>