<svg fill="#666" height="50" viewBox="0 0 50 50" width="50" xmlns="http://www.w3.org/2000/svg"><path d="m25 2c-12.691367 0-23 10.308633-23 23s10.308633 23 23 23 23-10.308633 23-23c0-12.637204-10.224987-22.8969059-22.841797-22.984375a1.0001 1.0001 0 0 0 -.158203-.015625zm0 2c11.610633 0 21 9.389367 21 21s-9.389367 21-21 21-21-9.389367-21-21 9.389367-21 21-21zm-8 14a3 3 0 0 0 -3 3 3 3 0 0 0 3 3 3 3 0 0 0 3-3 3 3 0 0 0 -3-3zm16 0a3 3 0 0 0 -3 3 3 3 0 0 0 3 3 3 3 0 0 0 3-3 3 3 0 0 0 -3-3zm-8 11c-6.444444 0-10.707031 4.292969-10.707031 4.292969a1.0001 1.0001 0 1 0 1.414062 1.414062s3.737413-3.707031 9.292969-3.707031 9.292969 3.707031 9.292969 3.707031a1.0001 1.0001 0 1 0 1.414062-1.414062s-4.262587-4.292969-10.707031-4.292969z"/></svg>