<svg fill="#666" height="50" viewBox="0 0 50 50" width="50" xmlns="http://www.w3.org/2000/svg"><path d="m1.8125 8c-.476562.089844-.820312.511719-.8125 1v15.6875c-.058594.195313-.058594.398438 0 .59375v15.71875c0 .550781.449219 1 1 1h46c.550781 0 1-.449219 1-1v-15.8125c.027344-.132812.027344-.273437 0-.40625v-15.78125c0-.550781-.449219-1-1-1h-46c-.03125 0-.0625 0-.09375 0s-.0625 0-.09375 0zm1.1875 2h44v14h-13.0625c-.507812-4.484375-4.320312-8-8.9375-8-4.617187 0-8.429687 3.515625-8.9375 8h-13.0625zm22 8c3.78125 0 6.851563 2.972656 7 6.71875-.054687.183594-.054687.378906 0 .5625-.148437 3.746094-3.21875 6.71875-7 6.71875-3.816406 0-6.902344-3.023437-7-6.8125.027344-.132812.027344-.273437 0-.40625.117188-3.773437 3.195313-6.78125 7-6.78125zm-22 8h13.0625c.507813 4.484375 4.320313 8 8.9375 8 4.617188 0 8.429688-3.515625 8.9375-8h13.0625v14h-44z"/></svg>