<svg fill="#666" height="50" viewBox="0 0 50 50" width="50" xmlns="http://www.w3.org/2000/svg"><path d="m3 4c-1.644531 0-3 1.355469-3 3 0 1.292969.84375 2.394531 2 2.8125v35.1875h2v-35.1875c1.15625-.417969 2-1.519531 2-2.8125 0-1.644531-1.355469-3-3-3zm6.65625 1.90625c-.550781.015625-1.128906.050781-1.71875.09375l-.9375.0625v18.59375l1.46875-.78125c5.667969-2.949219 10.730469-1.449219 17.15625-.625s14.0625.839844 23.90625-5.40625l.65625-.40625-2.25-6.75-.28125-.90625-.9375.25c-11.304687 3.160156-15.992187 1.890625-20.46875-.03125-4.195312-1.800781-8.304687-4.332031-16.59375-4.09375zm-6.65625.09375c.5625 0 1 .4375 1 1s-.4375 1-1 1-1-.4375-1-1 .4375-1 1-1zm8 1.96875c1.5.011719 2.847656.136719 4.0625.3125.125.40625.488281.71875.9375.71875.210938 0 .402344-.074219.5625-.1875l-.46875 4.21875c-.035156-.003906-.058594-.03125-.09375-.03125-.550781 0-1 .449219-1 1 0 .507813.386719.902344.875.96875l-.46875 4.25c-.242187.183594-.40625.457031-.40625.78125 0 .09375.039063.164063.0625.25-1.992187.105469-4.003906.5-6.0625 1.34375v-13.59375c0 .550781.449219 1 1 1s1-.449219 1-1c0-.011719 0-.019531 0-.03125zm-2 6.03125c0 .550781.449219 1 1 1s1-.449219 1-1-.449219-1-1-1-1 .449219-1 1zm0 6c0 .550781.449219 1 1 1s1-.449219 1-1-.449219-1-1-1-1 .449219-1 1zm9.5625-10.9375c2.554688.765625 4.640625 1.808594 6.90625 2.78125.042969.019531.082031.042969.125.0625l-1.78125 9.0625c-2.191406-.3125-4.347656-.640625-6.5-.71875zm-5.5625.9375c-.550781 0-1 .449219-1 1s.449219 1 1 1 1-.449219 1-1-.449219-1-1-1zm33.34375 2.15625.375 1.125c-.179687-.179687-.441406-.28125-.71875-.28125-.550781 0-1 .449219-1 1s.449219 1 1 1c.515625 0 .917969-.402344.96875-.90625l.8125 2.40625c-1.339844.816406-2.632812 1.503906-3.875 2.09375l-.28125-.8125c.226563-.183594.375-.464844.375-.78125 0-.550781-.449219-1-1-1-.011719 0-.019531 0-.03125 0l-1-2.84375c1.355469-.253906 2.808594-.585937 4.375-1zm-18.875.46875c1.617188.554688 3.40625.984375 5.53125 1.15625v.1875.03125c0 .023438.03125.039063.03125.0625l.3125 5.1875c-.210937.183594-.34375.449219-.34375.75 0 .339844.179688.632813.4375.8125l.03125.71875c-2.6875.21875-5.171875.027344-7.5625-.28125-.03125-.003906-.0625.003906-.09375 0l1.3125-6.8125c.164063.324219.484375.5625.875.5625.550781 0 1-.449219 1-1s-.449219-1-1-1c-.25 0-.480469.097656-.65625.25zm12.46875.84375 2.125 5.9375c-2.351562.960938-4.53125 1.554688-6.59375 1.875l-.46875-7.4375c1.476563.003906 3.113281-.117187 4.9375-.375zm-26.9375 2.53125c-.550781 0-1 .449219-1 1s.449219 1 1 1 1-.449219 1-1-.449219-1-1-1zm18 0c-.550781 0-1 .449219-1 1s.449219 1 1 1 1-.449219 1-1-.449219-1-1-1zm-3 3c-.550781 0-1 .449219-1 1s.449219 1 1 1 1-.449219 1-1-.449219-1-1-1z"/></svg>