<svg fill="#666" height="50" viewBox="0 0 50 50" width="50" xmlns="http://www.w3.org/2000/svg"><path d="m24.984375 6.984375c-.0625.003906-.121094.007813-.183594.023438-4.195312.035156-8.125 1.195312-11.503906 3.195312-.082031.035156-.160156.082031-.234375.136719-3.433594 2.089844-6.273437 5.0625-8.21875 8.59375-.050781.070312-.09375.144531-.125.226562-1.703125 3.175782-2.679687 6.796875-2.710937 10.636719-.027344.132813-.027344.265625 0 .394531.03125 4.226563 1.085937 7.9375 3.136718 11.339844.238282.394531.71875.574219 1.160157.433594.441406-.140625.730468-.566406.695312-1.027344l.046875.613281 3.753906-2.175781c.320313-.171875.519532-.503906.519532-.867187.003906-.363282-.191407-.699219-.507813-.878907-.316406-.179687-.703125-.171875-1.015625.015625l-3.335937 1.933594c-1.421875-2.632812-2.28125-5.394531-2.429688-8.578125h3.96875c.359375.003906.695313-.183594.878906-.496094.179688-.3125.179688-.695312 0-1.007812-.183593-.3125-.519531-.5-.878906-.496094h-3.96875c.136719-2.898437.871094-5.632812 2.0625-8.105469.5625.304688 1.460938.789063 3.480469 1.886719.316406.179688.703125.175781 1.015625-.011719.308594-.1875.496094-.53125.480469-.890625-.011719-.363281-.21875-.691406-.542969-.859375-2.019531-1.09375-2.914063-1.578125-3.480469-1.882812 1.601563-2.636719 3.742188-4.902344 6.300781-6.609375l2.058594 3.425781c.179688.308594.515625.5.875.496094.363281-.007813.691406-.203125.867188-.519531.171875-.316407.160156-.703125-.027344-1.007813l-2.058594-3.425781c2.683594-1.441406 5.714844-2.3125 8.9375-2.464844v3.96875c-.003906.359375.183594.695313.496094.878906.3125.179688.695312.179688 1.007812 0 .3125-.183593.5-.519531.496094-.878906v-3.96875c2.898438.136719 5.640625.855469 8.113281 2.046875l-1.894531 3.496094c-.179687.316406-.175781.703125.011719 1.015625.1875.308594.53125.496094.890625.480469.363281-.011719.691406-.21875.859375-.542969l1.890625-3.492188c2.636719 1.597657 4.894531 3.753907 6.601562 6.3125l-3.425781 2.058594c-.308594.179688-.5.515625-.496094.875.007813.363281.203125.691406.519532.867188.316406.171875.703125.160156 1.007812-.027344l3.425781-2.058594c1.441407 2.683594 2.3125 5.714844 2.464844 8.9375h-3.96875c-.359375-.003906-.695312.183594-.878906.496094-.179688.3125-.179688.695312 0 1.007812.183594.3125.519531.5.878906.496094h3.96875c-.148437 3.183594-1.007812 5.945313-2.425781 8.578125l-3.339844-1.933594c-.3125-.1875-.699219-.195312-1.015625-.015625-.316406.179688-.511719.515625-.507812.878907 0 .363281.199218.695312.519531.867187l3.753906 2.175781.046875-.613281c-.035156.460938.253906.886719.695313 1.027344.441406.140625.921875-.039063 1.160156-.433594 2.050781-3.398437 3.105469-7.109375 3.140625-11.328125.023437-.132812.023437-.269531 0-.398437-.039063-4.203125-1.203125-8.140625-3.210938-11.519532-.027343-.074218-.066406-.140625-.113281-.207031-.003906 0-.003906 0-.003906 0 0-.003906-.003906-.003906-.007813-.007812-2.085937-3.429688-5.050781-6.265625-8.574218-8.210938-.085938-.066406-.179688-.113281-.277344-.148437-3.171875-1.695313-6.78125-2.671875-10.617188-2.703125-.066406-.015625-.136718-.023438-.207031-.023438zm11.574219 15.195313c-.191406-.003907-.378906.046875-.542969.148437l-9.109375 5.382813c-.519531-.4375-1.179687-.710938-1.90625-.710938-1.644531 0-3 1.355469-3 3s1.355469 3 3 3 3-1.355469 3-3c0-.195312-.023437-.390625-.058594-.578125l9.089844-5.375c.390625-.222656.582031-.679687.472656-1.113281s-.496093-.742188-.945312-.753906zm-11.558594 6.820312c.316406 0 .582031.144531.761719.363281.039062.105469.097656.199219.171875.285157.039062.109375.066406.226562.066406.351562 0 .5625-.4375 1-1 1s-1-.4375-1-1 .4375-1 1-1zm-6 9c-.359375-.003906-.695312.183594-.878906.496094-.179688.3125-.179688.695312 0 1.007812.183594.3125.519531.5.878906.496094h12c.359375.003906.695313-.183594.878906-.496094.179688-.3125.179688-.695312 0-1.007812-.183593-.3125-.519531-.5-.878906-.496094z"/></svg>