<svg fill="#666" height="50" viewBox="0 0 50 50" width="50" xmlns="http://www.w3.org/2000/svg"><path d="m16.8125 0c-.476562.0898438-.820312.511719-.8125 1v1h-8c-1.644531 0-3 1.355469-3 3v42c0 1.644531 1.355469 3 3 3h34c1.644531 0 3-1.355469 3-3v-42c0-1.644531-1.355469-3-3-3h-8v-1c0-.550781-.449219-1-1-1h-16c-.03125 0-.0625 0-.09375 0s-.0625 0-.09375 0zm1.1875 2h14v6h-14zm-10 2h8v2h-7v40h32v-40h-7v-2h8c.554688 0 1 .445313 1 1v42c0 .554688-.445312 1-1 1h-34c-.554687 0-1-.445312-1-1v-42c0-.554687.445313-1 1-1zm3 4h5v1c0 .550781.449219 1 1 1h16c.550781 0 1-.449219 1-1v-1h5v36h-28zm21.71875 10.625-.5625.84375-8.125 12.59375-5.375-4.8125-.71875-.65625-1.34375 1.46875.75.6875 6.1875 5.59375.875.78125.625-.96875 8.8125-13.625.53125-.8125z"/></svg>