<svg fill="#666" height="50" viewBox="0 0 50 50" width="50" xmlns="http://www.w3.org/2000/svg"><path d="m4 4v1 13h14v-14zm28 0v1 13h14v-14zm-26 2h10v10h-10zm14 0v1 5h4v3h-4v1 4h-9v1 3h-4v1 5h6v-4h3v4h6v-8h2v4h7v3h5v3h-8v1 3h-4v1 5h6v-4h6v8h10v-10h-8v-2h8v-10h-6v1 2h-2v-7h-12v-3h4v-7h-4v-4zm14 0h10v10h-10zm-26 2v1 5h6v-6zm14 0h2v2h-2zm14 0v1 5h6v-6zm-26 2h2v2h-2zm28 0h2v2h-2zm-12 2h2v3h-2zm-4 5h2v3h-2zm-9 5h7v6h-2v-4h-5zm13 0h10v5h-3v-3h-7zm-17 4h2v2h-2zm33 0h2v6h-6v-3h4zm-38 6v1 13h14v-14zm2 2h10v10h-10zm24 0h6v2h-6zm-22 2v1 5h6v-6zm2 2h2v2h-2zm16 0h2v2h-2zm12 0h6v6h-6z"/></svg>