<svg fill="#666" height="50" viewBox="0 0 50 50" width="50" xmlns="http://www.w3.org/2000/svg"><path d="m24.962891 1.0546875a1.0001 1.0001 0 0 0 -.578125.2089844l-23.0000004 17.9472661a1.0005659 1.0005659 0 0 0 1.2304688 1.578124l1.3847656-1.080078v26.291016a1.0001 1.0001 0 0 0 1 1h13.832031a1.0001 1.0001 0 0 0 .326172 0h11.673828a1.0001 1.0001 0 0 0 .326172 0h13.841797a1.0001 1.0001 0 0 0 1-1v-26.291016l1.384766 1.080078a1.0005657 1.0005657 0 1 0 1.230468-1.578124l-7.615234-5.941407c-.000078-.208042.00006-.448908 0-.761719-.000141-.731493.000062-1.698068 0-2.6621089-.000125-1.928082 0-3.8457031 0-3.8457031a1.0001 1.0001 0 0 0 -1-1h-4a1.0001 1.0001 0 0 0 -1 1s.000625 1.1570629 0 2.3144531c-.000054.099408.000063.1747622 0 .2734375l-9.384766-7.3242187a1.0001 1.0001 0 0 0 -.652343-.2089844zm.037109 2.2675781 10.378906 8.0976564a1.0001 1.0001 0 0 0 .988282.140625s.619121-.79868.61914-.798828c.00002-.000149.00506-.053333.00586-.064453.0015-.02226.001653-.028427.001953-.035157.000451-.01345.001753-.020093.001953-.027343.000241-.0145-.000149-.028435 0-.046875.000298-.03688-.000242-.08823 0-.152344.000484-.128229.001553-.309812.001953-.5273439.000523-.4350707.00164-1.0127418.001953-1.5917969.000355-.6581499-.000066-.8709329 0-1.3164062h2c.000006.6422969-.000092 1.4189176 0 2.8457031.000063.9640839-.000141 1.9304469 0 2.6621089.00007.365832-.000096.672112 0 .890626.000096.218512.000933.282578.001953.371093a1.0001 1.0001 0 0 0 .384766.777344l4.613281 3.599609v26.853516h-12v-19h-14v19h-12v-26.851562zm-5 24.6777344h10v17h-10zm7 7a1 1 0 0 0 -1 1 1 1 0 0 0 1 1 1 1 0 0 0 1-1 1 1 0 0 0 -1-1z"/></svg>