<svg fill="#666" height="50" viewBox="0 0 50 50" width="50" xmlns="http://www.w3.org/2000/svg"><path d="m7 2v46h36v-32.585937l-13.589844-13.414063zm2 2h19v13h13v29h-32zm21 1.390625 9.734375 9.609375h-9.734375zm-8.023437 18.167969 1.816406 4.933594-1.890625 5.175781h1.949219l.539062-1.828125c.152344-.570313.316406-1.1875.480469-1.832031h.03125c.179687.644531.34375 1.214843.539062 1.800781l.648438 1.859375h2.019531l-1.992187-5.089844 1.890625-5.019531h-1.964844l-.511719 1.84375c-.136719.554687-.253906 1.035156-.421875 1.648437h-.027344c-.164062-.570312-.300781-1.09375-.464843-1.617187l-.585938-1.875zm-5.070313 0v10.109375h4.578125v-1.710938h-2.609375v-2.730468h2.308594v-1.632813h-2.308594v-2.328125h2.425781v-1.707031zm12.015625 0v10.109375h4.578125v-1.710938h-2.609375v-2.730468h2.308594v-1.632813h-2.308594v-2.328125h2.425781v-1.707031z"/></svg>