<svg fill="#666" height="50" viewBox="0 0 50 50" width="50" xmlns="http://www.w3.org/2000/svg"><path d="m36 2c-3.539062 0-6.707031 1.554688-8.90625 4h-20.75c-2.382812 0-4.34375 1.960938-4.34375 4.34375v32.875c-.015625.105469-.015625.207031 0 .3125v.125c0 2.382813 1.960938 4.34375 4.34375 4.34375h33.3125c2.382813 0 4.34375-1.960937 4.34375-4.34375v-.09375c.015625-.105469.015625-.207031 0-.3125v-19.8125c2.105469-2.804687 4-5.542969 4-9.4375 0-6.617187-5.382812-12-12-12zm0 2c5.535156 0 10 4.464844 10 10 0 3.414063-1.691406 5.691406-3.90625 8.625-2.121094 2.808594-4.617187 6.199219-6.09375 11.3125-1.476562-5.113281-3.972656-8.503906-6.09375-11.3125-.824219-1.09375-1.597656-2.089844-2.21875-3.09375 0-.011719 0-.019531 0-.03125-.011719-.019531-.019531-.042969-.03125-.0625-.042969-.164062-.128906-.316406-.25-.4375-.863281-1.519531-1.40625-3.078125-1.40625-5 0-5.535156 4.464844-10 10-10zm-29.65625 4h19.28125c-1.027344 1.765625-1.625 3.8125-1.625 6 0 2.136719.578125 3.917969 1.4375 5.5625l-21.4375 21.40625v-30.625c0-1.300781 1.042969-2.34375 2.34375-2.34375zm5.78125 2c-3.375 0-6.125 2.75-6.125 6.125s2.75 6.09375 6.125 6.09375c5.34375 0 6.253906-4.804687 5.75-7.1875h-5.75v2.34375h3.3125c-.433594 1.414063-1.601562 2.4375-3.3125 2.4375-2.035156 0-3.6875-1.652344-3.6875-3.6875s1.652344-3.6875 3.6875-3.6875c.914063 0 1.730469.324219 2.375.875l1.71875-1.71875c-1.085937-.988281-2.507812-1.59375-4.09375-1.59375zm23.875 0c-2.199219 0-4 1.800781-4 4s1.800781 4 4 4 4-1.800781 4-4-1.800781-4-4-4zm0 2c1.117188 0 2 .882813 2 2 0 1.117188-.882812 2-2 2-1.117187 0-2-.882812-2-2 0-1.117187.882813-2 2-2zm-9.5 9.3125c.5625.847656 1.148438 1.695313 1.78125 2.53125.007813.011719.023438.019531.03125.03125l-22.09375 22.09375c-1.195312-.066406-2.121094-.992187-2.1875-2.1875zm3 4.1875c1.429688 1.953125 2.855469 4.121094 3.9375 6.9375l-5.4375-5.4375zm12.5.65625v14.8125l-4.65625-4.625c.046875-.082031.097656-.175781.125-.25.164063-.433594.144531-.71875.21875-1 .996094-3.828125 2.625-6.570312 4.3125-8.9375zm-15.40625 2.25 15.375 15.375c-.066406 1.195313-.992187 2.121094-2.1875 2.1875l-15.375-15.375zm-3.59375 3.59375 13.96875 14h-27.9375z"/></svg>