<svg fill="#666" height="50" viewBox="0 0 50 50" width="50" xmlns="http://www.w3.org/2000/svg"><path d="m41.9375 5.0625c-.3125.007813-.636719.089844-.9375.21875-.011719 0-.019531 0-.03125 0l-31.59375 15c-.023437.019531-.042969.039063-.0625.0625-1.152344.660156-1.640625 2.042969-1.125 3.25v.03125l.59375 1.21875-6.9375-.25c-.011719 0-.019531 0-.03125 0-.582031 0-1.085937.277344-1.40625.6875-.3203125.410156-.4804688 1.070313-.1875 1.65625h-.03125l6.125 12.78125v.03125c.277344.558594.878906.84375 1.40625.84375s1.03125-.230469 1.375-.6875l.03125-.03125 4-5.84375.46875.96875c.007813.015625.023438.015625.03125.03125.558594 1.234375 1.996094 1.675781 3.21875 1.21875.03125-.007812.0625-.019531.09375-.03125l15.53125-7.375c.511719.988281 1.429688 1.746094 2.53125 2.03125v7.125c0 1.644531 1.355469 3 3 3h12v-2h-12c-.554687 0-1-.445312-1-1v-7.15625c1.722656-.445312 3-1.980469 3-3.84375 0-.539062-.085937-1.085937-.28125-1.59375l8.8125-4.1875c.023438-.019531.042969-.039062.0625-.0625 1.152344-.660156 1.640625-2.042969 1.125-3.25 0-.011719 0-.019531 0-.03125l-5.40625-11.40625c-.007812-.019531-.019531-.042969-.03125-.0625-.328125-.578125-.855469-.988281-1.4375-1.1875-.292969-.101562-.59375-.164062-.90625-.15625zm.03125 2.03125c.207031.011719.457031.128906.5625.3125l5.34375 11.28125c.082031.191406-.035156.609375-.28125.75l-31.4375 14.9375c-.015625.003906-.015625-.003906-.03125 0-.34375.109375-.664062-.03125-.71875-.15625 0-.011719 0-.019531 0-.03125l-5.375-11.375c-.082031-.191406.003906-.609375.25-.75l31.5-14.9375c.046875-.019531.117188-.035156.1875-.03125zm-4.0625 19.1875c.066406.222656.09375.464844.09375.71875 0 1.191406-.808594 2-2 2-.71875 0-1.371094-.417969-1.71875-1zm-35.65625.34375 7.5.25 2.375 5.0625-4.3125 6.3125z"/></svg>