<svg fill="#666" height="50" viewBox="0 0 50 50" width="50" xmlns="http://www.w3.org/2000/svg"><path d="m35 1c-3.5625 0-7.125 1.421875-9.90625 4.09375-.011719.019531-.023437.042969-.03125.0625.003906-.007812-.425781.421875-1 1s-1.359375 1.355469-2.28125 2.28125c-1.84375 1.851563-4.25 4.25-6.65625 6.65625s-4.796875 4.824219-6.65625 6.6875c-.929687.933594-1.726562 1.71875-2.3125 2.3125-.5625.566406-.882812.894531-1.0625 1.09375-.007812.007813-.023437.054688-.03125.0625-5.429688 5.484375-5.441406 14.289063.03125 19.65625 2.6875 2.6875 6.25 4.09375 9.90625 4.09375s7.136719-1.429687 9.90625-4.09375l20.09375-20.09375c5.480469-5.480469 5.492188-14.335937 0-19.71875-2.78125-2.671875-6.34375-4.09375-10-4.09375zm0 2c3.144531 0 6.171875 1.203125 8.59375 3.53125 4.691406 4.617188 4.714844 12.160156 0 16.875l-8.375 8.375-17-16.96875c1.765625-1.769531 3.59375-3.589844 4.96875-4.96875.921875-.925781 1.703125-1.699219 2.28125-2.28125.542969-.550781.847656-.824219 1.03125-1.03125.011719-.011719.050781-.050781.0625-.0625 2.410156-2.285156 5.425781-3.46875 8.4375-3.46875zm-18.1875 13.21875 16.96875 17-10.28125 10.25c-1.085937 1.042969-2.273437 1.855469-3.53125 2.4375-.050781-.503906-.453125-.90625-.96875-.90625-.550781 0-1 .449219-1 1 0 .210938.074219.402344.1875.5625-1.027344.285156-2.09375.4375-3.1875.4375-.53125 0-1.070312-.058594-1.59375-.125.339844-.160156.59375-.476562.59375-.875 0-.550781-.449219-1-1-1s-1 .449219-1 1c0 .261719.085938.507813.25.6875-2.136719-.492187-4.121094-1.558594-5.75-3.1875-1.671875-1.640625-2.734375-3.65625-3.21875-5.78125.179688.179688.441406.28125.71875.28125.550781 0 1-.449219 1-1s-.449219-1-1-1c-.414062 0-.753906.265625-.90625.625-.210937-1.609375-.105469-3.234375.34375-4.8125.160156.113281.351563.1875.5625.1875.550781 0 1-.449219 1-1 0-.515625-.402344-.917969-.90625-.96875.582031-1.246094 1.375-2.40625 2.40625-3.4375.019531-.007812.042969-.019531.0625-.03125.027344-.03125.417969-.472656 1-1.0625s1.382813-1.382812 2.3125-2.3125c1.855469-1.863281 4.25-4.25 6.65625-6.65625.105469-.105469.175781-.207031.28125-.3125zm-.8125 1.78125c-.550781 0-1 .449219-1 1s.449219 1 1 1 1-.449219 1-1-.449219-1-1-1zm-3 3c-.550781 0-1 .449219-1 1s.449219 1 1 1 1-.449219 1-1-.449219-1-1-1zm6 0c-.550781 0-1 .449219-1 1s.449219 1 1 1 1-.449219 1-1-.449219-1-1-1zm-9 3c-.550781 0-1 .449219-1 1s.449219 1 1 1 1-.449219 1-1-.449219-1-1-1zm6 0c-.550781 0-1 .449219-1 1s.449219 1 1 1 1-.449219 1-1-.449219-1-1-1zm6 0c-.550781 0-1 .449219-1 1s.449219 1 1 1 1-.449219 1-1-.449219-1-1-1zm-15 3c-.550781 0-1 .449219-1 1s.449219 1 1 1 1-.449219 1-1-.449219-1-1-1zm6 0c-.550781 0-1 .449219-1 1s.449219 1 1 1 1-.449219 1-1-.449219-1-1-1zm6 0c-.550781 0-1 .449219-1 1s.449219 1 1 1 1-.449219 1-1-.449219-1-1-1zm6 0c-.550781 0-1 .449219-1 1s.449219 1 1 1 1-.449219 1-1-.449219-1-1-1zm-15 3c-.550781 0-1 .449219-1 1s.449219 1 1 1 1-.449219 1-1-.449219-1-1-1zm6 0c-.550781 0-1 .449219-1 1s.449219 1 1 1 1-.449219 1-1-.449219-1-1-1zm6 0c-.550781 0-1 .449219-1 1s.449219 1 1 1 1-.449219 1-1-.449219-1-1-1zm6 0c-.550781 0-1 .449219-1 1s.449219 1 1 1 1-.449219 1-1-.449219-1-1-1zm-21 3c-.550781 0-1 .449219-1 1s.449219 1 1 1 1-.449219 1-1-.449219-1-1-1zm6 0c-.550781 0-1 .449219-1 1s.449219 1 1 1 1-.449219 1-1-.449219-1-1-1zm6 0c-.550781 0-1 .449219-1 1s.449219 1 1 1 1-.449219 1-1-.449219-1-1-1zm6 0c-.550781 0-1 .449219-1 1s.449219 1 1 1 1-.449219 1-1-.449219-1-1-1zm6 0c-.550781 0-1 .449219-1 1s.449219 1 1 1 1-.449219 1-1-.449219-1-1-1zm-21 3c-.550781 0-1 .449219-1 1s.449219 1 1 1 1-.449219 1-1-.449219-1-1-1zm6 0c-.550781 0-1 .449219-1 1s.449219 1 1 1 1-.449219 1-1-.449219-1-1-1zm6 0c-.550781 0-1 .449219-1 1s.449219 1 1 1 1-.449219 1-1-.449219-1-1-1zm6 0c-.550781 0-1 .449219-1 1s.449219 1 1 1 1-.449219 1-1-.449219-1-1-1zm-21 3c-.550781 0-1 .449219-1 1s.449219 1 1 1 1-.449219 1-1-.449219-1-1-1zm6 0c-.550781 0-1 .449219-1 1s.449219 1 1 1 1-.449219 1-1-.449219-1-1-1zm6 0c-.550781 0-1 .449219-1 1s.449219 1 1 1 1-.449219 1-1-.449219-1-1-1zm6 0c-.550781 0-1 .449219-1 1s.449219 1 1 1 1-.449219 1-1-.449219-1-1-1zm-15 3c-.550781 0-1 .449219-1 1s.449219 1 1 1 1-.449219 1-1-.449219-1-1-1zm6 0c-.550781 0-1 .449219-1 1s.449219 1 1 1 1-.449219 1-1-.449219-1-1-1zm6 0c-.550781 0-1 .449219-1 1s.449219 1 1 1 1-.449219 1-1-.449219-1-1-1z"/></svg>