<svg fill="#666" height="50" viewBox="0 0 50 50" width="50" xmlns="http://www.w3.org/2000/svg"><path d="m12 0c-3.09375 0-5.355469.398438-6.90625 1.75-1.550781 1.351563-2.09375 3.480469-2.09375 6.25v4h-1c-1.09375 0-2 .90625-2 2v8c0 1.09375.90625 2 2 2h1v17c0 1.222656.382813 2.25 1 3.03125v2.96875c0 1.644531 1.355469 3 3 3h4c1.644531 0 3-1.355469 3-3v-1h22v1c0 1.644531 1.355469 3 3 3h4c1.644531 0 3-1.355469 3-3v-2.96875c.617188-.78125 1-1.808594 1-3.03125v-17h1c1.09375 0 2-.90625 2-2v-8c0-1.09375-.90625-2-2-2h-1v-3c0-2.644531-.210937-4.808594-1.28125-6.46875-1.070312-1.660156-3.03125-2.53125-5.71875-2.53125zm0 2h28c2.3125 0 3.351563.542969 4.03125 1.59375.679688 1.050781.96875 2.890625.96875 5.40625v32c0 1.386719-.398437 1.933594-1.21875 2.375-.820312.441406-2.195312.625-3.78125.625h-30c-1.585937 0-2.960937-.183594-3.78125-.625-.820312-.441406-1.21875-.988281-1.21875-2.375v-33c0-2.515625.457031-3.890625 1.40625-4.71875s2.6875-1.28125 5.59375-1.28125zm3 1c-1.09375 0-2 .90625-2 2v2c0 1.09375.90625 2 2 2h21c1.09375 0 2-.90625 2-2v-2c0-1.09375-.90625-2-2-2zm0 2h21v2h-21zm-4 5c-1.167969 0-2.234375.296875-2.96875 1.03125s-1.03125 1.800781-1.03125 2.96875v12c0 1.167969.296875 2.234375 1.03125 2.96875s1.800781 1.03125 2.96875 1.03125l28-.0625c.816406 0 1.695313-.3125 2.5-.9375.804688-.625 1.5-1.675781 1.5-3v-12c0-1.167969-.296875-2.234375-1.03125-2.96875s-1.800781-1.03125-2.96875-1.03125zm0 2h28c.832031 0 1.265625.203125 1.53125.46875s.46875.699219.46875 1.53125v12c0 .675781-.285156 1.070313-.71875 1.40625-.433594.335938-1.050781.53125-1.28125.53125l-28 .0625c-.832031 0-1.265625-.203125-1.53125-.46875s-.46875-.699219-.46875-1.53125v-12c0-.832031.203125-1.265625.46875-1.53125s.699219-.46875 1.53125-.46875zm-9 2h1v8h-1zm45 0h1v8h-1zm-35.5 19c-2.472656 0-4.5 2.027344-4.5 4.5s2.027344 4.5 4.5 4.5 4.5-2.027344 4.5-4.5-2.027344-4.5-4.5-4.5zm27 0c-2.472656 0-4.5 2.027344-4.5 4.5s2.027344 4.5 4.5 4.5 4.5-2.027344 4.5-4.5-2.027344-4.5-4.5-4.5zm-27 2c1.390625 0 2.5 1.109375 2.5 2.5s-1.109375 2.5-2.5 2.5-2.5-1.109375-2.5-2.5 1.109375-2.5 2.5-2.5zm27 0c1.390625 0 2.5 1.109375 2.5 2.5s-1.109375 2.5-2.5 2.5-2.5-1.109375-2.5-2.5 1.109375-2.5 2.5-2.5zm-32.5 10.4375c1.199219.453125 2.566406.5625 4 .5625h2v1c0 .5625-.4375 1-1 1h-4c-.5625 0-1-.4375-1-1zm38 0v1.5625c0 .5625-.4375 1-1 1h-4c-.5625 0-1-.4375-1-1v-1h2c1.433594 0 2.800781-.109375 4-.5625z"/></svg>