<svg fill="#666" height="50" viewBox="0 0 50 50" width="50" xmlns="http://www.w3.org/2000/svg"><path d="m2.84375 3c-1.558594 0-2.84375 1.285156-2.84375 2.84375v4.96875c-.00390625.042969-.00390625.082031 0 .125v35.0625c0 .550781.449219 1 1 1h48c.550781 0 1-.449219 1-1v-35c0-.03125 0-.0625 0-.09375v-5.0625c0-1.558594-1.285156-2.84375-2.84375-2.84375zm0 2h44.3125c.480469 0 .84375.363281.84375.84375v4.15625h-46v-4.15625c0-.480469.363281-.84375.84375-.84375zm-.84375 7h46v33h-46zm12.90625 7.9375c-.378906.058594-.691406.328125-.804687.691406-.113282.367188-.007813.765625.273437 1.027344l5.21875 5.375-5.375 5.21875c-.398437.386719-.402344 1.023438-.015625 1.421875.386719.398438 1.023438.402344 1.421875.015625l6.0625-5.9375.71875-.6875-.6875-.71875-5.9375-6.09375c-.179687-.191406-.425781-.300781-.6875-.3125-.0625-.007812-.125-.007812-.1875 0zm7.90625 12.0625c-.550781.050781-.957031.542969-.90625 1.09375s.542969.957031 1.09375.90625h13c.359375.003906.695313-.183594.878906-.496094.179688-.3125.179688-.695312 0-1.007812-.183593-.3125-.519531-.5-.878906-.496094h-13c-.03125 0-.0625 0-.09375 0s-.0625 0-.09375 0z"/></svg>