<svg fill="#666" height="50" viewBox="0 0 50 50" width="50" xmlns="http://www.w3.org/2000/svg"><path d="m18 4c-.523437 0-1.058594.183594-1.4375.5625s-.5625.914063-.5625 1.4375v2h-13c-1.644531 0-3 1.355469-3 3v1.46875c-.203125.324219-.203125.738281 0 1.0625v26.46875c0 1.644531 1.355469 3 3 3h41c1.644531 0 3-1.355469 3-3v-13.15625c1.722656-.445312 3-1.980469 3-3.84375v-6c0-1.863281-1.277344-3.398437-3-3.84375v-2.15625c0-1.644531-1.355469-3-3-3h-12v-2c0-.523437-.183594-1.058594-.5625-1.4375s-.914062-.5625-1.4375-.5625zm0 2h12v2h-12zm-15 4h41c.554688 0 1 .445313 1 1v2.6875c-.058594.195313-.058594.398438 0 .59375v3.5625l-43-5.71875v-1.125c0-.554687.445313-1 1-1zm-1 4.15625 43 5.71875v5.9375c-.027344.132813-.027344.273438 0 .40625v13.78125c0 .554688-.445312 1-1 1h-41c-.554687 0-1-.445312-1-1zm45 1.09375c.613281.320313 1 .941406 1 1.75v6c0 .808594-.386719 1.429688-1 1.75v-5.5625c.027344-.132812.027344-.273437 0-.40625z"/></svg>