<svg fill="#666" height="50" viewBox="0 0 50 50" width="50" xmlns="http://www.w3.org/2000/svg"><path d="m24.375 4c-1.902344 0-3.675781 1.414063-4.4375 3.375l-.625 1.625h-5.3125v-1c0-.550781-.449219-1-1-1h-7c-.550781 0-1 .449219-1 1v1.40625c-2.863281.878906-5 3.453125-5 6.59375v21c0 3.855469 3.144531 7 7 7h36c3.855469 0 7-3.144531 7-7v-21c0-3.855469-3.144531-7-7-7h-2.3125l-.625-1.625c-.761719-1.960937-2.53125-3.375-4.4375-3.375zm0 2h11.25c.765625 0 2.085938.867188 2.5625 2.09375l.875 2.28125c.152344.382813.527344.628906.9375.625h3c2.773438 0 5 2.226563 5 5v21c0 2.773438-2.226562 5-5 5h-36c-2.773437 0-5-2.226562-5-5v-21c0-2.488281 1.792969-4.539062 4.15625-4.9375.480469-.074219.835938-.484375.84375-.96875v-1.09375h5v1c0 .550781.449219 1 1 1h7c.410156.003906.785156-.242187.9375-.625l.875-2.28125c.476563-1.226562 1.796875-2.09375 2.5625-2.09375zm5.625 7c-7.164062 0-13 5.835938-13 13 0 7.164063 5.835938 13 13 13 7.164063 0 13-5.835937 13-13 0-7.164062-5.835937-13-13-13zm-23 1c-1.105469 0-2 .894531-2 2s.894531 2 2 2 2-.894531 2-2-.894531-2-2-2zm23 1c6.085938 0 11 4.914063 11 11 0 6.085938-4.914062 11-11 11-6.085937 0-11-4.914062-11-11 0-6.085937 4.914063-11 11-11z"/></svg>