<svg fill="#666" height="50" viewBox="0 0 50 50" width="50" xmlns="http://www.w3.org/2000/svg"><path d="m25 2c-8.824219 0-16 7.175781-16 16 0 6.34375 3.863281 13.664063 7.65625 19.5 3.792969 5.835938 7.59375 10.15625 7.59375 10.15625.191406.214844.464844.339844.75.339844s.558594-.125.75-.339844c0 0 3.800781-4.328125 7.59375-10.15625s7.65625-13.125 7.65625-19.5c0-8.824219-7.175781-16-16-16zm0 2c7.742188 0 14 6.257813 14 14 0 5.539063-3.636719 12.742188-7.34375 18.4375-3.109375 4.773438-5.734375 7.917969-6.65625 9-.917969-1.082031-3.542969-4.242187-6.65625-9.03125-3.707031-5.703125-7.34375-12.90625-7.34375-18.40625 0-7.742187 6.257813-14 14-14zm0 7.84375-.5.3125-7.5 4.5 1 1.6875v7.65625h14v-7.65625l1-1.6875-7.5-4.5zm0 2.3125 5 3v6.84375h-3v-5h-4v5h-3v-6.84375z"/></svg>