<svg fill="#666" height="50" viewBox="0 0 50 50" width="50" xmlns="http://www.w3.org/2000/svg"><path d="m22 0c-2.210937 0-4 1.789063-4 4v16c0 2.210938 1.789063 4 4 4h15.625l7.71875 6.75c.296875.257813.710938.316406 1.070313.15625.355468-.160156.585937-.515625.585937-.90625v-6.1875c1.714844-.449219 3-1.957031 3-3.8125v-16c0-2.210937-1.789062-4-4-4zm0 2h24c1.191406 0 2 .808594 2 2v16c0 1.191406-.808594 2-2 2-.550781 0-1 .449219-1 1v4.8125l-6.34375-5.5625c-.179687-.160156-.414062-.25-.65625-.25h-16c-1.191406 0-2-.808594-2-2v-16c0-1.191406.808594-2 2-2zm11 4.09375-2.5 11.5h1.8125l.59375-3h2.1875l.59375 3h1.8125l-2.40625-11.5zm1 1.90625h.09375c.101563.800781.207031 1.894531.40625 2.59375l.5 2.59375h-1.90625l.5-2.59375c.101563-.699219.304688-1.792969.40625-2.59375zm-30 11c-2.210937 0-4 1.789063-4 4v16c0 1.855469 1.285156 3.363281 3 3.8125v6.1875c0 .390625.230469.746094.585938.90625.359375.160156.773437.101563 1.070312-.15625l7.71875-6.75h15.625c2.210938 0 4-1.789062 4-4v-14h-2v14c0 1.191406-.808594 2-2 2h-16c-.242187 0-.476562.089844-.65625.25l-6.34375 5.5625v-4.8125c0-.550781-.449219-1-1-1-1.191406 0-2-.808594-2-2v-16c0-1.191406.808594-2 2-2h13v-2zm11.59375 6c-2.300781 0-3.59375 2.414063-3.59375 5.8125 0 3.898438 1.304688 5.875 3.40625 5.875.101563 0 .300781.117188.5.21875.699219.398438 1.882813 1.007813 2.78125 1.40625l.625-1.40625c-.699219-.199219-1.519531-.511719-2.21875-.8125v-.09375c1.101563-.601562 1.8125-2.3125 1.8125-5.3125 0-3.101562-.914062-5.6875-3.3125-5.6875zm-.09375 1.5c1.101563 0 1.5 1.988281 1.5 4.1875 0 2.398438-.398437 4.40625-1.5 4.40625-1.199219 0-1.59375-2.007812-1.59375-4.40625 0-2.101562.394531-4.1875 1.59375-4.1875z"/></svg>