<svg fill="#666" height="50" viewBox="0 0 50 50" width="50" xmlns="http://www.w3.org/2000/svg"><path d="m16.375 9c-6.257812 0-11.375 5.054688-11.375 11.28125 0 12.769531 14.488281 19.457031 19.375 23.5l.625.53125.625-.53125c4.886719-4.042969 19.375-10.730469 19.375-23.5 0-6.226562-5.117187-11.28125-11.375-11.28125-3.476562 0-6.539062 1.613281-8.625 4.0625-2.085937-2.449219-5.148437-4.0625-8.625-4.0625zm0 2c3.265625 0 6.105469 1.652344 7.78125 4.15625l.84375 1.25.84375-1.25c1.675781-2.503906 4.515625-4.15625 7.78125-4.15625 5.183594 0 9.375 4.144531 9.375 9.28125 0 10.898438-12.261719 17.007813-18 21.5-5.738281-4.492187-18-10.601562-18-21.5 0-5.136719 4.1875-9.28125 9.375-9.28125z"/></svg>