<svg fill="#666" height="50" viewBox="0 0 50 50" width="50" xmlns="http://www.w3.org/2000/svg"><path d="m36 2c-2.75 0-5 2.25-5 5s2.25 5 5 5 5-2.25 5-5-2.25-5-5-5zm0 2c1.667969 0 3 1.332031 3 3s-1.332031 3-3 3-3-1.332031-3-3 1.332031-3 3-3zm-5.21875 8c-1.4375 0-2.804687.734375-3.59375 1.9375l-7.71875 11.8125c-.011719.011719-.019531.019531-.03125.03125-.613281.980469-.511719 2.210938.15625 3.09375l-2.03125 2.9375-3.28125-2.28125c-.644531-.449219-1.429687-.597656-2.15625-.46875-.726562.128906-1.394531.542969-1.84375 1.1875l-5.65625 8.09375c-1.105469 1.589844-.683594 3.800781.90625 4.90625l1.5625 1.09375c-.050781.214844-.09375.425781-.09375.65625 0 1.644531 1.355469 3 3 3s3-1.355469 3-3c0-.75-.285156-1.441406-.75-1.96875l6.21875-9.0625c.125-.109375.222656-.25.28125-.40625l2.53125-3.65625c1.058594.195313 2.183594-.210937 2.8125-1.15625.003906-.003906-.003906-.027344 0-.03125h.03125l3.34375-4.84375-.3125 1.625c-.273437 1.453125-.140625 2.941406.34375 4.3125l-1.5625 5.46875-5.46875 8.3125c-.800781 1.21875-.546875 2.871094.59375 3.78125 1.246094.996094 3.105469.75 4.0625-.53125l5.84375-7.78125c.039063-.058594.070313-.121094.09375-.1875l.65625-1.5 5.34375 9.125c.539063.921875 1.523438 1.5 2.59375 1.5 2.132813 0 3.605469-2.265625 2.75-4.21875l-6.4375-14.6875.5625-2.90625 5.15625 4.21875c1.109375.902344 2.765625.75 3.6875-.34375.933594-1.109375.800781-2.789062-.3125-3.71875l-5.53125-4.625-1.5625-4.5c-.3125-2.867187-2.761719-5.21875-5.8125-5.21875zm0 2h1.375c1.972656 0 3.511719 1.433594 3.78125 3.25-.003906.128906.019531.253906.0625.375.015625.296875-.003906.597656-.0625.90625l-2 10.5c-.035156.191406-.011719.386719.0625.5625l6.5625 15c.308594.699219-.140625 1.40625-.90625 1.40625-.359375 0-.695312-.1875-.875-.5l-6.25-10.6875c0-.011719 0-.019531 0-.03125l-.03125-.0625c-.035156-.054687-.078125-.109375-.125-.15625l-2.5-4.3125c-.113281-.195312-.222656-.390625-.3125-.59375-.015625-.15625-.070312-.304687-.15625-.4375-.003906-.007812.003906-.023437 0-.03125-.011719-.011719-.019531-.019531-.03125-.03125-.367187-1.046875-.457031-2.171875-.25-3.28125l1.15625-6.21875c.09375-.46875-.15625-.9375-.597656-1.117187-.441406-.183594-.949219-.027344-1.214844.367187l-6 8.71875c-.011719.011719-.019531.019531-.03125.03125-.246094.382813-.722656.453125-1.09375.1875-.335937-.242187-.4375-.648437-.21875-1l7.75-11.8125c.417969-.640625 1.140625-1.03125 1.90625-1.03125zm6.59375 7.65625.34375.96875c.0625.171875.171875.324219.3125.4375l5.75 4.8125c.28125.238281.300781.625.0625.90625-.234375.277344-.625.292969-.90625.0625l-5.90625-4.8125c-.03125-.023437-.0625-.042969-.09375-.0625zm-24.90625 9.34375c.21875-.039062.453125.015625.65625.15625l3.3125 2.3125-5.9375 8.59375c-.164062-.027344-.328125-.0625-.5-.0625-.703125 0-1.359375.242188-1.875.65625l-1.46875-1.03125c-.703125-.488281-.863281-1.421875-.375-2.125l5.625-8.125c.140625-.203125.34375-.335937.5625-.375zm16.34375 1.40625 1.6875 2.84375-1.15625 2.625-.03125.03125-5.78125 7.75c-.292969.394531-.832031.464844-1.21875.15625-.347656-.277344-.433594-.75-.1875-1.125l5.53125-8.4375c.054688-.078125.09375-.160156.125-.25zm-18.8125 11.59375c.03125 0 .0625-.003906.09375 0 .167969.195313.402344.316406.65625.34375.152344.175781.25.398438.25.65625 0 .5625-.4375 1-1 1s-1-.4375-1-1 .4375-1 1-1z"/></svg>