<svg fill="#666" height="50" viewBox="0 0 50 50" width="50" xmlns="http://www.w3.org/2000/svg"><path d="m25.015625 1.953125-.886719 1.550781-4.859375 8.511719 4.730469-.039062v20.105468l-7.585937-5.296875c-.261719-.1875-.414063-.484375-.414063-.804687v-1.125c1.714844-.449219 3-2.003906 3-3.855469 0-2.199219-1.800781-4-4-4s-4 1.800781-4 4c0 1.851563 1.285156 3.40625 3 3.855469v1.125c0 .960937.464844 1.867187 1.246094 2.425781l.003906.003906 8.75 6.109375v1.574219c-2.828125.476563-5 2.945313-5 5.90625 0 3.300781 2.699219 6 6 6s6-2.699219 6-6c0-2.960937-2.171875-5.429687-5-5.90625v-5.527344l8.542969-5.125c.902344-.542968 1.457031-1.523437 1.457031-2.578125v-1.863281h3v-8h-8v8h3v1.863281c0 .355469-.183594.679688-.484375.863282l-7.515625 4.507812v-16.277344l4.496094-.035156zm-.03125 4.09375 2.144531 3.90625-4.394531.03125zm8.015625 8.953125h4v4h-4zm-18 4c1.117188 0 2 .882813 2 2 0 1.117188-.882812 2-2 2-1.117187 0-2-.882812-2-2 0-1.117187.882813-2 2-2zm10 19c2.222656 0 4 1.777344 4 4s-1.777344 4-4 4-4-1.777344-4-4 1.777344-4 4-4z"/></svg>