<svg fill="#666" height="50" viewBox="0 0 50 50" width="50" xmlns="http://www.w3.org/2000/svg"><path d="m22 1a1.0001 1.0001 0 0 0 -1 1v7h-1-15.0449219c-1.1315353 0-1.9550781.9941016-1.9550781 2.066406v31.867188c0 1.072305.8235428 2.066406 1.9550781 2.066406h40.0898439c1.131535 0 1.955078-.994279 1.955078-2.066406v-31.867188c0-1.0723044-.823543-2.066406-1.955078-2.066406h-15.044922-1v-7a1.0001 1.0001 0 0 0 -1-1zm1 2h4v8h-4v-.832031a1.0001 1.0001 0 0 0 0-.3261721zm2 2a1 1 0 0 0 -1 1 1 1 0 0 0 1 1 1 1 0 0 0 1-1 1 1 0 0 0 -1-1zm-19.9941406 6h12.1816406c-.11356.314892-.1875.648157-.1875 1v.5.5c0 1.64497 1.35503 3 3 3h10c1.64497 0 3-1.35503 3-3v-1c0-.351843-.07394-.685108-.1875-1h12.181641c-.000348.005211.005859.017816.005859.066406v31.867188c0 .047753-.006207.061023-.005859.066406h-39.9882816c.0003478-.005211-.0058594-.017816-.0058594-.066406v-31.867188c0-.04859.0062072-.061195.0058594-.066406zm14.9941406 0h1v1a1.0001 1.0001 0 0 0 1 1h6a1.0001 1.0001 0 0 0 1-1v-1h1c.56503 0 1 .43497 1 1v1c0 .56503-.43497 1-1 1h-10c-.56503 0-1-.43497-1-1v-.5-.5c0-.56503.43497-1 1-1zm-3.087891 7c-2.448893.04217-4.141554 1.101431-4.835937 2.650391-.620328 1.383763-.481668 2.946235-.125 4.455078-.205673.313127-.409303.76038-.386719 1.365234a1.0001 1.0001 0 0 0 0 .001953c.03147.813356.363993 1.445989.705078 1.828125.1855.207826.261339.2187.41211.314453.17855.529447.373802 1.062786.664062 1.425782.208317.260518.430174.379786.628906.55664.01303.436095.026637.840482.003907 1.248047-.09311.178058-.31152.40291-.851563.658203-.581988.275122-1.394627.539466-2.242187.884766-.847561.3453-1.747121.775503-2.4960941 1.49414-.7489732.718641-1.3040864 1.761301-1.3867188 3.052735a1.0001 1.0001 0 0 0 .9980469 1.064453h18a1.0001 1.0001 0 0 0 .998047-1.064453c-.08263-1.291434-.637714-2.334103-1.386719-3.052735-.749005-.718631-1.648441-1.148896-2.496094-1.49414-.847652-.345244-1.659989-.609723-2.242187-.884766-.540972-.255566-.760682-.478253-.853516-.65625-.02285-.409526-.009094-.815598.003907-1.255859.222708-.192726.480099-.324072.677734-.591797.271769-.36815.435798-.880864.591797-1.386719.344456-.224742 1.09375-.787278 1.09375-2.021484 0-.467498-.250703-.737894-.388672-1.080078.267962-.809297.56401-2.063065.419922-3.396485-.0771-.713561-.289901-1.466344-.830078-2.080078-.45982-.522434-1.182789-.817882-1.988282-.910156-.630136-.663709-1.517229-1.125-2.669921-1.125a1.0001 1.0001 0 0 0 -.017579 0zm.023438 2.001953c.796522.0034 1.3153.418654 1.402344.5625a1.0001 1.0001 0 0 0 .855468.482422c.549526 0 .73499.129281.894532.310547.159541.181266.292527.516718.341797.972656.098539.911877-.185471 2.193386-.371094 2.716797a1.0001 1.0001 0 0 0 .255859 1.060547c-.186907-.177127.072266.118255.072266.484375 0 .185581-.378906.513672-.378907.513672a1.0001 1.0001 0 0 0 -.480468.710937c-.05247.346451-.224244.7125-.433594.996094s-.49721.479103-.478516.470703a1.0001 1.0001 0 0 0 -.589843.912109c0 .620436-.078264 1.203844.003906 2.064454a1.0001 1.0001 0 0 0 .066406.273437c.364829.920004 1.156824 1.417871 1.921875 1.779297.765052.361426 1.590902.621104 2.34375.927734.752848.306631 1.41749.65635 1.865234 1.085938.173585.166545.181984.47558.300782.673828h-15.0546878c.118798-.198254.127197-.507274.3007813-.673828.4477455-.429611 1.1124195-.779237 1.8652345-1.085938.752815-.3067 1.578769-.566106 2.34375-.927734.76498-.361628 1.55751-.860947 1.921875-1.78125a1.0001 1.0001 0 0 0 .064453-.271484c.08215-.861414.005859-1.447073.005859-2.066407a1.0001 1.0001 0 0 0 -.558593-.896484c.128613.06325-.261613-.196012-.507813-.503906-.2462-.307895-.443696-.694599-.484375-.972657a1.0001 1.0001 0 0 0 -.582031-.769531s.002602.010579-.080078-.082031c-.08266-.09261-.18569-.224574-.199219-.574219-.0022-.100925.126953-.287109.126953-.287109a1.0001 1.0001 0 0 0 .275391-.994141c-.396106-1.42506-.445073-2.79549-.064453-3.644531.379739-.847083 1.080393-1.430505 3.035156-1.466797zm12.064453 2.998047a1.0001 1.0001 0 1 0 0 2h12a1.0001 1.0001 0 1 0 0-2zm0 5a1.0001 1.0001 0 1 0 0 2h12a1.0001 1.0001 0 1 0 0-2zm0 5a1.0001 1.0001 0 1 0 0 2h12a1.0001 1.0001 0 1 0 0-2z"/></svg>