<svg fill="#666" height="50" viewBox="0 0 50 50" width="50" xmlns="http://www.w3.org/2000/svg"><path d="m41.9375 7.03125c-.042969.007813-.085937.019531-.125.03125-.375.066406-.675781.339844-.78125.703125-.105469.367188.003906.757813.28125 1.015625 4.132813 4.15625 6.6875 9.871094 6.6875 16.21875 0 6.328125-2.550781 12.058594-6.6875 16.21875-.296875.242188-.433594.628906-.347656 1.003906.085937.371094.378906.664063.75.75.375.085938.761719-.050781 1.003906-.347656 4.496094-4.519531 7.28125-10.757812 7.28125-17.625 0-6.882812-2.757812-13.109375-7.25-17.625-.203125-.234375-.503906-.359375-.8125-.34375zm-34.0625.03125c-.226562.03125-.4375.144531-.59375.3125-4.496094 4.519531-7.28125 10.757813-7.28125 17.625 0 6.882813 2.757813 13.109375 7.25 17.625.386719.398438 1.023438.402344 1.421875.015625.398438-.386719.402344-1.023437.015625-1.421875-4.132812-4.15625-6.6875-9.871094-6.6875-16.21875 0-6.328125 2.550781-12.058594 6.6875-16.21875.3125-.296875.402344-.761719.21875-1.152344-.1875-.394531-.601562-.621093-1.03125-.566406zm8.3125 7.28125c-.222656.023438-.433594.125-.59375.28125-2.824219 2.5625-4.59375 6.269531-4.59375 10.375 0 4.113281 1.773438 7.820313 4.59375 10.375.253906.28125.648438.398438 1.015625.292969.363281-.101563.640625-.402344.710938-.777344.070312-.375-.078125-.757812-.382813-.984375-2.417969-2.191406-3.9375-5.363281-3.9375-8.90625 0-3.53125 1.515625-6.707031 3.9375-8.90625.328125-.285156.433594-.75.261719-1.148437-.171875-.398438-.578125-.640625-1.011719-.601563zm17.40625 0c-.394531.046875-.71875.324219-.835937.703125-.113282.378906.003906.789063.304687 1.046875 2.417969 2.191406 3.9375 5.363281 3.9375 8.90625 0 3.53125-1.511719 6.707031-3.9375 8.90625-.304687.226563-.453125.609375-.382812.984375.070312.375.347656.675781.710937.777344.367188.105469.761719-.011719 1.015625-.292969 2.824219-2.5625 4.59375-6.269531 4.59375-10.375 0-4.113281-1.773437-7.820312-4.59375-10.375-.191406-.1875-.453125-.289062-.71875-.28125-.03125 0-.0625 0-.09375 0zm-8.59375 5.65625c-2.75 0-5 2.246094-5 5 0 2.746094 2.246094 5 5 5s5-2.253906 5-5c0-2.753906-2.25-5-5-5zm0 2c1.675781 0 3 1.320313 3 3 0 1.667969-1.328125 3-3 3s-3-1.332031-3-3c0-1.679687 1.324219-3 3-3z"/></svg>