<svg fill="#666" height="50" viewBox="0 0 50 50" width="50" xmlns="http://www.w3.org/2000/svg"><path d="m42.875 8.625c-.03125.007813-.0625.019531-.09375.03125-.261719.066406-.488281.234375-.625.46875l-20.4375 31.6875-14.0625-12.6875c-.246094-.3125-.65625-.449219-1.042969-.347656-.386718.101562-.671875.425781-.730468.820312-.058594.394532.121093.785157.460937.996094l14.90625 13.5c.21875.191406.511719.277344.800781.234375.289063-.042969.542969-.207031.699219-.453125l21.09375-32.6875c.230469-.328125.242188-.761719.03125-1.101562-.210937-.339844-.605469-.519532-1-.460938z"/></svg>