<svg fill="#666" height="50" viewBox="0 0 50 50" width="50" xmlns="http://www.w3.org/2000/svg"><path d="m19.8125 13.09375c-.21875.039063-.414062.148438-.5625.3125l-10.90625 10.875-.6875.71875.6875.71875 10.90625 10.875c.242188.296875.628906.433594 1.003906.347656.371094-.085937.664063-.378906.75-.75.085938-.375-.050781-.761718-.347656-1.003906l-9.1875-9.1875h29.53125c.359375.003906.695313-.183594.878906-.496094.179688-.3125.179688-.695312 0-1.007812-.183593-.3125-.519531-.5-.878906-.496094h-29.53125l9.1875-9.1875c.324219-.300781.410156-.777344.214844-1.171875-.191406-.398437-.625-.617187-1.058594-.546875z"/></svg>