<svg fill="#666" height="50" viewBox="0 0 50 50" width="50" xmlns="http://www.w3.org/2000/svg"><path d="m19 5c-1.644531 0-3 1.355469-3 3v3h-13c-1.644531 0-3 1.355469-3 3v8.6875c-.0585938.195313-.0585938.398438 0 .59375v18.71875c0 1.644531 1.355469 3 3 3h44c1.644531 0 3-1.355469 3-3v-18.8125c.027344-.132812.027344-.273437 0-.40625v-8.78125c0-1.644531-1.355469-3-3-3h-13v-3c0-1.644531-1.355469-3-3-3zm0 2h12c.5625 0 1 .4375 1 1v3h-14v-3c0-.5625.4375-1 1-1zm-16 6h44c.5625 0 1 .4375 1 1v8h-7c0-1.09375-.90625-2-2-2h-5c-1.09375 0-2 .90625-2 2h-14c0-1.09375-.90625-2-2-2h-5c-1.09375 0-2 .90625-2 2h-7v-8c0-.5625.4375-1 1-1zm8 9h5v.6875c-.058594.195313-.058594.398438 0 .59375v.71875h-5v-.8125c.027344-.132812.027344-.273437 0-.40625zm23 0h5v.6875c-.058594.195313-.058594.398438 0 .59375v.71875h-5v-.8125c.027344-.132812.027344-.273437 0-.40625zm-32 2h7c0 1.09375.90625 2 2 2h5c1.09375 0 2-.90625 2-2h14c0 1.09375.90625 2 2 2h5c1.09375 0 2-.90625 2-2h7v18c0 .5625-.4375 1-1 1h-44c-.5625 0-1-.4375-1-1z"/></svg>