<svg fill="#666" height="50" viewBox="0 0 50 50" width="50" xmlns="http://www.w3.org/2000/svg"><path d="m9 4c-2.7495161 0-5 2.2504839-5 5v32c0 2.749516 2.2504839 5 5 5h32c2.749516 0 5-2.250484 5-5v-32c0-2.7495161-2.250484-5-5-5zm0 2h32c1.668484 0 3 1.3315161 3 3v32c0 1.668484-1.331516 3-3 3h-32c-1.6684839 0-3-1.331516-3-3v-32c0-1.6684839 1.3315161-3 3-3zm2 10a1.0001 1.0001 0 0 0 -1 1v16.001953a1.0001 1.0001 0 0 0 1 1h7.609375a1.0001 1.0001 0 0 0 .001953 0c.412425-.00065 1.859092-.03581 3.355469-.738281 1.496329-.702468 3.033203-2.28232 3.033203-4.835938 0-1.61999-.530532-2.839863-1.242188-3.642578-.297836-.335946-.576084-.373593-.890624-.580078.601774-.703962 1.132812-1.656687 1.132812-3.205078 0-2.382675-1.305029-3.861398-2.646484-4.462891-1.341456-.601492-2.720945-.537109-3.060547-.537109zm19 0a1.0001 1.0001 0 1 0 0 2h6a1.0001 1.0001 0 1 0 0-2zm-18 2h6.292969c.452397 0 1.428143-.0037 2.242187.361328.814044.365008 1.464844.887347 1.464844 2.638672 0 1.875889-.722898 2.235863-1.152344 2.457031a1.0001 1.0001 0 0 0 .132813 1.833985c.378133.129623.883154.371277 1.28125.820312s.738281 1.107397.738281 2.316406c0 1.830382-.84269 2.537109-1.882812 3.025391-1.040124.488282-2.286238.548479-2.507813.548828h-6.609375zm21 1c-.912374 0-2.582585.181258-4.136719 1.248047-1.554133 1.066789-2.863281 3.09135-2.863281 6.251953 0 2.943402 1.208842 4.944154 2.728516 6.068359s3.242166 1.431641 4.441406 1.431641c2.539146 0 4.334569-.863054 5.410156-2.089844.993431-1.133083 1.322292-2.469849 1.373047-3.613281a1.0001 1.0001 0 0 0 .046875-.261719c.000308-.0086-.002253-.018703-.001953-.027344.00005-.002446.001953-.005371.001953-.007812a1.0001 1.0001 0 0 0 -.005859-.099609 1.0001 1.0001 0 0 0 0-.003907c.054448-1.807353-.085561-3.896149-1.050782-5.683593-.988742-1.831005-2.976789-3.212891-5.943359-3.212891zm-18 1v3h2.619141c.357 0 1.546875-.225453 1.546875-1.564453 0-1.34-1.548157-1.435547-1.785157-1.435547zm18 1c2.40843 0 3.482883.868114 4.181641 2.162109.565998 1.048145.738075 2.456228.771484 3.837891h-2.953125-4a1.0001 1.0001 0 0 0 -1 1s.008601.252415.082031.472656c.07341.220241.218087.491524.460938.734375.485703.485703 1.290364.792969 2.457031.792969s1.971329-.307266 2.457031-.792969c.0686-.0686.07739-.135656.13086-.207031h2.253906c-.133179.554752-.347113 1.112499-.765625 1.589844-.677913.77321-1.797396 1.410156-3.90625 1.410156-.82876 0-2.194127-.256517-3.251953-1.039062-1.057826-.782546-1.917969-2.03134-1.917969-4.460938 0-2.646397.930477-3.872055 1.996094-4.603516 1.065616-.73146 2.39528-.896484 3.003906-.896484zm.085938 1.601562c-.591001 0-1.015516.075469-1.353516.230469-.338.154-.58975.387141-.84375.619141-.169.232-.338828.465391-.423828.77539-.085.232-.168969.464391-.167969.775391h5.408203c-.085-.775-.338719-1.39425-.761719-1.78125-.422-.387-1.012422-.619141-1.857421-.619141zm-18.052735 3.398438v3.980469h2.929688c.254 0 2.037109-.098016 2.037109-1.916016 0-1.82-1.401109-2.064453-2.037109-2.064453z"/></svg>