<svg fill="#666" height="50" viewBox="0 0 50 50" width="50" xmlns="http://www.w3.org/2000/svg"><path d="m26.5 2c-3.027344 0-5.5 2.472656-5.5 5.5s2.472656 5.5 5.5 5.5 5.5-2.472656 5.5-5.5-2.472656-5.5-5.5-5.5zm0 2c1.945313 0 3.5 1.554688 3.5 3.5 0 1.945313-1.554687 3.5-3.5 3.5-1.945312 0-3.5-1.554687-3.5-3.5 0-1.945312 1.554688-3.5 3.5-3.5zm-9.5 8c-.710937 0-1.328125.300781-1.839844.71875-.152343.050781-.289062.140625-.398437.257813l-6.378906 6.878906c-.101563.109375-.175782.242187-.21875.382812-.691407.914063-1.164063 2.019532-1.164063 3.261719 0 3.027344 2.472656 5.5 5.5 5.5.914063 0 1.765625-.234375 2.519531-.632812.058594.773437.296875 1.496093.667969 2.132812l-1.878906 6.03125-4.070313 5.824219c-.121093.171875-.183593.378906-.179687.59375-.261719.484375-.558594.957031-.558594 1.550781 0 1.921875 1.578125 3.5 3.5 3.5 1.085938 0 1.988281-.566406 2.628906-1.34375.140625-.078125.257813-.1875.34375-.320312l4.519532-6.800782c.042968-.066406.078125-.136718.105468-.207031l1.3125-3.578125 2.589844 2.210938v6.539062c0 1.921875 1.578125 3.5 3.5 3.5s3.5-1.578125 3.5-3.5v-9.5c0-.769531-.304687-1.46875-.78125-2-.03125-.046875-.066406-.085937-.105469-.125l-4.996093-5.15625 1.445312-5.171875 3.453125 2.691406c.175781.136719.390625.210938.613281.214844.433594.242188.839844.546875 1.371094.546875.339844 0 .625-.132812.921875-.234375h.003906c.164063.003906.324219-.035156.46875-.109375l2.605469-1.324219v22.667969c-.003906.359375.183594.695313.496094.878906.3125.179688.695312.179688 1.007812 0 .3125-.183593.5-.519531.496094-.878906v-23.6875l.992188-.5c1.164062-.414062 2.007812-1.515625 2.007812-2.8125 0-1.644531-1.355469-3-3-3v-3.703125c.003906-.269531-.101562-.527344-.292969-.71875-.191406-.191406-.453125-.296875-.722656-.292969-.550781.007813-.992187.460938-.984375 1.011719v4.359375l-3.824219 1.824219-5.050781-4.601563-.015625-.011718c-.007812-.003907-.011719-.011719-.019531-.015625-.019531-.015625-.03125-.023438-.058594-.046875l-.003906.019531c-.25-.230469-.574219-.347656-.886719-.480469-.128906-.132812-.292969-.226562-.46875-.269531l-3.90625-.976563c-.085937-.019531-.175781-.027343-.265625-.023437-.160156-.03125-.308594-.074219-.5-.074219-.550781 0-1.035156.171875-1.449219.453125-.53125-.867187-1.472656-1.453125-2.550781-1.453125zm0 2c.566406 0 1 .433594 1 1v.640625l-2.378906 9.40625c-.574219 1.15625-1.742188 1.953125-3.121094 1.953125-1.945312 0-3.5-1.554687-3.5-3.5 0-.882812.332031-1.667969.882813-2.296875.035156-.039062.066406-.078125.09375-.125l5.722656-6.171875-.660156-.359375c.40625.222656.914062.132813 1.222656-.210937.191406-.210938.441406-.335938.738281-.335938zm5.074219.90625-.359375.238281 3.082031.769532-.210937-.335938c.140625.230469.371093.390625.632812.449219.191406.042969.355469.132812.484375.261719 0 0 .003906.003906.003906.003906s.003907 0 .003907.003906c.011718.007813.019531.019531.03125.03125.003906 0 .007812.003906.011718.007813v.003906h.003907c.007812.007812.011718.011719.019531.019531l5.550781 5.050781c.296875.273438.734375.339844 1.101563.164063l4.882812-2.328125c.042969-.019531.085938-.046875.128906-.074219.160157-.109375.347657-.171875.558594-.171875.566406 0 1 .433594 1 1 0 .460938-.304687.828125-.722656.953125-.058594.015625-.117188.039063-.171875.066406l-5.347656 2.71875.285156.03125c-.203125-.023437-.40625.015625-.585938.109375-.152343.082032-.300781.121094-.457031.121094-.265625 0-.496094-.101562-.683594-.277344-.019531-.019531-.046875-.039062-.070312-.0625l-4.628906-3.609375c-.261719-.203125-.609375-.265625-.925782-.160156-.320312.101563-.5625.359375-.652343.679688l-2.003907 7.160156c-.09375.34375 0 .710937.246094.964844l5.238281 5.40625-.070312-.210938c.050781.148438.136719.285156.25.394531.1875.1875.300781.429688.300781.714844v9.5c0 .839844-.660156 1.5-1.5 1.5s-1.5-.660156-1.5-1.5v-7c0-.292969-.128906-.570312-.351562-.761719l-3.824219-3.261718c-.105469-.167969-.261719-.296875-.441406-.378907l-3.253907-2.773437c-.003906-.007813-.011718-.011719-.015625-.015625-.679687-.558594-1.113281-1.371094-1.113281-2.308594 0-.378906.078125-.742187.214844-1.09375.074219-.1875.089844-.394531.042969-.589844l.050781.210938 2.582031-10.210938-.09375.046875c.085938-.113281.148438-.25.175781-.390625.023438-.050781.039063-.105468.046875-.160156.089844-.460937.484375-.8125.980469-.8125.066406 0 .144531.011719.253906.042969.28125.074219.578125.023437.820313-.136719zm3.722656 1.464844c.007813.007812.019531.015625.03125.019531l.03125.027344s-.015625-.011719-.015625-.015625c.164063.113281.359375.175781.5625.175781h-.347656zm-8.546875 15.832031 2.535156 2.164063-1.523437 4.160156-3.921875 5.90625.8125.488281c-.226563-.136719-.5-.175781-.757813-.113281-.257812.066406-.480468.230469-.613281.457031-.265625.441406-.730469.734375-1.28125.734375-.839844 0-1.5-.660156-1.5-1.5 0-.351562.125-.667969.34375-.9375.042969-.054687.082031-.113281.113281-.175781l4.078125-5.835938c.0625-.085937.105469-.175781.136719-.273437z"/></svg>