<svg fill="#666" height="50" viewBox="0 0 50 50" width="50" xmlns="http://www.w3.org/2000/svg"><path d="m25 2c-12.690705 0-23 10.309295-23 23s10.309295 23 23 23 23-10.309295 23-23-10.309295-23-23-23zm0 2c11.609824 0 21 9.390176 21 21s-9.390176 21-21 21-21-9.390176-21-21 9.390176-21 21-21zm-9 8c-1.64501 0-3 1.35499-3 3s1.35499 3 3 3 3-1.35499 3-3-1.35499-3-3-3zm0 2c.564129 0 1 .435871 1 1s-.435871 1-1 1-1-.435871-1-1 .435871-1 1-1zm-2 5a1.0001 1.0001 0 0 0 -1 1v15a1.0001 1.0001 0 0 0 1 1h4a1.0001 1.0001 0 0 0 1-1v-15a1.0001 1.0001 0 0 0 -1-1zm8 0a1.0001 1.0001 0 0 0 -1 1v15a1.0001 1.0001 0 0 0 1 1h4a1.0001 1.0001 0 0 0 1-1v-7.5c0-1.379545 1.120455-2.5 2.5-2.5s2.5 1.120455 2.5 2.5v2.5 5a1.0001 1.0001 0 0 0 1 1h4a1.0001 1.0001 0 0 0 1-1v-8.5c0-4.13039-3.36961-7.5-7.5-7.5-1.286472 0-2.440256.41615-3.5.990234a1.0001 1.0001 0 0 0 -1-.990234zm-7 2h2v13h-2zm8 0h2v.816406a1.0001 1.0001 0 0 0 1.693359.720703c.990827-.951804 2.323324-1.537109 3.806641-1.537109 3.04961 0 5.5 2.45039 5.5 5.5v7.5h-2v-4-2.5c0-2.470455-2.029545-4.5-4.5-4.5s-4.5 2.029545-4.5 4.5v6.5h-2z"/></svg>