<svg fill="#666" height="50" viewBox="0 0 50 50" width="50" xmlns="http://www.w3.org/2000/svg"><path d="m6.667969 4c-1.460938 0-2.667969 1.207031-2.667969 2.667969v36.664062c0 1.460938 1.207031 2.667969 2.667969 2.667969h36.664062c1.460938 0 2.667969-1.203125 2.667969-2.667969v-36.664062c0-1.460938-1.203125-2.667969-2.667969-2.667969zm0 2h36.664062c.371094 0 .667969.296875.667969.667969v36.664062c0 .371094-.296875.667969-.667969.667969h-36.664062c-.371094 0-.667969-.296875-.667969-.667969v-36.664062c0-.371094.296875-.667969.667969-.667969zm25.511719 13.589844c-2.132813 0-3.167969 2.234375-3.167969 4.730469 0 3.035156 1.136719 4.789062 3 4.789062.085937 0 .238281.082031.453125.191406.710937.414063 1.632812.882813 2.457031 1.214844l.652344-1.367187c-.597656-.222657-1.265625-.429688-1.875-.691407v-.066406c.894531-.472656 1.4375-1.90625 1.4375-4.207031 0-2.125-.640625-4.59375-2.957031-4.59375zm-5.644532.023437c-2 0-3.023437 1.246094-3.023437 2.734375 0 .84375.496094 1.820313 1.804687 2.589844.808594.511719 1.234375.84375 1.234375 1.519531 0 .605469-.425781 1.046875-1.304687 1.046875-.542969 0-1.195313-.152343-1.578125-.359375l-.273438 1.558594c.3125.183594 1.066407.375 1.835938.375 1.875 0 3.164062-1.117187 3.164062-2.8125 0-.980469-.464843-1.917969-1.730468-2.660156-1.035157-.609375-1.320313-.898438-1.320313-1.449219 0-.5.382813-.96875 1.179688-.96875.539062 0 .949218.152344 1.222656.316406l.300781-1.554687c-.285156-.167969-.886719-.335938-1.511719-.335938zm-16.921875.085938-.695312 9.296875h1.605469l.15625-3.230469c.058593-.921875.113281-2.09375.144531-3.101562h.039062c.144532 1.007812.398438 2.164062.585938 2.910156l.792969 3.269531h1.320312l.824219-3.324219c.183594-.71875.441406-1.863281.613281-2.855468h.042969c-.03125.992187.039062 2.191406.082031 3.074218l.171875 3.257813h1.660156l-.582031-9.296875h-1.960937l-.753907 3.363281c-.253906 1.175781-.464843 2.222656-.609375 3.257813h-.027343c-.171875-1.050782-.410157-2.082032-.679688-3.257813l-.769531-3.363281zm26.699219 0v9.296875h4.320313v-1.53125h-2.457032v-7.765625zm-4.21875 1.460937c.824219 0 1.09375 1.367188 1.09375 3.105469 0 1.929688-.3125 3.265625-1.09375 3.265625-.824219 0-1.164062-1.335937-1.152344-3.222656 0-1.753906.382813-3.148438 1.152344-3.148438zm-14.519531 1.085938 1.902344 6.25c.027343.082031.054687.164062.054687.25 0 .09375-.039062.164062-.097656.289062-.128906.289063-.324219.566407-.582031.800782-.285157.25-.597657.453125-.925782.566406l.570313 1.558594c.28125-.082032.996094-.402344 1.578125-1.0625.75-.867188 1.207031-2.179688 1.546875-3.449219l1.421875-5.199219h-1.820313l-.582031 3.53125c-.058594.371094-.113281.757813-.171875 1.105469h-.027344c-.058593-.359375-.113281-.734375-.183593-1.132813l-.683594-3.503906v-.003906z"/></svg>