<svg fill="#666" height="50" viewBox="0 0 50 50" width="50" xmlns="http://www.w3.org/2000/svg"><path d="m48 3c-1.105469 0-2 .894531-2 2 0 .136719.003906.277344.03125.40625.003906.007813-.003906.023438 0 .03125l-10.46875 9.65625c-.179687-.054687-.367187-.09375-.5625-.09375-.351562 0-.683594.09375-.96875.25l-7.03125-4.1875c0-.019531 0-.042969 0-.0625 0-1.105469-.894531-2-2-2s-2 .894531-2 2c0 .105469.015625.210938.03125.3125l-7.3125 5.8125c-.222656-.085937-.464844-.125-.71875-.125-1.042969 0-1.90625.796875-2 1.8125l-9.84375 4.5625c-.328125-.230469-.726562-.375-1.15625-.375-1.105469 0-2 .894531-2 2s.894531 2 2 2c1.042969 0 1.90625-.796875 2-1.8125l9.84375-4.5625c.328125.230469.726563.375 1.15625.375 1.105469 0 2-.894531 2-2 0-.105469-.015625-.210937-.03125-.3125l7.28125-5.84375c.230469.09375.484375.15625.75.15625.363281 0 .707031-.109375 1-.28125l7 4.21875v.0625c0 1.105469.894531 2 2 2s2-.894531 2-2c0-.136719-.003906-.277344-.03125-.40625v-.03125l10.46875-9.65625c.179688.054688.367188.09375.5625.09375 1.105469 0 2-.894531 2-2s-.894531-2-2-2zm0 26c-1.105469 0-2 .894531-2 2 0 .136719.003906.277344.03125.40625.003906.007813-.003906.023438 0 .03125l-10.4375 9.65625c-.1875-.058594-.386719-.09375-.59375-.09375-.171875 0-.339844.019531-.5.0625l-7.5625-7.5625c.042969-.160156.0625-.328125.0625-.5 0-1.105469-.894531-2-2-2s-2 .894531-2 2c0 .105469.015625.210938.03125.3125l-7.3125 5.8125c-.222656-.085937-.464844-.125-.71875-.125-.625 0-1.164062.300781-1.53125.75l-9.625-1.5c-.296875-.730469-1.003906-1.25-1.84375-1.25-1.105469 0-2 .894531-2 2s.894531 2 2 2c.625 0 1.164063-.300781 1.53125-.75l9.625 1.5c.296875.730469 1.003906 1.25 1.84375 1.25 1.105469 0 2-.894531 2-2 0-.105469-.015625-.210937-.03125-.3125l7.28125-5.84375c.230469.09375.484375.15625.75.15625.171875 0 .339844-.019531.5-.0625l7.5625 7.5625c-.042969.160156-.0625.328125-.0625.5 0 1.105469.894531 2 2 2s2-.894531 2-2c0-.136719-.003906-.277344-.03125-.40625-.003906-.007812.003906-.023437 0-.03125l10.46875-9.65625c.179688.054688.367188.09375.5625.09375 1.105469 0 2-.894531 2-2s-.894531-2-2-2z"/></svg>