<svg fill="#666" height="50" viewBox="0 0 50 50" width="50" xmlns="http://www.w3.org/2000/svg"><path d="m43.125 2c-1.246094 0-2.488281.488281-3.4375 1.4375l-.8125.8125 6.875 6.875c-.003906.003906.8125-.8125.8125-.8125 1.902344-1.902344 1.898438-4.976562 0-6.875-.953125-.949219-2.191406-1.4375-3.4375-1.4375zm-5.78125 4.03125c-.226562.03125-.4375.144531-.59375.3125l-32.4375 32.46875c-.128906.117188-.226562.269531-.28125.4375l-2 7.5c-.089844.34375.011719.707031.261719.957031s.613281.351563.957031.261719l7.5-2c.167969-.054687.320313-.152344.4375-.28125l32.46875-32.4375c.398438-.386719.402344-1.023437.015625-1.421875-.386719-.398437-1.023437-.402344-1.421875-.015625l-32.28125 32.28125-4.0625-4.0625 32.28125-32.28125c.300781-.289062.390625-.738281.222656-1.121094-.167968-.382812-.554687-.621093-.972656-.597656-.03125 0-.0625 0-.09375 0z"/></svg>