<svg fill="#666" height="50" viewBox="0 0 50 50" width="50" xmlns="http://www.w3.org/2000/svg"><path d="m16 3c-7.1675161 0-13 5.8324839-13 13v18c0 7.167516 5.8324839 13 13 13h18c7.167516 0 13-5.832484 13-13v-18c0-7.1675161-5.832484-13-13-13zm0 2h18c6.086484 0 11 4.9135161 11 11v18c0 6.086484-4.913516 11-11 11h-18c-6.0864839 0-11-4.913516-11-11v-18c0-6.0864839 4.9135161-11 11-11zm21 6a2 2 0 0 0 -2 2 2 2 0 0 0 2 2 2 2 0 0 0 2-2 2 2 0 0 0 -2-2zm-12 3c-6.063288 0-11 4.936712-11 11s4.936712 11 11 11 11-4.936712 11-11-4.936712-11-11-11zm0 2c4.982407 0 9 4.017593 9 9s-4.017593 9-9 9-9-4.017593-9-9 4.017593-9 9-9z"/></svg>