<svg fill="#666" height="50" viewBox="0 0 50 50" width="50" xmlns="http://www.w3.org/2000/svg"><path d="m38.5-.09375c-.296875.0078125-.605469.0273437-.90625.0625-1.199219.136719-2.4375.464844-3.625.90625-2.375.882813-4.5625 2.21875-5.96875 3.625-1.519531 1.519531-2.265625 3.375-2.25 5.28125.011719 1.648438.628906 3.3125 1.53125 4.90625l-2.28125 2.3125c-.296875.242188-.433594.628906-.347656 1.003906.085937.371094.378906.664063.75.75.375.085938.761719-.050781 1.003906-.347656l2.8125-2.8125c.332031-.335937.382813-.855469.125-1.25-1.023437-1.582031-1.582031-3.144531-1.59375-4.5625s.476563-2.695312 1.65625-3.875c1.09375-1.09375 3.15625-2.363281 5.28125-3.15625 1.335938-.496094 2.609375-.683594 3.78125-.71875l-3.78125 3.75c-.011719.019531-.023437.042969-.03125.0625-1.027344 1.171875-1.074219 2.957031.03125 4.0625l5.3125 5.3125.03125.03125c1.171875 1.027344 2.957031 1.074219 4.0625-.03125l3.78125-3.78125c-.03125 1.191406-.21875 2.476563-.71875 3.8125-.789062 2.113281-2.058594 4.152344-3.15625 5.25-1.179687 1.179688-2.433594 1.613281-3.84375 1.59375s-3.007812-.574219-4.65625-1.5625c-.394531-.234375-.894531-.167969-1.21875.15625l-1.59375 1.59375c-.398437.386719-.402344 1.023438-.015625 1.421875.386719.398438 1.023438.402344 1.421875.015625l1.125-1.125c1.625.871094 3.257813 1.476563 4.90625 1.5 1.890625.027344 3.761719-.667969 5.28125-2.1875 1.402344-1.402344 2.742188-3.574219 3.625-5.9375.882813-2.363281 1.347656-4.925781.625-7.09375-.113281-.328125-.386719-.570312-.722656-.648437-.339844-.074219-.691406.027343-.933594.273437l-5.3125 5.28125c-.28125.28125-.859375.320313-1.28125 0-.019531-.015625-.042969-.015625-.0625-.03125l-5.25-5.25c-.296875-.296875-.3125-.917969.0625-1.34375l5.25-5.25c.246094-.242187.347656-.59375.273438-.933594-.078125-.335937-.320313-.609375-.648438-.722656-.800781-.2734375-1.644531-.371094-2.53125-.34375zm-35.15625.09375c-.210937.03125-.410156.128906-.5625.28125l-2.5 2.5c-.3242188.324219-.390625.824219-.15625 1.21875l4.21875 7.3125c.210938.34375.601563.527344 1 .46875l2.1875-.34375 13.5625 13.5625-.5.5c-1.105469 1.105469-1.105469 2.894531 0 4l.6875.71875c.796875.796875 1.894531.792969 2.875.46875l1.6875 1.65625c-.113281 1.347656.28125 2.6875 1.25 3.65625l12.1875 12.21875c2.46875 2.46875 6.46875 2.46875 8.9375 0 0-.011719 0-.019531 0-.03125 2.371094-2.492187 2.402344-6.503906 0-8.90625l-12.21875-12.1875c-1.007812-1.007812-2.347656-1.320312-3.65625-1.25l-1.65625-1.6875c.324219-.980469.328125-2.078125-.46875-2.875l-.71875-.6875c-.550781-.550781-1.273437-.84375-2-.84375-.726562 0-1.449219.292969-2 .84375l-.5.5-13.5625-13.5625.34375-2.1875c.058594-.398437-.125-.789062-.46875-1l-7.3125-4.21875c-.171875-.0976562-.367187-.140625-.5625-.125-.03125 0-.0625 0-.09375 0zm.34375 2.25 6.03125 3.46875-.3125 2.03125c-.042969.308594.0625.621094.28125.84375l13.90625 13.90625-1.09375 1.09375-13.90625-13.90625c-.222656-.21875-.535156-.324219-.84375-.28125l-2.03125.3125-3.46875-6.03125zm23.8125 19.53125c.222656 0 .445313.070313.59375.21875l.6875.71875c.328125.328125.324219.816406.0625 1.125-.347656.402344-.320312 1.007813.0625 1.375l2.28125 2.28125c.230469.230469.554688.335938.875.28125.925781-.152344 1.894531.082031 2.53125.71875l12.1875 12.21875c1.59375 1.59375 1.609375 4.351563 0 6.0625-1.730469 1.730469-4.332031 1.730469-6.0625 0l-12.21875-12.1875c-.664062-.664062-.925781-1.605469-.71875-2.4375.089844-.351562-.019531-.71875-.28125-.96875l-2.28125-2.28125c-.367187-.382812-.972656-.410156-1.375-.0625-.308594.261719-.796875.265625-1.125-.0625l-.71875-.6875c-.296875-.296875-.296875-.890625 0-1.1875l4.90625-4.90625c.148438-.148437.371094-.21875.59375-.21875zm-9.8125 3c-.226562.03125-.4375.144531-.59375.3125l-4.75 4.75c-.679687-.132812-1.347656-.25-2.03125-.25-5.636719 0-10.21875 4.582031-10.21875 10.21875s4.582031 10.1875 10.21875 10.1875 10.1875-4.550781 10.1875-10.1875c0-.730469-.164062-1.453125-.34375-2.15625l3.4375-3.4375c.398438-.386719.402344-1.023437.015625-1.421875-.386719-.398437-1.023437-.402344-1.421875-.015625l-3.78125 3.8125c-.285156.273438-.382812.691406-.25 1.0625.25.664063.34375 1.332031.34375 2.15625 0 4.5625-3.625 8.1875-8.1875 8.1875s-8.21875-3.625-8.21875-8.1875 3.65625-8.21875 8.21875-8.21875c.714844 0 1.433594.101563 2.15625.28125.339844.074219.695313-.03125.9375-.28125l5.09375-5.09375c.296875-.285156.386719-.726562.226563-1.105469-.15625-.378906-.535157-.621093-.945313-.613281-.03125 0-.0625 0-.09375 0zm14.03125 5.5-1.4375 1.4375 12 12 1.4375-1.4375zm-20.34375 3.71875c-.054687.007813-.105469.015625-.15625.03125l-4.6875 1.3125c-.332031.09375-.59375.355469-.6875.6875l-1.3125 4.6875c-.109375.355469-.011719.738281.25 1l3.5 3.5c.253906.25.625.347656.96875.25l4.8125-1.3125c.351563-.089844.628906-.367187.71875-.71875l1.1875-4.6875c.097656-.34375 0-.714844-.25-.96875l-3.5-3.5c-.222656-.21875-.535156-.324219-.84375-.28125zm-.1875 2.125 2.6875 2.6875-.90625 3.59375-3.65625.96875-2.6875-2.6875.96875-3.59375z"/></svg>