<svg fill="#666" height="50" viewBox="0 0 50 50" width="50" xmlns="http://www.w3.org/2000/svg"><path d="m25 2c-12.688665 0-23 10.311335-23 23s10.311335 23 23 23 23-10.311335 23-23-10.311335-23-23-23zm0 2c11.607335 0 21 9.392665 21 21 0 .071371-.005151.141688-.005859.212891-.639614-.059038-1.378633-.115115-2.31836-.148438-1.328718-.047117-3.003522-.033466-4.902343.060547.070414-.490349.119767-.987623.121093-1.498047.09683-1.872621-.53201-3.624489-1.554687-5.171875.247069-.853726.536903-1.93986.609375-3.171875.0826-1.404278-.03862-2.961438-1.166016-4.013672l-.289062-.269531h-.394532c-2.68307 0-4.519586 1.12321-5.642578 2.013672-1.621502-.62765-3.444811-1.013672-5.457031-1.013672-2.023633 0-3.864475.391416-5.552734 1.017578-1.122355-.890887-2.960481-2.017578-5.646485-2.017578h-.392578l-.289062.267578c-1.098185 1.019743-1.199363 2.534181-1.13086 3.931641.06041 1.232287.333451 2.352923.576172 3.248047-1.039964 1.577594-1.664062 3.374752-1.664062 5.152343 0 .511628.047578 1.010462.117187 1.501953-1.8057607-.083754-3.4154784-.099894-4.6933592-.054687-.9397045.033243-1.6787766.088838-2.3183594.148437-.0005966-.06534-.0058594-.12983-.0058594-.195312 0-11.607335 9.392665-21 21-21zm-10.603516 9.130859c2.017583.191184 3.535511 1.092113 4.238282 1.716797l.46875.414063.578125-.236328c1.581451-.651186 3.345343-1.025391 5.318359-1.025391s3.737393.376076 5.199219 1.015625l.585937.257813.478516-.425782c.703011-.624898 2.223512-1.526102 4.242187-1.716797.268397.444982.501627 1.077809.445313 2.035157-.0674 1.145721-.373868 2.393642-.605469 3.134765l-.150391.482422.298829.408203c.989475 1.349285 1.49398 2.809531 1.408203 4.353516l-.001953.027344v.027343c0 2.495455-.898611 4.49273-2.8125 5.972657-1.913843 1.479933-4.935228 2.427734-9.1875 2.427734-4.252273 0-7.275564-.947808-9.189453-2.427734-1.913891-1.479927-2.810547-3.477202-2.810547-5.972657 0-1.464706.528917-3.07601 1.505859-4.408203l.292969-.398437-.140625-.47461c-.231728-.787875-.515769-2.064256-.572266-3.216797-.04699-.958622.179893-1.564535.410156-1.970703zm-5.5117184 12.890625c.7066919.009026 1.5166944.047172 2.3281254.087891.077528.311797.165931.618523.273437.917969-3.307356.069748-5.7815971.40233-7.3066405.6875-.0644807-.50035-.1158392-1.004823-.1445313-1.515625 1.1270496-.106957 2.715841-.204986 4.8496094-.177735zm32.2304684.015625c2.132293-.027076 3.720494.071047 4.847657.177735-.028657.503484-.079142 1.00082-.142579 1.49414-1.579542-.289774-4.120638-.622296-7.513671-.675781.105304-.293526.192986-.594984.269531-.900391.895119-.047979 1.768392-.085916 2.539062-.095703zm-29.203125 1.982422c.59674 1.195796 1.449407 2.263488 2.576172 3.134766 1.540544 1.191234 3.543342 2.023541 5.988281 2.46875-.319863.328651-.610782.689548-.86914 1.070312l-.060547-.052734c.0055-.0063-.497125.245253-1.248047.3125-.750922.067249-1.677213.046875-2.498047.046875-1.225 0-1.764571-.57879-2.626953-1.632812-.477545-.643628-1.059727-1.164857-1.625-1.560547-.578807-.405166-1.072569-.691132-1.6835936-.792969l-.0820313-.013672h-.0839843c-.4666667 0-.9182353.03379-1.3398438.515625-.2108043.240919-.356098.686936-.2617188 1.064453.094379.377517.3332001.609503.546875.751953 1.3667228.911149 1.6082638 2.71448 2.4648438 4.31836.799923 1.593924 2.526287 2.349609 4.291016 2.349609h2.599609v4.802734c-7.032189-2.482199-12.3353205-8.598121-13.6679688-16.099609 1.5309026-.288349 4.0945075-.635017 7.5800778-.683594zm25.970703.007813c3.562726.030496 6.198238.376717 7.78711.669922-1.330875 7.504238-6.63585 13.622604-13.669922 16.105468v-5.203125c0-1.584568-.520358-3.331897-1.425781-4.789062-.274897-.442412-.598274-.860811-.958985-1.236328 2.315219-.457379 4.21713-1.275398 5.697266-2.419922 1.124324-.86939 1.975088-1.933873 2.570312-3.126953zm-14.183593 6.072265h2.800781c.812821 0 1.680423.647791 2.375 1.765625.694577 1.117835 1.125 2.618943 1.125 3.734375v5.798829c-1.602592.390796-3.27621.601562-5 .601562s-3.397408-.210766-5-.601562v-5.798829c0-1.09074.467828-2.588302 1.208984-3.710937.741157-1.122635 1.677414-1.789063 2.490235-1.789063zm-11.390625 1.181641c.865774.898008 1.913931 1.71875 3.492187 1.71875.779167 0 1.751703.028073 2.675781-.054688.003286-.000294.00648-.001658.009766-.001953-.121748.350002-.212584.70217-.289062 1.056641h-2.796875c-1.233334 0-2.104621-.44557-2.50586-1.248047l-.007812-.013672-.00586-.011719c-.164402-.305371-.380214-.915972-.572265-1.445312z"/></svg>