<svg fill="#666" height="50" viewBox="0 0 50 50" width="50" xmlns="http://www.w3.org/2000/svg"><path d="m18 3.980469-8 4.457031v8.109375l-7 3.863281v9.179688l7 3.875v8.128906l8.015625 4.375 6.980469-3.828125 7.003906 3.875 8-4.425781v-8.136719l7-3.863281v-9.179688l-.515625-.285156-7.484375-4.125-7 3.859375-6-3.324219v-8.097656l-.515625-.285156zm0 2.289062 6 3.339844v6.925781l-6 3.324219-6-3.3125v-6.933594zm0 2.238282-4 2.230468v4.609375l4 2.246094 4-2.246094v-4.609375l-.515625-.285156zm0 2.289062 2 1.113281v2.265625l-2 1.121094-2-1.121094v-2.265625zm7.007813 7.472656 5.992187 3.320313v6.820312l-5.976562 3.335938-6.023438-3.335938v-6.820312zm-14.007813.007813 6 3.3125v6.816406l-6.007812 3.324219-5.992188-3.320313v-6.820312zm28 .003906 6 3.308594v6.820312l-6 3.3125-2.035156-1.125-3.964844-2.191406v-6.816406zm-28 2.175781-4 2.230469v4.609375l4 2.246094 4-2.246094v-4.609375l-.515625-.285156zm14 0-4 2.230469v4.609375l4 2.246094 4-2.246094v-4.609375l-.515625-.285156zm14 0-4 2.230469v4.609375l4 2.246094 4-2.246094v-4.609375l-.515625-.285156zm-28 2.292969 2 1.109375v2.269531l-2 1.121094-2-1.121094v-2.265625zm14 0 2 1.109375v2.269531l-2 1.121094-2-1.121094v-2.265625zm14 0 2 1.109375v2.269531l-2 1.121094-2-1.121094v-2.265625zm-21 7.390625 6 3.328125v6.9375l-5.984375 3.28125-6.015625-3.28125v-6.941406zm14 .003906 6 3.308594v6.957031l-6 3.324219-6-3.324219.011719-6.921875zm-14 2.265625-4 2.226563v4.613281l4 2.242188 4-2.242188v-4.613281l-.515625-.285156zm14 0-4 2.226563v4.613281l4 2.242188 4-2.242188v-4.613281l-.515625-.285156zm-14 2.289063 2 1.113281v2.265625l-2 1.121094-2-1.121094v-2.265625zm14 0 2 1.113281v2.265625l-2 1.121094-2-1.121094v-2.265625z"/></svg>