<svg fill="#666" height="50" viewBox="0 0 50 50" width="50" xmlns="http://www.w3.org/2000/svg"><path d="m5 7c-2.75 0-5 2.25-5 5v26c0 2.75 2.25 5 5 5h40c2.75 0 5-2.25 5-5v-26c0-2.75-2.25-5-5-5zm0 2h40c1.667969 0 3 1.332031 3 3v26c0 1.667969-1.332031 3-3 3h-40c-1.667969 0-3-1.332031-3-3v-26c0-1.667969 1.332031-3 3-3zm12 4c-6.617187 0-12 5.382813-12 12 0 6.617188 5.382813 12 12 12 3.078125 0 5.875-1.183594 8-3.09375 2.125 1.910156 4.925781 3.09375 8 3.09375 6.617188 0 12-5.382812 12-12 0-6.617187-5.382812-12-12-12-3.074219 0-5.875 1.183594-8 3.09375-2.125-1.910156-4.921875-3.09375-8-3.09375zm0 2c.785156 0 1.550781.109375 2.28125.28125-.179687.179688-.28125.441406-.28125.71875 0 .550781.449219 1 1 1s1-.449219 1-1c0-.058594-.023437-.101562-.03125-.15625 1.089844.476563 2.089844 1.125 2.9375 1.9375.078125.394531.386719.703125.78125.78125.621094.746094 1.117188 1.589844 1.5 2.5-.066406-.015625-.117187-.0625-.1875-.0625-.550781 0-1 .449219-1 1s.449219 1 1 1c.277344 0 .539063-.101562.71875-.28125.167969.738281.28125 1.492188.28125 2.28125 0 .789063-.109375 1.542969-.28125 2.28125-.179687-.179687-.441406-.28125-.71875-.28125-.550781 0-1 .449219-1 1s.449219 1 1 1c.066406 0 .125-.019531.1875-.03125-.390625.902344-.910156 1.726563-1.53125 2.46875-.382812.089844-.675781.394531-.75.78125-.859375.824219-1.855469 1.492188-2.96875 1.96875.015625-.066406.0625-.117187.0625-.1875 0-.550781-.449219-1-1-1s-1 .449219-1 1c0 .292969.113281.566406.3125.75-.742187.175781-1.519531.25-2.3125.25s-1.570312-.074219-2.3125-.25c.199219-.183594.3125-.457031.3125-.75 0-.550781-.449219-1-1-1s-1 .449219-1 1c0 .070313.046875.121094.0625.1875-2.363281-1.007812-4.242187-2.886719-5.25-5.25.066406.015625.117188.0625.1875.0625.550781 0 1-.449219 1-1s-.449219-1-1-1c-.292969 0-.566406.113281-.75.3125-.175781-.742187-.25-1.519531-.25-2.3125s.074219-1.570312.25-2.3125c.183594.199219.457031.3125.75.3125.550781 0 1-.449219 1-1s-.449219-1-1-1c-.070312 0-.121094.046875-.1875.0625 1.007813-2.363281 2.886719-4.242187 5.25-5.25-.015625.066406-.0625.117188-.0625.1875 0 .550781.449219 1 1 1s1-.449219 1-1c0-.292969-.113281-.566406-.3125-.75.742188-.175781 1.519531-.25 2.3125-.25zm16 0c5.535156 0 10 4.464844 10 10s-4.464844 10-10 10c-2.554687 0-4.890625-.933594-6.65625-2.5 1.652344-2.058594 2.65625-4.664062 2.65625-7.5 0-2.835937-1.003906-5.441406-2.65625-7.5 1.765625-1.566406 4.101563-2.5 6.65625-2.5zm-22 3c-.550781 0-1 .449219-1 1s.449219 1 1 1 1-.449219 1-1-.449219-1-1-1zm6 0c-.550781 0-1 .449219-1 1s.449219 1 1 1 1-.449219 1-1-.449219-1-1-1zm6 0c-.550781 0-1 .449219-1 1s.449219 1 1 1 1-.449219 1-1-.449219-1-1-1zm-9 3c-.550781 0-1 .449219-1 1s.449219 1 1 1 1-.449219 1-1-.449219-1-1-1zm6 0c-.550781 0-1 .449219-1 1s.449219 1 1 1 1-.449219 1-1-.449219-1-1-1zm-9 3c-.550781 0-1 .449219-1 1s.449219 1 1 1 1-.449219 1-1-.449219-1-1-1zm6 0c-.550781 0-1 .449219-1 1s.449219 1 1 1 1-.449219 1-1-.449219-1-1-1zm6 0c-.550781 0-1 .449219-1 1s.449219 1 1 1 1-.449219 1-1-.449219-1-1-1zm-9 3c-.550781 0-1 .449219-1 1s.449219 1 1 1 1-.449219 1-1-.449219-1-1-1zm6 0c-.550781 0-1 .449219-1 1s.449219 1 1 1 1-.449219 1-1-.449219-1-1-1zm-9 3c-.550781 0-1 .449219-1 1s.449219 1 1 1 1-.449219 1-1-.449219-1-1-1zm6 0c-.550781 0-1 .449219-1 1s.449219 1 1 1 1-.449219 1-1-.449219-1-1-1zm6 0c-.550781 0-1 .449219-1 1s.449219 1 1 1 1-.449219 1-1-.449219-1-1-1z"/></svg>