<svg fill="#666" height="50" viewBox="0 0 50 50" width="50" xmlns="http://www.w3.org/2000/svg"><path d="m16.28125 6c-.160156.035156-.3125.109375-.4375.21875l-10.21875 7.84375c-.382812.152344-.628906.527344-.625.9375v28c0 .550781.449219 1 1 1h30 .03125c.0625-.003906.125-.015625.1875-.03125.03125-.007812.0625-.019531.09375-.03125.25-.074219.464844-.242187.59375-.46875l7.875-9.84375c.140625-.175781.21875-.398437.21875-.625v-25.8125c.058594-.335937-.0625-.675781-.3125-.90625-.007812-.019531-.019531-.042969-.03125-.0625-.011719 0-.019531 0-.03125 0-.019531-.023437-.039062-.042969-.0625-.0625-.011719 0-.019531 0-.03125 0-.050781-.035156-.101562-.066406-.15625-.09375-.089844-.035156-.183594-.054687-.28125-.0625-.03125 0-.0625 0-.09375 0h-27.53125c-.03125 0-.0625 0-.09375 0s-.0625 0-.09375 0zm.5 2h10.59375l-6.75 6h-11.6875zm13.59375 0h11.1875l-6 6h-11.9375zm12.625 1.4375v23.21875l-6 7.5v-24.71875zm-36 6.5625h13.625c.191406.058594.402344.058594.59375 0h13.78125v26h-28zm8.8125 4c-.550781.050781-.957031.542969-.90625 1.09375s.542969.957031 1.09375.90625h10c.359375.003906.695313-.183594.878906-.496094.179688-.3125.179688-.695312 0-1.007812-.183593-.3125-.519531-.5-.878906-.496094h-10c-.03125 0-.0625 0-.09375 0s-.0625 0-.09375 0z"/></svg>