<svg fill="#666" height="50" viewBox="0 0 50 50" width="50" xmlns="http://www.w3.org/2000/svg"><path d="m7 2v46h36v-32.589844l-13.816406-13.410156zm2 2h19v13h13v29h-32zm21 1.578125 9.707031 9.421875h-9.707031zm-13.730469 17.421875c-.78125 0-1.613281.058594-2.269531.191406v9.808594h2v-4.136719h.304688c.957031 0 1.402343.414063 1.632812 1.714844.191406 1.164063.457031 2.140625.597656 2.421875h1.96875c-.191406-.34375-.476562-1.402344-.722656-2.613281-.25-1.183594-.675781-1.847656-1.527344-2.101563v-.023437c1.203125-.460938 1.878907-1.363281 1.878907-2.511719 0-.828125-.230469-1.492187-.902344-2.027344-.691406-.546875-1.71875-.722656-2.960938-.722656zm16 0c-.78125 0-1.613281.058594-2.269531.191406v9.808594h2v-4.136719h.304688c.957031 0 1.398437.414063 1.628906 1.714844.195312 1.164063.460937 2.140625.601562 2.421875h1.96875c-.191406-.34375-.476562-1.402344-.722656-2.613281-.25-1.183594-.675781-1.847656-1.527344-2.101563v-.023437c1.207032-.460938 1.878907-1.363281 1.878907-2.511719 0-.828125-.230469-1.492187-.902344-2.027344-.691406-.546875-1.71875-.722656-2.960938-.722656zm-7.949218.046875-2.660157 9.953125h1.84375l.636719-2.585937h2.375l.640625 2.585937h1.84375l-2.464844-9.953125zm-7.804688 1.195313c1.226563.015625 1.484375.679687 1.484375 1.652343 0 1.019532-.488281 1.757813-1.625 1.757813h-.375v-3.351563c.160156-.042968.269531-.058593.515625-.058593zm16 0c1.222656.015625 1.703125.679687 1.703125 1.652343 0 1.019532-.707031 1.757813-1.84375 1.757813h-.375v-3.351563c.15625-.042968.269531-.058593.515625-.058593zm-7.1875.757812h.058594c.121094.695313.9375 4 .9375 4h-1.96875s.851562-3.304687.972656-4z"/></svg>