<svg fill="#666" height="50" viewBox="0 0 50 50" width="50" xmlns="http://www.w3.org/2000/svg"><path d="m20.4375 18c-1.449219 0-2.761719.605469-3.75 1.59375-.003906 0-.167969.164063-.1875.1875-1.402344 1.464844-5.574219 5.21875-9 5.21875-2.425781 0-4.910156-.5-6.46875-4 0 0-1.371094 11 12.03125 11 4.859375 0 8.535156-.996094 10.9375-3.375.289063-.257812.546875-.558594.78125-.875v-.03125c.078125-.109375.144531-.230469.21875-.34375.074219.113281.140625.234375.21875.34375v.03125c.234375.316406.492188.617188.78125.875 2.402344 2.378906 6.078125 3.375 10.9375 3.375 13.402344 0 12.03125-11 12.03125-11-1.558594 3.5-4.042969 4-6.46875 4-3.425781 0-7.597656-3.75-9-5.21875-.019531-.023437-.183594-.1875-.1875-.1875-.988281-.988281-2.300781-1.59375-3.75-1.59375-1.878906 0-3.558594 1.019531-4.5625 2.5625-1.003906-1.542969-2.683594-2.5625-4.5625-2.5625zm0 2c1.957031 0 3.5625 1.792969 3.5625 4 0 .9375-.277344 1.835938-.8125 2.5625l-.0625.0625c-.148437.191406-.300781.351563-.46875.5l-.0625.0625c-1.902344 1.882813-5.023437 2.8125-9.53125 2.8125-3.777344 0-6.527344-.953125-8.1875-2.8125-.167969-.191406-.328125-.363281-.46875-.5625 1.09375.316406 2.15625.375 3.09375.375 4.628906 0 9.527344-4.859375 10.46875-5.84375l.15625-.15625c.652344-.652344 1.453125-1 2.3125-1zm9.125 0c.859375 0 1.660156.347656 2.3125 1l.15625.125c.011719.011719-.007812.023438 0 .03125.929688.972656 5.839844 5.84375 10.46875 5.84375.933594 0 2-.058594 3.09375-.375-.140625.199219-.300781.375-.46875.5625-1.65625 1.859375-4.410156 2.8125-8.1875 2.8125-4.507812 0-7.628906-.929687-9.53125-2.8125l-.0625-.0625c-.160156-.144531-.304687-.289062-.46875-.5l-.0625-.0625c-.535156-.726562-.8125-1.625-.8125-2.5625 0-2.207031 1.605469-4 3.5625-4z"/></svg>