<svg fill="#666" height="50" viewBox="0 0 50 50" width="50" xmlns="http://www.w3.org/2000/svg"><path d="m36.78125 4.03125c-.292969.03125-.554687.191406-.71875.4375l-12.15625 17.53125c-.082031.121094-.132812.261719-.15625.40625-.0625.335938-.085937.671875-.0625 1-3.699219.390625-6.242187 1.800781-7.96875 3.8125-1.875 2.1875-2.8125 4.957031-3.65625 7.71875s-1.597656 5.53125-2.9375 7.84375-3.1875 4.1875-6.4375 5.28125c-.449219.164063-.714844.625-.640625 1.097656.078125.472657.476563.824219.953125.839844 10.371094 0 17.929688-.648437 23.09375-3.5625 4.964844-2.800781 7.414063-7.800781 7.59375-15.5625.105469-.011719.210938-.011719.3125-.03125.292969-.054687.542969-.238281.6875-.5l13.15625-24.8125c.257813-.492187.070313-1.101562-.421875-1.359375-.492187-.257812-1.101562-.070312-1.359375.421875l-12.8125 24.21875c-1.160156.039063-3.191406-.585937-4.84375-1.8125-.898437-.667969-1.675781-1.460937-2.15625-2.21875-.457031-.722656-.578125-1.351562-.5-1.90625l11.9375-17.25c.238281-.320312.265625-.746094.070313-1.09375-.199219-.34375-.582032-.542969-.976563-.5zm-12.46875 21.3125c.085938.164063.152344.34375.25.5.65625 1.039063 1.601563 1.96875 2.65625 2.75 1.382813 1.027344 2.949219 1.828125 4.46875 2.15625-.144531 7.398438-2.222656 11.472656-6.59375 13.9375-3.785156 2.136719-9.972656 2.863281-17.75 3.09375 1.488281-1.144531 2.636719-2.507812 3.5-4 1.519531-2.621094 2.292969-5.53125 3.125-8.25s1.742188-5.207031 3.28125-7c1.472656-1.71875 3.527344-2.910156 7.0625-3.1875z"/></svg>