<svg fill="#666" height="50" viewBox="0 0 50 50" width="50" xmlns="http://www.w3.org/2000/svg"><path d="m7.90625 1.96875c-.042969.007813-.085937.019531-.125.03125-.464844.105469-.792969.523438-.78125 1v7h-2c-1.644531 0-3 1.355469-3 3v2c0 1.644531 1.355469 3 3 3h6c1.644531 0 3-1.355469 3-3v-2c0-1.644531-1.355469-3-3-3h-2v-7c.011719-.289062-.105469-.566406-.3125-.761719-.210937-.199218-.496094-.296875-.78125-.269531zm17 0c-.042969.007813-.085937.019531-.125.03125-.464844.105469-.792969.523438-.78125 1v28h-2c-1.644531 0-3 1.355469-3 3v2c0 1.644531 1.355469 3 3 3h6c1.644531 0 3-1.355469 3-3v-2c0-1.644531-1.355469-3-3-3h-2v-28c.011719-.289062-.105469-.566406-.3125-.761719-.210937-.199218-.496094-.296875-.78125-.269531zm17 0c-.042969.007813-.085937.019531-.125.03125-.464844.105469-.792969.523438-.78125 1v10h-2c-1.644531 0-3 1.355469-3 3v2c0 1.644531 1.355469 3 3 3h6c1.644531 0 3-1.355469 3-3v-2c0-1.644531-1.355469-3-3-3h-2v-10c.011719-.289062-.105469-.566406-.3125-.761719-.210937-.199218-.496094-.296875-.78125-.269531zm-36.90625 10.03125h6c.566406 0 1 .433594 1 1v2c0 .566406-.433594 1-1 1h-6c-.566406 0-1-.433594-1-1v-2c0-.566406.433594-1 1-1zm34 3h6c.566406 0 1 .433594 1 1v2c0 .566406-.433594 1-1 1h-6c-.566406 0-1-.433594-1-1v-2c0-.566406.433594-1 1-1zm-32 4v6.8125c-.007812.0625-.007812.125 0 .1875v21c-.003906.359375.183594.695313.496094.878906.3125.179688.695312.179688 1.007812 0 .3125-.183593.5-.519531.496094-.878906v-21c.007813-.0625.007813-.125 0-.1875v-6.8125zm34 3v6.8125c-.007812.0625-.007812.125 0 .1875v18c-.003906.359375.183594.695313.496094.878906.3125.179688.695312.179688 1.007812 0 .3125-.183593.5-.519531.496094-.878906v-18c.007813-.0625.007813-.125 0-.1875v-6.8125zm-19 11h6c.566406 0 1 .433594 1 1v2c0 .566406-.433594 1-1 1h-6c-.566406 0-1-.433594-1-1v-2c0-.566406.433594-1 1-1zm2 7v1.8125c-.007812.0625-.007812.125 0 .1875v5c-.003906.359375.183594.695313.496094.878906.3125.179688.695312.179688 1.007812 0 .3125-.183593.5-.519531.496094-.878906v-5c.007813-.0625.007813-.125 0-.1875v-1.8125z"/></svg>