<svg fill="#666" height="50" viewBox="0 0 50 50" width="50" xmlns="http://www.w3.org/2000/svg"><path d="m28 3.59375v10.46875c-14.136719.351563-21.375 7.679688-24.78125 15-3.445313 7.398438-3.2265625 14.648438-3.21875 14.84375v.03125.09375l2 .03125s.320313-4.417969 3.8125-8.9375c3.390625-4.386719 9.847656-8.777344 22.1875-9.03125v10.3125l1.59375-1.21875 19-14.375 1.0625-.8125-1.0625-.8125-19-14.375zm2 4.03125 16.34375 12.375-16.34375 12.375v-8.375h-1c-13.550781 0-20.929687 4.894531-24.78125 9.875-.5.644531-.800781 1.269531-1.1875 1.90625.449219-1.863281 1.054688-3.8125 2-5.84375 3.257813-7 9.800781-13.9375 23.96875-13.9375h1z"/></svg>