<svg fill="#666" height="50" viewBox="0 0 50 50" width="50" xmlns="http://www.w3.org/2000/svg"><path d="m20 16c-2.84375 0-6.355469 1.308594-9.875 2.6875-3.457031 1.355469-6.890625 2.8125-9.1875 3.3125-.007812.003906-.023437-.003906-.03125 0-.03125 0-.0625 0-.09375 0-.136719.035156-.265625.097656-.375.1875-.019531.007813-.042969.019531-.0625.03125-.035156.027344-.066406.058594-.09375.09375-.019531.007813-.042969.019531-.0625.03125v.03125c-.023437.019531-.042969.039063-.0625.0625v.03125c-.039062.058594-.0703125.121094-.09375.1875-.0117187.011719-.0195312.019531-.03125.03125v.0625c-.015625.050781-.0234375.101563-.03125.15625v.03125.0625.03125.0625.03125.0625c.0117188.011719.0195313.019531.03125.03125v.0625c.0078125.019531.0195313.042969.03125.0625.0078125.019531.0195313.042969.03125.0625v.03125l.03125.03125c.007813.019531.019531.042969.03125.0625v.03125l.03125.03125.03125.03125c.007813.019531.019531.042969.03125.0625.019531.011719.042969.023438.0625.03125v.03125c.019531.011719.042969.023438.0625.03125l.03125.03125c.019531.011719.042969.023438.0625.03125l.03125.03125h.03125l.03125.03125c.019531.011719.042969.023438.0625.03125 2.0625.832031 5.15625 4.035156 9.09375 7.09375s8.90625 5.96875 15.28125 5.96875 11.375-2.90625 15.3125-5.96875 7.011719-6.265625 9.0625-7.09375c.042969-.019531.085938-.039062.125-.0625.03125-.007812.0625-.019531.09375-.03125.457031-.222656.671875-.75.503906-1.230469-.164062-.476562-.664062-.753906-1.160156-.644531-2.277344-.492187-5.660156-1.910156-9.0625-3.25-3.523437-1.386719-7.039062-2.71875-9.875-2.71875-1.332031 0-2.628906.5625-3.6875 1.09375-.742187.371094-1.011719.558594-1.3125.75-.300781-.191406-.570312-.378906-1.3125-.75-1.058594-.53125-2.355469-1.09375-3.6875-1.09375zm0 2c.664063 0 1.871094.4375 2.8125.90625s1.625.9375 1.625.9375c.339844.230469.785156.230469 1.125 0 0 0 .683594-.46875 1.625-.9375s2.148438-.90625 2.8125-.90625c2.160156 0 5.671875 1.191406 9.15625 2.5625 2.261719.890625 4.417969 1.730469 6.4375 2.40625-4.246094 1.160156-12.332031 3.03125-20.59375 3.03125-8.300781 0-16.425781-1.871094-20.65625-3.03125 2.039063-.6875 4.222656-1.542969 6.5-2.4375 3.480469-1.363281 6.972656-2.53125 9.15625-2.53125zm-13.71875 7.5c4.640625 1.144531 11.566406 2.5 18.71875 2.5 7.183594 0 14.140625-1.351562 18.78125-2.5-1.441406 1.25-2.992187 2.625-4.71875 3.96875-3.777344 2.9375-8.289062 5.53125-14.0625 5.53125-5.773437 0-10.285156-2.597656-14.0625-5.53125-1.714844-1.332031-3.226562-2.722656-4.65625-3.96875z"/></svg>