<svg fill="#666" height="50" viewBox="0 0 50 50" width="50" xmlns="http://www.w3.org/2000/svg"><path d="m25 2c-12.690705 0-23 10.309295-23 23s10.309295 23 23 23 23-10.309295 23-23-10.309295-23-23-23zm0 2c11.609824 0 21 9.390176 21 21s-9.390176 21-21 21-21-9.390176-21-21 9.390176-21 21-21zm-4 6v3h-5v24h5v3h2v-3h2v3h2v-3.009766c2.298221-.065031 7.800781-.709186 7.800781-6.791015 0-4.2-3.601562-5.598828-5.101562-5.798828v-.09961c.7-.2 4.201172-1.30039 4.201172-5.40039 0-5.114513-4.844057-5.788958-6.900391-5.878907v-3.021484h-2v3h-2v-3zm-2.699219 4.900391h7.898438c3.6 0 5.40039 1.5 5.40039 4.5 0 .6-.098828 1.099609-.298828 1.599609s-.6.900781-1 1.300781c-.5.4-1.001172.698438-1.701172.898438s-1.50039.300781-2.40039.300781h-7.898438zm0 10.599609h7.898438c2 0 3.601172.399219 4.701172 1.199219s1.599609 2 1.599609 3.5c0 1-.2 1.80039-.5 2.40039-.4.6-.800391 1.1-1.400391 1.5s-1.2.700782-2 .800782c-.7.1-1.50039.199218-2.40039.199218h-7.898438z"/></svg>