<svg fill="#666" height="50" viewBox="0 0 50 50" width="50" xmlns="http://www.w3.org/2000/svg"><path d="m42.011719 1.984375c-4.296875 0-8.914063.375-12.601563 2.070313-3.683593 1.691406-6.410156 4.925781-6.410156 10.007812 0 3.484375 1.792969 6.132813 2.324219 6.851563-.402344 1.21875-.722656 2.449218-.933594 3.671875-.71875-1.03125-1.632812-2.027344-2.660156-2.96875 0-.027344 0-.054688.003906-.082032 0 0 .027344-2.527343-.957031-5.113281-.496094-1.292969-1.25-2.628906-2.445313-3.667969-1.195312-1.035156-2.84375-1.726562-4.894531-1.726562-5.183594 0-9.882812 3.078125-9.882812 3.078125-.371094.238281-.542969.691406-.421875 1.113281 0 0 .675781 2.386719 2.203125 4.792969 1.527343 2.402344 4.03125 4.988281 7.664062 4.988281 2.492188 0 4.46875-1.113281 4.46875-1.113281.328125-.164063.539063-.496094.550781-.859375.007813-.367188-.179687-.707031-.492187-.894531-.316406-.183594-.707031-.183594-1.019531.003906 0 0-1.617188.863281-3.507813.863281-2.679687 0-4.625-1.9375-5.976562-4.0625-.957032-1.511719-1.429688-2.746094-1.691407-3.496094.914063-.53125 4.289063-2.414062 8.105469-2.414062 1.621094 0 2.722656.492187 3.585938 1.238281.863281.75 1.46875 1.785156 1.882812 2.871094.371094.96875.558594 1.929687.671875 2.71875-2.605469-1.917969-5.625-3.394531-8.421875-3.84375-.0625-.011719-.128906-.015625-.199219-.011719-.519531.007813-.945312.417969-.972656.9375-.03125.523438.339844.976563.859375 1.050781 2.722656.4375 6.132813 2.214844 8.765625 4.421875 2.164063 1.820313 3.71875 3.941407 4.210938 5.589844h-20.820313c-.550781 0-1 .449219-1 1 0 7.605469 4.527344 14.105469 11 17.140625v.859375c0 1.09375.90625 2 2 2h20c1.09375 0 2-.90625 2-2v-.859375c6.472656-3.035156 11-9.535156 11-17.140625 0-.550781-.449219-1-1-1h-20.96875c.296875-6.914062 3.71875-14.695312 11.464844-19.132812.410156-.226563.605469-.707032.476562-1.15625-.132812-.449219-.558593-.746094-1.023437-.71875-.160156.011718-.308594.058593-.445313.140625-4.96875 2.84375-8.308593 6.960937-10.277343 11.410156-.578125-1.097656-1.226563-2.703125-1.226563-4.480469 0-4.414062 2.046875-6.722656 5.246094-8.195312 2.851562-1.308594 6.652344-1.710938 10.398437-1.796875-.28125 1.125-.363281 2.222656-.222656 3.25.207031 1.492187.578125 2.914062.578125 4.589843 0 4.597657-2.863281 6.984375-5.921875 8.410157-3.058594 1.425781-6.15625 1.683593-6.15625 1.683593-.367187.015625-.699219.230469-.859375.558594s-.128906.71875.082031 1.019531c.210938.300782.570313.457032.933594.414063 0 0 3.402344-.257813 6.84375-1.863281 3.441406-1.605469 7.078125-4.761719 7.078125-10.222657 0-1.964843-.414062-3.542968-.597656-4.867187s-.183594-2.339844.488281-3.585938c.167969-.308593.160156-.683593-.019531-.988281-.179688-.300781-.507813-.488281-.859375-.484375zm-37.863281 28.015625h20.683593c.109375.019531.21875.019531.324219 0h20.691406c-.394531 6.601563-4.433593 12.214844-10.238281 14.667969-.367187.15625-.609375.519531-.609375.921875v1.410156h-20v-1.410156c0-.402344-.242187-.765625-.609375-.921875-5.804687-2.453125-9.84375-8.066406-10.242187-14.667969z"/></svg>