<svg fill="#666" height="50" viewBox="0 0 50 50" width="50" xmlns="http://www.w3.org/2000/svg"><path d="m27.40625 9.59375c-1.710937 0-3.300781.320313-4.75 1.09375v.03125c-.007812.003906-.023437-.003906-.03125 0-1.359375.6875-2.851562 1.839844-3.71875 3.0625-.007812.011719-.023437.019531-.03125.03125-.457031.601563-.644531.8125-.71875.90625-1.972656-.742187-4.296875-.980469-6.28125-.28125-3.523437 1.136719-6.074219 4.507813-6.1875 8.34375v.03125c0 .210938-.011719.390625-.03125.5625-.058594.03125-.03125.015625-.09375.03125-.011719.011719-.019531.019531-.03125.03125-2.082031.546875-3.84375 1.878906-4.8125 3.78125h-.03125c-.019531.027344-.011719.066406-.03125.09375-.011719.027344-.050781.035156-.0625.0625-.242187.367188-.453125.773438-.53125 1.21875-.0859375.507813-.0625 1.011719-.0625 1.8125 0 .851563-.0234375 1.363281.0625 1.875.082031.488281.285156.890625.53125 1.34375.007813.019531.019531.042969.03125.0625.957031 1.984375 2.84375 3.597656 4.90625 4.09375.007813.003906.023438-.003906.03125 0 .261719.070313.402344.074219.65625.09375.265625.019531.605469.046875.96875.0625.722656.027344 1.609375.019531 2.46875.03125 1.722656.023438 3.34375.03125 3.34375.03125h.03125c.835938.875 1.910156 1.523438 3.1875 1.875.039063.011719.082031.023438.125.03125.582031.082031 1.53125.082031 3.875.09375s5.96875 0 11.46875 0h14.3125c.152344 0 .300781-.03125.4375-.09375l.625-.3125c1.777344-.890625 2.714844-2.75 2.9375-4.875 0-.019531 0-.042969 0-.0625.109375-1.601562-.167969-3.019531-.90625-4.1875s-1.914062-2.023437-3.375-2.53125l-.28125-.09375-.03125-.53125c-.324219-3.640625-3.070312-6.265625-6.4375-6.84375-.089844-1.03125-.382812-1.988281-.71875-3-1.632812-4.679687-5.910156-7.875-10.84375-7.875zm0 2c4.066406 0 7.570313 2.613281 8.9375 6.53125.292969.875.5 1.574219.59375 2.25-.746094.054688-1.496094.203125-2.25.46875-.011719.003906-.019531-.003906-.03125 0l-.28125.09375-.65625-.625c-.007812-.007812-.023437.007813-.03125 0-1.992187-2.089844-3.847656-2.90625-6.6875-2.90625-1.972656 0-3.089844.261719-4.75 1.09375-.011719 0-.019531 0-.03125 0-1.816406.96875-3.289062 2.960938-4.15625 5.4375-.003906.007813.003906.023438 0 .03125-.214844.542969-.324219.9375-.34375 1.40625-.0625.03125-.292969.128906-.71875.25-.03125.007813-.027344-.007812-.0625 0v.03125c-2.5.5625-4.574219 1.976563-5.4375 4.03125-.003906.011719-.027344.019531-.03125.03125-.328125.777344-.46875 1.539063-.46875 2.6875 0 1.332031.25 2.535156.71875 3.59375-.625-.003906-.988281-.015625-2.03125-.03125-.851562-.011719-1.746094-.035156-2.4375-.0625-.347656-.015625-.652344-.015625-.875-.03125s-.421875-.0625-.3125-.03125c-.011719-.011719-.019531-.019531-.03125-.03125-1.308594-.308594-2.976562-1.652344-3.625-3.03125-.007812-.019531-.019531-.042969-.03125-.0625-.234375-.421875-.273437-.542969-.3125-.78125-.039062-.238281-.0625-.679687-.0625-1.53125 0-.800781.023438-1.25.0625-1.46875.039063-.21875.039063-.269531.25-.5625.035156-.050781.066406-.101562.09375-.15625.652344-1.386719 1.988281-2.40625 3.625-2.84375.011719-.003906.019531.003906.03125 0 .570313-.144531.917969-.324219 1.25-.65625.164063-.167969.261719-.390625.28125-.625.007813-.007812.027344-.058594.03125-.09375.007813-.066406.015625-.164062.03125-.28125.027344-.226562.0625-.535156.0625-.875 0-.011719 0-.019531 0-.03125.101563-2.949219 2.113281-5.578125 4.78125-6.4375l.03125-.03125c1.351563-.476562 3.320313-.34375 4.90625.25.03125.011719.0625.019531.09375.03125.136719.070313.273438.171875.5625.21875.335938.054688.804688-.0625 1.0625-.25.515625-.375.742188-.792969 1.34375-1.59375l.03125-.03125c.527344-.757812 2.011719-1.960937 3.03125-2.46875h.03125c1.140625-.613281 2.339844-.90625 3.8125-.90625zm-.40625 7.8125c2.550781 0 3.480469.386719 5.28125 2.28125v.03125l1.09375 1.09375c.269531.273438.667969.367188 1.03125.25l.90625-.3125h.03125c3.953125-1.40625 7.699219.867188 8.0625 4.71875v.03125l.09375 1.1875c.03125.402344.304688.746094.6875.875l.875.28125h.03125c1.121094.394531 1.855469.960938 2.3125 1.6875.457031.726563.675781 1.691406.59375 2.96875v.03125c-.183594 1.65625-.828125 2.773438-1.84375 3.28125l-.40625.1875h-14.0625c-5.5 0-9.105469-.019531-11.4375-.03125-2.292969-.011719-3.382812-.046875-3.53125-.0625-2.464844-.707031-3.71875-2.445312-3.71875-5.5 0-1.039062.050781-1.292969.3125-1.90625l.03125-.03125c.535156-1.304687 2.011719-2.429687 4.0625-2.875.019531-.007812.042969-.019531.0625-.03125.574219-.15625 1.023438-.257812 1.46875-.5625.445313-.304687.78125-.976562.78125-1.5 0 .136719.0625-.421875.21875-.8125 0-.019531 0-.042969 0-.0625.726563-2.089844 2.050781-3.671875 3.21875-4.3125.011719-.007812.019531-.027344.03125-.03125 1.503906-.75 2.003906-.875 3.8125-.875z"/></svg>