<svg fill="#666" height="50" viewBox="0 0 50 50" width="50" xmlns="http://www.w3.org/2000/svg"><path d="m25 2c-4.851562 0-9.050781 2.90625-10.9375 7.0625-.640625-.0625-1.285156-.082031-1.9375-.03125-.925781.074219-1.832031.269531-2.75.59375-5.730469 2.019531-8.769531 8.332031-6.75 14.0625 1.007813 2.863281 3.328125 5.894531 6.125 8.0625 2.492188 1.933594 5.445313 3.234375 8.25 2.71875l.15625 1.53125 1.34375-.625c.125.222656.230469.394531.375.65625.609375 1.109375 1.382813 2.527344 2.15625 4 .773438 1.472656 1.535156 2.996094 2.09375 4.28125s.875 2.441406.875 2.6875c-.007812.308594.128906.601563.367188.796875.234375.195313.550781.269531.851562.203125.101563-.027344.195313-.070312.28125-.125.019531-.007812.042969-.019531.0625-.03125.058594-.046875.109375-.097656.15625-.15625.074219-.0625.136719-.136719.1875-.21875.046875-.097656.078125-.203125.09375-.3125.003906-.050781.003906-.105469 0-.15625v-.375c.003906-.050781.003906-.105469 0-.15625 0-.011719.078125-.429687.25-.96875.171875-.539062.410156-1.226562.71875-2 .621094-1.550781 1.464844-3.453125 2.3125-5.3125s1.707031-3.683594 2.375-5.09375c.203125-.429687.335938-.746094.5-1.09375l1.28125.59375.1875-1.78125c2.675781.21875 5.433594-1.085937 7.78125-2.9375 2.832031-2.238281 5.152344-5.320312 6.15625-8.25 2.007813-5.859375-1.109375-12.273437-6.96875-14.28125-1.34375-.460937-2.722656-.644531-4.0625-.59375-1.117187.042969-2.210937.265625-3.25.625-2.15625-2.074219-5.0625-3.375-8.28125-3.375zm0 2c2.894531 0 5.488281 1.230469 7.3125 3.1875.039063.046875.078125.085938.125.125 1.589844 1.769531 2.5625 4.113281 2.5625 6.6875 0 2.765625-1.175781 6.507813-3.0625 9.4375-.828125 1.285156-1.761719 2.40625-2.78125 3.25-.007812.003906-.023437-.003906-.03125 0-.105469.054688-.203125.128906-.28125.21875-.035156.027344-.066406.058594-.09375.09375-.011719.007813-.019531.023438-.03125.03125-1.183594.875-2.457031 1.375-3.71875 1.375-.871094 0-1.75-.25-2.59375-.6875-1.605469-.832031-3.105469-2.359375-4.34375-4.28125-1.886719-2.929687-3.0625-6.671875-3.0625-9.4375 0-1.128906.1875-2.207031.53125-3.21875.011719-.03125.023438-.0625.03125-.09375.101563-.136719.167969-.300781.1875-.46875 0-.03125 0-.0625 0-.09375 1.507813-3.609375 5.085938-6.125 9.25-6.125zm11.59375 2.75c1.097656-.039062 2.238281.121094 3.34375.5 4.835938 1.65625 7.40625 6.882813 5.75 11.71875-.828125 2.417969-2.996094 5.339844-5.53125 7.34375s-5.34375 3.03125-7.53125 2.28125c-.570312-.195312-1.082031-.515625-1.5625-.9375.953125-.90625 1.816406-1.96875 2.5625-3.125 2.09375-3.25 3.375-7.222656 3.375-10.53125 0-2.609375-.859375-5.027344-2.28125-7 .617188-.152344 1.230469-.226562 1.875-.25zm-23.1875 4.25c-.25.964844-.40625 1.960938-.40625 3 0 3.308594 1.28125 7.28125 3.375 10.53125 1.167969 1.8125 2.617188 3.421875 4.28125 4.5-.828125 1.625-1.941406 2.796875-3.3125 3.28125-2.128906.75-4.878906-.21875-7.375-2.15625s-4.640625-4.769531-5.46875-7.125c-1.660156-4.710937.820313-9.871094 5.53125-11.53125 1.128906-.398437 2.253906-.554687 3.375-.5zm16.0625 17.9375c.246094.230469.507813.429688.78125.625l-1.03125 1.09375 1.125.53125c-.160156.332031-.304687.613281-.5 1.03125-.667969 1.410156-1.519531 3.25-2.375 5.125-.515625 1.128906-1.003906 2.257813-1.46875 3.34375v-8.6875h1.5l-.625-1.84375c.917969-.246094 1.777344-.671875 2.59375-1.21875zm-7.03125 1c.222656.082031.460938.15625.6875.21875l-.625 1.84375h1.5v9.4375c-.375-.773437-.785156-1.574219-1.1875-2.34375-.785156-1.496094-1.578125-2.921875-2.1875-4.03125-.117187-.210937-.179687-.34375-.28125-.53125l1.03125-.46875-1.125-1.21875c.890625-.789062 1.617188-1.777344 2.1875-2.90625z"/></svg>