<svg fill="#666" height="50" viewBox="0 0 50 50" width="50" xmlns="http://www.w3.org/2000/svg"><path d="m39 6c-1.789062 0-3.578125.671875-4.9375 2.03125l-19.84375 19.875c-.070312.054688-.132812.117188-.1875.1875-.023437.019531-.042969.039063-.0625.0625-.046875.039063-.085937.078125-.125.125v.03125c-1.738281 1.953125-1.683594 4.972656.1875 6.84375 1.941406 1.941406 5.121094 1.941406 7.0625 0l15.09375-15.125c.296875-.285156.386719-.726562.226563-1.105469-.15625-.378906-.535157-.621093-.945313-.613281-.261719.011719-.507812.121094-.6875.3125l-15.09375 15.09375c-1.175781 1.175781-3.074219 1.175781-4.25 0-1.136719-1.136719-1.15625-2.914062-.09375-4.09375.035156-.039062.066406-.082031.09375-.125.023438-.019531.042969-.039062.0625-.0625l.09375-.0625c0-.011719 0-.019531 0-.03125l19.90625-19.875c1.953125-1.953125 5.074219-1.957031 7.03125 0 1.953125 1.953125 1.953125 5.078125 0 7.03125l-24.625 24.625c-2.734375 2.734375-7.140625 2.734375-9.875 0s-2.734375-7.140625 0-9.875l19.6875-19.6875c.296875-.242187.433594-.628906.347656-1.003906-.085937-.371094-.378906-.664063-.75-.75-.375-.085938-.761718.050781-1.003906.347656l-19.6875 19.6875c-3.496094 3.496094-3.5 9.222656 0 12.71875s9.191406 3.496094 12.6875 0l24.65625-24.625c2.71875-2.71875 2.71875-7.1875 0-9.90625-1.359375-1.359375-3.179687-2.03125-4.96875-2.03125z"/></svg>