<svg fill="#666" height="50" viewBox="0 0 50 50" width="50" xmlns="http://www.w3.org/2000/svg"><path d="m21 0c-1.644531 0-3 1.355469-3 3v2h-7.8125c-.125-.023437-.25-.023437-.375 0h-1.8125c-.03125 0-.0625 0-.09375 0-.550781.027344-.980469.496094-.953125 1.046875s.496094.980469 1.046875.953125h1.09375l3.59375 40.5c.125 1.398438 1.316406 2.5 2.71875 2.5h19.1875c1.402344 0 2.59375-1.101562 2.71875-2.5l3.59375-40.5h1.09375c.359375.003906.695313-.183594.878906-.496094.179688-.3125.179688-.695312 0-1.007812-.183593-.3125-.519531-.5-.878906-.496094h-10v-2c0-1.644531-1.355469-3-3-3zm0 2h8c.5625 0 1 .4375 1 1v2h-10v-2c0-.5625.4375-1 1-1zm-9.90625 5h27.8125l-3.59375 40.34375c-.03125.347656-.402344.65625-.71875.65625h-19.1875c-.316406 0-.6875-.308594-.71875-.65625zm7.8125 2.96875c-.042969.007813-.085937.019531-.125.03125-.464844.105469-.792969.523438-.78125 1v33c-.003906.359375.183594.695313.496094.878906.3125.179688.695312.179688 1.007812 0 .3125-.183593.5-.519531.496094-.878906v-33c.011719-.289062-.105469-.566406-.3125-.761719-.210937-.199218-.496094-.296875-.78125-.269531zm6 0c-.042969.007813-.085937.019531-.125.03125-.464844.105469-.792969.523438-.78125 1v33c-.003906.359375.183594.695313.496094.878906.3125.179688.695312.179688 1.007812 0 .3125-.183593.5-.519531.496094-.878906v-33c.011719-.289062-.105469-.566406-.3125-.761719-.210937-.199218-.496094-.296875-.78125-.269531zm6 0c-.042969.007813-.085937.019531-.125.03125-.464844.105469-.792969.523438-.78125 1v33c-.003906.359375.183594.695313.496094.878906.3125.179688.695312.179688 1.007812 0 .3125-.183593.5-.519531.496094-.878906v-33c.011719-.289062-.105469-.566406-.3125-.761719-.210937-.199218-.496094-.296875-.78125-.269531z"/></svg>