<svg fill="#666" height="50" viewBox="0 0 50 50" width="50" xmlns="http://www.w3.org/2000/svg"><path d="m3 6c-1.644531 0-3 1.355469-3 3v32c0 1.644531 1.355469 3 3 3h42c1.644531 0 3-1.355469 3-3v-17c.003906-.359375-.183594-.695312-.496094-.878906-.3125-.179688-.695312-.179688-1.007812 0-.3125.183594-.5.519531-.496094.878906v17c0 .566406-.433594 1-1 1h-42c-.566406 0-1-.433594-1-1v-32c0-.566406.433594-1 1-1h11.1875c.265625 0 .5.09375.6875.28125l2.40625 2.4375c.191406.1875.453125.289063.71875.28125h15c.359375.003906.695313-.183594.878906-.496094.179688-.3125.179688-.695312 0-1.007812-.183593-.3125-.519531-.5-.878906-.496094h-14.5625l-2.15625-2.125c-.5625-.5625-1.296875-.875-2.09375-.875zm33.90625.96875c-.042969.007813-.085937.019531-.125.03125-.464844.105469-.792969.523438-.78125 1 0 7.167969 5.832031 13 13 13 .359375.003906.695313-.183594.878906-.496094.179688-.3125.179688-.695312 0-1.007812-.183593-.3125-.519531-.5-.878906-.496094-6.085937 0-11-4.914062-11-11 .011719-.289062-.105469-.566406-.3125-.761719-.210937-.199218-.496094-.296875-.78125-.269531zm4 0c-.042969.007813-.085937.019531-.125.03125-.464844.105469-.792969.523438-.78125 1 0 4.957031 4.042969 9 9 9 .359375.003906.695313-.183594.878906-.496094.179688-.3125.179688-.695312 0-1.007812-.183593-.3125-.519531-.5-.878906-.496094-3.878906 0-7-3.121094-7-7 .011719-.289062-.105469-.566406-.3125-.761719-.210937-.199218-.496094-.296875-.78125-.269531zm4 0c-.042969.007813-.085937.019531-.125.03125-.464844.105469-.792969.523438-.78125 1 0 2.75 2.25 5 5 5 .359375.003906.695313-.183594.878906-.496094.179688-.3125.179688-.695312 0-1.007812-.183593-.3125-.519531-.5-.878906-.496094-1.667969 0-3-1.332031-3-3 .011719-.289062-.105469-.566406-.3125-.761719-.210937-.199218-.496094-.296875-.78125-.269531zm4.09375.03125c-.550781 0-1 .449219-1 1s.449219 1 1 1 1-.449219 1-1-.449219-1-1-1z"/></svg>