<svg fill="#666" height="50" viewBox="0 0 50 50" width="50" xmlns="http://www.w3.org/2000/svg"><path d="m5.953125 4c-.511719 0-1.03125.1875-1.398437.554688-.367188.367187-.554688.886718-.554688 1.398437v38.09375c0 .507813.1875 1.03125.554688 1.398438.367187.367187.886718.554687 1.398437.554687h38.09375c.507813 0 1.03125-.1875 1.398438-.554687.367187-.367188.554687-.886719.554687-1.398438v-38.09375c0-.511719-.1875-1.03125-.554687-1.398437-.367188-.367188-.886719-.554688-1.398438-.554688zm.046875 2h38v38h-38zm18.511719 13.800781c-2.113281 0-3.195313 1.351563-3.195313 2.96875 0 .917969.527344 1.980469 1.90625 2.824219.855469.550781 1.304688.914063 1.304688 1.644531 0 .664063-.449219 1.140625-1.382813 1.140625-.566406 0-1.257812-.164062-1.660156-.390625l-.285156 1.699219c.328125.191406 1.121094.402344 1.933594.402344 1.980468 0 3.347656-1.214844 3.347656-3.058594 0-1.066406-.496094-2.085937-1.832031-2.894531-1.09375-.660156-1.394532-.976563-1.394532-1.574219 0-.542969.402344-1.050781 1.242188-1.050781.570312 0 1.007812.164062 1.289062.34375l.316407-1.695313c-.300782-.179687-.929688-.359375-1.589844-.359375zm5.160156.042969c-.75 0-1.5.078125-2.054687.199219v9.957031h1.964843v-3.765625h.390625c.808594 0 1.832032-.300781 2.460938-.957031.523437-.574219.851562-1.335938.851562-2.433594 0-.855469-.265625-1.691406-.867187-2.21875-.660156-.613281-1.574219-.78125-2.746094-.78125zm-11.546875.046875v6.976563c0 1.304687-.484375 1.527343-1.050781 1.527343-.257813 0-.453125-.011718-.648438-.070312l-.164062 1.648437c.222656.089844.585937.148438.988281.148438 1.441406 0 2.851563-.4375 2.851563-3.34375v-6.886719zm11.9375 1.546875c.914063 0 1.277344.6875 1.277344 1.574219 0 .945312-.453125 1.648437-1.445313 1.648437-.117187 0-.222656 0-.3125-.03125v-3.117187c.121094-.046875.300782-.074219.480469-.074219z"/></svg>