<svg fill="#666" height="50" viewBox="0 0 50 50" width="50" xmlns="http://www.w3.org/2000/svg"><path d="m24.984375 1.984375c-.550781.011719-.992187.464844-.984375 1.015625v22c-.003906.359375.183594.695313.496094.878906.3125.179688.695312.179688 1.007812 0 .3125-.183593.5-.519531.496094-.878906v-22c.003906-.269531-.101562-.53125-.292969-.722656-.191406-.191406-.453125-.296875-.722656-.292969zm-6.9375 1.15625c-.125-.003906-.25.015625-.363281.054688-9.117188 3.058593-15.683594 11.671875-15.683594 21.804687 0 12.691406 10.308594 23 23 23s23-10.308594 23-23c0-10.132812-6.566406-18.746094-15.683594-21.804687-.523437-.175782-1.089843.105468-1.265625.628906-.175781.523437.105469 1.089844.632813 1.269531 8.316406 2.789063 14.316406 10.636719 14.316406 19.90625 0 11.609375-9.390625 21-21 21s-21-9.390625-21-21c0-9.269531 6-17.117187 14.316406-19.90625.464844-.152344.753907-.609375.683594-1.09375-.066406-.480469-.46875-.84375-.953125-.859375z"/></svg>