<svg fill="#666" height="50" viewBox="0 0 50 50" width="50" xmlns="http://www.w3.org/2000/svg"><path d="m18.585938 3.0683594c-.866051.00991-1.670966.0971521-2.402344.2324218-2.925512.5410792-4.769531 1.8632813-4.769532 1.8632813a1.0001 1.0001 0 0 0 -.386718.5820313l-3.2382815 13.7714842a1.0001 1.0001 0 0 0 1.2128906 1.199219c3.4246929-.849011 8.5673159-1.232429 13.8867189 1.740234a1.0001 1.0001 0 0 0 1.457031-.625l3.796875-14.8847654a1.0001 1.0001 0 0 0 -.43164-1.0898437c-3.377725-2.1537857-6.526851-2.8188002-9.125-2.7890625zm.023437 1.9902344c.744518-.0115883 1.544008.0444479 2.392578.1953124 1.516563.269625 3.210546.9173719 5.007813 1.9667969l-3.316407 12.9999999c-4.722429-2.260045-9.206052-2.325811-12.611328-1.716797l2.792969-11.8808591c.340514-.2249522 1.507826-.9571769 3.671875-1.3574219.628434-.1162302 1.317982-.195443 2.0625-.2070312zm12.03125 3.1367187a1.0001 1.0001 0 0 0 -.945313.7519531l-3.773437 14.7929684a1.0001 1.0001 0 0 0 .384766 1.058594c6.654335 4.781154 13.476192 3.09453 16.314453 2.011719a1.0001 1.0001 0 0 0 .617187-.705078l3.734375-15.876953a1.0001 1.0001 0 0 0 -1.560547-1.0371098s-1.466198 1.0717628-4.007812 1.5371098c-2.541614.465346-6.066016.312869-10.193359-2.3710941a1.0001 1.0001 0 0 0 -.570313-.1621094zm.681641 2.4687495c4.05927 2.254916 7.751105 2.523821 10.441406 2.03125 1.171562-.214501 2.008404-.575306 2.789062-.908203l-3.128906 13.296875c-2.603566.916632-7.907852 1.962557-13.36914-1.617187zm-17.605469 11.457032c-2.742661.01872-5.0183818.682584-6.3710939 1.199218a1.0001 1.0001 0 0 0 -.6171875.705079l-3.7011718 15.746093a1.0001 1.0001 0 0 0 -.0273438.228516v.044922a1.0001 1.0001 0 0 0 1.5859375.810547s1.3777695-1.002946 3.7871094-1.484375c2.4093401-.481429 5.7567681-.424378 9.6933591 1.896484a1.0001 1.0001 0 0 0 1.478516-.615234l3.767578-14.771485a1.0001 1.0001 0 0 0 -.427734-1.089843c-3.215442-2.063026-6.425308-2.688639-9.167969-2.669922zm-.037109 1.992187c2.240793-.02177 4.848727.5552 7.490234 2.078125l-3.265625 12.798828c-3.879163-1.934466-7.379506-2.088479-9.9238282-1.580078-1.0702091.213847-1.8184346.546305-2.5449219.855469l3.109375-13.222656c1.2159996-.427554 2.9626411-.908589 5.1347661-.929688zm12.11914 2.96875a1.0001 1.0001 0 0 0 -.919922.751953l-3.773437 14.783204a1.0001 1.0001 0 0 0 .396484 1.066406c4.680908 3.270101 8.980002 3.63212 12.058594 3.115234s5.02539-1.919922 5.025391-1.919922a1.0001 1.0001 0 0 0 .414062-.763672v-.001953l3.177734-13.5a1.0001 1.0001 0 0 0 -1.214843-1.199219c-1.382262.34294-3.04589.607422-4.884766.607422-2.924526 0-6.284951-.681527-9.707031-2.791015a1.0001 1.0001 0 0 0 -.572266-.148438zm.730469 2.373047c3.345497 1.775504 6.660267 2.566406 9.548828 2.566406 1.447216 0 2.625361-.253596 3.824219-.474609l-2.794922 11.884766c-.361801.239188-1.600493 1.01232-3.876953 1.394531-2.519978.423096-5.982183.152246-9.998047-2.449219z"/></svg>