<svg fill="#666" height="50" viewBox="0 0 50 50" width="50" xmlns="http://www.w3.org/2000/svg"><path d="m38.96875 0c-3.292969-.0117188-10.164062-.121094-13.84375 3.5625l-.65625.65625v.03125c-3.929687 3.957031-4.386719 9.871094-1.5625 14.3125l-20.5 18.75-.03125.03125c-.898437.898438-1.84375 2.40625-2.125 4.28125s.203125 4.109375 2.125 6.03125 4.15625 2.40625 6.03125 2.125 3.382813-1.226562 4.28125-2.125h.03125v-.03125s4.707031-5.324219 9.46875-10.625c2.382813-2.652344 4.765625-5.289062 6.59375-7.25.914063-.980469 1.703125-1.796875 2.25-2.34375.152344-.152344.230469-.238281.34375-.34375 4.445313 2.929688 10.421875 2.523438 14.40625-1.46875l.65625-.65625c1.796875-1.792969 2.628906-4.414062 3.0625-6.96875.433594-2.554687.429688-5.078125.4375-6.75.003906-.382812-.003906-.757812-.3125-1.125-.308594-.367187-.886719-.464844-1.1875-.40625-.601562.121094-.84375.4375-.84375.4375l-.03125.03125s-5.71875 5.746094-6.5 6.53125c-.03125.019531-.039062.023438-.09375.03125-.179687.027344-.460937.058594-.8125.0625-.699219.007813-1.660156-.039062-2.59375-.125-.933594-.085937-1.871094-.230469-2.59375-.375-.363281-.074219-.667969-.152344-.875-.21875-.074219-.023437-.117187-.039062-.15625-.0625-.023437-.035156-.042969-.070312-.0625-.125-.066406-.199219-.117187-.523437-.1875-.875-.140625-.703125-.265625-1.617187-.34375-2.53125-.078125-.914062-.121094-1.839844-.09375-2.53125.015625-.347656.027344-.628906.0625-.8125.019531-.089844.050781-.140625.0625-.15625.867188-.867187 6.5625-6.53125 6.5625-6.53125l.03125-.03125v-.03125s.296875-.210937.4375-.78125c.070313-.285156.046875-.839844-.3125-1.1875-.359375-.3476562-.746094-.40625-1.125-.40625zm-1.3125 2c-1.242187 1.242188-5.089844 5.089844-5.71875 5.71875-.375.375-.402344.695313-.46875 1.03125-.066406.335938-.109375.714844-.125 1.125-.035156.816406.011719 1.773438.09375 2.75.082031.976563.210938 1.945313.375 2.75.082031.402344.175781.777344.28125 1.09375s.171875.578125.5.90625c.335938.335938.585938.394531.90625.5.320313.105469.683594.199219 1.09375.28125.820313.164063 1.824219.28125 2.8125.375s1.945313.164063 2.75.15625c.402344-.003906.777344-.046875 1.09375-.09375s.585938.039063 1.03125-.40625c.492188-.496094 4.417969-4.472656 5.6875-5.75-.023437 1.558594-.019531 3.304688-.34375 5.21875-.398437 2.359375-1.203125 4.609375-2.53125 5.9375l-.65625.65625c-3.863281 3.867188-9.808594 3.765625-13.59375-.03125l-5-5c-3.78125-3.800781-3.878906-9.753906-.03125-13.625l.65625-.6875c2.488281-2.492187 7.742188-2.847656 11.1875-2.90625zm-13.65625 18c.164063.1875.320313.382813.5.5625l5 5c.136719.136719.292969.246094.4375.375-.070312.070313-.109375.109375-.1875.1875-.578125.574219-1.359375 1.386719-2.28125 2.375-1.84375 1.976563-4.242187 4.625-6.625 7.28125-4.753906 5.292969-9.410156 10.59375-9.4375 10.625l-.03125.03125c-.609375.597656-1.859375 1.351563-3.25 1.5625-1.40625.210938-2.917969-.042969-4.46875-1.59375s-1.835937-3.089844-1.625-4.5c.210938-1.390625.996094-2.640625 1.59375-3.25l.03125-.03125z"/></svg>