<svg fill="#666" height="50" viewBox="0 0 50 50" width="50" xmlns="http://www.w3.org/2000/svg"><path d="m24.90625.15625c-.042969.007813-.085937.019531-.125.03125-.222656.046875-.417969.167969-.5625.34375 0 0-4.1875 5.089844-8.375 11.5625s-8.46875 14.242188-8.46875 20.28125c0 9.71875 7.90625 17.625 17.625 17.625s17.625-7.90625 17.625-17.625c0-6.039062-4.28125-13.808594-8.46875-20.28125s-8.375-11.5625-8.375-11.5625c-.210937-.265625-.539062-.40625-.875-.375zm.09375 2.65625c.980469 1.214844 3.976563 4.945313 7.46875 10.34375 4.117188 6.363281 8.15625 14.179688 8.15625 19.21875 0 8.636719-6.988281 15.625-15.625 15.625s-15.625-6.988281-15.625-15.625c0-5.039062 4.039063-12.855469 8.15625-19.21875 3.492188-5.398437 6.488281-9.128906 7.46875-10.34375zm-.75 8.3125c-.253906.050781-.476562.195313-.625.40625 0 0-2.453125 3.15625-4.90625 7.28125s-4.96875 9.15625-4.96875 13.375c0 5.296875 2.492188 8.503906 4.96875 10.21875 2.476563 1.714844 4.96875 2.0625 4.96875 2.0625.367188.089844.75-.035156.996094-.320312.246094-.285157.308594-.6875.164062-1.035157-.144531-.347656-.472656-.585937-.847656-.613281 0 0-2.054687-.285156-4.125-1.71875-2.070312-1.433594-4.125-3.902344-4.125-8.59375 0-3.371094 2.304688-8.367187 4.6875-12.375 2.382813-4.007812 4.75-7.0625 4.75-7.0625.265625-.320312.304688-.777344.097656-1.140625-.210937-.359375-.621093-.554687-1.035156-.484375z"/></svg>