<svg fill="#666" height="50" viewBox="0 0 50 50" width="50" xmlns="http://www.w3.org/2000/svg"><path d="m25 1.9199219c-12.734887 0-23.0800781 10.3451911-23.0800781 23.0800781s10.3451911 23.080078 23.0800781 23.080078 23.080078-10.345191 23.080078-23.080078-10.345191-23.0800781-23.080078-23.0800781zm-1 2.1171875v9.9335936c-2.56749-.060593-5.008555-.347681-7.259766-.818359.396393-1.200844.846869-2.316785 1.347657-3.3183596 1.652934-3.3058688 3.749395-5.3179346 5.912109-5.796875zm2 0c2.162714.4789404 4.259175 2.4910062 5.912109 5.796875.502387 1.0047726.95427 2.1248216 1.351563 3.3300776-2.248403.465975-4.692772.747315-7.263672.806641zm-6.828125.703125c-1.085394 1.1370501-2.053238 2.5596-2.873047 4.1992187-.571326 1.1426529-1.072462 2.4032569-1.509766 3.7480469-1.963126-.529221-3.738475-1.195139-5.2714839-1.96875 2.5799229-2.7960349 5.8934949-4.9007391 9.6542969-5.9785156zm11.65625 0c3.757164 1.0767337 7.067612 3.1787292 9.646484 5.9707036-1.510359.78773-3.283741 1.46116-5.257812 1.992187-.438444-1.350716-.942085-2.616591-1.515625-3.7636719-.819809-1.6396187-1.787653-3.0621686-2.873047-4.1992187zm10.955078 7.5332036c2.497116 3.289816 4.066388 7.323106 4.271485 11.726562h-9.041016c-.072986-3.357303-.502091-6.527157-1.236328-9.367188 2.243818-.607024 4.26622-1.402455 6.005859-2.359374zm-33.5781249.015624c1.7584581.93369 3.7842229 1.719728 6.0214839 2.326172-.736929 2.844437-1.1671 6.02067-1.240234 9.384766h-9.0410155c.2047731-4.396515 1.7695602-8.423922 4.2597656-11.710938zm7.9707029 2.796876c2.432343.517541 5.061364.825754 7.824219.886718v8.027344h-9.013672c.074397-3.212631.494415-6.237729 1.189453-8.914062zm17.652344.013671c.692963 2.672991 1.111276 5.693187 1.185547 8.900391h-9.013672v-8.027344c2.764457-.059263 5.396477-.360385 7.828125-.873047zm-29.8828125 10.900391h9.0410155c.072986 3.357303.502091 6.527156 1.236328 9.367188-2.243818.607024-4.2662197 1.402455-6.0058591 2.359374-2.4971163-3.289816-4.0663881-7.323106-4.2714844-11.726562zm11.0410155 0h9.013672v8.027344c-2.764457.059263-5.396477.360385-7.828125.873047-.692963-2.672991-1.111276-5.693187-1.185547-8.900391zm11.013672 0h9.013672c-.074397 3.212631-.494415 6.237729-1.189453 8.914062-2.432343-.517541-5.061364-.825754-7.824219-.886718zm11.013672 0h9.041016c-.204774 4.396515-1.769561 8.423922-4.259766 11.710938-1.758458-.93369-3.784223-1.719728-6.021484-2.326172.736929-2.844437 1.1671-6.02067 1.240234-9.384766zm-13.013672 10.029297v9.933594c-2.162714-.478941-4.259175-2.491007-5.912109-5.796875-.502387-1.004773-.95427-2.124822-1.351563-3.330078 2.248403-.465975 4.692772-.747315 7.263672-.806641zm2 0c2.56749.060593 5.008555.347681 7.259766.818359-.396393 1.200844-.846869 2.316784-1.347657 3.31836-1.652934 3.305868-3.749395 5.317934-5.912109 5.796875zm-11.216797 1.267578c.438444 1.350716.942085 2.616591 1.515625 3.763672.819809 1.639619 1.787653 3.062169 2.873047 4.199219-3.757164-1.076734-7.067612-3.17873-9.6464844-5.970704 1.5103594-.78773 3.2837414-1.46116 5.2578124-1.992187zm20.427735.015625c1.963126.529221 3.738475 1.195139 5.271484 1.96875-2.579923 2.796035-5.893495 4.900739-9.654297 5.978516 1.085394-1.13705 2.053238-2.5596 2.873047-4.199219.571326-1.142653 1.072462-2.403257 1.509766-3.748047z"/></svg>