<svg fill="#666" height="50" viewBox="0 0 50 50" width="50" xmlns="http://www.w3.org/2000/svg"><path d="m4 1c-2.199219 0-4 1.800781-4 4v38c0 2.199219 1.800781 4 4 4h21v-2h-21c-1.117187 0-2-.882812-2-2v-38c0-1.117187.882813-2 2-2h28c1.117188 0 2 .882813 2 2v9h2v-9c0-2.199219-1.800781-4-4-4zm.8125 4c-.476562.089844-.820312.511719-.8125 1v33c0 .550781.449219 1 1 1h20v-2h-19v-31h24v7h2v-8c0-.550781-.449219-1-1-1h-26c-.03125 0-.0625 0-.09375 0s-.0625 0-.09375 0zm24.1875 10c-1.644531 0-3 1.355469-3 3v29c0 1.644531 1.355469 3 3 3h18c1.644531 0 3-1.355469 3-3v-29c0-1.644531-1.355469-3-3-3zm0 2h18c.566406 0 1 .433594 1 1v29c0 .566406-.433594 1-1 1h-18c-.566406 0-1-.433594-1-1v-29c0-.566406.433594-1 1-1zm1.8125 2c-.476562.089844-.820312.511719-.8125 1v22c0 .550781.449219 1 1 1h14c.550781 0 1-.449219 1-1v-22c0-.550781-.449219-1-1-1h-14c-.03125 0-.0625 0-.09375 0s-.0625 0-.09375 0zm1.1875 2h12v20h-12zm-14 20c-.828125 0-1.5.671875-1.5 1.5s.671875 1.5 1.5 1.5 1.5-.671875 1.5-1.5-.671875-1.5-1.5-1.5zm20 3c-.828125 0-1.5.671875-1.5 1.5s.671875 1.5 1.5 1.5 1.5-.671875 1.5-1.5-.671875-1.5-1.5-1.5z"/></svg>