<svg fill="#666" height="50" viewBox="0 0 50 50" width="50" xmlns="http://www.w3.org/2000/svg"><path d="m49.03125.96875-1.0625.03125s-7.351562.097656-14.4375 3.625c-2.277344 1.136719-4.566406 2.695313-6.625 4.75-2.535156 2.535156-6.113281 6.695313-9.375 10.625h-8.53125c-.03125 0-.0625 0-.09375 0-.269531.027344-.519531.160156-.6875.375l-5 6c-.210937.265625-.277344.621094-.167969.941406.105469.320313.371094.566407.699219.652344l6.09375 1.53125c-.046875.058594-.34375.4375-.34375.4375l-.125.125-.0625.1875s-.085937.351563-.0625.6875c.007813.125.03125.289063.0625.4375l-2.15625 3.625s-.097656.195313-.125.3125c-.027344.117188-.035156.261719-.03125.40625.007813.289063.078125.613281.25 1 .34375.773438 1.078125 1.796875 2.65625 3.375 1.578125 1.574219 2.597656 2.3125 3.375 2.65625.386719.171875.710938.242188 1 .25.144531.003906.289063-.003906.40625-.03125.117188-.027344.3125-.125.3125-.125l3.65625-2.15625c.136719.027344.292969.054688.40625.0625.335938.023438.6875-.0625.6875-.0625l.1875-.0625.15625-.125s.355469-.273437.40625-.3125l1.53125 6.0625c.085938.328125.332031.59375.652344.699219.320312.109375.675781.042969.941406-.167969l6-5c.238281-.191406.375-.476562.375-.78125v-8.5625c3.957031-3.289062 8.144531-6.863281 10.625-9.34375 2.046875-2.050781 3.582031-4.34375 4.71875-6.625 3.511719-7.074219 3.65625-14.4375 3.65625-14.4375zm-2.15625 2.15625c-.082031 1.503906-.476562 6.75-3.3125 12.46875-1.054687 2.121094-2.46875 4.21875-4.34375 6.09375-2.4375 2.4375-6.726562 6.09375-10.71875 9.40625-.082031.050781-.15625.113281-.21875.1875-4.675781 3.875-8.894531 7.230469-9.15625 7.4375-.117187-.011719-.300781-.023437-.625-.15625-.746094-.304687-2.054687-1.085937-4-3.03125-1.945312-1.945312-2.757812-3.285156-3.0625-4.03125-.132812-.324219-.144531-.507812-.15625-.625.207031-.261719 3.515625-4.433594 7.375-9.09375.105469-.085937.1875-.191406.25-.3125 3.277344-3.953125 6.910156-8.191406 9.40625-10.6875 1.882813-1.882812 3.976563-3.285156 6.09375-4.34375 5.726563-2.847656 10.96875-3.234375 12.46875-3.3125zm-12.875 7.875c-2.75 0-5 2.25-5 5s2.25 5 5 5 5-2.25 5-5-2.25-5-5-5zm0 2c1.667969 0 3 1.332031 3 3s-1.332031 3-3 3-3-1.332031-3-3 1.332031-3 3-3zm-24.53125 9h6.40625c-1.917969 2.339844-3.496094 4.328125-4.65625 5.78125l-5.4375-1.375zm.84375 11.59375c.570313.914063 1.40625 2 2.75 3.34375 1.339844 1.339844 2.429688 2.179688 3.34375 2.75l-2.15625 1.28125c-.03125-.007812-.027344-.003906-.15625-.0625-.410156-.179687-1.304687-.746094-2.78125-2.21875-1.472656-1.476562-2.039062-2.371094-2.21875-2.78125-.058594-.128906-.054687-.125-.0625-.15625zm17.6875.53125v6.40625l-4.40625 3.6875-1.375-5.40625c1.449219-1.160156 3.417969-2.742187 5.78125-4.6875zm-21.59375 4.09375c-1.632812 1.253906-3.109375 1.414063-4.4375 2.71875-.664062.652344-1.191406 1.578125-1.5 2.84375s-.4375 2.898438-.4375 5.1875v1h1c4.59375 0 6.839844-.726562 8.1875-2.09375 1.347656-1.367187 1.570313-2.890625 2.59375-4.28125l-1.625-1.1875c-1.296875 1.765625-1.585937 3.230469-2.40625 4.0625-.722656.734375-2.332031 1.273438-5.65625 1.40625.050781-1.453125.121094-2.847656.3125-3.625.25-1.011719.554688-1.5.9375-1.875.761719-.75 2.253906-1.085937 4.21875-2.59375zm7.6875 2.84375-.09375.0625v-.03125s.054688-.015625.09375-.03125z"/></svg>