<svg fill="#666" height="50" viewBox="0 0 50 50" width="50" xmlns="http://www.w3.org/2000/svg"><path d="m14 2c-5.585937 0-10.3125 1.65625-10.3125 1.65625-.464844.148438-.757812.609375-.6875 1.09375 0 0 .585938 3.734375 2.46875 7.5.941406 1.882813 2.21875 3.777344 3.96875 5.25s4.003906 2.5 6.71875 2.5c2.246094 0 3.75-.40625 3.75-.40625.535156-.148437.851563-.699219.703125-1.234375-.148437-.535156-.699219-.851562-1.234375-.703125 0 0-1.210937.34375-3.21875.34375-2.230469 0-3.980469-.773437-5.4375-2-1.457031-1.226562-2.609375-2.9375-3.46875-4.65625-1.371094-2.738281-1.863281-5.023437-2.0625-6.03125 1.070313-.335937 4.402344-1.3125 8.8125-1.3125 4.371094 0 6.867188 1.859375 8.125 4.28125 1.058594 2.039063 1.148438 4.546875.4375 6.6875-1.203125-1.375-2.570312-2.597656-3.9375-3.65625-3.601562-2.789062-7.1875-4.46875-7.1875-4.46875-.183594-.089844-.390625-.125-.59375-.09375-.445312.054688-.800781.402344-.863281.847656-.066406.441407.171875.875.582031 1.058594 0 0 3.414063 1.585938 6.8125 4.21875 3.398438 2.632813 6.625 6.253906 6.625 10v2.125c-.003906.042969-.003906.082031 0 .125v.1875.6875h-13c-.03125 0-.0625 0-.09375 0-.515625.046875-.910156.480469-.90625 1v6c0 .550781.449219 1 1 1h1.1875l2.84375 13.21875c.101563.453125.503906.777344.96875.78125h18c.464844-.003906.867188-.328125.96875-.78125l2.84375-13.21875h1.1875c.550781 0 1-.449219 1-1v-6c0-.550781-.449219-1-1-1h-13v-.6875c0-.054687 0-.105469 0-.15625.003906-.050781.003906-.105469 0-.15625.082031-1.566406.800781-2.949219 1.90625-4.21875 1.179688-1.355469 2.8125-2.523437 4.46875-3.46875 3.3125-1.890625 6.65625-2.84375 6.65625-2.84375.542969-.105469.902344-.628906.796875-1.171875s-.628906-.902344-1.171875-.796875c-.0625.003906-.125.015625-.1875.03125 0 0-3.53125.996094-7.09375 3.03125-.699219.398438-1.386719.859375-2.0625 1.34375.105469-.785156.300781-1.746094.71875-2.71875.925781-2.144531 2.644531-4.1875 6.96875-4.1875s6.902344.898438 7.8125 1.25c-.210937.882813-.675781 2.550781-1.84375 4.5625-1.550781 2.679688-4 5.1875-8.125 5.1875-2.414062 0-4-.75-4-.75-.324219-.164062-.714844-.136719-1.015625.070313-.300781.203125-.464844.558593-.429687.921875.035156.363281.265625.675781.601562.820312 0 0 2.007813.9375 4.84375.9375 4.964844 0 8.09375-3.164062 9.84375-6.1875 1.75-3.023437 2.28125-6.03125 2.28125-6.03125.085938-.449219-.144531-.902344-.5625-1.09375 0 0-3.820312-1.6875-9.40625-1.6875-5.007812 0-7.671875 2.761719-8.8125 5.40625s-1 5.21875-1 5.21875v.03125c-.265625.261719-.535156.53125-.78125.8125-.265625.304688-.515625.636719-.75.96875-.339844-1.28125-.910156-2.5-1.65625-3.625 1.390625-2.898437 1.449219-6.492187-.09375-9.46875-1.582031-3.050781-4.941406-5.34375-9.90625-5.34375zm-2 26h26v4h-26zm2.21875 6h21.5625l-2.59375 12h-16.375z"/></svg>