<svg fill="#666" height="50" viewBox="0 0 50 50" width="50" xmlns="http://www.w3.org/2000/svg"><path d="m.8125 13c-.476562.089844-.8203125.511719-.8125 1v3c0 .550781.449219 1 1 1h6.59375v19.6875c0 .550781.449219 1 1 1h3.3125c.550781 0 1-.449219 1-1v-19.6875h6.59375c.550781 0 1-.449219 1-1v-3c0-.550781-.449219-1-1-1h-18.5c-.03125 0-.0625 0-.09375 0s-.0625 0-.09375 0zm23.375 0c-.503906.0625-.878906.492188-.875 1v23.6875c0 .550781.449219 1 1 1h3.1875c.550781 0 1-.449219 1-1v-14.6875l6.1875 15.09375c.160156.359375.515625.589844.90625.59375h2.09375c.402344.007813.773438-.226562.9375-.59375l6.1875-15.09375v14.6875c0 .550781.449219 1 1 1h3.1875c.550781 0 1-.449219 1-1v-23.6875c0-.550781-.449219-1-1-1h-4.8125c-.398437.007813-.757812.253906-.90625.625l-6.625 15.78125-6.625-15.78125c-.152344-.382812-.527344-.628906-.9375-.625h-4.78125c-.042969-.003906-.082031-.003906-.125 0zm-22.1875 2h16.5v1h-6.59375c-.550781 0-1 .449219-1 1v19.6875h-1.3125v-19.6875c0-.550781-.449219-1-1-1h-6.59375zm23.3125 0h3.125l7.25 17.28125c.148438.371094.507813.617188.90625.625h.09375c.410156.003906.785156-.242187.9375-.625l7.25-17.28125h3.125v21.6875h-1.1875v-18.5c0-.550781-.449219-1-1-1h-.125c-.398437.007813-.757812.253906-.90625.625l-7.75 18.875h-.75l-7.75-18.875c-.152344-.382812-.527344-.628906-.9375-.625h-.09375c-.550781 0-1 .449219-1 1v18.5h-1.1875z"/></svg>