<svg fill="#666" height="50" viewBox="0 0 50 50" width="50" xmlns="http://www.w3.org/2000/svg"><path d="m6 0v50h38v-35.40625l-.28125-.3125-14-14-.3125-.28125zm2 2h20v14h14v32h-34zm22 1.4375 10.5625 10.5625h-10.5625zm-3.3125 20.71875c-1.988281.269531-3.21875 2.566406-3.21875 6.09375 0 3.839844 1.289063 6.125 3.4375 6.125 1.332031 0 3.5625-.824219 3.5625-6.21875 0-3.773437-1.261719-6-3.375-6-.140625 0-.273437-.019531-.40625 0zm-6.8125.03125c-1.929687 0-3.28125 1.332031-3.28125 3.25 0 1.214844.753906 2.351563 2.25 3.375.894531.675781 1.40625 1.253906 1.40625 2.1875 0 1.039063-.625 1.6875-1.65625 1.6875-.492187 0-1.15625-.203125-1.5-.4375l-.28125-.1875-.4375 1.625.15625.09375c.359375.265625 1.226563.5625 2.0625.5625 2.039063 0 3.46875-1.429687 3.46875-3.46875 0-1.386719-.664062-2.496094-2.09375-3.5-1.121094-.808594-1.59375-1.171875-1.59375-2.15625 0-.664062.433594-1.375 1.40625-1.375.652344 0 1.070313.238281 1.21875.34375l.3125.1875.4375-1.625-.15625-.09375c-.316406-.234375-.949219-.46875-1.71875-.46875zm-7 .09375v8.5c0 1.796875-.578125 1.9375-1.25 1.9375-.242187 0-.433594-.023437-.5625-.0625l-.28125-.09375-.15625 1.59375.15625.0625c.234375.089844.582031.15625.96875.15625 2.003906 0 2.9375-1.15625 2.9375-3.625v-8.46875zm19.53125 0v11.9375h1.65625v-4.1875c0-1.53125 0-2.667969-.03125-3.65625.242188.695313.523438 1.410156.84375 2.1875l2.21875 5.65625h1.65625v-11.9375h-1.6875v4.34375c0 1.300781.042969 2.40625.09375 3.625-.246094-.675781-.535156-1.359375-.78125-2l-2.34375-5.96875zm-5.4375 1.53125c1.503906 0 1.625 3.367188 1.625 4.40625 0 2.8125-.589844 4.5-1.59375 4.5-1.046875 0-1.65625-1.675781-1.65625-4.46875 0-1.046875.089844-4.4375 1.625-4.4375z"/></svg>