<svg fill="#666" height="50" viewBox="0 0 50 50" width="50" xmlns="http://www.w3.org/2000/svg"><path d="m25 3c-6.636719 0-12 5.363281-12 12v5h-4c-1.644531 0-3 1.355469-3 3v24c0 1.644531 1.355469 3 3 3h32c1.644531 0 3-1.355469 3-3v-24c0-1.644531-1.355469-3-3-3h-4v-5c0-6.636719-5.363281-12-12-12zm0 2c5.566406 0 10 4.433594 10 10v5h-20v-5c0-5.566406 4.433594-10 10-10zm-16 17h32c.554688 0 1 .445313 1 1v24c0 .554688-.445312 1-1 1h-32c-.554687 0-1-.445312-1-1v-24c0-.554687.445313-1 1-1zm16 8c-1.699219 0-3 1.300781-3 3 0 .898438.398438 1.6875 1 2.1875v2.8125c0 1.101563.898438 2 2 2 1.101563 0 2-.898437 2-2v-2.8125c.601563-.5 1-1.289062 1-2.1875 0-1.699219-1.300781-3-3-3z"/></svg>