<svg fill="#666" height="50" viewBox="0 0 50 50" width="50" xmlns="http://www.w3.org/2000/svg"><path d="m24.5 1c-1.367187 0-2.5 1.132813-2.5 2.5v2.5h-12c-.03125 0-.0625 0-.09375 0-.515625.046875-.910156.480469-.90625 1v12c0 .550781.449219 1 1 1h12v3h-16c-.03125 0-.0625 0-.09375 0-.269531.027344-.519531.160156-.6875.375l-5 6c-.2929688.367188-.2929688.882813 0 1.25l5 6c.191406.238281.476563.375.78125.375h16v13h2v-13h1v13h2v-13h13c.550781 0 1-.449219 1-1v-12c0-.550781-.449219-1-1-1h-13v-3h17c.304688 0 .589844-.136719.78125-.375l5-6c.292969-.367187.292969-.882812 0-1.25l-5-6c-.191406-.238281-.476562-.375-.78125-.375h-17v-2.5c0-1.367187-1.132812-2.5-2.5-2.5zm0 2c.285156 0 .5.214844.5.5v2.5h-1v-2.5c0-.285156.214844-.5.5-.5zm-13.5 5h32.53125l4.15625 5-4.15625 5h-32.53125zm13 12h1v3h-1zm-17.53125 5h32.53125v10h-32.53125l-4.15625-5z"/></svg>