<svg fill="#666" height="50" viewBox="0 0 50 50" width="50" xmlns="http://www.w3.org/2000/svg"><path d="m.875 2c-.503906.0625-.87890625.492188-.875 1v38c-.00390625.386719.214844.738281.5625.90625l12 6c.277344.132813.597656.132813.875 0l11.59375-5.8125 12.5625 5.8125c.28125.125.605469.113281.875-.03125l11-6c.324219-.171875.527344-.507812.53125-.875v-38c-.003906-.347656-.1875-.671875-.488281-.851562-.300781-.179688-.671875-.1875-.980469-.023438l-10.5625 5.75-12.5625-5.78125c-.265625-.125-.578125-.125-.84375 0l-11.5625 5.78125-11.5625-5.78125c-.175781-.085937-.371094-.117187-.5625-.09375zm25.125 2.53125 11 5.09375v35.8125l-11-5.0625zm-24 .09375 10 5v35.75l-10-5zm22 0v35.75l-10 5v-35.75zm24 .0625v35.71875l-9 4.90625v-35.71875z"/></svg>