<svg fill="#666" height="50" viewBox="0 0 50 50" width="50" xmlns="http://www.w3.org/2000/svg"><path d="m17.839844 0c-2.328125 0-3.878906.257813-4.878906.539063-.5.136718-.863282.28125-1.117188.402343-.25.121094-.445312.261719-.445312.261719l-.335938.25-.054687.421875s-1.007813 7.996094-1.007813 13.125c0 3.085938 1.511719 4.925781 2.863281 6.039063.679688.558593 1.308594.976562 1.691407 1.316406.382812.339844.445312.476562.445312.644531 0 .941406-.25 3.726563-.5 6.816406-.25 3.089844-.503906 6.550782-.5 9.183594 0 4.757813.332031 7.320313 1.003906 8.917969.339844.796875.808594 1.378906 1.386719 1.707031.574219.332031 1.160156.375 1.609375.375.445313 0 1.035156-.039062 1.609375-.371094.578125-.328125 1.050781-.914062 1.386719-1.710937.671875-1.59375 1.007812-4.164063 1.003906-8.917969 0-2.628906-.25-6.09375-.5-9.183594-.253906-3.089843-.5-5.871093-.5-6.816406 0-.171875.058594-.296875.4375-.628906.382813-.332031 1.015625-.746094 1.691406-1.300781 1.359375-1.105469 2.871094-2.949219 2.871094-6.070313 0-3.488281-1.003906-13.101562-1.003906-13.101562l-.054688-.496094-.425781-.257813s-.589844-.339843-1.65625-.613281c-1.066406-.273437-2.691406-.53125-5.019531-.53125zm13.164062 0c-.265625 0-.519531.105469-.710937.292969-.1875.1875-.292969.441406-.292969.707031v11c0 .703125.097656 8.996094.097656 11.152344.003907.921875-.269531 4.730469-.546875 8.671875-.273437 3.941406-.550781 8.085937-.550781 10.175781 0 3.027344.089844 4.789063.476563 6.027344.195312.617187.503906 1.15625.992187 1.5s1.046875.425781 1.53125.425781c0 .003906 0 .003906 0 0 1.109375 0 2.527344-.699219 3.460938-2.503906.933593-1.808594 1.539062-4.679688 1.539062-9.449219 0-2.683594-.535156-4.765625-1.046875-6.394531-.511719-1.632813-.953125-2.820313-.953125-3.605469 0-1.398437 1.128906-3.421875 2.410156-5.761719 1.285157-2.339843 2.660157-5.046875 2.664063-8.160156 0-.003906 0-.003906 0-.003906 0-1.742188-.277344-4.390625-1.503906-7.054688-1.226563-2.664062-3.441407-5.339843-7.175782-6.9374997-.125-.0546875-.257812-.0820313-.390625-.0820313zm-13.164062 2c.421875 0 .792969.015625 1.160156.03125v9.96875c-.003906.359375.183594.695313.496094.878906.3125.179688.695312.179688 1.007812 0 .3125-.183593.5-.519531.496094-.878906v-9.789062c.539063.082031 1.011719.167968 1.363281.257812.546875.140625.542969.171875.6875.238281.085938.84375.949219 9.355469.949219 12.292969 0 2.53125-.988281 3.589844-2.132812 4.519531-.570313.46875-1.1875.859375-1.746094 1.347657-.558594.488281-1.121094 1.207031-1.121094 2.132812 0 1.246094.253906 3.898438.503906 6.980469.25 3.078125.496094 6.519531.496094 9.019531.003906 4.652344-.402344 7.085938-.84375 8.140625-.222656.527344-.410156.679688-.539062.753906-.128907.074219-.296875.105469-.613282.105469h-.003906c-.316406 0-.484375-.03125-.613281-.109375-.132813-.074219-.316406-.226562-.539063-.75-.441406-1.054687-.847656-3.488281-.847656-8.140625-.003906-2.503906.242188-5.941406.496094-9.019531.25-3.078125.503906-5.734375.503906-6.980469 0-.929687-.558594-1.644531-1.113281-2.140625-.558594-.492187-1.175781-.890625-1.75-1.363281-1.144531-.945313-2.136719-2.007813-2.136719-4.496094 0-4.578125.832031-11.488281.933594-12.335937.148437-.0625.28125-.121094.566406-.203125.363281-.101563.867188-.203125 1.5-.289063v9.828125c-.003906.359375.183594.695313.496094.878906.3125.179688.695312.179688 1.007812 0 .3125-.183593.5-.519531.496094-.878906v-9.976562c.277344-.007813.53125-.023438.839844-.023438zm14.160156.859375c2.273438 1.375 3.878906 3.101563 4.75 4.996094 1.0625 2.304687 1.324219 4.695312 1.324219 6.222656-.003906 2.511719-1.160156 4.910156-2.417969 7.199219-1.253906 2.289062-2.65625 4.414062-2.65625 6.722656 0 1.398438.558594 2.65625 1.046875 4.203125.484375 1.546875.953125 3.375.953125 5.796875 0 4.59375-.628906 7.199219-1.316406 8.53125-.6875 1.328125-1.265625 1.421875-1.683594 1.421875-.273437 0-.34375-.039062-.375-.058594-.03125-.019531-.125-.097656-.238281-.46875-.234375-.738281-.386719-2.453125-.386719-5.425781 0-1.910156.273438-6.101562.546875-10.035156.273438-3.9375.554688-7.554688.550781-8.816406 0-2.210938-.097656-10.625-.097656-11.148438z"/></svg>