<svg fill="#666" height="50" viewBox="0 0 50 50" width="50" xmlns="http://www.w3.org/2000/svg"><path d="m8.90625 8c-.390625.042969-.722656.3125-.84375.6875l-5.90625 17.75c-.011719.03125-.023437.0625-.03125.09375l-.03125.03125c-.011719.019531-.023437.042969-.03125.0625v.0625c-.011719.011719-.019531.019531-.03125.03125v.0625c-.011719.011719-.019531.019531-.03125.03125v.0625.03125c-.054687.183594-.054687.378906 0 .5625v14.53125c0 .550781.449219 1 1 1h44c.550781 0 1-.449219 1-1v-14.59375c.070313-.226562.058594-.46875-.03125-.6875-.011719-.011719-.019531-.019531-.03125-.03125v-.03125c-.019531-.042969-.039062-.085937-.0625-.125l-5.9375-17.84375c-.132812-.40625-.511719-.683594-.9375-.6875h-32c-.03125 0-.0625 0-.09375 0zm.8125 2h30.5625l5.34375 16h-13.625c-.550781 0-1 .449219-1 1 0 3.324219-2.675781 6-6 6s-6-2.675781-6-6c0-.550781-.449219-1-1-1h-13.625zm-5.71875 18h13.1875c.515625 3.914063 3.761719 7 7.8125 7s7.296875-3.085937 7.8125-7h13.1875v13h-42z"/></svg>