<svg fill="#666" height="50" viewBox="0 0 50 50" width="50" xmlns="http://www.w3.org/2000/svg"><path d="m29.984375 1.984375c-.046875.003906-.097656.007813-.144531.015625h-22.839844v46h36v-32.832031c.019531-.109375.019531-.21875 0-.324219v-.257812l-.191406-.195313c-.054688-.070312-.121094-.132812-.191406-.1875l-11.824219-11.828125c-.054688-.070312-.117188-.132812-.1875-.1875l-.191406-.1875h-.257813c-.058594-.007812-.113281-.015625-.171875-.015625zm-20.984375 2.015625h20v12h12v30h-32zm22 1.414063 8.585938 8.585937h-8.585938zm-5 16.585937-4 16h2l4-16zm-7.859375 2.484375-3.308594 5.515625 3.308594 5.515625 1.71875-1.03125-2.691406-4.484375 2.691406-4.484375zm13.714844 0-1.714844 1.03125 2.691406 4.484375-2.691406 4.484375 1.71875 1.03125 3.308594-5.515625z"/></svg>