<svg fill="#666" height="50" viewBox="0 0 50 50" width="50" xmlns="http://www.w3.org/2000/svg"><path d="m30 4c-9.886719 0-15.660156 14.746094-18.867187 28.59375-4.738282 1.3125-8.132813 3.300781-8.132813 5.90625 0 4.898438 11.300781 7.5 22 7.5s22-2.601562 22-7.5c0-2.695312-3.472656-4.6875-8.375-5.921875-2.902344-10.300781-7.125-19.488281-7.125-19.578125l-.199219-.402344c-.101562-.296875-.101562-.898437.101563-1.195312.097656-.101563.199219-.402344.597656-.402344 1.898438 0 2 3.199219 2 4.097656 0 1.101563.898438 1.902344 2 1.902344.800781 0 1.5-.398437 1.800781-1 1.5-2.601562 1.5-6.199219.296875-8.199219-1-1.699218-3.199218-3.800781-8.097656-3.800781zm0 2c3.101563 0 5.300781 1 6.402344 2.800781 1.097656 2 .597656 4.5-.304688 6.199219 0-3.699219-1.5-6-4-6-.898437 0-1.695312.398438-2.195312 1.097656-.703125 1-.601563 2.300782-.304688 3.101563.101563.300781.203125.5.304688.601562.183594.464844 4.242187 9.503907 7.066406 19.609375-2.464844.757813-6.304687 1.589844-11.96875 1.589844-5.574219 0-9.5-.785156-11.992187-1.589844 4.007812-17.726562 9.992187-27.410156 16.992187-27.410156zm-19.402344 28.8125c-.21875 1.109375-.449218 2.242188-.597656 2.988281l-.101562.699219s4.5 2.5 15.101562 2.5c10.398438 0 15.199219-2.5 15.199219-2.5l-.199219-.800781c-.222656-.894531-.460937-1.867188-.730469-2.871094 3.660157 1.074219 5.730469 2.492188 5.730469 3.671875 0 2.300781-7.601562 5.5-20 5.5-12.398437 0-20-3.199219-20-5.5 0-1.183594 2.003906-2.609375 5.597656-3.6875zm2 .589844c2.601563.796875 6.703125 1.597656 12.402344 1.597656s9.699219-.800781 12.300781-1.597656c.199219.597656.398438 1.296875.5 1.898437-2.699218.800782-6.902343 1.699219-12.800781 1.699219-5.898437 0-10.101562-.898437-12.800781-1.699219.101562-.601562.199219-1.199218.398437-1.898437z"/></svg>