<svg fill="#666" height="50" viewBox="0 0 50 50" width="50" xmlns="http://www.w3.org/2000/svg"><path d="m1.78125-.03125c-.480469.109375-.820312.539063-.8125 1.03125v48c.003906.566406.464844 1.027344 1.03125 1.03125h30c.566406-.003906 1.027344-.464844 1.03125-1.03125v-10h-2.0625v8.96875h-27.9375v-45.9375h27.9375v8.96875h2.0625v-10c-.003906-.566406-.464844-1.0273438-1.03125-1.03125h-30c-.074219-.0078125-.144531-.0078125-.21875 0zm23 15.125c-.226562.03125-.4375.144531-.59375.3125l-8.90625 8.875-.6875.71875.6875.71875 8.90625 8.875c.242188.296875.628906.433594 1.003906.347656.371094-.085937.664063-.378906.75-.75.085938-.375-.050781-.761718-.347656-1.003906l-7.15625-7.1875h29.5625c.359375.003906.695313-.183594.878906-.496094.179688-.3125.179688-.695312 0-1.007812-.183593-.3125-.519531-.5-.878906-.496094h-29.5625l7.15625-7.1875c.3125-.296875.402344-.761719.21875-1.152344-.1875-.394531-.601562-.621093-1.03125-.566406z"/></svg>