<svg fill="#666" height="50" viewBox="0 0 50 50" width="50" xmlns="http://www.w3.org/2000/svg"><path d="m20 8c-6.460937 0-11.632812 5.109375-11.90625 11.5-4.675781 1.277344-8.09375 5.496094-8.09375 10.5 0 6.046875 4.953125 11 11 11h30c4.945313 0 9-4.054687 9-9 0-3.898437-2.597656-7.207031-6.09375-8.375-.210937-5.863281-4.996094-10.625-10.90625-10.625-1.039062 0-2.007812.257813-2.96875.53125-2.148437-3.269531-5.8125-5.53125-10.03125-5.53125zm0 2c3.726563 0 6.992188 2.09375 8.71875 5.09375l.4375.71875.78125-.28125c1-.363281 1.972656-.53125 3.0625-.53125 4.953125 0 9 4.046875 9 9v1.09375l.78125.1875c2.933594.691406 5.21875 3.488281 5.21875 6.71875 0 3.855469-3.144531 7-7 7h-30c-4.953125 0-9-4.046875-9-9 0-4.328125 3.058594-8.003906 7.1875-8.8125l.8125-.15625v-1.03125c0-5.566406 4.433594-10 10-10zm4 10v11.5625l-4.28125-4.28125-1.4375 1.4375 6 6 .71875.6875.71875-.6875 6-6-1.4375-1.4375-4.28125 4.28125v-11.5625z"/></svg>