<svg fill="#666" height="50" viewBox="0 0 50 50" width="50" xmlns="http://www.w3.org/2000/svg"><path d="m24.982422 2a1.0001 1.0001 0 0 0 -.447266.1132812l-20.9999998 10.9999998a1.0001 1.0001 0 0 0 -.5351562.886719v31a1.0001 1.0001 0 0 0 1 1h17 8 17a1.0001 1.0001 0 0 0 1-1v-31a1.0001 1.0001 0 0 0 -.535156-.886719l-21-10.9999998a1.0001 1.0001 0 0 0 -.482422-.1132812zm.017578 2.1289062 20 10.4765628v29.394531h-15v-9a1.0001 1.0001 0 0 0 -1-1h-8a1.0001 1.0001 0 0 0 -1 1v9h-15v-29.394531zm-17 11.8710938a1.0001 1.0001 0 0 0 -1 1v5a1.0001 1.0001 0 0 0 1 1h7a1.0001 1.0001 0 0 0 1-1v-5a1.0001 1.0001 0 0 0 -1-1zm13 0a1.0001 1.0001 0 0 0 -1 1v5a1.0001 1.0001 0 0 0 1 1h8a1.0001 1.0001 0 0 0 1-1v-5a1.0001 1.0001 0 0 0 -1-1zm14 0a1.0001 1.0001 0 0 0 -1 1v5a1.0001 1.0001 0 0 0 1 1h7a1.0001 1.0001 0 0 0 1-1v-5a1.0001 1.0001 0 0 0 -1-1zm-26 2h5v3h-5zm13 0h6v3h-6zm14 0h5v3h-5zm-28 7a1.0001 1.0001 0 0 0 -1 1v5a1.0001 1.0001 0 0 0 1 1h7a1.0001 1.0001 0 0 0 1-1v-5a1.0001 1.0001 0 0 0 -1-1zm13 0a1.0001 1.0001 0 0 0 -1 1v5a1.0001 1.0001 0 0 0 1 1h8a1.0001 1.0001 0 0 0 1-1v-5a1.0001 1.0001 0 0 0 -1-1zm14 0a1.0001 1.0001 0 0 0 -1 1v5a1.0001 1.0001 0 0 0 1 1h7a1.0001 1.0001 0 0 0 1-1v-5a1.0001 1.0001 0 0 0 -1-1zm-26 2h5v3h-5zm13 0h6v3h-6zm14 0h5v3h-5zm-28 7a1.0001 1.0001 0 0 0 -1 1v5a1.0001 1.0001 0 0 0 1 1h7a1.0001 1.0001 0 0 0 1-1v-5a1.0001 1.0001 0 0 0 -1-1zm27 0a1.0001 1.0001 0 0 0 -1 1v5a1.0001 1.0001 0 0 0 1 1h7a1.0001 1.0001 0 0 0 1-1v-5a1.0001 1.0001 0 0 0 -1-1zm-26 2h5v3h-5zm13 0h6v8h-6zm14 0h5v3h-5z"/></svg>