<svg fill="#666" height="50" viewBox="0 0 50 50" width="50" xmlns="http://www.w3.org/2000/svg"><path d="m5 7c-2.75 0-5 2.25-5 5v26c0 2.75 2.25 5 5 5h40c2.75 0 5-2.25 5-5v-26c0-2.75-2.25-5-5-5zm0 2h40c1.667969 0 3 1.332031 3 3v26c0 1.667969-1.332031 3-3 3h-40c-1.667969 0-3-1.332031-3-3v-26c0-1.667969 1.332031-3 3-3zm24.6875 10.40625c-3.101562 0-4.6875 1.527344-4.6875 3.46875 0 3.511719 4.0625 3.039063 4.0625 4.84375 0 .304688-.234375 1.03125-1.9375 1.03125-1.707031 0-2.8125-.65625-2.8125-.65625l-.53125 2.375s1.105469.625 3.21875.625 5.03125-1.617187 5.03125-3.96875c0-2.828125-4.0625-3.050781-4.0625-4.3125 0-.644531.5-1.125 1.96875-1.125.953125 0 2.03125.71875 2.03125.71875l.5-2.4375s-1.417969-.5625-2.78125-.5625zm-13.21875.21875-2.6875 7.9375s-.183594-.675781-.25-1.09375c-1.535156-3.445312-4.03125-4.71875-4.03125-4.71875l2.375 9h3.25l4.5-11.125zm4.3125 0-1.75 11.125h2.96875l1.78125-11.125zm16.03125 0-4.84375 11.125h2.9375l.59375-1.59375h3.6875l.3125 1.59375h2.6875l-2.28125-11.125zm-30.5625.03125s5.804688 1.796875 7.15625 6.15625l-1-5.0625s-.429687-1.09375-1.59375-1.09375zm31.6875 3.1875.8125 4.1875h-2.4375z"/></svg>