<svg fill="#666" height="50" viewBox="0 0 50 50" width="50" xmlns="http://www.w3.org/2000/svg"><path d="m8 4c-2.210937 0-4 1.789063-4 4v9h2v-9c0-1.191406.808594-2 2-2h34c1.191406 0 2 .808594 2 2v15h2v-15c0-2.210937-1.789062-4-4-4zm.8125 4c-.476562.089844-.820312.511719-.8125 1v8h2v-7h30v13h2v-14c0-.550781-.449219-1-1-1h-32c-.03125 0-.0625 0-.09375 0s-.0625 0-.09375 0zm-6.8125 10c-.523437 0-1.058594.183594-1.4375.5625s-.5625.914063-.5625 1.4375v24c0 .523438.183594 1.058594.5625 1.4375s.914063.5625 1.4375.5625h19c.523438 0 1.058594-.183594 1.4375-.5625s.5625-.914062.5625-1.4375v-24c0-.523437-.183594-1.058594-.5625-1.4375s-.914062-.5625-1.4375-.5625zm0 2h19v24h-19zm1.8125 1c-.476562.089844-.820312.511719-.8125 1v18c0 .550781.449219 1 1 1h15c.550781 0 1-.449219 1-1v-18c0-.550781-.449219-1-1-1h-15c-.03125 0-.0625 0-.09375 0s-.0625 0-.09375 0zm1.1875 2h13v16h-13zm32 1c-.523437 0-1.058594.183594-1.4375.5625s-.5625.914063-.5625 1.4375v18c0 .523438.183594 1.058594.5625 1.4375s.914063.5625 1.4375.5625h11c.523438 0 1.058594-.183594 1.4375-.5625s.5625-.914062.5625-1.4375v-18c0-.523437-.183594-1.058594-.5625-1.4375s-.914062-.5625-1.4375-.5625zm0 2h11v18h-11zm1.8125 1c-.476562.089844-.820312.511719-.8125 1v12c0 .550781.449219 1 1 1h7c.550781 0 1-.449219 1-1v-12c0-.550781-.449219-1-1-1h-7c-.03125 0-.0625 0-.09375 0s-.0625 0-.09375 0zm1.1875 2h5v10h-5zm-16 3v2h10v-2zm5 3v5h5v-2h-3v-1h3v-2zm-5 6v2h10v-2zm-12.5.5c-.550781 0-1 .449219-1 1s.449219 1 1 1 1-.449219 1-1-.449219-1-1-1zm31 0c-.550781 0-1 .449219-1 1s.449219 1 1 1 1-.449219 1-1-.449219-1-1-1z"/></svg>