<svg fill="#666" height="50" viewBox="0 0 50 50" width="50" xmlns="http://www.w3.org/2000/svg"><path d="m25 2c-12.645455 0-23 10.354545-23 23s10.354545 23 23 23 23-10.354545 23-23-10.354545-23-23-23zm0 2c11.554545 0 21 9.445455 21 21s-9.445455 21-21 21-21-9.445455-21-21 9.445455-21 21-21zm-.791016 4.0019531c-.440302-.0006582-.911917.1198816-1.304687.4277344-.523693.4104704-.808131 1.0623341-.896485 1.7988285a1.0001 1.0001 0 0 0 -.001953.023437c-.248635 2.611128-1.243941 3.982482-2.486328 5.130859-1.242386 1.148379-2.801387 1.969557-3.972656 3.353516a1.0001 1.0001 0 0 0 -.005859.007813c-.938775 1.13549-1.585123 2.330704-2.166016 3.146484-.290446.40789-.562111.71309-.787109.884766-.224911.171685-.370415.224609-.587891.224609v2c.686024 0 1.316498-.265254 1.800781-.634766s.856447-.827593 1.203125-1.314453c.692541-.972574 1.298272-2.085539 2.076172-3.027343.000917-.001101.000953-.002807.001953-.003907.818012-.962397 2.328074-1.812114 3.794922-3.167969 1.470114-1.358871 2.825776-3.329283 3.119141-6.410156l-.001953.025391c.04715-.393006.145849-.463924.144531-.462891-.0013.001-.0035-.0205234.142578.00586.292152.05268.910621.493068 1.105469.833984a1.0001 1.0001 0 0 0 .005859.011719c.398502.674231.43838 1.662638.191406 2.798828-.246973 1.13619-.761825 2.356933-1.24414 3.365234a1.0001 1.0001 0 0 0 -.009766.021485c-.256214.569468-.382228 1.141235-.30664 1.705078.075589.563843.38264 1.080902.785156 1.421875.805032.681946 1.845083.833984 2.96875.833984h5.224609c.680569 0 1.139863.147737 1.351563.28125.211699.133513.201172.157761.201172.267578 0 .554872-.169922 1.744141-.169922 1.744141a1.0001 1.0001 0 0 0 .673828 1.101562s.941406.259417.941406 1.21875c0 .908396-.892578 1.365235-.892578 1.365235a1.0001 1.0001 0 0 0 .095703 1.830078s.796875.234182.796875 1.142578c0 .424111-.238099.73072-.578125 1.005859-.340026.27514-.673828.408203-.673828.408204a1.0001 1.0001 0 0 0 -.445313 1.533203s.341797.486702.341797 1.117187c0 .242593-.005101.367479-.050781.484375-.04563.116897-.118443.265178-.492188.490235-.747492.45007-2.73842 1.007812-6.949218 1.007812-5.633439 0-8.065331-.483235-9.742188-.960938-1.676856-.477702-2.834016-1.039062-5.410156-1.039062v2c2.30286 0 3.029888.43864 4.863281.960938 1.833394.522297 4.538501 1.039062 10.289063 1.039062 4.372202 0 6.627207-.480034 7.980468-1.294922.676632-.407444 1.118507-.949584 1.324219-1.476562.205712-.526979.1875-1.001531.1875-1.210938 0-.533261-.152-.934191-.291015-1.310547.151532-.09464.163528-.06175.326172-.193359.608473-.49236 1.320312-1.358658 1.320312-2.560547 0-.961638-.426886-1.627808-.886719-2.111328.455371-.516268.886719-1.233972.886719-2.226563 0-1.56437-.892947-2.270272-1.576172-2.671875.05702-.405329.13086-.788211.13086-1.392578 0-.794183-.474012-1.543497-1.132813-1.958984s-1.474491-.589844-2.419922-.589844h-5.224609c-.876334 0-1.509563-.220524-1.675782-.361328-.08311-.0704-.084513-.07665-.095703-.160156-.01119-.0835-.0018-.28511.148438-.619141.50937-1.066397 1.082339-2.391902 1.384765-3.783203.303716-1.397224.350146-2.920298-.421874-4.2324219-.528542-.9204077-1.399438-1.6093887-2.482422-1.8046875-.135731-.0244768-.279014-.0388431-.425782-.0390625z"/></svg>