<svg fill="#666" height="50" viewBox="0 0 50 50" width="50" xmlns="http://www.w3.org/2000/svg"><path d="m7 8c-2.746094 0-5 2.253906-5 5v24c0 2.746094 2.253906 5 5 5h4.09375c.136719 1.203125.121094 2.316406-.1875 3.25-.378906 1.148438-1.085937 2.113281-2.40625 2.90625-.371094.234375-.542969.683594-.429687 1.105469.113281.421875.492187.722656.929687.738281 4.242188 0 9.105469-2.214844 11.5625-8h22.4375c2.746094 0 5-2.253906 5-5v-24c0-2.746094-2.253906-5-5-5zm0 2h36c1.65625 0 3 1.34375 3 3v24c0 1.65625-1.34375 3-3 3h-23c-.417969 0-.792969.261719-.9375.65625-1.554687 4.242188-4.332031 6.261719-7.21875 7 .390625-.558594.761719-1.148437.96875-1.78125.519531-1.578125.476563-3.304687.15625-5.0625-.089844-.464844-.492187-.804687-.96875-.8125h-5c-1.65625 0-3-1.34375-3-3v-24c0-1.65625 1.34375-3 3-3zm8 12c-1.644531 0-3 1.355469-3 3s1.355469 3 3 3 3-1.355469 3-3-1.355469-3-3-3zm10 0c-1.644531 0-3 1.355469-3 3s1.355469 3 3 3 3-1.355469 3-3-1.355469-3-3-3zm10 0c-1.644531 0-3 1.355469-3 3s1.355469 3 3 3 3-1.355469 3-3-1.355469-3-3-3zm-20 2c.5625 0 1 .4375 1 1s-.4375 1-1 1-1-.4375-1-1 .4375-1 1-1zm10 0c.5625 0 1 .4375 1 1s-.4375 1-1 1-1-.4375-1-1 .4375-1 1-1zm10 0c.5625 0 1 .4375 1 1s-.4375 1-1 1-1-.4375-1-1 .4375-1 1-1z"/></svg>