<svg fill="#666" height="50" viewBox="0 0 50 50" width="50" xmlns="http://www.w3.org/2000/svg"><path d="m11.4375 2c-1.050781 0-1.933594.761719-2.15625 1.71875v.03125s-5.875 26.964844-7.03125 32.34375v.03125c-.171875.859375 0 1.691406.5 2.21875s1.132813.65625 1.65625.65625h8.5625c-.269531 1.21875-.570312 2.558594-.78125 3.53125-.191406.878906-.355469 1.59375-.46875 2.125s-.15625.773438-.1875.9375c-.082031.433594-.0625.929688.28125 1.46875.34375.539063 1.097656.9375 1.9375.9375h8.9375c1.074219 0 1.933594-.75 2.15625-1.75 0 0 .535156-2.410156 1.0625-4.84375.261719-1.21875.511719-2.425781.71875-3.375s.375-1.6875.375-1.6875c.050781-.214844.09375-.308594.09375-.3125s-.097656-.03125.1875-.03125h5.125c7.382813 0 13.59375-4.445312 15.25-12.1875.933594-4.378906-.183594-7.710937-2.3125-9.8125-1.878906-1.855469-4.460937-2.738281-6.9375-2.9375-.296875-2.972656-1.710937-5.292969-3.625-6.78125-2.011719-1.5625-4.503906-2.28125-6.875-2.28125zm0 2h16.46875c1.953125 0 4.050781.625 5.65625 1.875 1.464844 1.140625 2.449219 2.835938 2.75 5.125h-15.375c-.261719 0-.550781-.03125-1 .09375s-1 .648438-1.125 1.1875l-3.25 14.625v.0625l-2.25 10.03125h-8.90625c-.152344 0-.226562-.039062-.21875-.03125.007813.007813-.03125-.070312.03125-.4375.003906-.027344-.007812 0 0-.03125 1.160156-5.390625 7.019531-32.261719 7.03125-32.3125v-.03125c.03125-.101562.089844-.15625.1875-.15625zm9.25 9c.085938-.003906.082031 0 .25 0h15.46875c-.042969.652344-.132812 1.34375-.3125 2.1875-.742187 3.476563-2.246094 5.851563-4.4375 7.4375-2.191406 1.585938-5.136719 2.375-8.71875 2.375h-4.40625c-.152344 0-.339844.042969-.53125.0625zm17.625.15625c2.066406.183594 4.179688.855469 5.625 2.28125 1.652344 1.632813 2.578125 4.085938 1.75 7.96875-1.480469 6.914063-6.671875 10.59375-13.28125 10.59375h-5.125c-.746094 0-1.398437.332031-1.75.78125-.351562.449219-.429687.925781-.46875 1.09375-.046875.191406-.167969.769531-.375 1.71875s-.488281 2.1875-.75 3.40625c-.527344 2.433594-1.03125 4.8125-1.03125 4.8125-.019531.082031-.183594.1875-.21875.1875h-8.9375c-.167969 0-.226562-.023437-.25-.03125-.015625.078125.074219-.34375.1875-.875s.277344-1.277344.46875-2.15625c.378906-1.761719.875-4.070312 1.375-6.375 1-4.609375 2-9.1875 2-9.1875.046875-.144531.082031-.179687.25-.25.1875-.078125.507813-.125.75-.125h4.40625c3.878906 0 7.253906-.855469 9.875-2.75s4.425781-4.804687 5.25-8.65625c.1875-.878906.199219-1.648437.25-2.4375z"/></svg>