<svg fill="#666" height="50" viewBox="0 0 50 50" width="50" xmlns="http://www.w3.org/2000/svg"><path d="m25 4.0625c-12.585937 0-22.9375 8.863281-22.9375 19.9375 0 6.425781 3.5625 12.09375 8.9375 15.71875-.007812.214844 0 .546875-.28125 1.59375-.347656 1.292969-1.035156 3.125-2.46875 5.15625l-1.03125 1.4375 1.78125.03125c6.175781.027344 9.753906-4.03125 10.3125-4.6875 1.824219.40625 3.722656.6875 5.6875.6875 12.582031 0 22.9375-8.863281 22.9375-19.9375s-10.355469-19.9375-22.9375-19.9375zm0 1.875c11.714844 0 21.0625 8.152344 21.0625 18.0625s-9.347656 18.0625-21.0625 18.0625c-2.003906 0-3.949219-.242187-5.78125-.6875l-.5625-.125-.375.46875s-2.890625 3.257813-7.5 4.03125c.832031-1.492187 1.464844-2.878906 1.75-3.9375.398438-1.480469.40625-2.5.40625-2.5v-.5l-.4375-.28125c-5.226562-3.3125-8.5625-8.589844-8.5625-14.53125 0-9.910156 9.34375-18.0625 21.0625-18.0625z"/></svg>