<svg fill="#666" height="50" viewBox="0 0 50 50" width="50" xmlns="http://www.w3.org/2000/svg"><path d="m36 2c-6.617187 0-12 5.382813-12 12 0 1.515625.332031 2.949219.84375 4.28125l-21.40625 21.40625c-1.894531 1.894531-1.894531 4.980469 0 6.875s4.980469 1.894531 6.875 0l21.40625-21.40625c1.332031.511719 2.765625.84375 4.28125.84375 6.617188 0 12-5.382812 12-12 0-1.316406-.207031-2.570312-.59375-3.75l-.53125-1.5625-1.125 1.15625-7 6.96875-3.96875-1.59375-1.59375-3.96875 6.96875-7 1.15625-1.125-1.5625-.53125c-1.179687-.386719-2.433594-.59375-3.75-.59375zm0 2c.480469 0 .914063.152344 1.375.21875l-6.09375 6.0625-.46875.46875 2.25 5.625.15625.40625.40625.15625 5.625 2.25.46875-.46875 6.0625-6.09375c.066406.460938.21875.894531.21875 1.375 0 5.535156-4.464844 10-10 10-1.472656 0-2.863281-.332031-4.125-.90625l-.625-.28125-22.34375 22.34375c-1.128906 1.128906-2.933594 1.128906-4.0625 0s-1.128906-2.933594 0-4.0625l22.34375-22.34375-.28125-.625c-.574219-1.261719-.90625-2.652344-.90625-4.125 0-5.535156 4.464844-10 10-10z"/></svg>