<svg fill="#666" height="50" viewBox="0 0 50 50" width="50" xmlns="http://www.w3.org/2000/svg"><path d="m11 2v13h-6c-1.6449698 0-3 1.35503-3 3v18c0 1.64497 1.3550302 3 3 3h6v9h28v-9h6c1.64497 0 3-1.35503 3-3v-18c0-1.64497-1.35503-3-3-3h-6v-13zm2 2h24v11h-24zm-8 13h6.832031a1.0001 1.0001 0 0 0 .326172 0h25.673828a1.0001 1.0001 0 0 0 .326172 0h6.841797c.56503 0 1 .43497 1 1v18c0 .56503-.43497 1-1 1h-6v-9h-1-27v9h-6c-.5650302 0-1-.43497-1-1v-18c0-.56503.4349698-1 1-1zm36 3a2 2 0 0 0 -2 2 2 2 0 0 0 2 2 2 2 0 0 0 2-2 2 2 0 0 0 -2-2zm-28 10h24v7.832031a1.0001 1.0001 0 0 0 0 .326172v7.841797h-24v-7.832031a1.0001 1.0001 0 0 0 0-.326172zm4 3a1.0001 1.0001 0 1 0 0 2h16a1.0001 1.0001 0 1 0 0-2zm0 4a1.0001 1.0001 0 1 0 0 2h12a1.0001 1.0001 0 1 0 0-2zm0 4a1.0001 1.0001 0 1 0 0 2h16a1.0001 1.0001 0 1 0 0-2z"/></svg>