<svg fill="#666" height="50" viewBox="0 0 50 50" width="50" xmlns="http://www.w3.org/2000/svg"><path d="m25 2c-12.690705 0-23 10.309295-23 23s10.309295 23 23 23 23-10.309295 23-23-10.309295-23-23-23zm0 2c11.609824 0 21 9.390176 21 21s-9.390176 21-21 21-21-9.390176-21-21 9.390176-21 21-21zm-1 6v2.800781c-5.6.3-6.550781 4.498438-6.550781 6.398438 0 9.4 13.701172 4.4 13.701172 11.5 0 .9-.19961 4.90039-6.09961 4.90039-.2 0-6.301562.001172-6.101562-6.298828h-2.09961c.2 6.7 4.450391 7.598438 7.150391 7.898438v2.800781h2v-2.800781c6.7-.5 7.150391-5.5 7.150391-6.5 0-9-13.701172-4.398828-13.701172-11.298828 0-2.3.901562-5 5.601562-5 4.8 0 5.4 3.8 5.5 5.5h2.09961c.2-2.8-1.79961-6.89961-6.59961-7.09961v-2.800781z"/></svg>