<svg fill="#666" height="50" viewBox="0 0 50 50" width="50" xmlns="http://www.w3.org/2000/svg"><path d="m11.957031 13.988281c-.257812.015625-.5.128907-.675781.320313l-10.265625 10.691406 10.265625 10.691406c.246094.261719.613281.371094.960938.285157.347656-.085938.625-.351563.722656-.695313.101562-.347656.007812-.71875-.246094-.972656l-7.972656-8.308594h43.253906c.359375.003906.695313-.183594.878906-.496094.179688-.3125.179688-.695312 0-1.007812-.183593-.3125-.519531-.5-.878906-.496094h-43.253906l7.972656-8.308594c.292969-.292968.375-.734375.203125-1.109375-.167969-.378906-.550781-.613281-.964844-.59375z"/></svg>