<svg fill="#666" height="50" viewBox="0 0 50 50" width="50" xmlns="http://www.w3.org/2000/svg"><path d="m34 0c-8.820312 0-16 7.175781-16 16 0 1.960938.382813 3.824219 1.03125 5.5625l-18.75 18.71875-.28125.3125v6.8125l.28125.3125 2 2 .3125.28125h6.8125l.3125-.28125 3-3 .28125-.3125v-2.40625h2.40625l.3125-.28125 3-3 .28125-.3125v-1.40625h1.40625l.3125-.28125 2-2 .28125-.3125v-1.40625h1.40625l.3125-.28125 3.71875-3.75c1.738281.648438 3.601563 1.03125 5.5625 1.03125 8.820313 0 16-7.179687 16-16 0-8.824219-7.179687-16-16-16zm0 2c7.738281 0 14 6.257813 14 14 0 7.738281-6.261719 14-14 14-1.921875 0-3.742187-.363281-5.40625-1.0625-.011719-.011719-.019531-.019531-.03125-.03125-5.027344-2.125-8.5625-7.101562-8.5625-12.90625 0-7.742187 6.261719-14 14-14zm0 3c-2.816406 0-5.636719 1.074219-7.78125 3.21875l-.71875.71875.71875.6875 14.15625 14.15625.6875.71875.71875-.71875c4.289063-4.285156 4.289063-11.277344 0-15.5625-2.144531-2.144531-4.964844-3.21875-7.78125-3.21875zm0 2c2.300781 0 4.613281.863281 6.375 2.625 3.273438 3.273438 3.375 8.371094.5625 11.90625l-12.46875-12.46875c1.632813-1.296875 3.554688-2.0625 5.53125-2.0625zm-14.125 16.53125c1.496094 2.796875 3.796875 5.097656 6.59375 6.59375l-2.90625 2.875h-2.5625v2.5625l-1.4375 1.4375h-2.5625v2.5625l-2.4375 2.4375h-3.5625v3.5625l-2.4375 2.4375h-5.125l-1-1 16.5625-16.5625c.359375-.308594.457031-.824219.230469-1.238281-.226563-.417969-.714844-.617188-1.167969-.480469-.191406.042969-.363281.140625-.5.28125l-15.5625 15.59375v-3.15625z"/></svg>