<svg fill="#666" height="50" viewBox="0 0 50 50" width="50" xmlns="http://www.w3.org/2000/svg"><path d="m36.984375 1.984375c-.046875.003906-.097656.007813-.144531.015625h-16.839844v5.757813l2 2v-5.757813h14v10h10v24h-14v2h16v-26.832031c.019531-.109375.019531-.21875 0-.324219v-.257812l-.191406-.195313c-.054688-.066406-.117188-.128906-.183594-.183594-.003906 0-.003906-.003906-.007812-.003906l-9.824219-9.828125c-.054688-.070312-.117188-.132812-.1875-.1875l-.191406-.1875h-.257813c-.058594-.007812-.113281-.015625-.171875-.015625zm1.015625 3.429688 6.585938 6.585937h-6.585938zm-19.015625 4.570312c-.046875.003906-.097656.007813-.144531.015625h-16.839844v38h28v-26.832031c.019531-.109375.019531-.21875 0-.324219v-.257812l-.191406-.195313c-.054688-.070312-.121094-.132812-.191406-.1875l-9.824219-9.828125c-.054688-.070312-.117188-.132812-.1875-.1875l-.191406-.1875h-.257813c-.058594-.007812-.113281-.015625-.171875-.015625zm-14.984375 2.015625h14v10h10v24h-24zm16 1.414063 6.585938 6.585937h-6.585938zm10.242188 4.585937 2 2h9.757812v-2zm1.757812 6v2h6v-2zm-24 2v2h16v-2zm24 4v2h10v-2zm-24 2v2h12v-2zm0 6v2h16v-2z"/></svg>