<svg fill="#666" height="50" viewBox="0 0 50 50" width="50" xmlns="http://www.w3.org/2000/svg"><path d="m1.8125 2c-.03125.007813-.0625.019531-.09375.03125-.972656.136719-1.71875.960938-1.71875 1.96875 0 1.105469.894531 2 2 2s2-.894531 2-2h4.65625c1.246094 0 1.894531.257813 2.375.6875.472656.425781.855469 1.144531 1.1875 2.25l8 32.28125c.300781 1.144531.601563 2.324219 1.4375 3.28125.347656.398438.785156.722656 1.3125.96875-.585937.695313-.96875 1.558594-.96875 2.53125 0 2.199219 1.800781 4 4 4s4-1.800781 4-4c0-.734375-.214844-1.40625-.5625-2h6.125c-.347656.59375-.5625 1.265625-.5625 2 0 2.199219 1.800781 4 4 4s4-1.800781 4-4c0-1.027344-.417969-1.945312-1.0625-2.65625.113281-.304687.066406-.648437-.117187-.914062-.1875-.269532-.492188-.429688-.820313-.429688h-15.28125c-1.542969 0-2.171875-.328125-2.59375-.8125-.417969-.480469-.671875-1.320312-.96875-2.4375v-.03125l-.6875-2.71875h18.34375c.417969 0 .796875-.261719.9375-.65625l7.1875-19c.117188-.304687.074219-.648437-.113281-.917969-.1875-.269531-.496094-.429687-.824219-.425781h-30.71875l-2.125-8.53125c0-.019531 0-.042969 0-.0625-.382812-1.289062-.878906-2.40625-1.78125-3.21875s-2.171875-1.1875-3.71875-1.1875h-6.65625c-.03125 0-.0625 0-.09375 0s-.0625 0-.09375 0zm14.96875 15h28.78125l-6.4375 17h-18.125zm9.21875 27c1.117188 0 2 .882813 2 2 0 1.117188-.882812 2-2 2-1.117187 0-2-.882812-2-2 0-1.117187.882813-2 2-2zm13 0c1.117188 0 2 .882813 2 2 0 1.117188-.882812 2-2 2-1.117187 0-2-.882812-2-2 0-1.117187.882813-2 2-2z"/></svg>