<svg fill="#666" height="50" viewBox="0 0 50 50" width="50" xmlns="http://www.w3.org/2000/svg"><path d="m7 2v46h36v-32.589844l-13.816406-13.410156zm2 2h19v13h13v29h-32zm21 1.578125 9.707031 9.421875h-9.707031zm-8.675781 17.890625c-2.144531 0-4.246094 1.527344-4.292969 5.203125-.027344 1.738281.4375 3.238281 1.308594 4.078125.675781.675781 1.542969 1.003906 2.699219 1.003906.734375 0 1.664062-.175781 2.101562-.359375v-5.398437h-2.71875v1.605469h.902344v2.445312c-.074219.027344-.210938.046875-.390625.046875-.914063 0-1.859375-.875-1.859375-3.304687 0-2.640625 1.066406-3.554688 2.398437-3.554688.496094 0 .871094.078125 1.15625.226563l.34375-1.695313c-.3125-.152344-.882812-.296875-1.648437-.296875zm3.285156.089844v10.109375h1.964844v-10.109375zm3.71875 0v10.109375h1.96875v-4.171875h2.277344v-1.636719h-2.277344v-2.59375h2.425781v-1.707031z"/></svg>