<svg fill="#666" height="50" viewBox="0 0 50 50" width="50" xmlns="http://www.w3.org/2000/svg"><path d="m12.3125 1c-1.929687 0-3.367187.644531-4.21875 1.65625-.851562 1.011719-1.09375 2.269531-1.09375 3.34375 0 2.554688 1.382813 4.628906 3.28125 5.96875.585938.414063 1.207031.742188 1.875 1.03125h-11.15625v11h2v25h44v-25h2v-11h-11.15625c.667969-.289062 1.289063-.617187 1.875-1.03125 1.898438-1.339844 3.28125-3.414062 3.28125-5.96875 0-1.074219-.242187-2.332031-1.09375-3.34375-.851562-1.011719-2.289062-1.65625-4.21875-1.65625-1.996094 0-3.609375.84375-4.8125 2s-2.066406 2.613281-2.875 4-1.570312 2.71875-2.375 3.625c-.804687.90625-1.539062 1.375-2.625 1.375-1.085937 0-1.820312-.46875-2.625-1.375-.804687-.90625-1.566406-2.238281-2.375-3.625s-1.671875-2.84375-2.875-4-2.816406-2-4.8125-2zm0 2c1.464844 0 2.464844.53125 3.40625 1.4375s1.769531 2.199219 2.5625 3.5625 1.570313 2.78125 2.59375 3.9375c.019531.023438.042969.039063.0625.0625h-3.9375c-2.015625 0-4.097656-.601562-5.59375-1.65625-1.496094-1.054687-2.40625-2.480469-2.40625-4.34375 0-.753906.179688-1.5.625-2.03125.445313-.53125 1.175781-.96875 2.6875-.96875zm25.375 0c1.511719 0 2.242188.4375 2.6875.96875.445313.53125.625 1.277344.625 2.03125 0 1.863281-.910156 3.289063-2.40625 4.34375-1.496094 1.054688-3.578125 1.65625-5.59375 1.65625h-3.9375c.019531-.023437.042969-.039062.0625-.0625 1.023438-1.15625 1.800781-2.574219 2.59375-3.9375s1.621094-2.65625 2.5625-3.5625 1.941406-1.4375 3.40625-1.4375zm-34.6875 12h16v7h-16zm18 0h8v7.8125.09375.09375c-.007812.074219-.007812.144531 0 .21875v23.78125h-8v-23.8125c.007813-.0625.007813-.125 0-.1875.003906-.042969.003906-.082031 0-.125 0-.03125 0-.0625 0-.09375zm10 0h16v7h-16zm-26 9h14v23h-14zm26 0h14v23h-14z"/></svg>