<svg fill="#666" height="50" viewBox="0 0 50 50" width="50" xmlns="http://www.w3.org/2000/svg"><path d="m9 4c-2.7495161 0-5 2.2504839-5 5v32c0 2.749516 2.2504839 5 5 5h32c2.749516 0 5-2.250484 5-5v-32c0-2.7495161-2.250484-5-5-5zm0 2h32c1.668484 0 3 1.3315161 3 3v32c0 1.668484-1.331516 3-3 3h-32c-1.6684839 0-3-1.331516-3-3v-32c0-1.6684839 1.3315161-3 3-3zm17.173828 5c-4.134 0-4.173828 10.271-4.173828 10.375 0 1.208-.000922 2 .080078 3-.569-.197-1.230125-.322266-1.953125-.322266-4.246 0-6.126953 4.324141-6.126953 7.994141 0 3.461 2.055391 6.953125 6.650391 6.953125 2.167 0 3.999656-1.340797 5.472656-3.341797 1.306 1.28 2.673265 1.322266 3.697265 1.322266 3.216 0 5.345329-5.802719 6.111329-8.136719.244-.747-.187797-1.543297-.966797-1.779297-.772-.232-1.609516.178781-1.853516.925781-.905 2.756-1.857328 5.289766-3.361328 6.009766-.525.251-1.332-.076-2.125-1.125 1.843-3.727 2.375-8.254 2.375-11.375 0-8.726-1.864172-10.5-3.826172-10.5zm.117188 3.046875c.466.665.753906 2.689172.753906 7.451172-.001 2.528-.120688 5.52075-1.054688 8.09375-.616-2.001-1.033203-4.69975-1.033203-8.21875 0-3.244.724985-6.285172 1.333985-7.326172zm-6.166016 12.953125c1.259 0 2.224609.808547 2.224609.810547.072.072.150422.134453.232422.189453.413 1.973 1.048703 3.926734 1.720703 5.177734-1.102 1.802-2.406734 2.822266-3.677734 2.822266-3.335 0-3.625-2.638-3.625-3.875 0-.195-.061-5.125 3.125-5.125z"/></svg>