<svg fill="#666" height="50" viewBox="0 0 50 50" width="50" xmlns="http://www.w3.org/2000/svg"><path d="m5.9511719 4.0058594c-1.0516114 0-1.9453125.8610011-1.9453125 1.9257812v25.0800784c0 .358137.0956515.683942.2519531.96875-.0652914.11311-.1243387.234551-.1679687.373047a.89558955.89558955 0 0 0 -.0019532.001953l-2.8222656 8.996093a.97959795.97959795 0 0 0 -.2460938.648438v3c.0000002 1.059495.8554868 1.980469 1.9375 1.980469h44.0839848c1.081969 0 1.939453-.920974 1.939453-1.980469v-3a.97959795.97959795 0 0 0 -.246094-.648438l-2.822266-8.996093c-.043872-.140554-.103764-.26257-.169921-.376953.155782-.284466.251953-.609296.251953-.966797v-25.0800784c0-1.0647801-.893701-1.9257812-1.945313-1.9257812zm.0429687 1.9882812h38.0117184v25.0175784c0-.0974-.078539-.00586-.005859-.00586h-4.898438a1.0001 1.0001 0 0 0 -.101562-.005859h-28a1.0001 1.0001 0 0 0 -.099609.005859h-4.900391c.072717 0-.0058594-.09158-.0058594.00586zm-.2226562 26.9785154c.0045053.000486.0091563-.000457.0136718 0 .0022591.007694.0095512.004309.0175782.001953.065962.006129.1293038.019532.1972656.019532h3.7207031l-.6914062 2.763671a1.0001 1.0001 0 0 0 .9707031 1.242188h30a1.0001 1.0001 0 0 0 .970703-1.242188l-.691406-2.763671h3.720703c.066565 0 .12871-.011697.193359-.017579.010514.004353.020775.005409.023438-.003906.003869-.000395.007857.000416.011719 0l2.52539 8.046875h-43.5078122zm6.0097656.027344h26.4375l.5 2h-27.4375zm9.21875 5-1 2h10l-1-2zm-18.0195312 4.980469h44.0390622v2.019531c0 .04451-.00048.019531.021485.019531h-44.0625004c.001006-.002459.0019528-.003606.0019532-.019531z"/></svg>