<svg fill="#666" height="50" viewBox="0 0 50 50" width="50" xmlns="http://www.w3.org/2000/svg"><path d="m24.84375 0c-.335937.0585938-.617187.28125-.75.59375l-21.90625 48c-.164062.347656-.117187.757813.121094 1.054688.238281.300781.628906.4375 1.003906.351562.054688-.015625.105469-.039062.15625-.0625l21.53125-8.28125 21.53125 8.28125c.058594.027344.125.046875.1875.0625.132813.027344.273438.027344.40625 0 .101563-.027344.195313-.070312.28125-.125.445313-.257812.621094-.8125.40625-1.28125l-21.90625-48c-.078125-.179687-.210937-.332031-.375-.4375-.203125-.1328125-.445312-.1875-.6875-.15625zm-.84375 5.59375v34.3125l-19 7.28125zm2 0 1.3125 2.84375 1.625 3.5625c-.523437.035156-.9375.46875-.9375 1 0 .550781.449219 1 1 1 .277344 0 .539063-.101562.71875-.28125l4.78125 10.4375c-.292969.175781-.5.480469-.5.84375 0 .550781.449219 1 1 1 .101563 0 .1875-.035156.28125-.0625l3.34375 7.28125c-.171875-.136719-.386719-.21875-.625-.21875-.550781 0-1 .449219-1 1s.449219 1 1 1c.542969 0 .984375-.429687 1-.96875l1.125 2.5c-.078125.140625-.125.296875-.125.46875 0 .472656.34375.832031.78125.9375l3.21875 7.0625c-.550781 0-1 .449219-1 1 0 .175781.074219.324219.15625.46875l-7.40625-2.84375c.144531-.171875.25-.382812.25-.625 0-.550781-.449219-1-1-1-.542969 0-.984375.429688-1 .96875l-7.0625-2.71875c.023438-.085937.0625-.15625.0625-.25 0-.550781-.449219-1-1-1v-4c.550781 0 1-.449219 1-1s-.449219-1-1-1v-4c.550781 0 1-.449219 1-1s-.449219-1-1-1v-4c.550781 0 1-.449219 1-1s-.449219-1-1-1v-4c.550781 0 1-.449219 1-1s-.449219-1-1-1v-4c.550781 0 1-.449219 1-1s-.449219-1-1-1zm3 12.40625c-.550781 0-1 .449219-1 1s.449219 1 1 1 1-.449219 1-1-.449219-1-1-1zm3 3c-.550781 0-1 .449219-1 1s.449219 1 1 1 1-.449219 1-1-.449219-1-1-1zm-3 3c-.550781 0-1 .449219-1 1s.449219 1 1 1 1-.449219 1-1-.449219-1-1-1zm3 3c-.550781 0-1 .449219-1 1s.449219 1 1 1 1-.449219 1-1-.449219-1-1-1zm-3 3c-.550781 0-1 .449219-1 1s.449219 1 1 1 1-.449219 1-1-.449219-1-1-1zm6 0c-.550781 0-1 .449219-1 1s.449219 1 1 1 1-.449219 1-1-.449219-1-1-1zm-3 3c-.550781 0-1 .449219-1 1s.449219 1 1 1 1-.449219 1-1-.449219-1-1-1zm-3 3c-.550781 0-1 .449219-1 1s.449219 1 1 1 1-.449219 1-1-.449219-1-1-1zm6 0c-.550781 0-1 .449219-1 1s.449219 1 1 1 1-.449219 1-1-.449219-1-1-1zm-3 3c-.550781 0-1 .449219-1 1s.449219 1 1 1 1-.449219 1-1-.449219-1-1-1zm6 0c-.550781 0-1 .449219-1 1s.449219 1 1 1 1-.449219 1-1-.449219-1-1-1zm3 3c-.550781 0-1 .449219-1 1s.449219 1 1 1 1-.449219 1-1-.449219-1-1-1zm3.75 4.65625.25.53125-.6875-.25c.167969-.058594.324219-.152344.4375-.28125z"/></svg>