<svg fill="#666" height="50" viewBox="0 0 50 50" width="50" xmlns="http://www.w3.org/2000/svg"><path d="m22 3.59375-1.59375 1.21875-19 14.375-1.0625.8125 1.0625.8125 19 14.375 1.59375 1.21875v-10.3125c12.339844.253906 18.796875 4.644531 22.1875 9.03125 3.492188 4.519531 3.8125 8.9375 3.8125 8.9375l2-.03125v-.09375-.03125c.007813-.195312.226563-7.445312-3.21875-14.84375-3.40625-7.320312-10.644531-14.648437-24.78125-15zm-2 4.03125v8.375h1c14.167969 0 20.710938 6.9375 23.96875 13.9375.945313 2.03125 1.550781 3.980469 2 5.84375-.386719-.636719-.6875-1.261719-1.1875-1.90625-3.851562-4.980469-11.230469-9.875-24.78125-9.875h-1v8.375l-16.34375-12.375z"/></svg>