<svg fill="#666" height="50" viewBox="0 0 50 50" width="50" xmlns="http://www.w3.org/2000/svg"><path d="m25 0c-3.5 0-6.804687 1.292969-9.40625 3.59375-2.898437 2.601563-4.59375 6.40625-4.59375 10.40625 0 1.101563.898438 2 2 2h2c1.101563 0 2-.898437 2-2 0-2.300781.988281-4.398437 2.6875-6 1.5-1.300781 3.3125-2 5.3125-2 .300781 0 .605469-.007812.90625.09375 3.699219.398438 6.601563 3.398438 7 7 .398438 3.300781-1.320312 6.398438-4.21875 8-4.199219 2.199219-6.78125 6.398438-6.78125 11v5.90625c0 1.101563.898438 2 2 2h2c1.101563 0 2-.898437 2-2v-5.90625c0-2.300781 1.394531-4.488281 3.59375-5.6875 5.101563-2.699219 8.011719-8.207031 7.3125-13.90625-.601562-6.5-5.820312-11.707031-12.21875-12.40625-.5-.1015625-1.09375-.09375-1.59375-.09375zm0 2c.398438 0 .914063-.007812 1.3125.09375 5.5.601563 9.992188 5.09375 10.59375 10.59375.5 4.898438-1.914062 9.601563-6.3125 12-2.800781 1.398438-4.59375 4.304688-4.59375 7.40625v5.90625h-2v-5.90625c0-3.800781 2.1875-7.386719 5.6875-9.1875 3.601563-1.898437 5.71875-5.898437 5.21875-10-.5-4.601562-4.210937-8.3125-8.8125-8.8125-.300781-.101562-.695312-.09375-1.09375-.09375-2.5 0-4.789062.898438-6.6875 2.5-2.101562 1.898438-3.3125 4.699219-3.3125 7.5h-2c0-3.398437 1.5-6.707031 4-8.90625 2.199219-2 5.101563-3.09375 8-3.09375zm-2.1875 42c-.476562.089844-.820312.511719-.8125 1v4c0 .550781.449219 1 1 1h4c.550781 0 1-.449219 1-1v-4c0-.550781-.449219-1-1-1h-4c-.03125 0-.0625 0-.09375 0s-.0625 0-.09375 0zm1.1875 2h2v2h-2z"/></svg>