<svg fill="#666" height="50" viewBox="0 0 50 50" width="50" xmlns="http://www.w3.org/2000/svg"><path d="m25 1.96875c-.5 0-1.003906.128906-1.449219.390625-.007812 0-.011718.003906-.019531.007813 0 0-5.261719 3.203125-10.53125 6.480468-2.632812 1.640625-5.265625 3.296875-7.257812 4.589844-.992188.648438-1.824219 1.203125-2.421875 1.625-.300782.214844-.542969.390625-.734375.546875-.09375.078125-.175782.148438-.265625.242188-.046875.046875-.09375.097656-.15625.1875-.058594.089843-.175782.203125-.195313.5625-.035156.625.148438.65625.242188.804687.089843.148438.195312.28125.316406.4375.246094.304688.566406.667969.949219 1.082031.136718.144532.339843.347657.492187.507813 0 3.316406.007813 10.246094.011719 11.847656-.605469.359375-.980469 1.011719-.980469 1.71875 0 .230469.042969.460938.121094.679688-.675781.546875-1.121094 1.363281-1.121094 2.289062 0 1.179688.613281 2.183594 1.144531 3.066406.53125.886719 1.0625 1.574219 1.0625 1.574219.1875.246094.480469.390625.789063.390625s.601562-.140625.792969-.382812c0 0 .53125-.679688 1.066406-1.558594.535156-.882813 1.144531-1.898438 1.144531-3.089844 0-.925781-.445312-1.742187-1.121094-2.289062.078125-.21875.121094-.449219.121094-.679688 0-.695312-.363281-1.339844-.953125-1.703125 0-1.296875-.007812-5.898437-.011719-9.730469.078125.078125.140625.148438.222657.226563 1.855468 1.859375 3.433593 3.375 3.710937 3.644531-1.003906.53125-1.96875 1.792969-1.96875 3.785156 0 2.050782 1.269531 4 3.253906 4.5625 1.277344 3.238282 2.902344 6.636719 5.054688 9.324219 2.210937 2.761719 5.054687 4.816406 8.523437 4.878906.054688.007813.105469.011719.160157.011719h.003906.007812.011719c.039063 0 .082031-.003906.125-.011719 3.480469-.050781 6.332031-2.109375 8.550781-4.878906 2.152344-2.6875 3.777344-6.085937 5.054688-9.324219 1.984375-.5625 3.253906-2.511718 3.253906-4.5625 0-1.992187-.964844-3.253906-1.96875-3.785156.277344-.269531 1.855469-1.785156 3.714844-3.644531 1.003906-1.007813 2.011719-2.039063 2.777344-2.867188.382812-.414062.703125-.777343.949218-1.082031.121094-.15625.226563-.289062.320313-.4375.089844-.148437.273437-.179687.238281-.804687-.019531-.363282-.136719-.476563-.199219-.566407-.058593-.085937-.105468-.136718-.152343-.183593-.089844-.09375-.171875-.164063-.269532-.242188-.1875-.15625-.429687-.332031-.730468-.546875-.597657-.421875-1.429688-.976562-2.425782-1.625-1.988281-1.292969-4.621093-2.949219-7.253906-4.589844-5.269531-3.277343-10.53125-6.480468-10.53125-6.480468-.007812-.003907-.011719-.007813-.019531-.007813-.445313-.261719-.949219-.390625-1.449219-.390625zm0 2.0625c.140625 0 .28125.039063.410156.113281.019532.011719 5.25 3.191407 10.496094 6.457032 2.628906 1.636718 5.257813 3.292968 7.222656 4.570312.984375.640625 1.800782 1.1875 2.359375 1.578125.054688.039063.070313.054688.117188.089844-.175781.207031-.34375.40625-.601563.683594-.730468.792968-1.722656 1.808593-2.722656 2.808593-1.621094 1.625-2.695312 2.65625-3.25 3.1875v-4.519531c0-.359375-.183594-.691406-.492187-.878906 0 0-5.199219-3.152344-13.539063-3.152344s-13.539062 3.152344-13.539062 3.152344c-.308594.1875-.492188.519531-.492188.878906v4.519531c-.554687-.53125-1.628906-1.5625-3.25-3.1875-.679687-.675781-1.257812-1.285156-1.851562-1.90625-.070313-.113281-.167969-.210937-.277344-.285156-.183594-.195312-.4375-.441406-.597656-.613281-.253907-.28125-.421875-.484375-.601563-.6875.050781-.039063.066406-.050781.121094-.089844.558594-.394531 1.375-.941406 2.359375-1.578125 1.964844-1.28125 4.59375-2.933594 7.222656-4.570312 5.246094-3.265625 10.476563-6.445313 10.496094-6.457032.128906-.074218.269531-.113281.410156-.113281zm0 13c7.242188 0 11.332031 2.269531 11.96875 2.636719v3.972656c-1.574219-.523437-5.429687-1.671875-11.96875-1.671875-6.539062 0-10.394531 1.148438-11.96875 1.671875v-3.972656c.636719-.367188 4.726563-2.636719 11.96875-2.636719zm0 7c6.390625 0 10.636719 1.253906 12 1.71875v1.363281l1.109375-.117187s.492188-.039063.953125.1875c.464844.222656.9375.546875.9375 2.039062 0 1.402344-.90625 2.660157-2.101562 2.78125l-.613282.0625-.21875.574219c-1.257812 3.257813-2.90625 6.679688-4.9375 9.21875-2.03125 2.535156-4.359375 4.140625-7.125 4.140625-.003906 0-.003906 0-.007812 0-2.765625 0-5.09375-1.605469-7.125-4.140625-2.03125-2.539062-3.679688-5.960937-4.9375-9.21875l-.21875-.574219-.613281-.0625c-1.195313-.121093-2.101563-1.378906-2.101563-2.78125 0-1.492187.472656-1.816406.9375-2.039062.460938-.226563.953125-.1875.953125-.1875l1.109375.117187v-1.363281c1.363281-.464844 5.609375-1.71875 12-1.71875zm-20 10.96875c.574219 0 1 .433594 1 .96875 0 .285156-.390625 1.28125-.855469 2.046875-.070312.117188-.070312.101563-.140625.207031-.070312-.113281-.074218-.097656-.148437-.21875-.46875-.773437-.855469-1.789062-.855469-2.035156 0-.535156.425781-.96875 1-.96875z"/></svg>