<svg fill="#666" height="50" viewBox="0 0 50 50" width="50" xmlns="http://www.w3.org/2000/svg"><path d="m5 5c-2.75 0-5 2.25-5 5v29c0 2.75 2.25 5 5 5h16c1.664063 0 3 1.351563 3 3 0 .308594.144531.601563.386719.789063.246094.191406.5625.257812.863281.179687.261719-.066406.488281-.234375.625-.46875.085938-.152344.128906-.324219.125-.5 0-1.648437 1.335938-3 3-3h16c2.75 0 5-2.25 5-5v-29c0-2.75-2.25-5-5-5h-16c-1.632812 0-3.085937.8125-4 2.03125-.914062-1.21875-2.367187-2.03125-4-2.03125zm0 2h16c1.667969 0 3 1.332031 3 3v33.125c-.847656-.660156-1.851562-1.125-3-1.125h-16c-1.667969 0-3-1.332031-3-3v-29c0-1.667969 1.332031-3 3-3zm24 0h16c1.667969 0 3 1.332031 3 3v29c0 1.667969-1.332031 3-3 3h-16c-1.148437 0-2.152344.464844-3 1.125v-33.125c0-1.667969 1.332031-3 3-3z"/></svg>