<svg fill="#666" height="50" viewBox="0 0 50 50" width="50" xmlns="http://www.w3.org/2000/svg"><path d="m5.8125 0c-.476562.0898438-.820312.511719-.8125 1v44c0 .550781.449219 1 1 1h3v3c0 .550781.449219 1 1 1h34c.550781 0 1-.449219 1-1v-44c0-.550781-.449219-1-1-1h-3v-3c0-.550781-.449219-1-1-1h-34c-.03125 0-.0625 0-.09375 0s-.0625 0-.09375 0zm1.1875 2h32v42h-32zm34 4h2v42h-32v-2h29c.550781 0 1-.449219 1-1zm-17.8125 4.5c-3.699219 0-6.1875 2.289063-6.6875 5.6875 0 .199219.113281.40625.3125.40625l2.28125.40625c.199219 0 .40625-.113281.40625-.3125.398438-2.199219 1.6875-3.375 3.6875-3.375 2.101563 0 3.5 1.28125 3.5 3.28125 0 1.300781-.386719 2.113281-1.6875 3.8125l-2.40625 3.28125c-.800781 1-1.09375 1.820313-1.09375 3.21875v1.5c0 .199219.210938.40625.3125.40625h2.375c.300781 0 .40625-.207031.40625-.40625v-1.09375c0-1.199219.207031-1.71875.90625-2.71875l2.40625-3.28125c1.199219-1.699219 1.78125-3.019531 1.78125-4.71875 0-3.601562-2.601562-6.09375-6.5-6.09375zm-1.375 21c-.300781 0-.40625.207031-.40625.40625v3.09375c0 .300781.207031.40625.40625.40625h2.6875c.300781 0 .40625-.207031.40625-.40625v-3.09375c0-.300781-.207031-.40625-.40625-.40625z"/></svg>