<svg fill="#666" height="50" viewBox="0 0 50 50" width="50" xmlns="http://www.w3.org/2000/svg"><path d="m7.6875 0c-.90625 0-1.605469.613281-1.8125 1.46875h-.03125l-.03125.125-5.59375 17.53125c-.015625.035156-.046875.058594-.0625.09375v.0625c-.046875.089844-.078125.183594-.09375.28125-.0039062.011719-.0273437.019531-.03125.03125-.0039062.050781-.0039062.105469 0 .15625-.0117187.082031-.03125.164063-.03125.25v8c0 .359375.109375.707031.28125 1-.171875.292969-.28125.640625-.28125 1v8c0 .359375.109375.707031.28125 1-.171875.292969-.28125.640625-.28125 1v8c0 1.09375.90625 2 2 2h46c1.09375 0 2-.90625 2-2v-8c0-.359375-.109375-.707031-.28125-1 .171875-.292969.28125-.640625.28125-1v-8c0-.359375-.109375-.707031-.28125-1 .171875-.292969.28125-.640625.28125-1v-8c0-.277344-.082031-.539062-.1875-.78125 0-.011719 0-.019531 0-.03125l-5.625-17.59375-.03125-.125h-.03125c-.207031-.855469-.90625-1.46875-1.8125-1.46875zm.09375 2h34.46875v.0625l5.09375 15.9375h-44.71875l5.125-15.9375c.011719-.019531.023438-.042969.03125-.0625zm-5.78125 18h46v8h-46v-7.9375c0-.019531 0-.042969 0-.0625zm41 2c-1.105469 0-2 .894531-2 2s.894531 2 2 2 2-.894531 2-2-.894531-2-2-2zm-41 8h46v8h-46zm41 2c-1.105469 0-2 .894531-2 2s.894531 2 2 2 2-.894531 2-2-.894531-2-2-2zm-41 8h46v8h-46zm41 2c-1.105469 0-2 .894531-2 2s.894531 2 2 2 2-.894531 2-2-.894531-2-2-2z"/></svg>