<svg fill="#666" height="50" viewBox="0 0 50 50" width="50" xmlns="http://www.w3.org/2000/svg"><path d="m24.984375-.01367188a1.0001 1.0001 0 0 0 -.984375 1.01367188v7.5859375l-4.292969-4.2929687a1.0001 1.0001 0 0 0 -.716797-.3027344 1.0001 1.0001 0 0 0 -.697265 1.7167968l5.707031 5.7070308v11.855469l-10.265625-5.927734-2.087891-7.7968751a1.0001 1.0001 0 0 0 -.947265-.7539063 1.0001 1.0001 0 0 0 -.9843752 1.2714844l1.5703122 5.865234-6.5703122-3.792968a1.0001 1.0001 0 0 0 -.4746094-.142578 1.0001 1.0001 0 0 0 -.0996094.001953 1.0001 1.0001 0 0 0 -.4257812 1.871093l6.5703122 3.792969-5.863281 1.572266a1.0001 1.0001 0 1 0 .5175781 1.93164l7.7968749-2.08789 10.265625 5.925781-10.265625 5.925781-7.7968749-2.08789a1.0001 1.0001 0 0 0 -.296875-.03711 1.0001 1.0001 0 0 0 -.2207031 1.96875l5.863281 1.572266-6.5703122 3.792969a1.0001 1.0001 0 1 0 1 1.730468l6.5703122-3.792968-1.5703122 5.865234a1.0001 1.0001 0 1 0 1.9316402.517578l2.087891-7.796875 10.265625-5.927734v11.855469l-5.707031 5.707031a1.0001 1.0001 0 1 0 1.414062 1.414062l4.292969-4.292969v7.585938a1.0001 1.0001 0 1 0 2 0v-7.585938l4.292969 4.292969a1.0001 1.0001 0 1 0 1.414062-1.414062l-5.707031-5.707031v-11.855469l10.265625 5.927734 2.087891 7.796875a1.0001 1.0001 0 1 0 1.93164-.517578l-1.570312-5.865234 6.570312 3.792968a1.0001 1.0001 0 1 0 1-1.730468l-6.570312-3.792969 5.863281-1.572266a1.0001 1.0001 0 0 0 -.25-1.96875 1.0001 1.0001 0 0 0 -.267578.03711l-7.796875 2.08789-10.265625-5.925781 10.265625-5.925781 7.796875 2.08789a1.0001 1.0001 0 1 0 .517578-1.93164l-5.863281-1.572266 6.570312-3.792969a1.0001 1.0001 0 0 0 -.455078-1.871093 1.0001 1.0001 0 0 0 -.544922.140625l-6.570312 3.792968 1.570312-5.865234a1.0001 1.0001 0 0 0 -1.015625-1.2714844 1.0001 1.0001 0 0 0 -.916015.7539063l-2.087891 7.7968751-10.265625 5.927734v-11.855469l5.707031-5.7070308a1.0001 1.0001 0 1 0 -1.414062-1.4140624l-4.292969 4.2929687v-7.5859375a1.0001 1.0001 0 0 0 -1.015625-1.01367188z"/></svg>