<svg fill="#666" height="50" viewBox="0 0 50 50" width="50" xmlns="http://www.w3.org/2000/svg"><path d="m25 2.0078125c-12.690704 0-22.9999998 10.3092955-23 22.9999995 0 12.690706 10.309295 23 23 23s23-10.309294 23-23c0-12.690704-10.309296-22.9999995-23-22.9999995zm0 2c11.609824 0 21 9.3901755 21 20.9999995 0 5.732697-2.296001 10.918044-6.011719 14.705079-1.829783-1.34332-4.060232-2.017311-5.949219-2.689453-1.06387-.378549-2.020411-.75368-2.71875-1.171876-.668808-.400511-1.040223-.812096-1.236328-1.285156-.09185-1.146861-.073246-2.070153-.066406-3.160156.121152-.120656.276577-.205427.400391-.351562.291988-.34463.589284-.763408.873047-1.234376.486588-.807601.840657-1.795399 1.039062-2.796874.302972-.154438.626621-.18786.873047-.501954.454973-.579907.762108-1.396002.898437-2.533203.120892-1.004049-.202605-1.694621-.61914-2.224609.448107-1.464821 1.002898-3.794331.814453-6.205078-.103672-1.326306-.437408-2.661327-1.240234-3.771485-.766468-1.05988-2.010855-1.8217448-3.603516-2.0976559-1.011557-1.1484756-2.618421-1.6894531-4.539063-1.6894531h-.009765-.007813c-4.302743.078993-7.078932 1.8598398-8.267578 4.576172-1.130291 2.582977-.887303 5.798598-.076172 9.146484-.436026.530024-.777588 1.233774-.654296 2.265625.136844 1.136817.443802 1.953249.898437 2.533203.246243.31412.569933.347427.873047.501954.198374 1.000696.552515 1.987152 1.039062 2.794921.283763.471106.580753.889462.873047 1.234375.123845.14614.279097.232788.400391.353516.0065 1.08943.024974 2.012364-.066406 3.160156-.195722.471317-.566646.88312-1.234375 1.285156-.697232.419802-1.652626.797015-2.714844 1.177735-1.886992.676334-4.116187 1.355162-5.951172 2.6875-3.7179952-3.787374-6.015625-8.9743-6.015625-14.708985.0000002-11.609823 9.390176-20.9999995 21-20.9999995zm-.078125 5.9941405c1.844126.0019 3.004405.54791 3.322266 1.105469l.24414.427734.486328.066406c1.256179.174546 1.958046.662017 2.460938 1.357422s.781988 1.665911.867187 2.75586c.1704 2.179897-.453605 4.754061-.849609 5.945312l-.251953.75586.68164.414062c-.06934-.04222.320485.188531.232422.919922-.10667.889799-.33405 1.343017-.486328 1.537109-.152277.194093-.217464.169301-.201172.167969l-.824218.06836-.087891.822265c-.07543.706466-.472775 1.67009-.9375 2.441406-.232363.385658-.479582.729208-.6875.97461-.207918.245401-.429343.397398-.345703.353515l-.535156.279297v.605469c0 1.324321-.053953 2.407291.085937 3.949219l.011719.132812.046875.125c.393532 1.05904 1.214978 1.806227 2.138672 2.359375.923693.553149 1.983418.952971 3.076172 1.341797 1.800955.64082 3.678324 1.271454 5.109375 2.203125-3.646288 3.054122-8.34295 4.896484-13.478516 4.896484-5.133578 0-9.828917-1.84058-13.474609-4.892578 1.439177-.926325 3.319344-1.558742 5.117187-2.203125 1.092032-.391405 2.148982-.792926 3.070313-1.347656.92133-.55473 1.739837-1.301791 2.132812-2.357422l.046875-.125.011719-.132812c.138745-1.540737.085937-2.62391.085937-3.949219v-.605469l-.535156-.28125c.08375.04381-.137716-.108085-.345703-.353515s-.455138-.586887-.6875-.972657c-.464724-.771538-.8621-1.735929-.9375-2.441406l-.087891-.822265-.824218-.06836c.01545.0013-.04906.02608-.201172-.167969-.152115-.194045-.379173-.646926-.486328-1.537109-.08741-.73154.306791-.965109.232422-.919922l.634765-.384766-.185547-.720703c-.860454-3.311707-.990573-6.324988-.105468-8.347656.884229-2.020669 2.655479-3.302664 6.460937-3.375z"/></svg>