<svg fill="#666" height="50" viewBox="0 0 50 50" width="50" xmlns="http://www.w3.org/2000/svg"><path d="m25 2c-12.645455 0-23 10.354545-23 23s10.354545 23 23 23 23-10.354545 23-23-10.354545-23-23-23zm0 2c11.554545 0 21 9.445455 21 21s-9.445455 21-21 21-21-9.445455-21-21 9.445455-21 21-21zm2.152344 7.998047c-5.750565.000505-8.455696.518597-10.289063 1.041015-1.833366.522421-2.560421.960938-4.863281.960938v2c2.57614 0 3.733273-.561233 5.410156-1.039062 1.676884-.477832 4.108752-.962396 9.742188-.962891 4.210798 0 6.201731.559654 6.949218 1.009765.373745.225057.446556.373338.492188.490235.04563.116896.050781.239829.050781.482422 0 .630485-.341797 1.117187-.341797 1.117187a1.0001 1.0001 0 0 0 .44336 1.535156s.335651.130847.675781.40625c.340131.275404.578125.583702.578125 1.007813 0 .908396-.796875 1.142578-.796875 1.142578a1.0001 1.0001 0 0 0 -.095703 1.830078s.892578.456839.892578 1.365235c0 .958923-.943359 1.21875-.943359 1.21875a1.0001 1.0001 0 0 0 -.671875 1.101562s.169921 1.188038.169922 1.744141c0 .108938.01068.135863-.201172.269531-.211851.133668-.673152.28125-1.353516.28125h-5.222656c-1.123667 0-2.165518.152291-2.970703.833984-.402593.340847-.709604.857927-.785157 1.421875-.07555.563949.052 1.133836.308594 1.703125a1.0001 1.0001 0 0 0 .009766.021485c.482315 1.008301.997167 2.229044 1.24414 3.365234.246974 1.13619.207096 2.124597-.191406 2.798828a1.0001 1.0001 0 0 0 -.007812.011719c-.194848.340916-.813317.781299-1.105469.833984-.146076.02634-.141943.00476-.140625.00586.001297.000997-.099196-.0724-.146484-.462891-.298615-3.065624-1.649355-5.029808-3.115235-6.384765-1.469297-1.358119-2.983728-2.209449-3.800781-3.173829 0 0-.001953-.001953-.001953-.001953-.775799-.940926-1.378896-2.052252-2.070313-3.023437-.346629-.486886-.718846-.944928-1.203125-1.314453-.484279-.369526-1.114757-.634766-1.800781-.634766v2c.217476 0 .36292.05295.587891.224609.224971.171663.496738.476902.787109.884766.580742.815728 1.225853 2.011015 2.164062 3.146484a1.0001 1.0001 0 0 0 .007813.007813c1.171269 1.383959 2.728317 2.205137 3.970703 3.353516 1.242387 1.148376 2.237693 2.519731 2.486328 5.130859a1.0001 1.0001 0 0 0 .003906.023437c.08835.736494.372792 1.388358.896485 1.798828.523693.410472 1.187545.48658 1.730469.388672 1.082982-.195298 1.951897-.884278 2.480468-1.804687.772022-1.312124.72559-2.835198.421875-4.232422-.302566-1.391946-.875218-2.718507-1.384765-3.785156-.15041-.333711-.159573-.53212-.148438-.615235.01113-.08311.012553-.09171.095703-.162109.166303-.140796.801401-.359375 1.677735-.359375h5.222656c.945636 0 1.76127-.174261 2.419922-.589844.658652-.415582 1.134765-1.166875 1.134766-1.960937 0-.603995-.07383-.985075-.13086-1.390625.683382-.401578 1.576172-1.108634 1.576172-2.673828 0-.992591-.431348-1.710295-.886719-2.226563.459833-.48352.886719-1.14969.886719-2.111328 0-1.201889-.709989-2.06795-1.318359-2.560547-.163568-.132441-.175863-.100265-.328125-.195312.139015-.376356.291015-.777286.291015-1.310547 0-.209407.01821-.683959-.1875-1.210938-.205712-.526978-.647587-1.067165-1.324219-1.474609-1.353261-.814888-3.608266-1.296875-7.980468-1.296875z"/></svg>