<svg fill="#666" height="50" viewBox="0 0 50 50" width="50" xmlns="http://www.w3.org/2000/svg"><path d="m22.205078 2a1.0001 1.0001 0 0 0 -.986328.8398438l-.798828 4.8925781c-1.555427.4131865-3.019772 1.0258753-4.376953 1.8144531l-4.046875-2.8925781a1.0001 1.0001 0 0 0 -1.289063.1074219l-3.8886716 3.8886722a1.0001 1.0001 0 0 0 -.1132813 1.279297l2.8574219 4.082031c-.7949512 1.362103-1.4120068 2.833152-1.828125 4.394531l-4.8984375.816406a1.0001 1.0001 0 0 0 -.8359375.986328v5.5a1.0001 1.0001 0 0 0 .8261719.984375l4.9003906.869141c.4131083 1.561136 1.0263439 3.031618 1.8183594 4.394531l-2.8925781 4.042969a1.0001 1.0001 0 0 0 .1074218 1.289062l3.8886724 3.888672a1.0001 1.0001 0 0 0 1.279296.113282l4.082032-2.855469c1.36199.796691 2.831796 1.413085 4.392578 1.828125l.818359 4.902344a1.0001 1.0001 0 0 0 .986328.835937h5.5a1.0001 1.0001 0 0 0 .984375-.826172l.869141-4.90039c1.57784-.416888 3.062631-1.039393 4.4375-1.84375l4.074219 2.857421a1.0001 1.0001 0 0 0 1.28125-.111328l3.888672-3.888672a1.0001 1.0001 0 0 0 .103515-1.291015l-2.896484-4.025391c.798319-1.368944 1.41793-2.84838 1.832031-4.419922l4.892578-.859375a1.0001 1.0001 0 0 0 .826172-.984375v-5.5a1.0001 1.0001 0 0 0 -.837891-.986328l-4.892578-.800781c-.416936-1.569959-1.037558-3.048212-1.83789-4.416016l2.857421-4.070312a1.0001 1.0001 0 0 0 -.111328-1.28125l-3.888672-3.888672a1.0001 1.0001 0 0 0 -1.291015-.1054688l-4.027344 2.8945313c-1.370042-.7989098-2.849912-1.4172718-4.421875-1.8320313l-.857422-4.8945312a1.0001 1.0001 0 0 0 -.986328-.828125zm.851563 2h3.808593l.81836 4.6601562a1.0001 1.0001 0 0 0 .767578.8046876c1.828245.4051276 3.533197 1.1268512 5.068359 2.1035152a1.0001 1.0001 0 0 0 1.121094-.033203l3.835937-2.7558591 2.69336 2.6953121-2.722656 3.876953a1.0001 1.0001 0 0 0 -.023438 1.113282c.977236 1.531756 1.700411 3.238074 2.107422 5.064453a1.0001 1.0001 0 0 0 .814453.769531l4.654297.759766v3.810547l-4.660156.818359a1.0001 1.0001 0 0 0 -.802735.767578c-.404103 1.826923-1.126021 3.533413-2.101562 5.066406a1.0001 1.0001 0 0 0 .03125 1.121094l2.759765 3.833984-2.693359 2.69336-3.882812-2.722656a1.0001 1.0001 0 0 0 -1.111329-.023438c-1.536684.980201-3.242524 1.702227-5.074218 2.109375a1.0001 1.0001 0 0 0 -.767578.800781l-.828125 4.667969h-3.814453l-.777344-4.666015a1.0001 1.0001 0 0 0 -.769532-.810547c-1.818312-.406159-3.512385-1.123482-5.039062-2.097657a1.0001 1.0001 0 0 0 -1.111328.023438l-3.888672 2.71875-2.6953125-2.695313 2.7519535-3.849609a1.0001 1.0001 0 0 0 .033203-1.117188c-.969514-1.530122-1.6876233-3.224113-2.0917971-5.041015a1.0001 1.0001 0 0 0 -.8007813-.767578l-4.6660156-.828125v-3.814453l4.6621094-.775391a1.0001 1.0001 0 0 0 .8105468-.769531c.407031-1.818009 1.1274208-3.514032 2.0996098-5.042969a1.0001 1.0001 0 0 0 -.025391-1.109375l-2.7207031-3.888672 2.6972661-2.6972655 3.853515 2.7539065a1.0001 1.0001 0 0 0 1.115235.03125c1.526295-.966655 3.221351-1.683779 5.035156-2.0878909a1.0001 1.0001 0 0 0 .769531-.8144531zm1.943359 9c-6.615686 0-12 5.385313-12 11.998047 0 6.614555 5.384314 12.001953 12 12.001953s12-5.387398 12-12.001953c0-6.612734-5.384314-11.998047-12-11.998047zm0 2c5.534314 0 10 4.46678 10 9.998047 0 5.533445-4.465686 10.001953-10 10.001953s-10-4.468508-10-10.001953c0-5.531267 4.465686-9.998047 10-9.998047zm0 4c-3.301864 0-6 2.698136-6 6s2.698136 6 6 6 6-2.698136 6-6-2.698136-6-6-6zm0 2c2.220984 0 4 1.779016 4 4s-1.779016 4-4 4-4-1.779016-4-4 1.779016-4 4-4z"/></svg>