<svg fill="#666" height="50" viewBox="0 0 50 50" width="50" xmlns="http://www.w3.org/2000/svg"><path d="m9.984375 15.001953c-.835.04-1.8660781.57136-2.4550781 1.318359-.54.644-1.0017656 1.689876-.8847657 2.671876.9430001.082 1.8856094-.49175 2.4746094-1.21875.58-.747001.9632344-1.748485.8652344-2.771485zm8.015625 1.998047v15h2.375v-5h3.25c2.983 0 5.125-2.075 5.125-5s-2.102875-5-5.046875-5zm-8.265625 2c-.8002778 0-1.4650086.214139-1.9511719.394531-.4861632.180393-.8545756.269533-.7441406.269531.098615 0-.2414622-.08181-.6777344-.257812s-1.0216092-.402344-1.7382812-.402344c-1.6249759 0-3.0869741.966513-3.8808594 2.371094-.79820758 1.382929-.86821244 2.991954-.609375 4.466797.25880204 1.474641.84563568 2.843873 1.5566406 3.878906.3168141.465566.6835209.983582 1.1757813 1.429688s1.1670392.841795 1.9785156.841797h.0195312.0175782c.6382153-.02395 1.1195394-.237191 1.4238281-.361329.3042887-.124137.4565682-.189453.8457031-.189453.382216 0 .539521.06923.8730469.205078.3335263.135845.8587565.353516 1.5410156.353516.8027049 0 1.4776199-.405326 1.9374999-.853516.459165-.447492.782325-.94816 1.082031-1.388672l.001954-.001953c.798852-1.169689 1.126953-2.36914 1.126953-2.36914l.248047-.882813-.859376-.322265s-1.270687-.371594-1.283203-1.988282v-.001953c-.006-.645007.239507-1.082854.511719-1.412109.136106-.164628.276963-.292468.384766-.378906.0539-.04322.09963-.07648.132812-.09961.03318-.02313-.04032.039446.121094-.083984l.748047-.572266-.525391-.78125c-1.103836-1.638793-2.786472-1.863281-3.457031-1.863281zm10.640625 0h2.75c2.047 0 3.25 1.105 3.25 3s-1.193 3-3.25 3h-2.75zm-10.640625 2c.1333078 0 .61996.142506 1.115234.443359-.02257.02607-.03987.03513-.0625.0625-.486538.588495-.9797741 1.515085-.9687496 2.705079.014841 1.80506.9276556 2.690406 1.6855466 3.226562-.123029.338002-.180509.621347-.570312 1.191406l-.001953.001953c-.306899.450995-.585849.851674-.824219 1.083985-.2383234.232263-.3576733.285156-.5429689.285156-.3057409 0-.4356354-.061923-.7871093-.205078-.3514742-.143155-.9071691-.353516-1.6269532-.353516-.703865 0-1.2526012.195529-1.6015625.337891-.338049.13791-.4675898.194124-.71875.207031-.1732568-.003128-.3537961-.07417-.6210937-.316406-.2729896-.247394-.5770016-.647784-.8671875-1.074219v-.001953l-.0019531-.001953c-.5265809-.765335-1.032012-1.93152-1.2363282-3.095703-.2043162-1.164184-.1086754-2.296172.3710938-3.125l.0039062-.00586.0019532-.003906c.4547541-.806751 1.3534522-1.357422 2.1425781-1.357422.2713279 0 .6085065.103815.9902343.257813.381728.153998.7551659.402344 1.4257813.402343.674435 0 1.0328195-.242923 1.4414063-.394531.408586-.151573.809184-.269531 1.2539062-.269531zm24.464844 0c-2.489 0-4.328485 1.395453-4.396485 3.314453h2.109375c.174-.912 1.03675-1.509765 2.21875-1.509765 1.433 0 2.242188.656281 2.242188 1.863281l.001953.832031-2.931641.154297c-2.721.161-4.193359 1.254297-4.193359 3.154297 0 1.919 1.520219 3.193359 3.699219 3.193359 1.472 0 2.838031-.731625 3.457031-1.890625h.048828v1.775391h2.167969v-7.371094c.001-2.139-1.740828-3.515625-4.423828-3.515625zm5.300781 0 4.007812 10.949219-.214843.666015c-.362 1.129-.948141 1.5625-1.994141 1.5625-.179 0-.517828-.018109-.673828-.037109v1.804687c.158.035001.707906.054688.878906.054688 2.307 0 3.392797-.867953 4.341797-3.501953l4.154297-11.498047h-2.404297l-2.787109 8.884766h-.048828l-2.78711-8.884766zm-3.125 6-.007812.867188c0 1.387-1.201063 2.375-2.789063 2.375-1.249 0-2.042969-.588235-2.042969-1.490235 0-.931.765516-1.472594 2.228516-1.558594z"/></svg>