<svg fill="#666" height="50" viewBox="0 0 50 50" width="50" xmlns="http://www.w3.org/2000/svg"><path d="m28.90625 1.96875c-.042969.007813-.085937.019531-.125.03125h-17.28125c-1.914062 0-3.5 1.558594-3.5 3.46875v38.4375c0 2.253906 1.867188 4.09375 4.125 4.09375h25.75c2.257813 0 4.125-1.839844 4.125-4.09375v-28.71875c.027344-.132812.027344-.273437 0-.40625v-.28125c.007813-.265625-.09375-.527344-.28125-.71875l-11.5-11.5c-.191406-.1875-.453125-.289062-.71875-.28125h-.3125c-.089844-.023437-.1875-.035156-.28125-.03125zm-17.40625 2.03125h16.5v8.34375c0 2.011719 1.644531 3.65625 3.65625 3.65625h8.34375v27.90625c0 1.167969-.945312 2.09375-2.125 2.09375h-25.75c-1.179687 0-2.125-.925781-2.125-2.09375v-38.4375c0-.824219.660156-1.46875 1.5-1.46875zm18.5.9375 9.0625 9.0625h-7.40625c-.933594 0-1.65625-.722656-1.65625-1.65625zm-13 19.0625v2h16v-2zm0 4v2h16v-2zm0 4v2h16v-2zm0 4v2h9v-2z"/></svg>