<svg fill="#666" height="50" viewBox="0 0 50 50" width="50" xmlns="http://www.w3.org/2000/svg"><path d="m6 4c-1.0930628 0-2 .9069372-2 2v38c0 1.093063.9069372 2 2 2h38c1.093063 0 2-.906937 2-2v-38c0-1.0930628-.906937-2-2-2zm0 2h38v38h-38zm11 8 .035156 22h2.464844v-22zm14.5 0v7.867188.007812c-.607-1.311-1.676875-1.875-2.796875-1.875-2.4 0-4.703125 2.372-4.703125 7.875 0 5.121 1.856469 8.4375 4.480469 8.4375 1.631 0 2.539531-.8495 3.019531-1.9375v1.625h2.5c-.032-.896 0-2.319 0-3.375v-18.625zm-2.253906 8.111328c1.184 0 2.112234 1.413672 2.240234 3.013672.032.351 0 .7435 0 1.0625v4.5625s-.029.587-.125.875c-.544 2.239-1.536687 2.638672-2.304687 2.638672-1.792 0-2.59375-3.124672-2.59375-6.388672 0-3.103.735203-5.763672 2.783203-5.763672z"/></svg>