<svg fill="#666" height="50" viewBox="0 0 50 50" width="50" xmlns="http://www.w3.org/2000/svg"><path d="m12 0c-1.09375 0-2 .90625-2 2v2h-6c-.523437 0-1.054687.191406-1.429687.570313-.378907.375-.570313.90625-.570313 1.429687v40c0 .523438.191406 1.054688.570313 1.433594.375.375.90625.566406 1.429687.566406h42c.523438 0 1.054688-.191406 1.433594-.566406.375-.378906.566406-.910156.566406-1.433594v-40c0-.523437-.191406-1.054687-.566406-1.429687-.378906-.378907-.910156-.570313-1.433594-.570313h-6v-2c0-1.09375-.90625-2-2-2h-2c-1.09375 0-2 .90625-2 2v2h-18v-2c0-1.09375-.90625-2-2-2zm0 2h2v6h-2zm24 0h2v6h-2zm-32 4h6v2c0 1.09375.90625 2 2 2h2c1.09375 0 2-.90625 2-2v-2h18v2c0 1.09375.90625 2 2 2h2c1.09375 0 2-.90625 2-2v-2h6v7h-42zm0 9h42v31h-42zm6 4v23h30v-23zm2 2h5v5h-5zm7 0h5v5h-5zm7 0h5v5h-5zm7 0h5v5h-5zm-21 7h5v5h-5zm7 0h5v5h-5zm7 0h5v5h-5zm7 0h5v5h-5zm-21 7h5v5h-5zm7 0h5v5h-5zm7 0h5v5h-5zm7 0h5v5h-5z"/></svg>