<svg fill="#666" height="50" viewBox="0 0 50 50" width="50" xmlns="http://www.w3.org/2000/svg"><path d="m28.625 2c-.339844.003906-.683594.019531-1.03125.0625-.691406.089844-1.449219.324219-2.03125.90625l-22.71875 22.71875c-1.121094 1.121094-1.121094 2.972656 0 4.09375l17.375 17.375c1.121094 1.121094 2.972656 1.121094 4.09375 0l22.71875-22.71875c.578125-.578125.816406-1.34375.90625-2.03125s.0625-1.367187.0625-2.03125v-14.875c0-1.921875-1.578125-3.5-3.5-3.5h-14.875c-.324219 0-.660156-.003906-1 0zm.03125 2c.292969-.007812.628906 0 .96875 0h14.875c.839844 0 1.5.660156 1.5 1.5v14.875c0 .695313-.003906 1.324219-.0625 1.78125s-.152344.683594-.3125.84375l-22.71875 22.75c-.355469.355469-.925781.355469-1.28125 0l-.125-.15625-17.25-17.21875c-.355469-.355469-.355469-.925781 0-1.28125l22.75-22.71875c.15625-.15625.414063-.253906.875-.3125.230469-.03125.488281-.054687.78125-.0625zm10.34375 3c-2.199219 0-4 1.800781-4 4s1.800781 4 4 4 4-1.800781 4-4-1.800781-4-4-4zm0 2c1.117188 0 2 .882813 2 2 0 1.117188-.882812 2-2 2-1.117187 0-2-.882812-2-2 0-1.117187.882813-2 2-2z"/></svg>