<svg fill="#666" height="50" viewBox="0 0 50 50" width="50" xmlns="http://www.w3.org/2000/svg"><path d="m17 5c-.820312 0-1.398437.5-1.8125.96875-.414062.46875-.75 1-1.0625 1.5s-.597656.96875-.84375 1.25c-.183594.210938-.304687.269531-.3125.28125h-9.96875c-1.644531 0-3 1.355469-3 3v27c0 1.644531 1.355469 3 3 3h44c1.644531 0 3-1.355469 3-3v-27c0-1.644531-1.355469-3-3-3h-9.96875c.003906.003906-.007812 0-.03125 0-.03125-.023437-.121094-.097656-.28125-.28125-.246094-.28125-.53125-.75-.84375-1.25s-.648437-1.03125-1.0625-1.5c-.414062-.46875-.992187-.96875-1.8125-.96875zm0 2h16c-.0625 0 .066406 0 .3125.28125s.53125.75.84375 1.25.65625 1.03125 1.0625 1.5.960938.96875 1.78125.96875h10c.5625 0 1 .4375 1 1v27c0 .5625-.4375 1-1 1h-44c-.5625 0-1-.4375-1-1v-27c0-.5625.4375-1 1-1h10c.820313 0 1.375-.5 1.78125-.96875s.75-1 1.0625-1.5.597656-.96875.84375-1.25.375-.28125.3125-.28125zm8 4c-7.167969 0-13 5.832031-13 13s5.832031 13 13 13 13-5.832031 13-13-5.832031-13-13-13zm0 2c6.085938 0 11 4.914063 11 11 0 6.085938-4.914062 11-11 11-6.085937 0-11-4.914062-11-11 0-6.085937 4.914063-11 11-11zm-17 1c-1.105469 0-2 .894531-2 2s.894531 2 2 2h1c1.105469 0 2-.894531 2-2s-.894531-2-2-2zm17 1c-4.957031 0-9 4.042969-9 9s4.042969 9 9 9 9-4.042969 9-9-4.042969-9-9-9zm0 2c3.878906 0 7 3.121094 7 7s-3.121094 7-7 7-7-3.121094-7-7 3.121094-7 7-7z"/></svg>