<svg fill="#666" height="50" viewBox="0 0 50 50" width="50" xmlns="http://www.w3.org/2000/svg"><path d="m13 5 3 9v6h2v-6l3-9h-2l-2 6-2-6zm11 4c-1.066406 0-1.589844.167969-2.242187.703125-.625.527344-.796875.933594-.757813 2.296875v5c0 .996094.164063 1.652344.765625 2.234375.625.582031 1.214844.765625 2.234375.765625 1.066406 0 1.648438-.183594 2.25-.765625.625-.558594.75-1.238281.75-2.234375v-5c0-.882812-.15625-1.71875-.761719-2.277344-.625-.574218-1.269531-.722656-2.238281-.722656zm5 0v9c0 .972656.980469 2 2 2s1.558594-.511719 2-1v1h2v-11h-2v8c-.011719.683594-.816406 1-1 1-.207031 0-1-.042969-1-1v-8zm-5 2c.300781 0 1-.003906 1 1v5c0 .96875-.675781 1-1 1-.300781 0-1-.011719-1-1v-5c0-.816406.433594-1 1-1zm1.457031 10.921875c-5.042968-.011719-10.082031 0-15.125.078125-.679687.019531-1.359375.117188-2.007812.328125-.523438.175781-1.023438.417969-1.476563.734375-.535156.375-.996093.847656-1.355468 1.390625-.253907.378906-.457032.792969-.609375 1.222656-.25.691407-.363282 1.421875-.382813 2.152344-.050781 3.28125-.050781 6.5625 0 9.84375.019531.625.101563 1.242188.265625 1.847656.316406 1.140625.921875 2.207032 1.804688 3.007813.253906.230469.527343.4375.820312.617187.359375.222657.746094.40625 1.148438.542969.578125.195313 1.183593.292969 1.792968.3125 10.109375.1875 20.226563.15625 30.335938 0 .679687-.019531 1.359375-.117187 2.007812-.328125.523438-.175781 1.023438-.417969 1.476563-.734375.535156-.375.996094-.847656 1.359375-1.390625.25-.378906.453125-.792969.609375-1.222656.246094-.691406.359375-1.421875.378906-2.152344.050781-3.417969.015625-6.839844 0-10.253906-.011719-.738281-.117187-1.476563-.359375-2.171875-.144531-.433594-.34375-.851563-.59375-1.234375-.351562-.546875-.808594-1.027344-1.335937-1.40625-.46875-.339844-.988282-.597656-1.535157-.777344-.675781-.21875-1.382812-.316406-2.09375-.328125-5.039062-.023437-10.082031-.066406-15.125-.078125zm7.636719 2.015625c2.511719.003906 5.023438.023438 7.53125.0625.398438.011719.796875.058594 1.183594.15625.621094.164063 1.207031.472656 1.65625.933594.152344.15625.285156.324219.40625.507812.167969.261719.300781.546875.394531.84375.15625.460938.21875.945313.234375 1.433594.050781 3.417969.050781 6.835938 0 10.25-.015625.488281-.078125.972656-.234375 1.433594-.09375.296875-.226562.582031-.394531.84375-.121094.183594-.253906.351562-.40625.507812-.449219.460938-1.035156.769532-1.65625.933594-.386719.097656-.785156.144531-1.183594.15625-10.058594.15625-20.121094.0625-30.183594 0-.429687-.007812-.851562-.070312-1.261718-.207031-.257813-.089844-.507813-.207031-.738282-.351563-.1875-.113281-.367187-.246093-.527343-.394531-.617188-.5625-1.023438-1.316406-1.234375-2.113281-.113282-.425781-.164063-.867188-.179688-1.308594-.050781-3.226562-.015625-6.457031 0-9.6875.007813-.492187.070313-.980469.21875-1.449219.09375-.300781.222656-.585937.390625-.851562.121094-.195313.265625-.382813.425781-.546875.464844-.476563 1.066407-.785156 1.707032-.945313.414062-.101562.839843-.140625 1.261718-.144531 7.53125 0 15.0625-.085937 22.589844-.0625zm-22.09375 2.0625v2h2v12h2v-12h2v-2zm15 0v14h2v-1c.386719.449219.949219 1.011719 2 1 .621094-.007812 1.101563-.507812 1.421875-.902344.328125-.394531.578125-.855468.578125-1.597656v-6c0-.863281-.273437-1.449219-.621094-1.890625-.347656-.4375-.855468-.671875-1.503906-.671875-.328125 0-.652344.09375-.972656.257813-.328125.160156-.671875.445312-.902344.804687v-4zm-8 3v9c0 .625.269531.933594.5 1.234375.257813.328125.808594.765625 1.292969.765625.390625 0 .8125.015625 1.226562-.21875.417969-.207031.609375-.34375.980469-.78125v1h2v-11h-2v8c-.179687.234375-.1875.992188-1 1-.730469.007813-1-.769531-1-1v-8zm18.199219 0c-.949219 0-1.828125.230469-2.296875.710938-.582031.597656-.898438 1.269531-.898438 2.175781v4.707031c0 1.019531.277344 1.8125.808594 2.390625s1.273438.859375 2.222656.859375c1.039063 0 1.832032-.257812 2.339844-.816406.539063-.53125.625-1.34375.625-2.433594v-.59375h-2v.5c0 .601563-.058594 1.066406-.199219 1.230469-.136718.183594-.394531.265625-.800781.269531-.367187.003906-.644531-.097656-.78125-.328125-.144531-.210937-.21875-.566406-.21875-1.125v-1.546875h4v-3.113281c0-1-.164062-1.621094-.679687-2.152344-.503907-.53125-1.171875-.734375-2.121094-.734375zm-7.199219 1.5c.550781 0 1 .5 1 1.5v5.023438c0 .550781-.449219.976562-1 .976562s-.992187-.210937-1-.5v-6c.007813-.503906.449219-1 1-1zm7 .5c.550781 0 1 .386719 1 1v1h-2v-1c.007813-.535156.449219-1 1-1z" fill-rule="evenodd"/></svg>