<svg fill="#666" height="50" viewBox="0 0 50 50" width="50" xmlns="http://www.w3.org/2000/svg"><path d="m35.9375 0c-.191406.00390625-.375.0429688-.5625.09375-.742187.207031-1.410156.699219-1.9375 1.375-.011719.011719-.019531.019531-.03125.03125l-8.34375 11.6875c-5.128906-1.1875-10.726562.164063-14.71875 4.15625-.386719.390625-.386719 1.015625 0 1.40625l7.4375 7.40625-17.5625 22.21875c-.320313.398438-.2890625.972656.070313 1.335938.363281.359375.9375.390625 1.335937.070312l22.1875-17.5625 7.4375 7.40625c.390625.386719 1.015625.386719 1.40625 0 4.050781-4.046875 5.375-9.75 4.09375-14.9375l11.71875-7.96875.03125-.03125c.683594-.507812 1.15625-1.136719 1.375-1.875s.109375-1.671875-.5-2.28125l-11.75-11.90625c-.300781-.308594-.699219-.480469-1.09375-.5625-.199219-.0429687-.402344-.06640625-.59375-.0625zm.1875 2c.035156.003906.039063.007813.0625.03125l11.78125 11.90625c.042969.042969.066406.054688 0 .28125-.066406.21875-.296875.5625-.65625.84375l-.03125.03125-12.15625 8.28125c-.011719.011719-.019531.019531-.03125.03125l-.0625.03125c-.332031.257813-.46875.691406-.34375 1.09375 1.308594 4.386719.308594 9.222656-2.84375 12.875l-19.28125-19.25c3.605469-3.109375 8.378906-4.136719 12.71875-2.90625.414063.113281.855469-.050781 1.09375-.40625l8.625-12.15625.03125-.03125c.289063-.355469.652344-.5625.875-.625.117188-.03125.183594-.035156.21875-.03125zm-16.9375 25.59375 3.21875 3.1875-15.28125 12.09375z"/></svg>