<svg fill="#666" height="50" viewBox="0 0 50 50" width="50" xmlns="http://www.w3.org/2000/svg"><path d="m49.601563 8.898438c-.101563-.296875-.402344-.597657-.703125-.597657-.296875-.101562-.699219 0-.898438.300782l-5.300781 5.296875c-.300781.300781-.898438.300781-1.199219 0l-5.300781-5.296875c-.300781-.300782-.300781-.902344 0-1.203125l5.300781-5.398438c.199219-.199219.300781-.601562.300781-.898437-.101562-.300782-.300781-.601563-.601562-.703125-4-1.398438-10.398438 1.5-13 4.101562-2.597656 2.601563-2.898438 6.199219-.800781 10.101563l-.199219.199218-2.199219-2.300781c-1.898437-2.101562-4.5-3.300781-7.398437-3.398437-2.902344-.101563-5.5 1-7.5 3l-7 7c-4.000001 4-4.000001 10.5 0 14.5l1.898437 1.898437-3 2.800781c-.800781.800782-1.699219 2.199219-2 4-.101563 1.5 0 3.597657 2 5.699219 1.601563 1.601563 3.300781 2 4.699219 2 .300781 0 .699219 0 1-.101562 1.800781-.296875 3.199219-1.199219 4-2l3.402344-3.5c.199218 0 .398437.101562.699218.101562 1.597657 0 3.097657-.800781 3.898438-2.101562.5.203125 1.101562.300781 1.601562.300781 2.300782 0 4.199219-1.597656 4.597657-3.800781.300781.101562.601562.101562.902343.101562 2.300782 0 4.199219-1.601562 4.597657-3.800781.300781.101562.601562.101562.902343.101562 2.597657 0 4.699219-2.101562 4.699219-4.699218 0-1.402344-.699219-2.800782-1.800781-3.703125l-2-2 2.199219-2.199219c3.902343 2.101562 7.402343 1.800781 10.101562-.800781 2.601563-2.699219 5.5-9.097657 4.101563-13zm-39.300782 37.601562c-.5.5-1.601562 1.199219-2.902343 1.398438-1.5.203125-2.796875-.296875-3.898438-1.398438-1.199219-1.199219-1.601562-2.5-1.398437-3.898437.199218-1.300782.898437-2.300782 1.398437-2.902344l2.898438-2.800781 5.800781 5.800781c.300781.300781.601562.601562 1 .902344zm23.699219-18.101562c.699219.5 1.101563 1.300781 1.101563 2.101562 0 1.5-1.203125 2.699219-2.703125 2.699219-.5 0-.898438-.097656-1.398438-.398438l-1.800781-1.101562.300781 2.101562v.398438c0 1.5-1.199219 2.699219-2.699219 2.699219-.5 0-.902343-.097657-1.402343-.398438l-1.796875-1.101562.296875 2.101562v.398438c0 1.5-1.199219 2.703125-2.699219 2.703125-.5 0-1.097656-.203125-1.5-.5l-1.097656-.703125-.402344 1.203125c-.398438 1.097656-1.398438 1.796875-2.5 1.796875-.800781 0-1.597656-.398438-2.097656-1l-9.203125-9.199219c-3.199219-3.199219-3.199219-8.5 0-11.699219l7-7c1.601562-1.601562 3.800781-2.5 6.101562-2.398437 2.300781.097656 4.398438 1 6 2.796875l2.300781 2.402343-.601562.597657-.199219-.296875c-.398437-.402344-1-.402344-1.398437 0-.402344.398437-.402344 1 0 1.398437l10.296875 10.300781zm10-8c-2.699219 2.703125-6 1.601562-8.300781.101562-.398438-.199219-.898438-.199219-1.199219.199219l-2.699219 2.699219-5.199218-5.199219 2.699218-2.699219c.300782-.300781.398438-.800781.199219-1.199219-1.398437-2.402343-2.5-5.699218.101563-8.300781 1.898437-1.898437 6-3.898437 9.097656-4l-3.898438 3.898438c-1.101562 1.101562-1.101562 2.902343 0 4.101562l5.300782 5.300781c1.097656 1.097657 2.898437 1.097657 4.097656 0l3.902344-3.902343c-.101563 3-2.203125 7.101562-4.101563 9z"/></svg>