<svg fill="#666" height="50" viewBox="0 0 50 50" width="50" xmlns="http://www.w3.org/2000/svg"><path d="m25.90625-.03125c-.042969.0078125-.085937.0195312-.125.03125-.464844.105469-.792969.523438-.78125 1v2c-.003906.359375.183594.695313.496094.878906.3125.179688.695312.179688 1.007812 0 .3125-.183593.5-.519531.496094-.878906v-2c.011719-.289062-.105469-.566406-.3125-.761719-.210937-.1992185-.496094-.2968748-.78125-.269531zm-7.1875 2.9375c-.375.066406-.675781.339844-.78125.703125-.105469.367188.003906.757813.28125 1.015625l1.40625 1.4375c.398438.398438 1.039063.398438 1.4375 0 .398438-.398437.398438-1.039062 0-1.4375l-1.4375-1.40625c-.1875-.199219-.445312-.308594-.71875-.3125-.03125 0-.0625 0-.09375 0s-.0625 0-.09375 0zm14.25 0c-.226562.03125-.4375.144531-.59375.3125l-1.4375 1.40625c-.398437.398438-.398437 1.039063 0 1.4375.398438.398438 1.039063.398438 1.4375 0l1.40625-1.4375c.296875-.285156.386719-.726562.226563-1.105469-.15625-.378906-.535157-.621093-.945313-.613281-.03125 0-.0625 0-.09375 0zm-6.96875 3.09375c-2.199219 0-4 1.800781-4 4v3h-19.21875c-1.511719 0-2.78125 1.234375-2.78125 2.75v24.5c0 1.515625 1.269531 2.75 2.78125 2.75h4.21875c0 3.300781 2.699219 6 6 6s6-2.699219 6-6h14c0 3.300781 2.699219 6 6 6s6-2.699219 6-6h2.21875c1.511719 0 2.78125-1.234375 2.78125-2.75v-7c0-1.101562-.40625-2.09375-.78125-2.84375-.359375-.714844-.683594-1.171875-.71875-1.21875l-.03125-.0625-9-13.90625c-.027344-.042969-.058594-.085937-.09375-.125-.390625-.464844-.746094-.949219-1.28125-1.375s-1.273437-.71875-2.125-.71875h-5.96875v-3c0-2.199219-1.804687-4-4-4zm0 2c1.117188 0 2 .882813 2 2v3h-4v-3c0-1.117187.882813-2 2-2zm-10.28125 1c-.550781.078125-.9375.589844-.859375 1.140625s.589844.9375 1.140625.859375h2c.359375.003906.695313-.183594.878906-.496094.179688-.3125.179688-.695312 0-1.007812-.183593-.3125-.519531-.5-.878906-.496094h-2c-.03125 0-.0625 0-.09375 0s-.0625 0-.09375 0-.0625 0-.09375 0zm18 0c-.550781.078125-.9375.589844-.859375 1.140625s.589844.9375 1.140625.859375h2c.359375.003906.695313-.183594.878906-.496094.179688-.3125.179688-.695312 0-1.007812-.183593-.3125-.519531-.5-.878906-.496094h-2c-.03125 0-.0625 0-.09375 0s-.0625 0-.09375 0-.0625 0-.09375 0zm-30.9375 6h33.1875c.449219 0 .609375.101563.875.3125.265625.210938.582031.59375 1 1.09375l.375.59375h-6.21875c-.03125 0-.0625 0-.09375 0s-.0625 0-.09375 0c-.476562.089844-.820312.511719-.8125 1v11c0 .550781.449219 1 1 1h14.15625c.152344.003906.300781-.03125.4375-.09375l.21875.34375c.007813.019531.019531.042969.03125.0625 0 0 .292969.398438.59375 1 .300781.601563.5625 1.378906.5625 1.9375v7c0 .414063-.34375.75-.78125.75h-2.5625c-.824219-2.328125-3.050781-4-5.65625-4s-4.832031 1.671875-5.65625 4h-14.6875c-.824219-2.328125-3.050781-4-5.65625-4s-4.832031 1.671875-5.65625 4h-4.5625c-.4375 0-.78125-.335937-.78125-.75v-24.5c0-.414062.34375-.75.78125-.75zm30.21875 4h6.53125l5.8125 9h-12.34375zm-19 2v4h-4v2h4v4h2v-4h4v-2h-4v-4zm-1 18c2.222656 0 4 1.777344 4 4s-1.777344 4-4 4-4-1.777344-4-4 1.777344-4 4-4zm26 0c2.222656 0 4 1.777344 4 4s-1.777344 4-4 4-4-1.777344-4-4 1.777344-4 4-4z"/></svg>