<svg fill="#666" height="50" viewBox="0 0 50 50" width="50" xmlns="http://www.w3.org/2000/svg"><path d="m25 2c-12.690705 0-23 10.309295-23 23s10.309295 23 23 23 23-10.309295 23-23-10.309295-23-23-23zm0 2c11.609824 0 21 9.390176 21 21s-9.390176 21-21 21-21-9.390176-21-21 9.390176-21 21-21zm1.400391 8.699219c-2.7 0-8.101172 1.20039-9.701172 9.40039h-1.699219l-.599609 1.5h2.199218c-.1.3-.099609 1.100782-.099609 1.300782v.699218h-1.5l-.599609 1.5h2.199218c1.2 9 6.79961 10.09961 9.59961 10.09961 2.3 0 4.201562-.699219 6.101562-2.199219v-2.599609c-2.8 2.9-4.70039 2.90039-5.90039 2.90039-2.2 0-6.5-.901172-7.5-8.201172h9.5l.599609-1.5h-10.300781v-.5c0-.5.001562-.9.101562-1.5h10.798828l.59961-1.5h-11.199219c1.3-6.6 5.300391-7.40039 7.400391-7.40039s3.90039.801562 5.40039 2.601562l.898438-2c-1.4-1.7-3.498828-2.601562-6.298828-2.601562z"/></svg>