<svg fill="#666" height="50" viewBox="0 0 50 50" width="50" xmlns="http://www.w3.org/2000/svg"><path d="m37.03125 1.988281c-.363281-.007812-.707031.183594-.890625.496094 0 0-2.617187 4.515625-9.140625 4.515625-.359375-.003906-.695312.183594-.878906.496094-.179688.3125-.179688.695312 0 1.007812.183594.3125.519531.5.878906.496094 7.476563 0 10.859375-5.484375 10.859375-5.484375.1875-.304687.195313-.6875.027344-1.003906-.171875-.3125-.496094-.515625-.855469-.523438zm-9.03125.011719c-3.914062 0-6.445312 2.214844-7.140625 2.863281-.652344-.296875-2.035156-.863281-3.859375-.863281-3.445312 0-5.707031 2.292969-5.707031 2.292969-.261719.25-.367188.625-.273438.972656.089844.351563.363282.625.714844.714844.347656.09375.722656-.011719.972656-.273438 0 0 1.738282-1.707031 4.292969-1.707031 1.667969 0 3.550781.894531 3.550781.894531l.648438.324219.507812-.511719s2.792969-2.707031 6.292969-2.707031c.359375.003906.695313-.183594.878906-.496094.179688-.3125.179688-.695312 0-1.007812-.183593-.3125-.519531-.5-.878906-.496094zm10 7.734375-.613281.476563-9.386719 7.300781v7.488281h-12.0625l-1-15h-6.875l-1 15h-5.0625v23h46v-30.488281zm-28.0625 2.265625h3.125l.871094 13h-2.933594v2h19v-8.511719l8-6.222656 8 6.222656v27.511719h-42v-19h4.9375zm23.0625 11v4h2v-4zm4 0v4h2v-4zm4 0v4h2v-4zm-34 7v2h4v-2zm6 0v2h4v-2zm6 0v2h4v-2zm6 0v2h4v-2zm8 0v4h2v-4zm4 0v4h2v-4zm4 0v4h2v-4zm-8 7v4h2v-4zm4 0v4h2v-4zm4 0v4h2v-4z"/></svg>