<svg fill="#666" height="50" viewBox="0 0 50 50" width="50" xmlns="http://www.w3.org/2000/svg"><path d="m27.4375 2c-.171875.03125-.335937.105469-.46875.21875l-9.1875 3.375c-.125.039063-.242187.101563-.34375.1875l-9.0625 8.46875c-.074219.0625-.136719.136719-.1875.21875l-5.9375 10.1875c-.035156.050781-.066406.101563-.09375.15625l-.03125.0625c-.011719.011719-.019531.019531-.03125.03125v.0625c-.011719.019531-.023437.042969-.03125.0625-.011719.011719-.019531.019531-.03125.03125v.03125c-.011719.019531-.023437.042969-.03125.0625v.03125.0625.03125.0625.03125c-.007812.0625-.007812.125 0 .1875v12.375c-.003906.042969-.003906.082031 0 .125v.03125c-.003906.09375.007813.191406.03125.28125.203125 4.355469 1.980469 6.90625 4.125 8.15625 2.039063 1.191406 4.226563 1.304688 5.59375 1.34375.105469.003906.25-.003906.34375 0h.09375c.054688-.007812.105469-.015625.15625-.03125h.03125l32.03125-2.1875c.074219.007813.144531.007813.21875 0 .109375-.015625.214844-.046875.3125-.09375.066406-.035156.128906-.078125.1875-.125h.03125c.304688-.234375.453125-.621094.375-1l2.375-31.25c.003906-.019531-.003906-.042969 0-.0625l.09375-1.1875c.015625-.136719.007813-.273437-.03125-.40625 0-1.015625-.09375-2.023437-.34375-3-.769531-2.992187-3.085937-5.574219-7.40625-6.34375-.0625-.015625-.125-.027344-.1875-.03125-.019531 0-.042969 0-.0625 0l-12.21875-.15625c-.074219-.007812-.144531-.007812-.21875 0-.03125 0-.0625 0-.09375 0zm3.53125 2.03125 5.21875.0625-2.875 1.59375zm-3.375.09375 4.5625 3.21875-3.25 10.34375-12.28125 11.4375-10.03125 2.25-2.46875-5.9375 5.71875-9.84375 8.8125-8.1875zm12.5.09375c3.523438.699219 4.992188 2.484375 5.59375 4.8125.503906 1.957031.203125 4.300781-.34375 6.46875l-10.34375-8.46875zm-6.25 4.4375 9.4375 7.75-12.125.8125zm10.625 9.65625c-2.089844 5.648438-5.730469 10.449219-9.875 14.96875l-3.5625-14.09375zm-15.25 1.8125 3.46875 13.84375-13.625-4.40625zm16 1.78125-1.5625 20.625-8.09375-7.21875c3.773438-4.039062 7.261719-8.378906 9.65625-13.40625zm-41.21875 8.5.90625 2.09375-.90625 1.65625zm13.84375.875 14.21875 4.5625c-5.300781 4.769531-11.144531 8.535156-18.5 9.65625zm-2.125.09375-3.78125 12.5625-4.5625-10.6875zm-9.84375 3.46875 4.65625 10.90625c-1.101562-.109375-2.296875-.339844-3.375-.96875-1.605469-.9375-2.960937-2.664062-3.125-6.5625zm28.21875 1.875 8.03125 7.125-20.125 1.34375c4.539063-2.078125 8.464844-5.128906 12.09375-8.46875z"/></svg>