<svg fill="#666" height="50" viewBox="0 0 50 50" width="50" xmlns="http://www.w3.org/2000/svg"><path d="m2.8125 7c-.476562.089844-.820312.511719-.8125 1v4c0 .550781.449219 1 1 1h4c.550781 0 1-.449219 1-1v-4c0-.550781-.449219-1-1-1h-4c-.03125 0-.0625 0-.09375 0s-.0625 0-.09375 0zm1.1875 2h2v2h-2zm6.71875 0c-.550781.078125-.9375.589844-.859375 1.140625s.589844.9375 1.140625.859375h36c.359375.003906.695313-.183594.878906-.496094.179688-.3125.179688-.695312 0-1.007812-.183593-.3125-.519531-.5-.878906-.496094h-36c-.03125 0-.0625 0-.09375 0s-.0625 0-.09375 0-.0625 0-.09375 0zm-7.90625 8c-.476562.089844-.820312.511719-.8125 1v4c0 .550781.449219 1 1 1h4c.550781 0 1-.449219 1-1v-4c0-.550781-.449219-1-1-1h-4c-.03125 0-.0625 0-.09375 0s-.0625 0-.09375 0zm1.1875 2h2v2h-2zm6.71875 0c-.550781.078125-.9375.589844-.859375 1.140625s.589844.9375 1.140625.859375h36c.359375.003906.695313-.183594.878906-.496094.179688-.3125.179688-.695312 0-1.007812-.183593-.3125-.519531-.5-.878906-.496094h-36c-.03125 0-.0625 0-.09375 0s-.0625 0-.09375 0-.0625 0-.09375 0zm-7.90625 8c-.476562.089844-.820312.511719-.8125 1v4c0 .550781.449219 1 1 1h4c.550781 0 1-.449219 1-1v-4c0-.550781-.449219-1-1-1h-4c-.03125 0-.0625 0-.09375 0s-.0625 0-.09375 0zm1.1875 2h2v2h-2zm6.71875 0c-.550781.078125-.9375.589844-.859375 1.140625s.589844.9375 1.140625.859375h36c.359375.003906.695313-.183594.878906-.496094.179688-.3125.179688-.695312 0-1.007812-.183593-.3125-.519531-.5-.878906-.496094h-36c-.03125 0-.0625 0-.09375 0s-.0625 0-.09375 0-.0625 0-.09375 0zm-7.90625 8c-.476562.089844-.820312.511719-.8125 1v4c0 .550781.449219 1 1 1h4c.550781 0 1-.449219 1-1v-4c0-.550781-.449219-1-1-1h-4c-.03125 0-.0625 0-.09375 0s-.0625 0-.09375 0zm1.1875 2h2v2h-2zm6.71875 0c-.550781.078125-.9375.589844-.859375 1.140625s.589844.9375 1.140625.859375h36c.359375.003906.695313-.183594.878906-.496094.179688-.3125.179688-.695312 0-1.007812-.183593-.3125-.519531-.5-.878906-.496094h-36c-.03125 0-.0625 0-.09375 0s-.0625 0-.09375 0-.0625 0-.09375 0z"/></svg>