<svg fill="#666" height="50" viewBox="0 0 50 50" width="50" xmlns="http://www.w3.org/2000/svg"><path d="m.78125-.03125c-.480469.109375-.8203125.539063-.8125 1.03125v48c.0039062.566406.464844 1.027344 1.03125 1.03125h30c.566406-.003906 1.027344-.464844 1.03125-1.03125v-10h-2.0625v8.96875h-27.9375v-45.9375h27.9375v8.96875h2.0625v-10c-.003906-.566406-.464844-1.0273438-1.03125-1.03125h-30c-.074219-.0078125-.144531-.0078125-.21875 0zm38.125 15.125c-.375.066406-.675781.339844-.78125.703125-.105469.367188.003906.757813.28125 1.015625l7.15625 7.1875h-29.5625c-.03125 0-.0625 0-.09375 0-.550781.027344-.980469.496094-.953125 1.046875s.496094.980469 1.046875.953125h29.5625l-7.15625 7.1875c-.296875.242188-.433594.628906-.347656 1.003906.085937.371094.378906.664063.75.75.375.085938.761719-.050781 1.003906-.347656l8.90625-8.875.6875-.71875-.6875-.71875-8.90625-8.875c-.207031-.222656-.507812-.335937-.8125-.3125-.03125 0-.0625 0-.09375 0z"/></svg>