<svg fill="#666" height="50" viewBox="0 0 50 50" width="50" xmlns="http://www.w3.org/2000/svg"><path d="m25 2a1.0001 1.0001 0 0 0 -.154297.015625c-12.618634.085343-22.845703 10.345847-22.845703 22.984375 0 12.691367 10.308633 23 23 23s23-10.308633 23-23c0-12.637204-10.224987-22.8969059-22.841797-22.984375a1.0001 1.0001 0 0 0 -.158203-.015625zm0 2c11.610633 0 21 9.389367 21 21s-9.389367 21-21 21-21-9.389367-21-21 9.389367-21 21-21zm-8 14a3 3 0 0 0 -3 3 3 3 0 0 0 3 3 3 3 0 0 0 3-3 3 3 0 0 0 -3-3zm16 0a3 3 0 0 0 -3 3 3 3 0 0 0 3 3 3 3 0 0 0 3-3 3 3 0 0 0 -3-3zm-21.042969 10.988281a1.0001 1.0001 0 0 0 -.771484 1.59375s5.23112 7.417969 13.814453 7.417969 13.814453-7.417969 13.814453-7.417969a1.0010463 1.0010463 0 0 0 -1.628906-1.164062s-4.76888 6.582031-12.185547 6.582031-12.185547-6.582031-12.185547-6.582031a1.0001 1.0001 0 0 0 -.857422-.429688z"/></svg>