<svg fill="#666" height="50" viewBox="0 0 50 50" width="50" xmlns="http://www.w3.org/2000/svg"><path d="m25 2c-7.167969 0-13 5.832031-13 13 0 5.078125 3.105469 11.347656 6.140625 16.492188 3.03125 5.144531 6.0625 9.117187 6.0625 9.117187l.796875 1.035156.796875-1.035156s3.03125-3.972656 6.0625-9.117187c3.035156-5.144532 6.140625-11.414063 6.140625-16.492188 0-7.167969-5.832031-13-13-13zm0 2c6.085938 0 11 4.914063 11 11 0 4.214844-2.894531 10.445313-5.859375 15.476563-2.570312 4.355468-4.496094 6.863281-5.140625 7.722656-.644531-.859375-2.570312-3.367188-5.140625-7.722656-2.964844-5.03125-5.859375-11.261719-5.859375-15.476563 0-6.085937 4.914063-11 11-11zm0 6c-2.75 0-5 2.25-5 5s2.25 5 5 5 5-2.25 5-5-2.25-5-5-5zm0 2c1.667969 0 3 1.332031 3 3s-1.332031 3-3 3-3-1.332031-3-3 1.332031-3 3-3zm-17.703125 20-5.71875 16h46.84375l-5.71875-16h-7.652344c-.390625.6875-.78125 1.355469-1.171875 2h7.417969l4.28125 12h-41.15625l4.28125-12h7.417969c-.390625-.644531-.78125-1.3125-1.171875-2z"/></svg>