<svg fill="#666" height="50" viewBox="0 0 50 50" width="50" xmlns="http://www.w3.org/2000/svg"><path d="m10.8125 2c-.476562.089844-.820312.511719-.8125 1v13h-5c-.03125 0-.0625 0-.09375 0s-.0625 0-.09375 0c-.476562.089844-.820312.511719-.8125 1v1h-4v6h4v21.5c0 1.367188 1.132813 2.5 2.5 2.5h37c1.367188 0 2.5-1.132812 2.5-2.5v-21.5h4v-6h-4v-1c0-.550781-.449219-1-1-1h-5v-13c0-.550781-.449219-1-1-1h-28c-.03125 0-.0625 0-.09375 0s-.0625 0-.09375 0zm1.1875 2h26v12.84375c-.003906.050781-.003906.105469 0 .15625v2 .09375 1.90625h-7.5c-1.921875 0-3.5 1.578125-3.5 3.5s1.578125 3.5 3.5 3.5h2.5c.566406 0 1 .433594 1 1s-.433594 1-1 1h-16c-.566406 0-1-.433594-1-1s.433594-1 1-1h2.5c1.921875 0 3.5-1.578125 3.5-3.5s-1.578125-3.5-3.5-3.5h-7.5v-1.84375c.003906-.050781.003906-.105469 0-.15625v-2c0-.03125 0-.0625 0-.09375zm9 11c-.738281 0-1.371094.402344-1.71875 1h-6.28125v2h6.28125c.347656.597656.980469 1 1.71875 1s1.371094-.402344 1.71875-1h4.5625c.347656.597656.980469 1 1.71875 1s1.371094-.402344 1.71875-1h6.28125v-2h-6.28125c-.347656-.597656-.980469-1-1.71875-1s-1.371094.402344-1.71875 1h-4.5625c-.347656-.597656-.980469-1-1.71875-1zm-15 3h4v1 .09375 2.90625c0 .550781.449219 1 1 1h8.5c.839844 0 1.5.660156 1.5 1.5s-.660156 1.5-1.5 1.5h-2.5c-1.644531 0-3 1.355469-3 3s1.355469 3 3 3h16c1.644531 0 3-1.355469 3-3s-1.355469-3-3-3h-2.5c-.839844 0-1.5-.660156-1.5-1.5s.660156-1.5 1.5-1.5h8.5c.550781 0 1-.449219 1-1v-2.84375c.003906-.050781.003906-.105469 0-.15625v-1h4v27.5c0 .285156-.214844.5-.5.5h-37c-.285156 0-.5-.214844-.5-.5zm-4 2h2v2h-2zm44 0h2v2h-2zm-35 14c-.550781 0-1 .449219-1 1s.449219 1 1 1 1-.449219 1-1-.449219-1-1-1zm4 0c-.550781 0-1 .449219-1 1s.449219 1 1 1 1-.449219 1-1-.449219-1-1-1zm4 0c-.550781 0-1 .449219-1 1s.449219 1 1 1 1-.449219 1-1-.449219-1-1-1zm4 0c-.550781 0-1 .449219-1 1s.449219 1 1 1 1-.449219 1-1-.449219-1-1-1zm4 0c-.550781 0-1 .449219-1 1s.449219 1 1 1 1-.449219 1-1-.449219-1-1-1zm4 0c-.550781 0-1 .449219-1 1s.449219 1 1 1 1-.449219 1-1-.449219-1-1-1zm4 0c-.550781 0-1 .449219-1 1s.449219 1 1 1 1-.449219 1-1-.449219-1-1-1zm4 0c-.550781 0-1 .449219-1 1s.449219 1 1 1 1-.449219 1-1-.449219-1-1-1zm-26 4c-.550781 0-1 .449219-1 1s.449219 1 1 1 1-.449219 1-1-.449219-1-1-1zm4 0c-.550781 0-1 .449219-1 1s.449219 1 1 1 1-.449219 1-1-.449219-1-1-1zm4 0c-.550781 0-1 .449219-1 1s.449219 1 1 1 1-.449219 1-1-.449219-1-1-1zm4 0c-.550781 0-1 .449219-1 1s.449219 1 1 1 1-.449219 1-1-.449219-1-1-1zm4 0c-.550781 0-1 .449219-1 1s.449219 1 1 1 1-.449219 1-1-.449219-1-1-1zm4 0c-.550781 0-1 .449219-1 1s.449219 1 1 1 1-.449219 1-1-.449219-1-1-1zm4 0c-.550781 0-1 .449219-1 1s.449219 1 1 1 1-.449219 1-1-.449219-1-1-1zm-21 4c-.550781 0-1 .449219-1 1s.449219 1 1 1h18c.550781 0 1-.449219 1-1s-.449219-1-1-1z"/></svg>